<?xml version="1.0" encoding="utf-8"?>
<!-- Generator: Adobe Illustrator 23.0.6, SVG Export Plug-In . SVG Version: 6.00 Build 0)  -->
<svg version="1.1"
	 id="svg3713" inkscape:version="0.92.4 (5da689c313, 2019-01-14)" sodipodi:docname="dog.svg" xmlns:cc="http://creativecommons.org/ns#" xmlns:dc="http://purl.org/dc/elements/1.1/" xmlns:inkscape="http://www.inkscape.org/namespaces/inkscape" xmlns:rdf="http://www.w3.org/1999/02/22-rdf-syntax-ns#" xmlns:sodipodi="http://sodipodi.sourceforge.net/DTD/sodipodi-0.dtd" xmlns:svg="http://www.w3.org/2000/svg"
	 xmlns="http://www.w3.org/2000/svg" xmlns:xlink="http://www.w3.org/1999/xlink" x="0px" y="0px" viewBox="0 0 512 445.4"
	 style="enable-background:new 0 0 512 445.4;" xml:space="preserve">
<style type="text/css">
	.st0{fill:#5BB798;}
</style>
<sodipodi:namedview  bordercolor="#666666" borderopacity="1" gridtolerance="10" guidetolerance="10" id="namedview3715" inkscape:current-layer="svg3713" inkscape:cx="256" inkscape:cy="256" inkscape:pageopacity="0" inkscape:pageshadow="2" inkscape:window-height="837" inkscape:window-maximized="1" inkscape:window-width="1440" inkscape:window-x="-8" inkscape:window-y="-8" inkscape:zoom="1.3046875" objecttolerance="10" pagecolor="#ffffff" showgrid="false">
	</sodipodi:namedview>
<path id="path3723" inkscape:connector-curvature="0" class="st0" d="M217.5,444.5c-95.9-7.7-150.3-49.4-160-122.6
	c-2.8-21.2-1.4-52.2,3.5-74.5c1.1-5,1.9-9.3,1.8-9.4s-3.4-0.7-7.2-1.4c-8.5-1.5-19.8-5.7-26.5-10c-7.8-5-18.4-17-22.9-26
	c-10.3-20.6-7.5-44,9.4-77C26.6,101.9,46,75.7,66,55.4c24.9-25.2,47.6-36.9,71.9-36.9c10.1,0,17.6,1.5,25.1,5l4.5,2.1L173,22
	c13.3-9,33-16.7,51.1-20.1c13.3-2.5,50.4-2.5,63.8,0c17.7,3.3,35.6,10.3,50.7,19.8l6.2,3.9l3.9-2c10.6-5.4,28.7-6.7,42.8-3.1
	c10.5,2.7,24.1,9.4,34.5,17c22.9,16.8,55.2,56.3,70.4,85.9c21.2,41.4,20.6,68.9-1.9,92.7c-4.2,4.4-10.1,9.4-13.7,11.6
	c-7,4.2-18.5,8.1-26.7,9.2c-5.2,0.7-5.3,0.8-4.7,3.4c6.5,25.5,8.3,65.2,4,88.6c-4.9,26.6-15.8,48.5-33,66.4
	c-27.5,28.5-69.2,44.6-127.9,49.1C277.8,445.7,232.3,445.7,217.5,444.5L217.5,444.5z M240,382.2v-32.3l-4.8-2.3
	c-11.5-5.5-24.8-17.5-33-29.7c-9.8-14.5-12.5-28-8.3-41.7c3.6-11.8,14.2-20.5,29.6-24.4c10-2.5,54.7-2.6,64.7,0
	c16.4,4.2,26.2,12.5,30.2,25.8c4,13.5,0.4,27.6-10.9,43.4c-7.8,10.8-22.6,23.4-32.5,27.5l-3.1,1.3v32.4v32.4l5.8-0.5
	c3.2-0.3,9.8-0.8,14.8-1.1c12.3-0.8,32.8-4,44.4-6.9c48.9-12.4,76.3-38,85.2-79.7c1.8-8.5,2.2-13.7,2.3-29.4
	c0.1-31.4-3.4-48.3-18.9-90.6c-5.3-14.5-13-36-17.2-47.9c-13.9-39.8-22.9-59.7-35.2-78.1c-22.1-33-48.9-47.7-90.7-49.5
	c-46.7-2.1-79.7,13.6-103.6,49.4c-12.4,18.5-21.4,38.4-35.2,78.2c-4.1,11.8-11.4,32.1-16.2,45c-9.3,25.1-14.4,41.8-16.9,54.6
	c-4.3,22.7-4.5,49.3-0.6,68.6c9.6,47.5,45.6,75,110.5,84.3c9.1,1.3,20.2,2.3,37.3,3.4l2.3,0.1L240,382.2z M197.5,206.3
	c-16.3-5.7-18.9-28.6-4.2-37.2c8.5-4.9,16.8-4.2,23.7,2c5.6,5,7.3,9.4,6.9,16.9c-0.5,8.3-3.8,13.3-10.9,16.9
	C207.4,207.7,202.6,208.1,197.5,206.3z M301,206.5c-15-6.3-18.3-26.8-5.8-36.3c13.7-10.5,32.9-1,33.1,16.2
	c0.1,11.2-8.1,20.2-19.1,20.8C306.1,207.4,302.4,207.1,301,206.5L301,206.5z M265.9,317.8c11.4-6.8,23.7-22.9,22.9-30.1
	c-0.4-3.4-3.4-4.8-12.4-6.2c-14.8-2.1-43.8-0.8-50.3,2.2c-1.7,0.8-2.7,2.2-2.9,4.1c-1.2,10.2,21.7,33.6,32.8,33.6
	C258.3,321.5,261.8,320.2,265.9,317.8z M80.5,186.6c4-10.7,10.5-28.9,14.5-40.5c15.9-45.8,26.5-67.7,45.7-94.3
	c1.6-2.2,1.6-2.3-2.8-2.3c-19.3,0-41.8,15.9-67.3,47.7C44.5,129.6,29.1,162,31.7,179c2.4,15.4,19,27.9,36.2,27.2l5.4-0.2L80.5,186.6
	z M459.1,203.6c10.3-3.9,19.1-13.9,21-23.8c3.2-17-12.1-49.5-38.7-82.6c-25.5-31.7-48-47.7-67.3-47.7c-4.4,0-4.4,0-2.8,2.3
	c18.8,26,30.8,50.7,44.9,92.3c4.3,12.6,15.3,43.2,21.8,60.4c0.9,2.3,1.2,2.4,8.1,1.8C450.2,206,456,204.8,459.1,203.6L459.1,203.6z"
	/>
</svg>
