<?xml version="1.0" encoding="UTF-8" standalone="no"?>
<!-- Created with Inkscape (http://www.inkscape.org/) -->

<svg
   xmlns:dc="http://purl.org/dc/elements/1.1/"
   xmlns:cc="http://creativecommons.org/ns#"
   xmlns:rdf="http://www.w3.org/1999/02/22-rdf-syntax-ns#"
   xmlns:svg="http://www.w3.org/2000/svg"
   xmlns="http://www.w3.org/2000/svg"
   xmlns:sodipodi="http://sodipodi.sourceforge.net/DTD/sodipodi-0.dtd"
   xmlns:inkscape="http://www.inkscape.org/namespaces/inkscape"
   version="1.1"
   id="svg10"
   width="512"
   height="512"
   viewBox="0 0 512 512"
   sodipodi:docname="maximize.svg"
   inkscape:version="0.92.4 (5da689c313, 2019-01-14)">
  <metadata
     id="metadata16">
    <rdf:RDF>
      <cc:Work
         rdf:about="">
        <dc:format>image/svg+xml</dc:format>
        <dc:type
           rdf:resource="http://purl.org/dc/dcmitype/StillImage" />
        <dc:title></dc:title>
      </cc:Work>
    </rdf:RDF>
  </metadata>
  <defs
     id="defs14" />
  <sodipodi:namedview
     pagecolor="#ffffff"
     bordercolor="#666666"
     borderopacity="1"
     objecttolerance="10"
     gridtolerance="10"
     guidetolerance="10"
     inkscape:pageopacity="0"
     inkscape:pageshadow="2"
     inkscape:window-width="1440"
     inkscape:window-height="837"
     id="namedview12"
     showgrid="false"
     inkscape:zoom="1.3046875"
     inkscape:cx="155.97605"
     inkscape:cy="256"
     inkscape:window-x="-8"
     inkscape:window-y="-8"
     inkscape:window-maximized="1"
     inkscape:current-layer="svg10" />
  <path
     style="fill:#000000"
     d="M 12.499999,510.09833 C 7.4273733,507.74243 4.5269093,504.95315 2.0008573,500.00168 0.04737535,496.17254 -1.645e-6,494.11808 -1.645e-6,413.23618 V 330.39269 L 2.5331083,325.3094 c 1.582832,-3.17633 4.082969,-6.15734 6.6645,-7.94634 C 12.815957,314.85554 14.229238,314.5 20.578358,314.5 c 6.436015,0 7.735851,0.33809 11.585499,3.01338 2.535177,1.7618 5.270653,4.86101 6.586142,7.46188 l 2.25,4.44852 v 56.0291 56.02911 L 116.25,366.2804 c 52.63014,-52.59627 76.36758,-75.66432 78.96788,-76.74099 7.84439,-3.24801 18.00632,-1.2459 23.48439,4.62692 5.12206,5.49115 6.76224,15.36093 3.75832,22.61579 -1.07667,2.6003 -24.14472,26.33774 -76.74099,78.96788 L 70.518009,471 h 56.029111 56.0291 l 4.44852,2.25 c 6.57746,3.3268 10.29681,9.22829 10.72701,17.02057 0.30154,5.46173 -0.0264,6.86276 -2.66078,11.36849 -2.32718,3.98026 -4.18614,5.72779 -8.24418,7.75 L 181.60731,512 99.053659,511.978 c -78.318282,-0.0208 -82.758878,-0.11723 -86.55366,-1.87967 z M 300.00714,222.40702 c -10.17128,-4.41084 -14.85836,-16.58517 -10.46773,-27.18914 1.07667,-2.6003 24.14472,-26.33774 76.74099,-78.96788 l 75.20159,-75.249998 h -56.02911 -56.0291 l -4.44852,-2.25 C 322.37439,37.434513 319.27518,34.699037 317.51338,32.16386 314.83809,28.314212 314.5,27.014376 314.5,20.578361 c 0,-6.34912 0.35554,-7.762401 2.86306,-11.3807495 1.789,-2.581531 4.77001,-5.0816682 7.94634,-6.6645007 L 330.39269,1.4649999e-6 h 82.68946 82.68947 L 501.10146,2.7843465 c 4.31469,2.2540205 5.86017,3.7995025 8.11419,8.1141925 L 512,16.228385 v 82.689464 82.689461 l -2.61094,5.23948 c -2.02221,4.05804 -3.76974,5.917 -7.75,8.24418 -4.50573,2.63441 -5.90676,2.96232 -11.36849,2.66078 -7.79228,-0.4302 -13.69377,-4.14955 -17.02057,-10.72701 L 471,182.57622 V 126.54712 70.518015 L 395.75,145.7196 c -52.63014,52.59627 -76.36758,75.66432 -78.96788,76.74099 -4.68527,1.93996 -12.23353,1.91585 -16.77498,-0.0536 z"
     id="path20"
     inkscape:connector-curvature="0" />
</svg>
