<?xml version="1.0" encoding="utf-8"?>
<!-- Generator: Adobe Illustrator 23.0.6, SVG Export Plug-In . SVG Version: 6.00 Build 0)  -->
<svg version="1.1"
	 id="svg3725" inkscape:version="0.92.4 (5da689c313, 2019-01-14)" sodipodi:docname="syringe.svg" xmlns:cc="http://creativecommons.org/ns#" xmlns:dc="http://purl.org/dc/elements/1.1/" xmlns:inkscape="http://www.inkscape.org/namespaces/inkscape" xmlns:rdf="http://www.w3.org/1999/02/22-rdf-syntax-ns#" xmlns:sodipodi="http://sodipodi.sourceforge.net/DTD/sodipodi-0.dtd" xmlns:svg="http://www.w3.org/2000/svg"
	 xmlns="http://www.w3.org/2000/svg" xmlns:xlink="http://www.w3.org/1999/xlink" x="0px" y="0px" viewBox="0 0 512 512"
	 style="enable-background:new 0 0 512 512;" xml:space="preserve">
<style type="text/css">
	.st0{fill:#5BB798;}
</style>
<sodipodi:namedview  bordercolor="#666666" borderopacity="1" gridtolerance="10" guidetolerance="10" id="namedview3727" inkscape:current-layer="svg3725" inkscape:cx="256" inkscape:cy="256" inkscape:pageopacity="0" inkscape:pageshadow="2" inkscape:window-height="837" inkscape:window-maximized="1" inkscape:window-width="1440" inkscape:window-x="-8" inkscape:window-y="-8" inkscape:zoom="0.4609375" objecttolerance="10" pagecolor="#ffffff" showgrid="false">
	</sodipodi:namedview>
<path id="path3735" inkscape:connector-curvature="0" class="st0" d="M11,501.3L0.3,490.5l37-37l37-37l10.6-53l10.6-53l38.2-38.3
	c21-21,38.6-38.3,39.2-38.3s24.6,23.6,53.5,52.5l52.5,52.5L268,349.7l-10.7,10.7l-31.8-31.8L193.7,297l-10.5,10.5L172.8,318
	l31.7,31.8l31.7,31.8l-17.8,17.7L200.7,417l-52.5,10.5L95.8,438l-37,37l-37,37L11,501.3z M246.8,265l-53-53l31.7-31.7l31.7-31.7
	l53,53l53,53L352.8,265l-10.5,10.5l-31.8-31.8L278.7,212l-10.5,10.5L257.8,233l31.7,31.8l31.7,31.8l-10.8,10.7L299.7,318L246.8,265z
	 M331.8,180l-53-53l10.5-10.5l10.5-10.5l-10.5-10.5L278.8,85l10.7-10.7l10.7-10.7l74.2,74.2l74.2,74.2L438,222.7l-10.7,10.7
	l-10.7-10.7L405.8,212l-10.5,10.5L384.7,233L331.8,180z M395.3,116.5L363.8,85L385,63.7l21.2-21.3l-10.7-10.7L384.8,21l10.5-10.5
	L405.8,0l53,53l53,53l-10.5,10.5L490.8,127l-10.5-10.5L469.7,106l-21,21c-11.5,11.5-21.2,21-21.5,21S412.6,133.8,395.3,116.5z"/>
</svg>
