<?xml version="1.0" encoding="utf-8"?>
<!-- Generator: Adobe Illustrator 23.0.6, SVG Export Plug-In . SVG Version: 6.00 Build 0)  -->
<svg version="1.1" id="Vrstva_1" xmlns="http://www.w3.org/2000/svg" xmlns:xlink="http://www.w3.org/1999/xlink" x="0px" y="0px"
	 viewBox="0 0 382.9 229.9" style="enable-background:new 0 0 382.9 229.9;" xml:space="preserve">
<style type="text/css">
	.st0{fill:none;stroke:#5CB798;stroke-width:21;}
	.st1{fill:none;stroke:#5CB798;stroke-width:21;stroke-linecap:round;}
</style>
<g>
	<path class="st0" d="M14.2,12.3H117h251.7c1.2,0,2.2,1,2.2,2.2V66c0,1.1-0.8,2-1.8,2.1c-8.4,1.5-43.3,9.7-43.3,46
		c0,36.2,34.7,43.7,43.2,45c1.1,0.2,1.9,1.1,1.9,2.2v54.9c0,1.2-1,2.2-2.2,2.2H14.2c-1.2,0-2.2-1-2.2-2.2v-54.5
		c0-1.2,0.9-2.3,2.1-2.5c8.6-1.4,41-9.3,41-45.1c0-36.2-33.1-44.5-41.3-46C12.8,68,12,67.1,12,66V14.5C12,13.2,13,12.3,14.2,12.3z"
		/>
	<line class="st1" x1="117" y1="12.3" x2="117" y2="56.7"/>
	<line class="st1" x1="117" y1="174" x2="117" y2="218.5"/>
	<line class="st1" x1="117" y1="100.1" x2="117" y2="128.2"/>
</g>
</svg>
