<?xml version="1.0" encoding="utf-8"?>
<!-- Generator: Adobe Illustrator 23.0.3, SVG Export Plug-In . SVG Version: 6.00 Build 0)  -->
<svg version="1.1" id="Vrstva_10" xmlns="http://www.w3.org/2000/svg" xmlns:xlink="http://www.w3.org/1999/xlink" x="0px" y="0px"
	 viewBox="0 0 32 32" style="enable-background:new 0 0 32 32;" xml:space="preserve">
<style type="text/css">
	.st0{fill:#62B594;}
</style>
<path class="st0" d="M32,10.8c0-1.4-1.1-2.6-2.5-2.7c-0.1,0-0.3,0-5.6-0.1c0-1.6,0-3.6,0.1-5.2c0-1.4-1-2.5-2.3-2.7
	c-0.2,0-0.2,0-3.2,0c-3,0-7.3,0-7.9,0c0,0-0.1,0-0.1,0C9.5,0,8.5,0.7,8.1,1.7C7.9,2.2,7.9,2.3,7.9,8C6.7,8,5.4,8,4.7,8
	C3,8,2.5,8,2.2,8.1C1.2,8.2,0.3,9,0.1,10C0,10.4,0,10.4,0,21.2c0,1.4,1.1,2.6,2.5,2.7c0.2,0,0.7,0,5.5,0.1c0,0,0,0,0,0
	c0,5.4,0,5.5,0,5.6c0.1,1,0.9,2.1,2.4,2.3c0.1,0,0.2,0,3.2,0.1l3.1,0c1.3,0,2.8,0,4.6,0c0,0,0,0,0,0c0,0,0.1,0,0.1,0
	c1.3-0.1,2.4-1.1,2.5-2.4c0-0.1,0-0.2,0-5.7c2,0,4.6,0,5.2,0c0.1,0,0.1,0,0.2,0c0.7,0,1.4-0.3,1.9-0.8c0.5-0.5,0.7-1.2,0.7-1.8
	C32,20.9,32,14.8,32,10.8z M29.5,21.3c0,0.1-0.1,0.1-0.2,0.1c0,0-0.1,0-0.1,0s-4.9,0-6.9,0c-0.4,0-0.7,0-0.8,0
	c-0.1,0-0.1,0.2-0.1,0.2s0,7.6,0,7.7s-0.2,0.1-0.2,0.1s-2.2,0-4.7,0l-2,0c-2.2,0-4,0-4.1,0c-0.2,0-0.2-0.1-0.2-0.1c0,0,0-7.6,0-7.7
	c0-0.1-0.1-0.1-0.2-0.1s-7.3-0.1-7.5-0.1c-0.2,0-0.2-0.2-0.2-0.2s0-10.5,0-10.7c0,0,0,0,0.1-0.1c0.3,0,1.1-0.1,2.2-0.1
	c2.3,0,5.4,0.1,5.5,0.1c0,0,0,0,0,0c0.2,0,0.1-0.4,0.1-0.4s-0.1-7.4,0-7.6c0-0.1,0.2-0.1,0.2-0.1c0,0,0,0,0,0s4.7,0,7.9,0
	c1.6,0,2.8,0,2.9,0c0.2,0,0.2,0.2,0.2,0.2s-0.1,7.4-0.1,7.6c0,0.1,0.2,0.2,0.2,0.2c0,0,0,0,0,0s7.3,0.1,7.6,0.1
	c0.2,0,0.2,0.2,0.2,0.2S29.5,21.1,29.5,21.3z"/>
</svg>
