<?xml version="1.0" encoding="utf-8"?>
<!-- Generator: Adobe Illustrator 23.0.3, SVG Export Plug-In . SVG Version: 6.00 Build 0)  -->
<svg version="1.1" id="Vrstva_10" xmlns="http://www.w3.org/2000/svg" xmlns:xlink="http://www.w3.org/1999/xlink" x="0px" y="0px"
	 viewBox="0 0 173.39 76.59" style="enable-background:new 0 0 173.39 76.59;" xml:space="preserve">
<style type="text/css">
	.st0{fill:#8EA8B1;}
	.st1{fill:#4C331B;}
	.st2{fill:#B1C6CF;}
	.st3{fill:#CEE1E8;}
	.st4{fill:#D3CFD2;}
</style>
<g>
	<path class="st0" d="M146.99,17.73c1.02-2.19,3.46-3.66,6.07-3.66c0.32,0,0.64,0.02,0.95,0.07c2.55,0.37,4.95,2.16,6.27,4.67
		c1.12,2.14,1.51,4.77,1.13,7.58c-0.28,2.05-0.91,3.63-1.92,4.81c-1.07,1.25-2.7,2.13-4.57,2.49c-0.51,0.1-1.01,0.15-1.47,0.15
		c-0.84,0-1.59-0.16-2.25-0.49c-0.63-0.31-1.2-0.78-1.8-1.48c-0.46-0.54-0.87-1.14-1.23-1.78l-3.61,0.81
		c0.03,0.06,0.05,0.13,0.08,0.19c1.7,3.79,3.51,6.5,5.69,8.53c2.63,2.45,5.9,3.79,8.96,3.69c3.74-0.14,7.54-2.59,9.7-6.25
		c2.41-4.09,2.58-8.78,2.29-12c-0.7-7.87-4.83-15.49-11.05-20.37c-1.11-0.87-2.05-1.47-2.96-1.89C156.08,2.27,154.78,2,153.4,2
		c-3.1,0-6.12,1.43-7.9,3.73c-1.37,1.78-2.13,4.06-2.74,6.26c-0.36,1.29-0.75,2.82-0.95,4.39c-0.24,1.91-0.17,3.95,0.16,6.09
		c1.45-0.41,2.89-0.84,4.33-1.29C146.34,20.07,146.47,18.86,146.99,17.73z M144.93,14.62c0.19-2.32,0.7-4.21,1.58-5.78
		c1.12-2,2.87-3.44,4.81-3.97c0.54-0.15,1.08,0.17,1.23,0.7c0.14,0.53-0.17,1.08-0.7,1.23c-1.42,0.39-2.73,1.49-3.59,3.01
		c-0.73,1.31-1.17,2.93-1.33,4.96c-0.04,0.52-0.48,0.92-1,0.92c-0.03,0-0.05,0-0.08,0C145.29,15.65,144.88,15.17,144.93,14.62z"/>
	<path class="st1" d="M161.47,3.13c-1.24-0.97-2.31-1.65-3.37-2.13c-1.45-0.66-3.03-1-4.7-1c-3.76,0-7.3,1.69-9.48,4.51
		c-1.58,2.05-2.42,4.55-3.08,6.94c-0.38,1.36-0.79,2.98-1.01,4.68c-0.27,2.17-0.19,4.47,0.21,6.87c0.65-0.17,1.29-0.35,1.94-0.54
		c-0.34-2.14-0.41-4.17-0.16-6.09c0.2-1.57,0.59-3.1,0.95-4.39c0.61-2.2,1.37-4.48,2.74-6.26c1.77-2.3,4.8-3.73,7.9-3.73
		c1.38,0,2.68,0.27,3.87,0.82c0.91,0.42,1.85,1.01,2.96,1.89c6.22,4.88,10.35,12.5,11.05,20.37c0.29,3.22,0.12,7.91-2.29,12
		c-2.16,3.66-5.96,6.11-9.7,6.25c-3.05,0.1-6.32-1.24-8.96-3.69c-2.18-2.03-3.99-4.74-5.69-8.53c-0.03-0.06-0.05-0.13-0.08-0.19
		l-1.98,0.45c0.08,0.19,0.15,0.37,0.24,0.56c1.81,4.04,3.77,6.96,6.15,9.18c2.89,2.69,6.52,4.23,9.95,4.23c0.15,0,0.29,0,0.44-0.01
		c4.47-0.17,8.82-2.94,11.35-7.24c2.68-4.55,2.87-9.69,2.56-13.19C172.53,16.48,168.11,8.34,161.47,3.13z"/>
	<path class="st2" d="M152.09,31.57c0.61,0.3,1.45,0.36,2.45,0.17c1.44-0.28,2.66-0.93,3.43-1.83c0.76-0.88,1.23-2.11,1.46-3.77
		c0.23-1.68,0.25-4.14-0.92-6.39c-1.02-1.96-2.85-3.34-4.78-3.62c-0.22-0.03-0.44-0.05-0.67-0.05c-1.85,0-3.56,1-4.26,2.5
		c-0.28,0.6-0.4,1.27-0.46,1.94c0.64-0.21,1.28-0.42,1.92-0.64c0.61-0.21,1.27-0.42,1.96-0.42c0.47,0,0.9,0.1,1.28,0.29
		c0.83,0.41,1.42,1.27,1.68,2.41c0.52,2.32-0.47,4.9-2.4,6.28c-0.8,0.57-1.7,0.91-2.58,1.17c0.22,0.34,0.46,0.67,0.72,0.97
		C151.34,31.06,151.71,31.38,152.09,31.57z"/>
	<path class="st1" d="M151.2,33.36c0.65,0.32,1.41,0.49,2.25,0.49c0.46,0,0.96-0.05,1.47-0.15c1.88-0.36,3.5-1.25,4.57-2.49
		c1.01-1.18,1.64-2.75,1.92-4.81c0.38-2.82-0.01-5.44-1.13-7.58c-1.31-2.52-3.72-4.31-6.27-4.67c-0.31-0.04-0.63-0.07-0.95-0.07
		c-2.61,0-5.05,1.47-6.07,3.66c-0.53,1.13-0.66,2.34-0.69,3.44c0.68-0.22,1.36-0.44,2.04-0.66c0.06-0.67,0.18-1.34,0.46-1.94
		c0.69-1.5,2.4-2.5,4.26-2.5c0.22,0,0.45,0.02,0.67,0.05c1.93,0.28,3.76,1.66,4.78,3.62c1.17,2.24,1.15,4.71,0.92,6.39
		c-0.22,1.66-0.7,2.89-1.46,3.77c-0.78,0.91-2,1.56-3.43,1.83c-1,0.19-1.84,0.14-2.45-0.17c-0.38-0.19-0.75-0.5-1.17-0.99
		c-0.26-0.3-0.49-0.63-0.72-0.97c-0.53,0.15-1.06,0.28-1.57,0.4l-0.46,0.1c0.36,0.64,0.76,1.23,1.23,1.78
		C150,32.57,150.57,33.04,151.2,33.36z"/>
	<path class="st1" d="M146.92,14.78c0.16-2.03,0.6-3.65,1.33-4.96c0.86-1.53,2.16-2.63,3.59-3.01c0.53-0.14,0.85-0.69,0.7-1.23
		c-0.14-0.53-0.69-0.85-1.23-0.7c-1.94,0.53-3.69,1.97-4.81,3.97c-0.88,1.57-1.39,3.46-1.58,5.78c-0.04,0.55,0.37,1.03,0.92,1.08
		c0.03,0,0.05,0,0.08,0C146.44,15.7,146.88,15.3,146.92,14.78z"/>
	<path class="st2" d="M107.15,21.59c1.78,0.15,3.4,1.39,4.81,3.67c4.94,7.98,4.53,18.86-1,26.45c-0.11,0.15-0.26,0.25-0.42,0.32
		c0.14,0.3,0.28,0.59,0.46,0.84c0.78,1.12,2.23,1.78,3.86,1.78c0.67,0,1.34-0.12,1.94-0.33c2.42-0.87,4.07-3.04,5.03-4.71
		c2.66-4.61,3.47-10.68,2.4-18.02c-1-6.88-3.38-11.74-7.08-14.42c-1.18-0.85-2.33-1.36-3.43-1.5c-0.23-0.03-0.46-0.04-0.7-0.04
		c-1.27,0-2.66,0.42-4.12,1.24c-1.18,0.66-2.67,1.78-3.08,3.34c-0.12,0.47-0.15,0.97-0.11,1.47
		C106.2,21.59,106.66,21.54,107.15,21.59z"/>
	<path class="st1" d="M125.59,35.15c-0.22,0-0.44-0.07-0.61-0.21c-0.24-0.18-0.38-0.46-0.39-0.76c-0.07-2.25-0.3-4.5-0.7-6.71
		c-0.05-0.26,0.01-0.54,0.17-0.76c0.15-0.22,0.39-0.37,0.66-0.41c0.15-0.02,0.29-0.05,0.43-0.08c-1.39-4.83-3.67-8.42-6.81-10.69
		c-1.45-1.05-2.91-1.68-4.35-1.86c-1.93-0.24-3.94,0.25-6.05,1.43c-2.17,1.22-3.57,2.8-4.03,4.57c-0.21,0.81-0.22,1.64-0.13,2.43
		c0.35-0.08,0.69-0.17,0.98-0.24c0.34-0.08,0.66-0.15,0.98-0.21c-0.04-0.51-0.02-1,0.11-1.47c0.41-1.56,1.9-2.67,3.08-3.34
		c1.46-0.82,2.85-1.24,4.12-1.24c0.23,0,0.46,0.01,0.7,0.04c1.1,0.14,2.25,0.64,3.43,1.5c3.7,2.68,6.08,7.53,7.08,14.42
		c1.06,7.34,0.25,13.41-2.4,18.02c-0.96,1.67-2.61,3.84-5.03,4.71c-0.6,0.22-1.28,0.33-1.94,0.33c-1.64,0-3.08-0.67-3.86-1.78
		c-0.18-0.26-0.33-0.54-0.46-0.84c-0.03,0.01-0.05,0.03-0.08,0.04l-1.83,0.59c0.2,0.46,0.43,0.93,0.74,1.36
		c1.16,1.65,3.21,2.64,5.5,2.64c0.9,0,1.8-0.16,2.62-0.45c2.36-0.85,4.47-2.79,6.08-5.6c2.42-4.2,3.42-9.46,3.02-15.64l-0.78,0.17
		C125.74,35.15,125.66,35.15,125.59,35.15z"/>
	<path class="st3" d="M148.2,28.04c1.21-0.27,2.47-0.56,3.42-1.24c1.3-0.93,1.96-2.66,1.61-4.22c-0.12-0.53-0.35-0.92-0.62-1.06
		c-0.37-0.18-1.06,0.01-1.7,0.23c-8.08,2.79-16.45,4.93-24.89,6.36c0.25,1.58,0.42,3.19,0.51,4.79L148.2,28.04z"/>
	<path class="st1" d="M144.57,30.91l3.61-0.81l0.46-0.1c0.5-0.11,1.03-0.24,1.57-0.4c0.89-0.25,1.78-0.59,2.58-1.17
		c1.93-1.38,2.92-3.96,2.4-6.28c-0.26-1.14-0.85-2-1.68-2.41c-0.38-0.19-0.82-0.29-1.28-0.29c-0.69,0-1.35,0.21-1.96,0.42
		c-0.64,0.22-1.28,0.43-1.92,0.64c-0.68,0.22-1.36,0.45-2.04,0.66c-1.44,0.45-2.88,0.88-4.33,1.29c-0.65,0.18-1.29,0.36-1.94,0.54
		c-4.91,1.32-9.89,2.4-14.89,3.23c-0.15,0.02-0.29,0.05-0.43,0.08c-0.27,0.04-0.5,0.19-0.66,0.41c-0.16,0.22-0.22,0.49-0.17,0.76
		c0.4,2.2,0.64,4.46,0.7,6.71c0.01,0.3,0.15,0.58,0.39,0.76c0.18,0.14,0.39,0.21,0.61,0.21c0.07,0,0.15-0.01,0.22-0.02l0.78-0.17
		l16-3.6L144.57,30.91z M126.03,28.12c8.44-1.43,16.81-3.56,24.89-6.36c0.63-0.22,1.33-0.41,1.7-0.23c0.27,0.13,0.5,0.53,0.62,1.06
		c0.35,1.55-0.31,3.29-1.61,4.22c-0.95,0.68-2.21,0.96-3.42,1.24l-21.66,4.87C126.45,31.31,126.28,29.71,126.03,28.12z"/>
	<path class="st3" d="M53.04,43.12c0.52,0.81,1,1.66,1.43,2.53c1.32,2.68,2.15,5.53,2.48,8.46c0.35,3.21,0.39,7.88-1.39,11.89
		c-0.22,0.5-0.47,0.94-0.74,1.32c11.11-3.03,37.76-11.61,51.94-16.18l2.78-0.89c4.89-6.93,5.2-16.73,0.73-23.95
		c-1.06-1.71-2.17-2.63-3.28-2.73c-0.07-0.01-0.15-0.01-0.22-0.01c-0.46,0-0.95,0.11-1.53,0.25c-0.47,0.12-1.04,0.25-1.67,0.4
		c0.83,0.88,1.37,2.29,1.6,2.98c1.17,3.52,2.28,7.28,2.01,11.16c-0.04,0.53-0.48,0.93-1,0.93c-0.02,0-0.05,0-0.07,0
		c-0.55-0.04-0.97-0.52-0.93-1.07c0.24-3.52-0.81-7.07-1.92-10.4c-0.46-1.38-1.09-2.31-1.35-2.41c-0.3-0.12-0.5-0.39-0.58-0.68
		c-0.43,0.1-0.88,0.2-1.35,0.31c0.3,0.41,0.54,0.89,0.76,1.33c0.09,0.17,0.17,0.33,0.24,0.46c0.6,1.05,1.03,2.18,1.29,3.37
		c0.12,0.54-0.23,1.07-0.76,1.19c-0.07,0.02-0.14,0.02-0.21,0.02c-0.46,0-0.87-0.32-0.98-0.79c-0.21-0.99-0.57-1.93-1.07-2.81
		c-0.09-0.16-0.19-0.35-0.29-0.56c-0.17-0.33-0.55-1.12-0.78-1.25c-0.26-0.06-0.46-0.21-0.59-0.41c-0.35,0.08-0.7,0.16-1.06,0.24
		c1.29,1.48,2.25,3.23,2.77,5.12c0.15,0.53-0.17,1.08-0.7,1.23c-0.09,0.02-0.18,0.04-0.26,0.04c-0.44,0-0.84-0.29-0.96-0.74
		c-0.48-1.75-1.39-3.37-2.63-4.68c-0.14-0.15-0.21-0.32-0.24-0.51c-0.24,0.05-0.48,0.11-0.73,0.16c0.86,0.77,1.29,1.97,1.64,2.98
		l0.13,0.36c1.49,4.11,1.49,7.49,1.03,11.31C96.49,41.62,96.06,42,95.56,42c-0.04,0-0.08,0-0.12-0.01
		c-0.55-0.07-0.94-0.56-0.87-1.11C95,37.24,95,34.23,93.64,30.48l-0.14-0.38c-0.33-0.92-0.73-2.07-1.37-2.34
		c-0.35-0.14-0.55-0.46-0.6-0.8c-0.66,0.15-1.32,0.3-2,0.45c0.52,0.58,0.95,1.28,1.23,2.1c0.4,1.18,0.47,2.37,0.48,3.38
		c0.01,0.55-0.43,1.01-0.98,1.02c-0.01,0-0.01,0-0.02,0c-0.54,0-0.99-0.44-1-0.98c-0.01-0.86-0.07-1.86-0.38-2.78
		c-0.29-0.86-0.79-1.54-1.41-1.92c-0.12-0.08-0.22-0.18-0.3-0.29c-0.35,0.08-0.7,0.16-1.06,0.24c1.01,1.1,1.4,2.36,1.8,3.69
		c0.09,0.31,0.19,0.63,0.29,0.95c0.17,0.53-0.11,1.09-0.64,1.26c-0.1,0.03-0.21,0.05-0.31,0.05c-0.42,0-0.81-0.27-0.95-0.69
		c-0.11-0.34-0.21-0.68-0.31-1c-0.44-1.46-0.75-2.51-1.83-3.36c-0.14-0.11-0.23-0.25-0.29-0.41c-0.78,0.18-1.58,0.35-2.4,0.54
		c1.49,1.39,2.04,3.24,2.45,4.67c0.93,3.23,0.83,5.46,0.69,8.56l-0.03,0.74c-0.02,0.54-0.47,0.96-1,0.96c-0.01,0-0.03,0-0.04,0
		c-0.55-0.02-0.98-0.49-0.96-1.04l0.03-0.75c0.14-3.01,0.23-5.01-0.61-7.92c-0.55-1.91-1.09-3.44-2.66-4.35
		c-0.14-0.08-0.24-0.2-0.33-0.33c-0.67,0.15-1.34,0.3-2.02,0.45c0.01,0.01,0.01,0.02,0.02,0.03c0.05,0.08,0.1,0.18,0.18,0.29
		c0.48,0.69,0.73,1.45,0.95,2.12c0.22,0.67,0.52,1.58,0.29,2.53c-0.11,0.46-0.52,0.76-0.97,0.76c-0.08,0-0.16-0.01-0.24-0.03
		c-0.54-0.13-0.87-0.67-0.73-1.21c0.09-0.37-0.05-0.85-0.24-1.43c-0.19-0.57-0.38-1.16-0.69-1.6c-0.12-0.17-0.21-0.32-0.28-0.45
		c0,0,0-0.01-0.01-0.01c-0.31-0.03-0.56-0.21-0.72-0.46c-0.36,0.08-0.72,0.16-1.08,0.24c1.15,1.27,1.9,2.87,2.14,4.58
		c0.08,0.55-0.3,1.05-0.85,1.13c-0.05,0.01-0.09,0.01-0.14,0.01c-0.49,0-0.92-0.36-0.99-0.86c-0.21-1.48-0.96-2.91-2.05-3.93
		c-0.14-0.13-0.21-0.28-0.26-0.45c-0.75,0.17-1.5,0.34-2.24,0.51c3.11,3.74,4.16,7.02,5.11,12.33c0.1,0.54-0.27,1.06-0.81,1.16
		c-0.06,0.01-0.12,0.02-0.18,0.02c-0.48,0-0.9-0.34-0.98-0.82c-0.94-5.27-1.89-8.22-5.02-11.83c-0.1-0.11-0.16-0.24-0.2-0.38
		c-0.64,0.14-1.27,0.29-1.9,0.43c1.03,1.41,1.29,2.35,1.37,4.48c0.02,0.55-0.41,1.02-0.96,1.04c-0.01,0-0.03,0-0.04,0
		c-0.54,0-0.98-0.42-1-0.96c-0.08-2.03-0.24-2.47-1.44-3.97c-0.02-0.03-0.03-0.07-0.05-0.1c-0.43,0.1-0.86,0.2-1.28,0.29
		c0.1,0.07,0.19,0.15,0.26,0.26c0.88,1.34,1.45,2.89,1.64,4.48c0.07,0.55-0.33,1.05-0.87,1.11c-0.04,0-0.08,0.01-0.12,0.01
		c-0.5,0-0.93-0.37-0.99-0.88c-0.15-1.29-0.61-2.54-1.32-3.62c-0.21-0.32-0.2-0.72-0.03-1.03c-0.93,0.21-1.83,0.42-2.72,0.63
		c3.47,3.72,5.32,7.94,5.8,13.26c0.05,0.55-0.36,1.04-0.91,1.08c-0.03,0-0.06,0-0.09,0c-0.51,0-0.95-0.39-1-0.91
		c-0.45-5.01-2.22-8.96-5.58-12.42c-0.15-0.15-0.22-0.35-0.25-0.54c-0.47,0.11-0.93,0.22-1.38,0.33c1.38,1.04,2.72,2.61,2.96,4.42
		c0.07,0.55-0.31,1.05-0.86,1.12c-0.04,0.01-0.09,0.01-0.13,0.01c-0.49,0-0.92-0.37-0.99-0.87c-0.19-1.46-1.66-2.89-3.02-3.65
		c-0.19-0.11-0.31-0.27-0.4-0.45c-1.98,0.48-3.69,0.9-5.05,1.26c1.02,0.22,1.95,0.66,2.66,1.33C50.66,39.88,51.93,41.4,53.04,43.12z
		"/>
	<path class="st1" d="M110.45,52.06c0.03-0.01,0.05-0.03,0.08-0.04c0.17-0.07,0.31-0.18,0.42-0.32c5.54-7.59,5.95-18.46,1-26.45
		c-1.41-2.28-3.03-3.51-4.81-3.67c-0.48-0.04-0.95,0-1.42,0.09c-0.32,0.06-0.65,0.13-0.98,0.21c-0.29,0.07-0.63,0.15-0.98,0.24
		C99.91,23.04,92.49,24.7,84,26.59c-23.48,5.24-40.22,9.02-41.7,9.97c-1.67,1.07-2.8,2.36-3.64,3.79c1.54-1.68,3.59-3.06,6-3.23
		l0.14-0.01c0.14-0.01,0.26-0.01,0.38-0.01c0.5,0,0.98,0.07,1.44,0.17c1.36-0.36,3.07-0.78,5.05-1.26
		c-0.13-0.28-0.15-0.61,0.02-0.91c0.27-0.48,0.88-0.65,1.36-0.38c0.34,0.19,0.7,0.44,1.06,0.71c0.45-0.11,0.91-0.22,1.38-0.33
		c-0.05-0.31,0.03-0.64,0.27-0.87c0.4-0.38,1.03-0.38,1.41,0.02c0.12,0.12,0.22,0.25,0.34,0.38c0.89-0.21,1.79-0.42,2.72-0.63
		c0.08-0.14,0.17-0.26,0.31-0.35c0.35-0.23,0.8-0.21,1.13,0.02c0.42-0.1,0.85-0.2,1.28-0.29c-0.27-0.42-0.2-0.99,0.2-1.31
		c0.43-0.35,1.06-0.28,1.41,0.15c0.19,0.24,0.36,0.46,0.52,0.67c0.63-0.14,1.26-0.29,1.9-0.43c-0.1-0.36,0-0.77,0.3-1.03
		c0.42-0.36,1.05-0.32,1.41,0.1c0.14,0.16,0.25,0.31,0.37,0.46c0.75-0.17,1.49-0.34,2.24-0.51c-0.1-0.33-0.04-0.7,0.21-0.97
		c0.38-0.4,1.01-0.43,1.41-0.05c0.18,0.17,0.36,0.35,0.53,0.54c0.36-0.08,0.72-0.16,1.08-0.24c-0.12-0.18-0.19-0.4-0.17-0.63
		c0.05-0.55,0.53-0.96,1.09-0.9c0.93,0.09,1.27,0.53,1.53,0.99c0.68-0.15,1.35-0.3,2.02-0.45c-0.2-0.31-0.23-0.7-0.04-1.04
		c0.28-0.48,0.89-0.64,1.37-0.36c0.43,0.25,0.8,0.55,1.13,0.86c0.82-0.18,1.62-0.36,2.4-0.54c-0.13-0.32-0.11-0.7,0.13-1
		c0.34-0.43,0.97-0.51,1.4-0.16c0.27,0.21,0.5,0.44,0.7,0.66c0.36-0.08,0.7-0.16,1.06-0.24c-0.22-0.32-0.24-0.74-0.03-1.09
		c0.29-0.47,0.9-0.62,1.38-0.33c0.38,0.23,0.71,0.54,1.02,0.88c0.68-0.15,1.35-0.3,2-0.45c-0.02-0.17-0.02-0.33,0.05-0.5
		c0.21-0.51,0.79-0.76,1.3-0.55c0.33,0.14,0.61,0.33,0.86,0.55c0.24-0.05,0.49-0.11,0.73-0.16c-0.06-0.32,0.02-0.66,0.28-0.91
		c0.4-0.38,1.03-0.36,1.41,0.04c0.12,0.13,0.23,0.28,0.34,0.41c0.36-0.08,0.72-0.16,1.06-0.24c-0.14-0.22-0.2-0.49-0.14-0.78
		c0.12-0.54,0.68-0.86,1.22-0.74c0.56,0.13,0.98,0.51,1.32,0.97c0.47-0.11,0.92-0.21,1.35-0.31c-0.06-0.2-0.07-0.41,0.01-0.61
		c0.19-0.5,0.72-0.78,1.23-0.6c0.37,0.13,0.7,0.38,0.99,0.69c0.63-0.15,1.2-0.28,1.67-0.4c0.59-0.14,1.07-0.25,1.53-0.25
		c0.07,0,0.15,0,0.22,0.01c1.12,0.1,2.22,1.01,3.28,2.73c4.47,7.22,4.16,17.02-0.73,23.95l-2.78,0.89
		C92.57,55.72,65.92,64.3,54.81,67.33c-0.3,0.43-0.63,0.8-1.01,1.11c-1.04,0.85-2.41,1.28-4.1,1.28c-0.25,0-0.5-0.01-0.75-0.03
		c-1.78-0.13-3.55-0.68-5.19-1.56c1.74,1.31,3.74,2.21,6.12,2.29c0.01,0,0.06,0,0.08,0c3.2,0,31.31-8.97,57.4-17.37l1.26-0.41
		L110.45,52.06z"/>
	<path class="st2" d="M41.83,48.29c0.34,0,0.67,0.03,0.99,0.08c3.38,0.53,5.42,3.71,6.2,6.5c0.4,1.42,0.53,2.69,0.39,3.88
		c-0.32,2.78-2.18,5.39-4.98,6.98c-0.14,0.08-0.29,0.15-0.44,0.23c1.6,0.99,3.35,1.61,5.11,1.74c0.2,0.01,0.4,0.02,0.6,0.02
		c1.21,0,2.16-0.28,2.83-0.83c0.46-0.38,0.85-0.93,1.19-1.7c1.61-3.61,1.56-7.9,1.23-10.86c-0.3-2.7-1.06-5.33-2.28-7.79
		c-0.39-0.8-0.84-1.58-1.32-2.33c-1.02-1.58-2.18-2.98-3.44-4.15c-0.67-0.62-1.64-0.96-2.74-0.96c-0.09,0-0.17,0-0.26,0.01
		l-0.12,0.01c-2.79,0.2-5.27,2.79-6.49,5.25c-0.75,1.52-1.23,3.28-1.42,5.14c0.24-0.09,0.49-0.18,0.73-0.27
		C39.02,48.74,40.39,48.29,41.83,48.29z"/>
	<path class="st1" d="M49.71,69.72c1.69,0,3.06-0.43,4.1-1.28c0.37-0.31,0.7-0.68,1.01-1.11c0.27-0.39,0.52-0.82,0.74-1.32
		c1.79-4.02,1.74-8.68,1.39-11.89c-0.32-2.94-1.15-5.78-2.48-8.46c-0.43-0.87-0.91-1.72-1.43-2.53c-1.11-1.72-2.37-3.25-3.76-4.53
		c-0.71-0.66-1.64-1.1-2.66-1.33c-0.46-0.1-0.94-0.17-1.44-0.17c-0.12,0-0.24,0-0.38,0.01l-0.14,0.01c-2.4,0.18-4.46,1.55-6,3.23
		c-0.91,1-1.64,2.1-2.14,3.13c-0.99,2.01-1.56,4.37-1.68,6.85c0.69-0.3,1.38-0.56,2.06-0.82c0.19-1.87,0.67-3.63,1.42-5.14
		c1.22-2.47,3.7-5.05,6.49-5.25l0.12-0.01c0.09,0,0.17-0.01,0.26-0.01c1.1,0,2.08,0.34,2.74,0.96c1.26,1.17,2.42,2.57,3.44,4.15
		c0.48,0.75,0.92,1.53,1.32,2.33c1.22,2.47,1.99,5.09,2.28,7.79c0.32,2.97,0.37,7.26-1.23,10.86c-0.34,0.77-0.73,1.33-1.19,1.7
		c-0.67,0.55-1.62,0.83-2.83,0.83c-0.2,0-0.4-0.01-0.6-0.02c-1.76-0.13-3.51-0.75-5.11-1.74c-0.69,0.36-1.41,0.66-2.19,0.91
		c0.63,0.47,1.28,0.9,1.96,1.26c1.65,0.88,3.42,1.43,5.19,1.56C49.21,69.71,49.46,69.72,49.71,69.72z"/>
	<path class="st1" d="M101.91,25.42c0.26,0.11,0.89,1.03,1.35,2.41c1.1,3.33,2.16,6.88,1.92,10.4c-0.04,0.55,0.38,1.03,0.93,1.07
		c0.02,0,0.05,0,0.07,0c0.52,0,0.96-0.4,1-0.93c0.27-3.88-0.85-7.64-2.01-11.16c-0.23-0.7-0.77-2.1-1.6-2.98
		c-0.29-0.31-0.62-0.56-0.99-0.69c-0.51-0.18-1.04,0.1-1.23,0.6c-0.08,0.2-0.06,0.41-0.01,0.61
		C101.41,25.04,101.61,25.3,101.91,25.42z"/>
	<path class="st1" d="M92.13,27.77c0.65,0.26,1.05,1.41,1.37,2.34l0.14,0.38C95,34.23,95,37.24,94.56,40.88
		c-0.07,0.55,0.32,1.05,0.87,1.11c0.04,0,0.08,0.01,0.12,0.01c0.5,0,0.93-0.37,0.99-0.88c0.46-3.82,0.46-7.21-1.03-11.31l-0.13-0.36
		c-0.36-1.01-0.78-2.21-1.64-2.98c-0.25-0.22-0.53-0.41-0.86-0.55c-0.51-0.21-1.1,0.04-1.3,0.55c-0.07,0.17-0.07,0.33-0.05,0.5
		C91.58,27.31,91.79,27.62,92.13,27.77z"/>
	<path class="st1" d="M79.34,30.08c1.57,0.91,2.11,2.44,2.66,4.35c0.84,2.91,0.75,4.9,0.61,7.92l-0.03,0.75
		c-0.02,0.55,0.4,1.02,0.96,1.04c0.01,0,0.03,0,0.04,0c0.53,0,0.98-0.42,1-0.96l0.03-0.74c0.14-3.1,0.24-5.33-0.69-8.56
		c-0.41-1.43-0.96-3.28-2.45-4.67c-0.33-0.31-0.69-0.6-1.13-0.86c-0.48-0.28-1.09-0.11-1.37,0.36c-0.2,0.34-0.16,0.74,0.04,1.04
		C79.1,29.89,79.2,30,79.34,30.08z"/>
	<path class="st1" d="M72.22,44.67c0.09,0.48,0.51,0.82,0.98,0.82c0.06,0,0.12,0,0.18-0.02c0.54-0.1,0.91-0.62,0.81-1.16
		c-0.95-5.31-2-8.59-5.11-12.33c-0.13-0.15-0.24-0.3-0.37-0.46c-0.36-0.42-0.99-0.46-1.41-0.1c-0.3,0.26-0.4,0.67-0.3,1.03
		c0.04,0.14,0.1,0.27,0.2,0.38C70.33,36.44,71.28,39.4,72.22,44.67z"/>
	<path class="st1" d="M61.33,48.07c0.05,0.52,0.48,0.91,1,0.91c0.03,0,0.06,0,0.09,0c0.55-0.05,0.96-0.54,0.91-1.08
		c-0.48-5.32-2.33-9.54-5.8-13.26c-0.12-0.12-0.22-0.25-0.34-0.38c-0.39-0.4-1.02-0.41-1.41-0.02c-0.24,0.24-0.32,0.56-0.27,0.87
		c0.03,0.2,0.1,0.39,0.25,0.54C59.11,39.11,60.88,43.05,61.33,48.07z"/>
	<path class="st1" d="M98.17,26.02c0.23,0.13,0.61,0.92,0.78,1.25c0.1,0.21,0.2,0.41,0.29,0.56c0.5,0.88,0.86,1.82,1.07,2.81
		c0.1,0.47,0.52,0.79,0.98,0.79c0.07,0,0.14-0.01,0.21-0.02c0.54-0.12,0.88-0.65,0.76-1.19c-0.26-1.18-0.69-2.31-1.29-3.37
		c-0.07-0.13-0.15-0.29-0.24-0.46c-0.21-0.43-0.45-0.91-0.76-1.33c-0.34-0.46-0.76-0.84-1.32-0.97c-0.54-0.12-1.1,0.2-1.22,0.74
		c-0.06,0.28-0.01,0.56,0.14,0.78C97.71,25.8,97.91,25.96,98.17,26.02z"/>
	<path class="st1" d="M97.35,31.49c0.12,0.44,0.52,0.74,0.96,0.74c0.09,0,0.18-0.01,0.26-0.04c0.53-0.15,0.85-0.7,0.7-1.23
		c-0.52-1.89-1.48-3.64-2.77-5.12c-0.12-0.13-0.22-0.28-0.34-0.41c-0.38-0.4-1.01-0.42-1.41-0.04c-0.26,0.24-0.34,0.58-0.28,0.91
		c0.03,0.18,0.1,0.36,0.24,0.51C95.96,28.12,96.88,29.74,97.35,31.49z"/>
	<path class="st1" d="M87.46,28.23c0.61,0.38,1.11,1.06,1.41,1.92c0.31,0.91,0.36,1.92,0.38,2.78c0.01,0.55,0.45,0.98,1,0.98
		c0.01,0,0.01,0,0.02,0c0.55-0.01,0.99-0.46,0.98-1.02c-0.02-1.01-0.09-2.21-0.48-3.38c-0.28-0.82-0.71-1.52-1.23-2.1
		c-0.31-0.34-0.64-0.65-1.02-0.88c-0.47-0.29-1.09-0.14-1.38,0.33c-0.21,0.35-0.19,0.77,0.03,1.09
		C87.24,28.05,87.34,28.15,87.46,28.23z"/>
	<path class="st1" d="M85.99,32.44c0.1,0.32,0.2,0.66,0.31,1c0.14,0.42,0.53,0.69,0.95,0.69c0.1,0,0.21-0.02,0.31-0.05
		c0.52-0.17,0.81-0.74,0.64-1.26c-0.11-0.33-0.2-0.64-0.29-0.95c-0.4-1.33-0.79-2.59-1.8-3.69c-0.21-0.23-0.44-0.45-0.7-0.66
		c-0.43-0.34-1.06-0.27-1.4,0.16c-0.23,0.29-0.26,0.67-0.13,1c0.06,0.15,0.15,0.3,0.29,0.41C85.24,29.93,85.56,30.98,85.99,32.44z"
		/>
	<path class="st1" d="M75.26,31.21c0,0,0,0.01,0.01,0.01c0.07,0.13,0.16,0.28,0.28,0.45c0.31,0.45,0.5,1.04,0.69,1.6
		c0.19,0.59,0.33,1.06,0.24,1.43c-0.13,0.54,0.2,1.08,0.73,1.21c0.08,0.02,0.16,0.03,0.24,0.03c0.45,0,0.86-0.31,0.97-0.76
		c0.23-0.96-0.07-1.87-0.29-2.53c-0.22-0.67-0.47-1.44-0.95-2.12c-0.08-0.11-0.13-0.21-0.18-0.29c-0.01-0.01-0.01-0.02-0.02-0.03
		c-0.26-0.46-0.6-0.9-1.53-0.99c-0.56-0.05-1.04,0.35-1.09,0.9c-0.02,0.23,0.05,0.45,0.17,0.63C74.7,31,74.95,31.18,75.26,31.21z"/>
	<path class="st1" d="M73.63,35.86c0.07,0.5,0.5,0.86,0.99,0.86c0.05,0,0.09,0,0.14-0.01c0.55-0.08,0.93-0.58,0.85-1.13
		c-0.24-1.71-0.99-3.31-2.14-4.58c-0.17-0.19-0.34-0.36-0.53-0.54c-0.4-0.38-1.04-0.35-1.41,0.05c-0.25,0.27-0.31,0.64-0.21,0.97
		c0.05,0.16,0.13,0.32,0.26,0.45C72.67,32.95,73.42,34.38,73.63,35.86z"/>
	<path class="st1" d="M64.46,37.44c0.02,0.54,0.46,0.96,1,0.96c0.01,0,0.03,0,0.04,0c0.55-0.02,0.98-0.48,0.96-1.04
		c-0.08-2.13-0.33-3.06-1.37-4.48c-0.16-0.21-0.33-0.43-0.52-0.67c-0.35-0.43-0.98-0.5-1.41-0.15c-0.4,0.32-0.47,0.89-0.2,1.31
		c0.02,0.03,0.03,0.07,0.05,0.1C64.22,34.97,64.38,35.42,64.46,37.44z"/>
	<path class="st1" d="M60.27,35.03c0.71,1.08,1.17,2.33,1.32,3.62c0.06,0.51,0.49,0.88,0.99,0.88c0.04,0,0.08,0,0.12-0.01
		c0.55-0.07,0.94-0.56,0.87-1.11c-0.19-1.59-0.76-3.14-1.64-4.48c-0.07-0.11-0.16-0.19-0.26-0.26c-0.33-0.23-0.77-0.26-1.13-0.02
		c-0.14,0.09-0.24,0.22-0.31,0.35C60.07,34.32,60.06,34.71,60.27,35.03z"/>
	<path class="st1" d="M52.07,36.46c1.36,0.76,2.82,2.19,3.02,3.65c0.07,0.5,0.5,0.87,0.99,0.87c0.04,0,0.09,0,0.13-0.01
		c0.55-0.07,0.93-0.58,0.86-1.12c-0.24-1.82-1.58-3.38-2.96-4.42c-0.36-0.27-0.72-0.51-1.06-0.71c-0.48-0.27-1.09-0.1-1.36,0.38
		c-0.16,0.29-0.15,0.62-0.02,0.91C51.76,36.19,51.89,36.36,52.07,36.46z"/>
	<path class="st3" d="M32.82,56.7c0.33-0.27,0.7-0.57,1.14-0.81c1.01-0.55,2.23-0.61,3.19-0.15c0.47,0.22,0.85,0.56,1.14,0.97
		c0.13,0.14,0.26,0.28,0.37,0.44c0.98,1.61-0.12,3.53-1.57,4.62c-1.02,0.77-2.12,1.35-3.34,1.98c-0.55,0.28-1.11,0.55-1.67,0.83
		c0.33,0.44,0.83,0.76,1.29,0.92c0.55,0.2,1.2,0.29,2.05,0.29c0.28,0,0.55-0.01,0.83-0.02c3.05-0.14,5.34-0.71,7.21-1.77
		c2.21-1.26,3.74-3.36,3.98-5.47c0.11-0.93,0-1.95-0.33-3.11c-0.59-2.09-2.14-4.68-4.58-5.06c-1.35-0.22-2.75,0.25-4.21,0.78
		c-1.69,0.61-3.33,1.23-4.83,2.11c-0.66,0.39-2.78,1.79-2.55,3.55c0.03,0.24,0.12,0.45,0.23,0.57c0.55-0.2,1.1-0.41,1.64-0.62
		C32.8,56.72,32.81,56.71,32.82,56.7z"/>
	<path class="st1" d="M44,65.96c0.15-0.08,0.29-0.15,0.44-0.23c2.8-1.59,4.66-4.2,4.98-6.98c0.14-1.19,0.01-2.46-0.39-3.88
		c-0.78-2.79-2.82-5.97-6.2-6.5c-0.32-0.05-0.65-0.08-0.99-0.08c-1.45,0-2.81,0.45-4.2,0.95c-0.24,0.09-0.49,0.18-0.73,0.27
		c-0.68,0.25-1.37,0.52-2.06,0.82c-0.81,0.35-1.61,0.74-2.38,1.19c-2.46,1.46-3.78,3.52-3.52,5.53c0.05,0.36,0.16,0.69,0.3,0.99
		c0.64-0.22,1.28-0.44,1.91-0.68c-0.11-0.12-0.2-0.33-0.23-0.57c-0.23-1.76,1.9-3.16,2.55-3.55c1.5-0.89,3.14-1.5,4.83-2.11
		c1.46-0.53,2.85-1,4.21-0.78c2.45,0.38,4,2.97,4.58,5.06c0.33,1.17,0.44,2.19,0.33,3.11c-0.24,2.12-1.77,4.21-3.98,5.47
		c-1.87,1.06-4.16,1.62-7.21,1.77c-0.28,0.01-0.55,0.02-0.83,0.02c-0.85,0-1.5-0.09-2.05-0.29c-0.46-0.16-0.96-0.48-1.29-0.92
		c-0.6,0.3-1.2,0.6-1.81,0.9c0.52,0.84,1.36,1.52,2.42,1.9c0.77,0.28,1.64,0.41,2.73,0.41c0.31,0,0.62-0.01,0.92-0.02
		c2.11-0.1,3.9-0.39,5.47-0.89C42.59,66.62,43.31,66.32,44,65.96z"/>
	<path class="st1" d="M37.15,55.74c-0.96-0.46-2.18-0.39-3.19,0.15c-0.44,0.24-0.81,0.54-1.14,0.81c-0.01,0.01-0.02,0.02-0.03,0.02
		c0.21-0.08,0.43-0.16,0.65-0.25c0.76-0.31,1.54-0.63,2.41-0.67l0.18,0c0.91,0,1.71,0.33,2.25,0.9C38,56.3,37.61,55.96,37.15,55.74z
		"/>
	<path class="st4" d="M35.87,60.17c0.75-0.57,1.37-1.49,1.07-1.99c-0.14-0.23-0.5-0.38-0.91-0.38c-0.61,0.03-1.17,0.26-1.77,0.5
		c-3.9,1.58-7.93,2.8-11.82,3.98c-6.11,1.86-12.43,3.77-17.98,7.01c-0.06,0.03-0.24,0.14-0.28,0.19h0c0.03,0,0.08,0.21,0.12,0.35
		l0.05,0.19c0.36,1.47-0.04,3.06-0.94,4.26c10.07-3.37,19.97-7.51,29.42-12.33C33.97,61.38,34.98,60.85,35.87,60.17z"/>
	<path class="st1" d="M32.07,64.57c0.56-0.28,1.12-0.55,1.67-0.83c1.22-0.62,2.32-1.2,3.34-1.98c1.45-1.1,2.55-3.01,1.57-4.62
		c-0.1-0.16-0.23-0.3-0.37-0.44c-0.55-0.56-1.35-0.9-2.25-0.9l-0.18,0c-0.87,0.04-1.65,0.36-2.41,0.67
		c-0.21,0.09-0.43,0.16-0.65,0.25c-0.54,0.21-1.09,0.42-1.64,0.62c-0.63,0.23-1.27,0.46-1.91,0.68c-2.45,0.84-4.94,1.61-7.38,2.35
		c-6.22,1.89-12.66,3.84-18.41,7.19c-0.28,0.16-0.8,0.47-1.07,1.05c-0.3,0.65-0.13,1.3-0.02,1.73l0.04,0.16
		c0.34,1.38-0.48,3-1.79,3.54c-0.49,0.2-0.74,0.76-0.56,1.26c0.29,0.82,1.05,1.29,2.08,1.29c0.57,0,1.09-0.14,1.44-0.25
		c9.1-3.02,18.05-6.67,26.68-10.87C30.87,65.18,31.47,64.87,32.07,64.57z M3.41,74.29c0.9-1.2,1.3-2.79,0.94-4.26l-0.05-0.19
		c-0.04-0.14-0.09-0.35-0.12-0.35h0c0.04-0.05,0.22-0.16,0.28-0.19c5.55-3.23,11.87-5.15,17.98-7.01c3.89-1.18,7.91-2.4,11.82-3.98
		c0.6-0.24,1.16-0.47,1.77-0.5c0.41,0,0.77,0.15,0.91,0.38c0.3,0.5-0.32,1.42-1.07,1.99c-0.89,0.67-1.9,1.21-3.04,1.79
		C23.38,66.77,13.48,70.92,3.41,74.29z"/>
</g>
</svg>
