<?xml version="1.0" encoding="utf-8"?>
<!-- Generator: Adobe Illustrator 23.1.0, SVG Export Plug-In . SVG Version: 6.00 Build 0)  -->
<svg version="1.1" id="Vrstva_10" xmlns="http://www.w3.org/2000/svg" xmlns:xlink="http://www.w3.org/1999/xlink" x="0px" y="0px"
	 viewBox="0 0 173.39 76.587" enable-background="new 0 0 173.39 76.587" xml:space="preserve">
<g>
	<path fill="#8EA8B1" d="M142.195,29.637c0.028,0.064,1.71,2.145,1.739,2.209c1.701,3.793,3.801,6.501,5.983,8.53
		c2.632,2.447,6.815,4.268,9.869,4.171c3.736-0.14,7.544-2.594,9.701-6.253c2.412-4.091,3.114-9.889,2.827-13.106
		c-0.701-7.873-5.377-16.443-11.597-21.324c-1.109-0.871-2.051-1.471-2.963-1.886c-1.187-0.542-2.487-0.816-3.868-0.816
		c-3.097,0-7.463,2.138-9.237,4.441c-1.372,1.781-2.128,4.062-2.741,6.261c-0.359,1.288-0.753,2.816-0.951,4.39
		c-0.241,1.914-0.174,3.95,0.164,6.085C139.549,26.029,142.195,29.637,142.195,29.637z"/>
	<path fill="#B1C6CF" d="M151.138,31.846c0.61,0.305,2.673,0.849,3.674,0.655c1.436-0.275,2.655-0.927,3.434-1.832
		c0.756-0.88,1.929-3.151,2.153-4.81c0.228-1.676,0.253-4.144-0.919-6.387c-1.021-1.956-3.882-3.825-5.808-4.102
		c-0.221-0.032-0.443-0.048-0.667-0.048c-1.851,0-3.962,0.956-4.657,2.451c-0.277,0.596-0.417,3.249-0.478,3.917
		c0.64-0.212,1.281-0.419,1.917-0.639c0.611-0.211,1.266-0.417,1.96-0.417c0.467,0,0.897,0.097,1.282,0.288
		c0.826,0.412,0.6,0.603,0.857,1.743c0.519,2.318,0.007,3.596-1.925,4.978c-0.802,0.573-1.491,1.433-2.377,1.688
		c0.222,0.342,0.123,1.22,0.383,1.523C150.386,31.341,150.758,31.657,151.138,31.846z"/>
	<path fill="#B1C6CF" d="M105.939,22.58c1.781,0.152,3.958,1.298,5.369,3.58c4.944,7.984,4.666,16.754-0.869,24.341
		c-0.107,0.145-0.397,1.208-0.563,1.278c0.136,0.3,1.149,1.787,1.33,2.045c0.782,1.117,2.227,1.783,3.864,1.783
		c0.667,0,1.339-0.115,1.944-0.333c2.416-0.871,4.069-3.044,5.03-4.714c2.657-4.613,4.081-11.739,3.019-19.083
		c-0.996-6.885-4.099-12.402-7.8-15.084c-1.176-0.852-2.33-1.355-3.429-1.495c-0.232-0.03-0.464-0.044-0.696-0.044
		c-1.274,0-3.42,0.975-4.881,1.797c-1.179,0.662-2.671,1.778-3.08,3.336c-0.124,0.472-0.163,1.421-0.126,1.928
		C105.523,21.832,105.454,22.537,105.939,22.58z"/>
	<path fill="#CEE1E8" d="M149.155,28.935c1.213-0.273,2.469-0.557,3.423-1.238c1.297-0.928,1.506-4.38,1.158-5.935
		c-0.118-0.526-0.35-0.921-0.619-1.056c-0.365-0.183-1.064,0.011-1.698,0.229c-8.084,2.794-17.868,5.179-26.305,6.605
		c0.251,1.585,0.824,4.787,0.913,6.392L149.155,28.935z"/>
	<path fill="#CEE1E8" d="M52.387,44.364c0.523,0.811,2.543,6.704,3.462,9.511c1.465,4.476-1.85,14.954-2.12,15.341
		c11.113-3.031,40.642-12.923,54.818-17.489l2.455-1.436c4.889-6.934,4.574-16.771,0.104-23.991
		c-1.061-1.714-2.77-3.728-3.888-3.824C107.144,22.472,46.702,36.644,45.342,37c1.025,0.221,2.575,2.172,3.289,2.835
		C50.013,41.118,51.276,42.642,52.387,44.364z"/>
	<path fill="#B1C6CF" d="M41.897,49.346c0.338,0,0.671,0.025,0.991,0.075c3.378,0.532,4.422,2.355,5.204,5.148
		c0.398,1.421,0.526,2.689,0.391,3.88c-0.318,2.781-2.179,5.392-4.979,6.983c-0.142,0.081,0.411,1.335,0.265,1.41
		c1.596,0.991,3.352,1.613,5.108,1.742c0.198,0.015,0.398,0.022,0.599,0.022c1.21,0,3.182-0.99,3.849-1.539
		c0.457-0.376,0.846-0.933,1.188-1.703c1.606-3.606,1.45-7.978,1.125-10.944c-0.296-2.703-1.248-6.01-2.466-8.479
		c-0.394-0.799-0.837-1.582-1.318-2.328c-1.021-1.582-1.963-2.682-3.222-3.852c-0.667-0.619-2.426-1.33-3.528-1.33
		c-0.087,0-0.173,0.002-0.259,0.007l-0.115,0.008c-2.79,0.204-5.27,2.785-6.488,5.251c-0.75,1.519-1.609,4.153-1.796,6.018
		c0.245-0.09,1.008,0.663,1.25,0.576C39.083,49.793,40.449,49.346,41.897,49.346z"/>
	<path fill="#CEE1E8" d="M31.936,65.441c0.331,0.44,0.833,0.756,1.289,0.92c0.551,0.198,1.202,0.291,2.049,0.291
		c0.277,0,0.554-0.01,0.829-0.022c3.053-0.145,6.642-1.233,8.508-2.293c2.213-1.259,3.739-3.355,3.98-5.472
		c0.106-0.928-0.002-1.946-0.329-3.114c-0.587-2.094-3.441-5.786-5.886-6.17c-1.352-0.218-2.746,0.251-4.206,0.777
		c-1.69,0.606-3.331,1.226-4.828,2.111c-0.656,0.389-3.033,2.274-2.808,4.032c0.031,0.24,0.039,0.803,0.149,0.92
		C30.439,58.307,30.14,63.676,31.936,65.441z"/>
	<path fill="#D3CFD2" d="M37.019,59.943c0.75-0.568,1.252-1.852,0.949-2.348c-0.138-0.227-0.505-0.379-0.912-0.379
		c-0.61,0.028-3.494,0.58-4.089,0.821c-3.905,1.584-7.702,2.772-11.591,3.951c-6.113,1.855-12.439,4.075-17.985,7.307
		c-0.058,0.034-0.237,0.139-0.28,0.189l0,0c0.027,0,0.082,0.208,0.118,0.347l0.049,0.19c0.361,1.468-0.041,3.992-0.944,5.194
		c10.071-3.369,20.904-7.052,30.359-11.864C33.831,62.774,36.13,60.618,37.019,59.943z"/>
	<g>
		<path fill="#4C331B" d="M173.278,24.893c-0.749-8.412-5.164-16.549-11.81-21.764c-1.237-0.972-2.308-1.649-3.367-2.133
			C156.653,0.335,155.072,0,153.403,0c-3.76,0-7.305,1.687-9.482,4.512c-1.582,2.053-2.417,4.551-3.084,6.944
			c-0.378,1.357-0.794,2.976-1.009,4.677c-0.273,2.169-0.192,4.468,0.209,6.873c-4.91,1.322-9.887,2.404-14.889,3.231
			c-1.392-4.828-3.67-8.416-6.811-10.692c-1.451-1.051-2.914-1.677-4.349-1.86c-1.933-0.242-3.943,0.251-6.052,1.434
			c-2.175,1.222-3.57,2.803-4.035,4.572c-0.214,0.812-0.221,1.636-0.135,2.43C99.913,23.043,92.492,24.7,84,26.595
			c-23.481,5.239-40.216,9.021-41.698,9.967c-1.67,1.066-2.804,2.358-3.636,3.793c-0.909,0.996-1.636,2.1-2.143,3.125
			c-0.991,2.007-1.562,4.37-1.684,6.845c-0.81,0.35-1.613,0.735-2.379,1.189c-2.46,1.457-3.775,3.522-3.518,5.526
			c0.047,0.363,0.16,0.687,0.303,0.987c-2.453,0.842-4.941,1.608-7.38,2.349c-6.223,1.888-12.658,3.841-18.405,7.191
			c-0.281,0.164-0.805,0.469-1.07,1.047c-0.301,0.653-0.13,1.299-0.018,1.728l0.041,0.156c0.338,1.377-0.483,2.996-1.794,3.536
			c-0.492,0.203-0.739,0.756-0.562,1.258c0.291,0.822,1.05,1.294,2.083,1.294c0.567,0,1.094-0.136,1.437-0.249
			c9.096-3.02,18.053-6.67,26.681-10.866c0.516,0.841,1.364,1.522,2.424,1.902c0.774,0.279,1.641,0.409,2.726,0.409
			c0.308,0,0.617-0.01,0.923-0.024c2.106-0.1,3.899-0.388,5.472-0.887c0.628,0.474,1.283,0.896,1.964,1.26
			c1.737,1.311,3.735,2.214,6.118,2.294c0.011,0.001,0.064,0.002,0.076,0.002c3.202,0,31.308-8.967,57.401-17.371l1.263-0.406
			c0.199,0.463,0.432,0.928,0.735,1.361c1.156,1.651,3.213,2.637,5.502,2.637c0.896,0,1.802-0.156,2.623-0.452
			c2.363-0.852,4.467-2.787,6.085-5.597c2.42-4.203,3.418-9.461,3.018-15.644l15.998-3.598c0.081,0.188,0.15,0.373,0.235,0.562
			c1.814,4.045,3.77,6.962,6.155,9.179c2.893,2.69,6.521,4.233,9.953,4.233c0.146,0,0.292-0.003,0.438-0.009
			c4.469-0.166,8.817-2.939,11.35-7.235C173.4,33.539,173.59,28.401,173.278,24.893z M3.411,74.285
			c0.903-1.202,1.305-2.795,0.944-4.263l-0.049-0.19c-0.036-0.139-0.091-0.347-0.118-0.347h0c0.043-0.051,0.222-0.155,0.28-0.189
			c5.545-3.232,11.866-5.15,17.979-7.006c3.889-1.18,7.911-2.4,11.815-3.984c0.595-0.241,1.158-0.47,1.768-0.498
			c0.407,0,0.773,0.152,0.912,0.379c0.303,0.496-0.319,1.418-1.069,1.986c-0.889,0.675-1.902,1.208-3.039,1.786
			C23.378,66.771,13.482,70.916,3.411,74.285z M36.238,65.761c-0.275,0.013-0.552,0.022-0.829,0.022
			c-0.848,0-1.498-0.093-2.049-0.291c-0.456-0.164-0.958-0.48-1.289-0.92c0.556-0.277,1.116-0.548,1.67-0.83
			c1.224-0.623,2.319-1.201,3.34-1.976c1.445-1.096,2.553-3.01,1.568-4.623c-0.1-0.164-0.231-0.303-0.365-0.44
			c-0.285-0.403-0.669-0.745-1.135-0.966c-0.958-0.455-2.182-0.392-3.189,0.154c-0.439,0.238-0.809,0.543-1.136,0.813
			c-0.01,0.008-0.021,0.016-0.031,0.024c-0.542,0.214-1.088,0.422-1.637,0.624c-0.109-0.118-0.197-0.326-0.228-0.566
			c-0.225-1.758,1.898-3.162,2.554-3.551c1.497-0.886,3.138-1.505,4.828-2.111c1.46-0.526,2.854-0.995,4.206-0.777
			c2.445,0.385,3.998,2.968,4.585,5.062c0.327,1.168,0.435,2.187,0.329,3.114c-0.242,2.116-1.767,4.213-3.98,5.472
			C41.582,65.055,39.291,65.616,36.238,65.761z M44.436,65.732c2.8-1.592,4.662-4.202,4.979-6.983
			c0.135-1.19,0.008-2.459-0.391-3.88c-0.782-2.793-2.822-5.967-6.2-6.499c-0.32-0.05-0.653-0.075-0.991-0.075
			c-1.448,0-2.814,0.447-4.202,0.946c-0.242,0.087-0.488,0.179-0.733,0.27c0.188-1.865,0.667-3.626,1.417-5.145
			c1.218-2.466,3.698-5.047,6.488-5.251l0.115-0.008c0.086-0.005,0.172-0.007,0.259-0.007c1.102,0,2.075,0.341,2.742,0.96
			c1.26,1.17,2.416,2.565,3.436,4.147c0.481,0.746,0.925,1.529,1.318,2.328c1.218,2.469,1.985,5.092,2.281,7.795
			c0.325,2.966,0.374,7.257-1.232,10.863c-0.343,0.771-0.732,1.327-1.188,1.703c-0.667,0.549-1.619,0.827-2.83,0.827
			c-0.201,0-0.401-0.008-0.599-0.022c-1.756-0.129-3.511-0.751-5.108-1.742C44.145,65.885,44.294,65.813,44.436,65.732z
			 M106.749,51.153c-14.176,4.565-40.825,13.149-51.938,16.18c0.27-0.387,0.517-0.824,0.74-1.324
			c1.788-4.016,1.745-8.685,1.394-11.895c-0.321-2.937-1.154-5.784-2.476-8.463c-0.427-0.866-0.909-1.717-1.432-2.527
			c-1.11-1.722-2.374-3.246-3.755-4.528c-0.714-0.664-1.636-1.105-2.661-1.326c1.359-0.356,3.072-0.781,5.054-1.259
			c0.086,0.182,0.21,0.348,0.399,0.454c1.362,0.765,2.824,2.189,3.018,3.651c0.066,0.503,0.496,0.868,0.99,0.868
			c0.044,0,0.088-0.003,0.133-0.009c0.548-0.072,0.933-0.575,0.86-1.123c-0.241-1.819-1.583-3.385-2.958-4.424
			c0.451-0.107,0.911-0.215,1.38-0.325c0.031,0.197,0.103,0.389,0.252,0.543c3.36,3.461,5.133,7.407,5.581,12.419
			c0.046,0.52,0.483,0.911,0.995,0.911c0.03,0,0.06-0.001,0.09-0.004c0.55-0.049,0.957-0.535,0.907-1.085
			c-0.475-5.316-2.332-9.539-5.8-13.257c0.886-0.206,1.792-0.416,2.72-0.63c-0.174,0.315-0.184,0.709,0.028,1.03
			c0.711,1.08,1.169,2.33,1.323,3.616c0.061,0.508,0.492,0.881,0.991,0.881c0.04,0,0.08-0.002,0.12-0.007
			c0.549-0.066,0.94-0.563,0.874-1.112c-0.19-1.592-0.757-3.141-1.639-4.478c-0.071-0.107-0.161-0.192-0.26-0.261
			c0.424-0.097,0.852-0.195,1.282-0.293c0.02,0.031,0.026,0.067,0.05,0.097c1.207,1.497,1.369,1.942,1.445,3.968
			c0.021,0.539,0.464,0.963,0.999,0.963c0.013,0,0.025,0,0.038-0.001c0.552-0.021,0.982-0.484,0.962-1.036
			c-0.08-2.13-0.332-3.064-1.366-4.476c0.63-0.143,1.264-0.287,1.901-0.432c0.039,0.136,0.102,0.267,0.201,0.381
			c3.136,3.603,4.084,6.561,5.024,11.827c0.086,0.484,0.508,0.824,0.983,0.824c0.058,0,0.117-0.005,0.177-0.016
			c0.543-0.097,0.906-0.616,0.809-1.16c-0.948-5.31-1.997-8.591-5.111-12.328c0.747-0.169,1.495-0.337,2.243-0.506
			c0.05,0.165,0.126,0.322,0.261,0.448c1.094,1.016,1.842,2.446,2.051,3.926c0.071,0.5,0.499,0.86,0.989,0.86
			c0.047,0,0.094-0.003,0.142-0.01c0.547-0.077,0.927-0.583,0.85-1.13c-0.241-1.706-0.995-3.305-2.144-4.577
			c0.361-0.081,0.72-0.162,1.079-0.242c0.158,0.243,0.408,0.423,0.718,0.456c0.002,0.004,0.003,0.007,0.005,0.011
			c0.073,0.128,0.158,0.277,0.279,0.451c0.311,0.445,0.505,1.035,0.693,1.604c0.192,0.586,0.333,1.063,0.242,1.433
			c-0.131,0.537,0.198,1.078,0.734,1.209c0.08,0.02,0.16,0.028,0.238,0.028c0.45,0,0.859-0.306,0.971-0.763
			c0.233-0.955-0.067-1.867-0.286-2.533c-0.222-0.674-0.474-1.438-0.952-2.123c-0.077-0.11-0.131-0.207-0.177-0.289
			c-0.006-0.011-0.013-0.022-0.019-0.033c0.68-0.152,1.354-0.303,2.022-0.452c0.083,0.128,0.186,0.244,0.327,0.326
			c1.567,0.909,2.11,2.439,2.657,4.348c0.836,2.912,0.747,4.904,0.61,7.919l-0.033,0.748c-0.024,0.552,0.404,1.019,0.956,1.042
			c0.015,0.001,0.029,0.001,0.044,0.001c0.532,0,0.975-0.42,0.998-0.957l0.033-0.744c0.14-3.097,0.241-5.334-0.686-8.561
			c-0.41-1.43-0.961-3.282-2.448-4.671c0.819-0.183,1.617-0.361,2.402-0.536c0.063,0.153,0.15,0.296,0.289,0.406
			c1.079,0.854,1.394,1.904,1.831,3.359c0.097,0.324,0.197,0.657,0.31,1.001c0.138,0.421,0.529,0.688,0.95,0.688
			c0.103,0,0.208-0.016,0.311-0.05c0.525-0.172,0.811-0.736,0.639-1.262c-0.107-0.326-0.202-0.645-0.295-0.953
			c-0.397-1.325-0.787-2.587-1.8-3.689c0.355-0.079,0.704-0.157,1.055-0.236c0.077,0.113,0.175,0.214,0.299,0.29
			c0.615,0.379,1.114,1.062,1.405,1.923c0.309,0.914,0.364,1.916,0.377,2.775c0.009,0.547,0.455,0.984,1,0.984
			c0.005,0,0.011,0,0.016,0c0.552-0.009,0.993-0.463,0.984-1.016c-0.016-1.014-0.085-2.209-0.482-3.385
			c-0.277-0.817-0.707-1.522-1.23-2.101c0.681-0.152,1.346-0.301,2.003-0.448c0.044,0.346,0.252,0.663,0.598,0.805
			c0.645,0.264,1.049,1.413,1.375,2.337l0.136,0.382c1.358,3.746,1.359,6.754,0.92,10.392c-0.066,0.549,0.325,1.047,0.873,1.113
			c0.041,0.005,0.081,0.007,0.121,0.007c0.499,0,0.93-0.373,0.991-0.88c0.461-3.822,0.463-7.208-1.025-11.313l-0.129-0.363
			c-0.355-1.01-0.784-2.205-1.644-2.975c0.245-0.055,0.488-0.11,0.728-0.164c0.034,0.183,0.102,0.361,0.239,0.506
			c1.246,1.315,2.157,2.934,2.633,4.681c0.122,0.444,0.524,0.736,0.964,0.736c0.087,0,0.176-0.011,0.264-0.035
			c0.533-0.146,0.847-0.695,0.702-1.229c-0.516-1.891-1.48-3.641-2.768-5.118c0.362-0.082,0.716-0.162,1.064-0.241
			c0.131,0.201,0.331,0.356,0.588,0.415c0.226,0.132,0.614,0.916,0.78,1.251c0.104,0.212,0.202,0.406,0.291,0.564
			c0.498,0.877,0.858,1.82,1.072,2.806c0.102,0.468,0.516,0.787,0.976,0.787c0.07,0,0.142-0.007,0.213-0.022
			c0.54-0.118,0.882-0.65,0.765-1.19c-0.257-1.182-0.689-2.313-1.287-3.366c-0.073-0.13-0.152-0.291-0.238-0.465
			c-0.214-0.432-0.454-0.912-0.758-1.326c0.469-0.107,0.917-0.21,1.347-0.31c0.085,0.294,0.285,0.555,0.583,0.679
			c0.26,0.108,0.891,1.031,1.349,2.414c1.104,3.33,2.16,6.876,1.918,10.396c-0.038,0.551,0.378,1.028,0.929,1.066
			c0.023,0.001,0.047,0.002,0.07,0.002c0.521,0,0.96-0.403,0.997-0.932c0.268-3.883-0.849-7.644-2.015-11.162
			c-0.231-0.696-0.772-2.1-1.602-2.984c0.632-0.15,1.196-0.285,1.669-0.402c0.586-0.145,1.071-0.255,1.533-0.255
			c0.073,0,0.145,0.003,0.219,0.009c1.118,0.096,2.223,1.014,3.284,2.728c4.47,7.22,4.157,17.02-0.732,23.953L106.749,51.153z
			 M121.837,49.601c-0.961,1.67-2.614,3.843-5.03,4.714c-0.605,0.218-1.278,0.333-1.944,0.333c-1.638,0-3.082-0.666-3.864-1.783
			c-0.18-0.258-0.328-0.544-0.464-0.844c0.166-0.071,0.314-0.176,0.421-0.321c5.535-7.587,5.948-18.462,1.004-26.446
			c-1.412-2.281-3.031-3.515-4.812-3.667c-0.485-0.043-0.95,0.003-1.421,0.086c-0.038-0.507-0.015-1.002,0.109-1.474
			c0.409-1.558,1.9-2.674,3.08-3.336c1.461-0.821,2.849-1.237,4.123-1.237c0.232,0,0.464,0.014,0.696,0.044
			c1.099,0.14,2.252,0.644,3.429,1.495c3.7,2.682,6.081,7.532,7.077,14.417C125.302,38.924,124.494,44.987,121.837,49.601z
			 M126.54,32.916c-0.089-1.605-0.26-3.21-0.512-4.795c8.437-1.426,16.806-3.563,24.89-6.357c0.633-0.219,1.333-0.412,1.698-0.229
			c0.27,0.135,0.501,0.529,0.619,1.056c0.348,1.555-0.314,3.289-1.611,4.217c-0.955,0.682-2.21,0.965-3.423,1.238L126.54,32.916z
			 M155.186,22.151c-0.257-1.141-0.853-1.995-1.679-2.407c-0.385-0.191-0.815-0.288-1.282-0.288c-0.694,0-1.349,0.206-1.96,0.417
			c-0.636,0.22-1.277,0.428-1.917,0.639c0.06-0.668,0.182-1.343,0.459-1.939c0.695-1.495,2.405-2.499,4.255-2.499
			c0.224,0,0.446,0.016,0.667,0.048c1.926,0.276,3.757,1.663,4.778,3.619c1.172,2.243,1.146,4.711,0.919,6.387
			c-0.224,1.659-0.699,2.893-1.455,3.772c-0.778,0.905-1.998,1.557-3.434,1.832c-1.001,0.194-1.836,0.139-2.446-0.166
			c-0.38-0.188-0.752-0.505-1.171-0.993c-0.26-0.303-0.495-0.632-0.716-0.974c0.886-0.255,1.78-0.592,2.582-1.165
			C154.718,27.052,155.704,24.47,155.186,22.151z M168.995,37.071c-2.157,3.659-5.965,6.113-9.701,6.253
			c-3.055,0.097-6.323-1.244-8.956-3.691c-2.182-2.028-3.99-4.739-5.691-8.532c-0.029-0.064-0.051-0.125-0.079-0.189l3.606-0.811
			c0.361,0.637,0.765,1.234,1.229,1.775c0.599,0.698,1.171,1.169,1.799,1.481c0.653,0.324,1.408,0.488,2.245,0.488
			c0.461,0,0.955-0.05,1.468-0.148c1.878-0.361,3.503-1.247,4.574-2.494c1.015-1.181,1.644-2.754,1.92-4.807
			c0.382-2.815-0.009-5.437-1.128-7.581c-1.314-2.517-3.716-4.307-6.267-4.674c-0.313-0.044-0.633-0.067-0.952-0.067
			c-2.614,0-5.053,1.47-6.069,3.655c-0.526,1.13-0.656,2.345-0.689,3.445c-1.435,0.453-2.879,0.883-4.329,1.294
			c-0.338-2.135-0.405-4.172-0.164-6.085c0.198-1.573,0.592-3.102,0.951-4.39c0.613-2.199,1.369-4.479,2.741-6.261
			C147.279,3.43,150.305,2,153.403,2c1.381,0,2.682,0.274,3.868,0.816c0.912,0.415,1.854,1.015,2.963,1.886
			c6.22,4.881,10.351,12.495,11.052,20.368C171.572,28.287,171.407,32.98,168.995,37.071z"/>
		<path fill="#4C331B" d="M151.317,4.874c-1.94,0.526-3.693,1.972-4.81,3.967c-0.877,1.566-1.394,3.456-1.582,5.779
			c-0.044,0.55,0.366,1.032,0.916,1.077c0.027,0.002,0.055,0.003,0.082,0.003c0.516,0,0.954-0.396,0.996-0.92
			c0.164-2.029,0.6-3.652,1.333-4.963c0.856-1.528,2.164-2.627,3.588-3.014c0.533-0.145,0.848-0.693,0.703-1.227
			C152.4,5.044,151.852,4.727,151.317,4.874z"/>
	</g>
</g>
</svg>
