<?xml version="1.0" encoding="utf-8"?>
<!-- Generator: Adobe Illustrator 23.0.6, SVG Export Plug-In . SVG Version: 6.00 Build 0)  -->
<svg version="1.1" id="Vrstva_10" xmlns="http://www.w3.org/2000/svg" xmlns:xlink="http://www.w3.org/1999/xlink" x="0px" y="0px"
	 viewBox="0 0 59.5 59.5" style="enable-background:new 0 0 59.5 59.5;" xml:space="preserve">
<style type="text/css">
	.st0{fill:#E31317;}
	.st1{fill:#FFFFFF;}
</style>
<g>
	<circle class="st0" cx="29.7" cy="29.7" r="29.7"/>
	<g>
		<path class="st1" d="M27.2,47.1c-3.3,0-3.4,0-3.5-0.1c-1.7-0.2-2.7-1.5-2.8-2.7c0-0.2,0-0.2,0-5.8c-5.1,0-5.5,0-5.6-0.1
			c-1.7-0.1-2.9-1.5-2.9-3.1c0-11.6,0-11.7,0.1-12.1c0.3-1.2,1.3-2.1,2.5-2.3c0.3,0,0.9-0.1,2.7-0.1c0.7,0,2,0,3.2,0
			c0-6,0-6.1,0.2-6.7c0.5-1.2,1.6-1.9,2.9-1.9c0.7,0,5.3,0,8.5,0c3.2,0,3.2,0,3.4,0c1.6,0.2,2.7,1.6,2.7,3.2l-0.1,5.4
			C44,21,44.2,21,44.3,21c1.6,0.1,2.9,1.5,2.9,3.1c0,4.5,0,10.9,0,11.3c0,0.8-0.3,1.6-0.9,2.2c-0.6,0.6-1.4,0.9-2.2,0.9
			c-0.1,0-0.1,0-0.2,0l-5.3,0c0,5.7,0,5.8,0,5.9c-0.1,1.5-1.4,2.7-2.9,2.8l-0.2,0L27.2,47.1z M24,43.9c0.5,0,2.8,0,4.4,0.1l7.1,0.1
			c0-0.1,0-5.9,0-8.2c0-0.3,0.1-0.5,0.3-0.5c0,0,0.4,0,0.9,0c2.1,0,7.4,0,7.4,0c0,0,0,0,0,0c0-1.1,0-10.8,0-11.2
			c-0.2,0-6-0.1-8.1-0.1c-0.4,0-0.5-0.2-0.5-0.4c0-0.2,0.1-8.1,0.1-8.1c-0.1,0-2.2,0-3,0c-3.4,0-8.5,0-8.5,0c0,0.2,0,4.9,0,8
			c0,0,0,0.3-0.1,0.5c-0.1,0.1-0.2,0.1-0.3,0.1c-0.2,0-3.6-0.1-6-0.1c-1.1,0-1.8,0-2.2,0c0,0.9,0,7.1,0,11.3c0.1,0,0.7,0,1.5,0
			c1.3,0,3.1,0,4.4,0c1.2,0,2.2,0,2.2,0c0.1,0,0.5,0,0.5,0.4v0.3C24,41.9,24,43.5,24,43.9z"/>
		<path class="st1" d="M32.5,12.6c3.2,0,3.2,0,3.4,0c1.4,0.2,2.5,1.4,2.5,2.9c0,1.7-0.1,3.9-0.1,5.6c5.7,0.1,5.9,0.1,6,0.1
			c1.5,0.1,2.7,1.4,2.6,2.9c0,4.4,0,10.9,0,11.3c0,0.7-0.3,1.5-0.8,2c-0.5,0.5-1.3,0.8-2,0.8c-0.1,0-0.1,0-0.2,0c-0.6,0-3.4,0-5.5,0
			c0,5.9,0,6,0,6.1c-0.1,1.4-1.3,2.5-2.7,2.5c0,0-0.1,0-0.1,0c0,0,0,0,0,0c-2,0-3.6,0-5,0l-3.4,0c-3.2,0-3.3,0-3.5-0.1
			c-1.6-0.2-2.4-1.4-2.6-2.5c0-0.2,0-0.2,0-6c0,0,0,0,0,0c-5.1,0-5.7-0.1-5.9-0.1c-1.5-0.1-2.7-1.4-2.7-2.9c0-11.6,0-11.6,0.1-12
			c0.3-1.1,1.2-1.9,2.3-2.1c0.3,0,0.9-0.1,2.7-0.1c0.7,0,2.1,0,3.5,0c-0.1-6.2,0-6.3,0.2-6.8c0.4-1.1,1.5-1.8,2.7-1.8
			c0,0,0.1,0,0.1,0C24.6,12.6,29.3,12.6,32.5,12.6 M24,15.2C24,15.2,24,15.2,24,15.2c-0.1,0-0.2,0-0.2,0.1c-0.1,0.2,0,8.2,0,8.2
			s0.1,0.4-0.1,0.4c0,0,0,0,0,0c-0.1,0-3.5-0.1-5.9-0.1c-1.1,0-2,0-2.3,0.1c-0.1,0-0.1,0-0.1,0.1c0,0.2,0,11.5,0,11.5s0,0.2,0.2,0.2
			c0.3,0,7.9,0.1,8.1,0.1s0.3,0,0.3,0.1c0,0.1,0,8.2,0,8.2c0,0.1,0,0.1,0.2,0.1c0.1,0,2.1,0,4.4,0l2.1,0c2.6,0,5,0,5,0
			s0.2,0,0.2-0.1c0-0.1,0-8.3,0-8.3s0-0.2,0.1-0.3c0,0,0.3,0,0.8,0c2.1,0,7.4,0,7.4,0s0,0,0.1,0c0.1,0,0.2,0,0.2-0.2
			c0-0.2,0-11.3,0-11.3s0-0.2-0.2-0.2c-0.3,0-8.2-0.2-8.2-0.2s0,0,0,0c-0.1,0-0.2,0-0.2-0.2c0-0.2,0.1-8.1,0.1-8.1s0-0.2-0.2-0.2
			c-0.1,0-1.4,0-3.1,0C29.1,15.2,24,15.2,24,15.2 M32.5,12.1c-3.2,0-7.8,0-8.4,0l-0.1,0c-1.4,0-2.6,0.8-3.1,2.1
			c-0.3,0.6-0.3,0.7-0.2,6.5c-1.2,0-2.3,0-2.9,0c-1.8,0-2.4,0-2.8,0.1c-1.3,0.2-2.4,1.1-2.7,2.5c-0.1,0.5-0.1,0.5-0.1,12.2
			c0,1.8,1.3,3.2,3.1,3.3c0.2,0,0.7,0,5.4,0.1c0,5.4,0,5.4,0,5.6c0.1,1.3,1.1,2.7,3,2.9c0.1,0,0.3,0,3.5,0.1l3.4,0l5,0
			c0.1,0,0.1,0,0.2,0c1.7-0.1,3-1.4,3.2-3c0-0.2,0-0.2,0-5.7c1.3,0,2.8,0,3.8,0l1.3,0c0,0,0.1,0,0.2,0c0.9,0,1.8-0.4,2.4-1
			c0.6-0.6,0.9-1.5,0.9-2.3c0-0.3,0-6.8,0-11.3c0-1.8-1.3-3.2-3.1-3.4c-0.1,0-0.3,0-5.5-0.1l0.1-4.5l0-0.7c0-1.7-1.2-3.2-2.9-3.4
			C35.7,12.1,35.7,12.1,32.5,12.1L32.5,12.1z M24.2,15.7c1,0,5.3,0,8.2,0c0.6,0,2.1,0,2.8,0c0,1.5-0.1,7.7-0.1,7.8
			c0,0.3,0.3,0.7,0.7,0.7c2.8,0,6.9,0.1,7.9,0.1c0,1.5,0,9,0,10.7c-1.1,0-5.3,0-7.1,0c-0.8,0-0.8,0-0.9,0c-0.4,0.1-0.6,0.4-0.5,0.8
			c0,2.7,0,6.7,0,7.9c-0.7,0-2.6,0-4.7,0l-2.1,0c-1.4,0-3.5,0-4.1,0c0-0.6,0-2.5,0-7.6l0-0.3c0-0.2-0.1-0.6-0.7-0.6
			c-0.1,0-0.7,0-2.3,0c-1.8,0-4.6,0-5.5-0.1c0-3.9,0-9.3,0-10.8c0.3,0,0.9,0,1.9,0c2.3,0,5.5,0.1,5.9,0.1l0,0l0.1,0
			c0.2,0,0.4-0.1,0.5-0.2c0.2-0.2,0.2-0.5,0.2-0.7C24.2,20.9,24.2,16.9,24.2,15.7L24.2,15.7z"/>
	</g>
</g>
</svg>
