<?xml version="1.0" encoding="utf-8"?>
<!-- Generator: Adobe Illustrator 23.0.6, SVG Export Plug-In . SVG Version: 6.00 Build 0)  -->
<svg version="1.1" id="Vrstva_10" xmlns="http://www.w3.org/2000/svg" xmlns:xlink="http://www.w3.org/1999/xlink" x="0px" y="0px"
	 viewBox="0 0 36.5 36.4" style="enable-background:new 0 0 36.5 36.4;" xml:space="preserve">
<style type="text/css">
	.st0{fill:#E31317;}
	.st1{fill:#4C331B;}
</style>
<g>
	<path class="st0" d="M15.6,35.9c-3.3,0-3.4,0-3.5-0.1c-1.9-0.2-2.9-1.6-3-2.9c0-0.2,0-0.2,0-5.6c-4.9,0-5.2,0-5.4-0.1
		c-1.8-0.1-3.2-1.6-3.1-3.4c0-11.6,0-11.7,0.1-12.1C1,10.4,2,9.5,3.4,9.3c0.4-0.1,1-0.1,2.8-0.1c0.6,0,1.8,0,2.9,0
		c0-5.8,0-5.9,0.2-6.5c0.5-1.3,1.7-2.1,3.1-2.1c0.7,0,5.3,0,8.5,0c3.2,0,3.2,0,3.5,0c1.7,0.2,3,1.7,2.9,3.4l-0.1,5.1
		c5.2,0.1,5.4,0.1,5.5,0.1c1.8,0.1,3.1,1.6,3.1,3.4c0,4.3,0,10.9,0,11.3c0,0.9-0.3,1.7-0.9,2.3c-0.6,0.6-1.5,1-2.4,1
		c-0.1,0-0.1,0-0.2,0l-5,0c0,5.4,0,5.5,0,5.7c-0.1,1.7-1.5,2.9-3.2,3l-0.2,0L15.6,35.9z M12.7,32.2c0.7,0,2.5,0,4.1,0l6.8,0.1
		c0-1.1,0-5.2,0-7.9c0-0.4,0.2-0.7,0.5-0.8c0,0,0.4,0,0.9,0c1.8,0,6.1,0,7.1,0c0-1.7,0-9.2,0-10.7c-1,0-5.1-0.1-7.9-0.1
		c-0.5,0-0.8-0.3-0.8-0.7c0-0.2,0.1-6.5,0.1-7.9c-0.6,0-2.2,0-2.8,0c-3,0-7.2,0-8.2,0c0,1.1,0,5.2,0,7.8c0,0.1,0.1,0.4-0.2,0.7
		c-0.1,0.1-0.3,0.2-0.5,0.2H12l-0.1,0c-0.2,0-3.4-0.1-5.8-0.1c-1,0-1.6,0-1.9,0c0,1.3,0,6.8,0,10.8c0.9,0,3.7,0,5.5,0.1
		c1.2,0,2.2,0,2.3,0c0.6,0,0.7,0.4,0.7,0.6C12.7,24.3,12.7,31.5,12.7,32.2z"/>
	<path class="st1" d="M21,1.1c3.2,0,3.2,0,3.4,0c1.4,0.2,2.5,1.4,2.5,2.9c0,1.7-0.1,3.9-0.1,5.6c5.7,0.1,5.9,0.1,6,0.1
		c1.5,0.1,2.7,1.4,2.6,2.9c0,4.4,0,10.9,0,11.3c0,0.7-0.3,1.5-0.8,2c-0.5,0.5-1.3,0.8-2,0.8c-0.1,0-0.1,0-0.2,0c-0.6,0-3.4,0-5.5,0
		c0,5.9,0,6,0,6.1c-0.1,1.4-1.3,2.5-2.7,2.5c0,0-0.1,0-0.1,0c0,0,0,0,0,0c-2,0-3.6,0-5,0l-3.4,0c-3.2,0-3.3,0-3.5-0.1
		c-1.6-0.2-2.4-1.4-2.6-2.5c0-0.2,0-0.2,0-6c0,0,0,0,0,0c-5.1,0-5.7-0.1-5.9-0.1C2.2,26.6,1,25.4,1,23.9c0-11.6,0-11.6,0.1-12
		c0.3-1.1,1.2-1.9,2.3-2.1c0.3,0,0.9-0.1,2.7-0.1c0.7,0,2.1,0,3.5,0c-0.1-6.2,0-6.3,0.2-6.8c0.4-1.1,1.5-1.8,2.7-1.8
		c0,0,0.1,0,0.1,0C13.1,1.1,17.8,1.1,21,1.1 M12.5,3.7C12.5,3.7,12.5,3.7,12.5,3.7c-0.1,0-0.2,0-0.2,0.1c-0.1,0.2,0,8.2,0,8.2
		s0.1,0.4-0.1,0.4c0,0,0,0,0,0c-0.1,0-3.5-0.1-5.9-0.1c-1.1,0-2,0-2.3,0.1c-0.1,0-0.1,0-0.1,0.1c0,0.2,0,11.5,0,11.5s0,0.2,0.2,0.2
		c0.3,0,7.9,0.1,8.1,0.1c0.2,0,0.3,0,0.3,0.1c0,0.1,0,8.2,0,8.2c0,0.1,0,0.1,0.2,0.1c0.1,0,2.1,0,4.4,0l2.1,0c2.6,0,5,0,5,0
		s0.2,0,0.2-0.1c0-0.1,0-8.3,0-8.3s0-0.2,0.1-0.3c0,0,0.3,0,0.8,0c2.1,0,7.4,0,7.4,0s0,0,0.1,0c0.1,0,0.2,0,0.2-0.2
		c0-0.2,0-11.3,0-11.3s0-0.2-0.2-0.2c-0.3,0-8.2-0.2-8.2-0.2s0,0,0,0c-0.1,0-0.2,0-0.2-0.2c0-0.2,0.1-8.1,0.1-8.1s0-0.2-0.2-0.2
		c-0.1,0-1.4,0-3.1,0C17.5,3.7,12.5,3.7,12.5,3.7 M21,0.1c-3.2,0-7.8,0-8.4,0l-0.1,0c-1.6,0-3,0.9-3.6,2.4C8.6,3.2,8.5,3.3,8.6,8.7
		c-1,0-1.9,0-2.4,0c-1.8,0-2.4,0-2.8,0.1C1.7,9,0.5,10.1,0.2,11.6C0,12.1,0,12.2,0,23.9c0,2,1.6,3.7,3.6,3.8c0.2,0,0.5,0,4.9,0.1
		c0,4.9,0,4.9,0,5.2c0.2,1.5,1.3,3.1,3.4,3.4c0.2,0,0.3,0,3.6,0.1l3.4,0l5,0c0,0,0,0,0,0c0.1,0,0.1,0,0.2,0c2-0.1,3.5-1.6,3.7-3.5
		c0-0.2,0-0.3,0-5.2c1.2,0,2.4,0,3.3,0l1.2,0c0.1,0,0.1,0,0.2,0c1.1,0,2-0.4,2.8-1.1c0.7-0.7,1.1-1.7,1.1-2.7c0-0.3,0-6.8,0-11.3
		c0-2-1.5-3.7-3.6-3.9c-0.1,0-0.3,0-5.1-0.1l0.1-4l0-0.6c0.1-2-1.4-3.7-3.4-3.9C24.2,0.1,24.2,0.1,21,0.1L21,0.1z M13.2,4.7
		c1.5,0,5.1,0,7.8,0c1,0,1.7,0,2.2,0c0,2.1-0.1,7.2-0.1,7.4c0,0.7,0.5,1.2,1.2,1.2c2.5,0,5.9,0.1,7.4,0.1c0,2.1,0,7.6,0,9.7
		c-1.5,0-5,0-6.6,0c-0.8,0-0.9,0-0.9,0c-0.6,0.1-1,0.6-1,1.3c0,2.4,0,5.8,0,7.4c-0.9,0-2.5,0-4.2,0l-2.1,0c-1.2,0-2.7,0-3.7,0
		c0-1,0-3,0-7.1l0-0.3c0-0.1,0-1.1-1.2-1.1c-0.1,0-0.5,0-2.3,0c-1.5,0-3.8,0-5,0c0-3.5,0-7.9,0-9.8c0.3,0,0.8,0,1.4,0
		c2.2,0,5.3,0.1,5.8,0.1l0,0l0.1,0c0.3,0,0.6-0.1,0.9-0.4c0.3-0.4,0.3-0.8,0.3-1.1C13.2,9.7,13.2,6.3,13.2,4.7L13.2,4.7z"/>
</g>
</svg>
