<?xml version="1.0" encoding="utf-8"?>
<!-- Generator: Adobe Illustrator 23.0.3, SVG Export Plug-In . SVG Version: 6.00 Build 0)  -->
<svg version="1.1" id="Vrstva_10" xmlns="http://www.w3.org/2000/svg" xmlns:xlink="http://www.w3.org/1999/xlink" x="0px" y="0px"
	 viewBox="0 0 169.61 169.5" style="enable-background:new 0 0 169.61 169.5;" xml:space="preserve">
<style type="text/css">
	.st0{fill:#62B594;}
</style>
<path class="st0" d="M169.63,57.01c0.02-7.46-5.6-13.56-13.08-14.18c-0.46-0.04-1.47-0.12-29.55-0.6
	c0.11-8.25,0.25-19.19,0.36-27.75c0.19-7.2-5.1-13.45-12.24-14.34C114.08,0.02,113.92,0,98.3,0C82.57,0,59.6,0.04,56.67,0.05
	c-0.13,0-0.27-0.01-0.4-0.01c-5.82,0-10.97,3.47-13.13,8.83c-1.11,2.76-1.26,3.14-1.01,33.7c-6.46-0.1-13.45-0.17-17.05-0.17
	c-9.02,0-11.7,0.2-13.26,0.42C6.2,43.6,1.75,47.61,0.49,53.04c-0.45,1.92-0.54,2.32-0.46,59.43c-0.12,7.41,5.58,13.54,13.23,14.08
	c0.91,0.06,3.49,0.1,28.91,0.31c0.02,0,0.04,0,0.06,0c-0.02,28.87-0.01,28.96,0.08,29.83c0.59,5.45,4.72,11.34,12.65,12.22
	c0.57,0.06,1.12,0.12,17.08,0.27l16.57,0.14c6.73,0.05,14.83,0.11,24.6,0.18c0.03,0,0.06,0,0.09,0c0.23,0,0.45-0.01,0.68-0.02
	c7.13-0.37,12.75-5.67,13.35-12.59c0.06-0.68,0.1-1.15,0.07-30.32c10.62,0.04,24.63,0.13,27.36,0.14c0.27,0.02,0.56,0.02,0.86,0.02
	c3.89,0,7.47-1.48,10.1-4.16c2.57-2.62,3.95-6.1,3.9-9.79C169.6,111.02,169.61,78.52,169.63,57.01z M156.61,112.97
	c0.01,0.66-0.61,0.77-1,0.77c-0.18,0-0.31-0.02-0.31-0.02s-26.15-0.17-36.39-0.17c-2.36,0-3.88,0.01-4.03,0.03
	c-0.61,0.09-0.51,1.31-0.51,1.31s0.06,40.19,0,40.87c-0.06,0.68-1.08,0.74-1.08,0.74s-11.87-0.08-24.77-0.19l-10.37-0.08
	c-11.43-0.1-21.34-0.19-21.76-0.24c-1.02-0.11-1.13-0.45-1.16-0.7c-0.03-0.25,0-40.03,0-40.66c0-0.62-0.49-0.64-1.29-0.67
	s-38.49-0.3-39.78-0.39c-1.19-0.08-1.14-0.95-1.14-0.95S12.95,56.85,13.15,56c0.02-0.07,0.1-0.24,0.47-0.29
	c1.55-0.22,6.02-0.29,11.47-0.29c11.97,0,28.64,0.37,29.37,0.47c0.04,0.01,0.08,0.01,0.12,0.01c0.99,0,0.66-1.87,0.66-1.87
	s-0.35-39.49-0.03-40.29c0.25-0.61,0.82-0.68,1.07-0.68c0.07,0,0.12,0.01,0.12,0.01S81.37,13,98.3,13c8.46,0,14.91,0.01,15.22,0.05
	c0.91,0.11,0.85,1.14,0.85,1.14s-0.51,39.15-0.51,40.06c0,0.73,0.87,0.8,1.22,0.8c0.09,0,0.14,0,0.14,0s38.96,0.64,40.27,0.75
	c1.14,0.09,1.14,1.21,1.14,1.21S156.59,111.93,156.61,112.97z"/>
</svg>
