<?xml version="1.0" encoding="utf-8"?>
<!-- Generator: Adobe Illustrator 23.0.6, SVG Export Plug-In . SVG Version: 6.00 Build 0)  -->
<svg version="1.1" id="Vrstva_10" xmlns="http://www.w3.org/2000/svg" xmlns:xlink="http://www.w3.org/1999/xlink" x="0px" y="0px"
	 viewBox="0 0 38.5 38.4" style="enable-background:new 0 0 38.5 38.4;" xml:space="preserve">
<style type="text/css">
	.st0{fill:#62B594;}
	.st1{fill:#4C331B;}
</style>
<g>
	<path class="st0" d="M16.7,37.4c-3.3,0-3.4,0-3.6-0.1c-2.2-0.2-3.3-1.9-3.5-3.4c0-0.2,0-0.3,0-5.2c-4.5,0-4.7,0-4.9-0.1
		c-2.1-0.1-3.6-1.8-3.6-3.9c0-11.7,0-11.7,0.1-12.2c0.3-1.5,1.6-2.6,3.1-2.8c0.4-0.1,1-0.1,2.8-0.1c0.5,0,1.5,0,2.4,0
		c0-5.4,0-5.5,0.3-6.2c0.6-1.5,2-2.4,3.6-2.4c0.7,0,5.3,0,8.5,0c3.2,0,3.2,0,3.5,0c2,0.2,3.4,1.9,3.4,3.9l-0.1,4.6
		c4.8,0.1,4.9,0.1,5.1,0.1c2,0.2,3.6,1.8,3.6,3.9c0,4.4,0,10.9,0,11.3c0,1-0.4,2-1.1,2.7c-0.7,0.7-1.7,1.1-2.8,1.1
		c-0.1,0-0.2,0-0.3,0l-4.5,0c0,5,0,5,0,5.2c-0.2,1.9-1.7,3.4-3.6,3.5l-0.2,0L16.7,37.4z M24.2,32.8c0-1.5,0-5,0-7.4
		c-0.1-0.6,0.3-1.2,1-1.3c0.1,0,0.4,0,1,0c1.6,0,5.1,0,6.6,0c0-2.1,0-7.6,0-9.7c-1.5,0-4.9-0.1-7.4-0.1c-0.7,0-1.3-0.5-1.3-1.2
		c0-0.1,0.1-5.4,0.1-7.4c-0.5,0-1.3,0-2.2,0c-2.6,0-6.2,0-7.8,0c0,1.5,0,4.9,0,7.2c0,0.3,0,0.7-0.3,1.1c-0.2,0.3-0.5,0.4-0.9,0.4H13
		l-0.1,0c-0.4,0-3.5-0.1-5.8-0.1c-0.6,0-1.1,0-1.4,0c0,1.8,0,6.3,0,9.8c1.2,0,7.3,0.1,7.3,0.1c1.2,0,1.2,1,1.2,1.1c0,0,0,6.4,0,7.4
		C15.2,32.7,24.2,32.8,24.2,32.8z"/>
	<path class="st1" d="M22,2.1c3.2,0,3.2,0,3.4,0c1.4,0.2,2.5,1.4,2.5,2.9c0,1.7-0.1,3.9-0.1,5.6c5.7,0.1,5.9,0.1,6,0.1
		c1.5,0.1,2.7,1.4,2.6,2.9c0,4.4,0,10.9,0,11.3c0,0.7-0.3,1.5-0.8,2c-0.5,0.5-1.3,0.8-2,0.8c-0.1,0-0.1,0-0.2,0c-0.6,0-3.4,0-5.5,0
		c0,5.9,0,6,0,6.1c-0.1,1.4-1.3,2.5-2.7,2.5c0,0-0.1,0-0.1,0c0,0,0,0,0,0c-2,0-3.6,0-5,0l-3.4,0c-3.2,0-3.3,0-3.5-0.1
		c-1.6-0.2-2.4-1.4-2.6-2.5c0-0.2,0-0.2,0-6c0,0,0,0,0,0c-5.1,0-5.7-0.1-5.9-0.1c-1.5-0.1-2.7-1.4-2.7-2.9c0-11.6,0-11.6,0.1-12
		c0.3-1.1,1.2-1.9,2.3-2.1c0.3,0,0.9-0.1,2.7-0.1c0.7,0,2.1,0,3.5,0c-0.1-6.2,0-6.3,0.2-6.8c0.4-1.1,1.5-1.8,2.7-1.8
		c0,0,0.1,0,0.1,0C14.1,2.1,18.8,2.1,22,2.1 M13.5,4.7C13.5,4.7,13.5,4.7,13.5,4.7c-0.1,0-0.2,0-0.2,0.1c-0.1,0.2,0,8.2,0,8.2
		s0.1,0.4-0.1,0.4c0,0,0,0,0,0c-0.1,0-3.5-0.1-5.9-0.1c-1.1,0-2,0-2.3,0.1c-0.1,0-0.1,0-0.1,0.1c0,0.2,0,11.5,0,11.5s0,0.2,0.2,0.2
		c0.3,0,7.9,0.1,8.1,0.1c0.2,0,0.3,0,0.3,0.1c0,0.1,0,8.2,0,8.2c0,0.1,0,0.1,0.2,0.1c0.1,0,2.1,0,4.4,0l2.1,0c2.6,0,5,0,5,0
		s0.2,0,0.2-0.1c0-0.1,0-8.3,0-8.3s0-0.2,0.1-0.3c0,0,0.3,0,0.8,0c2.1,0,7.4,0,7.4,0s0,0,0.1,0c0.1,0,0.2,0,0.2-0.2
		c0-0.2,0-11.3,0-11.3s0-0.2-0.2-0.2c-0.3,0-8.2-0.2-8.2-0.2s0,0,0,0c-0.1,0-0.2,0-0.2-0.2c0-0.2,0.1-8.1,0.1-8.1s0-0.2-0.2-0.2
		c-0.1,0-1.4,0-3.1,0C18.6,4.7,13.5,4.7,13.5,4.7 M22,0.1c-3.2,0-7.8,0-8.4,0l-0.1,0c-2,0-3.8,1.2-4.5,3C8.6,4,8.6,4.3,8.6,8.7
		c-0.6,0-1.1,0-1.4,0c-1.9,0-2.5,0-3,0.1c-2,0.3-3.5,1.7-4,3.6C0.1,13,0.1,13.1,0.1,24.9c0,2.5,2,4.7,4.5,4.8c0.2,0,0.3,0,4,0.1
		c0,4,0,4,0,4.3c0.2,2.3,2,4,4.3,4.3c0.2,0,0.3,0,3.7,0.1l3.4,0l5,0c0,0,0,0,0,0c0.1,0,0.2,0,0.2,0c2.5-0.1,4.4-2,4.6-4.4
		c0-0.2,0-0.3,0-4.3c0.8,0,1.6,0,2.3,0l1.2,0c0.1,0,0.2,0,0.2,0c1.3,0,2.6-0.5,3.5-1.4c0.9-0.9,1.4-2.1,1.4-3.4c0-0.3,0-6.8,0-11.3
		c0-2.6-1.9-4.7-4.5-4.9c-0.1,0-0.3,0-4.1-0.1l0-3l0-0.7c0.1-2.5-1.8-4.6-4.2-4.9C25.3,0.1,25.3,0.1,22,0.1L22,0.1z M15.2,6.7
		c1.8,0,4.6,0,6.8,0c0.5,0,0.9,0,1.2,0c0,2.4-0.1,6.2-0.1,6.4c0,1.2,1,2.2,2.2,2.2c1.9,0,4.7,0.1,6.4,0.1c0,2.3,0,5.7,0,7.8
		c-1.7,0-4.3,0-5.6,0c-0.9,0-0.9,0-1.1,0c-1.1,0.2-1.9,1.1-1.8,2.3c0,2,0,4.6,0,6.4c-0.9,0-2,0-3.2,0l-2.1,0c-0.8,0-1.8,0-2.7,0
		c0-1.2,0-3,0-6.1l0-0.3c0-1-0.7-2.1-2.2-2.1c-0.1,0-0.3,0-2.4,0c-1.2,0-2.8,0-4,0c0-2.7,0-5.9,0-7.8c0.1,0,0.3,0,0.4,0
		c2.2,0,5.3,0.1,5.8,0.1c0.1,0,0.1,0,0.2,0c0.6,0,1.2-0.3,1.6-0.8c0.5-0.6,0.5-1.3,0.5-1.7C15.2,10.7,15.2,8.3,15.2,6.7L15.2,6.7z"
		/>
</g>
</svg>
