<?xml version="1.0" encoding="utf-8"?>
<!-- Generator: Adobe Illustrator 23.1.0, SVG Export Plug-In . SVG Version: 6.00 Build 0)  -->
<svg version="1.1" id="Vrstva_10" xmlns="http://www.w3.org/2000/svg" xmlns:xlink="http://www.w3.org/1999/xlink" x="0px" y="0px"
	 viewBox="0 0 133.023 109.271" enable-background="new 0 0 133.023 109.271" xml:space="preserve">
<g>
	<path fill="#E31317" d="M91.409,23.741c-0.39,0.332-1.592,0.222-2.051,0.441c-0.763,0.363-0.844,0.955-1.71,0.955
		c-1.449,0-2.843-0.514-3.926-1.449c-0.492-0.425-0.897-0.913-1.268-1.429c-11.832-1.832-23.857-3.253-36.174-4.449
		c-0.905,0.454-1.844,0.84-2.889,0.954c-0.177,0.019-0.356,0.028-0.536,0.028c-1.458,0-2.731-0.602-3.502-1.629
		c-10.453-0.941-21.125-1.752-32.08-2.537c-1.798,2.157-4.729,6.032-6.005,8.118c1.508,0.353,2.151,1.164,3.682,1.437
		c3.576,0.518,8.01,0.662,11.591,1.194l5.864,1.364c27.541,3.569,51.14,6.751,78.545,12.136c7.056,1.251,13.944,1.873,20.966,3.17
		c0.923-3.305,2.153-7.677,3.443-10.827C114.139,28.174,102.851,25.742,91.409,23.741z"/>
	<path fill="#E31317" d="M42.632,7.723c0.256-0.341,1.307-1.255,1.575-1.574c-7.682-0.845-16.219-1.207-23.85-2.501
		c-1.051,0.872-2.638,2.28-3.758,3.45c7.837,1.11,16.605,1.472,24.412,3.162C41.598,9.085,41.854,8.758,42.632,7.723z"/>
	<path fill="#E31317" d="M65.312,12.669c-0.599,0-2.037,0.503-2.638,0.568c3.523,0.788,7.481,1.011,10.636,1.657
		C70.91,13.443,68.267,12.669,65.312,12.669z"/>
	<path fill="#E31317" d="M129.682,24.182c0.541-0.89,1.211-3.209,1.786-4.081c0.222-0.338,0.333-0.557,0.331-0.65
		c-0.013-0.004-0.13-0.128-0.72-0.324c-15.099-5.02-30.878-7.792-46.766-9.606c1.064,1.022,2.045,2.029,2.933,2.974
		c1.193,1.27,2.316,2.623,3.058,4.098c0.375,0.038,1.092,1.137,1.466,1.174C104.469,19.061,117.147,20.779,129.682,24.182z"/>
	<path fill="#4C331B" d="M17.686,24.722c27.302,3.833,54.733,8.064,81.955,12.625c-27.052-5.023-54.403-9.251-81.589-12.58
		L17.686,24.722z"/>
	<path fill="#A02824" d="M128.495,23.525c-12.159-3.871-24.935-4.21-37.304-5.736c-0.052-0.006-0.106-0.013-0.159-0.02
		c0.084,0.576,0.138,1.162,0.117,1.771c-0.042,1.25-0.367,2.463-0.886,3.544c11.742,2.354,23.558,4.617,35.095,8.135L128.495,23.525
		z"/>
	<path fill="#A02824" d="M78.429,18.128c-0.25-0.342-0.532-0.653-0.807-0.971c-5.388-0.916-10.707-1.984-16.946-3.255l-1.631-0.333
		c-0.792-0.161-1.591-0.323-2.386-0.485c-3.226,1.181-6.329,2.873-9.314,4.702c11.463,1.37,22.704,2.975,33.785,4.96
		C80.275,21.085,79.443,19.512,78.429,18.128z"/>
	<path fill="#A02824" d="M40.033,11.114c-7.791-1.347-15.632-2.552-23.434-3.428C15.823,7.6,14.987,7.543,14.41,7.718
		c-0.675,0.204-1.306,0.712-2.046,1.411c-1.828,1.726-3.473,3.697-4.907,5.876c10.705,0.858,21.153,1.746,31.403,2.764
		c-0.035-0.366-0.056-0.747-0.048-1.162C38.852,14.769,39.277,12.898,40.033,11.114z"/>
	<path fill="#E31317" d="M2.052,23.513c0.682,8.07,0.709,18.63,1.125,27.636c0.677,14.642,1.448,28.384,3.068,36.818
		c0.088,0.462,1.836,2.24,2.045,2.455c0.255,0.262,1.612,0.444,2.045,0.511l111.175,16.875c0.047-1.025,0.363-3.112,0.405-4.091
		c-0.507-11.081-0.846-34.207-0.576-49.054c0.1-5.45,0.583-10.879,0.576-12.616C82.807,35.207,41.391,28.844,2.052,23.513z"/>
	<polygon fill="#62B594" points="56.495,49.308 66.511,50.74 67.336,62.19 77.232,63.149 78.177,69.286 75.722,73.786 
		69.177,72.286 65.326,73.786 65.312,79.186 63.324,81.967 55.935,80.195 53.631,77.774 55.131,72.967 53.631,70.649 46.063,70.854 
		44.086,66.354 45.599,60.405 50.631,60.695 53.768,60.695 54.313,54.635 	"/>
	<path fill="#B7313A" d="M50.945,3.908c-2.533,1.274-5.774,2.148-7.908,4.286c-2.222,2.224-3.459,4.634-3.519,7.295
		c-0.017,0.75,0.596,2.249,0.809,2.643c0.471,0.869,1.535,1.099,2.333,1.003c1.059-0.119,2.075-0.691,3.152-1.295
		c5.074-2.848,10.127-4.734,16.095-5.487c0.907-0.115,2.494-0.409,3.404-0.409c5.635,0,10.418,1.492,13.618,5.331
		c1.13,1.353,2.028,2.887,2.897,4.371l0.473,0.803c0.502,0.847,1.005,1.654,1.642,2.226c1.121,1.008,2.921,1.27,4.247,0.615
		c1.353-0.669,2.882-3.398,2.942-5.027c0.086-2.325-1.4-4.421-3.068-6.408C83.734,8.7,76.421,2.759,68.061,1.494
		c-1.141-0.173-2.4-0.254-3.966-0.254c-0.865,0-1.732,0.024-2.597,0.047c-1.75,0.046-3.56,0.093-5.261,0.493
		C54.403,2.211,52.617,3.068,50.945,3.908z"/>
	<path fill="#A02824" d="M123.382,35.082c-0.458,0.979-0.922,2.024-1.156,3.094c-0.257,1.172-0.243,2.445-0.231,3.569
		c0.018,1.717-0.078,6.24-0.213,12.499c-0.352,16.425-0.918,42.707-0.155,53.565l6.686-9.653c0.574-0.829,1.167-1.686,1.409-2.563
		c0.084-0.655,0.302-10.25,0.555-21.361c0.411-18.044,0.955-41.944,1.522-52.948C128.463,25.63,125.639,30.258,123.382,35.082z"/>
	<path fill="#4C331B" d="M132.362,19.083c-0.05-0.018-0.102-0.019-0.154-0.028c-0.337-1.073-1.452-1.456-1.934-1.619
		c-15.048-5.089-30.768-7.752-46.547-9.468c-4.132-3.573-9.323-6.883-15.393-7.717C67.1,0.08,65.754,0,64.096,0
		c-0.882,0-1.765,0.021-2.646,0.043c-1.841,0.045-3.745,0.091-5.629,0.492c-2.032,0.434-3.934,1.261-5.708,2.071
		c-1.429,0.653-2.972,1.393-4.466,2.286c-8.189-0.599-16.49-1.276-24.626-2.222c-0.073-0.009-0.146-0.008-0.218-0.002
		c-0.191-0.017-0.399,0.018-0.585,0.12c-1.873,1.036-3.875,2.422-5.885,4.024c-0.927,0.296-1.719,0.846-2.432,1.417
		c-2.339,1.871-4.379,4.08-6.063,6.563c-0.055,0.081-0.094,0.169-0.123,0.259c-2.21,2.509-4.153,5.087-5.577,7.501
		c-0.161,0.272-0.183,0.605-0.06,0.897c0.12,0.282,0.364,0.487,0.659,0.568c0.721,8.222,1.167,17.83,1.596,27.133
		c0.681,14.715,1.323,28.614,2.97,37.189c0.143,0.74,0.33,1.515,0.925,2.126c0.72,0.74,1.735,0.898,2.408,1.004l112.668,17.513
		c0.135,0.132,0.305,0.229,0.499,0.267c0.065,0.014,0.13,0.02,0.194,0.02c0.35,0,0.681-0.184,0.862-0.494l6.917-11.791
		c0.509-0.867,1.086-1.85,1.348-2.972c0.093-0.395,0.166-3.468,0.496-20.548c0.373-19.347,0.884-45.842,1.399-53.374
		C133.051,19.646,132.782,19.234,132.362,19.083z M129.634,19.33c0.547,0.185,0.656,0.302,0.668,0.306
		c0.002,0.087-0.102,0.294-0.308,0.613c-0.534,0.823-1.052,1.655-1.554,2.496c-11.636-3.213-23.822-4.479-35.611-5.698
		c-0.347-0.036-0.7-0.073-1.048-0.109c-0.688-1.393-1.731-2.671-2.839-3.87c-0.824-0.892-1.735-1.843-2.723-2.808
		C100.969,11.973,115.617,14.59,129.634,19.33z M92.478,19.021c0.048,0.005,0.098,0.01,0.146,0.015
		c11.396,1.178,23.165,2.395,34.367,5.381l-3.089,5.418c-10.628-2.714-21.315-4.896-32.132-6.713
		c0.478-0.835,0.777-1.771,0.816-2.735C92.605,19.918,92.555,19.466,92.478,19.021z M50.945,4.425
		c1.672-0.764,3.458-1.543,5.293-1.934c1.701-0.363,3.511-0.406,5.261-0.448C62.363,2.021,63.23,2,64.096,2
		c1.565,0,2.825,0.073,3.966,0.23c8.359,1.149,15.083,7.511,19.412,12.195c1.668,1.806,3.2,3.768,3.114,5.881
		c-0.06,1.48-1.046,2.94-2.398,3.549c-1.326,0.596-3.126,0.357-4.247-0.559c-0.637-0.52-1.14-1.253-1.642-2.022l-0.473-0.729
		c-0.869-1.349-1.768-2.743-2.897-3.973c-3.2-3.488-8.269-5.489-13.903-5.489c-0.91,0-1.831,0.053-2.738,0.157
		c-5.969,0.685-11.402,3.258-16.477,5.846c-1.077,0.549-2.094,1.068-3.152,1.177c-0.798,0.088-1.862-0.121-2.333-0.911
		c-0.213-0.357-0.309-0.864-0.292-1.546c0.061-2.419,1.369-4.966,3.591-6.987C45.761,6.875,48.412,5.583,50.945,4.425z
		 M59.779,14.608l1.487,0.242c5.69,0.925,10.542,1.702,15.456,2.368c0.25,0.232,0.507,0.457,0.736,0.706
		c0.925,1.007,1.684,2.151,2.465,3.358c-10.107-1.443-20.359-2.611-30.814-3.607c2.722-1.33,5.553-2.561,8.495-3.42
		C58.328,14.373,59.057,14.491,59.779,14.608z M63.324,13.158c0.568-0.044,1.138-0.075,1.704-0.075c2.792,0,5.406,0.551,7.674,1.543
		C69.719,14.185,66.653,13.697,63.324,13.158z M20.944,4.674c7.309,0.847,14.734,1.47,22.093,2.023
		C42.78,6.905,42.525,7.117,42.28,7.34c-0.744,0.677-1.391,1.414-1.953,2.183c-7.478-1.106-15.009-2.098-22.516-2.824
		C18.884,5.933,19.937,5.244,20.944,4.674z M13.152,9.79c0.696-0.558,1.29-0.963,1.925-1.126c0.543-0.14,1.329-0.094,2.06-0.025
		c7.34,0.699,14.717,1.66,22.047,2.735c-0.711,1.423-1.112,2.915-1.148,4.382c-0.008,0.331,0.012,0.635,0.045,0.927
		c-9.643-0.812-19.472-1.521-29.544-2.205C9.885,12.739,11.432,11.167,13.152,9.79z M7.212,16.394
		c10.814,0.732,21.348,1.488,31.666,2.366c0.762,0.958,2.018,1.519,3.457,1.519c0.178,0,0.354-0.009,0.529-0.026
		c1.031-0.106,1.959-0.467,2.852-0.89c12.158,1.116,24.029,2.441,35.708,4.15c0.366,0.482,0.766,0.936,1.252,1.333
		c1.068,0.872,2.444,1.352,3.875,1.352c0.855,0,1.705-0.179,2.458-0.518c0.453-0.204,0.869-0.474,1.254-0.784
		c11.295,1.866,22.436,4.134,33.512,6.975c-1.273,2.939-2.374,5.953-3.285,9.036c-6.931-1.21-13.884-2.394-20.85-3.561
		c-27.222-4.561-54.654-8.792-81.955-12.625c-3.535-0.496-7.064-0.979-10.594-1.462c-1.511-0.255-3.018-0.53-4.507-0.859
		C3.844,20.454,5.437,18.405,7.212,16.394z M120.521,106.838L8.944,89.494c-0.434-0.067-1.027-0.16-1.282-0.422
		c-0.209-0.215-0.306-0.646-0.394-1.108c-1.62-8.435-2.26-22.264-2.937-36.905c-0.416-9.006-0.846-18.303-1.527-26.373
		c39.34,5.331,79.098,11.5,118.206,18.34c0.007,1.737-0.071,6.078-0.171,11.527c-0.269,14.847-0.694,38.206-0.187,49.287
		C120.611,104.819,120.568,105.813,120.521,106.838z M129.621,73.427c-0.202,10.472-0.376,19.515-0.443,20.132
		c-0.193,0.826-0.667,1.634-1.125,2.415l-5.337,9.098c-0.608-10.233-0.157-35.003,0.124-50.482
		c0.107-5.898,0.185-10.161,0.17-11.779c-0.01-1.059-0.021-2.259,0.185-3.363c0.187-1.009,0.558-1.993,0.923-2.916
		c1.802-4.547,4.056-8.908,6.719-13.005C130.384,33.896,129.949,56.421,129.621,73.427z"/>
	<path fill="#4C331B" d="M75.536,61.482c-0.77-0.128-1.584-0.186-2.642-0.186c-0.45,0-0.901,0.01-1.352,0.021
		c-0.437,0.01-0.872,0.02-1.308,0.02c-0.833,0-1.497-0.039-2.089-0.124c-0.121-0.017-0.2-0.034-0.251-0.048
		c-0.002-0.071,0-0.159,0.002-0.206l0.224-8.313c0.017-0.64,0.046-1.71-0.641-2.52c-0.677-0.797-1.719-0.951-2.341-1.043
		l-4.82-0.714c-0.636-0.095-1.319-0.182-2.003-0.182c-1.251,0-2.237,0.299-3.014,0.913c-1.755,1.387-1.764,3.902-1.769,5.254
		l-0.021,5.55c-1.552,0.253-3.149,0.199-4.726-0.185c-0.649-0.157-1.386-0.336-2.12-0.336c-0.97,0-1.729,0.32-2.255,0.952
		c-0.454,0.544-0.608,1.202-0.707,1.83c-0.27,1.685-0.348,3.404-0.233,5.112c0.081,1.203,0.314,2.718,1.408,3.746
		c0.772,0.729,1.803,1.082,3.148,1.082c0.781,0,1.582-0.117,2.288-0.221l0.193-0.028c0.354-0.051,0.704-0.077,1.038-0.077
		c0.71,0,1.954,0.124,2.304,0.955c0.253,0.601-0.023,1.418-0.316,2.284c-0.073,0.219-0.146,0.436-0.212,0.649
		c-0.54,1.767-0.516,4.286,1.331,5.578c0.738,0.517,1.565,0.687,2.42,0.828c1.508,0.25,3.046,0.455,4.573,0.609
		c0.308,0.03,0.621,0.058,0.932,0.058c0.554,0,1.028-0.086,1.449-0.262c1.472-0.612,2.298-2.324,2.208-4.578
		c-0.01-0.244-0.025-0.492-0.041-0.74c-0.067-1.079-0.132-2.099,0.307-2.838c0.403-0.68,1.313-1.134,2.409-1.156
		c1.094,0,2.201,0.438,3.043,0.819l0.177,0.08c0.86,0.393,1.876,0.845,2.982,0.699c1.181-0.154,2.27-0.982,2.914-2.218
		c0.517-0.992,0.693-2.078,0.85-3.035c0.195-1.198,0.397-2.438,0.346-3.728c-0.058-1.463-0.495-2.57-1.301-3.294
		C77.169,61.816,76.198,61.592,75.536,61.482z M76.255,71.625c-0.265,0.507-0.771,1.077-1.4,1.16
		c-0.576,0.073-1.205-0.223-1.892-0.536l-0.183-0.083c-0.364-0.165-0.783-0.331-1.223-0.486c-0.272-0.057-0.525-0.144-0.762-0.236
		c-0.594-0.159-1.225-0.274-1.884-0.274l-0.137,0.001c-1.704,0.038-3.234,0.856-3.993,2.136c-0.752,1.27-0.661,2.711-0.582,3.982
		c0.015,0.233,0.03,0.466,0.039,0.695c0.042,1.067-0.192,2.324-0.98,2.652c-0.322,0.137-0.885,0.113-1.411,0.06
		c-1.483-0.149-2.979-0.349-4.446-0.592c-0.641-0.106-1.204-0.217-1.6-0.494c-0.9-0.63-0.925-2.18-0.565-3.354
		c0.061-0.196,0.128-0.396,0.195-0.596c0.38-1.125,0.811-2.4,0.265-3.699c-0.591-1.405-2.064-2.18-4.147-2.18
		c-0.43,0-0.876,0.033-1.325,0.099l-0.195,0.028c-0.671,0.098-1.364,0.199-1.999,0.199c-0.823,0-1.388-0.171-1.777-0.538
		c-0.587-0.552-0.727-1.586-0.783-2.425c-0.104-1.557-0.033-3.126,0.213-4.665c0.051-0.322,0.117-0.682,0.268-0.861
		c0.058-0.07,0.194-0.233,0.719-0.233c0.495,0,1.108,0.148,1.681,0.287c0.521,0.126,1.051,0.221,1.585,0.286
		c0.259-0.036,0.53-0.058,0.82-0.058c0.507,0,1.012,0.057,1.497,0.12c0.838-0.039,1.674-0.13,2.486-0.318
		c0.451-0.104,0.771-0.506,0.773-0.97l0.023-6.368c0.005-1.405,0.088-2.965,1.009-3.693c0.416-0.328,0.979-0.481,1.773-0.481
		c0.554,0,1.149,0.077,1.71,0.16l4.82,0.714c0.344,0.051,0.919,0.136,1.108,0.359c0.192,0.226,0.176,0.816,0.166,1.171l-0.224,8.312
		c-0.009,0.335-0.024,0.896,0.315,1.406c0.478,0.714,1.328,0.836,1.65,0.883c0.688,0.098,1.442,0.144,2.372,0.144
		c0.45,0,0.901-0.01,1.353-0.021c0.436-0.01,0.871-0.02,1.307-0.02c0.943,0,1.656,0.049,2.313,0.158
		c0.663,0.11,1.102,0.277,1.379,0.526c0.483,0.435,0.614,1.264,0.639,1.885c0.043,1.088-0.143,2.227-0.322,3.327
		C76.765,70.042,76.623,70.919,76.255,71.625z"/>
	<path fill="#4C331B" d="M55.033,8.117c-4.282,0.82-7.927,2.669-10.542,5.347c-0.386,0.395-0.378,1.027,0.018,1.414
		c0.396,0.386,1.027,0.379,1.414-0.018c2.94-3.011,6.782-4.261,9.487-4.778c3.12-0.6,6.628-0.635,11.044-0.11
		c2.834,0.337,6.118,0.887,8.991,2.418c3.626,1.932,6.311,5.344,8.015,7.742c0.195,0.274,0.503,0.421,0.816,0.421
		c0.2,0,0.402-0.06,0.578-0.185c0.45-0.32,0.556-0.944,0.236-1.395c-1.821-2.563-4.705-6.219-8.705-8.35
		c-3.165-1.687-6.677-2.28-9.695-2.639C62.063,7.438,58.361,7.479,55.033,8.117z"/>
	<path fill="#FDFDFD" d="M73.514,68.56c0.084-1.396,0.2-2.977-0.041-3.097c-0.178-0.089-0.502-0.094-0.788-0.099l-5.43-0.097
		c-0.746-0.014-1.769-0.031-2.629-0.629c-1.785-1.237-1.684-2.875-1.449-4.353c0.32-2.02,0.056-4.928-1.568-5.802
		c-0.374-0.201-2.199-0.597-2.39-0.446c-0.311,0.246-0.293,1.077-0.281,1.627c0.045,2.016-0.156,4.036-0.599,6.003
		c-0.077,0.352-0.224,1.011-0.753,1.482c-0.571,0.508-0.868,0.253-1.227,0.273c-1.247,0.072-2.51,0.02-3.745-0.151l-0.268-0.037
		c-0.586-0.083-1.192-0.168-1.742-0.168c-0.717,0-1.696,0.18-2.024,0.493c-0.56,0.532-0.659,2.393-0.675,3.341
		c-0.002,0.105,0.645,1.223,0.675,1.295c-0.002-0.007,0.097,0.069,0.614,0.088c0.501,0.017,1.003,0.012,1.504,0.004
		c0.274-0.004,0.549-0.008,0.822-0.008c0.955,0,2.079,0.043,3.174,0.357c2.053,0.588,2.911,1.566,2.619,3.922
		c-0.075,0.608,0.062,1.815-0.136,2.302c-0.229,0.56-0.425,1.042-0.346,1.433c0.072,0.354,0.392,0.676,0.646,0.883
		c0.763,0.616,3.511,0.792,4.1,0.36c0.714-0.523,0.762-1.726,0.813-2.999c0.066-1.64-0.714-3.1,0.855-4.16
		c0.849-0.572,1.836-0.649,2.69-0.649l0.427,0.005c1.463,0.027,3.122,0.059,4.673,0.659l0.271,0.109
		c0.286,0.116,1.322-0.192,1.518-0.192C73.204,70.241,73.454,69.541,73.514,68.56z"/>
	<path fill="#4C331B" d="M72.568,71.705c0.933-0.183,2.078-0.952,2.236-3.585c0.045-0.744,0.182-3.007-1.529-3.862
		c-0.585-0.292-1.199-0.302-1.647-0.31l-5.429-0.097c-0.636-0.011-1.188-0.039-1.524-0.272c-0.694-0.481-0.548-1.805-0.321-3.234
		c0.555-3.494-0.405-6.275-2.566-7.439c-1.075-0.579-2.381-0.553-3.207,0.1c-1.09,0.863-1.06,2.293-1.04,3.239
		c0.041,1.854-0.144,3.712-0.551,5.524c-0.053,0.239-0.099,0.383-0.123,0.417c-0.031,0.02-0.134,0.055-0.47,0.074
		c-1.121,0.061-2.253,0.016-3.359-0.136l-0.262-0.037c-0.166-0.023-0.349-0.044-0.524-0.067c-0.485-0.063-0.99-0.12-1.497-0.12
		c-0.29,0-0.561,0.022-0.82,0.058c-0.853,0.119-1.544,0.43-2.091,0.952c-1.212,1.153-1.244,2.973-1.262,3.95
		c-0.006,0.362-0.017,0.97,0.324,1.513c0.61,0.977,1.84,1.02,2.242,1.033c0.532,0.021,1.068,0.014,1.602,0.006
		c1.126-0.017,2.3-0.05,3.418,0.271c1.247,0.357,2.501,1.481,2.354,2.674c-0.043,0.345-0.2,0.73-0.366,1.139
		c-0.307,0.751-0.654,1.603-0.454,2.586c0.152,0.75,0.604,1.436,1.348,2.038c0.837,0.678,1.892,1.066,2.895,1.066
		c0.746,0,1.437-0.218,1.999-0.63c1.49-1.094,1.563-2.921,1.628-4.532c0.062-1.547,0.148-2.519,0.829-2.979
		c0.401-0.271,0.992-0.308,1.572-0.308l0.39,0.005c1.36,0.025,2.768,0.052,3.988,0.524l0.237,0.096
		c0.066,0.027,0.14,0.054,0.21,0.081c0.237,0.093,0.49,0.179,0.762,0.236C71.876,71.747,72.215,71.773,72.568,71.705z M71.07,69.401
		c-1.551-0.601-3.21-0.632-4.673-0.659l-0.427-0.005c-0.854,0-1.842,0.077-2.69,0.649c-1.569,1.06-1.644,2.917-1.71,4.557
		c-0.051,1.273-0.099,2.476-0.813,2.999c-0.589,0.433-1.688,0.239-2.451-0.377c-0.255-0.207-0.574-0.528-0.646-0.883
		c-0.079-0.391,0.117-0.873,0.346-1.433c0.198-0.487,0.424-1.039,0.499-1.647c0.292-2.356-1.733-4.254-3.786-4.842
		c-1.095-0.314-2.219-0.357-3.174-0.357c-0.273,0-0.548,0.004-0.822,0.008c-0.501,0.008-1.003,0.013-1.504-0.004
		c-0.518-0.019-0.616-0.095-0.614-0.088c-0.03-0.072-0.025-0.319-0.023-0.425c0.017-0.948,0.081-2.005,0.641-2.537
		c0.328-0.313,0.815-0.458,1.532-0.458c0.55,0,1.156,0.085,1.742,0.168l0.268,0.037c1.235,0.171,2.498,0.224,3.745,0.151
		c0.359-0.02,1.108-0.063,1.68-0.57c0.529-0.472,0.676-1.131,0.753-1.482c0.442-1.967,0.644-3.987,0.599-6.003
		c-0.012-0.55-0.029-1.381,0.281-1.627c0.191-0.15,0.644-0.107,1.018,0.094c1.624,0.874,1.86,3.345,1.54,5.364
		c-0.235,1.479-0.629,3.954,1.156,5.191c0.86,0.598,1.883,0.615,2.629,0.629l5.43,0.097c0.286,0.005,0.61,0.01,0.788,0.099
		c0.241,0.12,0.511,0.558,0.427,1.953c-0.06,0.98-0.31,1.681-0.689,1.748c-0.195,0-0.491-0.121-0.777-0.237L71.07,69.401z"/>
</g>
</svg>
