<?xml version="1.0" encoding="utf-8"?>
<!-- Generator: Adobe Illustrator 23.0.3, SVG Export Plug-In . SVG Version: 6.00 Build 0)  -->
<svg version="1.1" id="Vrstva_10" xmlns="http://www.w3.org/2000/svg" xmlns:xlink="http://www.w3.org/1999/xlink" x="0px" y="0px"
	 viewBox="0 0 133.02 108.98" style="enable-background:new 0 0 133.02 108.98;" xml:space="preserve">
<style type="text/css">
	.st0{fill:#E31317;}
	.st1{fill:#4C331B;}
	.st2{fill:#A02824;}
	.st3{fill:#B7313A;}
	.st4{fill:#62B594;}
	.st5{fill:#FDFDFD;}
</style>
<g>
	<path class="st0" d="M90.26,24.9c-0.39,0.31-0.8,0.58-1.25,0.78c-0.75,0.34-1.6,0.52-2.46,0.52c-1.43,0-2.81-0.48-3.88-1.35
		c-0.49-0.4-0.89-0.85-1.25-1.33c-11.68-1.71-23.55-3.03-35.71-4.15c-0.89,0.42-1.82,0.78-2.85,0.89c-0.17,0.02-0.35,0.03-0.53,0.03
		c-1.44,0-2.7-0.56-3.46-1.52c-10.32-0.88-20.85-1.63-31.67-2.37c-1.78,2.01-3.37,4.06-4.63,6.01c1.49,0.33,3,0.6,4.51,0.86
		c3.53,0.48,7.06,0.97,10.59,1.46l0.37,0.04c27.19,3.33,54.54,7.56,81.59,12.58c6.97,1.17,13.92,2.35,20.85,3.56
		c0.91-3.08,2.01-6.1,3.29-9.04C112.7,29.03,101.56,26.76,90.26,24.9z"/>
	<path class="st0" d="M42.28,7.34c0.25-0.22,0.5-0.43,0.76-0.64c-7.36-0.55-14.78-1.18-22.09-2.02c-1.01,0.57-2.06,1.26-3.13,2.02
		c7.51,0.73,15.04,1.72,22.52,2.82C40.89,8.75,41.54,8.02,42.28,7.34z"/>
	<path class="st0" d="M65.03,13.08c-0.57,0-1.14,0.03-1.7,0.07c3.33,0.54,6.4,1.03,9.38,1.47C70.43,13.63,67.82,13.08,65.03,13.08z"
		/>
	<path class="st0" d="M128.44,22.74c0.5-0.84,1.02-1.67,1.55-2.5c0.21-0.32,0.31-0.53,0.31-0.61c-0.01,0-0.12-0.12-0.67-0.31
		c-14.02-4.74-28.66-7.36-43.41-9.07c0.99,0.97,1.9,1.92,2.72,2.81c1.11,1.2,2.15,2.48,2.84,3.87c0.35,0.04,0.7,0.07,1.05,0.11
		C104.62,18.27,116.8,19.53,128.44,22.74z"/>
	<path class="st1" d="M17.33,6.65c0.16,0.02,0.32,0.03,0.48,0.05c1.07-0.77,2.13-1.45,3.13-2.02c7.31,0.85,14.73,1.47,22.09,2.02
		c0.83-0.67,1.71-1.27,2.61-1.81c-8.19-0.6-16.49-1.28-24.63-2.22c-0.07-0.01-0.15-0.01-0.22,0c-0.19-0.02-0.4,0.02-0.58,0.12
		c-1.87,1.04-3.87,2.42-5.88,4.02c0.08-0.03,0.16-0.06,0.25-0.09C15.37,6.52,16.36,6.55,17.33,6.65z"/>
	<path class="st1" d="M1.01,22.8c0.22-0.21,0.52-0.31,0.83-0.27c1.75,0.24,3.51,0.48,5.26,0.72C5.58,23,4.07,22.73,2.58,22.4
		c1.26-1.95,2.85-4,4.63-6.01c-0.21-0.01-0.41-0.03-0.61-0.04c-0.36-0.02-0.67-0.24-0.83-0.56c-0.11-0.23-0.13-0.5-0.05-0.74
		c-2.21,2.51-4.15,5.09-5.58,7.5c-0.16,0.27-0.18,0.61-0.06,0.9c0.12,0.28,0.36,0.49,0.66,0.57c-0.01-0.13-0.02-0.27-0.03-0.4
		C0.68,23.31,0.79,23.01,1.01,22.8z"/>
	<path class="st1" d="M86.22,10.26c14.75,1.71,29.4,4.33,43.41,9.07c0.55,0.18,0.66,0.3,0.67,0.31c0,0.09-0.1,0.29-0.31,0.61
		c-0.53,0.82-1.05,1.66-1.55,2.5c0.11,0.03,0.22,0.05,0.33,0.08c0.04,0.01,0.07,0.04,0.11,0.06c0.75-1.17,1.52-2.32,2.34-3.45
		c0.23-0.32,0.62-0.46,1-0.38c-0.34-1.07-1.45-1.46-1.93-1.62c-15.05-5.09-30.77-7.75-46.55-9.47C84.61,8.73,85.44,9.5,86.22,10.26z
		"/>
	<path class="st1" d="M120.49,40.91c0.18,0.03,0.36,0.06,0.53,0.09c0.03-0.63,0.08-1.27,0.2-1.92c0.22-1.18,0.65-2.32,1.03-3.29
		c0.52-1.31,1.08-2.61,1.67-3.88c-0.05-0.01-0.1-0.02-0.15-0.04C122.5,34.81,121.4,37.82,120.49,40.91z"/>
	<path class="st1" d="M17.69,24.72c27.3,3.83,54.73,8.06,81.96,12.62c-27.05-5.02-54.4-9.25-81.59-12.58L17.69,24.72z"/>
	<path class="st2" d="M126.99,24.42c-11.2-2.99-22.97-4.2-34.37-5.38c-0.05-0.01-0.1-0.01-0.15-0.02c0.08,0.44,0.13,0.9,0.11,1.37
		c-0.04,0.96-0.34,1.9-0.82,2.73c10.82,1.82,21.5,4,32.13,6.71L126.99,24.42z"/>
	<path class="st2" d="M77.46,17.92c-0.23-0.25-0.49-0.47-0.74-0.71c-4.91-0.67-9.77-1.44-15.46-2.37l-1.49-0.24
		c-0.72-0.12-1.45-0.24-2.18-0.35c-2.94,0.86-5.77,2.09-8.49,3.42c10.46,1,20.71,2.16,30.81,3.61
		C79.14,20.08,78.38,18.93,77.46,17.92z"/>
	<path class="st2" d="M39.18,11.37c-7.33-1.07-14.71-2.04-22.05-2.73c-0.73-0.07-1.52-0.11-2.06,0.03
		c-0.63,0.16-1.23,0.57-1.92,1.13c-1.72,1.38-3.27,2.95-4.62,4.69c10.07,0.68,19.9,1.39,29.54,2.21c-0.03-0.29-0.05-0.6-0.04-0.93
		C38.07,14.29,38.47,12.8,39.18,11.37z"/>
	<path class="st1" d="M80.62,22.37l-0.48-0.74c-0.08-0.12-0.15-0.23-0.22-0.35c-10.11-1.44-20.36-2.61-30.81-3.61
		c-0.8,0.39-1.59,0.78-2.37,1.18c-0.34,0.17-0.68,0.34-1.02,0.51c12.16,1.12,24.03,2.44,35.71,4.15
		C81.14,23.14,80.88,22.76,80.62,22.37z"/>
	<path class="st1" d="M5.77,15.79c0.16,0.32,0.47,0.54,0.83,0.56c0.21,0.01,0.41,0.03,0.61,0.04c10.81,0.73,21.35,1.49,31.67,2.37
		c-0.1-0.12-0.19-0.25-0.27-0.38c-0.28-0.48-0.46-1.04-0.53-1.69c-9.64-0.81-19.47-1.52-29.54-2.21c1.35-1.74,2.9-3.31,4.62-4.69
		c0.7-0.56,1.29-0.96,1.92-1.13c0.54-0.14,1.33-0.09,2.06-0.03c7.34,0.7,14.72,1.66,22.05,2.73c0.32-0.63,0.71-1.25,1.14-1.85
		c-7.48-1.11-15.01-2.1-22.52-2.82c-0.16-0.02-0.32-0.03-0.48-0.05c-0.97-0.09-1.96-0.12-2.75,0.08c-0.09,0.02-0.16,0.06-0.25,0.09
		c-0.93,0.3-1.72,0.85-2.43,1.42c-2.34,1.87-4.38,4.08-6.06,6.56c-0.05,0.08-0.09,0.17-0.12,0.26C5.64,15.29,5.65,15.56,5.77,15.79z
		"/>
	<path class="st1" d="M128.44,22.74c-11.64-3.21-23.82-4.48-35.61-5.7c-0.35-0.04-0.7-0.07-1.05-0.11c0.33,0.67,0.57,1.36,0.7,2.08
		c0.05,0.01,0.1,0.01,0.15,0.02c11.4,1.18,23.17,2.39,34.37,5.38l-3.09,5.42c-10.63-2.71-21.31-4.9-32.13-6.71
		c-0.39,0.68-0.9,1.28-1.51,1.77c11.29,1.87,22.44,4.13,33.51,6.98c0.05,0.01,0.1,0.02,0.15,0.04c1.44-3.12,3.09-6.13,4.94-9.02
		c-0.04-0.02-0.07-0.05-0.11-0.06C128.66,22.8,128.55,22.77,128.44,22.74z"/>
	<path class="st1" d="M61.27,14.85c5.69,0.92,10.54,1.7,15.46,2.37c-1.14-1.06-2.5-1.93-4.02-2.59c-2.98-0.44-6.05-0.93-9.38-1.47
		c-0.27,0.02-0.54,0.04-0.81,0.07c-1.67,0.19-3.31,0.56-4.91,1.03c0.72,0.12,1.45,0.24,2.18,0.35L61.27,14.85z"/>
	<path class="st0" d="M2.8,24.69c0.68,8.07,1.11,17.37,1.53,26.37C5.01,65.7,5.65,79.53,7.27,87.96c0.09,0.46,0.18,0.89,0.39,1.11
		c0.25,0.26,0.85,0.35,1.28,0.42l111.58,17.34c0.05-1.02,0.09-2.02,0.13-3c-0.51-11.08-0.08-34.44,0.19-49.29
		c0.1-5.45,0.18-9.79,0.17-11.53C81.9,36.19,42.14,30.02,2.8,24.69z M78.88,69.51c-0.16,0.96-0.33,2.04-0.85,3.04
		c-0.64,1.24-1.73,2.06-2.91,2.22c-1.11,0.15-2.12-0.31-2.98-0.7l-0.18-0.08c-0.84-0.38-1.95-0.82-3.04-0.82
		c-1.1,0.02-2.01,0.48-2.41,1.16c-0.44,0.74-0.37,1.76-0.31,2.84c0.02,0.25,0.03,0.5,0.04,0.74c0.09,2.25-0.74,3.97-2.21,4.58
		c-0.42,0.18-0.9,0.26-1.45,0.26c-0.31,0-0.62-0.03-0.93-0.06c-1.53-0.15-3.07-0.36-4.57-0.61c-0.85-0.14-1.68-0.31-2.42-0.83
		c-1.85-1.29-1.87-3.81-1.33-5.58c0.07-0.21,0.14-0.43,0.21-0.65c0.29-0.87,0.57-1.68,0.32-2.28c-0.35-0.83-1.59-0.96-2.3-0.96
		c-0.33,0-0.68,0.03-1.04,0.08l-0.19,0.03c-0.71,0.1-1.51,0.22-2.29,0.22c-1.35,0-2.38-0.35-3.15-1.08
		c-1.09-1.03-1.33-2.54-1.41-3.75c-0.11-1.71-0.04-3.43,0.23-5.11c0.1-0.63,0.25-1.29,0.71-1.83c0.53-0.63,1.29-0.95,2.25-0.95
		c0.73,0,1.47,0.18,2.12,0.34c1.58,0.38,3.17,0.44,4.73,0.18l0.02-5.55c0-1.35,0.01-3.87,1.77-5.25c0.78-0.61,1.76-0.91,3.01-0.91
		c0.68,0,1.37,0.09,2,0.18l4.82,0.71c0.62,0.09,1.66,0.25,2.34,1.04c0.69,0.81,0.66,1.88,0.64,2.52l-0.22,8.31c0,0.05,0,0.13,0,0.21
		c0.05,0.01,0.13,0.03,0.25,0.05c0.59,0.08,1.26,0.12,2.09,0.12c0.44,0,0.87-0.01,1.31-0.02c0.45-0.01,0.9-0.02,1.35-0.02
		c1.06,0,1.87,0.06,2.64,0.19c0.66,0.11,1.63,0.33,2.39,1.01c0.81,0.72,1.24,1.83,1.3,3.29C79.28,67.08,79.07,68.32,78.88,69.51z"/>
	<path class="st1" d="M121.01,108.41c-0.15-1.07-0.27-2.64-0.35-4.57c-0.04,0.98-0.09,1.97-0.13,3L8.94,89.49
		c-0.43-0.07-1.03-0.16-1.28-0.42c-0.21-0.21-0.31-0.65-0.39-1.11C5.65,79.53,5.01,65.7,4.33,51.06c-0.42-9.01-0.85-18.3-1.53-26.37
		c39.34,5.33,79.1,11.5,118.21,18.34c0-0.07,0-0.14,0-0.2C121,42.25,121,41.63,121.02,41c-0.18-0.03-0.36-0.06-0.53-0.09
		c-6.93-1.21-13.88-2.39-20.85-3.56c-27.22-4.56-54.65-8.79-81.96-12.62c-3.54-0.5-7.06-0.98-10.59-1.46
		c-1.75-0.24-3.51-0.49-5.26-0.72c-0.3-0.04-0.61,0.06-0.83,0.27c-0.22,0.21-0.33,0.51-0.3,0.81c0.01,0.13,0.02,0.27,0.03,0.4
		c0.72,8.22,1.17,17.83,1.6,27.13C3.01,65.87,3.66,79.77,5.3,88.34c0.14,0.74,0.33,1.51,0.92,2.13c0.72,0.74,1.74,0.9,2.41,1
		l112.67,17.51C121.15,108.83,121.04,108.63,121.01,108.41z"/>
	<path class="st3" d="M50.95,4.42c-2.53,1.16-5.18,2.45-7.32,4.39c-2.22,2.02-3.53,4.57-3.59,6.99c-0.02,0.68,0.08,1.19,0.29,1.55
		c0.47,0.79,1.54,1,2.33,0.91c1.06-0.11,2.08-0.63,3.15-1.18c5.07-2.59,10.51-5.16,16.48-5.85c0.91-0.1,1.83-0.16,2.74-0.16
		c5.63,0,10.7,2,13.9,5.49c1.13,1.23,2.03,2.62,2.9,3.97l0.47,0.73c0.5,0.77,1,1.5,1.64,2.02c1.12,0.92,2.92,1.15,4.25,0.56
		c1.35-0.61,2.34-2.07,2.4-3.55c0.09-2.11-1.45-4.08-3.11-5.88C83.14,9.74,76.42,3.38,68.06,2.23C66.92,2.07,65.66,2,64.1,2
		c-0.87,0-1.73,0.02-2.6,0.04c-1.75,0.04-3.56,0.08-5.26,0.45C54.4,2.88,52.62,3.66,50.95,4.42z M76.39,10.62
		c4,2.13,6.88,5.79,8.71,8.35c0.32,0.45,0.21,1.07-0.24,1.39c-0.18,0.13-0.38,0.18-0.58,0.18c-0.31,0-0.62-0.15-0.82-0.42
		c-1.7-2.4-4.39-5.81-8.01-7.74c-2.87-1.53-6.16-2.08-8.99-2.42c-4.42-0.52-7.92-0.49-11.04,0.11c-2.71,0.52-6.55,1.77-9.49,4.78
		c-0.39,0.4-1.02,0.4-1.41,0.02c-0.4-0.39-0.4-1.02-0.02-1.41c2.62-2.68,6.26-4.53,10.54-5.35c3.33-0.64,7.03-0.68,11.66-0.13
		C69.71,8.34,73.22,8.94,76.39,10.62z"/>
	<path class="st1" d="M43.04,6.7c-0.26,0.21-0.51,0.42-0.76,0.64c-0.74,0.68-1.39,1.41-1.95,2.18c-0.44,0.6-0.83,1.22-1.14,1.85
		c-0.71,1.42-1.11,2.92-1.15,4.38c-0.01,0.33,0.01,0.64,0.04,0.93c0.07,0.65,0.24,1.22,0.53,1.69c0.08,0.13,0.17,0.26,0.27,0.38
		c0.76,0.96,2.02,1.52,3.46,1.52c0.18,0,0.35-0.01,0.53-0.03c1.03-0.11,1.96-0.47,2.85-0.89c0.34-0.16,0.69-0.33,1.02-0.51
		c0.78-0.4,1.57-0.79,2.37-1.18c2.72-1.33,5.55-2.56,8.49-3.42c1.61-0.47,3.24-0.84,4.91-1.03c0.27-0.03,0.54-0.05,0.81-0.07
		c0.57-0.04,1.14-0.07,1.7-0.07c2.79,0,5.41,0.55,7.67,1.54c1.52,0.67,2.88,1.54,4.02,2.59c0.25,0.23,0.51,0.46,0.74,0.71
		c0.92,1.01,1.68,2.15,2.46,3.36c0.07,0.12,0.15,0.23,0.22,0.35l0.48,0.74c0.26,0.39,0.52,0.78,0.8,1.14
		c0.37,0.48,0.77,0.94,1.25,1.33c1.07,0.87,2.44,1.35,3.88,1.35c0.86,0,1.71-0.18,2.46-0.52c0.45-0.2,0.87-0.47,1.25-0.78
		c0.61-0.49,1.12-1.1,1.51-1.77c0.48-0.83,0.78-1.77,0.82-2.73c0.02-0.47-0.03-0.92-0.11-1.37c-0.13-0.72-0.37-1.42-0.7-2.08
		c-0.69-1.39-1.73-2.67-2.84-3.87c-0.82-0.89-1.73-1.84-2.72-2.81c-0.78-0.76-1.61-1.53-2.49-2.29C79.6,4.39,74.4,1.08,68.33,0.25
		C67.1,0.08,65.75,0,64.1,0c-0.88,0-1.76,0.02-2.65,0.04c-1.84,0.04-3.75,0.09-5.63,0.49c-2.03,0.43-3.93,1.26-5.71,2.07
		C48.68,3.26,47.14,4,45.65,4.89C44.75,5.43,43.86,6.03,43.04,6.7z M64.1,2c1.57,0,2.83,0.07,3.97,0.23
		c8.36,1.15,15.08,7.51,19.41,12.2c1.67,1.81,3.2,3.77,3.11,5.88c-0.06,1.48-1.05,2.94-2.4,3.55c-1.33,0.6-3.13,0.36-4.25-0.56
		c-0.64-0.52-1.14-1.25-1.64-2.02l-0.47-0.73c-0.87-1.35-1.77-2.74-2.9-3.97c-3.2-3.49-8.27-5.49-13.9-5.49
		c-0.91,0-1.83,0.05-2.74,0.16c-5.97,0.68-11.4,3.26-16.48,5.85c-1.08,0.55-2.09,1.07-3.15,1.18c-0.8,0.09-1.86-0.12-2.33-0.91
		c-0.21-0.36-0.31-0.86-0.29-1.55c0.06-2.42,1.37-4.97,3.59-6.99c2.13-1.94,4.79-3.24,7.32-4.39c1.67-0.76,3.46-1.54,5.29-1.93
		c1.7-0.36,3.51-0.41,5.26-0.45C62.36,2.02,63.23,2,64.1,2z"/>
	<path class="st2" d="M124.12,36.53c-0.37,0.92-0.74,1.91-0.92,2.92c-0.21,1.1-0.19,2.3-0.18,3.36c0.01,1.62-0.06,5.88-0.17,11.78
		c-0.28,15.48-0.73,40.25-0.12,50.48l5.34-9.1c0.46-0.78,0.93-1.59,1.13-2.42c0.07-0.62,0.24-9.66,0.44-20.13
		c0.33-17.01,0.76-39.53,1.21-49.9C128.17,27.62,125.92,31.98,124.12,36.53z"/>
	<path class="st1" d="M132.36,19.08c-0.05-0.02-0.1-0.02-0.15-0.03c-0.38-0.07-0.77,0.07-1,0.38c-0.81,1.13-1.59,2.28-2.34,3.45
		c-1.85,2.89-3.5,5.91-4.94,9.02c-0.59,1.28-1.15,2.57-1.67,3.88c-0.38,0.97-0.81,2.1-1.03,3.29c-0.12,0.64-0.18,1.29-0.2,1.92
		c-0.03,0.63-0.02,1.25-0.02,1.83c0,0.06,0,0.13,0,0.2c0.01,1.74-0.07,6.08-0.17,11.53c-0.27,14.85-0.69,38.21-0.19,49.29
		c0.09,1.93,0.2,3.49,0.35,4.57c0.03,0.23,0.14,0.42,0.3,0.57c0.14,0.13,0.3,0.23,0.5,0.27c0.07,0.01,0.13,0.02,0.19,0.02
		c0.35,0,0.68-0.18,0.86-0.49l6.92-11.79c0.51-0.87,1.09-1.85,1.35-2.97c0.09-0.39,0.17-3.47,0.5-20.55
		c0.37-19.35,0.88-45.84,1.4-53.37C133.05,19.65,132.78,19.23,132.36,19.08z M129.18,93.56c-0.19,0.83-0.67,1.63-1.13,2.42
		l-5.34,9.1c-0.61-10.23-0.16-35,0.12-50.48c0.11-5.9,0.18-10.16,0.17-11.78c-0.01-1.06-0.02-2.26,0.18-3.36
		c0.19-1.01,0.56-1.99,0.92-2.92c1.8-4.55,4.06-8.91,6.72-13c-0.45,10.37-0.89,32.9-1.21,49.9
		C129.42,83.9,129.24,92.94,129.18,93.56z"/>
	<path class="st4" d="M76.59,63.98c-0.28-0.25-0.72-0.42-1.38-0.53c-0.66-0.11-1.37-0.16-2.31-0.16c-0.44,0-0.87,0.01-1.31,0.02
		c-0.45,0.01-0.9,0.02-1.35,0.02c-0.93,0-1.68-0.05-2.37-0.14c-0.32-0.05-1.17-0.17-1.65-0.88c-0.34-0.51-0.32-1.07-0.32-1.41
		l0.22-8.31c0.01-0.35,0.03-0.95-0.17-1.17c-0.19-0.22-0.76-0.31-1.11-0.36l-4.82-0.71c-0.56-0.08-1.16-0.16-1.71-0.16
		c-0.79,0-1.36,0.15-1.77,0.48c-0.92,0.73-1,2.29-1.01,3.69l-0.02,6.37c0,0.46-0.32,0.87-0.77,0.97c-0.81,0.19-1.65,0.28-2.49,0.32
		c0.18,0.02,0.36,0.04,0.52,0.07l0.26,0.04c1.11,0.15,2.24,0.2,3.36,0.14c0.34-0.02,0.44-0.05,0.47-0.07
		c0.02-0.03,0.07-0.18,0.12-0.42c0.41-1.81,0.59-3.67,0.55-5.52c-0.02-0.95-0.05-2.38,1.04-3.24c0.83-0.65,2.13-0.68,3.21-0.1
		c2.16,1.16,3.12,3.95,2.57,7.44c-0.23,1.43-0.37,2.75,0.32,3.23c0.34,0.23,0.89,0.26,1.52,0.27l5.43,0.1
		c0.45,0.01,1.06,0.02,1.65,0.31c1.71,0.86,1.57,3.12,1.53,3.86c-0.16,2.63-1.3,3.4-2.24,3.58c-0.35,0.07-0.69,0.04-1.01-0.03
		c0.44,0.16,0.86,0.32,1.22,0.49l0.18,0.08c0.69,0.31,1.32,0.61,1.89,0.54c0.63-0.08,1.14-0.65,1.4-1.16
		c0.37-0.71,0.51-1.58,0.65-2.43c0.18-1.1,0.37-2.24,0.32-3.33C77.2,65.25,77.07,64.42,76.59,63.98z"/>
	<path class="st4" d="M70.35,71.27c-1.22-0.47-2.63-0.5-3.99-0.52l-0.39,0c-0.58,0-1.17,0.04-1.57,0.31
		c-0.68,0.46-0.77,1.43-0.83,2.98c-0.06,1.61-0.14,3.44-1.63,4.53c-0.56,0.41-1.25,0.63-2,0.63c-1,0-2.06-0.39-2.89-1.07
		c-0.74-0.6-1.2-1.29-1.35-2.04c-0.2-0.98,0.15-1.83,0.45-2.59c0.17-0.41,0.32-0.79,0.37-1.14c0.15-1.19-1.11-2.32-2.35-2.67
		c-1.12-0.32-2.29-0.29-3.42-0.27c-0.53,0.01-1.07,0.01-1.6-0.01c-0.4-0.01-1.63-0.06-2.24-1.03c-0.34-0.54-0.33-1.15-0.32-1.51
		c0.02-0.98,0.05-2.8,1.26-3.95c0.55-0.52,1.24-0.83,2.09-0.95c-0.53-0.06-1.06-0.16-1.59-0.29c-0.57-0.14-1.19-0.29-1.68-0.29
		c-0.52,0-0.66,0.16-0.72,0.23c-0.15,0.18-0.22,0.54-0.27,0.86c-0.25,1.54-0.32,3.11-0.21,4.67c0.06,0.84,0.2,1.87,0.78,2.42
		c0.39,0.37,0.95,0.54,1.78,0.54c0.63,0,1.33-0.1,2-0.2l0.2-0.03c0.45-0.07,0.9-0.1,1.33-0.1c2.08,0,3.56,0.77,4.15,2.18
		c0.55,1.3,0.12,2.57-0.26,3.7c-0.07,0.2-0.13,0.4-0.2,0.6c-0.36,1.17-0.33,2.72,0.57,3.35c0.4,0.28,0.96,0.39,1.6,0.49
		c1.47,0.24,2.96,0.44,4.45,0.59c0.53,0.05,1.09,0.08,1.41-0.06c0.79-0.33,1.02-1.58,0.98-2.65c-0.01-0.23-0.02-0.46-0.04-0.7
		c-0.08-1.27-0.17-2.71,0.58-3.98c0.76-1.28,2.29-2.1,3.99-2.14l0.14,0c0.66,0,1.29,0.12,1.88,0.27c-0.07-0.03-0.14-0.05-0.21-0.08
		L70.35,71.27z"/>
	<path class="st1" d="M75.54,61.48c-0.77-0.13-1.58-0.19-2.64-0.19c-0.45,0-0.9,0.01-1.35,0.02c-0.44,0.01-0.87,0.02-1.31,0.02
		c-0.83,0-1.5-0.04-2.09-0.12c-0.12-0.02-0.2-0.03-0.25-0.05c0-0.07,0-0.16,0-0.21l0.22-8.31c0.02-0.64,0.05-1.71-0.64-2.52
		c-0.68-0.8-1.72-0.95-2.34-1.04l-4.82-0.71c-0.64-0.09-1.32-0.18-2-0.18c-1.25,0-2.24,0.3-3.01,0.91c-1.75,1.39-1.76,3.9-1.77,5.25
		l-0.02,5.55c-1.55,0.25-3.15,0.2-4.73-0.18c-0.65-0.16-1.39-0.34-2.12-0.34c-0.97,0-1.73,0.32-2.25,0.95
		c-0.45,0.54-0.61,1.2-0.71,1.83c-0.27,1.68-0.35,3.4-0.23,5.11c0.08,1.2,0.31,2.72,1.41,3.75c0.77,0.73,1.8,1.08,3.15,1.08
		c0.78,0,1.58-0.12,2.29-0.22l0.19-0.03c0.35-0.05,0.7-0.08,1.04-0.08c0.71,0,1.95,0.12,2.3,0.96c0.25,0.6-0.02,1.42-0.32,2.28
		c-0.07,0.22-0.15,0.44-0.21,0.65c-0.54,1.77-0.52,4.29,1.33,5.58c0.74,0.52,1.57,0.69,2.42,0.83c1.51,0.25,3.05,0.46,4.57,0.61
		c0.31,0.03,0.62,0.06,0.93,0.06c0.55,0,1.03-0.09,1.45-0.26c1.47-0.61,2.3-2.32,2.21-4.58c-0.01-0.24-0.03-0.49-0.04-0.74
		c-0.07-1.08-0.13-2.1,0.31-2.84c0.4-0.68,1.31-1.13,2.41-1.16c1.09,0,2.2,0.44,3.04,0.82l0.18,0.08c0.86,0.39,1.88,0.84,2.98,0.7
		c1.18-0.15,2.27-0.98,2.91-2.22c0.52-0.99,0.69-2.08,0.85-3.04c0.2-1.2,0.4-2.44,0.35-3.73c-0.06-1.46-0.5-2.57-1.3-3.29
		C77.17,61.82,76.2,61.59,75.54,61.48z M76.25,71.63c-0.26,0.51-0.77,1.08-1.4,1.16c-0.58,0.07-1.21-0.22-1.89-0.54l-0.18-0.08
		C72.42,72,72,71.83,71.56,71.68c-0.27-0.06-0.52-0.14-0.76-0.24c-0.59-0.16-1.22-0.27-1.88-0.27l-0.14,0
		c-1.7,0.04-3.23,0.86-3.99,2.14c-0.75,1.27-0.66,2.71-0.58,3.98c0.01,0.23,0.03,0.47,0.04,0.7c0.04,1.07-0.19,2.32-0.98,2.65
		c-0.32,0.14-0.88,0.11-1.41,0.06c-1.48-0.15-2.98-0.35-4.45-0.59c-0.64-0.11-1.2-0.22-1.6-0.49c-0.9-0.63-0.92-2.18-0.57-3.35
		c0.06-0.2,0.13-0.4,0.2-0.6c0.38-1.13,0.81-2.4,0.26-3.7c-0.59-1.41-2.06-2.18-4.15-2.18c-0.43,0-0.88,0.03-1.33,0.1l-0.2,0.03
		c-0.67,0.1-1.36,0.2-2,0.2c-0.82,0-1.39-0.17-1.78-0.54c-0.59-0.55-0.73-1.59-0.78-2.42c-0.1-1.56-0.03-3.13,0.21-4.67
		c0.05-0.32,0.12-0.68,0.27-0.86c0.06-0.07,0.19-0.23,0.72-0.23c0.5,0,1.11,0.15,1.68,0.29c0.52,0.13,1.05,0.22,1.59,0.29
		c0.26-0.04,0.53-0.06,0.82-0.06c0.51,0,1.01,0.06,1.5,0.12c0.84-0.04,1.67-0.13,2.49-0.32c0.45-0.1,0.77-0.51,0.77-0.97l0.02-6.37
		c0-1.41,0.09-2.96,1.01-3.69c0.42-0.33,0.98-0.48,1.77-0.48c0.55,0,1.15,0.08,1.71,0.16l4.82,0.71c0.34,0.05,0.92,0.14,1.11,0.36
		c0.19,0.23,0.18,0.82,0.17,1.17L65.9,60.9c-0.01,0.33-0.02,0.9,0.32,1.41c0.48,0.71,1.33,0.84,1.65,0.88
		c0.69,0.1,1.44,0.14,2.37,0.14c0.45,0,0.9-0.01,1.35-0.02c0.44-0.01,0.87-0.02,1.31-0.02c0.94,0,1.66,0.05,2.31,0.16
		c0.66,0.11,1.1,0.28,1.38,0.53c0.48,0.43,0.61,1.26,0.64,1.88c0.04,1.09-0.14,2.23-0.32,3.33C76.77,70.04,76.62,70.92,76.25,71.63z
		"/>
	<path class="st1" d="M55.03,8.12c-4.28,0.82-7.93,2.67-10.54,5.35c-0.39,0.39-0.38,1.03,0.02,1.41c0.4,0.39,1.03,0.38,1.41-0.02
		c2.94-3.01,6.78-4.26,9.49-4.78c3.12-0.6,6.63-0.63,11.04-0.11c2.83,0.34,6.12,0.89,8.99,2.42c3.63,1.93,6.31,5.34,8.01,7.74
		c0.2,0.27,0.5,0.42,0.82,0.42c0.2,0,0.4-0.06,0.58-0.18c0.45-0.32,0.56-0.94,0.24-1.39c-1.82-2.56-4.71-6.22-8.71-8.35
		c-3.17-1.69-6.68-2.28-9.7-2.64C62.06,7.44,58.36,7.48,55.03,8.12z"/>
	<path class="st5" d="M72.81,68c0.08-1.4-0.19-1.83-0.43-1.95c-0.18-0.09-0.5-0.09-0.79-0.1l-5.43-0.1
		c-0.75-0.01-1.77-0.03-2.63-0.63c-1.79-1.24-1.39-3.71-1.16-5.19c0.32-2.02,0.08-4.49-1.54-5.36c-0.37-0.2-0.83-0.24-1.02-0.09
		c-0.31,0.25-0.29,1.08-0.28,1.63c0.04,2.02-0.16,4.04-0.6,6c-0.08,0.35-0.22,1.01-0.75,1.48c-0.57,0.51-1.32,0.55-1.68,0.57
		c-1.25,0.07-2.51,0.02-3.75-0.15l-0.27-0.04c-0.59-0.08-1.19-0.17-1.74-0.17c-0.72,0-1.2,0.15-1.53,0.46
		c-0.56,0.53-0.62,1.59-0.64,2.54c0,0.11-0.01,0.35,0.02,0.42c0-0.01,0.1,0.07,0.61,0.09c0.5,0.02,1,0.01,1.5,0
		c0.27,0,0.55-0.01,0.82-0.01c0.96,0,2.08,0.04,3.17,0.36c2.05,0.59,4.08,2.49,3.79,4.84c-0.08,0.61-0.3,1.16-0.5,1.65
		c-0.23,0.56-0.42,1.04-0.35,1.43c0.07,0.35,0.39,0.68,0.65,0.88c0.76,0.62,1.86,0.81,2.45,0.38c0.71-0.52,0.76-1.73,0.81-3
		c0.07-1.64,0.14-3.5,1.71-4.56c0.85-0.57,1.84-0.65,2.69-0.65l0.43,0c1.46,0.03,3.12,0.06,4.67,0.66l0.27,0.11
		c0.29,0.12,0.58,0.24,0.78,0.24C72.5,69.68,72.75,68.98,72.81,68z"/>
	<path class="st1" d="M72.57,71.71c0.93-0.18,2.08-0.95,2.24-3.58c0.04-0.74,0.18-3.01-1.53-3.86c-0.58-0.29-1.2-0.3-1.65-0.31
		l-5.43-0.1c-0.64-0.01-1.19-0.04-1.52-0.27c-0.69-0.48-0.55-1.8-0.32-3.23c0.55-3.49-0.41-6.28-2.57-7.44
		c-1.08-0.58-2.38-0.55-3.21,0.1c-1.09,0.86-1.06,2.29-1.04,3.24c0.04,1.85-0.14,3.71-0.55,5.52c-0.05,0.24-0.1,0.38-0.12,0.42
		c-0.03,0.02-0.13,0.05-0.47,0.07c-1.12,0.06-2.25,0.02-3.36-0.14l-0.26-0.04c-0.17-0.02-0.35-0.04-0.52-0.07
		c-0.49-0.06-0.99-0.12-1.5-0.12c-0.29,0-0.56,0.02-0.82,0.06c-0.85,0.12-1.54,0.43-2.09,0.95c-1.21,1.15-1.24,2.97-1.26,3.95
		c-0.01,0.36-0.02,0.97,0.32,1.51c0.61,0.98,1.84,1.02,2.24,1.03c0.53,0.02,1.07,0.01,1.6,0.01c1.13-0.02,2.3-0.05,3.42,0.27
		c1.25,0.36,2.5,1.48,2.35,2.67c-0.04,0.34-0.2,0.73-0.37,1.14c-0.31,0.75-0.65,1.6-0.45,2.59c0.15,0.75,0.6,1.44,1.35,2.04
		c0.84,0.68,1.89,1.07,2.89,1.07c0.75,0,1.44-0.22,2-0.63c1.49-1.09,1.56-2.92,1.63-4.53c0.06-1.55,0.15-2.52,0.83-2.98
		c0.4-0.27,0.99-0.31,1.57-0.31l0.39,0c1.36,0.03,2.77,0.05,3.99,0.52l0.24,0.1c0.07,0.03,0.14,0.05,0.21,0.08
		c0.24,0.09,0.49,0.18,0.76,0.24C71.88,71.75,72.21,71.77,72.57,71.71z M71.07,69.4c-1.55-0.6-3.21-0.63-4.67-0.66l-0.43,0
		c-0.85,0-1.84,0.08-2.69,0.65c-1.57,1.06-1.64,2.92-1.71,4.56c-0.05,1.27-0.1,2.48-0.81,3c-0.59,0.43-1.69,0.24-2.45-0.38
		c-0.25-0.21-0.57-0.53-0.65-0.88c-0.08-0.39,0.12-0.87,0.35-1.43c0.2-0.49,0.42-1.04,0.5-1.65c0.29-2.36-1.73-4.25-3.79-4.84
		c-1.09-0.31-2.22-0.36-3.17-0.36c-0.27,0-0.55,0-0.82,0.01c-0.5,0.01-1,0.01-1.5,0c-0.52-0.02-0.62-0.09-0.61-0.09
		c-0.03-0.07-0.03-0.32-0.02-0.42c0.02-0.95,0.08-2,0.64-2.54c0.33-0.31,0.82-0.46,1.53-0.46c0.55,0,1.16,0.08,1.74,0.17l0.27,0.04
		c1.24,0.17,2.5,0.22,3.75,0.15c0.36-0.02,1.11-0.06,1.68-0.57c0.53-0.47,0.68-1.13,0.75-1.48c0.44-1.97,0.64-3.99,0.6-6
		c-0.01-0.55-0.03-1.38,0.28-1.63c0.19-0.15,0.64-0.11,1.02,0.09c1.62,0.87,1.86,3.34,1.54,5.36c-0.24,1.48-0.63,3.95,1.16,5.19
		c0.86,0.6,1.88,0.62,2.63,0.63l5.43,0.1c0.29,0,0.61,0.01,0.79,0.1c0.24,0.12,0.51,0.56,0.43,1.95c-0.06,0.98-0.31,1.68-0.69,1.75
		c-0.2,0-0.49-0.12-0.78-0.24L71.07,69.4z"/>
</g>
</svg>
