<?xml version="1.0" encoding="utf-8"?>
<!-- Generator: Adobe Illustrator 23.0.3, SVG Export Plug-In . SVG Version: 6.00 Build 0)  -->
<svg version="1.1" id="Vrstva_10" xmlns="http://www.w3.org/2000/svg" xmlns:xlink="http://www.w3.org/1999/xlink" x="0px" y="0px"
	 viewBox="0 0 278.24 159.22" style="enable-background:new 0 0 278.24 159.22;" xml:space="preserve">
<style type="text/css">
	.st0{fill:#BA9060;}
	.st1{fill:#A07A53;}
	.st2{fill:#4C331B;}
	.st3{fill:#7B5632;}
	.st4{fill:#1C1C1B;}
	.st5{fill:#FFFFFF;}
	.st6{fill:#4D341C;}
	.st7{fill:#4A321A;}
	.st8{fill:#62B594;}
	.st9{fill:#FFE78D;}
	.st10{fill:#B1C6CF;}
	.st11{fill:#8EA8B1;}
	.st12{fill:#CEE1E8;}
	.st13{fill:#A47C4F;}
	.st14{fill:#5C3F22;}
</style>
<g>
	<path class="st0" d="M67.1,134.67c-0.53-0.16-0.82-0.72-0.66-1.25c0.16-0.53,0.72-0.82,1.25-0.66c7.1,2.21,15.41,1.24,22.22-2.61
		c6.57-3.7,11.76-9.86,14.63-17.33c1.49-3.88,2.46-8.4,2.97-13.83c0.28-2.94,0.45-6.39-0.32-9.65c-1.42-5.96-6.2-10.85-11.9-12.17
		c-5.84-1.36-12.43,1.38-15.33,6.35c-0.28,0.48-0.89,0.64-1.37,0.36c-0.48-0.28-0.64-0.89-0.36-1.37c1.27-2.18,3.1-3.96,5.25-5.27
		c-10.72,1.85-20.1,7.37-25.78,15.39c-2.74,3.87-4.49,8.28-5.25,12.77c4.37,1.28,8.57,3.33,12.24,6c0.33,0.24,0.48,0.65,0.38,1.04
		c-0.09,0.39-0.42,0.69-0.81,0.75c-0.45,0.07-0.92,0.11-1.4,0.11c-2.44,0-4.83-0.96-6.74-1.73l-4.09-1.65
		c-0.12,6.13,1.6,12.14,5.21,16.86c0.07,0.1,0.12,0.2,0.15,0.32c0.55,0.51,1.14,0.98,1.78,1.36c0.47,0.28,0.63,0.9,0.34,1.37
		c-0.19,0.31-0.52,0.49-0.86,0.49c-0.17,0-0.35-0.05-0.51-0.14c-0.81-0.48-1.56-1.08-2.24-1.73c-1.91,0.17-3.98,0.42-5.66,1.35
		c-1.59,0.88-3,2.73-2.62,4.57c0.32,1.58,1.82,2.89,4.57,4c3.77,1.53,7.73,2.47,11.78,2.8c0.4,0.03,0.8,0.06,1.21,0.09
		c2.03,0.13,4.13,0.28,6.1,1.11c2.47,1.05,4.74,3.64,4.31,6.54c-0.07,0.5-0.22,0.95-0.36,1.39c-0.15,0.48-0.29,0.92-0.31,1.34
		c-0.03,1,0.88,2,1.87,2.06l0.1,0c0.7,0,1.44-0.47,1.8-1.12c0.06-0.34,0.16-0.66,0.29-0.97c0.03-0.07,0.08-0.13,0.12-0.19
		c0.43-1.57,0.52-3.26,0.22-4.85c-0.18-0.95-0.45-1.6-0.85-2.05c-0.37-0.41-0.33-1.04,0.08-1.41c0.41-0.37,1.04-0.33,1.41,0.08
		c0.65,0.73,1.07,1.69,1.32,3.01c0.44,2.33,0.2,4.83-0.67,7.05c-0.16,1.7,1.06,3.52,2.65,3.9c1.65,0.39,3.66-0.86,4.18-2.51
		c0.01-0.32,0.07-0.64,0.19-0.96c0.06-0.16,0.16-0.28,0.27-0.38c0.37-1.34,0.64-2.72,0.64-4.1c0-2.03-0.62-3.8-1.74-4.99
		c-0.38-0.4-0.36-1.04,0.04-1.41c0.4-0.38,1.03-0.36,1.41,0.04c1.47,1.56,2.29,3.82,2.29,6.37c0,2.01-0.49,3.95-1.05,5.77
		c0.26,0.88,1.74,1.72,3.03,1.54c1.83-0.25,3.33-1.46,4.23-3.42c1.26-2.75,1.05-6.37-0.53-8.8c-2.82-4.35-7.98-6.38-13.47-8.25
		l-0.41-0.14c-0.3-0.1-0.5-0.34-0.6-0.62c-2.05,0.42-4.14,0.64-6.21,0.64C72.66,135.92,69.8,135.51,67.1,134.67z"/>
	<path class="st0" d="M121.28,119.26c-4.59-1.3-9.41,0.42-14.78,2.64l-6.8,2.81c-2.54,2.89-5.5,5.33-8.8,7.19
		c-1.98,1.11-4.07,1.99-6.23,2.64c3.84,1.14,7.83,1.72,11.89,1.72c2.97,0,5.92-0.33,8.79-0.95c0.27-1.43,0.27-2.81-0.02-4.31
		c-0.1-0.54,0.25-1.07,0.79-1.17c0.55-0.1,1.07,0.25,1.17,0.79c0.38,2,0.35,3.83-0.12,5.77c0,0.02-0.02,0.03-0.02,0.05
		c-0.02,0.06-0.05,0.12-0.07,0.17c-0.02,0.04-0.04,0.08-0.07,0.12c-0.01,0.01-0.01,0.03-0.02,0.04c-0.82,1.05-1.19,2.58-0.96,3.9
		c0.12,0.69,0.46,1.63,1.37,2.2c0.8,0.5,1.84,0.24,2.63-0.57c0.51-0.52,0.81-1.18,0.82-1.77l-0.08-0.57c0,0,0,0,0,0
		c0-0.03,0.01-0.06,0-0.09c0-0.1-0.01-0.2,0.02-0.29c0,0,0-0.01,0-0.01c1.12-4.17,1.55-5.73,0.36-9.77
		c-0.16-0.53,0.15-1.09,0.68-1.24c0.53-0.16,1.09,0.15,1.24,0.68c1.33,4.51,0.83,6.49-0.29,10.67c0.03,0.16,0.07,0.32,0.07,0.48
		l0.29,1.99c0.64,0.58,1.55,0.67,2.07,0.67c1.65,0,3.39-0.84,4.12-1.96c-0.03-0.51,0.1-1.02,0.36-1.51c0.47-1.7,0.57-2.97,0.59-4.73
		c0.02-2.21-0.37-4.35-0.88-6.91c-0.11-0.54,0.24-1.07,0.78-1.18c0.54-0.11,1.07,0.24,1.18,0.79c0.42,2.11,0.94,4.73,0.92,7.32
		c-0.01,1.8-0.12,3.19-0.58,4.95c0.02,0.51-0.07,1.02-0.25,1.51c0.3,0.49,1.12,0.95,2.03,0.95c2.76,0,5.44-1.63,7.15-4.35
		c1.73-2.75,2.05-5.9,0.85-8.42c-0.01-0.02-0.01-0.04-0.02-0.07C129.84,125.96,126.6,120.76,121.28,119.26z"/>
	<path class="st1" d="M210.54,99.41c0.02,0.21,0.03,0.42,0.03,0.64c-0.02,1.16-0.37,2.24-0.75,3.23l4.48,2.71
		c0.95-1.41,2.64-2.35,4.39-2.35c0.61,0,1.19,0.11,1.74,0.34c1.26,0.51,2.27,1.66,2.71,3.07c0.43,1.38,0.26,2.81-0.46,3.92
		c-0.79,1.21-2.27,1.96-3.85,1.96c-0.53,0-1.04-0.08-1.5-0.24c-0.19,1.26-0.85,2.46-1.87,3.24c-0.83,0.63-1.89,0.98-2.99,0.98
		c-1.01,0-1.97-0.29-2.76-0.83c-0.26-0.18-0.42-0.47-0.44-0.79c-0.04-1.18,0.28-2.38,0.88-3.41c-1.57-0.59-3.28-1.65-4.98-3.09
		c-0.81,1.02-1.82,1.97-3.16,2.41c-0.41,0.13-0.84,0.2-1.29,0.2c-1.78,0-3.29-1.04-3.67-2.53c-0.21-0.85-0.07-1.81,0.41-2.78
		c0.15-0.3,0.33-0.58,0.53-0.85c-1.88,0.5-3.79,0.91-5.7,1.23c-0.37,5.48-3.15,10.76-7.43,14.19c5.09-0.15,10.17-0.45,15.19-0.74
		c1.54-0.09,3.08-0.18,4.62-0.27c6.51-0.37,12.37-0.54,18.03,1.06l0.62,0.18c1.06,0.31,2.08,0.61,3.05,0.56
		c1.51-0.06,2.89-0.9,4.36-1.79c0.97-0.59,1.96-1.2,3.06-1.61c2.74-1.05,5.88-0.78,8.4,0.72c2.65,1.57,4.61,4.39,5.98,8.62
		c0.46,1.43,0.53,3.21,0.59,4.94c0.03,0.81,0.07,1.57,0.13,2.24c0.55,0.56,1.38,0.9,2.29,0.9c1.01,0,1.9-0.4,2.47-1.06
		c0-4.07-0.03-7.91-1.61-11.51c-0.22-0.51,0.01-1.1,0.51-1.32c0.51-0.22,1.1,0.01,1.32,0.51c1.78,4.06,1.78,8.21,1.78,12.59v0.1
		c0,0.01,0,0.01,0,0.02c0,0.05-0.02,0.09-0.02,0.14c-0.02,0.12-0.04,0.24-0.09,0.34c-0.07,0.17-0.13,0.36-0.17,0.54
		c-0.01,0.04-0.01,0.09-0.02,0.13c0,0.01-0.01,0.02-0.02,0.04c-0.13,0.77-0.02,1.62,0.34,2.35c0.39,0.8,1,1.33,1.72,1.52
		c0.71,0.18,1.56-0.19,2.14-0.89c0.38-0.46,0.59-1,0.55-1.45c-0.17-0.31-0.3-0.63-0.39-0.96c-0.01-0.03,0-0.07-0.01-0.1
		c-0.01-0.05-0.01-0.11-0.01-0.16c0-0.08,0.01-0.15,0.03-0.22c0.01-0.03,0-0.07,0.01-0.1c1.87-5.62,1.69-10.09-0.61-14.96
		c-0.24-0.5-0.02-1.09,0.48-1.33c0.5-0.24,1.1-0.02,1.33,0.48c2.44,5.17,2.69,10.13,0.83,15.99c0.1,0.21,0.19,0.42,0.25,0.64
		c0.61,0.89,1.73,1.45,2.77,1.32c1.11-0.14,2.09-1.05,2.42-2.12c-0.1-0.22-0.13-0.46-0.05-0.71l0.31-0.99
		c0.65-2.05,1.13-3.53,0.94-5.69c-0.23-2.67-1.32-5.08-2.99-6.61c-0.41-0.37-0.44-1-0.07-1.41c0.37-0.41,1-0.44,1.41-0.07
		c2.07,1.89,3.36,4.7,3.64,7.92c0.22,2.56-0.36,4.37-1.03,6.47l-0.08,0.25c0.01,0.06,0.04,0.12,0.04,0.18
		c0.01,1.04,1.25,1.69,2.4,1.69c0.51,0,0.98-0.12,1.36-0.35c1.36-0.83,2.23-2.5,2.75-5.25c0.67-3.56,1.2-10.26-2.74-15.11
		c-1.88-2.31-5.06-3.81-8.1-3.81c-1.44,0-3.52,0.34-5.2,1.94c-0.29,0.28-0.72,0.35-1.09,0.19c-5.05-2.25-10.66-3.28-16.08-4.28
		c-3.15-0.58-6.41-1.18-9.56-2.01c-8.73-2.31-15.34-6.62-18.83-12.14c-0.01,0.01-0.02,0.02-0.03,0.03
		C213.05,97.39,211.85,98.44,210.54,99.41z"/>
	<path class="st0" d="M246.24,127.99c-1.22-3.74-2.88-6.2-5.1-7.52c-1.97-1.17-4.53-1.39-6.67-0.57c-0.93,0.35-1.8,0.89-2.73,1.46
		c-1.62,0.98-3.29,2-5.32,2.08c-1.3,0.06-2.52-0.3-3.69-0.64l-0.6-0.17c-5.36-1.51-11.04-1.34-17.37-0.99
		c-1.54,0.09-3.07,0.18-4.61,0.27c-13.8,0.81-28.07,1.64-41.95-0.53c-3.28-0.51-6.58-1.2-9.76-1.87c-0.54-0.11-0.91-0.65-0.79-1.19
		c0.11-0.54,0.63-0.89,1.16-0.78l0.04,0.01c3.16,0.66,6.43,1.34,9.66,1.85c7.48,1.17,15.11,1.45,22.74,1.34
		c0.06-0.06,0.11-0.12,0.19-0.16c4.94-2.8,8.3-8.16,8.82-13.79c-2.95,0.43-5.9,0.72-8.81,1c-0.03,0-0.07,0-0.1,0
		c-0.18,0-0.35-0.06-0.5-0.14c-0.2,0.19-0.38,0.38-0.59,0.56c-4.6,4.06-11.06,6.57-19.2,7.44c-1.79,0.19-3.51,0.29-5.14,0.29
		c-5.01,0-9.39-0.92-13.04-2.75c-6.12-3.06-10.19-9.12-10.14-15.06c0.03-3.66,1.48-7.08,2.88-10.38c1.58-3.74,3.08-7.27,2.56-10.97
		c-0.21-1.51-0.76-2.95-1.39-4.42c-0.51,0.24-1.03,0.57-1.53,0.89l-0.33,0.21c-4.97,3.16-11.25,4.69-19.2,4.69
		c-1.11,0-2.28-0.03-3.47-0.09c-2.85-0.14-5.74-0.43-8.53-0.7c-1.17-0.12-2.34-0.23-3.53-0.34c4.34,2.47,7.71,6.84,8.92,11.89
		c0.84,3.54,0.66,7.19,0.37,10.3c-0.53,5.61-1.54,10.31-3.09,14.36c-1.1,2.85-2.52,5.52-4.21,7.96l3.54-1.46
		c5.72-2.36,10.88-4.19,16.09-2.71c4.48,1.27,8.41,5.04,11.18,10.68c1.83-0.17,3.63-0.81,5.14-1.85c0.31-0.21,0.71-0.24,1.04-0.06
		c0.33,0.18,0.53,0.53,0.52,0.91c-0.12,4.44-0.05,8.36,2.04,11.38c2.54,3.68,7.57,4.91,11.33,5.3c1.47,0.15,3,0.23,4.56,0.23
		c7.57,0,15.25-1.78,22.68-3.5c1.78-0.41,3.57-0.82,5.35-1.21c4.43-0.97,11.08-2.25,17.7-2.25c5.97,0,11.11,1,15.71,3.04
		c0.56,0.25,1.32,0.4,1.98,0.4c0.65,0,0.98-0.14,1.08-0.22c-0.19-0.14-0.33-0.35-0.38-0.6l-0.75-3.8c-0.11-0.54,0.24-1.07,0.79-1.17
		c0.54-0.11,1.07,0.24,1.17,0.79l0.71,3.57c0.15,0.09,0.28,0.21,0.37,0.38c0.85,1.63,1.8,3.26,3.28,3.78
		c0.74,0.26,1.82-0.13,2.31-0.71c-0.03-0.15-0.04-0.3-0.01-0.46c0.89-3.67,0.39-8.6-1.26-12.57c-0.21-0.51,0.03-1.09,0.54-1.31
		c0.51-0.21,1.09,0.03,1.31,0.54c1.63,3.9,2.21,8.68,1.6,12.55c0.07,0.3,0.1,0.61,0.07,0.91c0.24,0.83,0.99,1.53,1.79,1.65
		c1.1,0.17,2.26-0.68,2.48-1.73c0.01-0.04,0.04-0.07,0.05-0.11c0.02-0.06,0.03-0.12,0.06-0.17c0.76-1.35,1.3-2.98,1.57-4.73
		c0.2-1.29,0.41-2.63,0.37-3.91c-0.07-2.21-0.88-4.37-2.28-6.08c-0.35-0.43-0.29-1.06,0.14-1.41c0.43-0.35,1.06-0.29,1.41,0.14
		c1.68,2.05,2.65,4.64,2.74,7.29c0.04,1.47-0.18,2.89-0.39,4.27c-0.24,1.54-0.68,3-1.27,4.31c2.17,0.46,4.75-0.38,6.5-2.16
		c1.24-1.27,1.91-2.83,1.88-4.39c-0.1-0.8-0.13-1.7-0.17-2.65C246.68,130.79,246.62,129.14,246.24,127.99z"/>
	<path class="st2" d="M213.72,91.52c0.02,0.09,0.29,0.48,0.46,0.71c0.2,0.28,0.41,0.59,0.58,0.93c-0.25-0.56-0.48-1.14-0.67-1.74
		c-0.02-0.05-0.03-0.1-0.05-0.15c-0.09,0.05-0.19,0.1-0.28,0.15C213.75,91.45,213.74,91.48,213.72,91.52z"/>
	<path class="st2" d="M61.05,88.31c-4.44,4.66-7.44,10.64-8.63,16.96c0,0.05-0.02,0.09-0.02,0.13c0.02,0,0.03,0.01,0.05,0.01
		c0.76-4.49,2.51-8.9,5.25-12.77c5.69-8.03,15.06-13.54,25.78-15.39c3.58-2.17,8.03-3,12.26-2.02c1.57,0.36,3.07,0.97,4.47,1.77
		c1.18,0.11,2.36,0.22,3.53,0.34c2.79,0.28,5.67,0.56,8.53,0.7c1.19,0.06,2.36,0.09,3.47,0.09c7.95,0,14.23-1.54,19.2-4.69
		l0.33-0.21c0.51-0.33,1.02-0.66,1.53-0.89c-0.16-0.38-0.33-0.75-0.5-1.14c-0.1-0.23-0.2-0.46-0.3-0.69
		c-0.65,0.29-1.26,0.68-1.82,1.04l-0.32,0.21c-4.64,2.95-10.57,4.38-18.13,4.38c-1.08,0-2.21-0.03-3.37-0.09
		c-2.81-0.14-5.66-0.42-8.43-0.7c-4.73-0.47-9.64-0.95-14.5-0.75c-11.26,0.47-21.63,4.75-28.92,11.75c0.18,0.2,0.35,0.4,0.53,0.6
		C61.42,87.32,61.41,87.93,61.05,88.31z"/>
	<path class="st2" d="M56.23,125.85c0.35,0.45,0.74,0.87,1.16,1.26c-0.03-0.11-0.08-0.22-0.15-0.32
		c-3.61-4.72-5.33-10.73-5.21-16.86l-0.14-0.06c-0.01,0.32-0.03,0.64-0.04,0.97c0,0.34-0.18,0.66-0.48,0.84
		c-0.16,0.1-0.34,0.15-0.52,0.15c-0.15,0-0.3-0.03-0.44-0.1c-0.13-0.06-0.25-0.13-0.37-0.2c0.16,5.29,1.64,10.42,4.42,14.76
		c0.04-0.24,0.16-0.47,0.37-0.63C55.27,125.33,55.89,125.41,56.23,125.85z"/>
	<path class="st2" d="M264.93,110.52c-2.34,0-4.43,0.7-6.07,2.04c-5.11-2.16-10.61-3.18-15.94-4.16c-3.12-0.57-6.33-1.17-9.42-1.98
		c-4.49-1.19-14.82-4.76-18.69-13.15c0.18,0.4,0.29,0.85,0.22,1.35c-0.1,0.75-0.59,1.29-0.88,1.59c3.49,5.52,10.11,9.83,18.83,12.14
		c3.16,0.83,6.41,1.43,9.56,2.01c5.42,1,11.03,2.03,16.08,4.28c0.37,0.16,0.8,0.09,1.09-0.19c1.69-1.6,3.76-1.94,5.2-1.94
		c3.04,0,6.21,1.5,8.1,3.81c3.95,4.85,3.41,11.55,2.74,15.11c-0.52,2.75-1.39,4.42-2.75,5.25c-0.38,0.23-0.85,0.35-1.36,0.35
		c-1.15,0-2.39-0.65-2.4-1.69c0-0.06-0.03-0.12-0.04-0.18l-0.23,0.72c-0.13,0.43-0.53,0.7-0.96,0.7c-0.1,0-0.2-0.01-0.3-0.04
		c-0.28-0.09-0.49-0.29-0.6-0.54c-0.32,1.08-1.3,1.99-2.42,2.12c-1.05,0.12-2.16-0.43-2.77-1.32c-0.06-0.22-0.14-0.44-0.25-0.64
		c-0.05,0.15-0.08,0.3-0.13,0.45c-0.14,0.42-0.53,0.68-0.95,0.68c-0.1,0-0.21-0.02-0.32-0.05c-0.36-0.12-0.6-0.43-0.66-0.79
		c0.01,0.03,0,0.07,0.01,0.1c0.09,0.33,0.22,0.66,0.39,0.96c0.03,0.46-0.17,0.99-0.55,1.45c-0.58,0.7-1.43,1.06-2.14,0.89
		c-0.72-0.18-1.34-0.72-1.72-1.52c-0.36-0.73-0.47-1.58-0.34-2.35c-0.17,0.45-0.57,0.74-1.04,0.74c-0.06,0-0.12,0-0.17-0.01
		c-0.34-0.05-0.67-0.3-0.81-0.61c-0.13-0.28-0.12-0.54-0.04-0.78c0.02-0.18,0.08-0.36,0.2-0.51c0.04-0.06,0.09-0.11,0.15-0.16
		c0.02-0.02,0.03-0.05,0.05-0.07c0-0.06,0-0.13,0-0.19c-0.56,0.66-1.45,1.06-2.47,1.06c-0.91,0-1.74-0.34-2.29-0.9
		c0.01,0.1,0.01,0.22,0.03,0.32c0.07,0.55-0.32,1.05-0.86,1.12c-0.04,0-0.09,0.01-0.13,0.01c-0.5,0-0.93-0.37-0.99-0.87
		c0-0.03,0-0.06-0.01-0.09c0.03,1.56-0.64,3.12-1.88,4.39c-1.75,1.78-4.33,2.62-6.5,2.16c-0.17,0.38-0.35,0.74-0.54,1.09
		c-0.18,0.33-0.52,0.51-0.87,0.51c-0.17,0-0.33-0.04-0.49-0.13c-0.43-0.24-0.59-0.74-0.44-1.19c-0.01,0.04-0.04,0.07-0.05,0.11
		c-0.22,1.05-1.38,1.9-2.48,1.73c-0.8-0.12-1.55-0.81-1.79-1.65c0.03-0.3,0-0.61-0.07-0.91c-0.07,0.43-0.14,0.86-0.24,1.26
		c-0.11,0.46-0.52,0.76-0.97,0.76c-0.08,0-0.16-0.01-0.24-0.03c-0.38-0.09-0.65-0.39-0.73-0.75c-0.49,0.58-1.57,0.96-2.31,0.71
		c-1.48-0.52-2.43-2.16-3.28-3.78c-0.09-0.16-0.22-0.28-0.37-0.38l0.04,0.23c0.11,0.54-0.24,1.07-0.79,1.17
		c-0.07,0.01-0.13,0.02-0.2,0.02c-0.22,0-0.43-0.08-0.6-0.2c-0.11,0.08-0.44,0.22-1.08,0.22c-0.66,0-1.42-0.15-1.98-0.4
		c-4.6-2.05-9.74-3.04-15.71-3.04c-6.62,0-13.27,1.29-17.7,2.25c-1.78,0.39-3.56,0.8-5.35,1.21c-7.43,1.72-15.11,3.5-22.68,3.5
		c-1.56,0-3.09-0.08-4.56-0.23c-3.77-0.38-8.79-1.61-11.33-5.3c-2.08-3.02-2.16-6.94-2.04-11.38c0.01-0.38-0.19-0.73-0.52-0.91
		c-0.33-0.18-0.74-0.16-1.04,0.06c-1.51,1.04-3.31,1.69-5.14,1.85c0.22,0.45,0.44,0.92,0.65,1.4c0.22,0.51-0.01,1.1-0.52,1.32
		c-0.13,0.06-0.27,0.08-0.4,0.08c-0.39,0-0.75-0.22-0.92-0.6c-0.11-0.25-0.23-0.51-0.36-0.79c0.01,0.02,0.01,0.05,0.02,0.07
		c1.2,2.52,0.89,5.67-0.85,8.42c-1.72,2.72-4.39,4.35-7.15,4.35c-0.91,0-1.73-0.46-2.03-0.95c0.18-0.49,0.27-0.99,0.25-1.51
		c-0.12,0.45-0.25,0.91-0.42,1.42c-0.14,0.42-0.53,0.69-0.95,0.69c-0.1,0-0.21-0.02-0.31-0.05c-0.53-0.17-0.81-0.74-0.64-1.26
		c0.12-0.37,0.22-0.71,0.31-1.04c-0.26,0.49-0.39,1-0.36,1.51c-0.73,1.12-2.47,1.96-4.12,1.96c-0.52,0-1.43-0.09-2.07-0.67
		l-0.29-1.99c-0.01-0.16-0.05-0.32-0.07-0.48c-0.02,0.06-0.03,0.12-0.05,0.19c-0.12,0.45-0.52,0.74-0.96,0.74
		c-0.09,0-0.17-0.01-0.26-0.03c-0.4-0.11-0.67-0.44-0.73-0.83c0,0,0,0,0,0l0.08,0.57c-0.01,0.59-0.31,1.25-0.82,1.77
		c-0.79,0.81-1.84,1.07-2.63,0.57c-0.91-0.57-1.25-1.51-1.37-2.2c-0.23-1.32,0.14-2.85,0.96-3.9c0.01-0.01,0.01-0.03,0.02-0.04
		c-0.19,0.26-0.48,0.42-0.81,0.42c-0.08,0-0.16-0.01-0.23-0.03c-0.54-0.13-0.87-0.67-0.74-1.21c0.05-0.21,0.08-0.41,0.11-0.61
		c-2.87,0.62-5.82,0.95-8.79,0.95c-4.06,0-8.06-0.58-11.89-1.72c-0.96,0.29-1.94,0.55-2.92,0.75c0.1,0.28,0.3,0.51,0.6,0.62
		l0.41,0.14c5.49,1.86,10.65,3.9,13.47,8.25c1.57,2.43,1.79,6.04,0.53,8.8c-0.9,1.95-2.4,3.17-4.23,3.42
		c-1.29,0.18-2.77-0.65-3.03-1.54c-0.06,0.19-0.11,0.38-0.17,0.57c-0.14,0.42-0.53,0.7-0.95,0.7c-0.1,0-0.2-0.02-0.3-0.05
		c-0.53-0.17-0.82-0.73-0.65-1.26c0.17-0.53,0.33-1.08,0.48-1.63c-0.12,0.11-0.22,0.23-0.27,0.38c-0.12,0.31-0.18,0.63-0.19,0.96
		c-0.51,1.65-2.52,2.9-4.18,2.51c-1.59-0.37-2.8-2.19-2.65-3.9c0,0.01,0,0.01-0.01,0.02c-0.15,0.39-0.53,0.63-0.93,0.63
		c-0.12,0-0.25-0.02-0.37-0.07c-0.51-0.2-0.77-0.78-0.56-1.3c0.14-0.36,0.25-0.74,0.35-1.12c-0.04,0.06-0.09,0.12-0.12,0.19
		c-0.13,0.31-0.23,0.64-0.29,0.97c-0.36,0.66-1.1,1.12-1.8,1.12l-0.1,0c-0.99-0.06-1.9-1.07-1.87-2.06
		c0.01-0.41,0.16-0.86,0.31-1.34c0.14-0.44,0.28-0.89,0.36-1.39c0.43-2.91-1.84-5.49-4.31-6.54c-1.96-0.84-4.06-0.98-6.1-1.11
		c-0.4-0.03-0.81-0.05-1.21-0.09c-4.05-0.33-8.02-1.27-11.78-2.8c-2.75-1.12-4.24-2.42-4.57-4c-0.38-1.84,1.03-3.7,2.62-4.57
		c1.68-0.93,3.75-1.18,5.66-1.35c-0.45-0.44-0.88-0.89-1.26-1.39c-0.11-0.14-0.16-0.31-0.18-0.47c-1.74,0.2-3.56,0.56-5.19,1.46
		c-2.16,1.2-4.21,3.81-3.61,6.73c0.47,2.28,2.36,4.07,5.78,5.45c3.95,1.6,8.12,2.59,12.37,2.94c0.41,0.03,0.82,0.06,1.24,0.09
		c1.95,0.13,3.79,0.25,5.44,0.96c1.72,0.73,3.39,2.53,3.11,4.41c-0.05,0.34-0.16,0.7-0.28,1.08c-0.18,0.56-0.38,1.19-0.4,1.88
		c-0.07,2.06,1.68,3.99,3.74,4.12c0.76,0.05,1.52-0.15,2.18-0.52c0.56,1.89,2.07,3.48,3.98,3.92c0.36,0.08,0.74,0.13,1.12,0.13
		c1.75,0,3.43-0.89,4.5-2.25c1.08,1.12,2.86,1.72,4.37,1.51c2.53-0.35,4.58-1.97,5.77-4.57c1.56-3.4,1.29-7.7-0.67-10.72
		c-1.4-2.15-3.29-3.8-5.45-5.13c3.95,0.37,7.99,0.2,11.89-0.51c-0.37,1.11-0.48,2.32-0.28,3.45c0.27,1.54,1.08,2.79,2.28,3.55
		c1.57,0.98,3.68,0.6,5.12-0.87c0.03-0.03,0.06-0.06,0.09-0.09c0.86,0.92,2.15,1.43,3.65,1.43c1.92,0,3.85-0.8,5.09-2.02
		c0.78,0.75,1.95,1.23,3.18,1.23c3.45,0,6.76-1.97,8.84-5.28c1.82-2.88,2.33-6.17,1.47-9.04c1.34-0.19,2.66-0.59,3.87-1.19
		c-0.04,3.43,0.21,7.56,2.43,10.78c2.39,3.46,6.69,5.53,12.78,6.15c1.53,0.16,3.14,0.24,4.76,0.24c7.8,0,15.59-1.8,23.13-3.55
		c1.78-0.41,3.55-0.82,5.32-1.21c4.34-0.95,10.85-2.21,17.27-2.21c5.68,0,10.55,0.94,14.89,2.87c0.82,0.37,1.84,0.57,2.79,0.57
		c0.87,0,1.59-0.17,2.13-0.51c0.85,1.37,1.91,2.56,3.47,3.11c1.36,0.48,3.05,0.06,4.09-0.86c0.66,0.82,1.6,1.4,2.63,1.55
		c1.75,0.25,3.52-0.74,4.34-2.24c2.89,0.81,6.43-0.26,8.75-2.63c1.13-1.15,1.89-2.51,2.24-3.93c0.73,0.37,1.57,0.57,2.46,0.57
		c0,0,0,0,0,0c0.75,0,1.46-0.14,2.11-0.4c0.05,0.75,0.25,1.49,0.58,2.16c0.65,1.34,1.73,2.25,3.04,2.58
		c1.44,0.36,3.09-0.26,4.16-1.55c0.26-0.31,0.47-0.64,0.63-0.97c0.97,0.65,2.14,0.98,3.31,0.83c1.42-0.17,2.69-1.04,3.47-2.22
		c1.49,1.3,4.01,1.49,5.62,0.51c2.46-1.5,3.27-4.48,3.67-6.59c0.73-3.9,1.3-11.27-3.16-16.74
		C272.3,112.26,268.6,110.52,264.93,110.52z"/>
	<path class="st2" d="M110.78,139.86c0-0.1-0.01-0.2,0.02-0.29C110.77,139.66,110.77,139.76,110.78,139.86z"/>
	<path class="st2" d="M255.34,135.82c0.04-0.19,0.1-0.37,0.17-0.54c-0.04,0.09-0.08,0.18-0.13,0.27
		C255.38,135.64,255.36,135.73,255.34,135.82z"/>
	<path class="st2" d="M255.62,134.8c0,0.05-0.02,0.09-0.02,0.14C255.61,134.89,255.62,134.84,255.62,134.8z"/>
	<path class="st2" d="M107.16,136.44c-0.02,0.06-0.05,0.12-0.07,0.17C107.12,136.56,107.14,136.51,107.16,136.44z"/>
	<path class="st2" d="M259.65,136.29c0-0.07,0.01-0.15,0.03-0.22C259.66,136.15,259.65,136.22,259.65,136.29z"/>
	<path class="st0" d="M181.74,92.82c-0.38-1.06,0.07-2.09,0.36-2.77c7.77-17.95,8.23-40.4,1.27-60.2
		c-5.04-0.14-9.98-1.56-14.33-4.11c-1.06-0.62-2.09-1.31-3.1-1.98c-2.72-1.82-5.29-3.53-8.28-3.95c-0.92-0.13-2.02,0.17-2.43,0.63
		c-0.13,0.14-0.17,0.28-0.15,0.46c0.05,0.46,0.64,0.91,1.19,1.29l5,3.51c0.41,0.29,0.54,0.83,0.32,1.27
		c-0.22,0.45-0.74,0.65-1.21,0.49c-1.71-0.58-3.65-1.24-5.51-1.24c-0.43,0-0.85,0.04-1.24,0.11c-1.51,0.27-3.05,1.39-3.52,2.79
		c1.41,0.41,2.77,0.97,4.05,1.68l2.58,0.72c0.48,0.13,0.78,0.59,0.72,1.08c-0.06,0.49-0.47,0.86-0.96,0.88l-5.74,0.17l-2.8,0.17
		c-0.13,0.04-0.25,0.08-0.36,0.14c-0.19,0.12-0.28,0.34-0.27,0.41c0.04,0.07,0.31,0.22,0.44,0.29l3.54,1.96
		c0.43,0.24,0.62,0.75,0.46,1.21c-0.16,0.46-0.63,0.73-1.11,0.66c-0.27-0.05-0.55-0.08-0.82-0.1c-0.09,0.05-0.18,0.09-0.28,0.12
		l-6.12,1.54c-1.8,1.09-3.42,2.66-4.62,4.57c-2.22,3.54-3.26,8.18-3.19,14.19c0.01,0.6,0.03,1.16,0.06,1.71
		c0.38-4.33,2.66-8.14,6.06-10.02c2.51-1.39,5.66-1.68,8.33-0.76c2.76,0.95,5.01,3.13,6.02,5.82c0.6,1.6,0.79,3.44,0.55,5.33
		c-0.41,3.27-2.04,6.26-4.47,8.23c-1.94,1.56-4.45,2.46-6.9,2.46c-0.75,0-1.49-0.08-2.2-0.24c-2.89-0.65-5.37-2.67-6.58-5.26
		c0.09,0.34,0.19,0.67,0.29,0.99c0.37,1.12,0.87,2.24,1.35,3.33c0.85,1.92,1.73,3.92,2.03,6.1c0.59,4.25-1.08,8.2-2.7,12.03
		c-1.38,3.27-2.69,6.36-2.72,9.62c-0.04,5.2,3.59,10.53,9.04,13.26c4.48,2.24,10.17,3,17.07,2.26c7.72-0.83,13.81-3.17,18.09-6.95
		c3.47-3.07,5.78-6.98,7.5-11.46c-0.63-0.12-1.25-0.25-1.87-0.4C183.93,94.68,182.25,94.27,181.74,92.82z M149.12,45.95
		c-0.54,0.36-1.19,0.55-1.84,0.54c-0.69,0-1.36-0.22-2.04-0.2c-1.23,0.03-2.32,0.79-3.25,1.59c-0.14,0.12-0.28,0.24-0.46,0.27
		c-0.33,0.05-0.62-0.3-0.63-0.63c-0.01-0.34,0.18-0.65,0.39-0.91c1.09-1.35,2.81-2.02,4.49-2.45c0.69-0.18,1.43-0.32,2.12-0.12
		c0.54,0.16,1,0.52,1.42,0.9c0.08,0.07,0.17,0.15,0.21,0.25C149.64,45.48,149.38,45.78,149.12,45.95z M172.17,42.15
		c0.7-1.91,2.69-3.17,4.71-3.38c2.03-0.21,4.06,0.48,5.8,1.54c1.04,0.63,2.09,1.56,2.13,2.78c0.01,0.28-0.08,0.62-0.34,0.73
		c-0.18,0.08-0.39,0.01-0.57-0.07c-1.01-0.47-1.55-1.56-2.32-2.37c-1.06-1.11-2.65-1.68-4.18-1.52c-1.61,0.18-3.1,1.17-3.93,2.56
		c-0.26,0.44-0.73,1-1.16,0.73C171.99,42.97,172.04,42.5,172.17,42.15z M166.09,55.48c1.57-2.14,3.52-3.79,5.63-4.79
		c2.38-1.12,5.08-1.41,7.42-0.8c2.44,0.64,4.71,2.32,6.23,4.6c1.36,2.05,2.15,4.58,2.3,7.33c0.15,2.87-0.44,5.46-1.71,7.5
		c-2.23,3.56-6.72,5.69-12.02,5.69l-0.26,0c-1.61-0.02-2.9-0.22-4.05-0.63c-3.4-1.2-6.03-4.63-6.53-8.54
		C162.67,62.43,163.76,58.65,166.09,55.48z M159.39,103.53c-0.83,1.29-1.73,2.17-2.75,2.7c-0.65,0.33-1.37,0.51-2.08,0.51
		c-0.69,0-1.35-0.17-1.89-0.5c-0.21-0.13-0.41-0.28-0.62-0.43c-0.42-0.31-0.88-0.61-1.19-0.61c-0.4,0.86-1.3,1.45-2.26,1.45
		c-1.12-0.02-2.1-0.79-2.38-1.82c-0.03-0.11-0.05-0.22-0.07-0.32c-0.03-0.17-0.06-0.33-0.13-0.43c-0.13-0.23-0.47-0.36-0.82-0.5
		l-0.11-0.05c-4.69-1.88-6.53-7.6-5.6-12.05c0.3-1.43,0.81-2.66,1.51-3.65c0.94-1.32,2.33-2.39,4.03-3.08
		c1.3-0.53,2.71-0.8,4.18-0.8c3.85,0,7.62,1.87,9.84,4.87C162.15,92.98,162.29,99.04,159.39,103.53z M166.32,109.33
		c-0.26,0.47-0.78,0.76-1.38,0.76c-0.35,0-0.69-0.1-0.97-0.28c-0.59-0.39-0.97-1.11-1.05-1.99c-0.1-1.28,0.41-2.43,0.9-3.55
		c0.35-0.8,0.69-1.56,0.81-2.34c0.04-0.25,0.25-0.43,0.49-0.43h0c0.25,0,0.46,0.18,0.49,0.43l0.84,5.92
		C166.52,108.24,166.6,108.82,166.32,109.33z"/>
	<path class="st2" d="M136.8,72.33c0.63,1.47,1.18,2.91,1.39,4.42c0.51,3.7-0.98,7.23-2.56,10.97c-1.4,3.31-2.85,6.72-2.88,10.38
		c-0.05,5.95,4.03,12,10.14,15.06c3.64,1.82,8.03,2.75,13.04,2.75c1.62,0,3.35-0.1,5.14-0.29c8.14-0.87,14.6-3.38,19.2-7.44
		c0.2-0.18,0.39-0.38,0.59-0.56c-0.19-0.11-0.35-0.28-0.44-0.5c-0.16-0.42-0.02-0.9,0.34-1.16c3.16-2.32,4.56-6.36,5.73-10.72
		c-0.02,0-0.03-0.01-0.05-0.01c-1.72,4.49-4.02,8.39-7.5,11.46c-4.28,3.78-10.37,6.12-18.09,6.95c-6.9,0.74-12.59-0.02-17.07-2.26
		c-5.45-2.73-9.08-8.06-9.04-13.26c0.03-3.26,1.33-6.35,2.72-9.62c1.62-3.83,3.29-7.78,2.7-12.03c-0.3-2.18-1.18-4.17-2.03-6.1
		c-0.48-1.09-0.98-2.21-1.35-3.33c-0.11-0.32-0.2-0.65-0.29-0.99c-0.15-0.32-0.29-0.65-0.4-0.99c-0.39-1.2-0.54-2.57-0.46-4.08
		c0.01-0.17,0.04-0.33,0.06-0.5c-0.03-0.55-0.05-1.11-0.06-1.71c-0.07-6.01,0.97-10.65,3.19-14.19c1.2-1.91,2.81-3.48,4.62-4.57
		l-1.65,0.42c-0.47,0.12-0.96-0.12-1.16-0.56c-0.03-0.07-0.07-0.14-0.1-0.21c-1.31,1.08-2.47,2.38-3.4,3.86
		c-2.43,3.88-3.57,8.87-3.49,15.28c0.04,3.59,0.44,6.4,1.26,8.86c0.32,0.97,0.72,1.9,1.12,2.82c0.1,0.23,0.2,0.46,0.3,0.69
		C136.47,71.58,136.64,71.95,136.8,72.33z"/>
	<path class="st2" d="M151.77,37.82c0.16-0.46-0.03-0.97-0.46-1.21l-3.54-1.96c-0.13-0.07-0.4-0.22-0.44-0.29
		c-0.01-0.06,0.08-0.29,0.27-0.41c0.1-0.06,0.23-0.11,0.36-0.14l-1.01,0.06c0.65,1.17,1.64,2.14,2.83,2.77
		c0.37,0.19,0.58,0.59,0.53,1c-0.04,0.31-0.21,0.57-0.47,0.73c0.28,0.02,0.55,0.05,0.82,0.1C151.14,38.55,151.61,38.28,151.77,37.82
		z"/>
	<path class="st2" d="M149.78,29.01c0.11,0.03,0.21,0.07,0.32,0.1c0.47-1.4,2.01-2.52,3.52-2.79c0.4-0.07,0.81-0.11,1.24-0.11
		c1.86,0,3.8,0.66,5.51,1.24c0.47,0.16,0.99-0.05,1.21-0.49c0.23-0.44,0.09-0.99-0.32-1.27l-5-3.51c-0.55-0.39-1.14-0.84-1.19-1.29
		c-0.02-0.18,0.03-0.32,0.15-0.46c0.41-0.46,1.51-0.75,2.43-0.63c2.99,0.42,5.56,2.14,8.28,3.95c1,0.67,2.04,1.36,3.1,1.98
		c4.35,2.55,9.29,3.96,14.33,4.11c-0.08-0.21-0.14-0.43-0.22-0.65c-0.1-0.29-0.07-0.62,0.1-0.88s0.45-0.43,0.75-0.46
		c0.03,0,0.06,0,0.09,0c-4.93-0.02-9.79-1.36-14.05-3.85c-1.01-0.59-2.02-1.27-3-1.92c-2.79-1.86-5.67-3.79-9.11-4.27
		c-0.24-0.03-0.48-0.05-0.74-0.05c-1.1,0-2.59,0.35-3.46,1.33c-0.51,0.57-0.73,1.27-0.65,2.02c0.16,1.38,1.37,2.24,2.03,2.7
		l0.63,0.44c-0.84-0.07-1.69-0.04-2.48,0.1c-1.2,0.21-2.4,0.79-3.35,1.61C150.06,27.01,150.06,28.03,149.78,29.01z"/>
	<path class="st2" d="M157.46,32.59c0.06-0.49-0.25-0.95-0.72-1.08l-2.58-0.72c0.44,0.24,0.86,0.49,1.28,0.77
		c0.36,0.24,0.53,0.68,0.42,1.09c-0.11,0.42-0.48,0.72-0.91,0.74l-4.2,0.25l5.74-0.17C156.99,33.46,157.4,33.08,157.46,32.59z"/>
	<path class="st3" d="M49.67,71.06c-2.02-9.89,2.2-21.18,11.27-30.21l0.63-0.63c2.32-2.29,4.73-4.65,4.94-7.6
		c0.04-0.57-0.09-0.7-0.09-0.71c-0.02-0.01-0.13-0.1-0.57-0.11l-0.19,0c-1.46,0-2.92,0.56-4.17,1.12
		c-9.23,4.09-17.2,12.44-22.45,23.5c-3.36,7.08-6.91,17.98-4.77,29.77c0.58,3.2,1.6,6.27,2.97,9.11c0.4-0.1,0.84,0.04,1.08,0.4
		c0.08,0.12,0.13,0.26,0.15,0.4c1.03,0.35,2.08,0.64,3.13,0.71c0.24,0.02,0.48,0.02,0.72,0.03c0.58,0.01,1.17,0.03,1.79,0.16
		c1.34,0.29,2.53,1.19,3.28,2.47c0.36,0.62,0.59,1.29,0.7,1.96c0.11,0.09,0.22,0.18,0.31,0.26l0.2,0.17
		c0.16,0.13,0.35,0.23,0.53,0.34c0.19,0.07,0.37,0.16,0.54,0.26c0.2,0.08,0.4,0.17,0.6,0.21c0.21,0.04,0.42,0.09,0.63,0.17
		c1.41-5.62,4.17-10.9,8.05-15.2C53.84,82.01,50.8,76.58,49.67,71.06z"/>
	<path class="st2" d="M50.85,111.83c0.18,0,0.36-0.05,0.52-0.15c0.29-0.18,0.47-0.5,0.48-0.84c0-0.32,0.02-0.64,0.04-0.97
		l-0.68-0.27l-0.07,0.29c-0.05,0.21-0.18,0.39-0.35,0.53c-0.04,0.1-0.09,0.2-0.16,0.28c-0.19,0.2-0.46,0.32-0.73,0.32
		c-0.03,0-0.06,0-0.09,0c-0.33-0.03-0.66-0.08-0.99-0.12c0.4,0.23,0.81,0.44,1.21,0.64c0.13,0.06,0.25,0.14,0.37,0.2
		C50.55,111.8,50.7,111.83,50.85,111.83z"/>
	<path class="st2" d="M36.84,95.5c0.03-0.02,0.06-0.05,0.09-0.07c0.1-0.07,0.2-0.1,0.31-0.13c-1.37-2.84-2.39-5.91-2.97-9.11
		c-2.14-11.78,1.42-22.69,4.77-29.77C44.29,45.35,52.27,37,61.5,32.91c1.25-0.55,2.71-1.12,4.17-1.12l0.19,0
		c0.44,0.02,0.55,0.1,0.57,0.11c0.01,0,0.14,0.13,0.09,0.71c-0.22,2.95-2.62,5.32-4.94,7.6l-0.63,0.63
		c-9.08,9.03-13.29,20.32-11.27,30.21c1.12,5.52,4.17,10.94,9.29,16.56c-3.88,4.3-6.64,9.58-8.05,15.2
		c0.19,0.07,0.38,0.17,0.56,0.32c0.3,0.25,0.46,0.56,0.56,0.77c0.26,0.5,0.39,0.95,0.39,1.35c1.19-6.32,4.19-12.3,8.63-16.96
		c0.37-0.38,0.37-0.99,0-1.37c-0.19-0.2-0.35-0.4-0.53-0.6c-4.91-5.37-7.83-10.5-8.89-15.68c-1.88-9.23,2.13-19.84,10.72-28.39
		l0.63-0.62c2.47-2.43,5.26-5.18,5.53-8.88c0.07-1.01-0.17-1.79-0.72-2.31c-0.59-0.55-1.35-0.64-1.87-0.66l-0.26,0
		c-1.83,0-3.54,0.65-4.98,1.29c-9.67,4.28-18,12.97-23.45,24.47c-3.48,7.34-7.16,18.67-4.93,30.98c0.52,2.84,1.36,5.59,2.47,8.18
		L36.84,95.5z"/>
	<path class="st3" d="M205.55,91.69c2.08-0.7,4.22-1.42,6.47-1.63c0.85-0.41,1.69-0.84,2.51-1.31c1.01-0.58,1.81-1.11,2.4-1.8
		c0.82-0.97,1.23-2.27,1.54-3.54c2.6-10.51,0.09-22.93-7.05-34.97c-3.39-5.71-6.95-9.92-10.9-12.89c-3.7-2.78-9.58-5.74-15.02-5.76
		c6.89,20.11,6.33,42.82-1.55,61.04c-0.17,0.39-0.43,0.98-0.31,1.3c0.16,0.44,1.11,0.67,1.42,0.75c2.59,0.64,5.28,0.99,7.99,1.08
		c3.49-0.03,6.98-0.55,10.31-1.56C204.08,92.19,204.81,91.94,205.55,91.69z"/>
	<path class="st2" d="M183.25,28.32c-0.17,0.26-0.2,0.59-0.1,0.88c0.08,0.21,0.14,0.43,0.22,0.65c6.96,19.8,6.5,42.25-1.27,60.2
		c-0.29,0.68-0.74,1.71-0.36,2.77c0.52,1.45,2.2,1.87,2.83,2.02c0.62,0.15,1.24,0.28,1.87,0.4c0.02,0,0.03,0.01,0.05,0.01
		c0.08-0.28,0.15-0.56,0.23-0.84c0.13-0.49,0.6-0.81,1.1-0.74c1.73,0.24,3.47,0.33,5.22,0.32c-2.71-0.1-5.4-0.45-7.99-1.08
		c-0.31-0.08-1.26-0.31-1.42-0.75c-0.11-0.32,0.14-0.91,0.31-1.3c7.88-18.21,8.44-40.93,1.55-61.04c5.45,0.02,11.33,2.99,15.02,5.76
		c3.94,2.96,7.51,7.18,10.9,12.89c7.15,12.04,9.65,24.46,7.05,34.97c-0.31,1.26-0.72,2.56-1.54,3.54c-0.58,0.69-1.38,1.22-2.4,1.8
		c-0.82,0.47-1.66,0.9-2.51,1.31c0.27-0.02,0.54-0.05,0.81-0.05c0.35-0.04,0.71,0.18,0.9,0.49c0.17,0.28,0.17,0.62,0.04,0.92
		c0.09-0.05,0.19-0.1,0.28-0.15c0.49-0.26,0.99-0.5,1.48-0.78c0.97-0.55,2.07-1.23,2.93-2.24c1.09-1.29,1.6-2.92,1.96-4.35
		c2.73-11.02,0.14-23.97-7.28-36.47c-3.52-5.94-7.26-10.34-11.42-13.46c-5.14-3.86-11.22-6.16-16.28-6.16
		c-0.45,0-0.89,0.02-1.33,0.06c-0.03,0-0.06,0-0.09,0C183.69,27.89,183.42,28.06,183.25,28.32z"/>
	<path class="st3" d="M129.41,27.47c-0.43-3.51,0.06-7.09,1.39-10.36c0.21-0.51,0.79-0.76,1.3-0.55c0.51,0.21,0.76,0.79,0.55,1.3
		c-1.21,2.95-1.64,6.19-1.26,9.36c0.06,0.49,0.21,0.86,0.36,1.1c0.23-0.05,0.47-0.03,0.68,0.08c4.18,2.18,7.59,5.68,9.67,9.9
		l4.87-1.23c-1.13-1.04-1.99-2.36-2.46-3.82c-0.1-0.29-0.05-0.62,0.13-0.87s0.46-0.42,0.77-0.43l5.84-0.35
		c-0.98-0.4-1.99-0.71-3.03-0.93c-0.31-0.07-0.57-0.28-0.7-0.57c-0.13-0.29-0.12-0.62,0.04-0.9c0.9-1.62,0.34-3.8-0.4-5.92
		c-1.7-4.87-3.65-9.72-5.8-14.41c-1.17-2.55-2.62-5.36-5.13-6.43c-0.71-0.3-1.49-0.46-2.32-0.46c-1.38,0-2.84,0.43-4.11,1.21
		c-1.76,1.07-3.32,2.8-4.77,5.28c-1.8,3.07-3.04,6.52-4.23,9.85c-3.97,11.07-8.08,22.52-9.03,34.41c-0.03,0.43-0.06,0.87,0.09,1.1
		c0.17,0.26,0.67,0.42,1.18,0.56c3.51,0.96,7.5,2.05,11.36,2.05h0c1.19,0,2.3-0.1,3.38-0.31c1.34-0.25,2.17-0.68,2.54-1.31
		c0.25-0.43,0.32-1,0.39-1.7c0.72-7.54,0.83-15.2,0.35-22.77C130.19,29.9,129.58,28.86,129.41,27.47z"/>
	<path class="st2" d="M141.79,40.45l1.65-0.42l6.12-1.54c0.1-0.03,0.2-0.07,0.28-0.12c0.25-0.16,0.43-0.42,0.47-0.73
		c0.05-0.41-0.16-0.81-0.53-1c-1.19-0.63-2.18-1.6-2.83-2.77l1.01-0.06l2.8-0.17l4.2-0.25c0.43-0.03,0.8-0.33,0.91-0.74
		c0.11-0.42-0.06-0.86-0.42-1.09c-0.42-0.27-0.85-0.53-1.28-0.77c-1.29-0.71-2.64-1.26-4.05-1.68c-0.11-0.03-0.21-0.07-0.32-0.1
		c0.28-0.98,0.28-2,0.13-3.04c-0.16-1.11-0.5-2.23-0.88-3.34c-1.72-4.93-3.7-9.84-5.88-14.59c-1.32-2.89-3-6.08-6.16-7.44
		c-2.47-1.06-5.68-0.7-8.27,0.88c-2.05,1.25-3.83,3.21-5.45,5.98c-1.89,3.23-3.16,6.77-4.39,10.19c-4.02,11.2-8.17,22.77-9.15,34.93
		c-0.05,0.57-0.12,1.51,0.39,2.32c0.59,0.94,1.69,1.24,2.34,1.42c3.64,1,7.76,2.12,11.89,2.12h0c1.3,0,2.57-0.12,3.75-0.34
		c1.94-0.37,3.21-1.11,3.89-2.27c0.49-0.84,0.59-1.81,0.65-2.52c0.7-7.36,0.84-14.82,0.42-22.21c3.23,2.08,5.83,5.07,7.44,8.58
		c0.03,0.07,0.07,0.14,0.1,0.21C140.83,40.34,141.32,40.57,141.79,40.45z M132.14,30.61c-0.04,0-0.08,0-0.12,0
		c-0.36,0-0.69-0.09-0.99-0.26c0.48,7.57,0.37,15.22-0.35,22.77c-0.07,0.7-0.14,1.27-0.39,1.7c-0.37,0.63-1.2,1.06-2.54,1.31
		c-1.08,0.21-2.18,0.31-3.38,0.31h0c-3.87,0-7.85-1.09-11.36-2.05c-0.5-0.14-1.01-0.3-1.18-0.56c-0.14-0.23-0.12-0.67-0.09-1.1
		c0.96-11.89,5.06-23.34,9.03-34.41c1.2-3.33,2.43-6.78,4.23-9.85c1.45-2.48,3.01-4.21,4.77-5.28c1.27-0.78,2.73-1.21,4.11-1.21
		c0.83,0,1.61,0.15,2.32,0.46c2.5,1.08,3.96,3.89,5.13,6.43c2.15,4.69,4.1,9.54,5.8,14.41c0.74,2.12,1.3,4.31,0.4,5.92
		c-0.16,0.28-0.17,0.61-0.04,0.9c0.13,0.29,0.39,0.5,0.7,0.57c1.04,0.22,2.05,0.54,3.03,0.93l-5.84,0.35
		c-0.31,0.02-0.59,0.18-0.77,0.43s-0.22,0.58-0.13,0.87c0.48,1.46,1.34,2.78,2.46,3.82l-4.87,1.23c-2.08-4.22-5.49-7.72-9.67-9.9
		c-0.21-0.11-0.45-0.13-0.68-0.08c0.1,0.16,0.2,0.27,0.28,0.28c0.54-0.07,1.02,0.39,1.05,0.94
		C133.11,30.11,132.69,30.58,132.14,30.61z"/>
	<path class="st2" d="M133.08,29.55c-0.03-0.55-0.51-1.01-1.05-0.94c-0.07-0.01-0.18-0.12-0.28-0.28c-0.15-0.24-0.3-0.61-0.36-1.1
		c-0.38-3.17,0.05-6.41,1.26-9.36c0.21-0.51-0.04-1.09-0.55-1.3c-0.51-0.21-1.1,0.04-1.3,0.55c-1.34,3.27-1.82,6.85-1.39,10.36
		c0.17,1.39,0.78,2.43,1.62,2.89c0.3,0.16,0.64,0.26,0.99,0.26c0.04,0,0.08,0,0.12,0C132.69,30.58,133.11,30.11,133.08,29.55z"/>
	<path class="st2" d="M248.15,127.37c-1.37-4.23-3.33-7.05-5.98-8.62c-2.52-1.5-5.67-1.77-8.4-0.72c-1.09,0.42-2.09,1.03-3.06,1.61
		c-1.46,0.89-2.85,1.73-4.36,1.79c-0.97,0.04-1.98-0.25-3.05-0.56l-0.62-0.18c-5.66-1.59-11.51-1.42-18.03-1.06
		c-1.54,0.09-3.08,0.18-4.62,0.27c-5.02,0.29-10.09,0.59-15.19,0.74c-0.77,0.61-1.57,1.17-2.43,1.66c-0.16,0.09-0.33,0.13-0.49,0.13
		c-0.35,0-0.69-0.18-0.87-0.51c-0.23-0.41-0.13-0.89,0.19-1.2c-7.62,0.12-15.25-0.16-22.74-1.34c-3.23-0.51-6.5-1.19-9.66-1.85
		l-0.04-0.01c-0.54-0.12-1.05,0.24-1.16,0.78c-0.11,0.54,0.25,1.07,0.79,1.19c3.19,0.67,6.48,1.35,9.76,1.87
		c13.88,2.17,28.15,1.34,41.95,0.53c1.54-0.09,3.08-0.18,4.61-0.27c6.33-0.35,12.02-0.52,17.37,0.99l0.6,0.17
		c1.17,0.34,2.4,0.7,3.69,0.64c2.03-0.08,3.7-1.1,5.32-2.08c0.93-0.57,1.81-1.1,2.73-1.46c2.14-0.82,4.7-0.6,6.67,0.57
		c2.21,1.32,3.88,3.78,5.1,7.52c0.38,1.16,0.44,2.81,0.49,4.4c0.03,0.95,0.07,1.84,0.17,2.65c0,0.03,0,0.06,0.01,0.09
		c0.07,0.5,0.5,0.87,0.99,0.87c0.04,0,0.09,0,0.13-0.01c0.55-0.07,0.93-0.57,0.86-1.12c-0.01-0.1-0.02-0.22-0.03-0.32
		c-0.07-0.67-0.1-1.43-0.13-2.24C248.67,130.58,248.61,128.79,248.15,127.37z"/>
	<path class="st2" d="M255.34,135.82c0.02-0.09,0.04-0.18,0.04-0.28c0.05-0.08,0.09-0.18,0.13-0.27c0.05-0.11,0.07-0.22,0.09-0.34
		c0.01-0.05,0.02-0.09,0.02-0.14c0-0.01,0-0.01,0-0.02v-0.1c0-4.38,0-8.52-1.78-12.59c-0.22-0.5-0.81-0.74-1.32-0.51
		c-0.51,0.22-0.74,0.81-0.51,1.32c1.58,3.6,1.61,7.44,1.61,11.51c0,0.06,0,0.13,0,0.19c-0.01,0.02-0.03,0.05-0.05,0.07
		c-0.06,0.05-0.11,0.1-0.15,0.16c-0.12,0.15-0.18,0.33-0.2,0.51c-0.07,0.23-0.08,0.5,0.04,0.78c0.14,0.31,0.48,0.56,0.81,0.61
		c0.06,0.01,0.12,0.01,0.17,0.01c0.47,0,0.87-0.29,1.04-0.74c0.01-0.01,0.01-0.02,0.02-0.04
		C255.34,135.92,255.33,135.87,255.34,135.82z"/>
	<path class="st2" d="M260.88,120.17c-0.24-0.5-0.83-0.71-1.33-0.48c-0.5,0.24-0.71,0.83-0.48,1.33c2.3,4.87,2.48,9.34,0.61,14.96
		c-0.01,0.03,0,0.07-0.01,0.1c-0.02,0.07-0.03,0.15-0.03,0.22c0,0.06,0.01,0.11,0.01,0.16c0.06,0.35,0.29,0.66,0.66,0.79
		c0.11,0.03,0.21,0.05,0.32,0.05c0.42,0,0.81-0.26,0.95-0.68c0.05-0.15,0.08-0.3,0.13-0.45
		C263.57,130.29,263.33,125.34,260.88,120.17z"/>
	<path class="st2" d="M270.34,128.45c-0.28-3.22-1.57-6.03-3.64-7.92c-0.41-0.37-1.04-0.34-1.41,0.07
		c-0.37,0.41-0.34,1.04,0.07,1.41c1.67,1.52,2.76,3.93,2.99,6.61c0.18,2.16-0.29,3.64-0.94,5.69l-0.31,0.99
		c-0.08,0.24-0.04,0.49,0.05,0.71c0.11,0.25,0.32,0.45,0.6,0.54c0.1,0.03,0.2,0.04,0.3,0.04c0.43,0,0.82-0.28,0.96-0.7l0.23-0.72
		l0.08-0.25C269.98,132.82,270.56,131.01,270.34,128.45z"/>
	<path class="st2" d="M240.18,132.99c-0.08-2.65-1.05-5.24-2.74-7.29c-0.35-0.43-0.98-0.49-1.41-0.14
		c-0.43,0.35-0.49,0.98-0.14,1.41c1.41,1.71,2.22,3.87,2.28,6.08c0.04,1.28-0.17,2.62-0.37,3.91c-0.27,1.75-0.82,3.38-1.57,4.73
		c-0.03,0.06-0.04,0.12-0.06,0.17c-0.15,0.45,0.01,0.95,0.44,1.19c0.15,0.09,0.32,0.13,0.49,0.13c0.35,0,0.69-0.18,0.87-0.51
		c0.19-0.35,0.37-0.71,0.54-1.09c0.59-1.31,1.03-2.77,1.27-4.31C240.01,135.89,240.23,134.46,240.18,132.99z"/>
	<path class="st2" d="M230.19,128.61c-0.21-0.51-0.8-0.75-1.31-0.54c-0.51,0.21-0.75,0.8-0.54,1.31c1.66,3.97,2.15,8.9,1.26,12.57
		c-0.04,0.16-0.03,0.31,0.01,0.46c0.08,0.36,0.35,0.66,0.73,0.75c0.08,0.02,0.16,0.03,0.24,0.03c0.45,0,0.86-0.31,0.97-0.76
		c0.1-0.4,0.17-0.83,0.24-1.26C232.41,137.28,231.82,132.51,230.19,128.61z"/>
	<path class="st2" d="M221.78,134.59c-0.54,0.11-0.89,0.63-0.79,1.17l0.75,3.8c0.05,0.25,0.19,0.46,0.38,0.6
		c0.17,0.13,0.38,0.2,0.6,0.2c0.06,0,0.13-0.01,0.2-0.02c0.54-0.11,0.89-0.63,0.79-1.17l-0.04-0.23l-0.71-3.57
		C222.84,134.83,222.32,134.48,221.78,134.59z"/>
	<path class="st2" d="M181.43,120.56c-0.07,0.04-0.13,0.11-0.19,0.16c-0.32,0.31-0.42,0.8-0.19,1.2c0.18,0.33,0.52,0.51,0.87,0.51
		c0.17,0,0.34-0.04,0.49-0.13c0.86-0.49,1.67-1.05,2.43-1.66c4.28-3.43,7.06-8.71,7.43-14.19c-0.67,0.11-1.35,0.22-2.02,0.32
		C189.73,112.4,186.37,117.76,181.43,120.56z"/>
	<path class="st2" d="M99.7,124.7l-0.06,0.03c-0.51,0.21-1.09-0.03-1.31-0.54c-0.21-0.51,0.03-1.09,0.54-1.31l3.33-1.38
		c1.69-2.44,3.12-5.11,4.21-7.96c1.55-4.05,2.57-8.75,3.09-14.36c0.29-3.11,0.48-6.76-0.37-10.3c-1.2-5.05-4.57-9.41-8.92-11.89
		c-1.4-0.8-2.91-1.4-4.47-1.77c-4.22-0.98-8.68-0.15-12.26,2.02c-2.15,1.3-3.98,3.09-5.25,5.27c-0.28,0.48-0.12,1.09,0.36,1.37
		c0.48,0.28,1.09,0.12,1.37-0.36c2.9-4.97,9.49-7.71,15.33-6.35c5.7,1.32,10.48,6.21,11.9,12.17c0.78,3.25,0.6,6.7,0.32,9.65
		c-0.51,5.43-1.48,9.95-2.97,13.83c-2.87,7.47-8.06,13.62-14.63,17.33c-6.81,3.84-15.12,4.82-22.22,2.61
		c-0.53-0.16-1.09,0.13-1.25,0.66c-0.16,0.53,0.13,1.09,0.66,1.25c2.7,0.84,5.56,1.25,8.45,1.25c2.07,0,4.15-0.22,6.21-0.64
		c0.98-0.2,1.96-0.45,2.92-0.75c2.16-0.66,4.25-1.53,6.23-2.64C94.2,130.04,97.16,127.59,99.7,124.7z"/>
	<path class="st2" d="M55.9,128.45c0.68,0.66,1.43,1.25,2.24,1.73c0.16,0.1,0.34,0.14,0.51,0.14c0.34,0,0.67-0.17,0.86-0.49
		c0.28-0.47,0.13-1.09-0.34-1.37c-0.64-0.38-1.23-0.84-1.78-1.36c-0.42-0.39-0.81-0.81-1.16-1.26c-0.34-0.44-0.96-0.52-1.4-0.19
		c-0.21,0.16-0.33,0.39-0.37,0.63c-0.02,0.1-0.01,0.2,0.01,0.3c0.02,0.17,0.07,0.33,0.18,0.47
		C55.02,127.56,55.45,128.02,55.9,128.45z"/>
	<path class="st2" d="M121.82,117.33c-5.21-1.48-10.37,0.35-16.09,2.71l-3.54,1.46l-3.33,1.38c-0.51,0.21-0.75,0.79-0.54,1.31
		c0.21,0.51,0.79,0.75,1.31,0.54l0.06-0.03l6.8-2.81c5.37-2.21,10.19-3.94,14.78-2.64c5.32,1.51,8.56,6.71,10.18,10.16
		c0.13,0.27,0.25,0.54,0.36,0.79c0.16,0.38,0.53,0.6,0.92,0.6c0.13,0,0.27-0.03,0.4-0.08c0.51-0.22,0.74-0.81,0.52-1.32
		c-0.21-0.48-0.43-0.94-0.65-1.4C130.23,122.37,126.3,118.6,121.82,117.33z"/>
	<path class="st2" d="M121.36,127.53c-0.11-0.54-0.63-0.9-1.18-0.79c-0.54,0.11-0.89,0.63-0.78,1.18c0.51,2.57,0.9,4.7,0.88,6.91
		c-0.01,1.76-0.12,3.03-0.59,4.73c-0.09,0.33-0.19,0.67-0.31,1.04c-0.17,0.53,0.12,1.09,0.64,1.26c0.1,0.03,0.21,0.05,0.31,0.05
		c0.42,0,0.81-0.27,0.95-0.69c0.17-0.51,0.3-0.98,0.42-1.42c0.45-1.76,0.56-3.15,0.58-4.95
		C122.3,132.26,121.78,129.64,121.36,127.53z"/>
	<path class="st2" d="M113.07,129.22c-0.16-0.53-0.71-0.84-1.24-0.68c-0.53,0.16-0.83,0.71-0.68,1.24c1.19,4.04,0.77,5.6-0.36,9.77
		c0,0,0,0.01,0,0.01c-0.03,0.1-0.02,0.2-0.02,0.29c0,0.03-0.01,0.06,0,0.09c0.05,0.38,0.33,0.72,0.73,0.83
		c0.09,0.02,0.17,0.03,0.26,0.03c0.44,0,0.84-0.29,0.96-0.74c0.02-0.07,0.03-0.13,0.05-0.19
		C113.91,135.71,114.4,133.73,113.07,129.22z"/>
	<path class="st2" d="M107.16,136.44c0.01-0.02,0.02-0.03,0.02-0.05c0.46-1.93,0.5-3.77,0.12-5.77c-0.1-0.54-0.62-0.89-1.17-0.79
		c-0.54,0.1-0.9,0.63-0.79,1.17c0.29,1.5,0.28,2.88,0.02,4.31c-0.04,0.2-0.06,0.41-0.11,0.61c-0.13,0.54,0.2,1.08,0.74,1.21
		c0.08,0.02,0.16,0.03,0.23,0.03c0.32,0,0.62-0.16,0.81-0.42c0.03-0.04,0.05-0.08,0.07-0.12
		C107.11,136.56,107.14,136.51,107.16,136.44z"/>
	<path class="st4" d="M158.55,102.99c2.63-4.08,2.5-9.8-0.3-13.59c-2.04-2.75-5.5-4.46-9.04-4.46c-1.34,0-2.62,0.25-3.8,0.73
		c-1.53,0.63-2.77,1.57-3.6,2.74c-0.62,0.88-1.08,1.98-1.35,3.28c-0.85,4.05,0.79,9.24,4.99,10.92l0.11,0.04
		c0.45,0.18,1.01,0.4,1.32,0.93c0.14,0.25,0.19,0.51,0.24,0.74c0.02,0.08,0.03,0.17,0.06,0.25c0.17,0.61,0.77,1.07,1.39,1.08
		c0,0,0,0,0,0c0.64,0,1.25-0.44,1.44-1.02l0.07-0.22l0.21-0.09c0.19-0.08,0.39-0.12,0.59-0.12c0.67,0,1.25,0.43,1.76,0.8
		c0.18,0.13,0.36,0.27,0.55,0.38c0.8,0.49,2.02,0.46,2.99-0.04C157.04,104.89,157.82,104.12,158.55,102.99z M154.53,91.72
		c-0.23,0.47-0.94,0.35-1.39,0.08c-0.96-0.59-1.72-1.6-2.84-1.78c-0.73-0.12-1.46,0.15-2.19,0.12c-0.73-0.03-1.57-0.61-1.4-1.33
		c1.5-0.38,3.06-0.76,4.59-0.5c1.53,0.26,3.03,1.34,3.27,2.88C154.6,91.36,154.61,91.56,154.53,91.72z"/>
	<path d="M149.21,83.93c-1.47,0-2.88,0.27-4.18,0.8c-1.7,0.7-3.1,1.76-4.03,3.08c-0.7,0.99-1.21,2.22-1.51,3.65
		c-0.93,4.45,0.91,10.17,5.6,12.05l0.11,0.05c0.35,0.14,0.69,0.27,0.82,0.5c0.06,0.11,0.09,0.26,0.13,0.43
		c0.02,0.11,0.04,0.22,0.07,0.32c0.28,1.03,1.27,1.8,2.38,1.82c0.95,0,1.86-0.6,2.26-1.45c0.31,0,0.77,0.3,1.19,0.61
		c0.21,0.15,0.41,0.3,0.62,0.43c0.55,0.33,1.2,0.5,1.89,0.5c0.71,0,1.42-0.18,2.08-0.51c1.02-0.52,1.92-1.41,2.75-2.7
		c2.89-4.49,2.75-10.55-0.33-14.73C156.84,85.79,153.07,83.93,149.21,83.93z M153.19,105.37c-0.18-0.11-0.36-0.25-0.55-0.38
		c-0.51-0.38-1.09-0.8-1.76-0.8c-0.2,0-0.4,0.04-0.59,0.12l-0.21,0.09l-0.07,0.22c-0.19,0.58-0.79,1.02-1.44,1.02c0,0,0,0,0,0
		c-0.63-0.01-1.23-0.48-1.39-1.08c-0.02-0.08-0.04-0.17-0.06-0.25c-0.04-0.23-0.1-0.49-0.24-0.74c-0.31-0.53-0.87-0.75-1.32-0.93
		l-0.11-0.04c-4.21-1.68-5.84-6.87-4.99-10.92c0.27-1.3,0.73-2.4,1.35-3.28c0.83-1.17,2.07-2.11,3.6-2.74
		c1.18-0.49,2.46-0.73,3.8-0.73c3.54,0,7,1.71,9.04,4.46c2.8,3.79,2.93,9.51,0.3,13.59c-0.73,1.14-1.51,1.91-2.37,2.35
		C155.21,105.84,153.99,105.86,153.19,105.37z"/>
	<path class="st5" d="M151.3,88.31c-1.53-0.26-3.09,0.12-4.59,0.5c-0.17,0.71,0.66,1.29,1.4,1.33c0.73,0.03,1.47-0.23,2.19-0.12
		c1.11,0.18,1.88,1.19,2.84,1.78c0.45,0.27,1.16,0.39,1.39-0.08c0.08-0.16,0.07-0.36,0.04-0.54
		C154.34,89.65,152.83,88.57,151.3,88.31z"/>
	<path class="st6" d="M164.94,104.22c-0.07,0.15-0.13,0.3-0.2,0.45c-0.46,1.05-0.9,2.03-0.82,3.06c0.04,0.55,0.27,1.01,0.6,1.23
		c0.25,0.16,0.74,0.21,0.92-0.12c0.11-0.2,0.08-0.5,0.03-0.85L164.94,104.22z"/>
	<path class="st2" d="M165.62,101.93c-0.04-0.25-0.25-0.43-0.49-0.43h0c-0.25,0-0.46,0.18-0.49,0.43c-0.12,0.79-0.45,1.54-0.81,2.34
		c-0.49,1.11-1,2.26-0.9,3.55c0.07,0.87,0.45,1.59,1.05,1.99c0.28,0.18,0.62,0.28,0.97,0.28c0.6,0,1.12-0.28,1.38-0.76
		c0.28-0.51,0.2-1.09,0.14-1.47L165.62,101.93z M165.44,108.85c-0.18,0.33-0.67,0.28-0.92,0.12c-0.33-0.22-0.55-0.68-0.6-1.23
		c-0.08-1.03,0.35-2.02,0.82-3.06c0.07-0.15,0.13-0.3,0.2-0.45l0.54,3.77C165.52,108.34,165.55,108.65,165.44,108.85z"/>
	<path class="st5" d="M143.4,69.86c2.61,0.59,5.65-0.16,7.83-1.92c2.13-1.72,3.56-4.36,3.92-7.24c0.21-1.66,0.05-3.25-0.46-4.62
		c-0.85-2.28-2.76-4.12-5.1-4.93c-0.88-0.3-1.82-0.46-2.79-0.46c-1.52,0-3.02,0.38-4.33,1.11c-3.03,1.68-5.13,5.32-5.34,9.29
		c-0.07,1.32,0.06,2.51,0.39,3.54C138.35,67.18,140.66,69.24,143.4,69.86z M139.12,58.56c0.76-1.13,2.1-1.9,3.6-2.06
		c1.29-0.14,2.65,0.15,3.99,0.81c1.05,0.52,1.86,1.16,2.42,1.92c0.7,0.95,1.07,2.22,1.06,3.57c-0.03,2.67-1.59,5.15-3.88,6.17
		c-0.71,0.31-1.51,0.48-2.32,0.48h0c-1.89,0-3.67-0.89-4.65-2.31c-1.05-1.54-1.15-3.48-1.13-4.8
		C138.21,61.2,138.33,59.74,139.12,58.56z"/>
	<path class="st2" d="M143.07,71.33c0.71,0.16,1.45,0.24,2.2,0.24c2.45,0,4.97-0.9,6.9-2.46c2.43-1.96,4.06-4.96,4.47-8.23
		c0.24-1.89,0.05-3.74-0.55-5.33c-1.01-2.7-3.26-4.87-6.02-5.82c-2.67-0.92-5.83-0.63-8.33,0.76c-3.4,1.88-5.68,5.69-6.06,10.02
		c-0.01,0.17-0.05,0.33-0.06,0.5c-0.08,1.51,0.08,2.88,0.46,4.08c0.11,0.34,0.25,0.67,0.4,0.99
		C137.7,68.66,140.18,70.67,143.07,71.33z M137.13,61.08c0.21-3.96,2.31-7.61,5.34-9.29c1.31-0.73,2.81-1.11,4.33-1.11
		c0.97,0,1.9,0.15,2.79,0.46c2.34,0.81,4.25,2.65,5.1,4.93c0.51,1.37,0.67,2.97,0.46,4.62c-0.36,2.88-1.79,5.53-3.92,7.24
		c-2.18,1.76-5.22,2.51-7.83,1.92c-2.74-0.62-5.05-2.68-5.88-5.24C137.19,63.6,137.06,62.41,137.13,61.08z"/>
	<path class="st5" d="M164.6,65.65c0.43,3.36,2.66,6.3,5.54,7.31c0.99,0.35,2.13,0.52,3.57,0.54l0.23,0c4.78,0,8.79-1.86,10.74-4.98
		c1.4-2.24,1.58-4.84,1.49-6.63c-0.13-2.48-0.84-4.76-2.05-6.58c-1.31-1.98-3.27-3.43-5.36-3.98c-0.69-0.18-1.41-0.27-2.15-0.27
		c-1.42,0-2.9,0.34-4.25,0.98c-1.89,0.89-3.64,2.38-5.06,4.32C165.19,59.23,164.21,62.62,164.6,65.65z M166.62,62.79
		c0.61-1.94,2.22-4.32,4.72-4.64c1.49-0.19,2.96,0.42,4.16,1.02c1.37,0.68,2.88,1.58,3.76,3.06c0.7,1.19,0.96,2.74,0.76,4.61
		c-0.16,1.51-0.54,2.61-1.2,3.47c-0.41,0.54-0.97,1.01-1.66,1.41c-1.05,0.61-2.25,0.97-3.46,1.02c-0.11,0.01-0.22,0.01-0.33,0.01
		c-2.9,0-5.65-1.8-6.69-4.37C166.02,66.74,166,64.75,166.62,62.79z"/>
	<path class="st2" d="M169.64,74.38c1.15,0.41,2.44,0.6,4.05,0.63l0.26,0c5.3,0,9.79-2.13,12.02-5.69c1.27-2.04,1.87-4.63,1.71-7.5
		c-0.15-2.75-0.94-5.28-2.3-7.33c-1.51-2.28-3.78-3.96-6.23-4.6c-2.34-0.62-5.04-0.32-7.42,0.8c-2.12,1-4.06,2.65-5.63,4.79
		c-2.33,3.18-3.42,6.96-2.98,10.37C163.61,69.75,166.24,73.18,169.64,74.38z M172.36,52.04c1.36-0.64,2.83-0.98,4.25-0.98
		c0.74,0,1.46,0.09,2.15,0.27c2.09,0.55,4.05,2,5.36,3.98c1.21,1.82,1.92,4.1,2.05,6.58c0.09,1.78-0.09,4.38-1.49,6.63
		c-1.95,3.12-5.96,4.98-10.74,4.98l-0.23,0c-1.44-0.02-2.58-0.19-3.57-0.54c-2.88-1.02-5.11-3.95-5.54-7.31
		c-0.39-3.03,0.59-6.42,2.7-9.29C168.72,54.43,170.47,52.93,172.36,52.04z"/>
	<path class="st7" d="M173.47,42.43c0.83-1.39,2.32-2.39,3.93-2.56c1.52-0.17,3.11,0.41,4.18,1.52c0.77,0.81,1.31,1.9,2.32,2.37
		c0.18,0.08,0.39,0.14,0.57,0.07c0.26-0.11,0.35-0.44,0.34-0.73c-0.04-1.22-1.09-2.15-2.13-2.78c-1.74-1.06-3.78-1.76-5.8-1.54
		c-2.03,0.21-4.01,1.47-4.71,3.38c-0.13,0.35-0.17,0.81,0.14,1.01C172.74,43.44,173.2,42.87,173.47,42.43z"/>
	<path class="st7" d="M149.31,44.94c-0.42-0.38-0.88-0.74-1.42-0.9c-0.69-0.2-1.42-0.06-2.12,0.12c-1.68,0.43-3.4,1.1-4.49,2.45
		c-0.21,0.26-0.4,0.57-0.39,0.91c0.01,0.34,0.3,0.68,0.63,0.63c0.18-0.03,0.32-0.15,0.46-0.27c0.93-0.8,2.02-1.57,3.25-1.59
		c0.69-0.02,1.36,0.2,2.04,0.2c0.65,0,1.3-0.19,1.84-0.54c0.26-0.17,0.52-0.47,0.4-0.76C149.48,45.09,149.4,45.01,149.31,44.94z"/>
	<path class="st4" d="M167.57,63.09c-0.55,1.74-0.54,3.49,0.04,4.92c0.93,2.29,3.45,3.84,6.04,3.74c1.05-0.05,2.09-0.36,3-0.89
		c0.58-0.34,1.04-0.72,1.37-1.16c0.54-0.71,0.86-1.65,0.99-2.96c0.17-1.65-0.04-2.99-0.63-3.99c-0.74-1.26-2.1-2.06-3.34-2.68
		c-0.94-0.47-2.04-0.95-3.13-0.95c-0.15,0-0.3,0.01-0.45,0.03C169.43,59.4,168.09,61.43,167.57,63.09z M171.91,65.55
		c0.25,0.45,0.26,1.01,0.09,1.5c-0.06,0.18-0.15,0.36-0.27,0.51c-0.38,0.49-1.08,0.71-1.67,0.53c-0.59-0.18-1.04-0.76-1.08-1.38
		c-0.02-0.31,0.06-0.62,0.2-0.91c0.27-0.58,0.84-1.05,1.48-1.04C171.18,64.77,171.66,65.09,171.91,65.55z"/>
	<path d="M173.37,72.75c0.11,0,0.22,0,0.33-0.01c1.21-0.06,2.41-0.41,3.46-1.02c0.69-0.4,1.25-0.88,1.66-1.41
		c0.66-0.86,1.04-1.96,1.2-3.47c0.19-1.87-0.06-3.42-0.76-4.61c-0.87-1.48-2.39-2.38-3.76-3.06c-1.2-0.6-2.66-1.21-4.16-1.02
		c-2.5,0.32-4.11,2.7-4.72,4.64c-0.62,1.96-0.6,3.95,0.07,5.59C167.72,70.95,170.47,72.75,173.37,72.75z M175.05,60.06
		c1.24,0.62,2.6,1.42,3.34,2.68c0.59,1,0.8,2.35,0.63,3.99c-0.14,1.32-0.45,2.26-0.99,2.96c-0.33,0.43-0.79,0.82-1.37,1.16
		c-0.91,0.53-1.95,0.84-3,0.89c-2.59,0.11-5.12-1.45-6.04-3.74c-0.58-1.43-0.59-3.17-0.04-4.92c0.52-1.66,1.86-3.69,3.89-3.95
		c0.15-0.02,0.3-0.03,0.45-0.03C173.01,59.11,174.11,59.59,175.05,60.06z"/>
	<path class="st4" d="M139.95,59.12c-0.64,0.96-0.74,2.23-0.75,3.23c-0.03,1.89,0.28,3.23,0.96,4.23c0.79,1.16,2.26,1.88,3.82,1.88
		h0c0.67,0,1.33-0.14,1.92-0.4c1.91-0.85,3.26-3.01,3.29-5.26c0.01-1.14-0.3-2.19-0.87-2.97c-0.46-0.62-1.15-1.17-2.05-1.61
		c-0.98-0.48-1.99-0.74-2.92-0.74c-0.17,0-0.35,0.01-0.52,0.03C141.61,57.63,140.54,58.23,139.95,59.12z M141.06,64.22
		c0.03-0.3,0.18-0.59,0.39-0.84c0.47-0.56,1.26-0.85,1.8-0.25c0.34,0.37,0.45,0.9,0.43,1.41c-0.02,0.36-0.1,0.72-0.33,1
		C142.43,66.68,140.93,65.4,141.06,64.22z"/>
	<path d="M143.98,69.45L143.98,69.45c0.81,0,1.61-0.17,2.32-0.48c2.29-1.02,3.85-3.5,3.88-6.17c0.01-1.35-0.36-2.62-1.06-3.57
		c-0.55-0.75-1.37-1.4-2.42-1.92c-1.34-0.66-2.7-0.95-3.99-0.81c-1.5,0.16-2.84,0.93-3.6,2.06c-0.79,1.17-0.91,2.63-0.92,3.77
		c-0.02,1.32,0.08,3.26,1.13,4.8C140.31,68.57,142.09,69.45,143.98,69.45z M143.34,57.47c0.93,0,1.93,0.26,2.92,0.74
		c0.9,0.45,1.6,0.99,2.05,1.61c0.57,0.78,0.88,1.83,0.87,2.97c-0.02,2.25-1.37,4.41-3.29,5.26c-0.58,0.26-1.24,0.4-1.92,0.4h0
		c-1.57,0-3.03-0.72-3.82-1.88c-0.68-1-0.99-2.34-0.96-4.23c0.01-1,0.11-2.27,0.75-3.23c0.59-0.89,1.67-1.49,2.87-1.62
		C142.99,57.48,143.17,57.47,143.34,57.47z"/>
	<path class="st5" d="M169.18,65.81c-0.13,0.28-0.21,0.59-0.2,0.91c0.04,0.62,0.49,1.2,1.08,1.38c0.59,0.18,1.29-0.04,1.67-0.53
		c0.12-0.15,0.21-0.33,0.27-0.51c0.17-0.49,0.15-1.05-0.09-1.5c-0.25-0.45-0.74-0.78-1.25-0.79
		C170.02,64.76,169.45,65.23,169.18,65.81z"/>
	<path class="st5" d="M143.35,65.54c0.22-0.28,0.31-0.64,0.33-1c0.02-0.5-0.09-1.03-0.43-1.41c-0.54-0.6-1.33-0.31-1.8,0.25
		c-0.21,0.25-0.35,0.55-0.39,0.84C140.93,65.4,142.43,66.68,143.35,65.54z"/>
	<path class="st8" d="M195.69,98.68c-0.05-0.85,0.45-1.71,1.27-2.13c0.6-0.31,1.35-0.39,2.11-0.21c1.15,0.26,2.04,0.99,2.61,1.52
		c0.36,0.33,0.68,0.68,0.96,1.03c0.04-0.14,0.05-0.29,0.1-0.43c0.59-1.69,2.29-2.92,4.04-2.92c0.57,0,1.1,0.13,1.59,0.38
		c0.63,0.33,1.14,0.85,1.52,1.49c1-0.79,1.93-1.63,2.77-2.52c0.1-0.11,0.37-0.39,0.39-0.53c0.03-0.2-0.29-0.64-0.51-0.97
		c-0.25-0.35-0.56-0.79-0.72-1.3c-1.88,0.23-3.71,0.85-5.63,1.5c-0.76,0.26-1.51,0.51-2.27,0.74c-4.98,1.52-10.3,2.01-15.5,1.43
		c-0.98,3.66-2.13,7.11-4.29,9.74c4.72-0.49,9.51-1.1,14.07-2.4c0.7-0.2,1.39-0.42,2.06-0.65c-0.87-0.4-1.79-0.89-2.82-1.49
		C196.95,100.66,195.77,99.97,195.69,98.68z"/>
	<path class="st8" d="M200.32,99.32c-0.64-0.59-1.18-0.92-1.7-1.04c-0.12-0.03-0.24-0.04-0.35-0.04c-0.16,0-0.29,0.03-0.4,0.08
		c-0.13,0.07-0.19,0.19-0.19,0.23c0,0.06,0.07,0.26,0.78,0.68c1.16,0.68,2.17,1.2,3.11,1.61
		C201.22,100.24,200.75,99.72,200.32,99.32z"/>
	<path class="st2" d="M213.72,91.52c0.02-0.03,0.03-0.07,0.04-0.1c0.13-0.29,0.13-0.64-0.04-0.92c-0.19-0.32-0.55-0.53-0.9-0.49
		c-0.27,0.01-0.54,0.03-0.81,0.05c-2.25,0.21-4.39,0.93-6.47,1.63c-0.74,0.25-1.47,0.5-2.21,0.72c-3.33,1.01-6.82,1.53-10.31,1.56
		c-1.75,0.02-3.49-0.08-5.22-0.32c-0.5-0.07-0.97,0.25-1.1,0.74c-0.07,0.28-0.15,0.56-0.23,0.84c-1.17,4.37-2.57,8.4-5.73,10.72
		c-0.36,0.27-0.5,0.74-0.34,1.16c0.08,0.22,0.24,0.39,0.44,0.5c0.15,0.09,0.32,0.14,0.5,0.14c0.03,0,0.06,0,0.1,0
		c2.9-0.28,5.86-0.58,8.81-1c0.67-0.1,1.35-0.2,2.02-0.32c1.92-0.32,3.82-0.73,5.7-1.23c0.79-1.09,1.94-1.92,3.24-2.37
		c-0.31-0.13-0.63-0.25-0.95-0.4c-0.67,0.23-1.35,0.45-2.06,0.65c-4.57,1.3-9.36,1.91-14.07,2.4c2.16-2.63,3.31-6.08,4.29-9.74
		c5.2,0.58,10.52,0.09,15.5-1.43c0.76-0.23,1.51-0.49,2.27-0.74c1.92-0.65,3.75-1.27,5.63-1.5c0.16,0.5,0.47,0.94,0.72,1.3
		c0.23,0.32,0.54,0.77,0.51,0.97c-0.02,0.14-0.29,0.42-0.39,0.53c-0.84,0.9-1.77,1.74-2.77,2.52c0.34,0.59,0.57,1.27,0.65,2.01
		c1.31-0.97,2.51-2.02,3.58-3.16c0.01-0.01,0.02-0.02,0.03-0.03c0.29-0.3,0.77-0.84,0.88-1.59c0.07-0.5-0.04-0.95-0.22-1.35
		c-0.02-0.04-0.04-0.08-0.06-0.12c-0.17-0.34-0.38-0.65-0.58-0.93C214.01,92,213.74,91.61,213.72,91.52z"/>
	<path class="st9" d="M205.67,103.03c0.29,0.34,0.32,0.83,0.08,1.2c-0.24,0.37-0.71,0.54-1.13,0.41c-0.38-0.12-0.79-0.18-1.2-0.18
		c-1.73,0-3.45,1.03-4.18,2.5c-0.19,0.38-0.38,0.93-0.26,1.4c0.17,0.67,1,1.02,1.73,1.02c0.24,0,0.46-0.03,0.67-0.1
		c1.18-0.39,2.08-1.51,2.82-2.55c0.17-0.24,0.42-0.39,0.71-0.42c0.29-0.03,0.57,0.06,0.79,0.26c2.23,2.06,4.53,3.43,6.32,3.76
		c0.37,0.07,0.67,0.33,0.78,0.69c0.11,0.36,0.01,0.74-0.25,1.01c-0.71,0.7-1.16,1.66-1.25,2.64c0.94,0.4,2.17,0.26,2.96-0.34
		c0.95-0.73,1.38-2.13,0.99-3.27c-0.16-0.46,0.04-0.97,0.47-1.2c0.43-0.23,0.96-0.13,1.26,0.26c0.41,0.51,1.08,0.8,1.86,0.8
		c0.92,0,1.75-0.41,2.18-1.06c0.4-0.61,0.48-1.42,0.23-2.23c-0.26-0.84-0.84-1.52-1.55-1.81c-0.3-0.13-0.63-0.19-0.98-0.19
		c-1.33,0-2.63,0.9-3.04,2.09c-0.1,0.29-0.32,0.51-0.6,0.62c-0.28,0.1-0.6,0.07-0.86-0.08l-6.13-3.7c-0.42-0.25-0.59-0.78-0.41-1.23
		c0.44-1.08,0.9-2.21,0.92-3.31c0.02-0.86-0.32-1.91-1.12-2.32c-0.94-0.49-2.44,0.31-2.82,1.42
		C204.22,100.28,204.63,101.82,205.67,103.03z"/>
	<path class="st2" d="M197.03,108.86c0.38,1.49,1.88,2.53,3.67,2.53c0.45,0,0.88-0.07,1.29-0.2c1.34-0.44,2.35-1.39,3.16-2.41
		c1.7,1.45,3.41,2.5,4.98,3.09c-0.6,1.03-0.92,2.22-0.88,3.41c0.01,0.32,0.17,0.61,0.44,0.79c0.8,0.54,1.75,0.83,2.76,0.83
		c1.1,0,2.16-0.35,2.99-0.98c1.02-0.78,1.68-1.97,1.87-3.24c0.47,0.16,0.98,0.24,1.5,0.24c1.58,0,3.06-0.75,3.85-1.96
		c0.72-1.11,0.89-2.54,0.46-3.92c-0.44-1.4-1.45-2.55-2.71-3.07c-0.55-0.22-1.13-0.34-1.74-0.34c-1.75,0-3.44,0.94-4.39,2.35
		l-4.48-2.71c0.38-0.99,0.73-2.07,0.75-3.23c0-0.22-0.01-0.43-0.03-0.64c-0.07-0.74-0.3-1.42-0.65-2.01
		c-0.38-0.64-0.89-1.17-1.52-1.49c-0.49-0.25-1.03-0.38-1.59-0.38c-1.75,0-3.46,1.23-4.04,2.92c-0.05,0.14-0.07,0.29-0.1,0.43
		c0.91,1.14,1.4,2.34,1.42,3.55c0,0.32-0.14,0.62-0.4,0.81c-0.18,0.13-0.39,0.2-0.6,0.2c-0.1,0-0.19-0.01-0.29-0.04
		c-0.51-0.15-1.03-0.34-1.56-0.56c-1.3,0.45-2.45,1.29-3.24,2.37c-0.2,0.27-0.38,0.55-0.53,0.85
		C196.96,107.05,196.82,108.01,197.03,108.86z M204.63,99.11c0.39-1.11,1.89-1.91,2.82-1.42c0.79,0.41,1.13,1.46,1.12,2.32
		c-0.02,1.1-0.48,2.22-0.92,3.31c-0.19,0.46-0.01,0.98,0.41,1.23l6.13,3.7c0.26,0.16,0.58,0.19,0.86,0.08
		c0.28-0.1,0.51-0.33,0.6-0.62c0.41-1.19,1.72-2.09,3.04-2.09c0.35,0,0.68,0.06,0.98,0.19c0.71,0.29,1.29,0.97,1.55,1.81
		c0.25,0.81,0.17,1.62-0.23,2.23c-0.43,0.65-1.26,1.06-2.18,1.06c-0.78,0-1.46-0.29-1.86-0.8c-0.3-0.38-0.83-0.49-1.26-0.26
		c-0.43,0.23-0.62,0.74-0.47,1.2c0.39,1.14-0.04,2.54-0.99,3.27c-0.79,0.6-2.02,0.73-2.96,0.34c0.1-0.99,0.55-1.95,1.25-2.64
		c0.27-0.26,0.36-0.65,0.25-1.01c-0.11-0.36-0.41-0.62-0.78-0.69c-1.79-0.33-4.1-1.7-6.32-3.76c-0.21-0.2-0.49-0.29-0.79-0.26
		c-0.29,0.03-0.55,0.18-0.71,0.42c-0.73,1.04-1.64,2.17-2.82,2.55c-0.21,0.07-0.43,0.1-0.67,0.1c-0.73,0-1.56-0.35-1.73-1.02
		c-0.12-0.48,0.08-1.03,0.26-1.4c0.73-1.47,2.45-2.5,4.18-2.5c0.42,0,0.82,0.06,1.2,0.18c0.42,0.13,0.89-0.04,1.13-0.41
		c0.24-0.37,0.21-0.86-0.08-1.2C204.63,101.82,204.22,100.28,204.63,99.11z"/>
	<path class="st2" d="M88.27,142.83c-0.38-0.4-1.01-0.42-1.41-0.04c-0.4,0.38-0.42,1.01-0.04,1.41c1.12,1.19,1.74,2.96,1.74,4.99
		c0,1.38-0.28,2.76-0.64,4.1c-0.15,0.55-0.31,1.1-0.48,1.63c-0.17,0.53,0.12,1.09,0.65,1.26c0.1,0.03,0.2,0.05,0.3,0.05
		c0.42,0,0.82-0.27,0.95-0.7c0.06-0.19,0.11-0.38,0.17-0.57c0.56-1.82,1.05-3.76,1.05-5.77C90.56,146.65,89.74,144.39,88.27,142.83z
		"/>
	<path class="st2" d="M81.3,146.2c-0.25-1.32-0.67-2.28-1.32-3.01c-0.37-0.41-1-0.45-1.41-0.08c-0.41,0.37-0.45,1-0.08,1.41
		c0.4,0.45,0.67,1.1,0.85,2.05c0.3,1.59,0.21,3.27-0.22,4.85c-0.1,0.38-0.21,0.76-0.35,1.12c-0.2,0.51,0.05,1.09,0.56,1.3
		c0.12,0.05,0.24,0.07,0.37,0.07c0.4,0,0.78-0.24,0.93-0.63c0-0.01,0-0.01,0.01-0.02C81.5,151.04,81.74,148.54,81.3,146.2z"/>
	<path class="st2" d="M202.77,103.4c0.09,0.03,0.19,0.04,0.29,0.04c0.21,0,0.43-0.07,0.6-0.2c0.25-0.19,0.4-0.49,0.4-0.81
		c-0.02-1.2-0.51-2.41-1.42-3.55c-0.28-0.35-0.6-0.7-0.96-1.03c-0.57-0.53-1.46-1.26-2.61-1.52c-0.76-0.17-1.51-0.1-2.11,0.21
		c-0.81,0.42-1.32,1.28-1.27,2.13c0.08,1.29,1.26,1.98,1.76,2.28c1.03,0.6,1.95,1.09,2.82,1.49c0.33,0.15,0.64,0.28,0.95,0.4
		C201.74,103.06,202.26,103.25,202.77,103.4z M197.68,98.55c0-0.04,0.06-0.16,0.19-0.23c0.1-0.05,0.24-0.08,0.4-0.08
		c0.11,0,0.23,0.01,0.35,0.04c0.52,0.12,1.06,0.45,1.7,1.04c0.43,0.4,0.9,0.92,1.25,1.52c-0.94-0.4-1.95-0.93-3.11-1.61
		C197.75,98.81,197.69,98.61,197.68,98.55z"/>
	<path class="st10" d="M21.56,88.3c-0.45-0.14-0.92-0.21-1.41-0.21c-1.34,0-2.57,0.55-3.3,1.47c-0.79,1-1.04,2.39-1.2,3.75
		c-0.28,2.38-0.34,4.79-0.16,7.18c0.11,1.46,0.32,3.13,1.09,4.47c0.73,1.26,1.95,2.08,3.11,2.08c0.7-0.02,1.33-0.35,1.75-0.87
		c0.19-0.23,0.49-0.71,0.39-1.28c-0.02-0.14-0.02-0.28,0.01-0.41c-0.67-1.26-1.01-2.84-0.99-4.66c0.02-1.81,0.35-3.3,1-4.57
		c0.79-1.54,2.08-2.66,3.55-3.13l-0.03-0.07C24.62,90.22,23.19,88.82,21.56,88.3z"/>
	<path class="st10" d="M39.63,100.71c0.4-0.79,0.88-1.45,1.39-1.98c-1.32-0.14-2.56-0.51-3.76-0.95c-0.86,0.97-1.3,2.34-1.11,3.61
		c0.08,0.55-0.29,1.06-0.84,1.14c-0.05,0.01-0.1,0.01-0.15,0.01c-0.49,0-0.91-0.35-0.99-0.85c-0.25-1.63,0.19-3.31,1.13-4.65
		l-1.82-0.69c-0.04,0.04-0.07,0.09-0.13,0.12c-1.32,0.86-2,2.66-1.56,4.18c0.15,0.53-0.16,1.08-0.69,1.24
		c-0.09,0.03-0.18,0.04-0.27,0.04c-0.44,0-0.84-0.29-0.96-0.73c-0.56-1.99,0.07-4.2,1.5-5.65l-1.81-0.69
		c-0.11,0.19-0.27,0.35-0.49,0.44c-1.65,0.63-2.68,2.61-2.25,4.33c0.14,0.54-0.19,1.08-0.72,1.21c-0.08,0.02-0.17,0.03-0.25,0.03
		c-0.45,0-0.85-0.3-0.97-0.75c-0.58-2.3,0.47-4.81,2.41-6.12c-0.2-0.08-0.45-0.17-0.69-0.32c-0.12,0.13-0.27,0.24-0.45,0.29
		c-1,0.27-1.94,1.08-2.5,2.18c-0.51,0.98-0.76,2.19-0.78,3.67c-0.01,1.15,0.15,2.67,0.87,3.88c1.44,0.09,2.82,0.56,4.14,1.01
		l0.44,0.15c3.63,1.24,7.43,2.1,11.21,2.85c-0.52-0.72-0.86-1.6-0.94-2.57C38.45,103.8,38.8,102.34,39.63,100.71z"/>
	<path class="st10" d="M44.48,99.27c-0.12,0.04-0.25,0.06-0.39,0.06c-1.36-0.07-2.4,1.74-2.68,2.29c-0.66,1.28-0.93,2.39-0.85,3.37
		c0.1,1.09,0.72,2.04,1.54,2.37c0.06,0.03,0.11,0.07,0.17,0.11c-0.08-0.35-0.14-0.72-0.13-1.12c0.03-2.06,1.13-4.03,2.87-5.13
		c0.21-0.13,0.5-0.28,0.83-0.38c-0.05-0.12-0.1-0.24-0.17-0.36C45.37,99.95,44.95,99.55,44.48,99.27z"/>
	<path class="st2" d="M45.26,110.14c-0.8,0-1.58-0.42-2.09-1.09c-0.03-0.03-0.06-0.05-0.09-0.08c-0.14-0.14-0.27-0.3-0.38-0.47
		c-0.01,0.05-0.01,0.1-0.03,0.14c-0.15,0.39-0.53,0.63-0.93,0.63c-0.12,0-0.24-0.02-0.36-0.07c-0.74-0.29-1.38-0.82-1.86-1.49
		c-3.78-0.75-7.58-1.61-11.21-2.85l-0.44-0.15c-1.32-0.46-2.7-0.92-4.14-1.01c0.15,0.25,0.32,0.5,0.52,0.72
		c0.35,0.39,0.34,0.97-0.02,1.35c0.97,0.15,1.96,0.48,2.99,0.83l0.45,0.15c5.31,1.81,10.89,2.84,16.29,3.83
		c0.3,0.06,0.62,0.08,0.91,0c0.26-0.07,0.5-0.22,0.68-0.41c0.77,0.3,1.58,0.49,2.41,0.56c-0.85-0.16-1.68-0.36-2.51-0.62
		C45.39,110.13,45.32,110.14,45.26,110.14z"/>
	<path class="st2" d="M22.77,105.79c-0.35-0.39-0.66-0.83-0.91-1.32c-0.03,0.13-0.04,0.27-0.01,0.41c0.1,0.57-0.2,1.04-0.39,1.28
		c-0.42,0.52-1.06,0.85-1.75,0.87c-1.16,0-2.39-0.82-3.11-2.08c-0.77-1.34-0.98-3.01-1.09-4.47c-0.18-2.39-0.12-4.81,0.16-7.18
		c0.16-1.36,0.42-2.75,1.2-3.75c0.73-0.92,1.96-1.47,3.3-1.47c0.49,0,0.96,0.07,1.41,0.21c1.63,0.52,3.06,1.92,3.82,3.75l0.03,0.07
		c0.07-0.02,0.14-0.05,0.22-0.07c0.53-0.15,1.08,0.17,1.22,0.71c0.09,0.35-0.02,0.69-0.26,0.94c0.25,0.15,0.49,0.25,0.69,0.32
		c0.33-0.23,0.68-0.42,1.07-0.57c0.51-0.2,1.09,0.06,1.29,0.58c0.11,0.29,0.06,0.6-0.08,0.85l1.81,0.69
		c0.27-0.28,0.56-0.54,0.89-0.75c0.46-0.3,1.08-0.17,1.38,0.29c0.27,0.41,0.18,0.93-0.17,1.26l1.82,0.69
		c0.42-0.6,0.93-1.13,1.53-1.56l-2.06-0.78l-6.77-2.57c-0.17-0.06-0.38-0.14-0.46-0.21c-0.09-0.09-0.19-0.33-0.28-0.54l-0.05-0.11
		c-0.99-2.36-2.88-4.19-5.06-4.89c-0.64-0.21-1.32-0.31-2.01-0.31c-1.95,0-3.77,0.83-4.87,2.23c-0.73,0.92-1.11,1.99-1.35,3.08
		c0.27,0.06,0.55,0.11,0.82,0.18c0.49,0.12,0.81,0.58,0.76,1.08l-0.5,4.72c-0.03,0.27-0.17,0.52-0.38,0.68
		c-0.18,0.14-0.39,0.21-0.61,0.21c-0.05,0-0.1,0-0.14-0.01l-0.11-0.02c-0.11,0.06-0.23,0.09-0.36,0.1c0.01,0.76,0.04,1.53,0.09,2.29
		c0.12,1.68,0.38,3.63,1.35,5.32c1.09,1.9,2.95,3.08,4.85,3.08l0.15,0c1.19-0.04,2.37-0.64,3.16-1.61c0.34-0.42,0.58-0.87,0.71-1.35
		c-0.07,0.02-0.14,0.04-0.21,0.04C23.23,106.11,22.96,106,22.77,105.79z"/>
	<path class="st2" d="M62.86,113.32c0.48,0,0.95-0.04,1.4-0.11c0.4-0.06,0.72-0.36,0.81-0.75c0.09-0.39-0.06-0.8-0.38-1.04
		c-3.67-2.67-7.87-4.72-12.24-6c-0.02,0-0.03-0.01-0.05-0.01c-0.03,0.35-0.14,0.67-0.37,0.95c-0.04,0.05-0.09,0.08-0.14,0.12
		c1.38,0.58,2.72,1.22,4.04,1.85c1.5,0.71,3.04,1.45,4.59,2.08c0.51,0.21,0.76,0.79,0.55,1.3c-0.16,0.39-0.53,0.63-0.93,0.63
		c-0.12,0-0.25-0.02-0.37-0.07c-1.6-0.65-3.18-1.4-4.7-2.13c-1.51-0.72-2.98-1.41-4.46-2.02l0.28,1.75c0.03,0.2-0.02,0.39-0.1,0.56
		c0.17-0.13,0.29-0.31,0.35-0.53l0.07-0.29l0.68,0.27l0.14,0.06l4.09,1.65C58.04,112.36,60.42,113.32,62.86,113.32z"/>
	<path class="st2" d="M44.12,96.99c-0.62-0.14-1.22-0.15-1.79-0.16c-0.24-0.01-0.48-0.01-0.72-0.03c-1.05-0.07-2.1-0.36-3.13-0.71
		c0.06,0.37-0.09,0.77-0.42,0.99c-0.29,0.2-0.55,0.44-0.79,0.71c1.2,0.43,2.45,0.8,3.76,0.95c0.93-0.95,2.02-1.45,3.16-1.41
		c0.55,0.02,0.98,0.49,0.96,1.04c-0.02,0.42-0.29,0.77-0.66,0.9c0.47,0.28,0.89,0.68,1.19,1.2c0.07,0.12,0.12,0.24,0.17,0.36
		c0.18-0.05,0.36-0.09,0.57-0.09c0.72,0,1.26,0.34,1.68,0.68c-0.1-0.67-0.33-1.34-0.7-1.96C46.65,98.18,45.45,97.28,44.12,96.99z"/>
	<path class="st2" d="M49.68,102.44c-0.17-0.11-0.35-0.19-0.54-0.26C49.31,102.27,49.49,102.36,49.68,102.44z"/>
	<path class="st11" d="M4.34,94.39c-0.22-1.64,1.03-2.9,1.7-3.57c0.19-0.2,0.46-0.29,0.73-0.3c1.07,0.02,2.14,0.11,3.2,0.22
		c-0.14-1.26-0.49-2.25-1.05-3c-0.59-0.77-1.58-1.29-2.46-1.29c-0.33,0-0.64,0.07-0.91,0.21c-0.45,0.23-0.86,0.65-1.29,1.32
		c-1.59,2.46-1.94,5.61-2.07,8.37c-0.06,1.21-0.08,2.48,0.3,3.59c0.37,1.06,1.15,1.87,1.99,2.07c0.66,0.15,1.47-0.02,2.3-0.49
		c1.4-0.79,2.46-2.16,2.91-3.71l-0.72-0.15c-0.48-0.1-1.05-0.22-1.61-0.45C5.14,96.58,4.47,95.37,4.34,94.39z"/>
	<path class="st2" d="M8.73,97.51c-0.51-0.07-0.96-0.17-1.37-0.29c0.56,0.22,1.13,0.35,1.61,0.45l0.72,0.15
		c-0.45,1.54-1.51,2.91-2.91,3.71c-0.83,0.46-1.64,0.64-2.3,0.49c-0.84-0.19-1.62-1-1.99-2.07c-0.38-1.11-0.36-2.38-0.3-3.59
		c0.13-2.76,0.47-5.91,2.07-8.37c0.44-0.67,0.85-1.09,1.29-1.32c0.27-0.14,0.58-0.21,0.91-0.21c0.88,0,1.87,0.52,2.46,1.29
		c0.57,0.75,0.91,1.74,1.05,3c0.68,0.07,1.35,0.17,2.02,0.28c-0.14-1.85-0.61-3.34-1.48-4.48c-1.39-1.83-4.01-2.6-5.87-1.65
		c-0.77,0.4-1.43,1.04-2.06,2.01c-1.85,2.86-2.25,6.33-2.39,9.36c-0.06,1.4-0.09,2.89,0.41,4.33c0.59,1.72,1.91,3.01,3.43,3.36
		c0.3,0.07,0.62,0.11,0.94,0.11c0,0,0,0,0,0c0.89,0,1.86-0.28,2.79-0.8c1.97-1.11,3.42-3.09,3.94-5.29l-0.27-0.07L8.73,97.51z"/>
	<path class="st2" d="M24.24,104.44c-0.2-0.22-0.37-0.47-0.52-0.72c-0.72-1.22-0.88-2.73-0.87-3.88c0.02-1.49,0.27-2.69,0.78-3.67
		c0.57-1.1,1.5-1.91,2.5-2.18c0.18-0.05,0.33-0.16,0.45-0.29c0.23-0.24,0.35-0.59,0.26-0.94c-0.14-0.53-0.69-0.85-1.22-0.71
		c-0.07,0.02-0.14,0.05-0.22,0.07c-1.47,0.46-2.76,1.59-3.55,3.13c-0.65,1.27-0.98,2.76-1,4.57c-0.02,1.82,0.32,3.4,0.99,4.66
		c0.26,0.49,0.56,0.93,0.91,1.32c0.2,0.22,0.47,0.33,0.74,0.33c0.07,0,0.14-0.02,0.21-0.04c0.17-0.04,0.33-0.1,0.46-0.22
		c0.02-0.02,0.03-0.04,0.04-0.06C24.58,105.41,24.6,104.82,24.24,104.44z"/>
	<path class="st2" d="M24.88,100.13c0.11,0.45,0.52,0.75,0.97,0.75c0.08,0,0.16-0.01,0.25-0.03c0.54-0.14,0.86-0.68,0.72-1.21
		c-0.43-1.72,0.6-3.7,2.25-4.33c0.22-0.08,0.38-0.25,0.49-0.44c0.15-0.25,0.2-0.56,0.08-0.85c-0.2-0.52-0.78-0.77-1.29-0.58
		c-0.38,0.15-0.73,0.35-1.07,0.57C25.35,95.32,24.3,97.83,24.88,100.13z"/>
	<path class="st2" d="M29.87,101.22c0.13,0.44,0.53,0.73,0.96,0.73c0.09,0,0.18-0.01,0.27-0.04c0.53-0.15,0.84-0.7,0.69-1.24
		c-0.43-1.52,0.24-3.32,1.56-4.18c0.05-0.03,0.08-0.08,0.13-0.12c0.34-0.33,0.43-0.85,0.17-1.26c-0.3-0.46-0.92-0.59-1.38-0.29
		c-0.33,0.21-0.62,0.47-0.89,0.75C29.94,97.02,29.3,99.23,29.87,101.22z"/>
	<path class="st2" d="M34.18,101.7c0.08,0.5,0.5,0.85,0.99,0.85c0.05,0,0.1,0,0.15-0.01c0.55-0.08,0.92-0.59,0.84-1.14
		c-0.19-1.28,0.25-2.64,1.11-3.61c0.23-0.27,0.49-0.51,0.79-0.71c0.33-0.23,0.48-0.62,0.42-0.99c-0.02-0.14-0.07-0.27-0.15-0.4
		c-0.24-0.36-0.68-0.5-1.08-0.4c-0.11,0.03-0.21,0.06-0.31,0.13c-0.03,0.02-0.06,0.05-0.09,0.07c-0.6,0.42-1.11,0.96-1.53,1.56
		C34.37,98.39,33.93,100.07,34.18,101.7z"/>
	<path class="st2" d="M40.57,104.99c-0.09-0.99,0.19-2.09,0.85-3.37c0.28-0.55,1.32-2.36,2.68-2.29c0.14,0.01,0.27-0.01,0.39-0.06
		c0.37-0.13,0.64-0.49,0.66-0.9c0.02-0.55-0.4-1.02-0.96-1.04c-1.14-0.04-2.22,0.46-3.16,1.41c-0.52,0.53-0.99,1.18-1.39,1.98
		c-0.83,1.63-1.18,3.09-1.06,4.46c0.08,0.96,0.42,1.85,0.94,2.57c0.48,0.67,1.12,1.2,1.86,1.49c0.12,0.05,0.24,0.07,0.36,0.07
		c0.4,0,0.78-0.24,0.93-0.63c0.02-0.05,0.01-0.1,0.03-0.14c-0.2-0.3-0.33-0.66-0.42-1.04c-0.06-0.04-0.1-0.08-0.17-0.11
		C41.28,107.03,40.66,106.08,40.57,104.99z"/>
	<path class="st2" d="M45.26,110.14c0.06,0,0.12-0.01,0.19-0.02c-0.28-0.09-0.57-0.18-0.84-0.28c-0.46-0.17-0.99-0.39-1.44-0.79
		C43.68,109.73,44.46,110.14,45.26,110.14z"/>
	<path class="st2" d="M55.07,110.13c1.52,0.73,3.1,1.48,4.7,2.13c0.12,0.05,0.25,0.07,0.37,0.07c0.4,0,0.77-0.24,0.93-0.63
		c0.21-0.51-0.04-1.09-0.55-1.3c-1.54-0.62-3.09-1.36-4.59-2.08c-1.32-0.63-2.67-1.27-4.04-1.85c-0.44,0.41-1,0.5-1.39,0.54
		c-0.02,0-0.04,0-0.06,0.01l0.17,1.09C52.09,108.72,53.56,109.41,55.07,110.13z"/>
	<path class="st2" d="M11.44,97.9l0.27,0.07l1.36,0.35c0.08,0.02,0.17,0.03,0.25,0.03c0.03,0,0.05-0.01,0.08-0.01
		c0.13-0.01,0.25-0.05,0.36-0.1L11.44,97.9z"/>
	<path class="st12" d="M7.17,92.53c-0.51,0.55-0.91,1.1-0.84,1.59c0.13,0.94,1.93,1.3,2.69,1.41l4.11,0.6l0.3-2.81
		C11.37,92.87,9.27,92.6,7.17,92.53z"/>
	<path class="st2" d="M9.98,90.74c-1.07-0.12-2.13-0.2-3.2-0.22c-0.27,0.01-0.54,0.1-0.73,0.3c-0.67,0.68-1.92,1.94-1.7,3.57
		c0.13,0.98,0.79,2.19,3.02,2.83c0.4,0.12,0.85,0.22,1.37,0.29l2.71,0.39l2.32,0.34l0.11,0.02c0.05,0.01,0.1,0.01,0.14,0.01
		c0.22,0,0.44-0.07,0.61-0.21c0.21-0.17,0.35-0.41,0.38-0.68l0.5-4.72c0.05-0.5-0.27-0.96-0.76-1.08c-0.27-0.07-0.55-0.12-0.82-0.18
		c-0.64-0.14-1.29-0.27-1.94-0.37C11.33,90.91,10.65,90.82,9.98,90.74z M13.43,93.32l-0.3,2.81l-4.11-0.6
		c-0.77-0.11-2.57-0.47-2.69-1.41c-0.07-0.49,0.33-1.05,0.84-1.59C9.27,92.6,11.37,92.87,13.43,93.32z"/>
	<path class="st12" d="M48.71,108.86l-0.25-1.57c-0.05-0.3-0.14-0.86,0.17-1.39c0.42-0.73,1.19-0.82,1.64-0.87
		c0.02,0,0.05-0.01,0.08-0.01c-0.02-0.05-0.05-0.11-0.09-0.19c-0.03-0.05-0.08-0.15-0.1-0.18c0.01,0.02-0.13-0.01-0.22-0.03
		c0,0-0.1-0.02-0.1-0.02c-0.91-0.21-1.78-0.63-2.5-1.22l-0.23-0.2c-0.21-0.18-0.53-0.45-0.67-0.45c-0.02,0-0.12,0.01-0.36,0.17
		c-1.16,0.73-1.92,2.09-1.94,3.47c0,0.31,0.03,0.89,0.34,1.19c0.18,0.18,0.5,0.3,0.81,0.42C46.4,108.38,47.54,108.68,48.71,108.86z"
		/>
	<path class="st2" d="M49.91,111.02c0.28,0,0.54-0.11,0.73-0.32c0.07-0.08,0.12-0.18,0.16-0.28c0.08-0.18,0.13-0.37,0.1-0.56
		l-0.28-1.75l-0.17-1.09c0.02,0,0.04-0.01,0.06-0.01c0.38-0.05,0.94-0.13,1.39-0.54c0.05-0.04,0.1-0.07,0.14-0.12
		c0.23-0.27,0.35-0.6,0.37-0.95c0-0.05,0.02-0.09,0.02-0.13c0-0.4-0.13-0.86-0.39-1.35c-0.11-0.21-0.27-0.52-0.56-0.77
		c-0.18-0.15-0.37-0.25-0.56-0.32c-0.21-0.08-0.42-0.13-0.63-0.17c-0.21-0.05-0.41-0.13-0.6-0.21c-0.19-0.08-0.37-0.16-0.54-0.26
		c-0.18-0.11-0.37-0.21-0.53-0.34l-0.2-0.17c-0.09-0.08-0.2-0.17-0.31-0.26c-0.42-0.34-0.96-0.68-1.68-0.68
		c-0.2,0-0.39,0.04-0.57,0.09c-0.34,0.1-0.63,0.25-0.83,0.38c-1.74,1.1-2.84,3.07-2.87,5.13c-0.01,0.41,0.05,0.77,0.13,1.12
		c0.09,0.39,0.23,0.74,0.42,1.04c0.11,0.17,0.23,0.33,0.38,0.47c0.03,0.03,0.06,0.05,0.09,0.08c0.45,0.4,0.97,0.62,1.44,0.79
		c0.28,0.1,0.56,0.19,0.84,0.28c0.82,0.26,1.66,0.47,2.51,0.62c0.29,0.05,0.58,0.1,0.87,0.14c0.33,0.05,0.66,0.09,0.99,0.12
		C49.85,111.02,49.88,111.02,49.91,111.02z M45.29,107.97c-0.31-0.11-0.63-0.24-0.81-0.42c-0.3-0.3-0.34-0.87-0.34-1.19
		c0.02-1.37,0.78-2.73,1.94-3.47c0.24-0.15,0.34-0.17,0.36-0.17c0.14,0,0.46,0.27,0.67,0.45l0.23,0.2c0.72,0.59,1.59,1.01,2.5,1.22
		c0,0,0.1,0.02,0.1,0.02c0.09,0.02,0.23,0.05,0.22,0.03c0.02,0.03,0.07,0.13,0.1,0.18c0.04,0.07,0.07,0.13,0.09,0.19
		c-0.03,0-0.05,0.01-0.08,0.01c-0.46,0.05-1.22,0.14-1.64,0.87c-0.31,0.54-0.22,1.09-0.17,1.39l0.25,1.57
		C47.54,108.68,46.4,108.38,45.29,107.97z"/>
	<g>
		<path class="st13" d="M246.25,128.01c-0.37-0.68-0.93-1.19-1.59-0.89c0.32,2.28,0.01,4.65-0.88,6.77
			c-2.37,0.13-3.52-2.78-4.1-5.08c-0.59-2.3-2.25-5.12-4.52-4.44c-0.64,1.8,0.14,3.77,1.05,5.45c0.79,1.46,1.71,2.94,1.95,4.55
			c0.03-0.44,0.05-0.88,0.04-1.31c-0.07-2.21-0.88-4.37-2.28-6.08c-0.35-0.43-0.29-1.06,0.14-1.41c0.43-0.35,1.06-0.29,1.41,0.14
			c1.68,2.05,2.65,4.64,2.74,7.29c0.04,1.47-0.18,2.89-0.39,4.27c-0.24,1.54-0.68,3-1.27,4.31c2.17,0.46,4.75-0.38,6.5-2.16
			c1.24-1.27,1.91-2.83,1.88-4.39c-0.1-0.8-0.13-1.7-0.17-2.65C246.68,130.8,246.62,129.16,246.25,128.01z"/>
		<path class="st13" d="M219.07,139.98c0.56,0.25,1.32,0.4,1.98,0.4c0.65,0,0.98-0.14,1.08-0.22c-0.19-0.14-0.33-0.35-0.38-0.6
			l-0.75-3.8c-0.11-0.54,0.24-1.07,0.79-1.17c0.54-0.11,1.07,0.24,1.17,0.79l0.71,3.57c0.15,0.09,0.28,0.21,0.37,0.38
			c0.85,1.63,1.8,3.26,3.28,3.78c0.74,0.26,1.82-0.13,2.31-0.71c-0.03-0.15-0.04-0.3-0.01-0.46c0.79-3.25,0.48-7.5-0.75-11.19
			c0.16,1.17,0.32,2.35,0.48,3.52c0.11,0.85,0.22,1.76-0.17,2.52c-0.76,1.5-3.08,1.52-4.39,0.46s-1.86-2.78-2.34-4.4
			c-1.63,1.47-2.33,3.9-1.73,6.01c-3.37-0.25-6.21-2.54-9.38-3.7c-4.5-1.65-9.47-0.98-14.21-0.29c-13.05,1.89-26.09,3.78-39.14,5.67
			c-2.77,0.4-5.62,0.8-8.33,0.11c-5.28-1.33-8.64-6.44-9.98-11.83c-0.03,3.69,0.27,6.96,2.07,9.56c2.54,3.68,7.57,4.91,11.33,5.3
			c1.47,0.15,3,0.23,4.56,0.23c7.57,0,15.25-1.78,22.68-3.5c1.78-0.41,3.57-0.82,5.35-1.21c4.43-0.97,11.08-2.25,17.7-2.25
			C209.33,136.94,214.47,137.94,219.07,139.98z"/>
		<path class="st13" d="M230.19,128.61c0.41,0.98,0.75,2,1.02,3.06c-0.37-2.37-0.83-4.55-2.95-5.27c0.09,0.64,0.17,1.29,0.26,1.93
			c0.1-0.11,0.21-0.2,0.35-0.26C229.39,127.86,229.98,128.09,230.19,128.61z"/>
		<path class="st13" d="M234.7,138.62c-0.55-0.13-1.04-0.47-1.43-0.88c-0.71-0.74-1.13-1.7-1.42-2.74c0.26,2.13,0.25,4.25-0.05,6.16
			c0.07,0.3,0.1,0.61,0.07,0.91c0.24,0.83,0.99,1.53,1.79,1.65c1.1,0.17,2.26-0.68,2.48-1.73c0.01-0.04,0.04-0.07,0.05-0.11
			c0.02-0.06,0.03-0.12,0.06-0.17c0.76-1.35,1.3-2.98,1.57-4.73c0.02-0.1,0.03-0.21,0.05-0.32
			C237.29,137.95,236.04,138.94,234.7,138.62z"/>
	</g>
	<path class="st13" d="M107.51,99c0.28-2.94,0.45-6.39-0.32-9.65c-1-4.18-3.65-7.83-7.11-10.09c4.04,4.3,5.35,11.02,4.78,17.08
		c-0.82,8.76-4.82,17.2-11.08,23.38s-14.75,10.07-23.53,10.77c-2.05,0.16-4.75,0.74-4.87,2.79c0.35,0.12,0.7,0.2,1.05,0.3
		c0.01-0.05,0-0.11,0.02-0.16c0.16-0.53,0.72-0.82,1.25-0.66c7.1,2.21,15.41,1.24,22.22-2.61c6.57-3.7,11.76-9.86,14.63-17.33
		C106.03,108.95,107,104.42,107.51,99z"/>
	<path class="st14" d="M65.12,35.15c-5.56,5.61-11.2,11.34-14.86,18.33c-3.66,7-5.12,15.58-1.96,22.82c1.44,3.31,3.81,6.3,4.36,9.87
		c0.82,5.4-2.69,10.55-3.74,15.86c0.07,0.04,0.14,0.1,0.22,0.14c0.19,0.07,0.37,0.16,0.54,0.26c0.2,0.08,0.4,0.17,0.6,0.21
		c0.21,0.04,0.42,0.09,0.63,0.17c1.41-5.62,4.17-10.9,8.05-15.2c-5.12-5.62-8.16-11.04-9.29-16.56c-2.02-9.89,2.2-21.18,11.27-30.21
		l0.63-0.63c1.94-1.91,3.92-3.88,4.65-6.2C65.86,34.4,65.49,34.78,65.12,35.15z"/>
	<g>
		<path class="st13" d="M105.35,135.32c0.23-1.24,0.25-2.46,0.07-3.75c-0.19,1.35-1.72,2.03-3.05,2.39
			c-5.65,1.5-11.65,1.65-17.37,0.48c-0.11,0.03-0.21,0.07-0.32,0.11c3.84,1.14,7.83,1.72,11.89,1.72
			C99.53,136.26,102.48,135.94,105.35,135.32z"/>
		<path class="st13" d="M119.33,141.07c-0.03-0.51,0.1-1.02,0.36-1.51c0.47-1.7,0.57-2.97,0.59-4.73c0-0.18-0.02-0.36-0.02-0.54
			c-0.08,1.64-0.94,3.24-2.29,4.18c-0.71,0.5-1.63,0.83-2.44,0.52c-1.38-0.53-1.53-2.4-1.38-3.86c0.26-2.35,0.57-5.11-1.18-6.69
			c-0.22-0.2-0.48-0.37-0.77-0.41c-0.58-0.08-1.12,0.42-1.29,0.98c-0.18,0.56-0.09,1.16-0.01,1.75c0.37,2.64,0.54,5.39-0.37,7.9
			c-0.26,0.72-0.83,1.52-1.58,1.37c-0.71-0.14-0.95-1.02-0.98-1.74c-0.07-2.05,0.52-4.08,0.54-6.13c0.01-0.88-0.11-1.84-0.73-2.46
			c-0.62-0.63-1.87-0.64-2.25,0.15c-0.09,0.18-0.11,0.37-0.12,0.57c0.13-0.28,0.37-0.5,0.7-0.57c0.55-0.1,1.07,0.25,1.17,0.79
			c0.38,2,0.35,3.83-0.12,5.77c0,0.02-0.02,0.03-0.02,0.05c-0.02,0.06-0.05,0.12-0.07,0.17c-0.02,0.04-0.04,0.08-0.07,0.12
			c-0.01,0.01-0.01,0.03-0.02,0.04c-0.82,1.05-1.19,2.58-0.96,3.9c0.12,0.69,0.46,1.63,1.37,2.2c0.8,0.5,1.84,0.24,2.63-0.57
			c0.51-0.52,0.81-1.18,0.82-1.77l-0.08-0.57c0,0,0,0,0,0c0-0.03,0.01-0.06,0-0.09c0-0.1-0.01-0.2,0.02-0.29c0,0,0-0.01,0-0.01
			c1.12-4.17,1.55-5.73,0.36-9.77c-0.16-0.53,0.15-1.09,0.68-1.24c0.53-0.16,1.09,0.15,1.24,0.68c1.33,4.51,0.83,6.49-0.29,10.67
			c0.03,0.16,0.07,0.32,0.07,0.48l0.29,1.99c0.64,0.58,1.55,0.67,2.07,0.67C116.86,143.03,118.6,142.19,119.33,141.07z"/>
		<path class="st13" d="M130.63,137.9c1.73-2.75,2.05-5.9,0.85-8.42c-0.01-0.02-0.01-0.04-0.02-0.07c-0.08-0.17-0.16-0.34-0.25-0.52
			c-0.09,1.14-0.36,2.27-0.65,3.37c-0.46,1.68-1.04,3.43-2.35,4.57c-1.31,1.15-3.56,1.39-4.69,0.06c-0.79-0.93-0.8-2.26-0.83-3.48
			c-0.04-1.69-0.18-3.39-0.44-5.06c-0.09-0.61-0.21-1.24-0.56-1.74c-0.36-0.5-1.02-0.84-1.6-0.62c-0.63,0.23-0.89,0.99-0.94,1.65
			c-0.13,1.91,0.84,3.72,1.07,5.61c-0.12-1.68-0.44-3.39-0.83-5.35c-0.11-0.54,0.24-1.07,0.78-1.18c0.54-0.11,1.07,0.24,1.18,0.79
			c0.42,2.11,0.94,4.73,0.92,7.32c-0.01,1.8-0.12,3.19-0.58,4.95c0.02,0.51-0.07,1.02-0.25,1.51c0.3,0.49,1.12,0.95,2.03,0.95
			C126.24,142.25,128.92,140.62,130.63,137.9z"/>
	</g>
	<path class="st14" d="M200.51,35.57c-1.13-0.85-2.46-1.71-3.93-2.51c10.93,11.76,17.78,27.35,18.62,43.4
		c0.09,1.69,0.11,3.43-0.48,5.01c-0.8,2.18-2.64,3.82-4.64,5c-7.1,4.19-16.03,3.41-23.88,5.92c-0.41,0.13-0.83,0.29-1.22,0.48
		c0.02,0,0.04,0.01,0.06,0.01c2.59,0.64,5.28,0.99,7.99,1.08c3.49-0.03,6.98-0.55,10.31-1.56c0.74-0.22,1.48-0.47,2.21-0.72
		c2.08-0.7,4.22-1.42,6.47-1.63c0.85-0.41,1.69-0.84,2.51-1.31c1.01-0.58,1.81-1.11,2.4-1.8c0.82-0.97,1.23-2.27,1.54-3.54
		c2.6-10.51,0.09-22.93-7.05-34.97C208.02,42.74,204.45,38.53,200.51,35.57z"/>
	<path class="st14" d="M142.1,38.31l4.35-1.1c-0.3-0.48-0.7-0.91-1.15-1.25c-1.12-0.85-2.49-1.3-3.74-1.94
		c-3.73-1.92-6.41-5.77-6.9-9.94c-0.35-2.9,0.29-5.87-0.25-8.74c-0.2-1.06-0.69-2.22-1.72-2.53c-1.33-0.41-2.58,0.85-3.27,2.06
		c-4.14,7.27-1.7,16.3-1.35,24.66c0.19,4.68-0.81,10.17-4.96,12.33c-3.14,1.64-7.38,0.95-10.37,2.45c0.09,0.03,0.17,0.05,0.26,0.08
		c3.51,0.96,7.5,2.05,11.36,2.05h0c1.19,0,2.3-0.1,3.38-0.31c1.34-0.25,2.17-0.68,2.54-1.31c0.25-0.43,0.32-1,0.39-1.7
		c0.72-7.54,0.83-15.2,0.35-22.77c-0.84-0.45-1.45-1.49-1.62-2.89c-0.43-3.51,0.06-7.09,1.39-10.36c0.21-0.51,0.79-0.76,1.3-0.55
		c0.51,0.21,0.76,0.79,0.55,1.3c-1.21,2.95-1.64,6.19-1.26,9.36c0.06,0.49,0.21,0.86,0.36,1.1c0.23-0.05,0.47-0.03,0.68,0.08
		C136.61,30.59,140.02,34.09,142.1,38.31z"/>
	<path class="st13" d="M183.37,29.84c-0.47-0.01-0.93-0.05-1.4-0.08c2.59,8.42,3.97,17.2,4.14,26.01c0.91,1.79,1.44,3.85,1.56,6.05
		c0.15,2.87-0.44,5.46-1.71,7.5c-0.19,0.31-0.42,0.59-0.65,0.87c-0.78,5.89-2.09,11.71-3.96,17.35c-0.87,2.63-1.87,5.27-2.03,8.04
		c-0.13,2.36,0.35,4.79-0.31,7.07c-1.01,3.51-4.42,5.7-7.67,7.37c-2.13,1.1-4.31,2.11-6.53,3.02c5.86-1.12,10.61-3.24,14.13-6.34
		c3.47-3.07,5.78-6.98,7.5-11.46c-0.63-0.12-1.25-0.25-1.87-0.4c-0.63-0.16-2.31-0.57-2.83-2.02c-0.38-1.06,0.07-2.09,0.36-2.77
		C189.87,72.09,190.32,49.64,183.37,29.84z"/>
</g>
</svg>
