<?xml version="1.0" encoding="utf-8"?>
<!-- Generator: Adobe Illustrator 23.0.3, SVG Export Plug-In . SVG Version: 6.00 Build 0)  -->
<svg version="1.1" id="Vrstva_10" xmlns="http://www.w3.org/2000/svg" xmlns:xlink="http://www.w3.org/1999/xlink" x="0px" y="0px"
	 viewBox="0 0 220.19 189.94" style="enable-background:new 0 0 220.19 189.94;" xml:space="preserve">
<style type="text/css">
	.st0{fill:none;}
	.st1{fill:#BA9060;}
	.st2{fill:#4C331B;}
	.st3{fill:#7B5632;}
	.st4{fill:#FFFFFF;}
	.st5{fill:#1C1C1B;}
	.st6{fill:#4A321A;}
	.st7{fill:#E31317;}
	.st8{fill:#62B594;}
	.st9{fill:#F2EEE9;}
	.st10{fill:#A07A53;}
	.st11{fill:#5C3F22;}
	.st12{fill:#A47C4F;}
</style>
<g>
	<path class="st0" d="M53.55,132.93c0.02,0.08,0.03,0.15,0.02,0.23c-0.07,1.96,0.6,3.88,1.3,5.92c0.85,2.45,1.72,4.98,1.28,7.67
		c-0.27,1.67-1.08,3.23-2.24,4.38c-0.12,0.39-0.4,0.62-0.5,0.7c-0.02,0.02-0.05,0.03-0.08,0.05c-0.06,0.06-0.14,0.11-0.21,0.17
		c1.42-0.34,2.82-0.51,4.01-0.61c0.14-0.01,0.41-0.03,0.48-0.07c0.01-0.01,0.12-0.16,0.06-0.88c-0.61-7.42-1.79-14.85-3.51-22.08
		c-0.11-0.45-0.22-0.9-0.33-1.35c-0.07,0.25-0.16,0.52-0.34,0.78L53.55,132.93z"/>
	<path class="st0" d="M155.2,167.83c1.46-0.41,2.85-0.8,3.85-1.7c1-0.9,1.57-2.31,2.08-3.56c1.16-2.83,2.36-5.77,2.64-8.81
		c0.24-2.53-0.15-4.99-0.95-7.41c-0.96,1.58-2.46,2.83-3.83,3.82l-0.39,0.28c-1.86,1.34-3.78,2.73-4.46,4.7
		c-0.1,0.29-0.17,0.59-0.25,0.89c-0.12,0.49-0.25,1-0.48,1.52c-0.72,1.61-2.1,2.6-3.66,3.46c0.73,1.31,1.27,2.72,1.62,4.19
		c0.2,0.82,0.39,1.91,0.2,3.05c-0.07,0.43-0.21,0.84-0.4,1.23c0.32-0.22,0.65-0.42,1-0.59C153.15,168.4,154.19,168.11,155.2,167.83z
		"/>
	<path class="st1" d="M165.76,153.94c-0.31,3.34-1.57,6.41-2.78,9.38c-0.56,1.38-1.26,3.09-2.6,4.29c-1.35,1.21-3.02,1.68-4.65,2.14
		c-0.96,0.27-1.88,0.53-2.7,0.93c-3.33,1.62-4.93,6.16-3.34,9.51c1.12,2.37,3.88,4.03,6.71,4.03c0.73,0,1.44-0.11,2.09-0.32
		c-0.1-2.08-0.15-4.21,0.11-6.33c0.37-2.99,1.33-5.5,2.84-7.44c0.34-0.44,0.97-0.52,1.4-0.17c0.44,0.34,0.51,0.97,0.17,1.4
		c-1.29,1.65-2.1,3.83-2.43,6.46c-0.26,2.11-0.19,4.28-0.08,6.42c0.04,0.13,0.07,0.26,0.06,0.4c-0.05,0.63,0.73,1.23,1.44,1.33
		c0.63,0.09,1.29-0.05,1.93-0.25c-0.72-1.62-1-3.44-0.75-5.21c0.33-2.4,1.62-4.65,3.52-6.15c0.43-0.34,1.06-0.27,1.4,0.16
		c0.34,0.43,0.27,1.06-0.16,1.4c-1.5,1.19-2.52,2.96-2.78,4.86c-0.23,1.63,0.11,3.32,0.92,4.74c0.03,0.03,0.07,0.04,0.09,0.07
		c1.09,1.26,2.82,1.98,4.73,1.98c2.78,0,5.29-1.46,6.25-3.64c0.23-0.53,0.4-1.1,0.58-1.7c0.2-0.67,0.41-1.37,0.72-2.05
		c0.28-0.61,0.63-1.17,0.97-1.71c0.38-0.61,0.74-1.19,0.98-1.8c0.65-1.68,0.36-3.58,0.05-5.59l-0.13-0.9
		c-0.63-4.48-0.47-9.11,0.47-13.78c0.16-0.78,0.34-1.57,0.52-2.37c0.83-3.64,1.69-7.4,0.42-10.69c-0.57-1.48-1.53-2.78-2.55-4.15
		c-0.61-0.82-1.24-1.67-1.79-2.57c-4.35-7.16-2.91-16.17-1.63-24.12l0.14-0.89c0.18-1.13,0.36-2.31,0.53-3.53
		c-0.34-0.95-0.24-1.91-0.13-2.76c1.7-13.59-2.65-27.97-5.44-35.43c-2.38-3.67-5.34-6.72-8.73-8.91
		c-5.21-3.36-11.96-5.13-20.07-5.28c-5.35-0.1-10.79,0.49-16.05,1.05c-1.78,0.19-3.56,0.38-5.34,0.55
		c-3.93,0.37-7.45,0.55-10.76,0.55c-7.48,0-13.94-0.96-19.51-2.89c-0.23,0.28-0.47,0.54-0.69,0.76l-0.1,0.1
		c-1.26,1.27-2.37,2.79-3.44,4.25c-1.46,2-2.97,4.06-4.96,5.66c0.06,0.54,0.14,1.08,0.24,1.62c0.4,2.13,1.12,4.15,1.88,6.29
		c0.53,1.49,1.07,3.02,1.49,4.58c1.29,4.76,1,8.88-0.83,11.91c-2.77,4.58-8.54,6.09-12.64,6.83c-4.49,0.81-8.97,1.21-13.33,1.21
		c-0.6,0-1.21-0.01-1.81-0.02c-1.82-0.05-3.98-0.17-6.22-0.59c0.04,0.14,0.07,0.27,0.11,0.41c0.31,1,0.73,2.03,1.13,3.03
		c0.75,1.85,1.51,3.75,1.73,5.72l0.95-2.38c0.09-0.22,0.26-0.38,0.47-0.49c0.1-0.49,0.09-1.07,0.05-1.71l-0.19-2.87
		c-0.04-0.55,0.38-1.03,0.93-1.06c0.57-0.03,1.03,0.38,1.06,0.93l0.19,2.87c0.03,0.4,0.05,0.89,0.03,1.4
		c0.33-0.03,0.67-0.07,1.01-0.07c3.47,0,7.01,1.65,9.47,4.42c2.69,3.03,4.24,7.38,4.37,12.26c0,0.03,0,0.06,0,0.09
		c0.38-0.04,0.77-0.07,1.15-0.11c5.37-0.54,10.66-1.57,12.99-5.45c0.01-0.01,0.02-0.02,0.02-0.03c3.39-4.98,4.37-10.58,2.83-16.22
		c-0.15-0.53,0.17-1.08,0.7-1.23c0.53-0.14,1.08,0.17,1.23,0.7c1.56,5.7,0.78,11.37-2.24,16.49c15.02,1.86,30.88-0.49,44.66-6.67
		c1.18-0.53,2.44-1.04,3.73-1.04c0.6,0,1.16,0.12,1.67,0.35c1.69,0.51,2.61,2.14,3.23,3.25c0.21,0.39,0.44,0.76,0.66,1.15
		l15.07,20.9c0.39,0.54,0.78,1.09,1.16,1.63c0.54,0.6,1.08,1.21,1.63,1.8c1.77,1.9,4.18,4.49,4,7.69
		C165.29,146.73,166.11,150.23,165.76,153.94z"/>
	<path class="st2" d="M91.1,53.66c-0.13,0.51-0.39,0.92-0.68,1.29c5.57,1.92,12.03,2.89,19.51,2.89c3.31,0,6.83-0.18,10.76-0.55
		c1.78-0.17,3.56-0.36,5.34-0.55c5.26-0.57,10.7-1.16,16.05-1.05c8.11,0.15,14.86,1.92,20.07,5.28c3.39,2.19,6.35,5.24,8.73,8.91
		c-0.02-0.05-0.04-0.11-0.06-0.17c-0.16-0.43-0.01-0.91,0.36-1.17c0.37-0.26,0.88-0.24,1.22,0.06c0.02,0.02,0.04,0.04,0.06,0.05
		c-2.52-3.85-5.65-7.05-9.23-9.37c-5.53-3.56-12.63-5.44-21.12-5.6c-5.45-0.09-10.97,0.49-16.3,1.07c-1.77,0.19-3.54,0.38-5.32,0.55
		c-3.87,0.36-7.32,0.54-10.57,0.54c-7.26,0-13.51-0.92-18.88-2.77C91.12,53.25,91.15,53.46,91.1,53.66z"/>
	<path class="st2" d="M127,110.54c0.1-0.28,0.32-0.51,0.6-0.61l6.95-2.6c0.85-0.32,2.16-0.74,3.28-0.49
		c0.08,0.02,0.16,0.05,0.24,0.08c-0.51-0.23-1.07-0.35-1.67-0.35c-1.29,0-2.55,0.52-3.73,1.04c-13.78,6.18-29.64,8.53-44.66,6.67
		c-0.34,0.57-0.69,1.14-1.09,1.7c-0.2,0.28-0.5,0.42-0.82,0.42c-0.2,0-0.4-0.06-0.57-0.18c-0.45-0.32-0.56-0.94-0.24-1.39
		c0.07-0.1,0.13-0.2,0.2-0.3c-0.01,0.01-0.02,0.02-0.02,0.03c-2.33,3.88-7.62,4.91-12.99,5.45c-0.39,0.04-0.77,0.07-1.15,0.11
		c0,0.04,0,0.07,0,0.12l2.88-0.25c0.31-0.04,0.61,0.09,0.82,0.32c0.21,0.23,0.3,0.54,0.25,0.85c-0.03,0.18-0.04,0.36-0.07,0.54
		c4.73-0.67,9.13-2,11.61-5.54c13.51,1.84,27.7,0.31,40.59-4.28l-0.3-0.48C126.93,111.14,126.9,110.82,127,110.54z"/>
	<path class="st2" d="M176.5,108.22c-0.02-0.05-0.03-0.1-0.04-0.15c-0.17,1.22-0.35,2.4-0.53,3.53l-0.14,0.89
		c-1.28,7.95-2.73,16.96,1.63,24.12c0.55,0.9,1.18,1.75,1.79,2.57c1.02,1.37,1.98,2.67,2.55,4.15c1.27,3.29,0.41,7.05-0.42,10.69
		c-0.18,0.79-0.36,1.58-0.52,2.37c-0.95,4.67-1.1,9.3-0.47,13.78l0.13,0.9c0.31,2.01,0.59,3.92-0.05,5.59
		c-0.23,0.61-0.6,1.19-0.98,1.8c-0.34,0.54-0.69,1.1-0.97,1.71c-0.31,0.68-0.52,1.38-0.72,2.05c-0.18,0.6-0.35,1.17-0.58,1.7
		c-0.96,2.18-3.47,3.64-6.25,3.64c-1.92,0-3.64-0.72-4.73-1.98c-0.03-0.03-0.06-0.04-0.09-0.07c0.13,0.24,0.28,0.47,0.44,0.69
		c0.32,0.45,0.22,1.07-0.22,1.4c-0.18,0.13-0.38,0.19-0.58,0.19c-0.05,0-0.09-0.03-0.14-0.03c1.43,1.15,3.31,1.8,5.34,1.8
		c3.61,0,6.79-1.9,8.08-4.83c0.28-0.64,0.48-1.3,0.67-1.94c0.19-0.64,0.37-1.24,0.62-1.79c0.23-0.5,0.53-0.98,0.85-1.49
		c0.42-0.67,0.85-1.36,1.15-2.14c0.83-2.17,0.49-4.43,0.16-6.61l-0.13-0.88c-0.6-4.25-0.45-8.66,0.45-13.1
		c0.16-0.77,0.33-1.54,0.51-2.32c0.89-3.93,1.82-7.99,0.34-11.85c-0.67-1.74-1.76-3.2-2.81-4.62c-0.61-0.82-1.18-1.6-1.68-2.42
		c-3.97-6.53-2.64-14.78-1.36-22.76l0.14-0.89c0.08-0.52,0.17-1.05,0.25-1.59c-0.17-0.17-0.34-0.34-0.51-0.52
		C177.28,109.43,176.78,108.9,176.5,108.22z"/>
	<path class="st2" d="M52.98,106.73c-0.22-1.98-0.98-3.87-1.73-5.72c-0.41-1-0.83-2.03-1.13-3.03c-0.04-0.13-0.07-0.27-0.11-0.41
		c-0.72-0.13-1.46-0.31-2.19-0.51c0.11,0.51,0.24,1.02,0.39,1.51c0.33,1.08,0.77,2.15,1.19,3.19c1.02,2.51,1.98,4.88,1.56,7.27
		c-0.11,0.6-0.3,1.18-0.55,1.76c0.45-0.25,0.88-0.52,1.29-0.83L52.98,106.73z"/>
	<path class="st2" d="M163.95,185.7c-0.64,0.2-1.3,0.34-1.93,0.25c-0.71-0.1-1.49-0.7-1.44-1.33c0.01-0.14-0.01-0.27-0.06-0.4
		c0.02,0.3,0.03,0.61,0.05,0.91c0.03,0.55-0.39,1.02-0.94,1.05c-0.02,0-0.04,0-0.06,0c-0.53,0-0.97-0.41-1-0.95
		c-0.02-0.45-0.05-0.91-0.07-1.36c-0.66,0.22-1.36,0.32-2.09,0.32c-2.83,0-5.59-1.66-6.71-4.03c-1.59-3.35,0.01-7.88,3.34-9.51
		c0.82-0.4,1.73-0.66,2.7-0.93c1.62-0.46,3.3-0.93,4.65-2.14c1.33-1.2,2.03-2.92,2.6-4.29c1.21-2.97,2.47-6.04,2.78-9.38
		c0.35-3.71-0.47-7.21-1.96-10.61c0,0.04,0,0.08,0,0.12c-0.08,1.07-0.45,2.03-0.98,2.89c0.8,2.42,1.19,4.88,0.95,7.41
		c-0.29,3.05-1.48,5.98-2.64,8.81c-0.51,1.25-1.09,2.66-2.08,3.56c-1,0.9-2.38,1.29-3.85,1.7c-1.01,0.28-2.05,0.58-3.03,1.05
		c-0.35,0.17-0.68,0.37-1,0.59c-0.51,1.11-1.41,2.04-2.5,2.57c-1.71,2.63-2.14,6.11-0.77,9c1.46,3.1,4.89,5.17,8.52,5.17
		c0.84,0,1.66-0.11,2.43-0.33c0.52,1.12,1.71,1.89,2.89,2.06c1.15,0.16,2.29-0.13,3.27-0.48c-0.03-0.03-0.07-0.05-0.1-0.09
		C164.53,186.85,164.21,186.29,163.95,185.7z"/>
	<path class="st2" d="M141.95,111.31c4.59,8.07,10.03,15.63,16.23,22.53c-0.38-0.54-0.77-1.09-1.16-1.63L141.95,111.31z"/>
	<polygon class="st1" points="71.3,90.49 71.3,90.51 71.3,90.5 	"/>
	<path class="st1" d="M79.18,58.33c-0.71,0.82-1.52,1.56-2.45,2.14c-1.9,1.2-4.16,1.83-6.55,1.83c0,0,0,0,0,0
		c-1.3,0-2.58-0.19-3.82-0.56c-1.61-0.49-3.09-1.26-4.42-2.29c-1.03-0.8-1.75-1.61-2.2-2.49c-0.48-0.92-0.72-2-0.76-3.38
		c-0.05-1.56,0.15-3.02,0.59-4.35c0.75-2.24,2.24-4.2,4.2-5.52c2.62-1.75,6.22-2.39,9.87-1.75c0.98,0.17,1.82,0.4,2.55,0.71
		c1.84,0.77,3.36,2.24,4.37,4.01c0.23-4.26-0.13-9.35-2.79-13.3c-1.4-2.09-3.32-3.75-5.77-5.61c-2.04-1.55-4.23-2.98-6.52-2.71
		c-0.46,0.06-0.91-0.22-1.06-0.67c-0.15-0.44,0.02-0.93,0.42-1.18c0.11-0.07,0.23-0.14,0.35-0.21c0.1-0.09,0.21-0.17,0.35-0.22
		c0.79-0.5,1.56-1.07,2.07-1.79c0.07-0.15,0.16-0.29,0.21-0.45c0.23-0.71,0.2-1.49-0.03-2.2c-0.08-0.1-0.18-0.2-0.29-0.27
		c-0.78-0.48-2.24,0.1-3.14,0.55c-2.24,1.13-4.47,2.35-6.62,3.64c-0.46,0.27-1.04,0.14-1.33-0.29c-0.3-0.43-0.21-1.02,0.2-1.35
		l5.21-4.14c0.75-0.6,1.6-1.37,1.5-2.08c-0.12-0.82-1.41-1.03-2.15-1.03c-0.25,0-0.51,0.02-0.75,0.06c-2.65,0.44-5.17,1.87-6.91,3.9
		c-0.33,0.38-0.89,0.46-1.32,0.18c-0.42-0.28-0.56-0.83-0.33-1.28c0.53-1.04,1.26-1.92,1.97-2.76c0.7-0.84,1.37-1.63,1.79-2.53
		c0.43-0.92,0.38-2.22-0.11-3.04c-0.39-0.65-0.87-0.67-1.03-0.67c0,0,0,0,0,0c-0.6,0-1.19,0.35-1.64,0.66
		c-2.22,1.51-3.91,3.75-4.77,6.29c-0.14,0.4-0.28,0.85-0.65,1.23c-0.55,0.58-1.3,0.69-1.84,0.77c-4.54,0.68-8.87,2.63-12.44,5.51
		c-0.03,0.16-0.09,0.32-0.19,0.45c-4.75,6.11-7.28,14.04-6.95,21.78c0.35,8.15,3.7,15.9,6.95,23.41c1.74,4.02,3.53,8.17,4.88,12.39
		c0.53,1.65,0.56,3.05,0.14,4.09c0.33,1.61,0.68,3.14,1.35,4.54c1.29,2.67,3.82,4.85,7.13,6.16c3.37,1.33,7.03,1.58,9.85,1.66
		c4.83,0.13,9.76-0.27,14.73-1.16c3.72-0.67,8.93-2.01,11.28-5.89c1.95-3.23,1.41-7.41,0.61-10.35c-0.4-1.49-0.93-2.99-1.45-4.44
		c-0.75-2.12-1.52-4.31-1.96-6.59c-0.12-0.62-0.21-1.25-0.28-1.87c-0.08-0.14-0.13-0.29-0.14-0.45
		C78.98,63.04,79.01,60.68,79.18,58.33z M61.14,36.18c0.13-0.98,0.8-1.85,1.66-2.34s1.89-0.64,2.88-0.55
		c1.71,0.16,3.34,1.03,4.41,2.37c0.18,0.23,0.36,0.53,0.24,0.8c-1.22-0.86-2.59-1.6-4.08-1.7s-3.11,0.58-3.75,1.93
		c-0.11,0.24-0.22,0.51-0.45,0.63c-0.27,0.13-0.6-0.02-0.76-0.27C61.12,36.79,61.11,36.48,61.14,36.18z M30.42,42.9
		c-0.35-0.21-0.25-0.74-0.09-1.11c0.45-1.06,1.09-2.05,1.97-2.8c0.88-0.75,2-1.23,3.15-1.21c1.27,0.02,2.46,0.63,3.57,1.26
		c0.06,0.03,0.13,0.07,0.16,0.14c0.05,0.11-0.05,0.24-0.17,0.28s-0.24,0-0.36-0.03c-0.84-0.23-1.7-0.45-2.57-0.47
		c-0.87-0.03-1.78,0.15-2.5,0.65c-0.95,0.65-1.46,1.76-2.08,2.73C31.26,42.73,30.8,43.14,30.42,42.9z M41.5,69.15
		c-0.89,0-1.78-0.09-2.63-0.28c-1.9-0.42-3.51-1.26-4.65-2.42c-1.65-1.69-2.52-4.2-2.59-7.46c-0.05-2.63,0.4-6.35,2.84-9.12
		c2.04-2.32,5.33-3.66,9.02-3.66c0.9,0,1.82,0.08,2.71,0.24c2.58,0.45,4.53,1.43,5.82,2.9c0.7,0.79,1.23,1.78,1.65,3
		c1.45,4.28,0.44,9.22-2.58,12.58C48.73,67.57,45.15,69.15,41.5,69.15z M52.06,89.17c-0.06,0.33-0.17,0.68-0.41,0.91
		c-0.14,0.14-0.33,0.23-0.53,0.25c-0.93,0.13-1.48-1.06-1.44-1.99c0.04-0.9,0.34-1.78,0.85-2.52c0.25-0.01,0.51-0.03,0.76-0.04
		C51.98,86.75,52.26,88,52.06,89.17z M78.99,79.33c-0.18,2.97-1.83,5.61-4.19,6.73c-0.14,0.06-0.28,0.13-0.42,0.19
		c-0.55,0.24-1.08,0.47-1.3,0.89c-0.18,0.33-0.17,0.78-0.16,1.25c0,0.19,0.01,0.38,0,0.56c-0.03,0.96-0.56,1.98-1.52,2.05l-0.11,0
		c-0.57,0-1-0.33-1.38-0.62c-0.08-0.06-0.16-0.12-0.24-0.18c-0.58-0.41-1.26-0.6-2.15-0.6c-0.81,0-1.67,0.16-2.57,0.32
		c-0.93,0.17-1.88,0.34-2.81,0.34c-0.91,0-1.68-0.17-2.36-0.51c-1.15-0.58-1.94-1.68-2.58-2.55c-1.71-2.36-3.85-5.29-4.04-8.67
		c-0.07-1.32,0.19-2.46,0.77-3.31c0.71-1.04,1.82-1.63,3-2.2c3.81-1.83,7.75-3.5,11.71-4.96c0.73-0.27,1.65-0.61,2.61-0.62
		c2.1,0,4.08,1.5,5.63,4.23C78.43,74.37,79.14,76.95,78.99,79.33z"/>
	<path class="st2" d="M33.09,21.23c0.05,0.15,0.05,0.3,0.03,0.45c3.57-2.88,7.9-4.83,12.44-5.51c0.54-0.08,1.29-0.19,1.84-0.77
		c0.37-0.38,0.51-0.82,0.65-1.23c0.86-2.54,2.55-4.77,4.77-6.29c0.45-0.31,1.04-0.66,1.64-0.66c0,0,0,0,0,0
		c0.16,0.01,0.63,0.03,1.03,0.67c0.5,0.82,0.54,2.13,0.11,3.04c-0.42,0.9-1.09,1.69-1.79,2.53c-0.71,0.84-1.44,1.72-1.97,2.76
		c-0.23,0.45-0.08,1,0.33,1.28c0.42,0.28,0.99,0.2,1.32-0.18c1.75-2.04,4.27-3.46,6.91-3.9c0.24-0.04,0.49-0.06,0.75-0.06
		c0.74,0,2.03,0.22,2.15,1.03c0.1,0.71-0.75,1.48-1.5,2.08l-5.21,4.14c-0.41,0.33-0.5,0.92-0.2,1.35c0.3,0.43,0.88,0.56,1.33,0.29
		c2.15-1.28,4.38-2.51,6.62-3.64c0.89-0.45,2.36-1.03,3.14-0.55c0.12,0.07,0.21,0.17,0.29,0.27c-0.11-0.33-0.25-0.65-0.45-0.93
		c-0.24-0.33-0.25-0.77-0.04-1.12c0.07-0.11,0.14-0.21,0.21-0.32c-0.87-0.17-1.85-0.04-2.71,0.27c0.38-0.61,0.62-1.33,0.5-2.14
		c-0.24-1.67-1.87-2.74-4.13-2.74c-0.37,0-0.73,0.03-1.08,0.09c-1,0.17-1.98,0.46-2.93,0.85c0.09-0.17,0.18-0.34,0.27-0.52
		c0.72-1.52,0.63-3.55-0.21-4.93c-0.61-1.01-1.56-1.59-2.66-1.64c-0.01,0-0.12,0-0.13,0c-1.1,0-2.03,0.54-2.72,1.01
		c-2.57,1.76-4.54,4.35-5.55,7.35c-0.05,0.15-0.13,0.37-0.18,0.43c-0.08,0.09-0.47,0.14-0.7,0.18c-4.77,0.71-9.33,2.73-13.12,5.7
		C32.59,20.25,32.93,20.71,33.09,21.23z"/>
	<path class="st2" d="M78.36,33.31c-0.28-0.01-0.54-0.14-0.72-0.36c-1.62-1.94-3.29-3.94-5.27-5.5c-1.49-1.17-3.84-2.6-6.55-2.72
		c-0.48-0.02-0.88-0.39-0.95-0.87c-0.04-0.33,0.09-0.64,0.31-0.85c-0.12,0.07-0.23,0.14-0.35,0.21c-0.4,0.25-0.58,0.74-0.42,1.18
		c0.15,0.45,0.6,0.72,1.06,0.67c2.29-0.27,4.48,1.16,6.52,2.71c2.45,1.86,4.37,3.52,5.77,5.61c2.66,3.96,3.02,9.04,2.79,13.3
		c0.3,0.53,0.56,1.09,0.76,1.67c0.24-0.04,0.49-0.03,0.7,0.11c0.13,0.08,0.27,0.15,0.4,0.23c0.44-4.79,0.4-11.12-2.81-16.13
		c-0.16,0.15-0.34,0.28-0.49,0.44C78.91,33.22,78.64,33.34,78.36,33.31z"/>
	<path class="st2" d="M50,97.57c2.24,0.42,4.4,0.54,6.22,0.59c0.6,0.02,1.21,0.02,1.81,0.02c4.36,0,8.84-0.41,13.33-1.21
		c4.1-0.74,9.87-2.25,12.64-6.83c1.83-3.04,2.12-7.16,0.83-11.91c-0.42-1.56-0.97-3.1-1.49-4.58c-0.76-2.14-1.47-4.16-1.88-6.29
		c-0.1-0.54-0.18-1.08-0.24-1.62c-0.18,0.15-0.36,0.29-0.55,0.43c-0.17,0.13-0.38,0.19-0.59,0.19c-0.15,0-0.29-0.03-0.43-0.1
		c-0.19-0.09-0.33-0.23-0.43-0.41c0.07,0.62,0.16,1.25,0.28,1.87c0.43,2.28,1.21,4.47,1.96,6.59c0.51,1.45,1.04,2.95,1.45,4.44
		c0.8,2.94,1.34,7.12-0.61,10.35c-2.35,3.89-7.56,5.22-11.28,5.89c-4.97,0.89-9.9,1.29-14.73,1.16c-2.82-0.07-6.48-0.33-9.85-1.66
		c-3.31-1.3-5.84-3.49-7.13-6.16c-0.68-1.4-1.02-2.93-1.35-4.54c-0.25,0.62-0.67,1.11-1.24,1.45c-0.14,0.08-0.29,0.14-0.44,0.2
		c0.29,1.27,0.65,2.55,1.24,3.76c1.51,3.12,4.42,5.66,8.2,7.15c0.7,0.28,1.41,0.5,2.12,0.7C48.55,97.26,49.28,97.43,50,97.57z"/>
	<path class="st2" d="M65.53,22.8c0.01,0,0.02-0.01,0.03-0.01c0.89-0.28,1.62-0.95,2.04-1.78C67.09,21.73,66.32,22.3,65.53,22.8z"/>
	<path class="st3" d="M174.01,72.72c2.72,8.14,5.81,20.75,4.3,32.82c-0.09,0.73-0.18,1.41,0.03,1.91c0.13,0.32,0.41,0.63,0.75,0.99
		c10.09,10.67,21.94,17.02,33.37,17.87c0.44,0.03,0.88,0.06,1.32,0.06c1.15,0,2.03-0.17,2.76-0.52c0.78-0.38,1.5-1.18,1.62-2.02
		c-3.86-0.69-7.23-1.88-10.04-3.53c-4.67-2.75-8.68-7.28-12.26-13.83c-1.47-2.69-2.77-5.5-4.03-8.22c-1.24-2.69-2.53-5.47-3.97-8.1
		C184.77,84.46,179.63,78.03,174.01,72.72z"/>
	<path class="st2" d="M171.18,68.54c-0.37,0.26-0.52,0.74-0.36,1.17c0.02,0.05,0.04,0.11,0.06,0.17c2.79,7.46,7.15,21.83,5.44,35.43
		c-0.11,0.85-0.21,1.81,0.13,2.76c0.02,0.05,0.02,0.1,0.04,0.15c0.29,0.68,0.78,1.21,1.14,1.59c0.17,0.18,0.34,0.34,0.51,0.52
		c10.32,10.72,22.43,17.1,34.17,17.98c0.49,0.04,0.98,0.06,1.47,0.06c1.47,0,2.62-0.23,3.63-0.72c1.7-0.83,3.16-2.78,2.67-4.9
		c-0.09-0.4-0.42-0.7-0.82-0.76c-3.94-0.63-7.35-1.77-10.13-3.41c-4.35-2.57-8.12-6.84-11.52-13.07c-1.44-2.63-2.72-5.41-3.97-8.1
		c-1.26-2.72-2.56-5.53-4.03-8.22c-3.73-6.83-10.3-14.69-17.17-20.53c-0.02-0.02-0.04-0.04-0.06-0.05
		C172.05,68.3,171.55,68.28,171.18,68.54z M195.87,106.46c3.58,6.55,7.59,11.08,12.26,13.83c2.8,1.65,6.18,2.84,10.04,3.53
		c-0.13,0.84-0.84,1.64-1.62,2.02c-0.73,0.35-1.6,0.52-2.76,0.52c-0.44,0-0.89-0.02-1.32-0.06c-11.43-0.85-23.28-7.2-33.37-17.87
		c-0.34-0.36-0.62-0.67-0.75-0.99c-0.21-0.5-0.13-1.18-0.03-1.91c1.51-12.07-1.59-24.67-4.3-32.82
		c5.62,5.31,10.76,11.74,13.87,17.42c1.44,2.63,2.72,5.41,3.97,8.1C193.1,100.96,194.4,103.77,195.87,106.46z"/>
	<path class="st3" d="M31.08,68.11c-3.31-7.67-6.74-15.6-7.11-24.11c-0.34-7.96,2.18-16.13,6.94-22.53
		c-0.22-0.17-0.54-0.29-0.88-0.29c0,0,0,0,0,0c-0.7,0-1.43,0.34-2.05,0.66C18.82,26.5,12.94,35.55,8.84,42.91
		c-2.08,3.74-4.4,8.23-5.73,13.16C1.76,61.04,1.64,65.86,2.76,70c0.48,1.78,1.13,3.2,1.98,4.35c1.74,2.36,4.48,3.77,6.93,4.85
		c7.11,3.11,15.01,4.69,22.77,4.54c0.49-0.01,0.96-0.03,1.25-0.2c0.76-0.44,0.6-1.95,0.2-3.21C34.58,76.19,32.8,72.09,31.08,68.11z"
		/>
	<path class="st2" d="M37.94,83.8c0.42-1.04,0.38-2.45-0.14-4.09c-1.35-4.22-3.14-8.37-4.88-12.39c-3.24-7.5-6.59-15.26-6.95-23.41
		c-0.33-7.73,2.2-15.67,6.95-21.78c0.1-0.13,0.17-0.29,0.19-0.45c0.02-0.15,0.02-0.3-0.03-0.45c-0.16-0.53-0.5-0.98-0.95-1.33
		c-0.57-0.44-1.31-0.72-2.12-0.73c-1.07,0-2.04,0.42-2.94,0.88c-9.64,4.91-15.75,14.27-19.99,21.89c-2.02,3.62-4.51,8.44-5.91,13.6
		c-1.44,5.32-1.56,10.49-0.34,14.98c0.55,2.02,1.3,3.66,2.3,5.01c2.03,2.75,5.2,4.38,7.74,5.49c7.06,3.09,14.86,4.72,22.58,4.72
		c0.34,0,0.69,0,1.03-0.01c0.59-0.01,1.19-0.05,1.78-0.27c0.15-0.06,0.3-0.12,0.44-0.2C37.28,84.92,37.69,84.43,37.94,83.8z
		 M35.69,83.52c-0.3,0.17-0.76,0.19-1.25,0.2c-7.76,0.15-15.66-1.43-22.77-4.54c-2.45-1.07-5.19-2.49-6.93-4.85
		C3.89,73.19,3.25,71.77,2.76,70c-1.12-4.14-1.01-8.96,0.34-13.93c1.34-4.92,3.65-9.41,5.73-13.16c4.1-7.36,9.99-16.42,19.15-21.08
		c0.63-0.32,1.35-0.66,2.05-0.66c0,0,0,0,0,0c0.34,0,0.66,0.12,0.88,0.29c-4.76,6.4-7.28,14.57-6.94,22.53
		c0.37,8.51,3.79,16.44,7.11,24.11c1.72,3.97,3.49,8.08,4.81,12.21C36.3,81.58,36.46,83.08,35.69,83.52z"/>
	<path class="st4" d="M75.6,44.08c-0.63-0.26-1.36-0.47-2.23-0.62c-0.85-0.15-1.7-0.22-2.54-0.22c-2.38,0-4.53,0.6-6.23,1.74
		c-1.69,1.13-2.97,2.82-3.62,4.74c-0.39,1.16-0.56,2.44-0.51,3.82c0.04,1.16,0.23,2.03,0.6,2.75c0.35,0.68,0.94,1.33,1.79,1.99
		c1.18,0.92,2.51,1.6,3.94,2.04c1.09,0.33,2.23,0.5,3.38,0.5c0,0,0,0,0,0c2.1,0,4.08-0.55,5.75-1.6c1.56-0.98,2.78-2.42,3.54-4.04
		c0.2-1.63,0.47-3.25,0.79-4.86C79.86,47.58,78.06,45.11,75.6,44.08z M74.72,58.67c-0.43,0.47-0.86,0.81-1.29,1.05
		c-0.63,0.34-1.38,0.51-2.23,0.51c-0.21,0-0.43-0.01-0.64-0.03c-1.4-0.13-2.69-0.63-3.74-1.44c-0.66-0.51-1.14-1.08-1.41-1.71
		c-0.36-0.8-0.38-1.67-0.36-2.34c0.06-2.05,0.66-3.69,1.74-4.77c1.16-1.15,3.03-1.67,4.72-1.33c1.57,0.32,3.04,1.33,4.02,2.76
		c0.48,0.69,0.79,1.41,0.93,2.12C76.79,55.21,76.14,57.14,74.72,58.67z"/>
	<path class="st2" d="M76.18,42.69c-0.73-0.31-1.57-0.54-2.55-0.71c-3.64-0.64-7.25-0.01-9.87,1.75c-1.96,1.32-3.46,3.28-4.2,5.52
		c-0.44,1.33-0.64,2.79-0.59,4.35c0.05,1.39,0.29,2.46,0.76,3.38c0.45,0.87,1.17,1.69,2.2,2.49c1.33,1.03,2.82,1.8,4.42,2.29
		c1.23,0.37,2.52,0.56,3.82,0.56c0,0,0,0,0,0c2.38,0,4.65-0.63,6.55-1.83c0.93-0.59,1.74-1.32,2.45-2.14
		c0.07-1.06,0.17-2.11,0.29-3.16c-0.76,1.62-1.98,3.06-3.54,4.04c-1.66,1.05-3.65,1.6-5.75,1.6c0,0,0,0,0,0
		c-1.15,0-2.29-0.17-3.38-0.5c-1.43-0.43-2.76-1.12-3.94-2.04c-0.85-0.66-1.44-1.31-1.79-1.99c-0.37-0.71-0.56-1.59-0.6-2.75
		c-0.05-1.38,0.13-2.66,0.51-3.82c0.64-1.93,1.93-3.61,3.62-4.74c1.7-1.14,3.85-1.74,6.23-1.74c0.84,0,1.69,0.08,2.54,0.22
		c0.87,0.15,1.6,0.35,2.23,0.62c2.45,1.03,4.26,3.5,4.66,6.23c0.08-0.4,0.16-0.8,0.25-1.2c0.07-0.32,0.29-0.58,0.59-0.7
		c0.07-0.03,0.14-0.02,0.22-0.04c-0.2-0.58-0.46-1.13-0.76-1.67C79.55,44.93,78.03,43.47,76.18,42.69z"/>
	<path class="st4" d="M52.26,52.83c-0.35-1.03-0.79-1.85-1.36-2.49c-1.05-1.2-2.72-2.01-4.95-2.41c-0.81-0.14-1.63-0.21-2.45-0.21
		c-3.26,0-6.14,1.15-7.9,3.15c-2.12,2.42-2.51,5.74-2.47,8.1c0.05,2.87,0.78,5.03,2.16,6.44c0.94,0.96,2.29,1.65,3.9,2.01
		c0.75,0.16,1.52,0.25,2.3,0.25c3.22,0,6.39-1.39,8.48-3.73C52.61,61,53.52,56.54,52.26,52.83z M45.93,66.08
		c-0.99,0.77-2.3,1.22-3.69,1.27l-0.25,0c-0.51,0-0.99-0.06-1.42-0.17c-2.21-0.58-3.84-2.88-3.8-5.35c0.04-2.15,1.29-4.36,3.28-5.75
		c0.36-0.25,0.84-0.56,1.42-0.69c0.22-0.05,0.46-0.08,0.69-0.08c1.11,0,2.14,0.57,3.09,1.16c0.81,0.5,1.83,1.12,2.4,2.12
		c0.34,0.58,0.52,1.28,0.57,2.13C48.33,62.83,47.46,64.89,45.93,66.08z"/>
	<path class="st2" d="M53.68,52.34c-0.41-1.22-0.95-2.21-1.65-3c-1.28-1.47-3.24-2.44-5.82-2.9c-0.89-0.16-1.81-0.24-2.71-0.24
		c-3.69,0-6.98,1.33-9.02,3.66c-2.44,2.78-2.89,6.49-2.84,9.12c0.06,3.26,0.93,5.77,2.59,7.46c1.14,1.17,2.75,2,4.65,2.42
		c0.85,0.19,1.73,0.28,2.63,0.28c3.64,0,7.23-1.58,9.6-4.22C54.12,61.56,55.13,56.62,53.68,52.34z M39.2,67.41
		c-1.62-0.36-2.97-1.05-3.9-2.01c-1.38-1.41-2.1-3.58-2.16-6.44c-0.04-2.36,0.35-5.69,2.47-8.1c1.76-2,4.63-3.15,7.9-3.15
		c0.82,0,1.64,0.07,2.45,0.21c2.23,0.39,3.9,1.2,4.95,2.41c0.56,0.64,1.01,1.46,1.36,2.49c1.26,3.72,0.34,8.18-2.27,11.1
		c-2.09,2.33-5.26,3.73-8.48,3.73C40.72,67.65,39.94,67.57,39.2,67.41z"/>
	<path class="st5" d="M71.33,90c0.35-0.03,0.58-0.58,0.6-1.08c0-0.17,0-0.33,0-0.5c-0.02-0.56-0.03-1.19,0.28-1.76
		c0.39-0.72,1.13-1.04,1.78-1.32c0.13-0.06,0.26-0.11,0.39-0.17c2.04-0.96,3.45-3.27,3.62-5.89c0.14-2.19-0.52-4.58-1.97-7.12
		c-0.79-1.39-2.45-3.72-4.72-3.72c-0.76,0.01-1.46,0.25-2.3,0.56c-3.93,1.46-7.84,3.12-11.62,4.93c-1.09,0.52-2.03,1.02-2.6,1.86
		c-0.57,0.85-0.64,1.93-0.6,2.7c0.17,3.09,2.21,5.89,3.85,8.14c0.6,0.83,1.29,1.77,2.22,2.25c0.53,0.27,1.16,0.4,1.9,0.4
		c0.84,0,1.75-0.17,2.64-0.33c0.91-0.17,1.85-0.34,2.75-0.34c1.09,0,1.99,0.26,2.73,0.79c0.09,0.06,0.18,0.13,0.27,0.2
		c0.28,0.21,0.54,0.42,0.76,0.42v0.49l0,0L71.33,90z M71.08,72.32c-0.43,0.35-0.97,0.5-1.5,0.64c-1.21,0.33-2.43,0.67-3.69,0.81
		c-0.52,0.06-1.18,0-1.36-0.49c0.9-1.48,2.63-2.21,4.24-2.84c0.5-0.2,1.01-0.39,1.55-0.38c0.53,0.01,1.1,0.3,1.28,0.8
		C71.79,71.38,71.51,71.97,71.08,72.32z"/>
	<path d="M71.26,67.43c-0.96,0.01-1.88,0.35-2.61,0.62c-3.96,1.47-7.9,3.14-11.71,4.96c-1.18,0.57-2.29,1.16-3,2.2
		c-0.58,0.85-0.85,2-0.77,3.31c0.19,3.38,2.32,6.31,4.04,8.67c0.64,0.88,1.43,1.97,2.58,2.55c0.68,0.34,1.45,0.51,2.36,0.51
		c0.93,0,1.89-0.17,2.81-0.34c0.91-0.16,1.76-0.32,2.57-0.32c0.89,0,1.57,0.19,2.15,0.6c0.08,0.06,0.16,0.12,0.24,0.18
		c0.38,0.29,0.81,0.62,1.38,0.62l0.11,0c0.96-0.07,1.49-1.09,1.52-2.05c0-0.19,0-0.37,0-0.56c-0.01-0.47-0.03-0.92,0.16-1.25
		c0.23-0.42,0.75-0.64,1.3-0.89c0.14-0.06,0.28-0.12,0.42-0.19c2.36-1.12,4-3.76,4.19-6.73c0.15-2.38-0.56-4.97-2.1-7.68
		C75.35,68.93,73.36,67.43,71.26,67.43z M71.3,90.49v-0.49c-0.23,0-0.49-0.2-0.76-0.42c-0.09-0.07-0.18-0.14-0.27-0.2
		c-0.75-0.53-1.64-0.79-2.73-0.79c-0.9,0-1.84,0.17-2.75,0.34c-0.88,0.16-1.8,0.33-2.64,0.33c-0.75,0-1.37-0.13-1.9-0.4
		c-0.94-0.48-1.62-1.42-2.22-2.25c-1.64-2.25-3.67-5.05-3.85-8.14c-0.04-0.76,0.03-1.85,0.6-2.7c0.57-0.84,1.51-1.34,2.6-1.86
		c3.78-1.81,7.69-3.47,11.62-4.93c0.84-0.31,1.54-0.55,2.3-0.56c2.27,0,3.93,2.33,4.72,3.72c1.44,2.54,2.1,4.93,1.97,7.12
		c-0.16,2.61-1.58,4.93-3.62,5.89c-0.13,0.06-0.26,0.12-0.39,0.17c-0.65,0.28-1.39,0.6-1.78,1.32c-0.31,0.57-0.3,1.2-0.28,1.76
		c0,0.17,0.01,0.34,0,0.5c-0.01,0.5-0.25,1.06-0.6,1.08L71.3,90.49v0.01V90.49z"/>
	<path class="st4" d="M71.6,70.87c-0.18-0.5-0.74-0.79-1.28-0.8c-0.53-0.01-1.05,0.18-1.55,0.38c-1.61,0.63-3.34,1.36-4.24,2.84
		c0.18,0.49,0.84,0.55,1.36,0.49c1.25-0.14,2.47-0.48,3.69-0.81c0.53-0.15,1.08-0.3,1.5-0.64C71.51,71.97,71.79,71.38,71.6,70.87z"
		/>
	<path class="st6" d="M50.52,85.83c-0.51,0.74-0.81,1.62-0.85,2.52c-0.04,0.94,0.51,2.12,1.44,1.99c0.2-0.03,0.38-0.12,0.53-0.25
		c0.25-0.23,0.36-0.58,0.41-0.91c0.21-1.17-0.08-2.42-0.77-3.39C51.03,85.8,50.78,85.81,50.52,85.83z"/>
	<path class="st7" d="M69.31,120.08c-0.12-4.41-1.49-8.31-3.87-10.98c-2.45-2.75-6.32-4.19-9.58-3.57
		c-0.02,0.03-0.03,0.06-0.05,0.09c-0.1,0.14-0.22,0.26-0.37,0.33l-1.73,4.35c2.22,0.72,4.17,2.47,5.26,4.8
		c0.86,1.83,1.21,3.99,1.05,6.32c1.84-0.56,3.71-0.65,5.22-0.65c0.06,0,0.11,0,0.17,0c0.79-0.08,1.57-0.15,2.35-0.21l1.53-0.13
		C69.31,120.32,69.31,120.21,69.31,120.08z"/>
	<path class="st2" d="M66.94,107.76c-2.46-2.77-6-4.42-9.47-4.42c-0.34,0-0.67,0.04-1.01,0.07c-0.04,0.69-0.19,1.44-0.6,2.1
		c3.26-0.62,7.13,0.82,9.58,3.57c2.38,2.67,3.75,6.58,3.87,10.98c0,0.14,0,0.24,0,0.33l2.01-0.17c0-0.04,0-0.08,0-0.12
		c0-0.03,0-0.07,0-0.09C71.18,115.14,69.63,110.79,66.94,107.76z"/>
	<path class="st2" d="M60.03,121.4c0.17-2.33-0.19-4.49-1.05-6.32c-1.09-2.33-3.05-4.09-5.26-4.8l1.73-4.35
		c-0.14,0.07-0.3,0.11-0.46,0.11c-0.19,0-0.38-0.05-0.55-0.17c-0.46-0.31-0.58-0.93-0.28-1.39c0.12-0.18,0.19-0.4,0.24-0.63
		c-0.2,0.11-0.38,0.27-0.47,0.49l-0.95,2.38l-1.28,3.23c0.01-0.01,0.02-0.02,0.04-0.03c0.32-0.25,0.75-0.28,1.1-0.08
		c0.36,0.2,0.73,0.38,1.11,0.55c0.58,0.27,1.18,0.55,1.75,0.93c1.71,1.13,2.99,3.05,3.63,5.42c0.42,1.57,0.53,3.17,0.56,4.79
		c1.84-0.37,3.7-0.6,5.55-0.78c-0.06,0-0.11,0-0.17,0C63.74,120.75,61.87,120.84,60.03,121.4z"/>
	<path class="st6" d="M62.04,37.31c0.24-0.11,0.34-0.39,0.45-0.63c0.64-1.35,2.26-2.03,3.75-1.93s2.86,0.84,4.08,1.7
		c0.12-0.27-0.05-0.57-0.24-0.8c-1.08-1.33-2.71-2.21-4.41-2.37c-0.99-0.09-2.02,0.05-2.88,0.55s-1.53,1.36-1.66,2.34
		c-0.04,0.29-0.02,0.61,0.14,0.86C61.44,37.29,61.78,37.44,62.04,37.31z"/>
	<path class="st6" d="M33.57,39.61c0.72-0.5,1.62-0.67,2.5-0.65c0.87,0.03,1.73,0.24,2.57,0.47c0.12,0.03,0.24,0.07,0.36,0.03
		s0.21-0.17,0.17-0.28c-0.03-0.07-0.09-0.1-0.16-0.14c-1.11-0.63-2.29-1.24-3.57-1.26c-1.15-0.02-2.28,0.46-3.15,1.21
		c-0.88,0.75-1.52,1.74-1.97,2.8c-0.16,0.37-0.25,0.9,0.09,1.11c0.38,0.24,0.84-0.18,1.08-0.56C32.11,41.37,32.62,40.26,33.57,39.61
		z"/>
	<path class="st5" d="M75.48,53.7c-0.11-0.58-0.37-1.16-0.77-1.74c-0.84-1.23-2.08-2.08-3.4-2.35c-0.29-0.06-0.59-0.09-0.88-0.09
		c-1.13,0-2.2,0.42-2.94,1.15c-1.13,1.12-1.41,2.84-1.45,4.09c-0.02,0.56,0,1.29,0.27,1.9c0.21,0.47,0.58,0.92,1.11,1.32
		c0.9,0.69,2.01,1.12,3.23,1.23c0.86,0.08,1.69-0.04,2.3-0.36c0.34-0.18,0.68-0.46,1.04-0.85C75.19,56.7,75.75,55.09,75.48,53.7z
		 M72.9,56.37c-0.05,0.21-0.12,0.41-0.25,0.58c-0.25,0.34-0.7,0.5-1.13,0.49c-0.43-0.01-0.83-0.18-1.2-0.39
		c-0.15-0.08-0.29-0.18-0.38-0.32c-0.07-0.12-0.09-0.26-0.09-0.4c-0.01-0.25,0.03-0.5,0.13-0.73c0.21-0.53,0.69-0.96,1.25-1.07
		c0.56-0.11,1.18,0.13,1.5,0.61c0.08,0.13,0.15,0.27,0.18,0.42C72.97,55.83,72.95,56.11,72.9,56.37z"/>
	<path d="M75.53,51.39c-0.99-1.44-2.45-2.44-4.02-2.76c-1.7-0.34-3.56,0.18-4.72,1.33c-1.08,1.07-1.68,2.72-1.74,4.77
		c-0.02,0.67,0,1.54,0.36,2.34c0.28,0.62,0.75,1.2,1.41,1.71c1.05,0.81,2.34,1.31,3.74,1.44c0.21,0.02,0.43,0.03,0.64,0.03
		c0.85,0,1.6-0.17,2.23-0.51c0.44-0.24,0.86-0.58,1.29-1.05c1.42-1.53,2.07-3.47,1.74-5.17C76.32,52.79,76.01,52.08,75.53,51.39z
		 M70.65,59.21c-1.21-0.11-2.33-0.54-3.23-1.23c-0.53-0.41-0.9-0.85-1.11-1.32c-0.27-0.62-0.29-1.34-0.27-1.9
		c0.04-1.25,0.32-2.96,1.45-4.09c0.73-0.73,1.8-1.15,2.94-1.15c0.3,0,0.6,0.03,0.88,0.09c1.32,0.27,2.56,1.12,3.4,2.35
		c0.4,0.58,0.66,1.17,0.77,1.74c0.27,1.39-0.29,3-1.49,4.3c-0.36,0.39-0.7,0.67-1.04,0.85C72.34,59.17,71.51,59.29,70.65,59.21z"/>
	<path class="st5" d="M47.23,60.76c-0.04-0.69-0.18-1.24-0.43-1.68c-0.45-0.77-1.31-1.3-2.06-1.76c-0.83-0.51-1.72-1.01-2.57-1.01
		c-0.16,0-0.31,0.02-0.46,0.05c-0.32,0.08-0.65,0.24-1.07,0.54c-1.73,1.22-2.82,3.11-2.85,4.95c-0.03,1.99,1.31,3.9,3.05,4.36
		c0.35,0.09,0.74,0.14,1.17,0.14l0.21,0c1.18-0.04,2.29-0.42,3.11-1.06C46.59,64.3,47.32,62.56,47.23,60.76z M44.36,64.41
		c-0.08,0.12-0.17,0.23-0.28,0.33c-0.51,0.44-1.36,0.33-1.83-0.15s-0.58-1.25-0.36-1.89c0.07-0.22,0.18-0.42,0.34-0.59
		c0.39-0.4,1.06-0.48,1.56-0.23c0.5,0.26,0.82,0.8,0.87,1.36C44.69,63.65,44.58,64.07,44.36,64.41z"/>
	<path d="M45.25,56.47c-0.96-0.59-1.98-1.16-3.09-1.16c-0.24,0-0.47,0.03-0.69,0.08c-0.58,0.14-1.06,0.44-1.42,0.69
		c-1.99,1.4-3.24,3.6-3.28,5.75c-0.04,2.47,1.59,4.76,3.8,5.35c0.43,0.11,0.91,0.17,1.42,0.17l0.25,0c1.39-0.05,2.7-0.5,3.69-1.27
		c1.52-1.19,2.4-3.25,2.29-5.37c-0.04-0.85-0.23-1.54-0.57-2.13C47.08,57.59,46.07,56.97,45.25,56.47z M41.99,66.35
		c-0.42,0-0.82-0.05-1.17-0.14c-1.75-0.46-3.09-2.38-3.05-4.36c0.03-1.84,1.13-3.74,2.85-4.95c0.42-0.3,0.75-0.46,1.07-0.54
		c0.15-0.04,0.3-0.05,0.46-0.05c0.85,0,1.73,0.5,2.57,1.01c0.76,0.46,1.61,0.99,2.06,1.76c0.25,0.44,0.4,0.99,0.43,1.68
		c0.09,1.8-0.64,3.54-1.91,4.53c-0.83,0.64-1.93,1.02-3.11,1.06L41.99,66.35z"/>
	<path class="st4" d="M72.72,55.15c-0.31-0.48-0.94-0.71-1.5-0.61c-0.56,0.11-1.04,0.53-1.25,1.07c-0.09,0.23-0.13,0.48-0.13,0.73
		c0,0.14,0.03,0.28,0.09,0.4c0.08,0.15,0.23,0.24,0.38,0.32c0.37,0.21,0.78,0.37,1.2,0.39c0.43,0.01,0.87-0.15,1.13-0.49
		c0.13-0.17,0.2-0.37,0.25-0.58c0.06-0.26,0.07-0.54,0-0.8C72.86,55.42,72.8,55.28,72.72,55.15z"/>
	<path class="st4" d="M43.79,61.89c-0.5-0.26-1.17-0.18-1.56,0.23c-0.16,0.16-0.27,0.37-0.34,0.59c-0.22,0.64-0.11,1.4,0.36,1.89
		s1.32,0.59,1.83,0.15c0.11-0.09,0.2-0.2,0.28-0.33c0.22-0.34,0.33-0.76,0.29-1.16C44.62,62.69,44.29,62.14,43.79,61.89z"/>
	<path class="st3" d="M81.47,11.69c0.07-0.55,0.57-0.93,1.13-0.86c0.55,0.07,0.93,0.58,0.86,1.13C82.7,17.53,83.86,23.17,85,28.64
		c0.06,0.09,0.11,0.2,0.14,0.32c1.23,4.86,1.13,9.92,1.04,14.81c-0.02,0.9-0.03,1.79-0.04,2.69c0,0.49,0.01,0.99,0.2,1.22
		c0.13,0.16,0.43,0.29,0.7,0.39c1.34,0.5,2.79,0.74,4.42,0.74c2.25,0,4.7-0.44,7.96-1.44c2.03-0.62,4.21-1.5,4.96-3.26
		c0.57-1.35,0.21-3.02-0.26-4.76c-2.88-10.85-6.19-22.28-12.3-32.26c-0.92-1.5-2.03-3.19-3.59-4.25c-0.77-0.52-1.55-0.8-2.26-0.82
		c0,0,0,0,0,0c-1.3,0-2.52,0.72-3.65,1.5c-5.14,3.51-9.62,8.12-13,13.35c0.71,1.31,0.86,2.91,0.4,4.33c-0.24,0.74-0.66,1.42-1.19,2
		c1.72,0.5,3.45,1.41,5.09,2.71c1.85,1.46,3.41,3.22,4.89,4.98c1.29-1.08,2.82-1.89,4.43-2.37C81.84,23.26,80.7,17.4,81.47,11.69z"
		/>
	<path class="st2" d="M67.32,17.43c0.2,0.28,0.34,0.6,0.45,0.93c0.24,0.71,0.27,1.49,0.03,2.2c-0.05,0.16-0.14,0.3-0.21,0.45
		c-0.42,0.83-1.15,1.5-2.04,1.78c-0.01,0-0.02,0.01-0.03,0.01c-0.13,0.05-0.25,0.12-0.35,0.22c-0.23,0.22-0.36,0.52-0.31,0.85
		c0.06,0.48,0.46,0.85,0.95,0.87c2.71,0.12,5.06,1.54,6.55,2.72c1.97,1.56,3.65,3.56,5.27,5.5c0.18,0.22,0.44,0.35,0.72,0.36
		c0.28,0.02,0.55-0.09,0.75-0.29c0.15-0.16,0.33-0.29,0.49-0.44c1.1-0.98,2.42-1.73,3.83-2.16c0.92,4.32,0.84,8.88,0.76,13.31
		c-0.02,0.9-0.03,1.81-0.04,2.71c-0.01,0.63-0.02,1.7,0.65,2.51c0.44,0.53,1.03,0.8,1.55,1c1.55,0.57,3.27,0.86,5.11,0.86
		c2.45,0,5.09-0.47,8.54-1.53c2.47-0.76,5.15-1.87,6.21-4.4c0.82-1.93,0.39-3.97-0.16-6.05c-2.91-10.99-6.28-22.58-12.53-32.8
		c-1.1-1.8-2.37-3.64-4.18-4.86c-1.1-0.74-2.22-1.13-3.32-1.17l-0.15,0c-1.75,0-3.29,0.89-4.7,1.85C75.75,5.56,71.03,10.45,67.49,16
		c-0.07,0.11-0.14,0.21-0.21,0.32C67.06,16.66,67.08,17.1,67.32,17.43z M84.06,30.02c-0.46,0-0.88-0.32-0.98-0.8
		c-0.05-0.24-0.1-0.48-0.15-0.72c-1.61,0.48-3.14,1.28-4.43,2.37c-1.48-1.76-3.04-3.52-4.89-4.98c-1.64-1.29-3.36-2.2-5.09-2.71
		c0.53-0.57,0.94-1.25,1.19-2c0.47-1.42,0.31-3.02-0.4-4.33c3.38-5.23,7.86-9.84,13-13.35C83.45,2.72,84.67,2,85.96,2c0,0,0,0,0,0
		c0.71,0.02,1.49,0.31,2.26,0.82c1.57,1.06,2.67,2.75,3.59,4.25c6.11,9.98,9.43,21.41,12.3,32.26c0.46,1.74,0.83,3.41,0.26,4.76
		c-0.75,1.77-2.92,2.64-4.96,3.26c-3.25,0.99-5.71,1.44-7.96,1.44c-1.63,0-3.08-0.24-4.42-0.74c-0.27-0.1-0.57-0.23-0.7-0.39
		c-0.19-0.23-0.2-0.73-0.2-1.22c0.01-0.89,0.02-1.79,0.04-2.69c0.09-4.89,0.18-9.95-1.04-14.81c-0.03-0.12-0.08-0.22-0.14-0.32
		c0.01,0.06,0.02,0.12,0.04,0.18c0.11,0.54-0.23,1.07-0.77,1.18C84.19,30.01,84.13,30.02,84.06,30.02z"/>
	<path class="st2" d="M85.04,28.82c-0.01-0.06-0.02-0.12-0.04-0.18c-1.14-5.46-2.3-11.11-1.55-16.68c0.07-0.55-0.31-1.05-0.86-1.13
		c-0.56-0.07-1.05,0.31-1.13,0.86c-0.77,5.71,0.37,11.57,1.46,16.81c0.05,0.24,0.1,0.49,0.15,0.72c0.1,0.47,0.51,0.8,0.98,0.8
		c0.07,0,0.14-0.01,0.21-0.02C84.8,29.89,85.15,29.36,85.04,28.82z"/>
	<path class="st8" d="M81.02,63.24c1.3-1.27,2.4-2.78,3.54-4.35c1.11-1.53,2.27-3.1,3.64-4.48l0.11-0.11
		c0.12-0.12,0.23-0.23,0.34-0.35c-2.23-0.84-4.4-1.86-6.47-3.05C81.37,54.96,80.98,59.1,81.02,63.24z"/>
	<path class="st2" d="M81.31,48.37c-0.07,0.01-0.15,0.01-0.22,0.04c-0.3,0.13-0.52,0.39-0.59,0.7c-0.09,0.4-0.16,0.8-0.25,1.2
		c-0.33,1.61-0.59,3.23-0.79,4.86c-0.13,1.05-0.22,2.11-0.29,3.16c-0.16,2.35-0.2,4.71-0.1,7.07c0.01,0.16,0.06,0.31,0.14,0.45
		c0.1,0.17,0.24,0.32,0.43,0.41c0.14,0.07,0.29,0.1,0.43,0.1c0.21,0,0.42-0.07,0.59-0.19c0.19-0.14,0.37-0.29,0.55-0.43
		c1.99-1.61,3.5-3.66,4.96-5.66c1.07-1.47,2.18-2.98,3.44-4.25l0.1-0.1c0.22-0.22,0.47-0.48,0.69-0.76
		c0.29-0.36,0.55-0.78,0.68-1.29c0.05-0.21,0.02-0.41-0.05-0.6c-0.1-0.27-0.3-0.5-0.6-0.6c-2.8-0.96-5.5-2.23-8.04-3.76
		c-0.13-0.08-0.27-0.15-0.4-0.23C81.8,48.35,81.55,48.33,81.31,48.37z M88.31,54.29L88.2,54.4c-1.37,1.38-2.52,2.96-3.64,4.48
		c-1.15,1.57-2.25,3.08-3.54,4.35c-0.04-4.14,0.35-8.27,1.15-12.33c2.07,1.19,4.24,2.21,6.47,3.05
		C88.54,54.06,88.43,54.18,88.31,54.29z"/>
	<path class="st9" d="M57.38,117.26c-0.51-1.9-1.5-3.41-2.8-4.27c-0.45-0.3-0.96-0.53-1.49-0.78c-0.22-0.1-0.44-0.21-0.66-0.32
		c-1.86,1.27-4,1.93-6.08,2.57c-0.36,0.11-0.71,0.22-1.07,0.33c-3.45,1.1-6.08,2.33-8.26,3.85c-2.27,1.58-4.01,3.51-5.12,5.63
		c0.1,0.05,0.2,0.11,0.29,0.16c2.71,1.49,5.28,2.89,8.24,3.33c3.68,0.55,7.67,0.04,11.54-1.44c0.28-0.88,0.85-1.7,1.63-2.37
		c0.31-0.52,0.82-0.75,1.08-0.86c1.05-0.45,2.11-0.81,3.2-1.1C57.87,120.36,57.78,118.76,57.38,117.26z"/>
	<path class="st2" d="M30.93,123.75c0.32,0.17,0.64,0.35,0.96,0.53c1.11-2.11,2.86-4.04,5.12-5.63c2.18-1.53,4.81-2.75,8.26-3.85
		c0.35-0.11,0.71-0.22,1.07-0.33c2.08-0.64,4.23-1.3,6.08-2.57c0.22,0.11,0.44,0.21,0.66,0.32c0.54,0.25,1.04,0.49,1.49,0.78
		c1.3,0.86,2.29,2.37,2.8,4.27c0.4,1.5,0.48,3.1,0.49,4.74c0.66-0.18,1.33-0.33,1.99-0.46c-0.02-1.62-0.14-3.22-0.56-4.79
		c-0.63-2.37-1.92-4.3-3.63-5.42c-0.57-0.38-1.17-0.66-1.75-0.93c-0.37-0.17-0.75-0.35-1.11-0.55c-0.35-0.2-0.78-0.16-1.1,0.08
		c-0.01,0.01-0.02,0.02-0.04,0.03c-0.41,0.31-0.84,0.59-1.29,0.83c-1.4,0.77-2.99,1.26-4.65,1.77c-0.36,0.11-0.73,0.22-1.09,0.34
		c-3.65,1.16-6.45,2.47-8.8,4.12c-2.7,1.89-4.75,4.24-5.99,6.83c0.07-0.05,0.13-0.11,0.22-0.14
		C30.37,123.6,30.67,123.62,30.93,123.75z"/>
	<path class="st2" d="M51.97,126.33c0.05-0.02,0.1-0.04,0.16-0.06c0.3-0.12,0.65-0.08,0.92,0.1c0.27,0.18,0.44,0.49,0.44,0.82
		l0.01,0.63c0.18-0.26,0.27-0.53,0.34-0.78c-0.11-0.43-0.21-0.87-0.32-1.3l-0.04-0.18c-0.08-0.32-0.23-0.92,0.07-1.52
		c0.02-0.03,0.04-0.06,0.06-0.09C52.81,124.63,52.24,125.45,51.97,126.33z"/>
	<path class="st2" d="M90.24,97.79c-0.15-0.53-0.7-0.84-1.23-0.7c-0.53,0.15-0.85,0.7-0.7,1.23c1.54,5.64,0.56,11.23-2.83,16.22
		c-0.07,0.1-0.13,0.2-0.2,0.3c-0.32,0.45-0.21,1.08,0.24,1.39c0.17,0.12,0.38,0.18,0.57,0.18c0.31,0,0.62-0.15,0.82-0.42
		c0.39-0.56,0.75-1.13,1.09-1.7C91.02,109.15,91.8,103.49,90.24,97.79z"/>
	<path class="st2" d="M54.43,105.88c0.17,0.11,0.36,0.17,0.55,0.17c0.16,0,0.32-0.04,0.46-0.11c0.14-0.08,0.27-0.19,0.37-0.33
		c0.02-0.03,0.03-0.06,0.05-0.09c0.41-0.66,0.56-1.41,0.6-2.1c0.03-0.52,0-1-0.03-1.4l-0.19-2.87c-0.04-0.55-0.49-0.96-1.06-0.93
		c-0.55,0.04-0.97,0.51-0.93,1.06l0.19,2.87c0.04,0.64,0.06,1.23-0.05,1.71c-0.05,0.23-0.12,0.45-0.24,0.63
		C53.85,104.95,53.97,105.57,54.43,105.88z"/>
	<path class="st7" d="M42.99,136.04c0.22,0.01,0.45,0.05,0.68,0.1c2.83-0.54,5.48-2.08,7.88-3.55l-0.05-3.96
		c-3.81,1.27-7.72,1.66-11.37,1.12c-3.31-0.49-6.16-2.05-8.91-3.56c-0.08-0.04-0.16-0.09-0.24-0.13c-0.02,0.05-0.04,0.1-0.06,0.16
		c-0.5,1.28-1.06,2.73-1.1,3.89c-0.03,0.85,0.11,1.64,0.39,2.33c0.56,0.94,1.43,1.76,2.54,2.37c1.14,0.51,2.35,0.9,3.6,1.17
		c1.22,0.2,2.46,0.29,3.67,0.34c0.21,0.01,0.43,0.01,0.64,0.02c0.05-0.01,0.1-0.02,0.15-0.03C41.49,136.16,42.19,136,42.99,136.04z"
		/>
	<path class="st2" d="M28.75,131.23c0.48-0.11,0.96,0.14,1.15,0.59c0.09,0.21,0.2,0.42,0.32,0.62c-0.27-0.68-0.41-1.48-0.39-2.33
		c0.04-1.16,0.6-2.61,1.1-3.89c0.02-0.05,0.04-0.11,0.06-0.16c0.08,0.04,0.16,0.09,0.24,0.13c2.75,1.51,5.59,3.07,8.91,3.56
		c3.65,0.54,7.56,0.15,11.37-1.12l0.05,3.96c0.17-0.1,0.34-0.21,0.51-0.31c0.32-0.19,0.71-0.2,1.03-0.01
		c0.25,0.15,0.42,0.39,0.47,0.67l-0.06-5.11l-0.01-0.63c0-0.33-0.17-0.63-0.44-0.82c-0.27-0.18-0.62-0.22-0.92-0.1
		c-0.05,0.02-0.1,0.04-0.16,0.06c-3.87,1.48-7.86,1.99-11.54,1.44c-2.96-0.44-5.52-1.84-8.24-3.33c-0.1-0.05-0.2-0.11-0.29-0.16
		c-0.32-0.18-0.64-0.35-0.96-0.53c-0.26-0.14-0.56-0.16-0.83-0.05c-0.08,0.03-0.15,0.09-0.22,0.14c-0.16,0.12-0.3,0.27-0.37,0.46
		c-0.13,0.38-0.29,0.78-0.45,1.19c-0.55,1.43-1.18,3.05-1.23,4.55c-0.02,0.67,0.05,1.32,0.18,1.94
		C28.09,131.62,28.37,131.32,28.75,131.23z"/>
	<path class="st2" d="M34.01,135.4c0.76,0.28,1.55,0.46,2.35,0.59c-1.25-0.27-2.46-0.66-3.6-1.17
		C33.15,135.03,33.56,135.23,34.01,135.4z"/>
	<path class="st2" d="M53.34,151.88c0.02-0.02,0.05-0.03,0.08-0.05c0.1-0.08,0.38-0.31,0.5-0.7c0,0,0,0-0.01,0.01
		C53.77,151.41,53.58,151.66,53.34,151.88z"/>
	<path class="st2" d="M49.84,153.15c-0.08,0.01-0.17,0.03-0.25,0.03c0.15-0.01,0.3-0.01,0.45-0.03c0.01,0,0.02-0.01,0.03-0.01
		C50,153.15,49.92,153.15,49.84,153.15z"/>
	<path class="st2" d="M44.37,152.06c-0.46-0.19-0.96-0.41-1.4-0.76c-0.87-0.46-1.72-0.97-2.54-1.52c0.63,0.57,1.37,1.04,2.11,1.44
		c1.46,0.79,3.22,1.64,5.18,1.92c0.06,0.01,0.12,0.01,0.18,0.01c-0.72-0.11-1.4-0.32-1.99-0.54
		C45.42,152.45,44.91,152.28,44.37,152.06z"/>
	<path class="st2" d="M49.01,153.23c0.09,0,0.17-0.02,0.26-0.02c-0.1,0.01-0.21,0.01-0.31,0.01C48.98,153.23,49,153.23,49.01,153.23
		z"/>
	<path class="st9" d="M52.99,139.74c-0.55-1.58-1.11-3.2-1.32-4.89c-1.71,1.02-3.54,2.02-5.5,2.68c0.31,1.97,1.19,3.6,2.4,5.4
		c1.32,1.95,2.99,3.72,4.6,5.43l0.19,0.21c0,0,0.01,0.01,0.01,0.01c0.4-0.66,0.68-1.39,0.81-2.16
		C54.55,144.24,53.79,142.06,52.99,139.74z"/>
	<path class="st9" d="M38.84,140.95c-0.33-0.94-0.58-1.67-0.67-2.72c-1.59-0.12-3.27-0.36-4.86-0.95c-0.63-0.23-1.23-0.52-1.78-0.85
		c0.2,0.35,0.41,0.69,0.63,1.04c1.54,2.49,3.26,5.1,5.35,7.28c1.13,1.17,2.38,2.23,3.72,3.16L38.84,140.95z"/>
	<path class="st2" d="M43.8,136.16c0.21,0.04,0.43,0.08,0.57,0.08c0.01,0,0.01,0,0.02,0c0.27-0.26,0.65-0.35,1.01-0.23
		c0.38,0.13,0.65,0.46,0.68,0.86c0.02,0.23,0.05,0.45,0.09,0.67c1.96-0.67,3.79-1.66,5.5-2.68c0.22,1.69,0.78,3.31,1.32,4.89
		c0.8,2.32,1.56,4.5,1.2,6.69c-0.13,0.77-0.41,1.5-0.81,2.16c0.24,0.25,0.59,0.63,0.72,1.17c0.12,0.47,0.04,0.94-0.19,1.38
		c0,0,0,0,0.01-0.01c1.16-1.15,1.97-2.72,2.24-4.38c0.44-2.68-0.43-5.22-1.28-7.67c-0.71-2.04-1.37-3.97-1.3-5.92
		c0-0.08-0.01-0.16-0.02-0.23c-0.06-0.28-0.22-0.52-0.47-0.67c-0.32-0.19-0.71-0.18-1.03,0.01c-0.17,0.1-0.34,0.21-0.51,0.31
		c-2.4,1.47-5.05,3.01-7.88,3.55C43.71,136.15,43.76,136.15,43.8,136.16z"/>
	<path class="st2" d="M49.31,153.18c-1.05,0-2.17-0.2-3.39-0.57c0.59,0.22,1.27,0.43,1.99,0.54c0.07,0.01,0.13,0.03,0.2,0.03
		c0.26,0.03,0.52,0.05,0.78,0.05c0.02,0,0.05,0,0.07,0c0.1,0,0.21-0.01,0.31-0.01c0.11-0.01,0.22-0.01,0.32-0.02
		c0.08-0.01,0.17-0.02,0.25-0.03C49.67,153.17,49.49,153.18,49.31,153.18z"/>
	<path class="st2" d="M42.56,150.9c-0.47-0.54-0.69-1.17-0.86-1.69l-0.45-1.31c-1.34-0.93-2.6-1.99-3.72-3.16
		c-2.09-2.18-3.81-4.79-5.35-7.28c-0.22-0.35-0.43-0.7-0.63-1.04c0.55,0.33,1.15,0.61,1.78,0.85c1.59,0.59,3.27,0.83,4.86,0.95
		c-0.02-0.21-0.03-0.44-0.04-0.68c0-0.28,0.11-0.54,0.31-0.74s0.47-0.29,0.75-0.28l0.15,0c0.43,0,0.87-0.09,1.33-0.19
		c-0.21-0.01-0.43-0.01-0.64-0.02c-1.2-0.05-2.45-0.13-3.67-0.34c-0.8-0.13-1.59-0.31-2.35-0.59c-0.45-0.16-0.86-0.36-1.26-0.58
		c-1.1-0.62-1.98-1.44-2.54-2.37c-0.12-0.2-0.23-0.41-0.32-0.62c-0.19-0.45-0.67-0.7-1.15-0.59c-0.38,0.09-0.66,0.39-0.74,0.76
		c-0.02,0.09-0.04,0.18-0.03,0.27c0.14,2.3,1.26,4.27,2.49,6.26c1.6,2.59,3.39,5.3,5.61,7.61c1.31,1.36,2.78,2.59,4.35,3.65
		c0.82,0.55,1.67,1.06,2.54,1.52C42.83,151.18,42.69,151.05,42.56,150.9z"/>
	<path class="st10" d="M63.62,160.27c0.45-0.33,1.07-0.23,1.4,0.22c0.33,0.45,0.23,1.07-0.22,1.4c-2.21,1.61-4.02,3.82-5.2,6.3
		c0.1,0.19,0.15,0.4,0.13,0.61c0.04,0.03,0.09,0.05,0.12,0.05c0.24,0,0.56-0.19,0.95-0.55l0.25-0.24c0.4-0.39,0.85-0.83,1.47-1.11
		c0.65-0.3,1.33-0.33,1.86-0.33c0.18,0,0.35,0,0.52,0.01c0.43,0.01,0.86,0.02,1.29,0.02c0.99,0,2.26-0.05,3.41-0.46
		c1.45-0.52,2.7-1.59,3.84-2.67c1.59-1.52,3.28-3.37,3.69-5.61c0.42-2.31-0.53-4.59-1.55-7c-0.6-1.43-1.22-2.9-1.57-4.44
		c-0.37-1.65-0.42-3.32-0.47-4.94l-0.45-15.74c-0.03-1.21-0.07-2.44,0.04-3.69l-5.19,0.45c-4.22,0.37-8.58,0.74-12.48,2.41
		c-0.03,0.01-0.06,0.02-0.08,0.04c0.01,0.05,0.02,0.09,0.03,0.11l0.04,0.18c0.22,0.89,0.44,1.78,0.66,2.67
		c1.75,7.33,2.95,14.87,3.56,22.39c0.04,0.53,0.16,1.94-0.91,2.69c-0.5,0.35-1.06,0.4-1.46,0.43c-2.91,0.23-6.53,0.81-8.76,3.22
		c-1.37,1.48-2.04,3.55-1.8,5.55c0.14,1.13,0.84,2.33,1.68,2.39c1.94-3.35,5.2-5.97,8.91-7.07c0.53-0.16,1.09,0.14,1.24,0.67
		c0.16,0.53-0.14,1.09-0.67,1.24c-3.49,1.04-6.54,3.61-8.16,6.87c-0.1,0.19-0.25,0.33-0.42,0.43c0.04,0.36,0.23,0.74,0.51,0.99
		c0.63,0.55,1.6,0.76,2.47,0.91c2.28,0.4,3.88,0.3,5.04-0.27C58.63,165.17,60.84,162.3,63.62,160.27z"/>
	<path class="st2" d="M75.01,120.31c-0.21-0.23-0.52-0.35-0.82-0.32l-2.88,0.25l-2.01,0.17l-1.53,0.13
		c-0.78,0.07-1.56,0.14-2.35,0.21c-1.85,0.18-3.71,0.41-5.55,0.78c-0.67,0.14-1.33,0.28-1.99,0.46c-1.08,0.29-2.15,0.65-3.2,1.1
		c-0.26,0.11-0.77,0.34-1.08,0.86c-0.02,0.03-0.04,0.05-0.06,0.09c-0.3,0.6-0.15,1.2-0.07,1.52l0.04,0.18
		c0.11,0.43,0.21,0.87,0.32,1.3c0.11,0.45,0.22,0.9,0.33,1.35c1.72,7.24,2.91,14.67,3.51,22.08c0.06,0.72-0.05,0.87-0.06,0.88
		c-0.07,0.04-0.33,0.06-0.48,0.07c-1.19,0.1-2.59,0.27-4.01,0.61c-0.16,0.13-0.34,0.25-0.53,0.35c-0.76,0.4-1.6,0.65-2.52,0.73
		c-0.01,0-0.02,0.01-0.03,0.01c-1.09,0.53-2.11,1.22-2.97,2.14c-1.76,1.9-2.63,4.58-2.32,7.15c0.19,1.61,1.12,3.31,2.56,3.92
		c-0.08,1.07,0.43,2.19,1.2,2.86c0.97,0.86,2.23,1.17,3.45,1.38c1.04,0.18,1.95,0.27,2.78,0.27c1.36,0,2.53-0.24,3.52-0.73
		c0.41,0.43,1,0.69,1.59,0.69c1.03,0,1.81-0.63,2.31-1.09l0.28-0.27c0.31-0.3,0.6-0.59,0.9-0.72c0.24-0.11,0.55-0.16,1.03-0.16
		c0.16,0,0.31,0,0.47,0.01c0.45,0.01,0.9,0.02,1.35,0.02c1.15,0,2.65-0.07,4.09-0.58c1.8-0.64,3.25-1.87,4.54-3.11
		c1.83-1.74,3.76-3.9,4.28-6.7c0.53-2.89-0.59-5.56-1.67-8.14c-0.57-1.35-1.15-2.74-1.46-4.11c-0.33-1.46-0.37-2.96-0.42-4.56
		l-0.44-15.73c-0.04-1.34-0.06-2.71,0.1-4.02c0.02-0.18,0.04-0.36,0.07-0.54C75.32,120.85,75.22,120.54,75.01,120.31z M58.1,170.15
		c-0.12,0-0.23-0.02-0.35-0.06c-0.52-0.19-0.78-0.77-0.59-1.29c0.05-0.15,0.12-0.29,0.18-0.43c-1.17,0.57-2.76,0.67-5.04,0.27
		c-0.86-0.15-1.84-0.36-2.47-0.91c-0.28-0.25-0.47-0.63-0.51-0.99c-0.15,0.08-0.31,0.13-0.48,0.13c-0.15,0-0.3-0.03-0.44-0.1
		c-0.49-0.25-0.7-0.85-0.45-1.34c0.14-0.28,0.31-0.55,0.47-0.82c-0.84-0.06-1.55-1.26-1.68-2.39c-0.24-2,0.43-4.08,1.8-5.55
		c2.23-2.41,5.85-2.98,8.76-3.22c0.41-0.03,0.96-0.08,1.46-0.43c1.07-0.75,0.95-2.16,0.91-2.69c-0.61-7.52-1.81-15.05-3.56-22.39
		c-0.21-0.89-0.43-1.78-0.66-2.67l-0.04-0.18c-0.01-0.02-0.02-0.07-0.03-0.11c0.02-0.01,0.05-0.02,0.08-0.04
		c3.9-1.66,8.26-2.04,12.48-2.41l5.19-0.45c-0.1,1.25-0.07,2.48-0.04,3.69l0.45,15.74c0.05,1.62,0.09,3.29,0.47,4.94
		c0.35,1.54,0.97,3.01,1.57,4.44c1.01,2.42,1.97,4.7,1.55,7c-0.41,2.24-2.1,4.09-3.69,5.61c-1.14,1.08-2.39,2.16-3.84,2.67
		c-1.15,0.41-2.43,0.46-3.41,0.46c-0.43,0-0.86-0.01-1.29-0.02c-0.17,0-0.35-0.01-0.52-0.01c-0.52,0-1.2,0.04-1.86,0.33
		c-0.62,0.28-1.07,0.72-1.47,1.11l-0.25,0.24c-0.39,0.37-0.71,0.55-0.95,0.55c-0.03,0-0.08-0.02-0.12-0.05
		c0.03-0.22-0.02-0.43-0.13-0.61c-0.21,0.43-0.4,0.87-0.57,1.32C58.89,169.9,58.51,170.15,58.1,170.15z"/>
	<path class="st2" d="M59.04,169.5c0.17-0.45,0.36-0.89,0.57-1.32c1.18-2.48,2.99-4.68,5.2-6.3c0.45-0.33,0.54-0.95,0.22-1.4
		c-0.33-0.45-0.95-0.54-1.4-0.22c-2.78,2.03-4.99,4.9-6.28,8.1c-0.06,0.15-0.13,0.29-0.18,0.43c-0.19,0.52,0.07,1.09,0.59,1.29
		c0.12,0.04,0.23,0.06,0.35,0.06C58.51,170.15,58.89,169.9,59.04,169.5z"/>
	<path class="st2" d="M49.74,166.31c1.62-3.26,4.67-5.83,8.16-6.87c0.53-0.16,0.83-0.72,0.67-1.24c-0.16-0.53-0.72-0.83-1.24-0.67
		c-3.71,1.11-6.96,3.73-8.91,7.07c-0.16,0.27-0.33,0.54-0.47,0.82c-0.25,0.5-0.04,1.09,0.45,1.34c0.14,0.07,0.29,0.1,0.44,0.1
		c0.17,0,0.33-0.05,0.48-0.13C49.5,166.65,49.65,166.51,49.74,166.31z"/>
	<path class="st10" d="M141.37,165.36c0.05-0.85,0.13-1.75,0.45-2.64c0.38-1.05,1.05-1.89,1.89-2.37c0.48-0.27,1.09-0.11,1.36,0.37
		c0.27,0.48,0.11,1.09-0.37,1.36c-0.43,0.24-0.78,0.71-1,1.31c-0.23,0.64-0.3,1.37-0.34,2.06c-0.09,1.61,0.02,2.8,0.34,3.84
		c0.16,0.05,0.31,0.13,0.43,0.25c0.79,0.82,2.14,1.18,3.24,0.85c1.11-0.34,2.02-1.37,2.22-2.51c0.11-0.61,0.05-1.3-0.17-2.24
		c-0.38-1.6-1.02-3.12-1.91-4.5c-0.15-0.24-0.2-0.53-0.12-0.8c0.07-0.27,0.26-0.5,0.51-0.63c1.61-0.82,3.1-1.66,3.69-2.98
		c0.16-0.35,0.26-0.76,0.36-1.19c0.09-0.35,0.18-0.71,0.3-1.05c0.89-2.57,3.17-4.21,5.18-5.67l0.39-0.28
		c1.77-1.28,3.82-3.04,3.99-5.25c0.17-2.2-1.47-4.15-3.46-6.29c-7.29-7.82-13.61-16.52-18.8-25.87c-0.62-1.12-1.26-2.15-2.16-2.35
		c-0.58-0.13-1.31,0.1-2.14,0.41l-5.81,2.17l4.23,6.85c1.92,3.1,3.89,6.31,6.32,9.07c0.35,0.4,0.72,0.79,1.08,1.19
		c0.81,0.88,1.65,1.78,2.38,2.78c2.45,3.35,3.63,7.7,3.32,12.25c-0.27,3.95-1.67,8.08-4.06,11.94c-0.16,0.26-0.43,0.43-0.72,0.47
		c-0.3,0.03-0.6-0.06-0.82-0.27c-1.42-1.36-3.45-2.13-5.59-2.13c-1.78,0-3.48,0.54-4.79,1.54c-3,2.27-4,6.83-2.22,10.15
		c0.91,1.7,2.43,2.86,3.97,3.02c0.53,0.06,1.2-0.04,1.64-0.4c-0.2-0.89-0.36-2.21-0.36-2.7c-0.01-3.07,0.59-4.39,2.4-6.8
		c0.33-0.44,0.96-0.53,1.4-0.2c0.44,0.33,0.53,0.96,0.2,1.4c-1.58,2.1-2,3.04-2,5.59c0,0.51,0.26,2.25,0.4,2.61
		c0,0.01,0,0.01,0,0.02c0.04,0.1,0.05,0.2,0.06,0.31c0,0.02,0.01,0.04,0.01,0.06c0,0.12-0.03,0.25-0.08,0.37
		c-0.18,0.44,0.03,1.11,0.51,1.56c0.57,0.54,1.41,0.85,2.22,1.12c0.8,0.27,1.79,0.53,2.52,0.36c0.33-0.08,0.62-0.3,0.8-0.54
		c-0.21-0.32-0.32-0.63-0.37-0.79C141.42,168.85,141.26,167.36,141.37,165.36z"/>
	<path class="st2" d="M134.35,169.98c0.21,0.59,0.57,1.11,0.98,1.51c0.87,0.83,1.99,1.25,2.97,1.57c0.76,0.25,1.65,0.52,2.59,0.52
		c0.35,0,0.7-0.04,1.02-0.12c0.84-0.2,1.65-0.76,2.12-1.52c1.18,0.61,2.64,0.76,3.92,0.37c0.24-0.07,0.48-0.17,0.71-0.28
		c1.1-0.53,1.99-1.46,2.5-2.57c0.18-0.39,0.32-0.81,0.4-1.23c0.2-1.13,0-2.22-0.2-3.05c-0.35-1.47-0.89-2.87-1.62-4.19
		c1.57-0.86,2.95-1.85,3.66-3.46c0.23-0.51,0.36-1.02,0.48-1.52c0.07-0.3,0.15-0.6,0.25-0.89c0.68-1.97,2.6-3.36,4.46-4.7l0.39-0.28
		c1.37-0.99,2.87-2.25,3.83-3.82c0.53-0.86,0.9-1.82,0.98-2.89c0-0.04,0-0.08,0-0.12c0.18-3.2-2.23-5.79-4-7.69
		c-0.55-0.59-1.09-1.2-1.63-1.8c-6.2-6.9-11.64-14.46-16.23-22.53c-0.22-0.38-0.44-0.76-0.66-1.15c-0.61-1.11-1.54-2.74-3.23-3.25
		c-0.08-0.02-0.15-0.06-0.24-0.08c-1.12-0.25-2.43,0.17-3.28,0.49l-6.95,2.6c-0.28,0.1-0.5,0.33-0.6,0.61
		c-0.1,0.28-0.06,0.59,0.1,0.85l0.3,0.48l4.57,7.41c1.96,3.17,3.98,6.45,6.52,9.34c0.36,0.41,0.74,0.82,1.11,1.22
		c0.81,0.87,1.57,1.69,2.23,2.6c2.17,2.97,3.21,6.86,2.94,10.93c-0.22,3.29-1.32,6.74-3.18,10.03c-1.68-1.22-3.81-1.9-6.01-1.9
		c-2.21,0-4.34,0.69-6,1.94c-3.75,2.84-5,8.53-2.78,12.68c1.24,2.32,3.3,3.84,5.53,4.07C133.03,170.27,133.74,170.19,134.35,169.98z
		 M143.54,171.81c-0.13,0-0.25-0.02-0.38-0.07c-0.42-0.17-0.71-0.46-0.91-0.76c-0.18,0.24-0.47,0.46-0.8,0.54
		c-0.73,0.18-1.71-0.09-2.52-0.36c-0.81-0.27-1.65-0.58-2.22-1.12c-0.47-0.45-0.69-1.13-0.51-1.56c0.05-0.12,0.08-0.25,0.08-0.37
		c-0.01,0.39-0.24,0.75-0.62,0.91c-0.12,0.05-0.25,0.07-0.38,0.07c-0.39,0-0.77-0.23-0.93-0.62c-0.06-0.16-0.13-0.39-0.19-0.66
		c-0.44,0.35-1.11,0.45-1.64,0.4c-1.54-0.16-3.06-1.31-3.97-3.02c-1.77-3.32-0.78-7.87,2.22-10.15c1.31-0.99,3.01-1.54,4.79-1.54
		c2.13,0,4.17,0.78,5.59,2.13c0.22,0.21,0.52,0.3,0.82,0.27c0.3-0.04,0.57-0.21,0.72-0.47c2.39-3.86,3.79-7.99,4.06-11.94
		c0.3-4.54-0.88-8.89-3.32-12.25c-0.73-1-1.57-1.91-2.38-2.78c-0.36-0.39-0.73-0.79-1.08-1.19c-2.43-2.76-4.41-5.96-6.32-9.07
		l-4.23-6.85l5.81-2.17c0.83-0.31,1.56-0.54,2.14-0.41c0.9,0.2,1.53,1.23,2.16,2.35c5.19,9.35,11.51,18.05,18.8,25.87
		c2,2.14,3.63,4.09,3.46,6.29c-0.17,2.21-2.22,3.97-3.99,5.25l-0.39,0.28c-2.01,1.45-4.29,3.1-5.18,5.67
		c-0.12,0.34-0.21,0.7-0.3,1.05c-0.11,0.43-0.21,0.83-0.36,1.19c-0.59,1.33-2.08,2.17-3.69,2.98c-0.25,0.13-0.44,0.36-0.51,0.63
		c-0.07,0.27-0.03,0.56,0.12,0.8c0.89,1.38,1.53,2.9,1.91,4.5c0.22,0.95,0.28,1.64,0.17,2.24c-0.2,1.14-1.11,2.17-2.22,2.51
		c-1.1,0.33-2.45-0.03-3.24-0.85c-0.12-0.13-0.27-0.2-0.43-0.25c0.02,0.08,0.04,0.17,0.07,0.25c0.1,0.28,0.16,0.35,0.17,0.36
		c0.51,0.2,0.74,0.77,0.54,1.28C144.33,171.58,143.94,171.81,143.54,171.81z"/>
	<path class="st2" d="M136.22,167.74c0.04,0.1,0.05,0.21,0.06,0.31C136.27,167.94,136.26,167.84,136.22,167.74z"/>
	<path class="st2" d="M136.28,168.05c0-0.1-0.02-0.21-0.06-0.31c0-0.01,0-0.01,0-0.02c-0.14-0.35-0.4-2.1-0.4-2.61
		c-0.01-2.55,0.42-3.49,2-5.59c0.33-0.44,0.24-1.07-0.2-1.4c-0.44-0.33-1.07-0.24-1.4,0.2c-1.81,2.41-2.41,3.73-2.4,6.8
		c0,0.49,0.16,1.81,0.36,2.7c0.06,0.27,0.12,0.5,0.19,0.66c0.16,0.39,0.53,0.62,0.93,0.62c0.13,0,0.25-0.02,0.38-0.07
		c0.38-0.16,0.62-0.52,0.62-0.91C136.29,168.09,136.28,168.07,136.28,168.05z"/>
	<path class="st2" d="M143.94,169.9c-0.01-0.01-0.08-0.08-0.17-0.36c-0.03-0.08-0.04-0.17-0.07-0.25c-0.31-1.04-0.42-2.23-0.34-3.84
		c0.04-0.69,0.1-1.42,0.34-2.06c0.22-0.6,0.57-1.07,1-1.31c0.48-0.27,0.65-0.88,0.37-1.36c-0.27-0.48-0.88-0.65-1.36-0.37
		c-0.84,0.48-1.51,1.32-1.89,2.37c-0.32,0.88-0.41,1.79-0.45,2.64c-0.11,2,0.05,3.49,0.51,4.84c0.05,0.15,0.16,0.47,0.37,0.79
		c0.2,0.3,0.49,0.6,0.91,0.76c0.12,0.05,0.25,0.07,0.38,0.07c0.4,0,0.79-0.23,0.94-0.63C144.68,170.67,144.45,170.1,143.94,169.9z"
		/>
	<path class="st2" d="M160.61,177.81c0.33-2.63,1.15-4.8,2.43-6.46c0.34-0.44,0.26-1.06-0.17-1.4c-0.44-0.34-1.06-0.26-1.4,0.17
		c-1.51,1.94-2.47,4.44-2.84,7.44c-0.27,2.12-0.21,4.25-0.11,6.33c0.02,0.45,0.04,0.91,0.07,1.36c0.03,0.53,0.47,0.95,1,0.95
		c0.02,0,0.04,0,0.06,0c0.55-0.03,0.97-0.5,0.94-1.05c-0.02-0.3-0.03-0.61-0.05-0.91C160.42,182.09,160.34,179.92,160.61,177.81z"/>
	<path class="st2" d="M166.31,187.6c0.45-0.32,0.55-0.95,0.22-1.4c-0.16-0.22-0.3-0.45-0.44-0.69c-0.81-1.43-1.14-3.12-0.92-4.74
		c0.26-1.9,1.28-3.67,2.78-4.86c0.43-0.34,0.51-0.97,0.16-1.4c-0.34-0.43-0.97-0.51-1.4-0.16c-1.9,1.5-3.19,3.75-3.52,6.15
		c-0.25,1.77,0.03,3.59,0.75,5.21c0.26,0.59,0.58,1.15,0.96,1.67c0.03,0.04,0.07,0.05,0.1,0.09c0.16,0.17,0.36,0.27,0.57,0.3
		c0.05,0.01,0.09,0.03,0.14,0.03C165.92,187.79,166.13,187.73,166.31,187.6z"/>
	<path class="st7" d="M52.15,150.2c-0.02-0.01-0.17-0.17-0.24-0.25l-0.19-0.21c-1.67-1.77-3.4-3.6-4.8-5.68
		c-1.29-1.91-2.26-3.68-2.66-5.82c-0.29-0.01-0.58-0.07-0.83-0.12c-0.18-0.04-0.36-0.07-0.53-0.08l-0.16,0
		c-0.48,0-0.96,0.11-1.48,0.22c-0.34,0.08-0.68,0.15-1.05,0.21c0.09,0.59,0.26,1.08,0.52,1.82l2.85,8.27
		c0.13,0.38,0.27,0.78,0.48,1.02c0.23,0.27,0.66,0.46,1.07,0.63c2.75,1.13,4.95,1.28,6.52,0.44
		C51.97,150.48,52.14,150.27,52.15,150.2z"/>
	<path class="st2" d="M53.91,151.14c0.23-0.44,0.3-0.92,0.19-1.38c-0.13-0.55-0.48-0.92-0.72-1.17c0,0-0.01-0.01-0.01-0.01
		l-0.19-0.21c-1.62-1.71-3.29-3.49-4.6-5.43c-1.22-1.79-2.09-3.43-2.4-5.4c-0.03-0.22-0.07-0.44-0.09-0.67
		c-0.03-0.4-0.3-0.74-0.68-0.86c-0.36-0.12-0.75-0.03-1.01,0.23c0,0,0,0-0.02,0c-0.14,0-0.36-0.04-0.57-0.08
		c-0.05-0.01-0.09-0.01-0.13-0.02c-0.23-0.04-0.46-0.09-0.68-0.1c-0.8-0.04-1.5,0.12-2.17,0.27c-0.05,0.01-0.1,0.02-0.15,0.03
		c-0.46,0.1-0.9,0.19-1.33,0.19l-0.15,0c-0.28-0.01-0.55,0.09-0.75,0.28s-0.31,0.46-0.31,0.74c0,0.25,0.02,0.47,0.04,0.68
		c0.09,1.05,0.34,1.78,0.67,2.72l2.4,6.96l0.45,1.31c0.18,0.51,0.4,1.15,0.86,1.69c0.13,0.15,0.27,0.28,0.42,0.4
		c0.44,0.35,0.94,0.58,1.4,0.76c0.53,0.22,1.05,0.4,1.54,0.55c1.22,0.38,2.35,0.57,3.39,0.57c0.18,0,0.36-0.02,0.54-0.03
		c0.08-0.01,0.15-0.01,0.23-0.01c0.92-0.09,1.76-0.33,2.52-0.73c0.2-0.1,0.37-0.22,0.53-0.35c0.07-0.06,0.15-0.11,0.21-0.17
		C53.58,151.66,53.77,151.41,53.91,151.14z M45.13,150.21c-0.41-0.17-0.83-0.36-1.07-0.63c-0.21-0.24-0.35-0.64-0.48-1.02
		l-2.85-8.27c-0.26-0.74-0.43-1.23-0.52-1.82c0.36-0.05,0.71-0.13,1.05-0.21c0.52-0.12,1-0.22,1.48-0.22l0.16,0
		c0.17,0.01,0.35,0.05,0.53,0.08c0.25,0.05,0.54,0.1,0.83,0.12c0.41,2.14,1.37,3.91,2.66,5.82c1.41,2.08,3.13,3.91,4.8,5.68
		l0.19,0.21c0.07,0.08,0.22,0.23,0.24,0.25c-0.02,0.07-0.19,0.28-0.5,0.45C50.08,151.48,47.88,151.33,45.13,150.21z"/>
	<path class="st11" d="M15.35,79.69c-4.23-2.53-6.48-7.56-6.82-12.48s0.98-9.79,2.49-14.48c3.31-10.33,7.77-20.57,14.15-29.25
		C17.6,28.42,12.5,36.33,8.84,42.91c-2.08,3.74-4.4,8.23-5.73,13.16C1.76,61.04,1.64,65.86,2.76,70c0.48,1.78,1.13,3.2,1.98,4.35
		c1.74,2.36,4.48,3.77,6.93,4.85c2.2,0.96,4.49,1.76,6.81,2.42C17.51,80.9,16.34,80.28,15.35,79.69z"/>
	<path class="st11" d="M99.42,47.36c1.57-0.48,3.22-1.12,4.24-2.2c-0.74-0.06-1.48,0.11-2.2,0.28c-2.14,0.5-4.35,0.92-6.53,0.63
		c-2.18-0.29-4.35-1.4-5.43-3.31c-1.02-1.8-0.93-3.99-1.07-6.05c-0.42-6.13-3.02-11.99-3.19-18.14c-0.06-2.33,0.22-4.68-0.14-6.98
		c-0.16-1-0.53-2.1-1.45-2.53c-1.12-0.53-2.5,0.28-3.06,1.38c-0.57,1.1-0.56,2.4-0.61,3.64c-0.19,4.74-1.69,9.69-5.17,12.84
		c1.34,1.23,2.54,2.59,3.69,3.95c1.29-1.08,2.82-1.89,4.43-2.37c-1.09-5.24-2.23-11.1-1.46-16.81c0.07-0.55,0.57-0.93,1.13-0.86
		c0.55,0.07,0.93,0.58,0.86,1.13C82.7,17.53,83.86,23.17,85,28.64c0.06,0.09,0.11,0.2,0.14,0.32c1.23,4.86,1.13,9.92,1.04,14.81
		c-0.02,0.9-0.03,1.79-0.04,2.69c0,0.49,0.01,0.99,0.2,1.22c0.13,0.16,0.43,0.29,0.7,0.39c1.34,0.5,2.79,0.74,4.42,0.74
		C93.71,48.8,96.17,48.36,99.42,47.36z"/>
	<path class="st12" d="M162.9,166.84c4.31-3.2,6.44-8.74,6.53-14.11c0.04-2.77,0.19-6.2-1.08-8.66c-1.01-1.94-3.13-5.83-4.5-7.53
		c-6.61-8.21-11.01-15.05-15.39-24.63c-1.82-3.97-4.25-8.43-8.54-9.23c-2.19-0.41-4.42,0.27-6.55,0.92
		c-7.41,2.28-14.86,4.4-22.36,6.36c-6.34,1.66-13.06,3.2-19.35,1.37c0.49-5.32,0.16-10.72-0.98-15.94c-1.3-1.05-3.37,0.07-3.99,1.62
		c-0.62,1.55-0.32,3.29-0.28,4.95c0.12,4.86-2.24,9.72-6.14,12.64c-2.62,1.96-5.88,2.99-9.15,3.02c0.1,0.79,0.18,1.58,0.2,2.4
		c0,0.03,0,0.06,0,0.09c0.38-0.04,0.77-0.07,1.15-0.11c5.37-0.54,10.66-1.57,12.99-5.45c0.01-0.01,0.02-0.02,0.02-0.03
		c3.39-4.98,4.37-10.58,2.83-16.22c-0.15-0.53,0.17-1.08,0.7-1.23c0.53-0.14,1.08,0.17,1.23,0.7c1.56,5.7,0.78,11.37-2.24,16.49
		c15.02,1.86,30.88-0.49,44.66-6.67c1.18-0.53,2.44-1.04,3.73-1.04c0.6,0,1.16,0.12,1.67,0.35c1.69,0.51,2.61,2.14,3.23,3.25
		c0.21,0.39,0.44,0.76,0.66,1.15l15.07,20.9c0.39,0.54,0.78,1.09,1.16,1.63c0.54,0.6,1.08,1.21,1.63,1.8c1.77,1.9,4.18,4.49,4,7.69
		c1.49,3.4,2.31,6.9,1.96,10.61c-0.31,3.34-1.57,6.41-2.78,9.38c-0.56,1.38-1.26,3.09-2.6,4.29c-1.35,1.21-3.02,1.68-4.65,2.14
		c-0.96,0.27-1.88,0.53-2.7,0.93c-3.33,1.62-4.93,6.16-3.34,9.51c0.41,0.87,1.05,1.64,1.82,2.28c-0.54-2.27-0.92-4.54-0.2-6.65
		C152.93,171.08,158.89,169.82,162.9,166.84z"/>
	<path class="st11" d="M218.03,124.25c-2.72,1.21-5.91,0.56-8.81-0.2c-4.89-1.27-9.85-2.76-13.93-5.75
		c-3.02-2.22-5.41-5.16-7.76-8.06c-3.19-3.94-6.42-7.96-8.84-12.38c0.05,2.55-0.06,5.12-0.38,7.67c-0.09,0.73-0.18,1.41,0.03,1.91
		c0.13,0.32,0.41,0.63,0.75,0.99c10.09,10.67,21.94,17.02,33.37,17.87c0.44,0.03,0.88,0.06,1.32,0.06c1.15,0,2.03-0.17,2.76-0.52
		C217.19,125.53,217.77,124.93,218.03,124.25z"/>
	<g>
		<path class="st12" d="M65.64,25.07c0.01,0.24,0.04,0.49,0.1,0.73c3.47,1.32,6.53,3.69,8.68,6.71c2.45,3.44,3.63,7.48,4.14,11.7
			c0.79,0.71,1.46,1.55,2,2.49c0.23-4.26-0.13-9.35-2.79-13.3c-1.4-2.09-3.32-3.75-5.77-5.61C70,26.28,67.87,24.89,65.64,25.07z"/>
		<path class="st12" d="M66.56,22.07c0.4-0.32,0.76-0.66,1.03-1.06c0.02-0.04,0.03-0.07,0.05-0.11
			C67.24,21.24,66.87,21.64,66.56,22.07z"/>
		<path class="st12" d="M82.29,89.1c1.95-3.23,1.41-7.41,0.61-10.35c-0.4-1.49-0.93-2.99-1.45-4.44c-0.75-2.12-1.52-4.31-1.96-6.59
			c-0.12-0.62-0.21-1.25-0.28-1.87c-0.08-0.14-0.13-0.29-0.14-0.45c-0.1-2.36-0.07-4.72,0.1-7.07c-0.19,0.23-0.42,0.43-0.63,0.64
			c-0.29,5.86-0.39,11.75,1.47,17.27c0.68,2,1.61,3.96,1.72,6.07c0.18,3.6-2.17,6.96-5.16,8.97s-6.57,2.94-10.07,3.83
			c-1.15,0.29-2.3,0.59-3.45,0.88c2.63-0.19,5.28-0.51,7.95-0.99C74.72,94.33,79.94,92.99,82.29,89.1z"/>
	</g>
</g>
</svg>
