<?xml version="1.0" encoding="utf-8"?>
<!-- Generator: Adobe Illustrator 23.1.0, SVG Export Plug-In . SVG Version: 6.00 Build 0)  -->
<svg version="1.1" id="Vrstva_10" xmlns="http://www.w3.org/2000/svg" xmlns:xlink="http://www.w3.org/1999/xlink" x="0px" y="0px"
	 viewBox="0 0 220.2 188.4" style="enable-background:new 0 0 220.2 188.4;" xml:space="preserve">
<style type="text/css">
	.st0{fill:none;}
	.st1{fill:#BA9060;}
	.st2{fill:#A47C4F;}
	.st3{fill:#7B5632;}
	.st4{fill:#5C3F22;}
	.st5{fill:#FFFFFF;}
	.st6{fill:#4C331B;}
	.st7{fill:#1C1C1B;}
	.st8{fill:#4A321A;}
	.st9{fill:#E31317;}
	.st10{fill:#62B594;}
	.st11{fill:#F2EEE9;}
	.st12{fill:#A07A53;}
</style>
<g>
	<path class="st0" d="M53.6,131.7c0,0.1,0,0.2,0,0.2c-0.1,2,0.6,3.9,1.3,5.9c0.8,2.4,1.7,5,1.3,7.7c-0.3,1.7-1.1,3.2-2.2,4.4
		c-0.1,0.4-0.4,0.6-0.5,0.7c0,0-0.1,0-0.1,0c-0.1,0.1-0.1,0.1-0.2,0.2c1.4-0.3,2.8-0.5,4-0.6c0.1,0,0.4,0,0.5-0.1
		c0,0,0.1-0.2,0.1-0.9c-0.6-7.4-1.8-14.8-3.5-22.1c-0.1-0.5-0.2-0.9-0.3-1.4c-0.1,0.2-0.2,0.5-0.3,0.8L53.6,131.7z"/>
	<path class="st0" d="M155.2,166.6c1.5-0.4,2.9-0.8,3.8-1.7c1-0.9,1.6-2.3,2.1-3.6c1.2-2.8,2.4-5.8,2.6-8.8c0.2-2.5-0.2-5-1-7.4
		c-1,1.6-2.5,2.8-3.8,3.8l-0.4,0.3c-1.9,1.3-3.8,2.7-4.5,4.7c-0.1,0.3-0.2,0.6-0.2,0.9c-0.1,0.5-0.3,1-0.5,1.5
		c-0.7,1.6-2.1,2.6-3.7,3.5c0.7,1.3,1.3,2.7,1.6,4.2c0.2,0.8,0.4,1.9,0.2,3c-0.1,0.4-0.2,0.8-0.4,1.2c0.3-0.2,0.7-0.4,1-0.6
		C153.1,167.2,154.2,166.9,155.2,166.6z"/>
	<path class="st1" d="M164.4,153c-0.3,3.3-1.4,6.3-2.6,9.3c-0.6,1.4-1.5,3-2.8,4.2c-1.3,1.2-2.5,0.9-4.2,1.4c-1,0.3-2.2,1.1-3.1,1.5
		c-3.3,1.6-4.6,7.5-3,10.8c1.1,2.4,4.9,4,7.7,4c0.7,0,1.4-0.2,2.1-0.4c0.8-0.4-0.3,0.2,1.1,0c0,0.1,0.7,1.1,0.7,1.2
		c-0.1,0.6,1.2,0.6,1.9,0.7c0.6,0.1,1.4,0.1,2-0.1c-0.2-0.4,0.1-1,0.7-0.7c0,0,0.8,0.4,0.8,0.4c1.1,1.3,3.9,1.4,5.8,1.4
		c2.8,0,5.4-1.6,6.4-3.8c0.2-0.5,0.6-1.7,0.7-2.3c0.2-0.7,0.4-1.4,0.7-2.1c0.3-0.6,0.6-1.2,1-1.7c0.4-0.6,0.7-1.2,1-1.8
		c0.6-1.7,0.3-3.7,0-5.7l-0.1-0.9c-0.6-4.5-0.2-8.7,0.8-13.4c0.2-0.8,0.3-1.6,0.5-2.4c0.8-3.6,1.2-7.9-0.1-11.1
		c-0.6-1.5-1.5-2.8-2.6-4.1c-0.6-0.8-1.2-1.7-1.8-2.6c-4.4-7.2-2.6-16.1-1.3-24l0.1-0.9c0.2-1.1,0.4-2.3,0.5-3.5
		c-0.3-0.9-0.2-1.9-0.1-2.8c1.7-13.6-3.2-28.3-6-35.8c-2.4-3.7-5.3-6.7-8.7-8.9c-5.2-3.4-12.5-5.1-20.6-5.3
		c-5.4-0.1-10.8,0.5-16,1.1c-1.8,0.2-3.6,0.4-5.3,0.6c-3.9,0.4-7.4,0.5-10.8,0.5c-7.5,0-13.9-0.8-19.5-2.8c-0.2,0.3-1.1,0.6-1.3,0.9
		L89,54.1c-1.3,1.3-2.4,2.8-3.4,4.3c-1.5,2-3,4.1-5,5.7c0.1,0.5,0.1,1.9,0.2,2.4c0.4,2.1,1.3,4,2,6.1c0.5,1.5,0.9,3.2,1.3,4.7
		c1.3,4.8,0.4,8.3-1.4,11.3c-2.8,4.6-6.5,5.3-10.6,6c-4.5,0.8-8.7,1.2-13.1,1.2c-0.6,0-2.6,0-3.2,0c-1.8,0-4.7-0.4-7,0.5
		c0,0.1,0.1,0.3,0.1,0.4c0.3,1,0.7,2,1.1,3c0.8,1.8,2.5,5.3,3.1,7.9l1-3.9c-0.2-0.9,0.8-0.4,1-0.5c0.1-0.5,1.2-0.7,1.2-0.1
		c0.3,0,1.4,0,1.8,0c3.5,0,5.9,1.5,8.4,4.3c2.7,3,3.8,6.4,3.9,11.3c0,0.1,0.1,1.2,0.1,1.3c0.4,0,1.9,0,2.3,0c5.4-0.5,5-0.9,9.2-2.7
		c1.5-0.6,3.5-2.7,3.5-2.7c1.4-1,2.1-1,1.9-0.7c15,1.9,31.1-0.2,44.9-6.4c1.2-0.5,2.5-1.1,3.8-1.1c0.6,0,1.3,0.2,1.8,0.5
		c1.7,0.5,1.6,1.4,2.3,2.5c0.2,0.4,1.4,1,1.6,1.4l14.5,21.4c0.4,0.5,1.3,1.2,1.7,1.8c0.5,0.6,1.1,1.5,1.6,2.1
		c1.8,1.9,3.5,3.1,3.3,6.3C164.6,145.8,164.7,149.3,164.4,153z"/>
	<path class="st2" d="M162.9,165.6c4.3-3.2,6.4-8.7,6.5-14.1c0-2.8,0.2-6.2-1.1-8.7c-1-1.9-3.1-5.8-4.5-7.5
		c-6.6-8.2-11-15.1-15.4-24.6c-1.8-4-4.2-8.4-8.5-9.2c-2.2-0.4-4.4,0.3-6.5,0.9c-7.4,2.3-14.9,4.4-22.4,6.4
		c-6.3,1.7-13.1,3.2-19.4,1.4c0.5-5.3,0.2-10.7-1-15.9c-1.3-1-3.4,0.1-4,1.6c-0.6,1.5-0.3,3.3-0.3,5c0.1,4.9-2.2,9.7-6.1,12.6
		c-2.6,2-5.9,3-9.1,3c-0.9,0.8-0.9,2.2-0.9,3c0,0,1.4,0.1,1.4,0.2c0.4,0,1.6,0,2,0c5.4-0.5,9.9-1.4,12.2-5.3c0,0,0.8-0.7,0.8-0.7
		c1.2,0.3,0.6,0.6,1.2,0.3c15,1.9,31.4-0.2,45.2-6.4c1.2-0.5,2.4-1,3.7-1c0.6,0,1.2,0.1,1.7,0.4c1.7,0.5,1.6,1.6,2.2,2.7
		c0.2,0.4,0.4,0.8,0.7,1.1l14.9,21.1c0.4,0.5,0.8,1.1,1.2,1.6c0.5,0.6,1.1,1.2,1.6,1.8c1.8,1.9,4,3.9,3.8,7.1
		c1.5,3.4,2.3,6.9,2,10.6c-0.3,3.3-1.7,6-2.9,9c-0.6,1.4-1.3,3.1-2.6,4.3c-1.3,1.2-3,1.7-4.6,2.1c-1,0.3-1.9,0.5-2.7,0.9
		c-3.3,1.6-4.5,6.8-2.9,10.1c0.4,0.9,1.6,2.6,2.6,1.9c-0.5-2.3-0.9-4.5-0.2-6.6C152.9,169.9,158.9,168.6,162.9,165.6z"/>
	<path class="st1" d="M71.3,89.3L71.3,89.3L71.3,89.3z"/>
	<path class="st1" d="M80,57.5c0.5-2,2.1-9.2,1.3-12c0.2-4.3,0-10.1-2.7-14.1c-1.4-2.1-4.1-3.5-6.5-5.4c-2-1.5-2.7-3.7-5-3.5
		c-0.5,0.1,1.7-3.2,1.8-3.4c0.2-0.7-0.5-2.3-0.8-3c-0.1-0.1-3.6-0.5-4.5,0c-2.2,1.1,0.9-2.1,0.7-2.8c-0.1-0.8-2.5-2.2-3.2-2.2
		c-0.3,0-4.6,1.3-4.8,1.4c-2.6,0.4-0.9-1.3-0.5-2.2c0.4-0.9,0.6-4,0.1-4.8c-0.4-0.6-3.8,0.2-4.3,0.5c-2.2,1.5-3.8,6.2-4.2,6.5
		c-0.6,0.6-2.3,1.1-2.9,1.2c-4.5,0.7-8,3-11.5,5.9c0,0.2-1.4,1-1.5,1.2C26.9,27,24.6,35,24.9,42.7c0.4,8.1,4,15.9,7.2,23.4
		c1.7,4,3.8,7.9,5.1,12.2c0.5,1.6,0.4,3.6,0,4.6c0.3,1.6,0.3,3.1,1,4.5c1.3,2.7,4.5,5.4,7.8,6.7c3.4,1.3,6.7,1.7,9.5,1.8
		c4.8,0.1,10.2-0.2,15.2-1.1c3.7-0.7,9.9-1.8,12.3-5.6c2-3.2,1.4-8.2,0.6-11.1c-0.4-1.5-0.5-3.3-1-4.7c-0.7-2.1-1.6-3.1-2-5.3
		c-0.1-0.6-0.3-1.5-0.4-2.1c-0.1-0.1-0.5-1.6-0.5-1.7C79.6,61.7,79.8,59.8,80,57.5z"/>
	<g>
		<path class="st2" d="M65.6,23.9c0,0.2,0,0.5,0.1,0.7c3.5,1.3,6.5,3.7,8.7,6.7c2.4,3.4,3.6,7.5,4.1,11.7c0.1,0.9,1.7,2.2,2.2,3.1
			c0.2-4.3,0.1-10.1-2.6-14c-1.4-2.1-3.2-3.9-5.7-5.7C70.5,24.8,66.9,22.7,65.6,23.9z"/>
		<path class="st2" d="M66.6,20.9c0.4,0.2,1.1,0.1,1.4-0.3c0,0-0.3-0.8-0.3-0.9C67.2,20,66.9,20.4,66.6,20.9z"/>
		<path class="st2" d="M82.6,89.1c2-3.2,1.8-8.4,1-11.3c-0.4-1.5-1-3.2-1.5-4.7c-0.7-2.1-1.3-3.8-1.8-6.1c-0.1-0.6-0.2-1.4-0.3-2
			c-0.1-0.1-0.3-0.7-0.3-0.9c-0.1-2.4-0.5-5.1-0.3-7.5c-0.2,0.2-0.8,0.5-0.9,1.1C78.3,63.6,78.2,69.5,80,75c0.7,2,1.6,4,1.7,6.1
			c0.2,3.6-2.2,7-5.2,9S70,93,66.5,93.9c-1.2,0.3-2.3,0.6-3.5,0.9c1.7,0.8,3.9,1,6.5,0.5C73.3,94.6,80.3,93,82.6,89.1z"/>
	</g>
	<path class="st3" d="M173.3,70.4c1.8,8.1,5.7,21.8,4.2,33.9c-0.1,0.7-0.2,1.7,0,2.2c0.1,0.3,0.4,0.6,0.8,1
		c10.1,10.7,22.8,17.8,34.2,18.6c0.4,0,0.9,0.1,1.3,0.1c1.2,0,2-0.2,2.8-0.5c0.8-0.4,2.5-2.5,2.7-3.3c-3.9-0.7-7.4-2-10.2-3.6
		c-5.9-3.5-8.6-6.9-12.1-13.4c-1.5-2.7-2.8-5.9-4.1-8.6c-1.2-2.7-2.5-5.5-4-8.1C185.7,82.9,179.7,75.5,173.3,70.4z"/>
	<path class="st4" d="M218,123c-2.7,1.2-5.9,0.6-8.8-0.2c-4.9-1.3-9.9-2.8-13.9-5.8c-3-2.2-5.4-5.2-7.8-8.1c-3.2-3.9-6.4-8-8.8-12.4
		c-1.3,2.2-1.3,5-1.6,7.6c-0.1,0.7-0.2,1.4,0,1.9c0.1,0.3,1,1.8,1.3,2.1c10.1,10.7,23,16.7,34.5,17.6c0.4,0,0.9,0.1,1.3,0.1
		c1.2,0,2-0.2,2.8-0.5C217.7,125.1,218.7,123.4,218,123z"/>
	<path class="st3" d="M32.1,66.8c-3.3-7.7-6.9-15.5-7.3-24.1c-0.3-8,2-16.5,6.7-22.9c-0.2-0.2-1.1-0.6-1.5-0.6c0,0-1.2,0.5-1.2,0.5
		c-0.7,0-1.9,0.3-2.6,0.6C17.2,25,12.1,34,8,41.4c-2.1,3.7-4.2,8.4-5.6,13.4c-1.3,5-1.5,9.9-0.4,14.1c0.5,1.8,0.8,3.2,1.7,4.3
		c1.7,2.4,5.4,5.2,7.9,6.2c7.1,3.1,15.4,4,23.1,3.9c0.5,0,1.3-0.6,1.5-0.8c0.8-0.4,1.4-1.4,1-2.7C35.9,75.7,33.9,70.8,32.1,66.8z"/>
	<path class="st4" d="M15.4,78.5c-4.2-2.5-6.5-7.6-6.8-12.5s1-9.8,2.5-14.5c3.3-10.3,7.8-20.6,14.2-29.2C20.4,23.3,11.6,34.8,8,41.4
		c-2.1,3.7-4.2,8.4-5.6,13.4c-1.3,5-1.5,10.7-0.4,14.8c0.5,1.8,2,3.5,2.8,4.6c1.7,2.4,5.1,4.2,7.5,5.3c2.2,1,5.1,1.9,6.2,0.9
		C17.5,79.7,16.3,79.1,15.4,78.5z"/>
	<path class="st5" d="M76,42.3c-0.7-0.3-1.5-0.5-2.4-0.7c-0.9-0.2-1.8-0.2-2.7-0.2c-2.6,0-4.9,0.6-6.7,1.9c-1.8,1.2-3.2,3-3.9,5.1
		c-0.4,1.2-0.6,2.6-0.5,4.1c0,1.2,0.2,2.2,0.6,2.9c0.4,0.7,1,1.4,1.9,2.1c1.3,1,2.7,1.7,4.2,2.2c1.2,0.4,2.4,0.5,3.6,0.5
		c0,0,0,0,0,0c2.3,0,4.4-0.6,6.2-1.7c1.7-1.1,3-2.6,3.8-4.3c0.2-1.7,0.5-3.5,0.8-5.2C80.6,46.1,78.7,43.4,76,42.3z"/>
	<path class="st6" d="M76.2,41.5c-0.7-0.3-1.6-0.5-2.5-0.7c-3.6-0.6-7.2,0-9.9,1.7c-2,1.3-3.5,3.3-4.2,5.5c-0.4,1.3-0.6,2.8-0.6,4.3
		c0,1.4,0.3,2.5,0.8,3.4c0.5,0.9,1.2,1.7,2.2,2.5c1.3,1,2.8,1.8,4.4,2.3c1.2,0.4,2.5,0.6,3.8,0.6c0,0,0,0,0,0c2.4,0,4.6-0.6,6.5-1.8
		c0.9-0.6,1.7-1.3,2.4-2.1c1.3-0.7,1.3-2.5,0.3-3.2c-0.8,1.6-2,3.1-3.5,4c-1.7,1-3.6,1.6-5.7,1.6c0,0,0,0,0,0
		c-1.2,0-2.3-0.2-3.4-0.5c-1.4-0.4-2.8-1.1-3.9-2c-0.9-0.7-1.4-1.3-1.8-2c-0.4-0.7-0.6-1.6-0.6-2.7c0-1.4,0.1-2.7,0.5-3.8
		c0.6-1.9,1.9-3.6,3.6-4.7c1.7-1.1,3.9-1.7,6.2-1.7c0.8,0,1.7,0.1,2.5,0.2c0.9,0.2,1.6,0.4,2.2,0.6c2.5,1,4.3,3.5,4.7,6.2
		c0.6,0.1,0.5-0.1,0.6-0.5c0.1-0.3,0.2-0.1,0.5-0.2c0.1,0,0.2-0.6,0-1.2c-0.2-0.6-0.5-1.1-0.8-1.7C79.5,43.7,78,42.3,76.2,41.5z"/>
	<path class="st5" d="M53,51.3c-0.4-1.1-0.9-2-1.5-2.7c-1.1-1.3-2.9-2.2-5.3-2.6c-0.9-0.2-1.8-0.2-2.6-0.2c-3.5,0-6.6,1.2-8.5,3.4
		c-2.3,2.6-2.7,6.2-2.7,8.7c0.1,3.1,0.8,5.4,2.3,6.9c1,1,2.5,1.8,4.2,2.2c0.8,0.2,1.6,0.3,2.5,0.3c3.5,0,6.9-1.5,9.1-4
		C53.4,60.1,54.3,55.3,53,51.3z"/>
	<path class="st6" d="M53.7,51.1c-0.4-1.2-1-2.2-1.6-3c-1.3-1.5-3.2-2.4-5.8-2.9c-0.9-0.2-1.8-0.2-2.7-0.2c-3.7,0-7,1.3-9,3.7
		c-2.4,2.8-2.9,6.5-2.8,9.1c0.1,3.3,0.9,5.8,2.6,7.5c1.1,1.2,2.8,2,4.7,2.4c0.9,0.2,1.7,0.3,2.6,0.3c3.6,0,7.2-1.6,9.6-4.2
		C54.1,60.4,55.1,55.4,53.7,51.1z M39.2,66.2c-1.6-0.4-3-1-3.9-2c-1.4-1.4-2.1-3.6-2.2-6.4c0-2.4,0.3-5.7,2.5-8.1
		c1.8-2,4.6-3.1,7.9-3.1c0.8,0,1.6,0.1,2.5,0.2c2.2,0.4,3.9,1.2,4.9,2.4c0.6,0.6,1,1.5,1.4,2.5c1.3,3.7,0.3,8.2-2.3,11.1
		c-2.1,2.3-5.3,3.7-8.5,3.7C40.7,66.4,39.9,66.4,39.2,66.2z"/>
	<path class="st7" d="M71.5,89.3c0.4,0,0.6-0.6,0.6-1.1c0-0.2,0-0.3,0-0.5c0-0.6,0-1.2,0.3-1.8c0.4-0.7,1.2-1.1,1.9-1.4
		c0.1-0.1,0.3-0.1,0.4-0.2c2.1-1,3.6-3.4,3.8-6.1c0.1-2.3-0.5-4.8-2.1-7.4c-0.8-1.4-2.6-3.9-4.9-3.9c-0.8,0-1.5,0.3-2.4,0.6
		c-4.1,1.5-8.2,3.3-12.1,5.1c-1.1,0.5-2.1,1.1-2.7,1.9c-0.6,0.9-0.7,2-0.6,2.8c0.2,3.2,2.3,6.1,4,8.5c0.6,0.9,1.3,1.8,2.3,2.3
		c0.6,0.3,1.2,0.4,2,0.4c0.9,0,1.8-0.2,2.7-0.3c0.9-0.2,1.9-0.3,2.9-0.3c1.1,0,2.1,0.3,2.8,0.8c0.1,0.1,0.2,0.1,0.3,0.2
		C70.9,89.1,71.2,89.3,71.5,89.3l0,0.5h0L71.5,89.3z"/>
	<path d="M71.3,66.2c-1,0-1.9,0.3-2.6,0.6c-4,1.5-7.9,3.1-11.7,5c-1.2,0.6-2.3,1.2-3,2.2c-0.6,0.9-0.8,2-0.8,3.3
		c0.2,3.4,2.3,6.3,4,8.7c0.6,0.9,1.4,2,2.6,2.6c0.7,0.3,1.4,0.5,2.4,0.5c0.9,0,1.9-0.2,2.8-0.3c0.9-0.2,1.8-0.3,2.6-0.3
		c0.9,0,1.6,0.2,2.2,0.6c0.1,0.1,0.2,0.1,0.2,0.2c0.4,0.3,0.8,0.6,1.4,0.6l0.1,0c1-0.1,1.5-1.1,1.5-2.1c0-0.2,0-0.4,0-0.6
		c0-0.5,0-0.9,0.2-1.3c0.2-0.4,0.8-0.6,1.3-0.9c0.1-0.1,0.3-0.1,0.4-0.2c2.4-1.1,4-3.8,4.2-6.7c0.1-2.4-0.6-5-2.1-7.7
		C75.3,67.7,73.4,66.2,71.3,66.2z M71.3,89.3v-0.5c-0.2,0-0.5-0.2-0.8-0.4c-0.1-0.1-0.2-0.1-0.3-0.2c-0.7-0.5-1.6-0.8-2.7-0.8
		c-0.9,0-1.8,0.2-2.8,0.3c-0.9,0.2-1.8,0.3-2.6,0.3c-0.7,0-1.4-0.1-1.9-0.4c-0.9-0.5-1.6-1.4-2.2-2.2c-1.6-2.3-3.7-5.1-3.8-8.1
		c0-0.8,0-1.9,0.6-2.7c0.6-0.8,1.5-1.3,2.6-1.9c3.8-1.8,7.7-3.5,11.6-4.9c0.8-0.3,1.5-0.6,2.3-0.6c2.3,0,3.9,2.3,4.7,3.7
		c1.4,2.5,2.1,4.9,2,7.1c-0.2,2.6-1.6,4.9-3.6,5.9c-0.1,0.1-0.3,0.1-0.4,0.2c-0.7,0.3-1.4,0.6-1.8,1.3c-0.3,0.6-0.3,1.2-0.3,1.8
		c0,0.2,0,0.3,0,0.5c0,0.5-0.2,1.1-0.6,1.1L71.3,89.3L71.3,89.3L71.3,89.3z"/>
	<path class="st5" d="M71.6,69.7c-0.2-0.5-0.7-0.8-1.3-0.8c-0.5,0-1,0.2-1.5,0.4c-1.6,0.6-3.3,1.4-4.2,2.8c0.2,0.5,0.8,0.5,1.4,0.5
		c1.3-0.1,2.5-0.5,3.7-0.8c0.5-0.1,1.1-0.3,1.5-0.6C71.5,70.8,71.8,70.2,71.6,69.7z"/>
	<path class="st8" d="M50.5,84.6c-0.5,0.7-0.8,1.6-0.9,2.5c0,0.9,0.5,2.1,1.4,2c0.2,0,0.4-0.1,0.5-0.3c0.2-0.2,0.4-0.6,0.4-0.9
		c0.2-1.2-0.1-2.4-0.8-3.4C51,84.6,50.8,84.6,50.5,84.6z"/>
	<path class="st9" d="M70.2,119.4c-0.1-4.9-1.7-9.2-4.3-12.1c-2.7-3-7-4.6-10.6-4c0,0,0,0.1-0.1,0.1c-0.1,0.2-0.2,0.3-0.4,0.4
		l-2,5.8c2.5,0.8,4.2,1.7,5.4,4.3c1,2,1.3,4.4,1.1,7c2-0.6,4.8-0.7,6.5-0.7c0.1,0,0.1,0,0.2,0c0.9-0.1,1.7-0.2,2.6-0.2l1.7-0.1
		C70.2,119.7,70.2,119.6,70.2,119.4z"/>
	<path class="st8" d="M62,36.1c0.2-0.1,0.3-0.4,0.5-0.6c0.6-1.3,2.3-2,3.7-1.9s2.9,0.8,4.1,1.7c0.1-0.3-0.1-0.6-0.2-0.8
		c-1.1-1.3-2.7-2.2-4.4-2.4c-1-0.1-2,0.1-2.9,0.5S61.3,34,61.1,35c0,0.3,0,0.6,0.1,0.9C61.4,36.1,61.8,36.2,62,36.1z"/>
	<path class="st8" d="M33.6,38.4c0.7-0.5,1.6-0.7,2.5-0.6c0.9,0,1.7,0.2,2.6,0.5c0.1,0,0.2,0.1,0.4,0s0.2-0.2,0.2-0.3
		c0-0.1-0.1-0.1-0.2-0.1c-1.1-0.6-2.3-1.2-3.6-1.3c-1.2,0-2.3,0.5-3.2,1.2c-0.9,0.7-1.5,1.7-2,2.8c-0.2,0.4-0.3,0.9,0.1,1.1
		c0.4,0.2,0.8-0.2,1.1-0.6C32.1,40.2,32.6,39.1,33.6,38.4z"/>
	<path class="st7" d="M76,52.4c-0.1-0.6-0.4-1.3-0.9-1.9c-0.9-1.4-2.3-2.3-3.8-2.6c-0.3-0.1-0.7-0.1-1-0.1c-1.3,0-2.5,0.5-3.3,1.3
		c-1.3,1.3-1.6,3.2-1.6,4.6c0,0.6,0,1.4,0.3,2.1c0.2,0.5,0.7,1,1.2,1.5c1,0.8,2.3,1.3,3.6,1.4c1,0.1,1.9,0,2.6-0.4
		c0.4-0.2,0.8-0.5,1.2-1C75.7,55.7,76.3,53.9,76,52.4z"/>
	<path d="M75.5,50.2c-1-1.4-2.5-2.4-4-2.8c-1.7-0.3-3.6,0.2-4.7,1.3c-1.1,1.1-1.7,2.7-1.7,4.8c0,0.7,0,1.5,0.4,2.3
		c0.3,0.6,0.8,1.2,1.4,1.7c1.1,0.8,2.3,1.3,3.7,1.4c0.2,0,0.4,0,0.6,0c0.9,0,1.6-0.2,2.2-0.5c0.4-0.2,0.9-0.6,1.3-1
		c1.4-1.5,2.1-3.5,1.7-5.2C76.3,51.6,76,50.9,75.5,50.2z M70.6,58c-1.2-0.1-2.3-0.5-3.2-1.2c-0.5-0.4-0.9-0.9-1.1-1.3
		C66,54.8,66,54.1,66,53.5c0-1.2,0.3-3,1.4-4.1c0.7-0.7,1.8-1.1,2.9-1.1c0.3,0,0.6,0,0.9,0.1c1.3,0.3,2.6,1.1,3.4,2.3
		c0.4,0.6,0.7,1.2,0.8,1.7c0.3,1.4-0.3,3-1.5,4.3c-0.4,0.4-0.7,0.7-1,0.8C72.3,58,71.5,58.1,70.6,58z"/>
	<path class="st7" d="M47.9,59.5c0-0.8-0.2-1.4-0.5-1.9c-0.5-0.9-1.5-1.5-2.3-2c-0.9-0.6-1.9-1.1-2.9-1.1c-0.2,0-0.4,0-0.5,0.1
		c-0.4,0.1-0.7,0.3-1.2,0.6c-1.9,1.4-3.2,3.5-3.2,5.6c0,2.2,1.5,4.4,3.4,4.9c0.4,0.1,0.8,0.2,1.3,0.2l0.2,0c1.3,0,2.6-0.5,3.5-1.2
		C47.1,63.5,48,61.5,47.9,59.5z"/>
	<path d="M45.3,55.3c-1-0.6-2-1.2-3.1-1.2c-0.2,0-0.5,0-0.7,0.1c-0.6,0.1-1.1,0.4-1.4,0.7c-2,1.4-3.2,3.6-3.3,5.8
		c0,2.5,1.6,4.8,3.8,5.3c0.4,0.1,0.9,0.2,1.4,0.2l0.2,0c1.4,0,2.7-0.5,3.7-1.3c1.5-1.2,2.4-3.2,2.3-5.4c0-0.8-0.2-1.5-0.6-2.1
		C47.1,56.4,46.1,55.8,45.3,55.3z M42,65.1c-0.4,0-0.8,0-1.2-0.1c-1.7-0.5-3.1-2.4-3.1-4.4c0-1.8,1.1-3.7,2.9-5
		c0.4-0.3,0.8-0.5,1.1-0.5c0.1,0,0.3-0.1,0.5-0.1c0.8,0,1.7,0.5,2.6,1c0.8,0.5,1.6,1,2.1,1.8c0.3,0.4,0.4,1,0.4,1.7
		c0.1,1.8-0.6,3.5-1.9,4.5c-0.8,0.6-1.9,1-3.1,1.1L42,65.1z"/>
	<path class="st5" d="M72.7,53.9c-0.3-0.5-0.9-0.7-1.5-0.6c-0.6,0.1-1,0.5-1.2,1.1c-0.1,0.2-0.1,0.5-0.1,0.7c0,0.1,0,0.3,0.1,0.4
		c0.1,0.1,0.2,0.2,0.4,0.3c0.4,0.2,0.8,0.4,1.2,0.4c0.4,0,0.9-0.2,1.1-0.5c0.1-0.2,0.2-0.4,0.2-0.6c0.1-0.3,0.1-0.5,0-0.8
		C72.9,54.2,72.8,54.1,72.7,53.9z"/>
	<path class="st5" d="M43.8,60.7c-0.5-0.3-1.2-0.2-1.6,0.2c-0.2,0.2-0.3,0.4-0.3,0.6c-0.2,0.6-0.1,1.4,0.4,1.9s1.3,0.6,1.8,0.2
		c0.1-0.1,0.2-0.2,0.3-0.3c0.2-0.3,0.3-0.8,0.3-1.2C44.6,61.5,44.3,60.9,43.8,60.7z"/>
	<path class="st3" d="M84.2,29.1c0.6,5.4,0.7,8.8,0.6,13.7c0,0.9,0.5,2,0.5,2.9c0,0.5,0,1,0.2,1.2c0.1,0.2,0.4,0.3,0.7,0.4
		c1.3,0.5,4.5,1.5,6.1,1.5c2.2,0,5.1-0.5,8.4-1.5c2-0.6,4.3-2.8,5-4.6c0.6-1.4-0.6-3.5-1.1-5.2c-2.9-10.9-5.5-22.2-11.6-32.2
		c-0.9-1.5-2.9-3.5-4.4-4.6c-0.8-0.5-2.9-0.7-3.6-0.7c0,0-1.9,0.7-1.9,0.7c-1.3,0-0.8,0.4-1.9,1.2c-5.1,3.5-9.3,8.4-12.7,13.6
		c0.7,1.3,0.5,2.9,0,4.4c-0.2,0.7-0.7,1.4-1.3,2c1.7,0.5,4.6,2.7,6.2,4c1.9,1.5,3.2,2.9,4.7,4.7c1.3-1.1,2.9-2.2,4.5-2.6
		C84,28.7,84.2,29,84.2,29.1z"/>
	<path class="st4" d="M101.2,46.5c1.6-0.5,3.4-1.5,2.4-2.5c-0.7-0.1-1.5,0.1-2.2,0.3c-2.1,0.5-4.3,0.9-6.5,0.6
		c-2.2-0.3-4.3-1.4-5.4-3.3c-1-1.8-0.9-4-1.1-6c-0.4-6.1-3-12-3.2-18.1c-0.1-2.3,0.2-4.7-0.1-7c-0.2-1-0.5-2.1-1.4-2.5
		c-1.1-0.5-2.5,0.3-3.1,1.4C80,10.3,80,11.6,80,12.9c-0.2,4.7-1.7,9.7-5.2,12.8c0,1.9,2.2,3.6,3.3,4.9c1.3-1.1,2.9-2.2,4.5-2.6
		c1.3,0.3,1.6,0.7,1.7,0.8c1.2,4.9,0.7,9.1,0.6,14c0,0.9,0.5,2.6,0.5,3.5c0,0.5,0,1,0.2,1.2c0.1,0.2,0.4,0.3,0.7,0.4
		c1.3,0.5,5.6,0.4,7.3,0.4C95.7,48.3,98,47.5,101.2,46.5z"/>
	<path class="st10" d="M80.1,63.3c1.3-1.3,3.8-3.2,5-4.8c1.1-1.5,2.2-3.5,3.6-4.8l0.7-0.6c0.1-0.1,0.4-1.2,0.5-1.3
		c-2.2-0.8-5.9-1.8-8-3C81.1,52.9,80.1,59.2,80.1,63.3z"/>
	<path class="st6" d="M81.3,47.2c-0.1,0-0.1,0-0.2,0c-0.3,0.1-0.5,0.4-0.6,0.7c-0.1,0.4-0.2,0.8-0.2,1.2c-0.3,1.6-0.6,3.2-0.8,4.9
		c-0.1,1.1-0.2,2.1-0.3,3.2c-0.2,2.3-0.2,4.7-0.1,7.1c0,0.2,0.1,0.3,0.1,0.5c0.1,0.2,0.2,0.3,0.4,0.4c0.1,0.1,0.3,0.1,0.4,0.1
		c0.2,0,0.4-0.1,0.6-0.2c0.2-0.1,0.4-0.3,0.5-0.4c2-1.6,3.5-3.7,5-5.7c1.1-1.5,2.2-3,3.4-4.3l0.1-0.1c0.2-0.2,0.5-0.5,0.7-0.8
		c0.3-0.4,0.6-0.8,0.7-1.3c0.1-0.2,0-0.4,0-0.6c-0.1-0.3-0.3-0.5-0.6-0.6c-2.8-1-5.5-2.2-8-3.8c-0.1-0.1-0.3-0.2-0.4-0.2
		C81.8,47.1,81.6,47.1,81.3,47.2z M88.3,53.1l-0.1,0.1c-1.4,1.4-2.5,3-3.6,4.5c-1.1,1.6-2.2,3.1-3.5,4.4c0-4.1,0.3-8.3,1.2-12.3
		c2.1,1.2,4.2,2.2,6.5,3C88.5,52.8,88.4,53,88.3,53.1z"/>
	<path class="st11" d="M58,115.5c-0.5-2.1-1.6-3.8-3-4.7c-0.5-0.3-1-0.6-1.6-0.9c-0.2-0.1-0.5-0.2-0.7-0.3c-2,1.4-4.2,2.1-6.4,2.8
		c-0.4,0.1-0.8,0.2-1.1,0.4c-3.7,1.2-6.4,2.6-8.8,4.3c-2.4,1.8-4.3,3.9-5.4,6.2c0.1,0.1,0.2,0.1,0.3,0.2c2.9,1.6,5.6,3.2,8.7,3.7
		c3.9,0.6,8.1,0,12.2-1.6c0.3-1,0.9-1.9,1.7-2.6c0.3-0.6,0.9-0.8,1.1-1c1.1-0.5,2.2-0.9,3.4-1.2C58.5,118.9,58.5,117.2,58,115.5z"/>
	<path class="st9" d="M43.7,135.5c0.2,0,0.8-0.2,1-0.1c3-0.6,5.3-2.6,7.9-4.2l0-4.2c-4,1.3-8.2,1.8-12.1,1.2
		c-3.5-0.5-6.5-2.2-9.5-3.8c-0.1,0-0.2-0.1-0.3-0.1c0,0.1,0,0.1-0.1,0.2c-0.5,1.4-1.1,2.9-1.2,4.1c0,0.9-0.3,1.9,0,2.7
		c0.6,1,1.3,2.4,2.5,3c1.2,0.5,3.1,0.9,4.4,1.2c1.3,0.2,2.7,0.7,4,0.7c0.2,0,0.6-0.3,0.8-0.3c0.1,0-0.1,0,0,0
		C41.9,135.7,42.8,135.4,43.7,135.5z"/>
	<path class="st6" d="M34,134.2c0.8,0.3,1.5,0.5,2.3,0.6c-1.3-0.3-2.5-0.7-3.6-1.2C33.1,133.8,33.6,134,34,134.2z"/>
	<path class="st6" d="M53.3,150.7C53.4,150.7,53.4,150.6,53.3,150.7c0.2-0.1,0.5-0.4,0.6-0.8c0,0,0,0,0,0
		C53.8,150.2,53.6,150.4,53.3,150.7z"/>
	<path class="st6" d="M49.8,151.9c-0.1,0-0.2,0-0.3,0c0.2,0,0.3,0,0.5,0c0,0,0,0,0,0C50,151.9,49.9,151.9,49.8,151.9z"/>
	<path class="st6" d="M44.4,150.8c-0.5-0.2-1-0.4-1.4-0.8c-0.9-0.5-1.7-1-2.5-1.5c0.6,0.6,1.4,1,2.1,1.4c1.5,0.8,3.2,1.6,5.2,1.9
		c0.1,0,0.1,0,0.2,0c-0.7-0.1-1.4-0.3-2-0.5C45.4,151.2,44.9,151.1,44.4,150.8z"/>
	<path class="st6" d="M49,152c0.1,0,0.2,0,0.3,0C49.2,152,49.1,152,49,152C49,152,49,152,49,152z"/>
	<path class="st11" d="M53.9,138.3c-0.5-1.6-1.5-3.7-1.8-5.4c-1.7,1-4.9,2.2-6.9,2.9c0.3,2,1,4.3,2.2,6.1c1.3,1.9,3.1,4.4,4.7,6.1
		l2.3-0.4c0,0,0.5-1,0.5-1c0.4-0.7,0.3-1,0.4-1.8C55.8,142.7,54.7,140.7,53.9,138.3z"/>
	<path class="st11" d="M39.3,139.4c-0.4-1.1-0.7-1.9-0.8-3.2c-1.8-0.1-3.8-0.4-5.7-1.1c-0.7-0.3-1.4-0.6-2.1-1
		c0.2,0.4-0.3,1.2,0,1.6c1.8,2.9,3.9,5.9,6.3,8.5c1.3,1.4,3.4,2.2,5,3.3L39.3,139.4z"/>
	<path class="st6" d="M49.3,152c-1,0-2.2-0.2-3.4-0.6c0.6,0.2,1.3,0.4,2,0.5c0.1,0,0.1,0,0.2,0c0.3,0,0.5,0,0.8,0c0,0,0,0,0.1,0
		C49.1,152,49.2,152,49.3,152c0.1,0,0.2,0,0.3,0c0.1,0,0.2,0,0.3,0C49.7,152,49.5,152,49.3,152z"/>
	<path class="st12" d="M59.7,168.3c0.1,0.2,0.8,0.5,1.2,0.1l0.3-0.2c0.4-0.4,0.9-0.8,1.5-1.1c0.7-0.3,2.1-0.9,2.6-0.9
		c0.2,0,0.4,0,0.5,0c0.4,0,0.9,0,1.3,0c1,0,2.3-0.1,3.4-0.5c1.4-0.5,2.7-1.6,3.8-2.7c1.6-1.5,3.3-4,3.7-6.3c0.4-2.3-0.5-4.6-1.5-7
		c-0.6-1.4-1.2-2.9-1.6-4.4c-0.4-1.6-0.4-3.5-0.5-5.1l-0.6-15.7c0-1.2-0.2-2.9-0.1-4.2l-5.9,0.5c-4.2,0.4-9.2,0.8-13.1,2.5
		c0,0,0,2.4,0.2,3.2c1.7,7.3,3.3,14,3.9,21.5c0,0.5,0.2,1.9-0.9,2.7c-0.5,0.4-1.1,0.4-1.5,0.4c-2.9,0.2-6.7,2.2-8.9,4.6
		c-1.4,1.5-2,3.6-1.8,5.6c0.1,1.1,0.8,2.3,1.7,2.4c0.2,1.2,1.8,2.8,1.6,2.9c0,0.4,0.2,0.7,0.5,1c0.6,0.6,1.6,0.8,2.5,0.9
		c2.3,0.4,3.9,0.3,5-0.3C58.2,168.5,59.2,167.9,59.7,168.3z"/>
	<path class="st12" d="M144.2,169.3c0.8,0.8,2.6,0.7,3.7,0.4c1.1-0.3,2-1.4,2.2-2.5c0.1-0.6,0.4-2,0.1-2.9c-0.4-1.6-1-3.1-1.9-4.5
		c-0.2-0.2,0.2-0.2,0.3-0.4s0.3-0.5,0.5-0.6c1.6-0.8,2.8-1.7,3.4-3c0.2-0.4,0.3-0.8,0.4-1.2c0.1-0.4,0.2-0.7,0.3-1.1
		c0.9-2.6,3.4-4.1,5.4-5.6l0.4-0.3c1.8-1.3,3.8-3,4-5.3c0.2-2.2-2.2-5.2-4.2-7.3c-7.3-7.8-13.6-16.4-18.8-25.8
		c-0.6-1.1-1.3-2.1-2.2-2.3c-0.6-0.1-1.3,0.1-2.1,0.4l-7.2,2.8l4.2,6.9c1.9,3.1,3.5,6.5,5.9,9.2c0.4,0.4,0.7,0.8,1.1,1.2
		c0.8,0.9,1.6,1.8,2.4,2.8c2.4,3.4,4.2,7.6,3.9,12.1c-0.3,4-1.1,6.8-3.5,10.6c-0.2,0.3-0.4,0.4-0.7,0.5c-0.3,0-0.6-0.1-0.8-0.3
		c-1.4-1.4-3.2-1.5-5.3-1.5c-1.8,0-3.5,0.5-4.8,1.5c-3,2.3-4.7,8-2.9,11.4c0.9,1.7,2.4,2.9,4,3c0.5,0.1,1.8,0.3,2.2-0.1
		c-0.2-0.9,1.6,0.5,1.5,0.6c-0.2,0.4,0.8,1.1,1.3,1.6c0.6,0.5,1.4,0.9,2.2,1.1c0.8,0.3,1.8,0.5,2.5,0.4c0.3-0.1,0.6-0.3,0.8-0.5
		C142.2,170.2,144,169.2,144.2,169.3z"/>
	<path class="st6" d="M136.2,166.5c0,0.1,0.1,0.2,0.1,0.3C136.3,166.7,136.3,166.6,136.2,166.5z"/>
	<path class="st9" d="M53.4,149.5c0,0-0.2-0.2-0.3-0.3l-0.2-0.2c-2-2-4.1-4-5.7-6.4c-1.5-2.1-2-4.1-2.5-6.5c-0.4,0-1.4-0.1-1.7-0.2
		c-0.2,0-0.4-0.1-0.6-0.1l-0.2,0c-0.6,0-1.2,0.1-1.8,0.3c-0.4,0.1-0.8,0.2-1.3,0.2c0.1,0.7,0.3,1.2,0.6,2l3.4,9.3
		c0.2,0.4,0.3,0.9,0.6,1.1c0.3,0.3,0.8,0.5,1.3,0.7c3.3,1.3,5.9,1.4,7.8,0.5C53.2,149.8,53.4,149.6,53.4,149.5z"/>
	<path class="st6" d="M220.1,121.5c-0.1-0.4-0.4-0.7-0.8-0.8c-3.9-0.6-7.4-1.8-10.1-3.4c-4.4-2.6-8.1-6.8-11.5-13.1
		c-1.4-2.6-2.7-5.4-4-8.1c-1.3-2.7-2.6-5.5-4-8.2c-3.7-6.8-10.3-14.7-17.2-20.5c-2.5-3.8-5.6-7.1-9.2-9.4
		c-5.5-3.6-12.6-5.4-21.1-5.6c-5.5-0.1-11,0.5-16.3,1.1c-1.8,0.2-3.5,0.4-5.3,0.5c-3.9,0.4-7.3,0.5-10.6,0.5
		c-7.3,0-13.5-0.9-18.9-2.8c-0.7-0.2-0.8,0.2-0.8,0.4c-0.1,0.5-0.3,1,0.2,1.4c5.6,1.9,12,2.9,19.5,2.9c3.3,0,6.8-0.2,10.8-0.5
		c1.8-0.2,3.6-0.4,5.3-0.6c5.3-0.6,10.7-1.2,16-1.1c8.1,0.1,14.9,1.9,20.1,5.3c3.4,2.2,6.4,5.2,8.7,8.9c2.8,7.5,7.1,21.8,5.4,35.4
		c-0.1,0.9-0.2,1.8,0.1,2.8c-0.2,1.2-0.3,2.4-0.5,3.5l-0.1,0.9c-1.3,7.9-2.7,17,1.6,24.1c0.5,0.9,1.2,1.8,1.8,2.6
		c1,1.4,2,2.7,2.6,4.1c1.3,3.3,0.4,7.1-0.4,10.7c-0.2,0.8-0.4,1.6-0.5,2.4c-0.9,4.7-1.1,9.3-0.5,13.8l0.1,0.9c0.3,2,0.6,3.9-0.1,5.6
		c-0.2,0.6-0.6,1.2-1,1.8c-0.3,0.5-0.7,1.1-1,1.7c-0.3,0.7-0.5,1.4-0.7,2.1c-0.2,0.6-0.3,1.2-0.6,1.7c-1,2.2-3.5,3.6-6.3,3.6
		c-1.9,0-3.6-0.7-4.7-2c0,0-0.1,0-0.1-0.1c-0.8-1.4-1.1-3.1-0.9-4.7c0.3-1.9,1.3-3.7,2.8-4.9c0.4-0.3,0.5-1,0.2-1.4
		c-0.3-0.4-1-0.5-1.4-0.2c-1.9,1.5-3.2,3.7-3.5,6.2c-0.2,1.8,0,3.6,0.8,5.2c-0.6,0.2-1.3,0.3-1.9,0.3c-0.7-0.1-1.5-0.7-1.4-1.3
		c0-0.1,0-0.3-0.1-0.4c-0.1-2.1-0.2-4.3,0.1-6.4c0.3-2.6,1.1-4.8,2.4-6.5c0.3-0.4,0.3-1.1-0.2-1.4c-0.4-0.3-1.1-0.3-1.4,0.2
		c-1.5,1.9-2.5,4.4-2.8,7.4c-0.3,2.1-0.2,4.2-0.1,6.3c-0.7,0.2-1.4,0.3-2.1,0.3c-2.8,0-5.6-1.7-6.7-4c-1.6-3.4,0-7.9,3.3-9.5
		c0.8-0.4,1.7-0.7,2.7-0.9c1.6-0.5,3.3-0.9,4.6-2.1c1.3-1.2,2-2.9,2.6-4.3c1.2-3,2.5-6,2.8-9.4c0.3-3.7-0.5-7.2-2-10.6
		c0.2-3.2-2.2-5.8-4-7.7c-0.6-0.6-1.1-1.2-1.6-1.8c-0.4-0.5-0.8-1.1-1.2-1.6l-15.1-20.9c-0.2-0.4-0.4-0.8-0.7-1.1
		c-0.6-1.1-1.5-2.7-3.2-3.3c-0.1,0-0.2-0.1-0.2-0.1h0c-0.4-0.2-0.9-0.3-1.4-0.3c-1.3,0-2.6,0.5-3.7,1c-13.8,6.2-29.6,8.5-44.7,6.7
		c3-5.1,3.8-10.8,2.2-16.5c-0.1-0.5-0.7-0.8-1.2-0.7c-0.5,0.1-0.8,0.7-0.7,1.2c1.5,5.6,0.6,11.2-2.8,16.2c0,0,0,0,0,0
		c-2.3,3.9-7.6,4.9-13,5.4c-0.4,0-0.8,0.1-1.2,0.1c0,0,0-0.1,0-0.1c-0.1-4.9-1.7-9.2-4.4-12.3c-2.5-2.8-6-4.4-9.5-4.4
		c-0.3,0-0.7,0-1,0.1c0-0.5,0-1,0-1.4l-0.2-2.9c0-0.6-0.5-1-1.1-0.9c-0.6,0-1,0.5-0.9,1.1l0.2,2.9c0,0.6,0.1,1.2,0,1.7
		c-0.2,0.1-0.4,0.3-0.5,0.5l-0.9,2.4c-0.2-2-1-3.9-1.7-5.7c-0.4-1-0.8-2-1.1-3c0-0.1-0.1-0.3-0.1-0.4c2.2,0.4,4.4,0.5,6.2,0.6
		c0.6,0,1.2,0,1.8,0c4.4,0,8.8-0.4,13.3-1.2c4.1-0.7,9.9-2.2,12.6-6.8c1.8-3,2.1-7.2,0.8-11.9c-0.4-1.6-1-3.1-1.5-4.6
		c-0.8-2.1-1.5-4.2-1.9-6.3c-0.1-0.5-0.2-1.1-0.2-1.6c0.2-0.7,0.3-1.3,0.1-1.2c-0.2,0.1-0.6,0.2-0.8,0.2c-0.1,0-0.6,0.4-0.7,0.4
		c-0.2-0.1-0.4,0.2-0.6,0.8c0.1,0.6,0.2,1.2,0.3,1.9c0.4,2.3,1.2,4.5,2,6.6c0.5,1.5,1,3,1.4,4.4c0.8,2.9,1.3,7.1-0.6,10.4
		c-2.3,3.9-7.6,5.2-11.3,5.9c-5,0.9-9.9,1.3-14.7,1.2c-2.8-0.1-6.5-0.3-9.8-1.7c-3.3-1.3-5.8-3.5-7.1-6.2c-0.7-1.4-1-2.9-1.4-4.5
		c0.4-1,0.4-2.4-0.1-4.1c-1.3-4.2-3.1-8.4-4.9-12.4c-3.2-7.5-6.6-15.3-6.9-23.4C25.6,35,28.2,27,32.9,20.9c0.1-0.1,0.2-0.3,0.2-0.5
		c3.6-2.9,7.9-4.8,12.4-5.5c0.5-0.1,1.3-0.2,1.8-0.8c0.4-0.4,0.5-0.8,0.6-1.2c0.9-2.5,2.6-4.8,4.8-6.3c0.5-0.3,1-0.7,1.6-0.7
		c0,0,0,0,0,0c0.2,0,0.6,0,1,0.7c0.5,0.8,0.5,2.1,0.1,3c-0.4,0.9-1.1,1.7-1.8,2.5c-0.7,0.8-1.4,1.7-2,2.8c-0.2,0.5-0.1,1,0.3,1.3
		c0.4,0.3,1,0.2,1.3-0.2c1.7-2,4.3-3.5,6.9-3.9c0.2,0,0.5-0.1,0.7-0.1c0.7,0,2,0.2,2.2,1c0.1,0.7-0.7,1.5-1.5,2.1l-5.2,4.1
		c-0.4,0.3-0.5,0.9-0.2,1.4c0.3,0.4,0.9,0.6,1.3,0.3c2.2-1.3,4.4-2.5,6.6-3.6c0.9-0.5,2.4-1,3.1-0.6c0.1,0.1,0.2,0.2,0.3,0.3
		c0.2,0.7,0.3,1.5,0,2.2c-0.1,0.2-0.1,0.3-0.2,0.4c-0.4,0.8-1.2,1.5-2,1.8c0,0,0,0,0,0c-0.1,0-0.2,0.1-0.3,0.2
		c-0.1,0.1-0.2,0.1-0.3,0.2c-0.4,0.2-0.6,0.7-0.4,1.2c0.2,0.4,0.6,0.7,1.1,0.7c2.3-0.3,4.5,1.2,6.5,2.7c2.4,1.9,4.4,3.5,5.8,5.6
		c2.7,4,3,9,2.8,13.3c-0.3,0.6-0.3,1.1-0.1,1.6c0.2,0,1.2,0.8,1.5,0.9c0.1,0.1,0.5-0.1,0.5-0.6c0.4-4.8,0.4-11.1-2.8-16.1
		c1.1-1,2.4-1.7,3.8-2.2c0.9,4.3,0.8,8.9,0.8,13.3c0,0.9,0,1.8,0,2.7c0,0.6,0,1.7,0.7,2.5c0.4,0.5,1,0.8,1.6,1
		c1.5,0.6,3.3,0.9,5.1,0.9c2.5,0,5.1-0.5,8.5-1.5c2.5-0.8,5.1-1.9,6.2-4.4c0.8-1.9,0.4-4-0.2-6.1c-2.9-11-6.3-22.6-12.5-32.8
		C92.4,3,91.1,1.2,89.3,0c-1.1-0.7-2.2-1.1-3.3-1.2l-0.1,0c-1.8,0-3.3,0.9-4.7,1.8C75.8,4.3,71,9.2,67.5,14.8
		c-0.9-0.2-1.8,0-2.7,0.3c0.4-0.6,0.6-1.3,0.5-2.1c-0.2-1.7-1.9-2.7-4.1-2.7c-0.4,0-0.7,0-1.1,0.1c-1,0.2-2,0.5-2.9,0.8
		c0.1-0.2,0.2-0.3,0.3-0.5C58.1,9.1,58,7,57.2,5.7c-0.6-1-1.6-1.6-2.7-1.6c0,0-0.1,0-0.1,0c-1.1,0-2,0.5-2.7,1
		c-2.6,1.8-4.5,4.3-5.6,7.4c0,0.1-0.1,0.4-0.2,0.4c-0.1,0.1-0.5,0.1-0.7,0.2c-4.8,0.7-9.3,2.7-13.1,5.7C31.6,18.2,30.8,18,30,18
		c-1.1,0-2,0.4-2.9,0.9c-9.6,4.9-15.7,14.3-20,21.9c-2,3.6-4.5,8.4-5.9,13.6c-1.4,5.3-1.6,10.5-0.3,15c0.5,2,1.3,3.7,2.3,5
		c2,2.8,5.2,4.4,7.7,5.5c7.1,3.1,14.9,4.7,22.6,4.7c0.3,0,0.7,0,1,0c0.6,0,1.2-0.1,1.8-0.3c0.3,1.3,0.7,2.5,1.2,3.8
		c1.5,3.1,4.4,5.7,8.2,7.1c0.7,0.3,1.4,0.5,2.1,0.7c0.1,0.5,0.2,1,0.4,1.5c0.3,1.1,0.8,2.2,1.2,3.2c1,2.5,2,4.9,1.6,7.3
		c-0.1,0.6-0.3,1.2-0.5,1.8c-1.4,0.8-3,1.3-4.7,1.8c-0.4,0.1-0.7,0.2-1.1,0.3c-3.7,1.2-6.4,2.5-8.8,4.1c-2.7,1.9-4.8,4.2-6,6.8
		c-0.2,0.1-0.3,0.3-0.4,0.5c-0.1,0.4-0.3,0.8-0.5,1.2c-0.6,1.4-1.2,3-1.2,4.5c0,0.7,0,1.3,0.2,1.9c0,0.1,0,0.2,0,0.3
		c0.1,2.3,1.3,4.3,2.5,6.3c1.6,2.6,3.4,5.3,5.6,7.6c1.3,1.4,2.8,2.6,4.4,3.6c0.8,0.6,1.7,1.1,2.5,1.5c0.4,0.4,0.9,0.6,1.4,0.8
		c0.5,0.2,1,0.4,1.5,0.6c1.2,0.4,2.3,0.6,3.4,0.6c0.2,0,0.4,0,0.5,0c0.1,0,0.2,0,0.2,0c0,0,0,0,0,0c-1.1,0.5-2.1,1.2-3,2.1
		c-1.8,1.9-2.6,4.6-2.3,7.2c0.2,1.6,1.1,3.3,2.6,3.9c-0.1,1.1,0.4,2.2,1.2,2.9c1,0.9,2.2,1.2,3.4,1.4c1,0.2,2,0.3,2.8,0.3
		c1.4,0,2.5-0.2,3.5-0.7c0.4,0.4,1,0.7,1.6,0.7c1,0,1.8-0.6,2.3-1.1l0.3-0.3c0.3-0.3,0.6-0.6,0.9-0.7c0.2-0.1,0.6-0.2,1-0.2
		c0.2,0,0.3,0,0.5,0c0.4,0,0.9,0,1.3,0c1.1,0,2.6-0.1,4.1-0.6c1.8-0.6,3.2-1.9,4.5-3.1c1.8-1.7,3.8-3.9,4.3-6.7
		c0.5-2.9-0.6-5.6-1.7-8.1c-0.6-1.3-1.2-2.7-1.5-4.1c-0.3-1.5-0.4-3-0.4-4.6l-0.4-15.7c0-1.3-0.1-2.7,0.1-4c4.7-0.7,9.1-2,11.6-5.5
		c13.5,1.8,27.7,0.3,40.6-4.3l4.6,7.4c2,3.2,4,6.5,6.5,9.3c0.4,0.4,0.7,0.8,1.1,1.2c0.8,0.9,1.6,1.7,2.2,2.6c2.2,3,3.2,6.9,2.9,10.9
		c-0.2,3.3-1.3,6.7-3.2,10c-1.7-1.2-3.8-1.9-6-1.9c-2.2,0-4.3,0.7-6,1.9c-3.7,2.8-5,8.5-2.8,12.7c1.2,2.3,3.3,3.8,5.5,4.1
		c0.7,0.1,1.4,0,2-0.2c0.2,0.6,0.6,1.1,1,1.5c0.9,0.8,2,1.2,3,1.6c0.8,0.3,1.7,0.5,2.6,0.5c0.4,0,0.7,0,1-0.1
		c0.8-0.2,1.7-0.8,2.1-1.5c1.2,0.6,2.6,0.8,3.9,0.4c0.2-0.1,0.5-0.2,0.7-0.3c-1.7,2.6-2.1,6.1-0.8,9c1.5,3.1,4.9,5.2,8.5,5.2
		c0.8,0,1.7-0.1,2.4-0.3c0.5,1.1,1.7,1.9,2.9,2.1c1.2,0.2,2.3-0.1,3.3-0.5c0.2,0.2,0.4,0.3,0.6,0.3c1.4,1.2,3.3,1.8,5.3,1.8
		c3.6,0,6.8-1.9,8.1-4.8c0.3-0.6,0.5-1.3,0.7-1.9c0.2-0.6,0.4-1.2,0.6-1.8c0.2-0.5,0.5-1,0.8-1.5c0.4-0.7,0.8-1.4,1.1-2.1
		c0.8-2.2,0.5-4.4,0.2-6.6l-0.1-0.9c-0.6-4.3-0.4-8.7,0.5-13.1c0.2-0.8,0.3-1.5,0.5-2.3c0.9-3.9,1.8-8,0.3-11.9
		c-0.7-1.7-1.8-3.2-2.8-4.6c-0.6-0.8-1.2-1.6-1.7-2.4c-4-6.5-2.6-14.8-1.4-22.8l0.1-0.9c0.1-0.5,0.2-1,0.2-1.6
		c10.3,10.7,22.4,17.1,34.2,18c0.5,0,1,0.1,1.5,0.1c1.5,0,2.6-0.2,3.6-0.7C219.1,125.6,220.6,123.7,220.1,121.5z M69.3,15.6
		c3.4-5.2,7.9-9.8,13-13.4c1.1-0.8,2.4-1.5,3.7-1.5c0,0,0,0,0,0c0.7,0,1.5,0.3,2.3,0.8c1.6,1.1,2.7,2.7,3.6,4.2
		c6.1,10,9.4,21.4,12.3,32.3c0.5,1.7,0.8,3.4,0.3,4.8c-0.7,1.8-2.9,2.6-5,3.3c-3.3,1-5.7,1.4-8,1.4c-1.6,0-3.1-0.2-4.4-0.7
		c-0.3-0.1-0.6-0.2-0.7-0.4c-0.2-0.2-0.2-0.7-0.2-1.2c0-0.9,0-1.8,0-2.7c0.1-4.9,0.2-10-1-14.8c0-0.1-0.1-0.2-0.1-0.3
		c-1.1-5.5-2.3-11.1-1.5-16.7c0.1-0.5-0.3-1.1-0.9-1.1c-0.6-0.1-1.1,0.3-1.1,0.9c-0.8,5.7,0.4,11.6,1.5,16.8
		c-1.6,0.5-3.1,1.3-4.4,2.4c-1.5-1.8-3-3.5-4.9-5c-1.6-1.3-3.4-2.2-5.1-2.7c0.5-0.6,0.9-1.3,1.2-2C70.2,18.6,70,17,69.3,15.6z
		 M35.7,82.3c-0.3,0.2-0.8,0.2-1.3,0.2c-7.8,0.1-15.7-1.4-22.8-4.5c-2.5-1.1-5.2-2.5-6.9-4.8c-0.8-1.1-1.5-2.6-2-4.3
		c-1.1-4.1-1-9,0.3-13.9c1.3-4.9,3.6-9.4,5.7-13.2c4.1-7.4,10-16.4,19.1-21.1c0.6-0.3,1.4-0.7,2.1-0.7c0,0,0,0,0,0
		c0.3,0,0.7,0.1,0.9,0.3c-4.8,6.4-7.3,14.6-6.9,22.5c0.4,8.5,3.8,16.4,7.1,24.1c1.7,4,3.5,8.1,4.8,12.2
		C36.3,80.4,36.5,81.9,35.7,82.3z M55.4,104.7c0.1-0.1,0.3-0.2,0.4-0.3c0,0,0-0.1,0-0.1c3.3-0.6,7.1,0.8,9.6,3.6
		c2.4,2.7,3.7,6.6,3.9,11c0,0.1,0,0.2,0,0.3l-1.5,0.1c-0.8,0.1-1.6,0.1-2.3,0.2c-0.1,0-0.1,0-0.2,0c-1.5,0-3.4,0.1-5.2,0.7
		c0.2-2.3-0.2-4.5-1-6.3c-1.1-2.3-3-4.1-5.3-4.8L55.4,104.7z M37,117.4c2.2-1.5,4.8-2.8,8.3-3.9c0.4-0.1,0.7-0.2,1.1-0.3
		c2.1-0.6,4.2-1.3,6.1-2.6c0.2,0.1,0.4,0.2,0.7,0.3c0.5,0.3,1,0.5,1.5,0.8c1.3,0.9,2.3,2.4,2.8,4.3c0.4,1.5,0.5,3.1,0.5,4.7
		c-1.1,0.3-2.1,0.7-3.2,1.1c-0.3,0.1-0.8,0.3-1.1,0.9c-0.8,0.7-1.4,1.5-1.6,2.4c-3.9,1.5-7.9,2-11.5,1.4c-3-0.4-5.5-1.8-8.2-3.3
		c-0.1-0.1-0.2-0.1-0.3-0.2C33,121,34.8,119,37,117.4z M53.3,150.7c0.2-0.2,0.4-0.5,0.6-0.7c0,0,0,0,0,0c1.2-1.2,2-2.7,2.2-4.4
		c0.4-2.7-0.4-5.2-1.3-7.7c-0.7-2-1.4-4-1.3-5.9c0-0.1,0-0.2,0-0.2l-0.1-5.1c0.2-0.3,0.3-0.5,0.3-0.8c0.1,0.5,0.2,0.9,0.3,1.4
		c1.7,7.2,2.9,14.7,3.5,22.1c0.1,0.7,0,0.9-0.1,0.9c-0.1,0-0.3,0.1-0.5,0.1c-1.2,0.1-2.6,0.3-4,0.6
		C53.2,150.8,53.3,150.7,53.3,150.7z M48.6,141.7c-1.2-1.8-2.1-3.4-2.4-5.4c2-0.7,3.8-1.7,5.5-2.7c0.2,1.7,0.8,3.3,1.3,4.9
		c0.8,2.3,1.6,4.5,1.2,6.7c-0.1,0.8-0.4,1.5-0.8,2.2c0,0,0,0,0,0l-0.2-0.2C51.6,145.4,49.9,143.7,48.6,141.7z M30.2,131.2
		c-0.3-0.7-0.4-1.5-0.4-2.3c0-1.2,0.6-2.6,1.1-3.9c0-0.1,0-0.1,0.1-0.2c0.1,0,0.2,0.1,0.2,0.1c2.7,1.5,5.6,3.1,8.9,3.6
		c3.7,0.5,7.6,0.1,11.4-1.1l0,4c-2.4,1.5-5.1,3-7.9,3.6c-0.2,0-0.5-0.1-0.7-0.1c-0.8,0-1.5,0.1-2.2,0.3c-0.1,0-0.1,0-0.2,0
		c-0.2,0-0.4,0-0.6,0c-1.2,0-2.4-0.1-3.7-0.3c-0.8-0.1-1.6-0.3-2.3-0.6c-0.4-0.2-0.9-0.4-1.3-0.6C31.6,133,30.8,132.2,30.2,131.2z
		 M37.5,143.5c-2.1-2.2-3.8-4.8-5.4-7.3c-0.2-0.3-0.4-0.7-0.6-1c0.6,0.3,1.1,0.6,1.8,0.8c1.6,0.6,3.3,0.8,4.9,1
		c0.1,1.1,0.3,1.8,0.7,2.7l2.4,7C39.9,145.8,38.6,144.7,37.5,143.5z M45.1,149c-0.4-0.2-0.8-0.4-1.1-0.6c-0.2-0.2-0.3-0.6-0.5-1
		l-2.9-8.3c-0.3-0.7-0.4-1.2-0.5-1.8c0.4-0.1,0.7-0.1,1-0.2c0.5-0.1,1-0.2,1.5-0.2l0.2,0c0.2,0,0.3,0,0.5,0.1
		c0.3,0.1,0.5,0.1,0.8,0.1c0.4,2.1,1.4,3.9,2.7,5.8c1.4,2.1,3.1,3.9,4.8,5.7l0.2,0.2c0.1,0.1,0.2,0.2,0.2,0.2c0,0.1-0.2,0.3-0.5,0.4
		C50.1,150.3,47.9,150.1,45.1,149z M75.6,149.7c1,2.4,2,4.7,1.5,7c-0.4,2.2-2.1,4.1-3.7,5.6c-1.1,1.1-2.4,2.2-3.8,2.7
		c-1.1,0.4-2.4,0.5-3.4,0.5c-0.4,0-0.9,0-1.3,0c-0.2,0-0.3,0-0.5,0c-0.5,0-1.2,0-1.9,0.3c-0.6,0.3-1.1,0.7-1.5,1.1l-0.3,0.2
		c-0.4,0.4-0.7,0.6-0.9,0.6c0,0-0.1,0-0.1-0.1c0-0.2,0-0.4-0.1-0.6c1.2-2.5,3-4.7,5.2-6.3c0.4-0.3,0.5-1,0.2-1.4
		c-0.3-0.4-1-0.5-1.4-0.2c-2.8,2-5,4.9-6.3,8.1c-1.2,0.6-2.8,0.7-5,0.3c-0.9-0.1-1.8-0.4-2.5-0.9c-0.3-0.2-0.5-0.6-0.5-1
		c0.2-0.1,0.3-0.2,0.4-0.4c1.6-3.3,4.7-5.8,8.2-6.9c0.5-0.2,0.8-0.7,0.7-1.2c-0.2-0.5-0.7-0.8-1.2-0.7c-3.7,1.1-7,3.7-8.9,7.1
		c-0.8-0.1-1.5-1.3-1.7-2.4c-0.2-2,0.4-4.1,1.8-5.6c2.2-2.4,5.9-3,8.8-3.2c0.4,0,1-0.1,1.5-0.4c1.1-0.7,1-2.2,0.9-2.7
		c-0.6-7.5-1.8-15.1-3.6-22.4c-0.2-0.9-0.4-1.8-0.7-2.7l0-0.2c0,0,0-0.1,0-0.1c0,0,0,0,0.1,0c3.9-1.7,8.3-2,12.5-2.4l5.2-0.4
		c-0.1,1.2-0.1,2.5,0,3.7l0.4,15.7c0,1.6,0.1,3.3,0.5,4.9C74.4,146.8,75,148.3,75.6,149.7z M163.8,152.5c-0.3,3-1.5,6-2.6,8.8
		c-0.5,1.2-1.1,2.7-2.1,3.6c-1,0.9-2.4,1.3-3.8,1.7c-1,0.3-2.1,0.6-3,1.1c-0.4,0.2-0.7,0.4-1,0.6c0.2-0.4,0.3-0.8,0.4-1.2
		c0.2-1.1,0-2.2-0.2-3c-0.3-1.5-0.9-2.9-1.6-4.2c1.6-0.9,2.9-1.8,3.7-3.5c0.2-0.5,0.4-1,0.5-1.5c0.1-0.3,0.1-0.6,0.2-0.9
		c0.7-2,2.6-3.4,4.5-4.7l0.4-0.3c1.4-1,2.9-2.2,3.8-3.8C163.6,147.5,164,150,163.8,152.5z M147.4,169.2c-1.1,0.3-2.5,0-3.2-0.8
		c-0.1-0.1-0.3-0.2-0.4-0.3c-0.3-1-0.4-2.2-0.3-3.8c0-0.7,0.1-1.4,0.3-2.1c0.2-0.6,0.6-1.1,1-1.3c0.5-0.3,0.6-0.9,0.4-1.4
		c-0.3-0.5-0.9-0.6-1.4-0.4c-0.8,0.5-1.5,1.3-1.9,2.4c-0.3,0.9-0.4,1.8-0.5,2.6c-0.1,2,0.1,3.5,0.5,4.8c0.1,0.2,0.2,0.5,0.4,0.8
		c-0.2,0.2-0.5,0.5-0.8,0.5c-0.7,0.2-1.7-0.1-2.5-0.4c-0.8-0.3-1.7-0.6-2.2-1.1c-0.5-0.5-0.7-1.1-0.5-1.6c0,0,0,0,0,0
		c0-0.1,0.1-0.2,0.1-0.3c0,0,0,0,0-0.1c0-0.1,0-0.2-0.1-0.3c0,0,0,0,0,0c-0.1-0.4-0.4-2.1-0.4-2.6c0-2.6,0.4-3.5,2-5.6
		c0.3-0.4,0.2-1.1-0.2-1.4c-0.4-0.3-1.1-0.2-1.4,0.2c-1.8,2.4-2.4,3.7-2.4,6.8c0,0.5,0.2,1.8,0.4,2.7c-0.4,0.4-1.1,0.5-1.6,0.4
		c-1.5-0.2-3.1-1.3-4-3c-1.8-3.3-0.8-7.9,2.2-10.1c1.3-1,3-1.5,4.8-1.5c2.1,0,4.2,0.8,5.6,2.1c0.2,0.2,0.5,0.3,0.8,0.3
		c0.3,0,0.6-0.2,0.7-0.5c2.4-3.9,3.8-8,4.1-11.9c0.3-4.5-0.9-8.9-3.3-12.2c-0.7-1-1.6-1.9-2.4-2.8c-0.4-0.4-0.7-0.8-1.1-1.2
		c-2.4-2.8-4.4-6-6.3-9.1l-4.2-6.9l5.8-2.2c0.8-0.3,1.6-0.5,2.1-0.4c0.9,0.2,1.5,1.2,2.2,2.3c5.2,9.3,11.5,18,18.8,25.9
		c2,2.1,3.6,4.1,3.5,6.3c-0.2,2.2-2.2,4-4,5.3l-0.4,0.3c-2,1.5-4.3,3.1-5.2,5.7c-0.1,0.3-0.2,0.7-0.3,1.1c-0.1,0.4-0.2,0.8-0.4,1.2
		c-0.6,1.3-2.1,2.2-3.7,3c-0.3,0.1-0.4,0.4-0.5,0.6c-0.1,0.3,0,0.6,0.1,0.8c0.9,1.4,1.5,2.9,1.9,4.5c0.2,0.9,0.3,1.6,0.2,2.2
		C149.4,167.8,148.5,168.9,147.4,169.2z M216.5,124.6c-0.7,0.4-1.6,0.5-2.8,0.5c-0.4,0-0.9,0-1.3-0.1c-11.4-0.9-23.3-7.2-33.4-17.9
		c-0.3-0.4-0.6-0.7-0.8-1c-0.2-0.5-0.1-1.2,0-1.9c1.5-12.1-1.6-24.7-4.3-32.8c5.6,5.3,10.8,11.7,13.9,17.4c1.4,2.6,2.7,5.4,4,8.1
		c1.3,2.7,2.6,5.5,4,8.2c3.6,6.6,7.6,11.1,12.3,13.8c2.8,1.7,6.2,2.8,10,3.5C218,123.5,217.3,124.3,216.5,124.6z"/>
</g>
</svg>
