<?xml version="1.0" encoding="utf-8"?>
<!-- Generator: Adobe Illustrator 23.1.0, SVG Export Plug-In . SVG Version: 6.00 Build 0)  -->
<svg version="1.1" id="Vrstva_10" xmlns="http://www.w3.org/2000/svg" xmlns:xlink="http://www.w3.org/1999/xlink" x="0px" y="0px"
	 viewBox="0 0 278.075 158.616" enable-background="new 0 0 278.075 158.616" xml:space="preserve">
<g>
	<path fill="#BA9060" d="M82.946,133.498c1.97-0.886,1.607-0.233,6.852-3.074c6.628-3.59,12.296-10.319,15.162-17.79
		c1.488-3.879,2.329-8.635,2.838-14.063c0.276-2.943,0.56-6.59-0.217-9.844c-1.422-5.961-6.131-11.287-11.826-12.605
		c-5.84-1.356-10.509-0.077-12.119-0.077c-10.723,1.854-20.7,7.314-26.386,15.341c-2.743,3.872-5.072,8.599-5.83,13.091
		c-0.968,1.816-0.256,4.799-0.256,4.799c-0.123,6.133,1.073,12.086,4.679,16.806c0.073,0.096,0.173,1.758-0.511,1.099
		c-1.911,0.168-3.309,0.221-4.986,1.151c-1.588,0.879-4.29,3.118-3.912,4.96c0.324,1.577,1.136,3.819,3.886,4.935
		c3.765,1.526,7.479,2.536,11.531,2.864c0.401,0.033,2.484,0.305,2.889,0.332c2.031,0.135,3.661,0.389,5.625,1.227
		c2.465,1.052,4.317,1.723,3.886,4.628c-0.074,0.498,0.036,1.052-0.102,1.488c-0.151,0.476-0.115,1.422-0.128,1.836
		c-0.032,0.995,0.463,2.774,1.457,2.838l1.304,0.205c0.7,0,1.275,0.068,1.636-0.588c0.063-0.336,1.685-0.103,1.483,0.869
		c-0.155,1.703,0.917,2.952,2.506,3.324c1.652,0.387,4.522-0.136,5.037-1.79c0.267-0.157,1.492-0.147,1.636,0.164
		c0.256,0.885,1.932,1.167,3.222,0.987c1.829-0.249,3.988-1.192,4.884-3.145c1.263-2.754,1.369-7.545-0.205-9.972
		c-2.82-4.35-6.364-6.247-11.855-8.111c0,0-2.66-0.597-2.758-0.875C81.95,134.061,82.441,133.724,82.946,133.498z"/>
	<path fill="#A47C4F" d="M108.019,99.935c0.276-2.943,0.459-9.326-0.318-12.58c-0.997-4.181-3.892-7.397-7.787-8.704
		c4.038,4.303,5.346,11.025,4.781,17.077c-0.818,8.765-4.816,17.199-11.082,23.382s-14.752,10.067-23.528,10.769
		c-2.049,0.164-4.753,0.74-4.873,2.792c0.346,0.116,0.699,0.203,1.048,0.304c0.007-0.055,1.22,0.725,1.276,0.737
		c0.835,0.194,3.197,0.654,3.75,0.654c7.909,0,11.528,0.162,18.341-3.682c6.565-3.703,12.202-9.438,15.068-16.909
		C106.184,109.897,107.51,105.363,108.019,99.935z"/>
	<path fill="#BA9060" d="M121.093,118.202c-4.591-1.301-9.744,0.402-15.115,2.614l-7.334,2.557c-2.535,2.89-5.857,6.169-9.153,8.028
		c-1.975,1.114-4.288,1.998-6.443,2.653c3.838,1.141,9.201,2.502,13.261,2.502c2.968,0,5.881-0.216,8.749-0.836
		c-0.014,0.933-0.317,2.811-0.014,4.118c0.391,1.682,1.465,2.652,2.351,3.119c0.831,0.438,2.817-0.214,3.607-1.023
		c0.509-0.52,1.154,0.274,1.154,0.274c0.64,0.579,2.386,0.89,2.903,0.89c1.646,0,3.663-0.674,4.398-1.792
		c-0.031-0.51,1.665-0.487,1.483,0c0.299,0.486,2.054,0.947,2.966,0.947c2.762,0,5.799-2.045,7.517-4.767
		c1.735-2.749,1.82-6.067,0.616-8.591c-0.01-0.022-0.085-0.681-0.514-1.476C129.905,123.967,126.413,119.708,121.093,118.202z"/>
	<g>
		<path fill="#A47C4F" d="M105.787,136.013c0.232-1.245,0.433-3.964-0.535-5.051c-0.191,1.347-1.723,2.035-3.049,2.386
			c-5.651,1.498-11.646,1.649-17.374,0.48c-0.108,0.034-0.214,0.074-0.322,0.107c2.871,2.078,7.742,2.622,11.802,2.622
			C99.278,136.557,102.919,136.633,105.787,136.013z"/>
		<path fill="#A47C4F" d="M119.457,141.307c-0.031-0.51,0.385-1.373,0.648-1.86c0.467-1.702,0.327-3.459,0.341-5.216
			c0.001-0.181,0.197-0.47-0.35-0.541c-0.079,1.644-0.94,3.237-2.288,4.184c-0.709,0.499-1.633,0.826-2.443,0.516
			c-1.379-0.528-1.535-2.396-1.375-3.864c0.255-2.345,0.573-5.112-1.181-6.69c-0.219-0.197-0.476-0.37-0.767-0.409
			c-0.582-0.078-1.115,0.417-1.293,0.976c-0.178,0.559-0.09,1.164-0.009,1.745c0.367,2.637,0.544,5.394-0.366,7.896
			c-0.26,0.716-0.83,1.521-1.577,1.372c-0.707-0.141-0.954-1.022-0.978-1.743c-0.068-2.054,0.516-4.08,0.543-6.134
			c0.012-0.88-0.113-1.837-0.732-2.464c-0.619-0.626-1.868-0.644-2.249,0.149c-0.086,0.18-0.11,0.373-0.119,0.571
			c0.251,0.484,0.716,1.033,0.716,1.366c0,0.955,0.253,1.63,0.464,3.716c0.002,0.019-1.171,2.068-1.18,2.08
			c-0.816,1.046-0.451,2.564-0.218,3.886c0.121,0.687,1.037,1.677,1.952,2.25c0.796,0.499,3.216-0.35,4.007-1.159
			c0.509-0.52,0.886,0.068,0.886,0.068c0.64,0.579,2.518,1.344,3.034,1.344C116.568,143.348,118.722,142.425,119.457,141.307z"/>
		<path fill="#A47C4F" d="M130.843,138.117c1.735-2.749,2.567-6.17,1.364-8.693c-0.01-0.022-0.23-0.864-0.239-0.886
			c-0.079-0.168-0.837-0.071-0.924-0.247c-0.093,1.135-0.356,2.27-0.655,3.373c-0.455,1.68-1.04,3.428-2.35,4.574
			c-1.309,1.146-3.56,1.389-4.688,0.063c-0.788-0.926-0.8-2.259-0.828-3.475c-0.038-1.694-0.184-3.386-0.437-5.062
			c-0.092-0.608-0.207-1.237-0.563-1.739c-0.356-0.502-1.022-0.836-1.599-0.622c-0.628,0.234-0.89,0.986-0.935,1.655
			c-0.129,1.906,0.836,3.724,1.068,5.611c0.757,2.714,1.124,4.874,1,6.587c0.016,0.513-0.056,1.311-0.239,1.797
			c0.299,0.486,1.236,1.256,2.148,1.256C125.73,142.31,129.126,140.84,130.843,138.117z"/>
	</g>
	<path fill="#A07A53" d="M210.293,98.264c0.021,0.21-12.744,6.051-12.546,5.779c-1.883,0.503-4.528,1.243-6.443,1.567
		c-0.366,5.477-3.746,11.569-8.028,15.001c5.094-0.153,11.911-0.372,16.926-0.665c1.54-0.09,3.525-0.119,5.063-0.205
		c6.514-0.366,10.375-0.52,16.03,1.074l2.123,0.205c1.063,0.311,2.254,0.607,3.222,0.563c1.512-0.063,2.948-1.022,4.412-1.912
		c0.966-0.588,2.517-1.3,3.611-1.718c2.737-1.051,4.487-0.465,7.01,1.035c2.65,1.574,4.046,3.79,5.42,8.016
		c0.463,1.426,0.449,2.925,0.511,4.653c0.03,0.815,0.237,2.347,0.307,3.019c0.55,0.563,2.206,1.083,3.119,1.083
		c1.012,0,2.021,0.292,2.584-0.366c0.575,0.366,0.69,1.717,1.047,2.452c0.387,0.796,1.526,2.119,2.25,2.301
		c0.71,0.176,2.9-0.692,3.477-1.388c0.385-0.463,1.068-1.291,1.125-1.066c0.609,0.894,1.715,0.838,2.761,0.716
		c1.113-0.137,2.946-0.643,3.269-1.72c-0.099-0.216,0.594,0,1.743,0c0.513,0,3.509,0.877,3.886,0.646
		c1.357-0.827,2.741-3.177,3.258-5.932c0.668-3.563,1.301-11.005-2.645-15.852c-1.883-2.313-5.198-4.347-8.233-4.347
		c-1.442,0-4.704-0.117-6.392,1.483c-0.293,0.278-1.215,0.622-1.585,0.46c-5.055-2.245-7.924-2.734-13.347-3.733
		c-3.15-0.58-7.021-1.409-10.176-2.243c-8.726-2.307-15.669-6.352-19.164-11.87c-0.009,0.009-0.811-0.383-0.82-0.374
		C212.999,96.067,211.601,97.292,210.293,98.264z"/>
	<path fill="#BA9060" d="M246.742,127.385c-1.217-3.743-2.599-6.326-4.814-7.643c-1.972-1.172-5.033-2.354-7.175-1.534
		c-0.926,0.354-2.197,1.223-3.128,1.79c-1.616,0.983-3.574,2.064-5.601,2.148c-1.297,0.056-1.295,0.024-2.467-0.319l-1.675-0.346
		c-5.357-1.509-8.546-1.58-14.881-1.227c-1.535,0.086-6.693,0.37-8.231,0.46c-13.8,0.806-4.542,0.906-17.51,0.981
		c-3.322,0.019,0.15-0.939,0.225-0.981c4.941-2.801,8.731-9.465,9.256-15.103c-2.948,0.427-5.686,0.5-8.591,0.785
		c-0.033,0.003-0.694-0.051-0.726-0.051c-0.179,0-0.513-0.412-0.663-0.499c-0.197,0.187-1.424,1.509-1.628,1.69
		c-4.598,4.064-9.683,5.879-17.825,6.752c-1.786,0.191-3.102,0.393-4.726,0.393c-5.007,0-9.09-0.681-12.733-2.506
		c-6.117-3.063-10.533-8.321-10.483-14.267c0.031-3.659,1.414-6.717,2.813-10.023c1.583-3.74,3.422-7.956,2.907-11.655
		c-0.211-1.515-1.508-3.793-2.139-5.265c-0.511,0.236-1.336,0.438-1.841,0.763l-1.176,0.816c-4.967,3.159-9.638,3.686-17.591,3.686
		c-1.108,0-2.387,0.618-3.58,0.559c-2.854-0.143-5.7-0.282-8.489-0.559c-1.167-0.115-5.057-0.46-6.239-0.566
		c4.344,2.474,8.665,7.377,9.869,12.426c0.844,3.538,1.11,7.325,0.818,10.432c-0.526,5.611-1.565,10.318-3.119,14.369
		c-1.095,2.854-3.267,6.615-4.96,9.051l5.216-1.739c5.721-2.356,10.339-3.983,15.545-2.506c4.481,1.269,8.531,4.885,11.301,10.523
		c1.828-0.167,3.506-0.379,5.011-1.42c0.309-0.215,0.691-0.885,1.023-0.707c0.331,0.18,0.113,0.689,0.102,1.065
		c-0.119,4.438-0.448,7.208,1.636,10.227c2.542,3.684,5.999,5.906,9.767,6.29c1.467,0.15,5.55,0.433,7.108,0.433
		c7.57,0,14.201-1.578,21.631-3.296c1.785-0.412,4.562-0.66,6.341-1.048c4.428-0.967,10.923-2.122,17.54-2.122
		c5.969,0,10.793,0.076,15.392,2.122c0.558,0.249,1.639,0.793,2.301,0.793c0.646,0,1.523-0.304,1.628-0.386
		c-0.191-0.143,0.932-0.165,1.018,0c0.849,1.626,2.267,2.606,3.746,3.13c0.738,0.259,2.552-0.256,3.04-0.831
		c-0.921-0.694,0.789-0.252,0.759,0.052c0.244,0.832,1.281,1.445,2.082,1.565c1.097,0.169,3.414-0.587,3.63-1.638
		c0.009-0.042,1.306-1.714,0.716-0.407c2.172,0.462,6.437-0.724,8.182-2.506c1.244-1.27,2.146-2.618,2.118-4.18
		c-0.098-0.805-0.089-2.336-0.124-3.286C247.292,130.474,247.119,128.544,246.742,127.385z"/>
	<g>
		<path fill="#A47C4F" d="M219.037,140.06c0.558,0.249,3.531,0.477,4.193,0.477c0.646,0,0.63-0.534,0.716-0.369
			c0.849,1.626,1.215,2.539,2.693,3.062c0.738,0.259,2.975-0.379,3.463-0.955c-0.034-0.147,0.113-1.02,0.151-1.176
			c0.788-3.252,0.614-9.767-1.559-10.95c0.159,1.174,0.317,2.347,0.476,3.521c0.115,0.848,0.22,1.758-0.168,2.522
			c-0.764,1.505-3.081,1.522-4.388,0.455s-1.856-2.783-2.34-4.399c-1.633,1.469-2.332,3.896-1.73,6.009
			c-3.371-0.254-6.205-2.537-9.38-3.699c-4.497-1.646-9.468-0.98-14.208-0.293c-13.047,1.891-26.093,3.783-39.14,5.674
			c-2.766,0.401-5.617,0.798-8.327,0.114c-5.28-1.334-8.641-6.443-9.979-11.835c-0.554,3.591-0.472,7.367,1.321,9.966
			c2.542,3.684,8.471,5.037,12.239,5.42c1.467,0.15,3.045,0.205,4.602,0.205c7.57,0,15.616-1.923,23.045-3.642
			c1.785-0.412,3.675-0.708,5.455-1.097c4.428-0.967,10.565-1.875,17.182-1.875C209.324,137.196,214.438,138.014,219.037,140.06z"/>
		<path fill="#A47C4F" d="M246.084,127.4c-0.373-0.684-0.934-1.192-1.591-0.892c0.321,2.282,0.012,4.649-0.884,6.773
			c-2.369,0.126-3.519-2.781-4.104-5.079s-2.245-5.116-4.519-4.44c-0.635,1.798,0.14,3.772,1.047,5.448
			c0.789,1.458,1.71,2.939,1.945,4.553c0.507,1.422,0.151,1.99,0.416,3.099c0.362,1.515-0.037,3.254-0.628,4.561
			c2.172,0.462,5.945-0.53,7.69-2.312c1.244-1.27,1.869-3.286,1.841-4.848c-0.098-0.805-0.272-1.811-0.307-2.761
			C246.934,129.92,246.455,128.559,246.084,127.4z"/>
		<path fill="#A47C4F" d="M229.741,129.526c0.407,0.975,0.648,2.045,1.31,1.535c-0.37-2.366-0.833-4.546-2.946-5.268
			c0.087,0.643,0.174,1.287,0.261,1.931c0.097-0.108,0.132,0.743,0.694,1.223C229.578,129.39,229.528,129.015,229.741,129.526z"/>
		<path fill="#A47C4F" d="M234.533,138.012c-0.552-0.134-1.039-0.469-1.432-0.879c-0.713-0.743-1.134-1.701-1.422-2.744
			c-0.437,1.955-0.694,4.311-0.996,6.216c0.07,0.302,0.5,1.342,0.469,1.646c0.244,0.832,1.572,1.439,2.374,1.558
			c1.097,0.169,2.446-0.538,2.662-1.589c0.009-0.042,0.29-0.621,0.303-0.661c0.02-0.058,0.821-0.626,0.852-0.682
			c0.758-1.346,1.534-2.876,0.92-4.432c-0.039-0.099-0.582-0.301-0.565-0.407C237.123,137.34,235.88,138.338,234.533,138.012z"/>
	</g>
	<path fill="#4C331B" d="M110.614,139.256c-0.005-0.097-0.006-0.195,0.019-0.294C110.609,139.056,110.61,139.156,110.614,139.256z"
		/>
	<path fill="#4C331B" d="M255.177,135.22c0.041-0.188,0.096-0.37,0.167-0.544c-0.039,0.091-0.078,0.183-0.126,0.267
		C255.22,135.039,255.197,135.129,255.177,135.22z"/>
	<path fill="#4C331B" d="M255.458,134.192c-0.001,0.049-0.018,0.092-0.024,0.139C255.441,134.284,255.457,134.239,255.458,134.192z"
		/>
	<path fill="#4C331B" d="M106.996,135.84c-0.018,0.062-0.046,0.118-0.074,0.173C106.951,135.956,106.978,135.9,106.996,135.84z"/>
	<path fill="#4C331B" d="M259.481,135.69c0-0.073,0.01-0.147,0.027-0.221C259.492,135.542,259.481,135.614,259.481,135.69z"/>
	<path fill="#BA9060" d="M182.287,91.958c-0.379-1.062,0.845-1.883,1.139-2.564c7.771-17.953,7.462-40.988,0.504-60.786
		c-5.037-0.145-10.245-1.598-14.598-4.15c-1.056-0.618-2.679-1.853-3.682-2.523c-2.721-1.817-5.738-2.921-8.727-3.341
		c-0.916-0.126-2.566,0.424-2.976,0.886c-0.127,0.143,0.774,1.73,0.795,1.909c0.053,0.455,2.315,2.681,2.864,3.068
		c0,0-2.809,0.134-3.205,0.205c-1.51,0.269-4.918,2.558-5.385,3.954c1.409,0.415,3.212,2.703,4.499,3.41l-2.923,0.426h-3.213
		c-0.131,0.035-1.092,0.523-1.196,0.586c-0.19,0.115,0.212,1.896,0.599,1.306c0.042,0.069,1.286,2.52,1.415,2.591
		c0,0-0.921,0.384-1.023,0.409l-5.523,1.733c-1.805,1.09-3.168,3.109-4.364,5.017c-2.218,3.54-3.11,8.405-3.038,14.415
		c0.007,0.595-0.032,1.33-0.004,1.881c0.519,2.029,0.341,2.852,1.202,5.25c0.091,0.337,0.575,1.886,0.681,2.207
		c0.37,1.117,0.951,2.211,1.432,3.297c0.851,1.925,1.223,2.904,1.526,5.085c0.591,4.246-1.475,8.084-3.094,11.911
		c-1.383,3.27-1.715,7.094-1.742,10.357c-0.044,5.199,3.588,10.527,9.038,13.256c4.475,2.241,10.166,2.999,17.065,2.262
		c7.721-0.828,13.807-3.166,18.089-6.95c3.473-3.07,7.103-8.37,8.823-12.856c-0.627-0.122-1.965-0.462-2.583-0.614
		C184.049,93.439,182.805,93.412,182.287,91.958z"/>
	<path fill="#A47C4F" d="M183.426,28.588c-0.467-0.013-1.071-0.04-1.62,0.567c2.592,8.421,3.968,17.203,4.14,26.012
		c0.905,1.787,1.445,3.846,1.561,6.047c0.151,2.868-0.441,5.461-1.714,7.5c-0.192,0.307-0.422,0.588-0.646,0.872
		c-0.775,5.889-2.088,11.707-3.96,17.346c-0.874,2.632-1.873,5.272-2.03,8.041c-0.134,2.363,0.346,4.795-0.312,7.068
		c-1.015,3.506-4.421,5.702-7.667,7.371c-2.134,1.097-4.314,2.105-6.531,3.024c0.526,1.955,11.297-2.575,14.813-5.683
		c3.473-3.07,6.35-8.06,8.07-12.545c-0.627-0.122-2.231-0.462-2.849-0.614c-0.632-0.155-1.575,0.41-2.093-1.044
		c-0.379-1.062,0.018-2.026,0.312-2.706C190.671,71.891,190.383,48.386,183.426,28.588z"/>
	<path fill="#7B5632" d="M50.73,71.162c-2.016-9.89,0.743-20.326,9.818-29.352l2.148-2.25c2.324-2.287,4.071-5.146,4.287-8.098
		c0.042-0.574-0.088-0.704-0.094-0.709c-0.016-0.015-0.127-0.099-0.565-0.114l-0.192-0.003c-1.456,0-3.928,0.395-5.174,0.947
		c-9.23,4.09-18.273,13.855-23.523,24.92c-3.356,7.075-6.325,17.567-4.188,29.349c0.581,3.201,1.621,6.534,2.991,9.377
		c0.635,0.836,7.12,1.826,7.739,1.961c1.337,0.293,1.673,0.54,2.423,1.815c0.363,0.618,0.752,1.373,0.853,2.045
		c0.11,0.087,2.088,1.544,2.259,1.65c0.199,0.08,1.417-0.08,1.628,0c1.407-5.617,5.225-11.485,9.102-15.789
		C55.118,81.296,51.854,76.68,50.73,71.162z"/>
	<path fill="#5C3F22" d="M64.958,34.543c-5.557,5.613-11.197,11.338-14.862,18.335c-3.664,6.997-5.123,15.585-1.964,22.824
		c1.445,3.311,3.812,6.298,4.357,9.869c0.824,5.399-2.694,10.554-3.737,15.857c0.074,0.044-0.164,0.746-0.089,0.79
		c0.189,0.07,0.677,0.787,0.848,0.892c0.199,0.08,0.554-0.047,0.762,0c0.206,0.045,1.388,0.12,1.599,0.2
		c1.407-5.617,4.491-12.094,8.369-16.398c-5.123-5.616-8.668-11.051-9.793-16.568c-2.016-9.89,0.309-18.69,9.384-27.716l2.864-3.068
		c1.942-1.911,5.195-5.241,3.369-6.134C65.696,33.799,65.327,34.171,64.958,34.543z"/>
	<path fill="#7B5632" d="M206.696,91.606c2.076-0.703,3.271-1.215,5.523-1.421c0.85-0.408,1.853-0.323,2.672-0.791
		c1.015-0.58,2.164-1.69,2.749-2.379c0.823-0.971,1.686-2.027,1.999-3.29c2.6-10.51,0.401-22.718-6.747-34.757
		c-3.389-5.709-6.889-11.56-10.833-14.521c-3.696-2.776-11.929-5.843-17.375-5.863c6.892,20.107,6.07,43.591-1.815,61.806
		c-0.169,0.392-0.392,1.842-0.278,2.161c0.157,0.441,1.781,0.968,2.093,1.044c2.594,0.636,6.312,0.948,9.026,1.044
		c3.491-0.032,6.288-0.956,9.614-1.969C204.06,92.445,205.959,91.855,206.696,91.606z"/>
	<path fill="#5C3F22" d="M200.137,33.206c-1.129-0.848-1.707-0.901-3.721-0.754c10.932,11.758,17.783,27.35,18.622,43.405
		c0.088,1.688,0.107,3.426-0.476,5.013c-0.799,2.177-2.644,3.818-4.641,4.998c-7.097,4.194-16.026,3.411-23.879,5.921
		c-0.41,0.131-0.832,0.288-1.225,0.484c0.018,0.004,0.058-0.001,0.056,0.014c-0.193,1.307,4.202,2.158,6.916,2.255
		c3.491-0.032,7.638-0.157,10.964-1.17c0.739-0.225,1.875-1.096,2.612-1.345c2.076-0.703,3.373-1.43,5.625-1.636
		c0.85-0.408,2.261-0.528,3.079-0.996c1.015-0.58,2.063-1.089,2.648-1.779c0.823-0.971,2.607-2.628,2.919-3.89
		c2.6-10.51,0.401-22.718-6.747-34.757C209.502,43.259,204.081,36.168,200.137,33.206z"/>
	<path fill="#7B5632" d="M132.919,28.949c4.182,2.184,6.446,5.467,8.527,9.69l6.75-1.705c-1.125-1.036-2.184-2.436-2.659-3.897
		c-0.096-0.295,0.437-0.631,0.746-0.65l6.72-1.214c-0.978-0.396-2.346-1.71-3.387-1.935c-0.31-0.066-0.6-1.724-0.6-2.042
		c0-1.482-0.385-3.004-1.126-5.126c-1.701-4.873-3.985-10.037-6.136-14.727c-1.168-2.548-2.615-5.673-5.119-6.75
		c-0.708-0.305-2.881-0.054-3.713-0.054c-1.378,0-2.553,0.707-3.826,1.486c-1.758,1.074-4.196,4.577-5.648,7.057
		c-1.799,3.072-2.997,6.894-4.193,10.227c-3.972,11.071-7.839,20.734-8.795,32.625c-0.034,0.431,0.953,1.819,1.096,2.045
		c0.166,0.263,0.525,0.68,1.029,0.818c3.513,0.962,8.222,2.069,12.091,2.07l2.148-0.366c1.194,0,0.762-0.429,1.841-0.635
		c1.338-0.254,1.976-0.849,2.346-1.479c0.251-0.428,0.239-1.037,0.306-1.739c0.72-7.544,1.101-15.842,0.621-23.412
		C131.093,28.785,132.707,28.84,132.919,28.949z"/>
	<path fill="#5C3F22" d="M141.761,38.507l4.521-1.895c-0.302-0.479-0.701-0.91-1.147-1.249c-1.12-0.85-2.486-1.296-3.736-1.94
		c-3.732-1.923-6.405-5.771-6.904-9.94c-0.347-2.897,0.292-5.868-0.249-8.735c-0.199-1.055-0.691-2.217-1.717-2.534
		c-1.333-0.412-2.578,0.846-3.268,2.059c-4.14,7.271-1.696,16.297-1.349,24.657c0.194,4.682-0.809,10.167-4.965,12.331
		c-3.14,1.635-7.384,0.947-10.366,2.448c0.086,0.026-0.087,1.066,0,1.09c3.513,0.962,7.677,1.704,11.546,1.705h0.818
		c1.194,0,2.466-0.067,3.545-0.273c1.338-0.254,2.453-1.416,2.822-2.045c0.251-0.428,0.35-1.617,0.417-2.318
		c0.72-7.544,0.606-14.291,0.126-21.861c-0.841-0.455,0.513-0.876,0.725-0.767C136.762,31.423,139.68,34.284,141.761,38.507z"/>
	<path fill="#1C1C1B" d="M158.871,102.834c2.783-4.322,2.65-10.371-0.315-14.385c-2.154-2.914-5.819-4.724-9.565-4.724
		c-1.42,0-2.774,0.259-4.026,0.773c-1.616,0.661-2.932,1.663-3.806,2.895c-0.659,0.93-1.139,2.098-1.427,3.469
		c-0.898,4.281,0.832,9.773,5.283,11.555l0.116,0.045c0.478,0.189,1.074,0.424,1.397,0.987c0.151,0.265,0.206,0.537,0.253,0.779
		c0.018,0.09,0.036,0.18,0.059,0.268c0.176,0.641,0.81,1.134,1.473,1.147c0,0,0.001,0,0.001,0c0.68,0,1.331-0.304,1.53-0.922
		l0.243-0.281l0.156-0.248c0.2-0.083,0.302-0.086,0.515-0.086c0.705,0,1.32,0.453,1.862,0.851c0.193,0.143,0.385,0.285,0.578,0.402
		c0.849,0.514,2.132,0.489,3.167-0.042C157.276,104.85,158.096,104.037,158.871,102.834z"/>
	<path d="M149.05,83.322c-1.473,0-2.881,0.271-4.184,0.805c-1.703,0.697-3.098,1.764-4.034,3.084
		c-0.703,0.991-1.211,2.22-1.512,3.651c-0.934,4.449,0.906,10.175,5.6,12.053l0.114,0.046c0.354,0.14,0.688,0.271,0.819,0.499
		c0.062,0.107,0.091,0.259,0.126,0.434c0.022,0.108,0.044,0.218,0.073,0.324c0.283,1.031,1.266,1.796,2.383,1.818
		c0.952,0,1.858-0.596,2.257-1.451c0.313-0.001,0.775,0.302,1.193,0.609c0.208,0.153,0.415,0.305,0.621,0.43
		c0.545,0.33,1.2,0.505,1.892,0.505c0.707,0,1.424-0.177,2.076-0.511c1.021-0.524,1.922-1.406,2.752-2.695
		c2.893-4.492,2.755-10.55-0.334-14.729C156.673,85.189,152.901,83.322,149.05,83.322z M153.027,104.769
		c-0.182-0.11-0.364-0.245-0.546-0.38c-0.512-0.377-1.093-0.805-1.759-0.805c-0.202,0-0.399,0.04-0.589,0.118l-0.215,0.088
		l-0.071,0.222c-0.188,0.584-0.793,1.024-1.436,1.024c0,0,0,0,0,0c-0.627-0.013-1.226-0.479-1.393-1.084
		c-0.022-0.083-0.039-0.168-0.056-0.253c-0.045-0.229-0.096-0.486-0.239-0.736c-0.306-0.532-0.868-0.754-1.32-0.933l-0.109-0.043
		c-4.207-1.684-5.842-6.874-4.993-10.92c0.272-1.296,0.726-2.399,1.349-3.278c0.826-1.165,2.07-2.111,3.597-2.736
		c1.183-0.485,2.462-0.73,3.805-0.73c3.54,0,7.004,1.711,9.04,4.465c2.802,3.793,2.928,9.51,0.298,13.595
		c-0.733,1.137-1.507,1.905-2.368,2.347C155.042,105.231,153.829,105.254,153.027,104.769z"/>
	<path fill="#FFFFFF" d="M151.138,87.7c-1.53-0.26-3.088,0.124-4.592,0.505c-0.17,0.715,0.662,1.294,1.397,1.328
		c0.734,0.034,1.469-0.234,2.195-0.117c1.114,0.18,1.878,1.187,2.839,1.778c0.446,0.275,1.157,0.392,1.39-0.078
		c0.082-0.165,0.073-0.359,0.045-0.541C154.172,89.043,152.668,87.96,151.138,87.7z"/>
	<path fill="#4C331B" d="M165.455,101.322c-0.035-0.246-0.245-0.429-0.494-0.43h-0.001c-0.248,0-0.458,0.182-0.495,0.427
		c-0.117,0.789-0.452,1.545-0.806,2.345c-0.493,1.113-1.002,2.265-0.899,3.547c0.071,0.871,0.453,1.595,1.046,1.985
		c0.278,0.183,0.623,0.283,0.971,0.283c0.604,0,1.119-0.283,1.379-0.758c0.279-0.509,0.195-1.09,0.141-1.475L165.455,101.322z"/>
	<path fill="#FFFFFF" d="M143.258,69.946c2.748,0.622,5.953-0.171,8.248-2.022c2.244-1.81,3.75-4.592,4.131-7.63
		c0.219-1.743,0.049-3.427-0.49-4.869c-0.897-2.402-2.905-4.343-5.372-5.191c-0.929-0.32-1.917-0.481-2.934-0.481
		c-1.605,0-3.183,0.403-4.563,1.167c-3.194,1.768-5.403,5.607-5.625,9.781c-0.075,1.392,0.064,2.646,0.412,3.724
		C137.937,67.123,140.367,69.29,143.258,69.946z"/>
	<path fill="#4C331B" d="M142.904,70.721c0.712,0.161,1.453,0.243,2.201,0.243c2.451,0,4.967-0.896,6.903-2.458
		c2.431-1.961,4.059-4.959,4.469-8.226c0.237-1.895,0.048-3.739-0.548-5.335c-1.006-2.695-3.256-4.872-6.017-5.821
		c-2.673-0.921-5.826-0.631-8.333,0.757c-3.397,1.881-5.675,5.694-6.057,10.023c-0.015,0.166-0.047,0.327-0.055,0.495
		c-0.08,1.506,0.075,2.877,0.462,4.076c0.109,0.338,0.248,0.666,0.398,0.988C137.535,68.051,140.012,70.066,142.904,70.721z
		 M136.965,60.48c0.211-3.963,2.308-7.607,5.341-9.286c1.31-0.726,2.808-1.108,4.332-1.108c0.966,0,1.903,0.153,2.786,0.457
		c2.342,0.806,4.249,2.648,5.1,4.929c0.512,1.369,0.672,2.968,0.465,4.623c-0.362,2.885-1.792,5.525-3.922,7.244
		c-2.178,1.758-5.221,2.511-7.831,1.92c-2.745-0.622-5.052-2.68-5.879-5.243C137.026,62.991,136.894,61.801,136.965,60.48z"/>
	<path fill="#FFFFFF" d="M163.814,65.218c0.458,3.562,2.819,6.678,5.874,7.756c1.051,0.37,2.254,0.552,3.787,0.573l0.249,0.002
		c5.068,0,9.327-1.976,11.394-5.285c1.486-2.379,1.678-5.134,1.578-7.026c-0.139-2.631-0.89-5.044-2.172-6.979
		c-1.393-2.099-3.464-3.637-5.684-4.221c-0.728-0.192-1.495-0.288-2.281-0.288c-1.511,0-3.071,0.357-4.51,1.035
		c-2.006,0.944-3.862,2.527-5.369,4.58C164.445,58.411,163.4,62.002,163.814,65.218z"/>
	<path fill="#4C331B" d="M169.473,73.774c1.149,0.405,2.436,0.604,4.048,0.626l0.255,0.002c5.299,0,9.791-2.127,12.016-5.688
		c1.273-2.039,1.865-4.632,1.714-7.5c-0.146-2.747-0.939-5.281-2.296-7.328c-1.514-2.283-3.784-3.961-6.229-4.603
		c-2.343-0.615-5.044-0.32-7.423,0.798c-2.117,0.996-4.064,2.652-5.632,4.789c-2.333,3.18-3.42,6.959-2.98,10.369
		C163.448,69.146,166.072,72.575,169.473,73.774z M172.198,51.439c1.357-0.639,2.828-0.976,4.252-0.976
		c0.741,0,1.465,0.091,2.151,0.271c2.093,0.55,4.046,2,5.359,3.979c1.209,1.824,1.917,4.1,2.048,6.58
		c0.094,1.784-0.087,4.382-1.488,6.625c-1.949,3.12-5.965,4.983-10.743,4.983l-0.235-0.002c-1.445-0.02-2.58-0.191-3.57-0.54
		c-2.881-1.016-5.106-3.954-5.539-7.313c-0.39-3.032,0.595-6.419,2.702-9.291C168.556,53.821,170.307,52.328,172.198,51.439z"/>
	<path fill="#4A321A" d="M173.302,41.829c0.834-1.391,2.321-2.387,3.933-2.563c1.525-0.167,3.114,0.411,4.176,1.518
		c0.772,0.805,1.314,1.896,2.325,2.367c0.18,0.084,0.39,0.144,0.573,0.069c0.263-0.109,0.348-0.442,0.339-0.727
		c-0.039-1.217-1.088-2.146-2.128-2.779c-1.74-1.059-3.776-1.756-5.802-1.543c-2.026,0.212-4.01,1.467-4.714,3.379
		c-0.127,0.346-0.174,0.813,0.138,1.009C172.576,42.83,173.038,42.269,173.302,41.829z"/>
	<path fill="#4A321A" d="M149.149,44.333c-0.422-0.376-0.88-0.738-1.422-0.898c-0.687-0.203-1.425-0.059-2.119,0.117
		c-1.681,0.427-3.399,1.095-4.486,2.447c-0.211,0.263-0.403,0.572-0.394,0.909c0.008,0.337,0.298,0.683,0.632,0.634
		c0.177-0.026,0.322-0.149,0.457-0.266c0.933-0.805,2.019-1.565,3.251-1.593c0.686-0.016,1.359,0.2,2.045,0.204
		c0.649,0.004,1.299-0.188,1.842-0.543c0.26-0.17,0.522-0.469,0.404-0.756C149.317,44.484,149.232,44.406,149.149,44.333z"/>
	<path fill="#1C1C1B" d="M167.105,62.426c-0.591,1.871-0.575,3.747,0.044,5.28c0.994,2.457,3.704,4.129,6.489,4.015
		c1.13-0.055,2.245-0.385,3.225-0.955c0.618-0.361,1.112-0.778,1.468-1.243c0.581-0.757,0.921-1.769,1.068-3.184
		c0.185-1.77-0.044-3.213-0.676-4.289c-0.796-1.353-2.26-2.213-3.588-2.875c-1.006-0.502-2.192-1.016-3.366-1.016
		c-0.161,0-0.323,0.009-0.485,0.03C169.099,58.466,167.667,60.645,167.105,62.426z"/>
	<path d="M173.205,72.146c0.111,0,0.221-0.003,0.332-0.009c1.212-0.058,2.408-0.412,3.458-1.024
		c0.688-0.401,1.246-0.876,1.656-1.411c0.659-0.858,1.039-1.962,1.196-3.471c0.194-1.866-0.063-3.415-0.763-4.605
		c-0.874-1.484-2.389-2.382-3.756-3.064c-1.195-0.597-2.664-1.205-4.159-1.016c-2.503,0.317-4.106,2.696-4.719,4.637
		c-0.62,1.963-0.596,3.949,0.068,5.593C167.56,70.348,170.309,72.146,173.205,72.146z M174.882,59.455
		c1.236,0.617,2.6,1.418,3.341,2.678c0.589,1.002,0.802,2.346,0.63,3.994c-0.137,1.317-0.453,2.26-0.994,2.965
		c-0.332,0.433-0.792,0.821-1.367,1.157c-0.913,0.531-1.951,0.839-3.003,0.89c-2.593,0.105-5.117-1.451-6.042-3.739
		c-0.577-1.428-0.591-3.175-0.041-4.917c0.523-1.658,1.856-3.688,3.891-3.945c0.151-0.02,0.301-0.028,0.452-0.028
		C172.841,58.509,173.946,58.987,174.882,59.455z"/>
	<path fill="#1C1C1B" d="M139.508,58.277c-0.691,1.029-0.796,2.4-0.81,3.479c-0.028,2.032,0.301,3.479,1.035,4.554
		c0.853,1.248,2.43,2.024,4.117,2.024h0.001c0.724,0,1.438-0.147,2.065-0.426c2.061-0.917,3.518-3.249,3.542-5.671
		c0.013-1.225-0.319-2.36-0.934-3.198c-0.494-0.672-1.238-1.257-2.213-1.737c-1.059-0.521-2.146-0.797-3.143-0.797
		c-0.188,0-0.376,0.009-0.564,0.029C141.305,56.671,140.148,57.322,139.508,58.277z"/>
	<path d="M143.812,68.847L143.812,68.847c0.811,0,1.614-0.167,2.323-0.481c2.294-1.021,3.854-3.499,3.88-6.167
		c0.014-1.352-0.363-2.619-1.061-3.569c-0.554-0.755-1.367-1.399-2.418-1.917c-1.337-0.659-2.7-0.948-3.987-0.81
		c-1.496,0.158-2.841,0.927-3.597,2.056c-0.788,1.174-0.906,2.632-0.921,3.771c-0.018,1.322,0.08,3.259,1.134,4.804
		C140.14,67.96,141.921,68.847,143.812,68.847z M143.178,56.869c0.926,0,1.935,0.256,2.917,0.739
		c0.905,0.446,1.596,0.988,2.054,1.612c0.57,0.777,0.878,1.831,0.867,2.968c-0.022,2.248-1.374,4.412-3.287,5.263
		c-0.582,0.259-1.244,0.396-1.916,0.396h0c-1.565,0-3.029-0.72-3.821-1.878c-0.681-0.997-0.986-2.34-0.96-4.226
		c0.013-1.001,0.11-2.273,0.751-3.229c0.594-0.886,1.667-1.49,2.872-1.618C142.829,56.878,143.003,56.869,143.178,56.869z"/>
	<path fill="#FFFFFF" d="M169.014,65.201c-0.135,0.282-0.213,0.594-0.195,0.906c0.035,0.621,0.486,1.197,1.08,1.381
		c0.594,0.184,1.291-0.037,1.671-0.529c0.119-0.154,0.208-0.33,0.272-0.514c0.169-0.488,0.152-1.049-0.094-1.503
		c-0.247-0.454-0.735-0.781-1.252-0.785C169.857,64.151,169.289,64.625,169.014,65.201z"/>
	<path fill="#FFFFFF" d="M143.187,64.934c0.225-0.277,0.31-0.644,0.327-1.001c0.023-0.502-0.093-1.033-0.43-1.407
		c-0.541-0.601-1.332-0.307-1.803,0.25c-0.209,0.247-0.355,0.546-0.388,0.841C140.761,64.791,142.263,66.076,143.187,64.934z"/>
	<path fill="#62B594" d="M203.065,98.282c0.035-0.143,0.565-0.506,0.614-0.645c0.588-1.693,1.109-2,2.864-2
		c0.567,0,0.993,0.278,1.483,0.532c0.628,0.326,1.209,0.828,1.585,1.469c1.004-0.786,3.1-2.197,3.942-3.095
		c0.101-0.107-0.021-0.941,0-1.084c0.027-0.201-0.595-1.006-0.823-1.33c-0.249-0.352-0.865-0.522-1.023-1.023
		c-1.876,0.226-4.112,0.794-6.034,1.445c-0.756,0.256-2.617,0.626-3.375,0.856c-4.984,1.52-9.218,1.719-14.42,1.135
		c-0.979,3.655-2.952,8.443-5.114,11.07c4.717-0.486,10.769-1.087,15.335-2.387c0.704-0.201,1.949-0.629,2.619-0.857
		C203.373,102.015,203.345,99.701,203.065,98.282z"/>
	<path fill="#4C331B" d="M213.553,90.912c0.02-0.033,0.029-0.069,0.044-0.103c0.134-0.294,0.127-0.636-0.039-0.919
		c-0.187-0.316-0.546-0.53-0.896-0.492c-0.271,0.009-0.54,0.03-0.809,0.055c-2.252,0.206-4.393,0.927-6.469,1.63
		c-0.736,0.249-1.473,0.499-2.212,0.724c-3.326,1.014-6.817,1.532-10.308,1.565c-1.746,0.016-3.492-0.081-5.218-0.316
		c-0.501-0.066-0.975,0.249-1.103,0.739c-0.074,0.284-0.152,0.562-0.227,0.843c-1.171,4.366-2.573,8.404-5.729,10.725
		c-0.363,0.267-0.502,0.743-0.342,1.163c0.084,0.22,0.244,0.389,0.437,0.501c0.149,0.086,0.317,0.142,0.496,0.142
		c0.032,0,0.065-0.002,0.098-0.005c2.905-0.285,5.86-0.576,8.808-1.003c0.675-0.098,1.35-0.202,2.023-0.316
		c1.915-0.324,3.82-0.729,5.702-1.233c1.793-0.109,3.085-1.703,4.384-2.155c-0.313-0.126-1.125-1.023-2.096-0.618
		c-0.671,0.227-1.354,0.445-2.058,0.646c-4.566,1.3-9.356,1.914-14.073,2.4c2.162-2.627,3.308-6.084,4.287-9.739
		c5.202,0.584,10.517,0.093,15.501-1.427c0.758-0.23,1.514-0.486,2.27-0.742c1.922-0.651,3.755-1.271,5.631-1.497
		c0.157,0.501,0.47,0.944,0.719,1.296c0.228,0.323,0.54,0.766,0.513,0.967c-0.021,0.143-0.285,0.425-0.386,0.532
		c-0.842,0.898-1.77,1.738-2.774,2.524c-0.954,0.837-0.033,2.135,0.648,2.006c1.308-0.971,2.513-2.019,3.584-3.162
		c0.008-0.009,0.02-0.023,0.029-0.032c0.285-0.303,0.775-0.842,0.879-1.594c0.069-0.499-0.04-0.946-0.221-1.348
		c-0.018-0.041-0.04-0.079-0.059-0.119c-0.17-0.341-0.383-0.65-0.579-0.927C213.847,91.393,213.573,91.006,213.553,90.912z"/>
	<path fill="#FFE78D" d="M204.956,102.122c0.321,0.384,0.357,0.942,0.089,1.368c-0.267,0.424-0.685,0.035-1.15-0.112
		c-0.421-0.133-1.291-0.102-1.75-0.102c-1.908,0-3.472,1.654-4.278,3.331c-0.207,0.43-0.424,1.056-0.29,1.6
		c0.186,0.764,1.097,1.164,1.901,1.164c0.261,0,0.51-0.039,0.738-0.117c1.295-0.441,2.502,0.073,3.31-1.119
		c0.182-0.27,0.655-1.295,0.972-1.33c0.325-0.037,0.237-0.869,0.471-0.645c2.453,2.349,4.991,3.911,6.965,4.286
		c0.403,0.077-0.961,0.402-0.839,0.808c0.12,0.407-0.526,1.358-0.818,1.657c-0.778,0.794,0.959,1.357,0.851,2.483
		c1.036,0.453,2.39,0.3,3.259-0.384c1.051-0.829,1.522-2.429,1.095-3.725c-0.173-0.526,0.044-1.104,0.514-1.37
		c0.471-0.265,1.059-0.143,1.391,0.292c0.446,0.583,1.194,0.917,2.05,0.917c1.01,0,1.929-0.462,2.398-1.207
		c0.437-0.692,0.527-1.617,0.25-2.541c-0.289-0.96-0.609-1.976-1.392-2.308c-0.335-0.143-1.084-0.665-1.467-0.665
		c-1.461,0-3.333-0.146-3.784,1.211c-0.108,0.326-0.237,0.512-0.55,0.63c-0.312,0.116-1.013,0.076-1.297-0.102l-4.852-2.557
		c-0.465-0.291-0.615-0.605-0.409-1.125c0.489-1.236,0.898-2.842,0.92-4.099c0.018-0.98-1.461-1.86-2.335-2.33
		c-1.033-0.557-2.686,0.354-3.111,1.618C203.358,98.989,203.809,100.746,204.956,102.122z"/>
	<path fill="#4C331B" d="M274.417,114.463c-2.282-2.804-5.979-4.546-9.647-4.546c-2.343,0-4.429,0.703-6.074,2.041
		c-5.107-2.164-10.613-3.179-15.944-4.161c-3.115-0.573-6.335-1.167-9.416-1.981c-4.487-1.186-14.815-4.759-18.687-13.146
		c0.182,0.402-1.304,0.379-1.304,0.908c-0.001,0.759,0.25,1.688,0.646,2.034c3.495,5.518,10.108,9.831,18.833,12.138
		c3.155,0.834,6.414,1.435,9.564,2.015c5.423,0.999,11.029,2.032,16.084,4.277c0.37,0.162,0.801,0.09,1.094-0.188
		c1.688-1.6,3.762-1.936,5.204-1.936c3.035,0,6.214,1.495,8.097,3.808c3.945,4.848,3.412,11.549,2.744,15.111
		c-0.518,2.755-1.39,4.424-2.747,5.251c-0.377,0.23-0.848,0.352-1.36,0.352c-1.148,0-2.391-0.646-2.397-1.691
		c0-0.065-0.026-0.122-0.038-0.183l0.08-0.252c0.669-2.097,1.247-3.907,1.028-6.466c-0.275-3.218-1.567-6.028-3.637-7.915
		c-0.409-0.372-1.04-0.341-1.413,0.065c-0.372,0.408-0.343,1.041,0.065,1.413c1.673,1.523,2.763,3.932,2.992,6.606
		c0.184,2.161-0.288,3.641-0.941,5.688l-0.312,0.986c-0.076,0.245-0.044,0.494,0.055,0.71c-0.323,1.077-1.303,1.986-2.416,2.123
		c-1.046,0.122-2.162-0.43-2.771-1.323c-0.057-0.224-0.144-0.438-0.248-0.644c1.86-5.868,1.611-10.824-0.83-15.994
		c-0.235-0.499-0.832-0.715-1.331-0.478c-0.5,0.236-0.713,0.832-0.478,1.331c2.298,4.866,2.48,9.339,0.609,14.955
		c-0.011,0.033-0.005,0.066-0.012,0.099c-0.016,0.074-0.027,0.148-0.027,0.221c0,0.055,0.006,0.107,0.015,0.161
		c0.006,0.034,0,0.068,0.009,0.102c0.091,0.331,0.222,0.655,0.39,0.964c0.031,0.458-0.17,0.99-0.555,1.453
		c-0.577,0.696-1.431,1.063-2.141,0.887c-0.724-0.182-1.336-0.72-1.723-1.516c-0.357-0.734-0.468-1.579-0.338-2.352
		c0.005-0.014,0.015-0.024,0.019-0.038c0.013-0.041,0.01-0.088,0.019-0.131c0.019-0.091,0.042-0.18,0.041-0.277
		c0.049-0.084,0.088-0.175,0.126-0.267c0.045-0.108,0.071-0.224,0.089-0.345c0.007-0.047,0.023-0.09,0.024-0.139
		c0-0.008,0.004-0.014,0.004-0.022v-0.101c0.001-4.384,0.002-8.524-1.777-12.589c-0.221-0.504-0.808-0.736-1.317-0.515
		c-0.506,0.222-0.736,0.812-0.515,1.317c1.576,3.599,1.609,7.444,1.609,11.511c-0.563,0.658-1.453,1.058-2.465,1.058
		c-0.913,0-1.739-0.342-2.289-0.905c-0.07-0.672-0.105-1.428-0.135-2.243c-0.063-1.729-0.128-3.517-0.591-4.942
		c-1.374-4.226-3.33-7.046-5.98-8.62c-2.523-1.5-5.666-1.77-8.403-0.719c-1.095,0.418-2.094,1.025-3.06,1.613
		c-1.464,0.891-2.847,1.732-4.358,1.795c-0.968,0.045-1.984-0.254-3.047-0.564l-0.622-0.181c-5.655-1.594-11.513-1.423-18.026-1.057
		c-1.537,0.086-3.076,0.176-4.616,0.266c-5.015,0.293-10.093,0.589-15.187,0.742c4.283-3.432,7.062-8.715,7.428-14.192
		c-0.319-0.746-1.624-0.916-2.023,0.316c-0.524,5.638-3.881,10.994-8.822,13.795c-0.075,0.042-0.128,0.105-0.187,0.162
		c-7.621,0.116-15.251-0.164-22.736-1.336c-3.232-0.507-6.501-1.189-9.663-1.85l-0.038-0.008c-0.538-0.116-1.051,0.236-1.165,0.778
		c-0.113,0.54,0.253,1.074,0.793,1.187c3.186,0.666,6.48,1.354,9.762,1.869c13.882,2.174,28.153,1.338,41.953,0.532
		c1.538-0.09,3.075-0.18,4.61-0.266c6.335-0.353,12.016-0.522,17.373,0.986l0.601,0.174c1.172,0.343,2.396,0.699,3.693,0.644
		c2.027-0.084,3.699-1.101,5.315-2.084c0.931-0.566,1.809-1.101,2.734-1.455c2.142-0.82,4.695-0.602,6.667,0.57
		c2.215,1.316,3.883,3.776,5.1,7.52c0.377,1.159,0.437,2.806,0.494,4.397c0.035,0.95,0.071,1.844,0.169,2.649
		c0.028,1.562-0.64,3.12-1.883,4.39c-1.745,1.781-4.325,2.62-6.498,2.159c0.59-1.307,1.026-2.772,1.266-4.311
		c0.215-1.381,0.437-2.809,0.393-4.274c-0.083-2.651-1.055-5.24-2.737-7.291c-0.351-0.426-0.979-0.489-1.408-0.139
		c-0.427,0.351-0.488,0.98-0.139,1.408c1.405,1.711,2.216,3.871,2.284,6.083c0.04,1.28-0.168,2.615-0.369,3.905
		c-0.272,1.746-0.816,3.381-1.574,4.727c-0.031,0.056-0.037,0.116-0.057,0.175c-0.014,0.04-0.043,0.072-0.052,0.113
		c-0.217,1.052-1.381,1.901-2.478,1.732c-0.802-0.119-1.546-0.813-1.79-1.646c0.031-0.304-0.003-0.608-0.074-0.91
		c0.615-3.872,0.031-8.645-1.598-12.548c-0.213-0.511-0.8-0.75-1.308-0.538c-0.51,0.213-0.751,0.798-0.538,1.308
		c1.656,3.969,2.151,8.902,1.263,12.568c-0.038,0.156-0.027,0.309,0.007,0.456c-0.488,0.575-1.57,0.964-2.309,0.705
		c-1.479-0.523-2.431-2.155-3.279-3.781c-0.086-0.165-0.221-0.283-0.37-0.375l-0.708-3.572c-0.106-0.542-0.635-0.899-1.175-0.786
		c-0.542,0.107-0.894,0.633-0.786,1.175l0.753,3.797c0.05,0.252,0.193,0.458,0.384,0.601c-0.105,0.082-0.436,0.223-1.082,0.223
		c-0.662,0-1.42-0.153-1.978-0.402c-4.599-2.046-9.736-3.041-15.705-3.041c-6.617,0-13.27,1.285-17.698,2.252
		c-1.779,0.389-3.562,0.801-5.347,1.213c-7.43,1.719-15.112,3.496-22.682,3.496c-1.558,0-3.091-0.075-4.558-0.226
		c-3.768-0.384-8.792-1.614-11.333-5.298c-2.084-3.02-2.156-6.938-2.037-11.376c0.01-0.376-0.192-0.727-0.523-0.906
		c-0.332-0.178-0.736-0.157-1.045,0.058c-1.506,1.042-3.308,1.686-5.136,1.853c-2.77-5.638-6.7-9.407-11.18-10.676
		c-5.206-1.478-10.365,0.354-16.086,2.71l-3.537,1.463c1.693-2.436,3.116-5.106,4.211-7.961c1.555-4.052,2.566-8.748,3.092-14.359
		c0.292-3.106,0.476-6.76-0.369-10.298c-1.205-5.049-4.575-9.414-8.919-11.888c1.182,0.107,2.358,0.223,3.526,0.338
		c2.789,0.276,5.673,0.562,8.527,0.704c1.192,0.06,2.359,0.09,3.468,0.09c7.953,0,14.234-1.535,19.201-4.694l0.332-0.212
		c0.506-0.325,1.019-0.656,1.531-0.892c0.632,1.472,1.176,2.909,1.387,4.424c0.515,3.699-0.98,7.233-2.564,10.974
		c-1.398,3.306-2.845,6.724-2.876,10.383c-0.05,5.946,4.025,11.999,10.142,15.063c3.643,1.824,8.029,2.749,13.036,2.749
		c1.624,0,3.353-0.097,5.138-0.288c8.142-0.873,14.602-3.376,19.2-7.44c0.204-0.181,0.39-0.376,0.587-0.563
		c-0.193-0.112,0.92-0.31,0.836-0.529c-0.161-0.42,1.069-1.25,1.432-1.517c3.156-2.321,2.971-5.69,4.142-10.056
		c0.076-0.281,0.363-0.433,0.436-0.717c0.128-0.49,0.222-0.493,0.723-0.426c1.725,0.235,4.142,0.563,4.612-0.41
		c-2.714-0.097-5.397-0.449-7.991-1.084c-0.312-0.076-1.263-0.309-1.419-0.75c-0.114-0.318,0.142-0.91,0.312-1.302
		c7.885-18.215,8.443-40.931,1.552-61.038c5.447,0.02,11.329,2.986,15.025,5.763c3.944,2.962,7.51,7.177,10.898,12.886
		c7.148,12.039,9.653,24.457,7.054,34.967c-0.313,1.263-0.716,2.564-1.539,3.535c-0.585,0.689-1.381,1.218-2.396,1.798
		c-0.819,0.468-1.657,0.9-2.507,1.308c0.268-0.025-0.469,0.809-0.197,0.8c0.35-0.038,0.427-0.027,0.614,0.29
		c0.166,0.283,0.39,0.115,0.256,0.409c-0.016,0.034,0.565,0.411,0.545,0.443c0.021,0.094,0.229,0.485,0.392,0.716
		c0.195,0.277,0.682,1.21,1.126,0.439c-0.252-0.558-0.476-1.136-0.668-1.737c-0.016-0.05-0.03-0.101-0.045-0.152
		c0.494-0.256,0.993-0.504,1.477-0.78c0.966-0.552,2.068-1.227,2.929-2.24c1.093-1.288,1.602-2.921,1.955-4.349
		c2.727-11.023,0.143-23.975-7.275-36.469c-3.524-5.938-7.26-10.341-11.417-13.464c-5.138-3.859-11.224-6.163-16.281-6.163
		c-0.449,0-0.892,0.021-1.333,0.058c-4.934-0.024-9.791-1.356-14.048-3.85c-1.005-0.59-2.017-1.266-2.996-1.92
		c-2.788-1.862-5.67-3.788-9.112-4.271c-0.237-0.033-0.485-0.05-0.736-0.05c-1.104,0-2.593,0.348-3.465,1.326
		c-0.509,0.571-0.732,1.269-0.646,2.018c0.16,1.385,1.374,2.239,2.027,2.699l0.629,0.441c-0.84-0.069-1.694-0.041-2.48,0.1
		c-1.201,0.214-2.398,0.788-3.353,1.614c-0.16-1.109-0.496-2.234-0.881-3.336c-1.721-4.933-3.698-9.84-5.875-14.588
		c-1.324-2.886-3-6.079-6.156-7.438c-2.467-1.061-5.677-0.702-8.265,0.879c-2.046,1.251-3.83,3.206-5.454,5.978
		c-1.894,3.232-3.162,6.768-4.389,10.187c-4.016,11.195-8.168,22.771-9.145,34.926c-0.046,0.566-0.122,1.514,0.388,2.323
		c0.595,0.941,1.686,1.241,2.338,1.421c3.636,0.995,7.756,2.123,11.894,2.124h0c1.303,0,2.566-0.115,3.753-0.342
		c1.938-0.368,3.21-1.11,3.889-2.268c0.494-0.844,0.587-1.813,0.654-2.521c0.702-7.358,0.842-14.819,0.418-22.209
		c3.233,2.083,5.831,5.074,7.443,8.58c-1.305,1.079-2.472,2.376-3.404,3.863c-2.428,3.876-3.571,8.874-3.494,15.278
		c0.043,3.588,0.442,6.404,1.255,8.862c0.32,0.967,0.717,1.901,1.118,2.818c-0.651,0.295-1.256,0.678-1.818,1.04l-0.322,0.206
		c-4.637,2.948-10.567,4.382-18.128,4.382c-1.075,0-2.208-0.029-3.368-0.088c-2.805-0.14-5.665-0.423-8.43-0.696
		c-4.734-0.468-9.635-0.949-14.495-0.751c-11.261,0.465-21.634,4.753-28.924,11.746c-4.909-5.365-7.832-10.501-8.886-15.676
		c-1.881-9.229,2.128-19.843,10.725-28.393l0.625-0.617c2.467-2.429,5.263-5.181,5.534-8.885c0.074-1.015-0.167-1.792-0.719-2.312
		c-0.587-0.551-1.348-0.638-1.868-0.655l-0.26-0.005c-1.828,0-3.543,0.65-4.98,1.287c-9.668,4.283-17.997,12.975-23.451,24.473
		c-3.482,7.341-7.165,18.675-4.933,30.98c0.516,2.843,1.358,5.588,2.475,8.178l1.387,1.597c0.033-0.023,0.767,0.767,1.534,0.051
		c0.085-0.079-0.568-1.043-0.461-1.071c-1.369-2.842-2.386-5.911-2.966-9.112c-2.137-11.782,1.416-22.69,4.771-29.766
		c5.25-11.065,13.224-19.412,22.454-23.502c1.246-0.552,2.715-1.115,4.17-1.115l0.192,0.003c0.438,0.016,0.549,0.1,0.565,0.114
		c0.006,0.005,0.136,0.135,0.094,0.709c-0.216,2.952-2.619,5.317-4.942,7.604l-0.632,0.625c-9.075,9.026-13.29,20.32-11.274,30.21
		c1.125,5.518,4.166,10.941,9.289,16.558c-3.877,4.304-6.643,9.584-8.05,15.202c0.193,0.073-0.652,0.74-0.473,0.892
		c0.297,0.252,1.041,1.162,1.147,1.367c0.257,0.496,0.303,0.746,0.304,1.151c0,0.047,0.517-0.876,0.513-0.83
		c0.016,0.005,0.033,0.009,0.049,0.014c0.187-1.108,0.435-2.211,0.743-3.303c0.021-0.072,0.043-0.143,0.065-0.215
		c0.206-0.711,0.444-1.414,0.701-2.113c0.132-0.358,0.263-0.717,0.407-1.071c0.18-0.439,0.374-0.875,0.575-1.307
		c0.047-0.104,0.095-0.207,0.144-0.31c0.738-1.542,1.608-3.036,2.614-4.456c5.687-8.026,15.061-13.539,25.784-15.393
		c-2.151,1.305-3.982,3.095-5.252,5.27c-0.278,0.477-0.117,1.089,0.36,1.367c0.475,0.278,1.089,0.117,1.368-0.359
		c2.901-4.972,9.491-7.705,15.331-6.349c5.695,1.318,10.477,6.21,11.899,12.171c0.776,3.254,0.599,6.702,0.323,9.646
		c-0.509,5.428-1.48,9.951-2.968,13.83c-2.866,7.471-8.06,13.624-14.625,17.327c-6.813,3.844-15.12,4.817-22.223,2.605
		c-0.528-0.163-1.088,0.13-1.252,0.658c-0.165,0.527,0.13,1.088,0.657,1.252c2.698,0.84,5.557,1.252,8.447,1.252
		c2.068,0,4.152-0.219,6.205-0.636c0.098,0.278,0.303,0.514,0.603,0.617l0.409,0.139c5.491,1.864,10.653,3.897,13.473,8.247
		c1.573,2.427,1.79,6.045,0.526,8.799c-0.896,1.953-2.396,3.167-4.226,3.416c-1.29,0.181-2.774-0.652-3.03-1.537
		c0.562-1.822,1.049-3.762,1.048-5.773c-0.001-2.543-0.813-4.804-2.288-6.367c-0.379-0.4-1.012-0.418-1.414-0.041
		c-0.402,0.379-0.42,1.012-0.042,1.414c1.123,1.19,1.742,2.964,1.743,4.994c0,1.377-0.276,2.758-0.642,4.097
		c-0.115,0.105-0.215,0.228-0.272,0.383c-0.115,0.313-0.177,0.635-0.186,0.957c-0.515,1.653-2.524,2.901-4.176,2.515
		c-1.589-0.372-2.804-2.193-2.648-3.896c0.867-2.212,1.105-4.712,0.669-7.046c-0.247-1.321-0.667-2.278-1.321-3.011
		c-0.368-0.413-1-0.447-1.412-0.08c-0.412,0.368-0.447,1.001-0.079,1.412c0.4,0.448,0.669,1.099,0.847,2.046
		c0.298,1.594,0.206,3.275-0.221,4.849c-0.044,0.061-0.092,0.117-0.122,0.189c-0.129,0.311-0.227,0.637-0.29,0.973
		c-0.362,0.656-1.099,1.122-1.799,1.122l-0.104-0.004c-0.995-0.064-1.905-1.066-1.873-2.062c0.013-0.413,0.156-0.862,0.307-1.338
		c0.139-0.437,0.282-0.889,0.355-1.387c0.43-2.905-1.841-5.489-4.307-6.541c-1.964-0.838-4.065-0.979-6.096-1.113
		c-0.405-0.027-0.809-0.054-1.209-0.087c-4.053-0.328-8.017-1.27-11.782-2.796c-2.75-1.115-4.245-2.424-4.568-4.001
		c-0.378-1.842,1.031-3.695,2.619-4.574c1.677-0.93,3.749-1.181,5.66-1.349c0.684,0.658,1.434,1.251,2.241,1.734
		c0.161,0.096,0.338,0.142,0.513,0.142c0.34,0,0.672-0.174,0.859-0.486c0.284-0.474,0.129-1.088-0.344-1.372
		c-0.638-0.382-1.234-0.844-1.782-1.358c-0.034-0.112-0.081-0.22-0.154-0.316c-3.606-4.721-5.332-10.725-5.209-16.858l-0.138-1.074
		c-0.014,0.322-2.752,2.075-3.06,2.032c0.399,0.226,0.805,0.435,1.213,0.641c0.162,5.29,1.638,10.424,4.416,14.756
		c-0.017,0.099-0.008,0.198,0.005,0.298c-1.744,0.202-3.556,0.557-5.188,1.462c-2.158,1.195-4.208,3.81-3.608,6.727
		c0.468,2.282,2.357,4.065,5.776,5.452c3.954,1.603,8.116,2.591,12.372,2.937c0.411,0.033,0.824,0.061,1.238,0.088
		c1.951,0.13,3.793,0.253,5.445,0.958c1.717,0.732,3.392,2.525,3.113,4.408c-0.05,0.34-0.164,0.697-0.284,1.075
		c-0.176,0.557-0.377,1.188-0.399,1.879c-0.065,2.062,1.684,3.987,3.742,4.121c0.763,0.047,1.52-0.146,2.181-0.523
		c0.563,1.888,2.073,3.477,3.977,3.921c0.363,0.085,0.74,0.128,1.119,0.128c1.747,0,3.428-0.89,4.496-2.248
		c1.083,1.117,2.858,1.718,4.369,1.513c2.532-0.347,4.582-1.968,5.773-4.565c1.557-3.396,1.29-7.703-0.666-10.72
		c-1.396-2.152-3.291-3.797-5.454-5.126c3.946,0.368,7.991,0.199,11.887-0.507c-0.372,1.11-0.48,2.321-0.281,3.454
		c0.27,1.535,1.08,2.795,2.28,3.547c1.568,0.983,3.683,0.604,5.123-0.867c0.031-0.032,0.061-0.063,0.09-0.095
		c0.86,0.921,2.149,1.427,3.653,1.427c1.921,0,3.846-0.797,5.087-2.016c0.783,0.746,1.952,1.23,3.18,1.23
		c3.452,0,6.759-1.974,8.845-5.28c1.819-2.883,2.334-6.166,1.469-9.036c1.34-0.189,2.657-0.595,3.874-1.191
		c-0.038,3.433,0.207,7.557,2.428,10.775c2.389,3.461,6.688,5.53,12.776,6.151c1.534,0.156,3.136,0.235,4.761,0.235
		c7.798,0,15.594-1.803,23.133-3.547c1.777-0.411,3.551-0.821,5.323-1.209c4.337-0.946,10.848-2.205,17.271-2.205
		c5.684,0,10.555,0.938,14.893,2.869c0.821,0.365,1.838,0.574,2.79,0.574c0.871,0,1.593-0.174,2.126-0.51
		c0.854,1.366,1.908,2.561,3.47,3.113c1.356,0.482,3.051,0.058,4.092-0.855c0.657,0.821,1.596,1.399,2.629,1.554
		c1.747,0.255,3.519-0.739,4.336-2.238c2.888,0.814,6.435-0.259,8.755-2.628c1.13-1.153,1.895-2.506,2.243-3.931
		c0.731,0.368,1.573,0.566,2.465,0.566c0.001,0,0.001,0,0.001,0c0.745,0,1.461-0.14,2.107-0.399
		c0.055,0.745,0.247,1.487,0.575,2.162c0.65,1.338,1.729,2.255,3.037,2.581c1.442,0.362,3.094-0.262,4.163-1.547
		c0.256-0.309,0.467-0.637,0.628-0.975c0.969,0.651,2.144,0.976,3.306,0.833c1.417-0.174,2.689-1.04,3.475-2.221
		c1.486,1.303,4.01,1.491,5.618,0.508c2.464-1.502,3.274-4.48,3.67-6.589C278.308,127.302,278.872,119.936,274.417,114.463z
		 M132.266,27.805c-0.212-0.109-0.451-0.132-0.677-0.082c-0.15-0.24-0.3-0.612-0.359-1.101c-0.385-3.169,0.051-6.405,1.26-9.358
		c0.209-0.511-0.035-1.095-0.546-1.305c-0.512-0.209-1.095,0.037-1.304,0.547c-1.338,3.269-1.82,6.85-1.395,10.357
		c0.17,1.395,0.779,2.432,1.621,2.886c0.48,7.57,0.366,15.224-0.354,22.768c-0.067,0.701-0.138,1.271-0.389,1.699
		c-0.369,0.63-1.199,1.061-2.538,1.314c-1.079,0.206-2.185,0.307-3.379,0.307h0c-3.869-0.001-7.852-1.091-11.365-2.053
		c-0.504-0.139-1.01-0.296-1.176-0.559c-0.143-0.227-0.121-0.666-0.086-1.097c0.956-11.891,5.063-23.339,9.035-34.41
		c1.196-3.333,2.432-6.779,4.231-9.852c1.453-2.479,3.013-4.207,4.771-5.281c1.273-0.778,2.733-1.207,4.111-1.207
		c0.833,0,1.613,0.154,2.321,0.459c2.504,1.077,3.96,3.886,5.128,6.434c2.151,4.69,4.104,9.54,5.805,14.413
		c0.741,2.122,1.303,4.309,0.399,5.924c-0.155,0.277-0.169,0.61-0.039,0.9c0.13,0.289,0.391,0.499,0.701,0.565
		c1.041,0.225,2.054,0.535,3.032,0.932l-5.838,0.35c-0.309,0.019-0.592,0.179-0.766,0.435s-0.221,0.578-0.125,0.873
		c0.475,1.461,1.335,2.781,2.461,3.817l-4.869,1.229C139.855,33.485,136.448,29.988,132.266,27.805z M136.153,60.552
		c0.009-0.168-0.646-0.481-0.631-0.647c-0.028-0.551-0.049-1.115-0.056-1.71c-0.072-6.01,0.971-10.652,3.188-14.192
		c1.196-1.909,2.813-3.478,4.617-4.568l6.119-1.544c0.101-0.026,0.196-0.067,0.281-0.12c0.277,0.021,0.552,0.052,0.824,0.098
		c0.479,0.075,0.949-0.197,1.111-0.655c0.161-0.46-0.033-0.969-0.458-1.205l-3.542-1.965c-0.129-0.071-0.397-0.221-0.439-0.29
		c-0.012-0.064,0.079-0.29,0.27-0.405c0.103-0.063,0.226-0.108,0.357-0.143l2.797-0.168l5.742-0.17
		c0.494-0.015,0.903-0.389,0.963-0.879c0.06-0.49-0.248-0.951-0.724-1.084l-2.583-0.722c-1.287-0.707-2.643-1.264-4.052-1.679
		c0.467-1.396,2.006-2.518,3.516-2.788c0.396-0.07,0.814-0.106,1.245-0.106c1.864,0,3.801,0.659,5.509,1.24
		c0.47,0.161,0.989-0.048,1.213-0.493c0.226-0.443,0.091-0.985-0.316-1.271l-5-3.515c-0.548-0.387-1.138-0.837-1.191-1.292
		c-0.021-0.179,0.025-0.315,0.152-0.458c0.411-0.462,1.514-0.753,2.43-0.627c2.99,0.42,5.559,2.137,8.28,3.954
		c1.002,0.67,2.04,1.363,3.095,1.981c4.354,2.552,9.294,3.965,14.331,4.109c6.957,19.798,6.501,42.248-1.27,60.201
		c-0.294,0.681-0.74,1.708-0.36,2.77c0.519,1.454,2.196,1.865,2.828,2.021c0.618,0.151,1.244,0.275,1.871,0.398
		c-1.72,4.486-4.024,8.394-7.496,11.464c-4.282,3.784-10.368,6.122-18.089,6.95c-6.899,0.737-12.59-0.021-17.065-2.262
		c-5.45-2.729-9.082-8.057-9.038-13.256c0.027-3.263,1.334-6.351,2.718-9.62c1.62-3.827,3.294-7.783,2.703-12.029
		c-0.303-2.181-1.184-4.171-2.035-6.096c-0.48-1.086-0.977-2.21-1.347-3.327c-0.106-0.321-0.203-0.652-0.294-0.989
		c-0.15-0.322,0.626-0.61,0.517-0.949C136.457,63.315,136.073,62.057,136.153,60.552z M130.47,137.296
		c-1.718,2.723-4.392,4.348-7.153,4.348c-0.912,0-1.731-0.461-2.03-0.947c0.182-0.487,0.265-0.992,0.249-1.505
		c0.454-1.756,0.564-3.148,0.579-4.946c0.021-2.59-0.502-5.213-0.923-7.32c-0.108-0.542-0.633-0.897-1.176-0.785
		c-0.542,0.107-0.893,0.635-0.785,1.176c0.512,2.566,0.902,4.704,0.884,6.914c-0.014,1.757-0.119,3.029-0.586,4.731
		c-0.263,0.487-0.39,0.997-0.358,1.507c-0.735,1.118-2.475,1.961-4.12,1.961c-0.516,0-1.429-0.093-2.069-0.672l-0.29-1.991
		c-0.007-0.165-0.047-0.323-0.075-0.484c1.126-4.175,1.621-6.156,0.292-10.666c-0.156-0.529-0.713-0.836-1.242-0.676
		c-0.53,0.156-0.833,0.712-0.676,1.242c1.19,4.037,0.769,5.598-0.355,9.768c-0.001,0.004,0,0.008-0.001,0.012
		c-0.025,0.099-0.024,0.197-0.019,0.294c0.001,0.031-0.009,0.064-0.004,0.094c0,0.002,0,0.003,0,0.005l0.084,0.574
		c-0.005,0.591-0.308,1.248-0.817,1.768c-0.79,0.809-1.836,1.07-2.632,0.571c-0.915-0.573-1.25-1.512-1.372-2.198
		c-0.233-1.322,0.144-2.853,0.96-3.898c0.009-0.012,0.012-0.026,0.021-0.038c0.027-0.038,0.046-0.08,0.068-0.122
		c0.029-0.055,0.056-0.111,0.074-0.173c0.005-0.018,0.017-0.031,0.021-0.05c0.463-1.933,0.5-3.766,0.117-5.767
		c-0.104-0.541-0.622-0.894-1.17-0.794c-0.542,0.104-0.898,0.628-0.794,1.171c0.287,1.498,0.282,2.885,0.016,4.311
		c-2.868,0.621-5.818,0.948-8.786,0.948c-4.06,0-8.055-0.584-11.893-1.724c2.155-0.656,4.253-1.53,6.228-2.644
		c3.297-1.86,6.261-4.304,8.796-7.193l6.802-2.812c5.371-2.212,10.188-3.937,14.779-2.636c5.32,1.507,8.564,6.707,10.184,10.159
		c0.009,0.022,0.012,0.045,0.022,0.067C132.522,131.399,132.205,134.547,130.47,137.296z"/>
	<path fill="#4C331B" d="M222.966,106.436c-0.438-1.404-1.448-2.551-2.705-3.065c-0.546-0.223-1.131-0.336-1.74-0.336
		c-1.755,0-3.444,0.94-4.392,2.35l-4.479-2.707c0.385-0.99,0.731-2.074,0.754-3.231c0.004-0.216-0.006-0.43-0.027-0.64
		c-0.074-0.736-0.303-1.419-0.648-2.006c-0.377-0.64-0.89-1.165-1.518-1.492c-0.49-0.254-1.025-0.383-1.593-0.383
		c-1.755,0-3.455,1.229-4.043,2.922c-0.048,0.139-0.065,0.287-0.1,0.431c-0.282-0.351-0.601-0.695-0.963-1.03
		c-0.569-0.526-1.46-1.258-2.609-1.519c-0.761-0.175-1.508-0.1-2.112,0.214c-0.812,0.422-1.32,1.277-1.266,2.129
		c0.08,1.29,1.258,1.981,1.76,2.276c1.026,0.602,1.948,1.092,2.816,1.492c0.325,0.15,0.638,0.276,0.951,0.401
		c-1.299,0.451-2.447,1.286-3.239,2.372c-0.198,0.271-0.381,0.553-0.53,0.854c-0.484,0.975-0.627,1.938-0.412,2.784
		c0.377,1.489,1.884,2.529,3.665,2.529c0.449,0,0.885-0.068,1.294-0.202c1.341-0.441,2.349-1.392,3.163-2.408
		c1.703,1.446,3.412,2.505,4.982,3.094c-0.603,1.026-0.921,2.225-0.881,3.409c0.011,0.319,0.173,0.613,0.436,0.793
		c0.798,0.543,1.753,0.83,2.764,0.83c1.096,0,2.157-0.348,2.987-0.98c1.022-0.778,1.681-1.975,1.869-3.236
		c0.47,0.155,0.978,0.237,1.505,0.237c1.585,0,3.062-0.753,3.853-1.965C223.228,109.243,223.396,107.816,222.966,106.436z
		 M198.297,98.623c-0.707-0.415-0.773-0.623-0.776-0.679c-0.002-0.035,0.062-0.159,0.19-0.227c0.104-0.054,0.24-0.081,0.396-0.081
		c0.111,0,0.23,0.014,0.353,0.041c0.519,0.118,1.058,0.448,1.695,1.038c0.429,0.396,0.904,0.916,1.25,1.516
		C200.464,99.827,199.455,99.303,198.297,98.623z M220.83,109.258c-0.426,0.653-1.26,1.059-2.177,1.059
		c-0.777,0-1.456-0.293-1.861-0.804c-0.302-0.381-0.835-0.488-1.263-0.256c-0.427,0.233-0.624,0.74-0.467,1.201
		c0.388,1.136-0.04,2.539-0.994,3.266c-0.789,0.6-2.019,0.734-2.959,0.337c0.099-0.987,0.548-1.946,1.254-2.643
		c0.266-0.262,0.363-0.649,0.254-1.006c-0.11-0.356-0.409-0.622-0.775-0.689c-1.792-0.329-4.097-1.698-6.323-3.758
		c-0.212-0.196-0.49-0.292-0.785-0.26c-0.287,0.03-0.547,0.184-0.712,0.42c-0.733,1.045-1.642,2.166-2.817,2.553
		c-0.207,0.068-0.433,0.103-0.67,0.103c-0.729,0-1.557-0.351-1.726-1.021c-0.121-0.477,0.076-1.025,0.264-1.402
		c0.731-1.47,2.452-2.497,4.185-2.497c0.417,0,0.821,0.06,1.203,0.176c0.423,0.129,0.887-0.039,1.129-0.411
		c0.243-0.373,0.21-0.862-0.081-1.199c-1.041-1.207-1.45-2.747-1.043-3.924c0.386-1.108,1.887-1.907,2.824-1.419
		c0.793,0.412,1.132,1.464,1.115,2.323c-0.021,1.103-0.48,2.224-0.925,3.308c-0.187,0.456-0.014,0.979,0.408,1.234l6.126,3.702
		c0.258,0.156,0.575,0.187,0.858,0.085c0.284-0.104,0.507-0.329,0.604-0.615c0.409-1.189,1.718-2.086,3.044-2.086
		c0.348,0,0.679,0.063,0.982,0.188c0.711,0.291,1.291,0.967,1.554,1.809C221.308,107.84,221.226,108.651,220.83,109.258z"/>
	<path fill="#B1C6CF" d="M21.812,86.872c-0.535-0.154-1.102-0.232-1.684-0.232c-1.606,0-3.083,0.593-3.951,1.587
		c-0.941,1.076-1.249,2.585-1.441,4.055c-0.337,2.57-0.402,5.182-0.192,7.767c0.129,1.575,0.385,3.381,1.307,4.83
		c0.87,1.365,2.333,2.248,3.727,2.248c0.833-0.023,1.598-0.382,2.099-0.941c0.227-0.252,0.59-0.769,0.469-1.382
		c-0.03-0.15,0.625-0.428,0.664-0.572c-0.803-1.367-1.861-2.946-1.837-4.912c0.025-1.952,0.417-3.568,1.199-4.937
		c0.951-1.665,2.446-2.228,4.206-2.729l0.011-0.726C25.476,88.952,23.765,87.436,21.812,86.872z"/>
	<path fill="#B1C6CF" d="M40.429,100.26c0.449-0.844,0.973-1.547,1.548-2.108c-1.462-0.154-14.028-5.38-16.037-5.38
		c-0.136,0.137-0.297,0.254-0.502,0.306c-1.114,0.287-2.154,1.157-2.784,2.328c-0.564,1.05-0.847,2.332-0.866,3.919
		c-0.014,1.23,0.166,2.847,0.962,4.144c1.602,0.098,3.131,0.596,4.6,1.082l0.488,0.162c4.037,1.321,8.257,2.245,12.461,3.041
		c-0.575-0.767-0.952-1.712-1.045-2.737C39.119,103.553,39.504,101.998,40.429,100.26z"/>
	<path fill="#B1C6CF" d="M44.891,97.764c-0.17,0.054-0.353,0.08-0.544,0.069c-1.918-0.081-3.385,2.151-3.783,2.835
		c-0.924,1.588-1.315,2.952-1.194,4.17c0.135,1.347,1.008,2.523,2.173,2.924c0.09,0.031,0.156,0.088,0.235,0.133
		c-0.117-0.43,1.217,0.36,1.225-0.141c0.039-2.55,0.734-5.584,3.193-6.947c0.294-0.162,0.143-0.995,0.618-1.115
		c-0.077-0.15-0.142-0.303-0.24-0.448C46.145,98.602,45.554,98.105,44.891,97.764z"/>
	<path fill="#4C331B" d="M49.511,101.833c-0.171-0.105-0.351-0.194-0.54-0.265C49.146,101.67,49.323,101.757,49.511,101.833z"/>
	<path fill="#8EA8B1" d="M10.946,89.811c-0.181-1.375-0.618-2.465-1.343-3.283c-0.748-0.846-2.007-1.414-3.132-1.414
		c-0.421,0-0.811,0.078-1.157,0.23c-0.57,0.252-1.094,0.713-1.649,1.449c-2.03,2.694-2.471,6.145-2.634,9.168
		c-0.072,1.324-0.101,2.717,0.386,3.932c0.466,1.162,1.459,2.051,2.53,2.264c0.839,0.168,1.877-0.027,2.929-0.536
		c1.784-0.867,3.134-2.368,3.703-4.061l0.367-2.905C10.34,94.549,9.588,89.683,10.946,89.811z"/>
	<path fill="#CEE1E8" d="M6.318,90.786c-0.589,0.874-1.053,1.762-0.976,2.542c0.146,1.494,2.237,2.068,3.13,2.246l4.777,0.952
		l0.349-4.484C11.204,91.323,8.762,90.903,6.318,90.786z"/>
	<path fill="#CEE1E8" d="M49.437,109.277l-0.351-2.04c-0.067-0.386-0.192-1.108,0.243-1.802c0.589-0.941,1.651-1.057,2.285-1.125
		c0.034-0.004,0.071-0.009,0.109-0.013c-0.031-0.067-0.071-0.146-0.123-0.24c-0.039-0.07-0.111-0.199-0.143-0.237
		c0.012,0.028-0.177-0.011-0.302-0.037c-0.003-0.001-0.138-0.028-0.141-0.029c-1.27-0.267-2.473-0.812-3.48-1.579l-0.323-0.253
		c-0.293-0.233-0.736-0.586-0.928-0.586c-0.032,0-0.162,0.016-0.501,0.216c-1.615,0.95-2.675,2.714-2.7,4.492
		c-0.006,0.407,0.048,1.149,0.47,1.536c0.251,0.23,0.695,0.395,1.129,0.542C46.224,108.648,47.818,109.034,49.437,109.277z"/>
	<path fill="#4C331B" d="M64.526,110.809c-3.672-2.671-7.866-4.715-12.24-5.996c-0.016-0.005-0.033-0.009-0.049-0.014
		c0.003-0.046,0.021-0.087,0.021-0.135c0-0.405-0.128-0.857-0.385-1.353c-0.106-0.205-0.267-0.516-0.563-0.768
		c-0.18-0.153-0.37-0.252-0.563-0.325c-0.211-0.08-0.425-0.129-0.631-0.173c-0.208-0.047-0.405-0.133-0.604-0.212
		c-0.188-0.075-0.366-0.163-0.54-0.265c-0.181-0.106-0.367-0.206-0.53-0.338l-0.198-0.168c-0.095-0.081-0.202-0.169-0.312-0.256
		c-0.101-0.673-0.332-1.339-0.695-1.958c-0.75-1.275-1.947-2.175-3.284-2.468c-0.62-0.136-1.216-0.149-1.793-0.162
		c-0.241-0.006-0.482-0.011-0.722-0.026c-1.05-0.068-2.097-0.359-3.129-0.71c-0.023-0.137-0.069-0.272-0.152-0.396
		c-0.244-0.361-0.68-0.502-1.079-0.398c-0.107,0.028-0.213,0.063-0.309,0.128c-0.033,0.023-0.062,0.051-0.095,0.075l-2.056-0.78
		l-6.768-2.567c-0.167-0.063-0.376-0.143-0.456-0.215c-0.094-0.086-0.193-0.327-0.28-0.54l-0.047-0.114
		c-0.986-2.362-2.877-4.189-5.059-4.886c-0.644-0.206-1.322-0.311-2.015-0.311c-1.948,0-3.768,0.833-4.869,2.229
		c-0.726,0.919-1.113,1.987-1.35,3.083c-0.643-0.142-1.29-0.267-1.94-0.374c-0.138-1.852-0.611-3.342-1.48-4.484
		c-1.394-1.831-4.01-2.604-5.87-1.648c-0.772,0.396-1.427,1.036-2.06,2.014c-1.853,2.857-2.247,6.335-2.387,9.359
		c-0.065,1.402-0.087,2.892,0.41,4.334c0.594,1.722,1.906,3.01,3.425,3.362c0.303,0.069,0.62,0.105,0.942,0.105c0,0,0,0,0,0
		c0.895,0,1.859-0.277,2.791-0.802c1.968-1.112,3.422-3.09,3.941-5.287l1.363,0.352c0.084,0.022,0.168,0.032,0.25,0.032
		c0.029,0,0.055-0.011,0.083-0.014c0.012,0.764,0.038,1.527,0.094,2.287c0.124,1.682,0.381,3.629,1.352,5.316
		c1.093,1.901,2.95,3.083,4.846,3.083l0.149-0.003c1.192-0.038,2.373-0.64,3.157-1.607c0.338-0.418,0.575-0.875,0.714-1.347
		c0.167-0.036,0.329-0.1,0.464-0.224c0.02-0.018,0.027-0.042,0.045-0.061c0.975,0.151,1.959,0.48,2.986,0.834l0.445,0.152
		c5.314,1.811,10.895,2.837,16.293,3.829c0.305,0.058,0.623,0.075,0.912-0.003c0.265-0.073,0.497-0.217,0.678-0.412
		c0.766,0.301,1.584,0.489,2.413,0.564c0.291,0.053,0.582,0.102,0.875,0.143c0.328,0.046,0.657,0.092,0.987,0.121
		c0.03,0.003,0.06,0.004,0.09,0.004c0.276,0,0.541-0.114,0.731-0.317c0.075-0.08,0.115-0.18,0.16-0.277
		c0.165-0.134,0.292-0.314,0.345-0.529l0.071-0.288l0.677,0.273l0.138,0.056l4.092,1.648c1.917,0.772,4.304,1.733,6.743,1.733
		c0.477,0,0.947-0.037,1.4-0.109c0.399-0.064,0.72-0.361,0.814-0.755C65.005,111.457,64.853,111.046,64.526,110.809z M45.512,99.861
		c0.069,0.117,0.116,0.241,0.17,0.362c-0.337,0.097-0.625,0.251-0.834,0.382c-1.745,1.103-2.845,3.069-2.872,5.132
		c-0.005,0.405,0.05,0.774,0.133,1.122c-0.056-0.036-0.102-0.082-0.167-0.107c-0.827-0.324-1.446-1.275-1.542-2.365
		c-0.086-0.985,0.191-2.089,0.847-3.373c0.282-0.553,1.323-2.358,2.684-2.293c0.135,0.009,0.266-0.012,0.386-0.055
		C44.788,98.941,45.208,99.343,45.512,99.861z M13.266,92.713l-0.3,2.812l-4.111-0.597c-0.768-0.111-2.568-0.472-2.694-1.408
		c-0.066-0.489,0.333-1.046,0.84-1.594C9.105,91.999,11.207,92.263,13.266,92.713z M6.619,100.914
		c-0.825,0.465-1.64,0.643-2.299,0.489c-0.841-0.194-1.62-1.005-1.986-2.065c-0.382-1.108-0.359-2.38-0.303-3.588
		c0.128-2.758,0.474-5.907,2.067-8.365c0.436-0.672,0.847-1.093,1.294-1.322c0.272-0.139,0.578-0.21,0.908-0.21
		c0.883,0,1.871,0.519,2.458,1.29c0.569,0.747,0.912,1.741,1.054,2.996c-1.066-0.117-2.135-0.201-3.205-0.224
		c-0.271,0.012-0.54,0.102-0.733,0.297c-0.67,0.678-1.917,1.938-1.698,3.574c0.131,0.979,0.794,2.187,3.021,2.83
		c0.564,0.223,1.135,0.351,1.61,0.448l0.716,0.146C9.079,98.753,8.019,100.123,6.619,100.914z M21.284,105.556
		c-0.418,0.517-1.057,0.849-1.752,0.87c-1.164,0-2.386-0.816-3.112-2.079c-0.77-1.34-0.984-3.01-1.091-4.467
		c-0.176-2.391-0.122-4.807,0.16-7.184c0.161-1.359,0.418-2.755,1.204-3.75c0.725-0.919,1.958-1.468,3.299-1.468
		c0.486,0,0.959,0.072,1.406,0.215c1.63,0.521,3.059,1.924,3.821,3.75l0.029,0.07c-1.47,0.464-2.756,1.586-3.55,3.126
		c-0.653,1.267-0.981,2.761-1.001,4.566c-0.02,1.818,0.324,3.396,0.994,4.66c-0.033,0.134-0.039,0.274-0.014,0.412
		C21.777,104.845,21.473,105.322,21.284,105.556z M28.138,104.276l-0.439-0.151c-1.321-0.455-2.697-0.922-4.138-1.014
		c-0.716-1.215-0.878-2.731-0.865-3.883c0.017-1.487,0.271-2.688,0.779-3.673c0.567-1.098,1.503-1.913,2.505-2.182
		c0.184-0.049,0.329-0.158,0.452-0.287c0.246,0.147,0.491,0.246,0.691,0.321c-1.934,1.307-2.991,3.817-2.408,6.117
		c0.115,0.453,0.521,0.755,0.969,0.755c0.081,0,0.164-0.01,0.246-0.03c0.535-0.136,0.859-0.68,0.724-1.215
		c-0.434-1.716,0.595-3.697,2.249-4.328c0.221-0.085,0.382-0.247,0.493-0.437l1.812,0.688c-1.436,1.455-2.068,3.664-1.503,5.653
		c0.125,0.439,0.525,0.727,0.961,0.727c0.09,0,0.183-0.012,0.273-0.038c0.532-0.15,0.84-0.704,0.689-1.235
		c-0.432-1.521,0.241-3.318,1.564-4.181c0.052-0.034,0.083-0.083,0.127-0.125l1.822,0.691c-0.932,1.34-1.374,3.018-1.126,4.646
		c0.076,0.495,0.502,0.85,0.987,0.85c0.05,0,0.101-0.004,0.152-0.012c0.546-0.083,0.921-0.593,0.838-1.139
		c-0.194-1.275,0.25-2.638,1.106-3.612c1.201,0.435,2.446,0.801,3.761,0.946c-0.516,0.525-0.988,1.184-1.392,1.975
		c-0.832,1.629-1.178,3.087-1.058,4.457c0.084,0.961,0.423,1.847,0.94,2.565C35.566,106.38,31.77,105.514,28.138,104.276z
		 M48.465,105.293c-0.313,0.535-0.223,1.093-0.174,1.391l0.252,1.574c-1.163-0.188-2.308-0.485-3.417-0.891
		c-0.312-0.113-0.63-0.24-0.811-0.418c-0.304-0.299-0.342-0.871-0.338-1.186c0.018-1.372,0.78-2.733,1.94-3.467
		c0.244-0.154,0.337-0.167,0.36-0.167c0.138,0,0.457,0.272,0.667,0.452l0.232,0.195c0.724,0.592,1.588,1.013,2.5,1.219
		c0.002,0.001,0.099,0.021,0.102,0.022c0.09,0.02,0.225,0.05,0.217,0.028c0.023,0.029,0.075,0.129,0.103,0.183
		c0.038,0.073,0.066,0.134,0.088,0.186c-0.028,0.003-0.054,0.007-0.079,0.01C49.651,104.478,48.888,104.566,48.465,105.293z"/>
</g>
</svg>
