<?xml version="1.0" encoding="utf-8"?>
<!-- Generator: Adobe Illustrator 23.0.3, SVG Export Plug-In . SVG Version: 6.00 Build 0)  -->
<svg version="1.1" id="Vrstva_10" xmlns="http://www.w3.org/2000/svg" xmlns:xlink="http://www.w3.org/1999/xlink" x="0px" y="0px"
	 viewBox="0 0 184.72 190.18" style="enable-background:new 0 0 184.72 190.18;" xml:space="preserve">
<style type="text/css">
	.st0{fill:#BA9060;}
	.st1{fill:none;}
	.st2{fill:#4C331B;}
	.st3{fill:#7B5632;}
	.st4{fill:#A07A53;}
	.st5{fill:#F2EEE9;}
	.st6{fill:#FFFFFF;}
	.st7{fill:#1C1C1B;}
	.st8{fill:#4A321A;}
	.st9{fill:#5C3F22;}
	.st10{fill:#A47C4F;}
	.st11{fill:#C7BFBE;}
</style>
<g>
	<path class="st0" d="M76.73,100.64c-1.6,2.92-4.4,5.52-8.34,7.77c-1.58,0.9-3.23,1.7-4.82,2.47c-2.23,1.08-4.53,2.2-6.6,3.58
		c-5.24,3.49-9.05,8.95-10.87,14.98c0.11,0.16,0.18,0.34,0.19,0.55l0.49,14.69c0.02,0.52,0.02,1.12-0.06,1.72
		c0.82,1.7,2.03,3.35,3.83,4.35c0.13,0.07,0.23,0.18,0.31,0.29c1.74,0.02,3.43,0.32,5.07,0.65l2.25,0.44
		c1.45,0.28,2.94,0.58,4.4,1.07c0.52,0.18,0.8,0.75,0.63,1.27c-0.14,0.42-0.53,0.68-0.95,0.68c-0.11,0-0.21-0.02-0.32-0.05
		c-1.33-0.45-2.76-0.73-4.14-1l-2.25-0.44c-1.81-0.36-3.68-0.72-5.49-0.61c-0.28,0.01-0.54-0.09-0.73-0.27
		c-3.08,0.62-5.87,2.5-7.56,5.16c-1.85,2.91-2.31,6.6-1.23,9.87c0.17,0.51,0.42,1.15,0.86,1.47c0.61,0.45,1.75,0.24,2.48-0.41
		c0.86-0.77,1.37-2.01,1.81-3.1c0.06-0.15,0.16-0.27,0.28-0.37c0.51-2.93,1.34-5.8,2.53-8.54c0.22-0.51,0.81-0.74,1.31-0.52
		c0.51,0.22,0.74,0.81,0.52,1.31c-1.37,3.16-2.27,6.5-2.68,9.92c-0.02,0.14-0.07,0.27-0.14,0.39c-0.01,2.06,0.5,3.37,1.54,3.86
		c1.01,0.48,2.52-0.04,3.42-1.09c0.45-0.52,0.78-1.14,1.05-1.79c-0.05-0.17-0.08-0.34-0.04-0.53l1.94-8.25
		c0.2-0.84,0.78-1.13,1.26-1.13c0.55,0,1,0.45,1,1c0,0.31-0.14,0.58-0.35,0.76l-1.25,5.31c0.19,0.24,0.28,0.56,0.19,0.87
		c-0.07,0.25-0.14,0.49-0.21,0.74c-0.14,0.89,0.13,1.9,0.73,2.71c0.56,0.77,1.36,1.28,2.19,1.4c1.48,0.2,3.06-0.85,3.68-2.3
		c-0.21-0.74-0.08-1.47,0.34-2.09c0.28-1.75,0.42-3.53,0.38-5.3c-0.01-0.55,0.43-1.01,0.98-1.02c0.01,0,0.01,0,0.02,0
		c0.54,0,0.99,0.44,1,0.98c0.04,2.03-0.13,4.07-0.49,6.08c0.01,0.4-0.01,0.8-0.1,1.2c0.38,0.5,1.11,0.82,1.61,0.67
		c1.51-0.47,2.14-2.48,2.38-3.64c0.66-3.15,0.37-6.54-0.8-9.55c-0.04-0.1-0.06-0.21-0.06-0.31c-0.34-0.31-0.46-0.81-0.22-1.23
		c0.29-0.51,0.62-0.96,0.94-1.41l0.23-0.32c4.05-5.64,5.8-12.82,4.79-19.7c-0.37-2.51-1.07-4.7-2.08-6.5
		c-2.6-4.63-7.92-7.53-13.22-7.24c-0.54,0.04-1.02-0.39-1.06-0.94c-0.03-0.55,0.39-1.02,0.94-1.05c6.05-0.34,12.11,2.97,15.07,8.26
		c1.13,2.01,1.91,4.43,2.31,7.18c1.08,7.38-0.79,15.09-5.14,21.15l-0.24,0.33c-0.13,0.18-0.26,0.36-0.39,0.54
		c1.68,0.19,3.43,0.04,5.05-0.45c0.29-1.97,0.68-3.91,1.07-5.81c0.24-1.14,0.48-2.29,0.69-3.43c1.54-8.31,1.72-16.77,0.53-25.13
		c-0.08-0.55,0.3-1.05,0.85-1.13c0.54-0.08,1.05,0.3,1.13,0.85c1.22,8.58,1.03,17.26-0.55,25.78c-0.22,1.16-0.46,2.32-0.7,3.48
		c-0.37,1.78-0.74,3.59-1.01,5.41c0.14,0.17,0.22,0.39,0.22,0.62c0,5.49-3.24,9.95-6.38,14.27c-2.05,2.82-4.17,5.73-5.34,8.88
		c-0.69,1.85-0.87,3.4-0.54,4.72c0.37,1.51,1.51,2.68,2.77,2.85c1.07,0.15,2.25-0.68,2.43-1.62c0-0.18,0-0.37,0.02-0.56
		c0.02-0.21,0.11-0.38,0.23-0.53c0.34-2.6,0.79-5.2,1.37-7.75c0.12-0.54,0.66-0.88,1.19-0.76c0.54,0.12,0.88,0.66,0.76,1.19
		c-0.66,2.92-1.15,5.9-1.49,8.88c0.34,1.6,1.95,2.96,3.59,2.8c1.65-0.16,3.07-1.86,3.01-3.59c-0.05-0.28-0.1-0.55-0.14-0.82
		c-0.04-0.32,0.08-0.61,0.29-0.82l-0.19-6.54c-0.02-0.55,0.42-1.01,0.97-1.03c0.59-0.01,1.01,0.42,1.03,0.97l0.26,8.67
		c0,0.01,0,0.01,0,0.02c0.18,0.21,0.25,0.48,0.22,0.75c0.35,0.81,0.87,1.54,1.67,1.89c0.67,0.29,1.77-0.17,2.16-0.84
		c0.03-0.05,0.04-0.09,0.06-0.13c-0.07-0.18-0.11-0.38-0.06-0.59c0-0.02,0.01-0.03,0.01-0.05c-0.19-0.4-0.09-0.86,0.24-1.15
		c0.47-2.68,0.38-5.46-0.27-8.1c-0.13-0.54,0.2-1.08,0.73-1.21c0.53-0.13,1.08,0.2,1.21,0.73c0.74,3.01,0.81,6.17,0.24,9.21
		c0.97,0.91,2.38,1.45,3.93,1.45c0.92,0,1.83-0.19,2.63-0.54c3.08-1.35,5.06-5.09,4.52-8.52c-0.52-3.32-3.21-6.19-6.57-7.09
		l-1.85,0.07c-1.98,0.07-3.99,0.15-6.01,0.15c-1.78,0-3.56-0.06-5.34-0.22c-0.55-0.05-0.95-0.54-0.9-1.09s0.52-0.96,1.09-0.9
		c3.67,0.34,7.44,0.2,11.09,0.07l0.93-0.03l0.12-2.99c-0.11-0.61-0.1-1.2-0.08-1.59c0.09-3.28,0.2-6.55,0.32-9.83
		c0.01-0.15,0.02-0.4,0.13-0.67c-0.62-9.46,0.72-19.07,3.97-27.97c0.19-0.52,0.76-0.78,1.28-0.6c0.52,0.19,0.79,0.76,0.6,1.28
		c-3.03,8.31-4.37,17.25-3.93,26.09c0.15-0.02,0.29-0.04,0.44-0.07l2.26-0.65c0.6-0.17,1.28-0.35,2-0.37
		c7.42-2.28,14.08-7.05,18.54-13.41l-0.46-9.67c-0.03-0.55,0.4-1.02,0.95-1.05c0.54-0.03,1.02,0.4,1.05,0.95l0.46,9.66
		c0.04,0.12,0.07,0.24,0.07,0.37c-0.01,0.3,0,0.6-0.01,0.9l0.03,0.67c0,0.09-0.02,0.17-0.04,0.25c-0.02,7.38,1.19,14.66,3.63,21.65
		l0.14,0.4c0.59,1.68,1.21,3.42,1.11,5.31c-0.01,0.25-0.04,0.49-0.07,0.74c3.21-3,7.16-5.22,11.41-6.3
		c0.54-0.13,1.08,0.19,1.21,0.73c0.13,0.54-0.19,1.08-0.73,1.21c-5.6,1.41-10.67,4.95-13.92,9.72c-0.28,0.62-0.55,1.23-0.74,1.85
		c-0.61,1.97-0.46,3.94,0.39,5.42c0.9,1.55,2.74,2.5,4.32,2.2c0.73-0.14,1.42-0.61,1.89-1.27c0.06-0.87,0.22-1.83,0.47-2.77
		c0.11-0.43,0.5-0.74,0.95-0.75c0.41,0.03,0.85,0.29,0.97,0.72c0.33,1.11,0.18,2.31-0.42,3.41c-0.04,1.82,0.46,2.93,1.5,3.31
		c1.08,0.4,2.57-0.4,3.25-1.66c0.26-0.49,0.46-1.05,0.58-1.71c-0.01-1.11,0.12-2.22,0.24-3.2c0.06-0.53,0.53-0.91,1.06-0.88
		c0.53,0.04,0.94,0.48,0.93,1.01c-0.02,0.94-0.03,2.11-0.23,3.24c0.02,0.66,0.09,1.25,0.23,1.79c0.33,1.28,1.28,2.69,2.66,2.99
		c1.64,0.35,3.54-1.13,4.12-3.12c0.12-0.41,0.2-0.84,0.24-1.3c-0.96-1.67-0.84-3.87-0.62-5.63c0.06-0.48,0.46-0.85,0.95-0.88
		c0.48-0.03,0.92,0.31,1.02,0.79c0.32,1.49,0.72,3.33,0.68,5.14c0.13,0.14,0.27,0.26,0.43,0.36c0.31,0.2,0.67,0.29,1.07,0.29h0
		c0.98,0,2.03-0.58,2.62-1.44c0.78-1.14,1.07-2.75,0.89-4.93c-0.45-5.4-3.96-11.48-9.55-12.13l-0.42-0.04
		c-0.81-0.08-1.72-0.16-2.52-0.72c-0.96-0.67-1.37-1.74-1.67-2.79c-1.83-6.41-1.81-13.16-1.79-19.7c0.02-5.37,0.03-10.9-1-16.16
		c-0.5,0.01-1,0.02-1.5,0.02c0,0,0,0,0,0c-5.04,0-10.37-0.65-16.29-1.97c-4.36-0.98-8.48-2.24-12.36-3.73
		c-6.28-2.19-12.24-5.27-17.59-9.17C81.64,107.05,78.65,103.96,76.73,100.64z"/>
	<path class="st1" d="M74.69,157.3c-1.4,0.34-2.85,0.47-4.3,0.38c0.84,2.91,0.98,6.04,0.39,9c1.77-2.53,3.29-5.04,3.99-7.76
		c-0.11-0.17-0.19-0.38-0.18-0.6C74.61,157.97,74.66,157.64,74.69,157.3z"/>
	<path class="st0" d="M76.73,100.64c-1.6,2.92-4.4,5.52-8.34,7.77c-1.58,0.9-3.23,1.7-4.82,2.47c-2.23,1.08-4.53,2.2-6.6,3.58
		c-5.24,3.49-9.05,8.95-10.87,14.98c0.11,0.16,0.18,0.34,0.19,0.55l0.49,14.69c0.02,0.52,0.02,1.12-0.06,1.72
		c0.82,1.7,2.03,3.35,3.83,4.35c0.13,0.07,0.23,0.18,0.31,0.29c1.74,0.02,3.43,0.32,5.07,0.65l2.25,0.44
		c1.45,0.28,2.94,0.58,4.4,1.07c0.52,0.18,0.8,0.75,0.63,1.27c-0.14,0.42-0.53,0.68-0.95,0.68c-0.11,0-0.21-0.02-0.32-0.05
		c-1.33-0.45-2.76-0.73-4.14-1l-2.25-0.44c-1.81-0.36-3.68-0.72-5.49-0.61c-0.28,0.01-0.54-0.09-0.73-0.27
		c-3.08,0.62-5.87,2.5-7.56,5.16c-1.85,2.91-2.31,6.6-1.23,9.87c0.17,0.51,0.42,1.15,0.86,1.47c0.61,0.45,1.75,0.24,2.48-0.41
		c0.86-0.77,1.37-2.01,1.81-3.1c0.06-0.15,0.16-0.27,0.28-0.37c0.51-2.93,1.34-5.8,2.53-8.54c0.22-0.51,0.81-0.74,1.31-0.52
		c0.51,0.22,0.74,0.81,0.52,1.31c-1.37,3.16-2.27,6.5-2.68,9.92c-0.02,0.14-0.07,0.27-0.14,0.39c-0.01,2.06,0.5,3.37,1.54,3.86
		c1.01,0.48,2.52-0.04,3.42-1.09c0.45-0.52,0.78-1.14,1.05-1.79c-0.05-0.17-0.08-0.34-0.04-0.53l1.94-8.25
		c0.2-0.84,0.78-1.13,1.26-1.13c0.55,0,1,0.45,1,1c0,0.31-0.14,0.58-0.35,0.76l-1.25,5.31c0.19,0.24,0.28,0.56,0.19,0.87
		c-0.07,0.25-0.14,0.49-0.21,0.74c-0.14,0.89,0.13,1.9,0.73,2.71c0.56,0.77,1.36,1.28,2.19,1.4c1.48,0.2,3.06-0.85,3.68-2.3
		c-0.21-0.74-0.08-1.47,0.34-2.09c0.28-1.75,0.42-3.53,0.38-5.3c-0.01-0.55,0.43-1.01,0.98-1.02c0.01,0,0.01,0,0.02,0
		c0.54,0,0.99,0.44,1,0.98c0.04,2.03-0.13,4.07-0.49,6.08c0.01,0.4-0.01,0.8-0.1,1.2c0.38,0.5,1.11,0.82,1.61,0.67
		c1.51-0.47,2.14-2.48,2.38-3.64c0.66-3.15,0.37-6.54-0.8-9.55c-0.04-0.1-0.06-0.21-0.06-0.31c-0.34-0.31-0.46-0.81-0.22-1.23
		c0.29-0.51,0.62-0.96,0.94-1.41l0.23-0.32c4.05-5.64,5.8-12.82,4.79-19.7c-0.37-2.51-1.07-4.7-2.08-6.5
		c-2.6-4.63-7.92-7.53-13.22-7.24c-0.54,0.04-1.02-0.39-1.06-0.94c-0.03-0.55,0.39-1.02,0.94-1.05c6.05-0.34,12.11,2.97,15.07,8.26
		c1.13,2.01,1.91,4.43,2.31,7.18c1.08,7.38-0.79,15.09-5.14,21.15l-0.24,0.33c-0.13,0.18-0.26,0.36-0.39,0.54
		c1.68,0.19,3.43,0.04,5.05-0.45c0.29-1.97,0.68-3.91,1.07-5.81c0.24-1.14,0.48-2.29,0.69-3.43c1.54-8.31,1.72-16.77,0.53-25.13
		c-0.08-0.55,0.3-1.05,0.85-1.13c0.54-0.08,1.05,0.3,1.13,0.85c1.22,8.58,1.03,17.26-0.55,25.78c-0.22,1.16-0.46,2.32-0.7,3.48
		c-0.37,1.78-0.74,3.59-1.01,5.41c0.14,0.17,0.22,0.39,0.22,0.62c0,5.49-3.24,9.95-6.38,14.27c-2.05,2.82-4.17,5.73-5.34,8.88
		c-0.69,1.85-0.87,3.4-0.54,4.72c0.37,1.51,1.51,2.68,2.77,2.85c1.07,0.15,2.25-0.68,2.43-1.62c0-0.18,0-0.37,0.02-0.56
		c0.02-0.21,0.11-0.38,0.23-0.53c0.34-2.6,0.79-5.2,1.37-7.75c0.12-0.54,0.66-0.88,1.19-0.76c0.54,0.12,0.88,0.66,0.76,1.19
		c-0.66,2.92-1.15,5.9-1.49,8.88c0.34,1.6,1.95,2.96,3.59,2.8c1.65-0.16,3.07-1.86,3.01-3.59c-0.05-0.28-0.1-0.55-0.14-0.82
		c-0.04-0.32,0.08-0.61,0.29-0.82l-0.19-6.54c-0.02-0.55,0.42-1.01,0.97-1.03c0.59-0.01,1.01,0.42,1.03,0.97l0.26,8.67
		c0,0.01,0,0.01,0,0.02c0.18,0.21,0.25,0.48,0.22,0.75c0.35,0.81,0.87,1.54,1.67,1.89c0.67,0.29,1.77-0.17,2.16-0.84
		c0.03-0.05,0.04-0.09,0.06-0.13c-0.07-0.18-0.11-0.38-0.06-0.59c0-0.02,0.01-0.03,0.01-0.05c-0.19-0.4-0.09-0.86,0.24-1.15
		c0.47-2.68,0.38-5.46-0.27-8.1c-0.13-0.54,0.2-1.08,0.73-1.21c0.53-0.13,1.08,0.2,1.21,0.73c0.74,3.01,0.81,6.17,0.24,9.21
		c0.97,0.91,2.38,1.45,3.93,1.45c0.92,0,1.83-0.19,2.63-0.54c3.08-1.35,5.06-5.09,4.52-8.52c-0.52-3.32-3.21-6.19-6.57-7.09
		l-1.85,0.07c-1.98,0.07-3.99,0.15-6.01,0.15c-1.78,0-3.56-0.06-5.34-0.22c-0.55-0.05-0.95-0.54-0.9-1.09s0.52-0.96,1.09-0.9
		c3.67,0.34,7.44,0.2,11.09,0.07l0.93-0.03l0.12-2.99c-0.11-0.61-0.1-1.2-0.08-1.59c0.09-3.28,0.2-6.55,0.32-9.83
		c0.01-0.15,0.02-0.4,0.13-0.67c-0.62-9.46,0.72-19.07,3.97-27.97c0.19-0.52,0.76-0.78,1.28-0.6c0.52,0.19,0.79,0.76,0.6,1.28
		c-3.03,8.31-4.37,17.25-3.93,26.09c0.15-0.02,0.29-0.04,0.44-0.07l2.26-0.65c0.6-0.17,1.28-0.35,2-0.37
		c7.42-2.28,14.08-7.05,18.54-13.41l-0.46-9.67c-0.03-0.55,0.4-1.02,0.95-1.05c0.54-0.03,1.02,0.4,1.05,0.95l0.46,9.66
		c0.04,0.12,0.07,0.24,0.07,0.37c-0.01,0.3,0,0.6-0.01,0.9l0.03,0.67c0,0.09-0.02,0.17-0.04,0.25c-0.02,7.38,1.19,14.66,3.63,21.65
		l0.14,0.4c0.59,1.68,1.21,3.42,1.11,5.31c-0.01,0.25-0.04,0.49-0.07,0.74c3.21-3,7.16-5.22,11.41-6.3
		c0.54-0.13,1.08,0.19,1.21,0.73c0.13,0.54-0.19,1.08-0.73,1.21c-5.6,1.41-10.67,4.95-13.92,9.72c-0.28,0.62-0.55,1.23-0.74,1.85
		c-0.61,1.97-0.46,3.94,0.39,5.42c0.9,1.55,2.74,2.5,4.32,2.2c0.73-0.14,1.42-0.61,1.89-1.27c0.06-0.87,0.22-1.83,0.47-2.77
		c0.11-0.43,0.5-0.74,0.95-0.75c0.41,0.03,0.85,0.29,0.97,0.72c0.33,1.11,0.18,2.31-0.42,3.41c-0.04,1.82,0.46,2.93,1.5,3.31
		c1.08,0.4,2.57-0.4,3.25-1.66c0.26-0.49,0.46-1.05,0.58-1.71c-0.01-1.11,0.12-2.22,0.24-3.2c0.06-0.53,0.53-0.91,1.06-0.88
		c0.53,0.04,0.94,0.48,0.93,1.01c-0.02,0.94-0.03,2.11-0.23,3.24c0.02,0.66,0.09,1.25,0.23,1.79c0.33,1.28,1.28,2.69,2.66,2.99
		c1.64,0.35,3.54-1.13,4.12-3.12c0.12-0.41,0.2-0.84,0.24-1.3c-0.96-1.67-0.84-3.87-0.62-5.63c0.06-0.48,0.46-0.85,0.95-0.88
		c0.48-0.03,0.92,0.31,1.02,0.79c0.32,1.49,0.72,3.33,0.68,5.14c0.13,0.14,0.27,0.26,0.43,0.36c0.31,0.2,0.67,0.29,1.07,0.29h0
		c0.98,0,2.03-0.58,2.62-1.44c0.78-1.14,1.07-2.75,0.89-4.93c-0.45-5.4-3.96-11.48-9.55-12.13l-0.42-0.04
		c-0.81-0.08-1.72-0.16-2.52-0.72c-0.96-0.67-1.37-1.74-1.67-2.79c-1.83-6.41-1.81-13.16-1.79-19.7c0.02-5.37,0.03-10.9-1-16.16
		c-0.5,0.01-1,0.02-1.5,0.02c0,0,0,0,0,0c-5.04,0-10.37-0.65-16.29-1.97c-4.36-0.98-8.48-2.24-12.36-3.73
		c-6.28-2.19-12.24-5.27-17.59-9.17C81.64,107.05,78.65,103.96,76.73,100.64z"/>
	<path class="st2" d="M45.69,129.09c0.17,0.07,0.31,0.19,0.42,0.34c1.82-6.04,5.63-11.49,10.87-14.98c2.07-1.38,4.37-2.49,6.6-3.58
		c1.59-0.77,3.24-1.57,4.82-2.47c3.94-2.25,6.74-4.85,8.34-7.77c1.92,3.32,4.91,6.41,9.26,9.59c5.35,3.91,11.31,6.99,17.59,9.17
		c-12.22-4.71-21.92-11.88-28.08-20.86c-1.26,3.04-3.97,5.77-8.1,8.13c-1.52,0.87-3.14,1.65-4.7,2.41
		c-2.29,1.11-4.65,2.26-6.83,3.71c-5.92,3.94-10.15,10.23-11.97,17.11c0.24-0.21,0.49-0.42,0.73-0.63
		C44.92,129.01,45.33,128.94,45.69,129.09z"/>
	<path class="st2" d="M90.85,165.88l-0.12,2.99l1.64-0.06c0.13-0.01,0.25,0.02,0.37,0.06l0.02-0.53c-0.26-0.08-0.51-0.21-0.74-0.38
		C91.29,167.42,90.98,166.63,90.85,165.88z"/>
	<path class="st2" d="M92.45,170.8l-0.72,0.03c3.36,0.9,6.05,3.77,6.57,7.09c0.54,3.43-1.44,7.17-4.52,8.52
		c-0.81,0.35-1.72,0.54-2.63,0.54c-1.54,0-2.96-0.53-3.93-1.45c-0.07,0.35-0.14,0.7-0.22,1.04c-0.11,0.46-0.52,0.77-0.97,0.77
		c-0.08,0-0.16-0.01-0.24-0.03c-0.33-0.08-0.56-0.32-0.68-0.62c-0.02,0.04-0.03,0.09-0.06,0.13c-0.39,0.67-1.49,1.13-2.16,0.84
		c-0.8-0.34-1.33-1.08-1.67-1.89c-0.02,0.14-0.05,0.29-0.13,0.42c-0.19,0.31-0.52,0.48-0.85,0.48c-0.18,0-0.36-0.05-0.52-0.15
		c-0.68-0.42-0.7-1.2-0.71-1.45l-0.06-2.13c-0.21,0.21-0.34,0.51-0.29,0.82c0.04,0.27,0.08,0.55,0.14,0.82
		c0.06,1.73-1.36,3.43-3.01,3.59c-1.63,0.16-3.24-1.19-3.59-2.8c-0.03,0.28-0.07,0.57-0.1,0.85c-0.05,0.51-0.49,0.9-0.99,0.9
		c-0.03,0-0.07,0-0.1,0c-0.55-0.06-0.95-0.55-0.89-1.1c0.08-0.74,0.17-1.47,0.26-2.21c-0.12,0.15-0.22,0.33-0.23,0.53
		c-0.02,0.19-0.02,0.37-0.02,0.56c-0.18,0.94-1.36,1.77-2.43,1.62c-1.26-0.17-2.41-1.34-2.77-2.85c-0.32-1.32-0.15-2.87,0.54-4.72
		c1.17-3.15,3.29-6.06,5.34-8.88c3.14-4.32,6.39-8.79,6.38-14.27c0-0.23-0.08-0.45-0.22-0.62c-0.16,1.09-0.3,2.17-0.37,3.26
		c-0.03,0.53-0.47,0.94-1,0.94c-0.02,0-0.04,0-0.06,0c-0.33-0.02-0.59-0.21-0.76-0.46c-0.7,2.72-2.22,5.23-3.99,7.76
		c0.59-2.96,0.45-6.09-0.39-9c1.45,0.1,2.91-0.04,4.3-0.38c0.07-0.71,0.15-1.42,0.25-2.13c-1.62,0.49-3.37,0.65-5.05,0.45
		c-0.16,0.23-0.31,0.45-0.44,0.68c-0.18,0.32-0.52,0.51-0.87,0.51c-0.17,0-0.34-0.04-0.49-0.13c-0.06-0.04-0.11-0.09-0.16-0.14
		c0.01,0.11,0.02,0.21,0.06,0.31c1.17,3,1.45,6.39,0.8,9.55c-0.24,1.16-0.87,3.17-2.38,3.64c-0.5,0.15-1.23-0.18-1.61-0.67
		c0.09-0.4,0.11-0.8,0.1-1.2c-0.06,0.32-0.1,0.64-0.17,0.95c-0.1,0.47-0.51,0.8-0.98,0.8c-0.07,0-0.14-0.01-0.2-0.02
		c-0.54-0.11-0.89-0.64-0.78-1.18c0.09-0.43,0.16-0.86,0.23-1.29c-0.42,0.62-0.55,1.35-0.34,2.09c-0.61,1.45-2.19,2.5-3.68,2.3
		c-0.82-0.11-1.62-0.62-2.19-1.4c-0.59-0.81-0.86-1.82-0.73-2.71c0.07-0.25,0.14-0.49,0.21-0.74c0.09-0.32,0-0.63-0.19-0.87
		l-0.65,2.77c-0.11,0.46-0.52,0.77-0.97,0.77c-0.08,0-0.15-0.01-0.23-0.03c-0.36-0.08-0.61-0.35-0.71-0.68
		c-0.28,0.65-0.61,1.27-1.05,1.79c-0.91,1.06-2.42,1.57-3.42,1.09c-1.04-0.49-1.55-1.79-1.54-3.86c-0.18,0.3-0.5,0.49-0.85,0.49
		c-0.04,0-0.08,0-0.12-0.01c-0.55-0.07-0.94-0.56-0.87-1.11c0.08-0.65,0.19-1.29,0.3-1.93c-0.12,0.1-0.22,0.22-0.28,0.37
		c-0.45,1.09-0.95,2.33-1.81,3.1c-0.72,0.65-1.87,0.86-2.48,0.41c-0.44-0.32-0.69-0.96-0.86-1.47c-1.08-3.27-0.62-6.96,1.23-9.87
		c1.69-2.66,4.47-4.54,7.56-5.16c-0.19-0.17-0.31-0.4-0.33-0.67c-0.03-0.55,0.39-1.03,0.94-1.06c0.31-0.02,0.62-0.01,0.93,0
		c-0.08-0.12-0.18-0.22-0.31-0.29c-1.8-1-3.02-2.65-3.83-4.35c-0.06,0.39-0.14,0.79-0.31,1.17c-0.18,0.41-0.44,0.76-0.73,1.07
		c0.59,0.94,1.25,1.78,2,2.47c-3.1,0.95-5.84,2.99-7.59,5.75c-2.16,3.41-2.7,7.74-1.44,11.57c0.26,0.8,0.68,1.8,1.57,2.45
		c1.35,1,3.59,0.73,5-0.53c0.16-0.14,0.31-0.3,0.45-0.46c0.33,1.83,1.18,3.08,2.53,3.72c1.81,0.86,4.31,0.13,5.8-1.6
		c0.29-0.34,0.55-0.7,0.77-1.08c0.12,0.22,0.26,0.44,0.42,0.65c0.9,1.23,2.15,2.01,3.53,2.2c2.03,0.28,4.07-0.77,5.24-2.48
		c0.89,0.67,2.07,0.95,3.06,0.64c0,0,0.01,0,0.01,0c-1.36,2-2.6,4.07-3.43,6.32c-0.83,2.24-1.03,4.17-0.61,5.89
		c0.56,2.29,2.39,4.08,4.45,4.36c1.26,0.17,2.54-0.3,3.44-1.12c0.97,1.63,2.77,2.79,4.67,2.79c0.15,0,0.29-0.01,0.44-0.02
		c1.63-0.15,3.09-1.18,3.96-2.58c0.57,0.89,1.31,1.54,2.18,1.91c1.58,0.68,3.8-0.16,4.68-1.68c0.01-0.02,0.02-0.04,0.03-0.06
		c1.21,0.78,2.7,1.21,4.32,1.21c1.19,0,2.38-0.25,3.44-0.71c3.93-1.73,6.38-6.31,5.69-10.66c-0.6-3.77-3.44-7.07-7.1-8.42
		c0.13,0.16,0.22,0.36,0.23,0.59C93.43,170.32,93,170.78,92.45,170.8z"/>
	<path class="st2" d="M93.14,152.65l0.44-0.13c-0.15,0.03-0.29,0.05-0.44,0.07C93.14,152.61,93.14,152.63,93.14,152.65z"/>
	<path class="st2" d="M133.73,125.08c1.04,5.27,1.02,10.79,1,16.16c-0.02,6.53-0.04,13.29,1.79,19.7c0.3,1.05,0.71,2.12,1.67,2.79
		c0.8,0.56,1.71,0.65,2.52,0.72l0.42,0.04c5.59,0.65,9.1,6.74,9.55,12.13c0.18,2.18-0.11,3.8-0.89,4.93
		c-0.59,0.86-1.65,1.44-2.62,1.44h0c-0.4,0-0.76-0.1-1.07-0.29c-0.16-0.1-0.3-0.22-0.43-0.36c0.04-1.81-0.36-3.65-0.68-5.14
		c-0.1-0.48-0.54-0.81-1.02-0.79c-0.49,0.02-0.89,0.39-0.95,0.88c-0.22,1.76-0.34,3.96,0.62,5.63c-0.04,0.46-0.12,0.89-0.24,1.3
		c-0.58,1.98-2.49,3.47-4.12,3.12c-1.38-0.29-2.33-1.71-2.66-2.99c-0.14-0.54-0.21-1.12-0.23-1.79c0.19-1.12,0.21-2.29,0.23-3.24
		c0.01-0.53-0.4-0.98-0.93-1.01c-0.53-0.03-1,0.35-1.06,0.88c-0.11,0.98-0.24,2.09-0.24,3.2c-0.13,0.66-0.32,1.22-0.58,1.71
		c-0.68,1.26-2.17,2.06-3.25,1.66c-1.03-0.38-1.53-1.5-1.5-3.31c0.6-1.1,0.75-2.3,0.42-3.41c-0.13-0.43-0.56-0.69-0.97-0.72
		c-0.45,0.01-0.84,0.31-0.95,0.75c-0.25,0.94-0.41,1.9-0.47,2.77c-0.47,0.66-1.16,1.12-1.89,1.27c-1.58,0.3-3.42-0.64-4.32-2.2
		c-0.86-1.48-1-3.45-0.39-5.42c0.19-0.62,0.46-1.24,0.74-1.85c-0.01,0.01-0.02,0.03-0.03,0.04c-0.19,0.29-0.51,0.44-0.83,0.44
		c-0.19,0-0.39-0.06-0.56-0.17c-0.46-0.31-0.58-0.93-0.27-1.39c1.06-1.56,2.32-2.99,3.71-4.28c0.04-0.24,0.06-0.49,0.07-0.74
		c0.1-1.88-0.52-3.62-1.11-5.31l-0.14-0.4c-2.44-6.99-3.65-14.27-3.63-21.65c-0.09,0.43-0.45,0.77-0.91,0.79c-0.02,0-0.03,0-0.05,0
		c-0.53,0-0.97-0.42-1-0.95l-0.09-1.93c-4.45,6.36-11.12,11.13-18.54,13.41c0.15,0,0.31-0.01,0.47,0c0.99,0.09,1.84,0.55,2.58,1.05
		c6.02-2.32,11.45-6.2,15.54-11.19c0.11,7.2,1.37,14.3,3.75,21.13l0.14,0.41c0.55,1.57,1.07,3.05,1,4.54
		c-0.08,1.5-0.75,2.91-1.47,4.41c-0.47,0.98-0.95,1.99-1.28,3.06c-0.77,2.5-0.56,5.05,0.57,7.01c1.33,2.29,4.03,3.63,6.44,3.16
		c0.58-0.12,1.14-0.35,1.66-0.68c0.36,1.62,1.26,2.74,2.62,3.24c1.73,0.64,3.89-0.15,5.17-1.78c0.76,1.77,2.19,3.07,3.83,3.42
		c2.63,0.56,5.59-1.54,6.46-4.51c0.02-0.07,0.04-0.13,0.06-0.2c0.55,0.27,1.16,0.42,1.8,0.42h0c1.63,0,3.31-0.91,4.27-2.31
		c1.05-1.53,1.46-3.57,1.23-6.23c-0.52-6.19-4.66-13.18-11.31-13.95l-0.47-0.05c-0.61-0.06-1.19-0.11-1.56-0.37
		c-0.42-0.29-0.66-0.89-0.89-1.7c-1.75-6.13-1.73-12.75-1.71-19.14c0.02-5.38,0.02-10.9-1-16.26
		C135.07,125.03,134.4,125.06,133.73,125.08z"/>
	<path class="st2" d="M85.08,186.05c0.09-0.38,0.17-0.77,0.24-1.15C84.99,185.19,84.89,185.65,85.08,186.05z"/>
	<path class="st2" d="M118.44,138.37c0-0.13-0.02-0.25-0.07-0.37l0.06,1.27C118.44,138.97,118.43,138.67,118.44,138.37z"/>
	<path class="st3" d="M44.36,132.15c-11.1,9.46-24.44,16.06-38.72,19.14c-0.94,0.2-2.94,0.75-3.5,1.79
		c4.75,1.47,9.75,2.22,14.86,2.22c0,0,0,0,0,0c9.11,0,17.96-2.36,25.62-6.82c0.81-0.47,1.63-0.99,1.95-1.73
		c0.25-0.57,0.23-1.3,0.2-2.02L44.36,132.15z"/>
	<path class="st2" d="M46.41,147.57c0.17-0.39,0.26-0.78,0.31-1.17c0.09-0.61,0.08-1.21,0.06-1.72l-0.49-14.69
		c-0.01-0.2-0.08-0.39-0.19-0.55c-0.1-0.15-0.25-0.27-0.42-0.34c-0.36-0.15-0.77-0.08-1.06,0.17c-0.24,0.21-0.49,0.42-0.73,0.63
		c-11.01,9.63-24.36,16.35-38.67,19.44c-4.69,1.01-5.28,3.24-5.22,4.48c0.02,0.41,0.29,0.77,0.69,0.9
		c5.2,1.72,10.69,2.59,16.31,2.59c0,0,0,0,0,0c9.46,0,18.67-2.45,26.63-7.1c0.71-0.41,1.45-0.91,2.05-1.57
		C45.96,148.32,46.22,147.98,46.41,147.57z M44.78,144.74c0.02,0.71,0.05,1.45-0.2,2.02c-0.33,0.73-1.14,1.25-1.95,1.73
		c-7.65,4.46-16.51,6.82-25.62,6.82c0,0,0,0,0,0c-5.11,0-10.1-0.75-14.86-2.22c0.56-1.04,2.55-1.59,3.5-1.79
		c14.28-3.08,27.62-9.68,38.72-19.14L44.78,144.74z"/>
	<path class="st4" d="M92.99,157.36c-0.08,2.34-0.16,4.67-0.22,6.99c-0.02,0.81,0.01,1.69,0.44,2c0.44,0.32,1.35-0.18,1.61-0.82
		c0.37-0.88,0.18-1.98-0.08-3.22l-0.14-0.67c-0.18-0.49-0.28-0.99-0.3-1.5c-0.02-0.52,0.35-0.97,0.87-1.04
		c0.52-0.06,1,0.28,1.11,0.79l0.25,1.19c0.55,1.37,1.95,2.36,3.35,2.36l0.15,0c0.46-0.02,0.87-0.14,1.19-0.33
		c0.48-0.29,0.87-0.84,1.21-1.66c0.61-1.48,0.68-2.99,0.2-4.15c-0.5-1.2-1.59-2.12-2.48-2.79c-0.64-0.47-1.32-0.92-2.02-0.98
		c-0.55-0.05-1.14,0.13-1.73,0.29l-3.09,0.88c0.05,0.58,0.08,1.16,0.14,1.74C93.48,156.81,93.29,157.16,92.99,157.36z"/>
	<path class="st2" d="M98.3,151.52c-0.16-0.01-0.31-0.01-0.47,0c-0.72,0.02-1.4,0.2-2,0.37l-2.26,0.65l-0.44,0.13
		c0.03,0.68,0.11,1.36,0.16,2.03l3.09-0.88c0.59-0.17,1.18-0.34,1.73-0.29c0.7,0.06,1.39,0.51,2.02,0.98
		c0.9,0.67,1.99,1.58,2.48,2.79c0.48,1.16,0.41,2.67-0.2,4.15c-0.34,0.83-0.74,1.37-1.21,1.66c-0.32,0.19-0.73,0.31-1.19,0.33
		l-0.15,0c-1.4,0-2.8-0.99-3.35-2.36l-0.25-1.19c-0.11-0.51-0.58-0.84-1.11-0.79c-0.52,0.07-0.9,0.52-0.87,1.04
		c0.02,0.51,0.13,1.01,0.3,1.5l0.14,0.67c0.26,1.25,0.45,2.35,0.08,3.22c-0.27,0.64-1.18,1.14-1.61,0.82
		c-0.43-0.32-0.47-1.19-0.44-2c0.07-2.32,0.14-4.64,0.22-6.99c-0.13,0.09-0.27,0.15-0.44,0.17c-0.04,0-0.07,0.01-0.11,0.01
		c-0.5,0-0.94-0.38-0.99-0.89c-0.1-0.95-0.16-1.9-0.23-2.85c-0.11,0.27-0.13,0.52-0.13,0.67c-0.12,3.28-0.23,6.55-0.32,9.83
		c-0.01,0.39-0.02,0.98,0.08,1.59c0.13,0.75,0.44,1.54,1.17,2.08c0.23,0.17,0.47,0.29,0.74,0.38c0.25,0.08,0.52,0.12,0.79,0.12
		c1.29,0,2.6-0.9,3.12-2.15c0.23-0.56,0.33-1.14,0.35-1.71c0.93,0.57,2.02,0.88,3.1,0.83c0.79-0.04,1.53-0.26,2.13-0.63
		c0.85-0.52,1.51-1.38,2.02-2.6c0.82-1.99,0.89-4.01,0.2-5.68c-0.69-1.65-2.04-2.81-3.14-3.62c-0.14-0.11-0.3-0.21-0.46-0.32
		C100.15,152.07,99.29,151.61,98.3,151.52z"/>
	<path class="st5" d="M160.31,54.01l-0.13,0c-0.51,0-1.56,0-2.33-0.69c-0.98-0.88-0.88-2.25-0.83-2.99
		c0.5-7.33,0.31-14.73-0.57-22.03l-8.32,10.14c0.22,0.19,0.44,0.38,0.64,0.58c3.67,3.54,5.58,8.47,6.84,12.37
		c1.03,3.19,1.83,6.58,0.74,9.8c-0.41,1.23-1.07,2.31-1.7,3.36c-0.32,0.53-0.64,1.06-0.93,1.61c-1.64,3.16-2.02,6.93-1.03,10.35
		c0.48,1.67,1.27,3.23,2.09,4.88c0.63,1.26,1.28,2.55,1.79,3.91c1.67,4.45,1.63,9.25-0.12,13.17c-1.61,3.61-4.75,6.72-8.85,8.75
		c-3.27,1.62-7.05,2.59-11.91,3.05c-1.69,0.16-3.34,0.24-4.9,0.24c-4.77,0-9.07-0.76-12.78-2.27c-5.48-2.22-9.86-6.28-12-11.05
		c-0.67,0.03-1.34,0.06-2.01,0.06h0c-8.95,0-17.83-3.03-25.66-5.71c-0.64-0.22-1.44-0.49-2.05-1.14c-0.95-1-1.01-2.35-0.99-3.54
		c0.1-6.47,0.7-12.99,1.79-19.37c1.42-8.32,3.36-14.3,6.3-19.39c3.82-6.61,9.35-11.3,15.55-13.22c0.25-0.08,0.53-0.15,0.82-0.22
		c0.98-1.16,2.08-2.15,3.3-2.89c2.17-1.32,4.61-1.92,6.98-2.5c0.98-0.24,2-0.49,2.96-0.78c3.41-1.04,6.64-2.83,9.33-5.18l0.52-0.45
		c2.13-1.87,4.54-3.98,7.3-3.98c0.59,0,1.18,0.1,1.75,0.3c0.36,0.13,0.62,0.45,0.66,0.84c0.23,2.1-0.6,3.9-1.89,5.42
		c0.71-0.17,1.44-0.31,2.17-0.42c0.31-0.05,0.68-0.09,1.07-0.09c0.62,0,1.15,0.12,1.61,0.37c0.84,0.46,1.34,1.28,1.4,2.3
		c0.04,0.77-0.19,1.59-0.59,2.32c1.7-1.91,2.6-4.54,3.31-6.91c0.28-0.92,0.54-1.84,0.8-2.76c0.28-0.99,0.58-1.99,0.88-2.99
		c-6.02-2.17-12.26-3.45-18.51-3.71c-0.78-0.03-1.55-0.05-2.33-0.05c-16.68,0-32.61,7.23-42.62,19.34
		c-4.83,5.85-8.13,12.59-9.55,19.49c-1.17,5.7-1.19,12.21-0.09,19.9c1.38,9.56,3.94,17.26,7.82,23.55
		c7.58,12.27,21.9,21.3,40.33,25.43c5.77,1.29,10.96,1.92,15.85,1.92c0,0,0,0,0,0c4.71,0,9.13-0.61,13.14-1.82
		c5.32-1.61,10.56-4.4,16.02-8.55c9.19-6.97,15.64-15.39,18.64-24.34c1.46-4.36,2.28-9.23,2.58-15.34
		c0.28-5.69-0.01-10.27-0.9-14.41c-0.75-3.48-2.04-6.97-3.81-10.4c-0.24,0.3-0.49,0.6-0.78,0.89
		C172.93,53.33,166.56,53.95,160.31,54.01z M71.63,60.75c-0.01,0-0.02,0-0.03,0c-0.54,0-0.98-0.43-1-0.97
		c-0.14-4.66,0.83-9.58,2.97-15.04c1.72-4.39,3.62-7.56,5.99-9.98c0.39-0.39,1.02-0.4,1.41-0.01c0.39,0.39,0.4,1.02,0.01,1.41
		c-2.17,2.22-3.94,5.17-5.55,9.31c-2.03,5.21-2.96,9.87-2.83,14.26C72.61,60.27,72.18,60.73,71.63,60.75z M177.53,64.54
		c-0.05-0.55,0.36-1.03,0.91-1.08c0.55-0.06,1.03,0.36,1.08,0.91c0.39,4.67,0.8,9.5-0.04,14.27c-0.81,4.62-2.72,8.9-4.57,13.04
		c-1.54,3.44-3.13,6.99-5.39,10.15c-0.2,0.27-0.5,0.42-0.81,0.42c-0.2,0-0.41-0.06-0.58-0.19c-0.45-0.32-0.55-0.95-0.23-1.4
		c2.15-2.99,3.7-6.45,5.19-9.8c1.8-4.03,3.66-8.19,4.42-12.56C178.3,73.78,177.91,69.09,177.53,64.54z"/>
	<path class="st2" d="M179.07,46.17c-0.24,0.7-0.64,1.39-1.17,2.06c1.77,3.44,3.06,6.93,3.81,10.4c0.89,4.14,1.18,8.72,0.9,14.41
		c-0.3,6.11-1.12,10.98-2.58,15.34c-3,8.95-9.45,17.37-18.64,24.34c-5.46,4.14-10.7,6.94-16.02,8.55
		c-4.01,1.21-8.43,1.82-13.14,1.82c0,0,0,0,0,0c-4.89,0-10.08-0.63-15.85-1.92c-18.42-4.13-32.74-13.17-40.33-25.43
		c-3.88-6.28-6.44-13.98-7.82-23.55c-1.11-7.69-1.08-14.2,0.09-19.9c1.41-6.91,4.72-13.65,9.55-19.49
		c10.01-12.11,25.94-19.34,42.62-19.34c0.78,0,1.55,0.02,2.33,0.05c6.24,0.26,12.49,1.54,18.51,3.71c0.19-0.64,0.39-1.27,0.6-1.91
		c-6.18-2.22-12.61-3.53-19.03-3.8c-0.8-0.03-1.61-0.05-2.41-0.05c-17.27,0-33.78,7.5-44.16,20.06c-5.04,6.1-8.49,13.14-9.96,20.37
		c-1.21,5.93-1.25,12.67-0.11,20.59c1.42,9.84,4.07,17.79,8.1,24.31c0.36,0.59,0.76,1.17,1.15,1.74
		c6.15,8.98,15.86,16.15,28.08,20.86c3.88,1.49,8,2.75,12.36,3.73c5.92,1.33,11.25,1.97,16.29,1.97c0,0,0,0,0,0
		c0.51,0,1.01-0.01,1.51-0.02c0.67-0.02,1.34-0.05,2-0.09c3.61-0.23,7.03-0.83,10.21-1.8c5.55-1.68,11-4.58,16.65-8.87
		c9.51-7.22,16.2-15.97,19.33-25.3c1.52-4.54,2.38-9.58,2.69-15.88c0.29-5.87-0.01-10.61-0.94-14.93
		C182.8,54.18,181.24,50.13,179.07,46.17z"/>
	<path class="st0" d="M128.9,33.37c-0.26-0.44-0.15-1,0.25-1.31c0.84-0.63,1.77-1,2.67-1.35c0.76-0.3,1.48-0.58,2.08-1
		c0.61-0.43,1.06-1.32,1.02-2.02c-0.03-0.48-0.27-0.61-0.36-0.66c-0.31-0.17-0.93-0.13-1.42-0.06c-2.72,0.4-5.32,1.27-7.73,2.57
		c-0.48,0.26-1.08,0.08-1.35-0.39c-0.27-0.47-0.11-1.08,0.36-1.35c2.62-1.55,6-3.91,6.17-6.91c-0.14-0.02-0.29-0.03-0.44-0.03
		c-2.01,0-4.12,1.85-5.98,3.49l-0.53,0.46c-2.9,2.52-6.38,4.45-10.06,5.58c-1.02,0.31-2.06,0.57-3.07,0.81
		c-2.32,0.57-4.51,1.1-6.41,2.27c-0.57,0.35-1.12,0.77-1.63,1.24c0.13,0.09,0.25,0.2,0.33,0.34c0.14,0.25,0.17,0.55,0.07,0.82
		c-2.96,8.38-3.74,16.86-2.24,24.52c0.92,4.7,2.72,9.27,4.46,13.68l6.34,16.1c0.41,1.04,1.18,2.99,0.3,4.65
		c-0.75,1.43-2.26,1.95-3.61,2.17c2.03,4.03,5.86,7.46,10.63,9.39c4.63,1.87,10.24,2.51,16.74,1.89c4.61-0.44,8.17-1.35,11.22-2.85
		c3.68-1.82,6.49-4.58,7.91-7.77c1.53-3.44,1.56-7.69,0.07-11.65c-0.47-1.26-1.1-2.51-1.71-3.72c-0.83-1.66-1.69-3.37-2.23-5.22
		c-0.79-2.73-0.8-5.65-0.11-8.39c-1.43,0.85-3.2,1.25-5.49,1.25c-0.67,0-1.38-0.03-2.24-0.1c-2.82-0.23-5.97-0.78-7.91-3.1
		c-1.25-1.5-1.81-3.62-1.54-5.83c0.21-1.75,0.92-3.54,2.15-5.46c1.46-2.29,3.17-4,5.09-5.09c2.29-1.31,4.96-1.69,7.24-1.03
		c1.15,0.34,2.17,0.92,2.92,1.39c1.43,0.89,2.5,1.79,3.28,2.77c-0.14-0.49-0.28-0.98-0.44-1.47c-1.18-3.67-2.97-8.31-6.32-11.54
		c-0.31-0.3-0.64-0.57-0.98-0.84c-0.12-0.03-0.23-0.08-0.34-0.16c-0.94-0.68-1.95-1.26-3-1.77c-2.05-0.82-4.21-1.09-6.13-0.64
		c-0.41,0.15-0.83,0.28-1.25,0.39c-0.51,0.14-1.04-0.15-1.21-0.66c-0.16-0.5,0.09-1.05,0.59-1.24c0.42-0.16,0.86-0.3,1.3-0.41
		c0.5-0.18,0.99-0.4,1.46-0.64c0.15-0.18,0.35-0.3,0.58-0.35c0.26-0.15,0.53-0.29,0.78-0.46c0.19-0.13,0.36-0.28,0.51-0.44
		c0.05-0.25,0.04-0.5-0.09-0.7c-0.12-0.17-0.27-0.3-0.42-0.39c-0.72-0.05-1.45-0.05-2.17-0.02c-0.09,0.04-0.18,0.06-0.26,0.11
		c-0.33,0.21-0.74,0.19-1.06-0.01c-1.92,0.23-3.8,0.75-5.54,1.54C129.71,33.98,129.16,33.81,128.9,33.37z M105.09,53.49
		c0.26-2.05,1.3-4.04,3-5.23s4.05-1.46,5.88-0.48c0.75,0.4,1.43,1.04,1.63,1.87c-0.83-0.12-1.66-0.2-2.5-0.24
		c-0.92-0.05-1.85-0.05-2.74,0.18c-0.89,0.23-1.74,0.73-2.24,1.5c-0.39,0.61-0.55,1.33-0.87,1.98c-0.32,0.64-0.93,1.25-1.65,1.21
		c-0.14-0.01-0.29-0.04-0.39-0.14C105.05,53.98,105.06,53.71,105.09,53.49z M113.75,75.12c-1.9-0.27-4.09-0.72-5.85-1.98
		c-3.98-2.83-4.31-8.57-2.33-12.49c1.7-3.35,4.89-5.86,8.55-6.71c0.92-0.21,1.88-0.32,2.85-0.32c2.82,0,5.58,0.91,7.78,2.57
		c1.01,0.76,1.74,1.55,2.25,2.42c0.78,1.33,1.11,2.99,1.02,5.07c-0.18,4.24-2.38,9.29-6.89,11.02c-1.2,0.46-2.54,0.69-4.1,0.69
		C116.08,75.39,115.03,75.31,113.75,75.12z M129.21,97.55c-0.51,0.81-1.46,1.25-2.39,1.48c-2.33,0.59-4.9,0.18-6.93-1.11
		c-0.65-0.41-1.26-0.93-1.61-1.61c-0.26-0.52-0.36-1.11-0.43-1.69c-0.04-0.4-0.07-0.83,0.06-1.21c0.14-0.38,0.49-0.72,0.89-0.72
		c0.23,0,0.46,0.11,0.6,0.29c0.1,0.13,0.15,0.28,0.21,0.43c0.61,1.53,1.87,2.79,3.4,3.39c1.53,0.61,3.31,0.55,4.8-0.14
		c0.5-0.23,1.21-0.48,1.5-0.01C129.5,96.92,129.38,97.28,129.21,97.55z M140.94,45.07c1.15-1.36,3.01-2.06,4.77-1.81
		c2,0.29,3.78,1.89,4.19,3.87c0.07,0.32,0.08,0.71-0.17,0.92c-0.32,0.15-0.71,0.03-0.99-0.19c-0.28-0.22-0.48-0.52-0.69-0.8
		c-0.53-0.71-1.2-1.31-1.94-1.78c-0.45-0.28-0.94-0.52-1.47-0.56c-0.53-0.04-1.1,0.15-1.41,0.58c-0.16,0.22-0.25,0.5-0.43,0.7
		c-0.34,0.36-0.91,0.37-1.41,0.36c-0.23-0.01-0.48-0.02-0.64-0.19C140.46,45.87,140.68,45.38,140.94,45.07z M131.58,91.04
		c0.06-1.55,0.17-3.05,0.92-4.34c0.74-1.28,1.98-2.12,3.09-2.77c1.71-1,3.54-1.81,5.43-2.4c2.17-0.68,3.77-0.81,5.22-0.44
		c2,0.51,3.54,1.97,4.77,3.33c0.68,0.75,1.44,1.65,1.84,2.76c0.39,1.1,0.37,2.29,0.35,3.33c-0.03,1.48-0.05,3-0.49,4.48
		c-0.5,1.69-1.54,3.04-2.83,3.7c-0.18,0.09-0.37,0.17-0.56,0.25c-0.45,0.19-0.88,0.38-1.11,0.7c-0.15,0.21-0.22,0.5-0.3,0.81
		c-0.07,0.28-0.15,0.57-0.28,0.85c-0.27,0.55-0.87,0.94-1.44,0.94c-0.37,0-0.68-0.16-0.88-0.45l-0.05-0.09l-0.41-0.96
		c-2.35,0.35-4.79,0.2-7.08-0.41c-2.44-0.65-4.16-1.77-5.13-3.31C131.52,95.25,131.51,93.1,131.58,91.04z"/>
	<path class="st2" d="M135.53,25.27c-0.46-0.25-0.99-0.37-1.61-0.37c-0.39,0-0.76,0.05-1.07,0.09c-0.73,0.11-1.45,0.25-2.17,0.42
		c1.28-1.52,2.11-3.32,1.89-5.42c-0.04-0.38-0.3-0.71-0.66-0.84c-0.57-0.2-1.15-0.3-1.75-0.3c-2.77,0-5.18,2.12-7.3,3.98l-0.52,0.45
		c-2.69,2.34-5.92,4.13-9.33,5.18c-0.96,0.29-1.98,0.54-2.96,0.78c-2.37,0.58-4.81,1.18-6.98,2.5c-1.22,0.74-2.32,1.73-3.3,2.89
		c0.76-0.17,1.61-0.26,2.38-0.1c0.12,0.03,0.23,0.08,0.33,0.15c0.52-0.47,1.06-0.89,1.63-1.24c1.9-1.16,4.09-1.7,6.41-2.27
		c1.01-0.25,2.05-0.5,3.07-0.81c3.68-1.13,7.15-3.05,10.06-5.58l0.53-0.46c1.86-1.63,3.97-3.49,5.98-3.49
		c0.15,0,0.29,0.01,0.44,0.03c-0.17,3-3.55,5.36-6.17,6.91c-0.47,0.28-0.63,0.88-0.36,1.35c0.27,0.47,0.86,0.65,1.35,0.39
		c2.41-1.3,5.01-2.17,7.73-2.57c0.49-0.07,1.12-0.11,1.42,0.06c0.09,0.05,0.33,0.18,0.36,0.66c0.04,0.7-0.41,1.59-1.02,2.02
		c-0.6,0.42-1.32,0.7-2.08,1c-0.9,0.35-1.84,0.72-2.67,1.35c-0.41,0.31-0.52,0.87-0.25,1.31c0.26,0.44,0.81,0.61,1.27,0.4
		c1.74-0.79,3.62-1.31,5.54-1.54c-0.1-0.06-0.2-0.15-0.27-0.25c-0.31-0.42-0.25-1,0.15-1.35c0.27-0.23,0.51-0.48,0.75-0.75
		c0.41-0.72,0.64-1.54,0.59-2.32C136.87,26.55,136.37,25.73,135.53,25.27z"/>
	<path class="st2" d="M139.21,33.67c-0.25,0.17-0.52,0.31-0.78,0.46c0.12-0.02,0.24-0.03,0.37,0l0.11,0.02c0,0,0,0,0,0
		c0.27,0,0.52-0.21,0.68-0.51c0.07-0.12,0.11-0.27,0.14-0.41C139.57,33.39,139.4,33.54,139.21,33.67z"/>
	<path class="st2" d="M135.08,35.53c-0.49,0.19-0.75,0.74-0.59,1.24c0.16,0.5,0.69,0.79,1.21,0.66c0.42-0.11,0.84-0.24,1.25-0.39
		c1.92-0.44,4.08-0.17,6.13,0.64c-1.44-0.7-2.96-1.24-4.51-1.56c-0.07-0.01-0.14-0.03-0.22-0.04c-0.53-0.13-0.85-0.66-0.73-1.19
		c0.04-0.16,0.12-0.3,0.22-0.42c-0.47,0.24-0.96,0.46-1.46,0.64C135.94,35.23,135.5,35.37,135.08,35.53z"/>
	<path class="st2" d="M153.71,51.99c0.16,0.49,0.3,0.98,0.44,1.47c0.39,0.48,0.71,0.97,0.96,1.49c1.52,3.16,0.44,6.76-0.74,9.22
		c-0.57,1.2-1.52,2.93-3.08,4.08c-0.2,0.15-0.4,0.28-0.61,0.4c-0.69,2.75-0.68,5.67,0.11,8.39c0.54,1.85,1.39,3.56,2.23,5.22
		c0.61,1.21,1.23,2.46,1.71,3.72c1.49,3.96,1.46,8.21-0.07,11.65c-1.42,3.19-4.23,5.95-7.91,7.77c-3.04,1.51-6.61,2.41-11.22,2.85
		c-6.51,0.62-12.12-0.01-16.74-1.89c-4.77-1.93-8.61-5.36-10.63-9.39c-0.33,0.05-0.66,0.09-0.96,0.12
		c-0.38,0.03-0.77,0.05-1.15,0.07c2.14,4.77,6.52,8.83,12,11.05c3.71,1.5,8.01,2.27,12.78,2.27c1.57,0,3.22-0.08,4.9-0.24
		c4.86-0.46,8.65-1.43,11.91-3.05c4.1-2.03,7.24-5.13,8.85-8.75c1.74-3.92,1.79-8.72,0.12-13.17c-0.51-1.36-1.16-2.66-1.79-3.91
		c-0.83-1.65-1.61-3.21-2.09-4.88c-0.99-3.42-0.61-7.19,1.03-10.35c0.29-0.55,0.61-1.08,0.93-1.61c0.63-1.05,1.29-2.13,1.7-3.36
		c1.08-3.22,0.28-6.61-0.74-9.8c-1.25-3.9-3.17-8.82-6.84-12.37c-0.21-0.2-0.43-0.39-0.64-0.58l-0.69,0.85
		c-0.25,0.31-0.66,0.43-1.03,0.33c0.34,0.27,0.67,0.54,0.98,0.84C150.74,43.68,152.52,48.31,153.71,51.99z"/>
	<path class="st2" d="M139.2,32.14c-0.39-0.24-0.85-0.28-1.07-0.28c-0.39,0-0.76,0.1-1.1,0.26
		C137.75,32.09,138.48,32.09,139.2,32.14z"/>
	<path class="st6" d="M126.53,63.62c0.08-1.79-0.19-3.18-0.82-4.25c-0.41-0.7-1.02-1.35-1.86-1.98c-1.94-1.46-4.39-2.27-6.88-2.27
		c-0.85,0-1.7,0.1-2.51,0.28c-3.23,0.75-6.05,2.97-7.55,5.93c-1.66,3.28-1.42,8.26,1.86,10.59c1.51,1.07,3.47,1.47,5.2,1.72
		c1.21,0.17,2.19,0.25,3.08,0.25c1.37,0,2.53-0.19,3.56-0.59C124.47,71.81,126.37,67.37,126.53,63.62z M116.93,69.01
		c-1.99,0-4.01-0.79-5.55-2.16c-1.63-1.46-2.12-3.71-1.34-6.17c0.93-2.95,3.91-5.26,6.78-5.26c0.86,0,1.69,0.2,2.46,0.59
		c0.97,0.49,2.19,1.11,3.1,2.07c1.64,1.73,2.09,4.51,1.1,6.77c-0.94,2.15-3.11,3.76-5.54,4.09
		C117.62,68.99,117.27,69.01,116.93,69.01z"/>
	<path class="st2" d="M128.03,63.69c0.09-2.09-0.24-3.75-1.02-5.07c-0.51-0.87-1.25-1.67-2.25-2.42c-2.2-1.66-4.97-2.57-7.78-2.57
		c-0.97,0-1.93,0.11-2.85,0.32c-3.66,0.85-6.85,3.36-8.55,6.71c-1.98,3.92-1.65,9.66,2.33,12.49c1.77,1.26,3.95,1.71,5.85,1.98
		c1.28,0.18,2.33,0.27,3.29,0.27c1.56,0,2.9-0.23,4.1-0.69C125.65,72.97,127.85,67.92,128.03,63.69z M113.96,73.64
		c-1.73-0.25-3.69-0.64-5.2-1.72c-3.28-2.33-3.51-7.31-1.86-10.59c1.5-2.96,4.32-5.18,7.55-5.93c0.81-0.19,1.66-0.28,2.51-0.28
		c2.49,0,4.94,0.81,6.88,2.27c0.84,0.63,1.45,1.28,1.86,1.98c0.63,1.07,0.89,2.46,0.82,4.25c-0.16,3.75-2.06,8.19-5.93,9.68
		c-1.03,0.4-2.19,0.59-3.56,0.59C116.15,73.89,115.17,73.81,113.96,73.64z"/>
	<polygon class="st6" points="144.75,63.32 144.75,63.32 144.75,63.32 	"/>
	<path class="st6" d="M153.75,55.6c-0.63-1.31-1.8-2.46-3.68-3.64c-0.67-0.42-1.57-0.94-2.55-1.23c-0.6-0.18-1.23-0.26-1.89-0.26
		c-1.39,0-2.88,0.41-4.18,1.15c-1.7,0.97-3.24,2.52-4.57,4.59c-1.11,1.73-1.74,3.31-1.92,4.84c-0.22,1.8,0.22,3.5,1.21,4.68
		c1.58,1.9,4.37,2.36,6.88,2.57c0.82,0.07,1.49,0.1,2.12,0.1c2.3,0,3.96-0.43,5.21-1.36c0.98-0.73,1.82-1.84,2.62-3.52
		C154.04,61.36,155.02,58.23,153.75,55.6z M151.38,59.48c-0.86,2.54-3.56,4.32-6.58,4.34h-0.05c-1.75,0-3.34-0.56-4.48-1.57
		c-1.72-1.52-2.37-4.15-1.57-6.4c0.76-2.13,2.74-3.8,5.05-4.27c2.18-0.44,4.58,0.25,6.1,1.75C151.47,54.93,152.08,57.4,151.38,59.48
		z"/>
	<path class="st2" d="M154.36,64.17c1.18-2.46,2.27-6.06,0.74-9.22c-0.25-0.52-0.57-1.01-0.96-1.49c-0.78-0.97-1.85-1.87-3.28-2.77
		c-0.75-0.47-1.77-1.06-2.92-1.39c-2.27-0.67-4.94-0.28-7.24,1.03c-1.92,1.09-3.63,2.8-5.09,5.09c-1.23,1.93-1.93,3.71-2.15,5.46
		c-0.27,2.21,0.29,4.33,1.54,5.83c1.94,2.32,5.09,2.87,7.91,3.1c0.86,0.07,1.57,0.1,2.24,0.1c2.3,0,4.07-0.4,5.49-1.25
		c0.21-0.13,0.41-0.26,0.61-0.4C152.84,67.1,153.79,65.37,154.36,64.17z M150.39,67.04c-1.26,0.93-2.92,1.36-5.21,1.36
		c-0.63,0-1.3-0.03-2.12-0.1c-2.52-0.21-5.3-0.67-6.88-2.57c-0.99-1.18-1.43-2.89-1.21-4.68c0.19-1.52,0.81-3.11,1.92-4.84
		c1.33-2.08,2.87-3.62,4.57-4.59c1.31-0.74,2.79-1.15,4.18-1.15c0.66,0,1.29,0.09,1.89,0.26c0.98,0.29,1.87,0.81,2.55,1.23
		c1.88,1.17,3.05,2.33,3.68,3.64c1.26,2.63,0.29,5.76-0.75,7.92C152.2,65.2,151.37,66.32,150.39,67.04z"/>
	<path class="st7" d="M138.01,99.36c2.28,0.61,4.72,0.73,7.04,0.33l0.39-0.07l0.68,1.6l0.05,0.02c0.17,0,0.44-0.17,0.55-0.38
		c0.09-0.19,0.15-0.42,0.21-0.66c0.09-0.36,0.2-0.77,0.45-1.14c0.39-0.55,1-0.81,1.53-1.04c0.17-0.07,0.34-0.14,0.5-0.23
		c1.05-0.54,1.9-1.67,2.33-3.1c0.4-1.35,0.43-2.81,0.45-4.21c0.02-1.01,0.04-2.05-0.29-2.98c-0.33-0.94-1.02-1.74-1.63-2.42
		c-1.14-1.25-2.53-2.59-4.28-3.03c-1.26-0.32-2.69-0.2-4.67,0.43c-1.82,0.57-3.58,1.34-5.22,2.31c-1,0.58-2.11,1.33-2.73,2.41
		c-0.63,1.09-0.73,2.46-0.79,3.88c-0.07,1.9-0.06,3.89,0.9,5.41C134.3,97.81,135.83,98.78,138.01,99.36z M138.94,84.66
		c1.15-1.09,2.81-1.44,4.39-1.55c0.37-0.03,0.74-0.04,1.09,0.08c0.35,0.12,0.66,0.41,0.7,0.77c0,0.03,0.01,0.06-0.01,0.09
		c-0.03,0.09-0.15,0.1-0.25,0.11c-1.67,0.05-3.02,1.38-4.63,1.85c-0.36,0.11-0.75,0.17-1.1,0.04c-0.35-0.13-0.64-0.49-0.56-0.85
		C138.63,84.99,138.78,84.82,138.94,84.66z"/>
	<path d="M137.75,100.33c2.29,0.62,4.73,0.76,7.08,0.41l0.41,0.96l0.05,0.09c0.2,0.29,0.52,0.45,0.88,0.45
		c0.57,0,1.18-0.4,1.44-0.94c0.14-0.28,0.21-0.57,0.28-0.85c0.08-0.31,0.15-0.6,0.3-0.81c0.23-0.32,0.65-0.51,1.11-0.7
		c0.19-0.08,0.38-0.16,0.56-0.25c1.3-0.66,2.33-2.01,2.83-3.7c0.44-1.48,0.47-3.01,0.49-4.48c0.02-1.05,0.04-2.23-0.35-3.33
		c-0.39-1.11-1.15-2.01-1.84-2.76c-1.24-1.36-2.77-2.82-4.77-3.33c-1.45-0.37-3.05-0.24-5.22,0.44c-1.89,0.59-3.72,1.4-5.43,2.4
		c-1.11,0.65-2.35,1.49-3.09,2.77c-0.75,1.29-0.86,2.79-0.92,4.34c-0.08,2.06-0.06,4.22,1.05,5.98
		C133.59,98.56,135.32,99.68,137.75,100.33z M132.58,91.07c0.05-1.42,0.15-2.79,0.79-3.88c0.63-1.08,1.73-1.82,2.73-2.41
		c1.64-0.96,3.4-1.74,5.22-2.31c1.98-0.62,3.41-0.75,4.67-0.43c1.75,0.44,3.14,1.78,4.28,3.03c0.62,0.68,1.3,1.48,1.63,2.42
		c0.33,0.93,0.31,1.97,0.29,2.98c-0.03,1.41-0.05,2.87-0.45,4.21c-0.43,1.43-1.27,2.56-2.33,3.1c-0.16,0.08-0.33,0.15-0.5,0.23
		c-0.53,0.23-1.14,0.49-1.53,1.04c-0.26,0.36-0.36,0.77-0.45,1.14c-0.06,0.24-0.12,0.47-0.21,0.66c-0.1,0.21-0.38,0.38-0.55,0.38
		l-0.05-0.02l-0.68-1.6l-0.39,0.07c-2.33,0.4-4.77,0.28-7.04-0.33c-2.18-0.59-3.71-1.56-4.54-2.88
		C132.52,94.96,132.51,92.98,132.58,91.07z"/>
	<path class="st3" d="M107.01,95.11c1.64-0.14,2.61-0.54,2.97-1.22c0.41-0.79,0.01-1.96-0.39-2.99l-6.34-16.1
		c-1.77-4.5-3.6-9.15-4.56-14.03c-1.49-7.61-0.84-15.97,1.86-24.25c-0.35,0.06-0.7,0.16-1.01,0.26
		c-5.72,1.76-10.84,6.13-14.41,12.31c-2.82,4.88-4.69,10.65-6.06,18.73c-1.07,6.28-1.66,12.7-1.76,19.07
		c-0.01,0.8,0.01,1.69,0.44,2.13c0.27,0.29,0.77,0.46,1.25,0.62c7.68,2.63,16.39,5.6,25.01,5.6h0
		C105.02,95.24,106.03,95.2,107.01,95.11z"/>
	<path class="st2" d="M107.17,97.11c0.3-0.02,0.63-0.06,0.96-0.12c1.35-0.22,2.86-0.74,3.61-2.17c0.88-1.67,0.11-3.61-0.3-4.65
		l-6.34-16.1c-1.74-4.42-3.54-8.98-4.46-13.68c-1.5-7.67-0.73-16.15,2.24-24.52c0.1-0.27,0.07-0.57-0.07-0.82
		c-0.08-0.14-0.2-0.25-0.33-0.34c-0.1-0.07-0.21-0.12-0.33-0.15c-0.77-0.16-1.62-0.07-2.38,0.1c-0.29,0.06-0.57,0.14-0.82,0.22
		c-6.21,1.91-11.73,6.61-15.55,13.22c-2.94,5.09-4.89,11.07-6.3,19.39c-1.09,6.38-1.69,12.9-1.79,19.37
		c-0.02,1.19,0.04,2.55,0.99,3.54c0.61,0.64,1.41,0.92,2.05,1.14c7.83,2.68,16.7,5.71,25.66,5.71h0c0.67,0,1.34-0.02,2.01-0.06
		C106.41,97.16,106.79,97.14,107.17,97.11z M104.01,95.24L104.01,95.24c-8.62,0-17.33-2.98-25.01-5.6
		c-0.48-0.16-0.98-0.33-1.25-0.62c-0.43-0.45-0.45-1.34-0.44-2.13c0.1-6.37,0.69-12.79,1.76-19.07c1.38-8.08,3.25-13.85,6.06-18.73
		c3.57-6.17,8.69-10.54,14.41-12.31c0.31-0.1,0.66-0.19,1.01-0.26c-2.71,8.28-3.35,16.64-1.86,24.25c0.95,4.88,2.79,9.53,4.56,14.03
		l6.34,16.1c0.41,1.03,0.81,2.2,0.39,2.99c-0.36,0.69-1.33,1.09-2.97,1.22C106.03,95.2,105.02,95.24,104.01,95.24z"/>
	<path class="st3" d="M154.94,22.84c-0.1-0.74-0.2-1.43-0.37-2.1c-0.2-0.79-0.49-1.57-0.81-2.39c-0.4-1.05-0.82-2.13-1.03-3.3
		c-0.1-0.54,0.26-1.06,0.81-1.16c0.55-0.09,1.06,0.26,1.16,0.81c0.18,0.98,0.54,1.93,0.92,2.93c0.32,0.84,0.66,1.71,0.88,2.62
		c0.19,0.77,0.3,1.55,0.41,2.3c0.12,0.82,0.23,1.62,0.44,2.35c0.02,0,0.04,0,0.05,0.01c0.38,0.11,0.66,0.43,0.72,0.82
		c1.15,8.17,1.44,16.49,0.88,24.73c-0.03,0.37-0.08,1.14,0.18,1.37c0.2,0.18,0.75,0.18,0.99,0.18l0.12,0
		c5.83-0.05,11.73-0.6,15.41-4.29c0.97-0.98,1.53-1.96,1.65-2.91c0.15-1.17-0.34-2.45-0.77-3.58l-8.89-23.18
		c-1.95-5.08-4.37-11.4-9.27-14.96c-0.91-0.66-1.62-0.99-2.29-1.07c-0.79-0.1-1.64,0.12-2.71,0.65c-4.04,2-6.53,5.94-7.9,8.89
		c-1.36,2.92-2.28,6.12-3.16,9.21c-0.27,0.93-0.53,1.86-0.81,2.79c-0.63,2.1-1.4,4.39-2.72,6.36c1.04,0.16,1.91,0.69,2.45,1.51
		c0.6,0.9,0.62,2.11,0.05,3.17c-0.03,0.06-0.07,0.12-0.1,0.18c1.85,0.6,3.62,1.45,5.24,2.53l9.18-11.18
		C155.26,25.05,155.09,23.93,154.94,22.84z"/>
	<path class="st2" d="M141.32,17.22c-0.3,1-0.6,2-0.88,2.99c-0.26,0.92-0.53,1.84-0.8,2.76c-0.71,2.37-1.61,5-3.31,6.91
		c-0.23,0.26-0.48,0.51-0.75,0.75c-0.39,0.34-0.45,0.93-0.15,1.35c0.08,0.1,0.17,0.19,0.27,0.25c0.31,0.2,0.73,0.21,1.06,0.01
		c0.08-0.05,0.18-0.07,0.26-0.11c0.34-0.16,0.71-0.26,1.1-0.26c0.22,0,0.68,0.04,1.07,0.28c0.16,0.1,0.31,0.22,0.42,0.39
		c0.13,0.2,0.14,0.45,0.09,0.7c-0.03,0.15-0.07,0.29-0.14,0.41c-0.16,0.3-0.41,0.51-0.68,0.51c0,0,0,0,0,0l-0.11-0.02
		c-0.12-0.02-0.25-0.02-0.37,0c-0.23,0.04-0.43,0.17-0.58,0.35c-0.1,0.12-0.18,0.25-0.22,0.42c-0.12,0.53,0.21,1.06,0.73,1.19
		c0.07,0.02,0.14,0.03,0.22,0.04c1.55,0.32,3.07,0.86,4.51,1.56c1.05,0.51,2.06,1.08,3,1.77c0.1,0.08,0.22,0.13,0.34,0.16
		c0.37,0.1,0.77-0.02,1.03-0.33l0.69-0.85l8.32-10.14c0.88,7.3,1.07,14.7,0.57,22.03c-0.05,0.74-0.14,2.11,0.83,2.99
		c0.77,0.69,1.82,0.69,2.33,0.69l0.13,0c6.26-0.05,12.62-0.68,16.81-4.88c0.29-0.29,0.55-0.59,0.78-0.89
		c0.53-0.67,0.92-1.36,1.17-2.06c0.13-0.37,0.22-0.74,0.27-1.11c0.22-1.67-0.4-3.26-0.89-4.55l-8.89-23.18
		c-2.04-5.33-4.58-11.96-9.96-15.86c-0.81-0.59-1.9-1.28-3.23-1.44c-1.19-0.14-2.4,0.14-3.84,0.85c-4.55,2.26-7.31,6.59-8.83,9.83
		c-0.7,1.5-1.28,3.04-1.79,4.6C141.71,15.95,141.52,16.59,141.32,17.22z M157.03,27.74c-0.35,0-0.69-0.19-0.87-0.5
		c-0.21-0.36-0.37-0.74-0.51-1.12l-9.18,11.18c-1.62-1.07-3.39-1.93-5.24-2.53c0.04-0.06,0.07-0.12,0.1-0.18
		c0.57-1.06,0.55-2.27-0.05-3.17c-0.54-0.81-1.42-1.34-2.45-1.51c1.32-1.97,2.09-4.26,2.72-6.36c0.28-0.93,0.54-1.86,0.81-2.79
		c0.88-3.09,1.8-6.29,3.16-9.21c1.38-2.95,3.87-6.88,7.9-8.89c1.07-0.53,1.92-0.75,2.71-0.65c0.68,0.08,1.38,0.41,2.29,1.07
		c4.89,3.55,7.32,9.88,9.27,14.96l8.89,23.18c0.43,1.13,0.92,2.41,0.77,3.58c-0.12,0.95-0.68,1.93-1.65,2.91
		c-3.68,3.69-9.58,4.25-15.41,4.29l-0.12,0c-0.24,0-0.79,0-0.99-0.18c-0.26-0.23-0.2-1-0.18-1.37c0.56-8.23,0.27-16.55-0.88-24.73
		c-0.06-0.39-0.34-0.72-0.72-0.82c-0.02-0.01-0.04,0-0.05-0.01c0.06,0.2,0.12,0.41,0.19,0.6c0.29,0.18,0.48,0.49,0.48,0.85l0,0.38
		c0,0.45-0.3,0.85-0.74,0.97C157.2,27.73,157.12,27.74,157.03,27.74z"/>
	<path class="st7" d="M122.57,64.45c0.83-1.9,0.46-4.24-0.91-5.68c-0.73-0.77-1.67-1.28-2.82-1.86c-0.63-0.32-1.3-0.48-2.01-0.48
		c-2.46,0-5.02,2-5.83,4.56c-0.65,2.07-0.27,3.94,1.05,5.13c1.58,1.42,3.73,2.13,5.77,1.85C119.9,67.66,121.77,66.28,122.57,64.45z
		 M117.51,60.62c-0.12,0.25-0.29,0.48-0.5,0.65c-0.59,0.5-1.53,0.53-2.16,0.07c-0.63-0.46-0.88-1.36-0.59-2.08s1.1-1.19,1.87-1.08
		c0.25,0.04,0.49,0.12,0.71,0.24c0.28,0.15,0.53,0.35,0.69,0.63C117.8,59.52,117.75,60.13,117.51,60.62z"/>
	<path d="M123.49,64.85c0.99-2.26,0.53-5.04-1.1-6.77c-0.91-0.96-2.12-1.57-3.1-2.07c-0.77-0.39-1.6-0.59-2.46-0.59
		c-2.87,0-5.85,2.31-6.78,5.26c-0.78,2.46-0.29,4.71,1.34,6.17c1.53,1.38,3.55,2.16,5.55,2.16c0.34,0,0.69-0.02,1.03-0.07
		C120.38,68.6,122.55,67,123.49,64.85z M112.05,66.1c-1.32-1.19-1.71-3.06-1.05-5.13c0.81-2.56,3.37-4.56,5.83-4.56
		c0.7,0,1.38,0.16,2.01,0.48c1.15,0.58,2.09,1.09,2.82,1.86c1.37,1.44,1.75,3.78,0.91,5.68c-0.8,1.84-2.67,3.21-4.76,3.5
		C115.78,68.24,113.63,67.52,112.05,66.1z"/>
	<path class="st7" d="M144.79,62.82c2.56-0.02,4.93-1.55,5.64-3.66c0.58-1.73,0.07-3.78-1.28-5.12c-1.03-1.01-2.5-1.6-4.04-1.6
		c-0.39,0-0.78,0.04-1.16,0.12c-1.97,0.4-3.66,1.82-4.3,3.62c-0.66,1.87-0.13,4.06,1.29,5.32c0.96,0.85,2.31,1.32,3.82,1.32v0.5l0,0
		L144.79,62.82z M144.02,56.48c-0.21-0.06-0.42-0.13-0.59-0.27c-0.36-0.28-0.48-0.8-0.36-1.24c0.22-0.77,1.19-1.22,1.92-0.9
		c0.73,0.32,1.06,1.34,0.64,2.02c-0.11,0.19-0.27,0.35-0.47,0.44C144.8,56.69,144.39,56.6,144.02,56.48z"/>
	<path d="M143.75,51.59c-2.31,0.47-4.29,2.14-5.05,4.27c-0.8,2.25-0.15,4.88,1.57,6.4c1.14,1.01,2.73,1.57,4.48,1.57h0.05
		c3.02-0.02,5.73-1.8,6.58-4.34c0.7-2.08,0.09-4.55-1.53-6.15C148.33,51.83,145.94,51.15,143.75,51.59z M144.75,63.32v-0.5
		c-1.5,0-2.86-0.47-3.82-1.32c-1.42-1.26-1.95-3.45-1.29-5.32c0.64-1.8,2.33-3.23,4.3-3.62c0.38-0.08,0.77-0.12,1.16-0.12
		c1.54,0,3.01,0.58,4.04,1.6c1.35,1.33,1.87,3.39,1.28,5.12c-0.71,2.11-3.08,3.64-5.64,3.66L144.75,63.32L144.75,63.32L144.75,63.32
		z"/>
	<path class="st6" d="M145.63,56.09c0.41-0.69,0.09-1.7-0.64-2.02c-0.73-0.32-1.7,0.14-1.92,0.9c-0.13,0.44-0.01,0.96,0.36,1.24
		c0.17,0.13,0.38,0.2,0.59,0.27c0.37,0.11,0.79,0.21,1.14,0.05C145.36,56.44,145.52,56.28,145.63,56.09z"/>
	<path class="st6" d="M116.83,58.43c-0.22-0.12-0.46-0.21-0.71-0.24c-0.77-0.11-1.58,0.36-1.87,1.08s-0.03,1.62,0.59,2.08
		c0.63,0.46,1.56,0.43,2.16-0.07c0.21-0.18,0.38-0.41,0.5-0.65c0.24-0.49,0.29-1.09,0.02-1.56
		C117.36,58.79,117.11,58.58,116.83,58.43z"/>
	<path class="st8" d="M127.83,96.66c-1.49,0.7-3.27,0.75-4.8,0.14c-1.53-0.61-2.79-1.86-3.4-3.39c-0.06-0.15-0.12-0.3-0.21-0.43
		c-0.14-0.18-0.37-0.29-0.6-0.29c-0.41,0-0.75,0.33-0.89,0.72c-0.14,0.38-0.11,0.8-0.06,1.21c0.06,0.58,0.16,1.17,0.43,1.69
		c0.35,0.68,0.96,1.2,1.61,1.61c2.03,1.29,4.6,1.7,6.93,1.11c0.93-0.24,1.88-0.67,2.39-1.48c0.17-0.27,0.28-0.63,0.11-0.9
		C129.04,96.19,128.33,96.43,127.83,96.66z"/>
	<path class="st8" d="M105.6,54.28c0.72,0.04,1.32-0.56,1.65-1.21c0.32-0.64,0.48-1.37,0.87-1.98c0.5-0.77,1.35-1.27,2.24-1.5
		c0.89-0.23,1.82-0.23,2.74-0.18c0.84,0.04,1.67,0.12,2.5,0.24c-0.21-0.83-0.88-1.47-1.63-1.87c-1.82-0.97-4.18-0.7-5.88,0.48
		s-2.74,3.17-3,5.23c-0.03,0.23-0.04,0.49,0.13,0.65C105.31,54.23,105.46,54.27,105.6,54.28z"/>
	<path class="st8" d="M141.38,46.35c0.5,0.02,1.07,0.01,1.41-0.36c0.19-0.2,0.27-0.47,0.43-0.7c0.31-0.43,0.88-0.62,1.41-0.58
		c0.53,0.04,1.02,0.28,1.47,0.56c0.75,0.47,1.41,1.08,1.94,1.78c0.21,0.28,0.41,0.59,0.69,0.8c0.28,0.22,0.67,0.34,0.99,0.19
		c0.25-0.22,0.24-0.6,0.17-0.92c-0.41-1.98-2.19-3.57-4.19-3.87c-1.76-0.26-3.63,0.45-4.77,1.81c-0.26,0.31-0.48,0.81-0.2,1.1
		C140.9,46.33,141.16,46.34,141.38,46.35z"/>
	<path class="st2" d="M70.52,154.75c4.35-6.06,6.22-13.77,5.14-21.15c-0.4-2.75-1.18-5.17-2.31-7.18c-2.97-5.28-9.03-8.6-15.07-8.26
		c-0.55,0.03-0.97,0.5-0.94,1.05c0.03,0.55,0.51,0.98,1.06,0.94c5.3-0.29,10.62,2.61,13.22,7.24c1.01,1.8,1.71,3.99,2.08,6.5
		c1.01,6.87-0.74,14.05-4.79,19.7l-0.23,0.32c-0.32,0.44-0.65,0.9-0.94,1.41c-0.24,0.42-0.13,0.92,0.22,1.23
		c0.05,0.05,0.09,0.1,0.16,0.14c0.16,0.09,0.33,0.13,0.49,0.13c0.35,0,0.69-0.18,0.87-0.51c0.13-0.23,0.28-0.45,0.44-0.68
		c0.12-0.18,0.25-0.36,0.39-0.54L70.52,154.75z"/>
	<path class="st2" d="M97.07,126.51c0.19-0.52-0.08-1.09-0.6-1.28c-0.52-0.19-1.09,0.08-1.28,0.6c-3.24,8.9-4.59,18.51-3.97,27.97
		c0.06,0.95,0.12,1.91,0.23,2.85c0.06,0.51,0.49,0.89,0.99,0.89c0.04,0,0.07,0,0.11-0.01c0.17-0.02,0.31-0.08,0.44-0.17
		c0.3-0.2,0.49-0.55,0.45-0.93c-0.06-0.58-0.09-1.16-0.14-1.74c-0.06-0.68-0.13-1.35-0.16-2.03c0-0.02,0-0.04,0-0.06
		C92.7,143.76,94.04,134.81,97.07,126.51z"/>
	<path class="st2" d="M78.67,146.28c1.58-8.52,1.76-17.2,0.55-25.78c-0.08-0.55-0.59-0.93-1.13-0.85c-0.55,0.08-0.93,0.58-0.85,1.13
		c1.19,8.37,1.01,16.83-0.53,25.13c-0.21,1.15-0.45,2.29-0.69,3.43c-0.4,1.9-0.79,3.85-1.07,5.81c-0.1,0.71-0.18,1.42-0.25,2.13
		c-0.03,0.34-0.08,0.67-0.1,1.01c-0.01,0.22,0.06,0.43,0.18,0.6c0.17,0.25,0.43,0.44,0.76,0.46c0.02,0,0.04,0,0.06,0
		c0.52,0,0.96-0.41,1-0.94c0.07-1.08,0.21-2.17,0.37-3.26c0.28-1.82,0.64-3.64,1.01-5.41C78.21,148.6,78.45,147.44,78.67,146.28z"/>
	<path class="st2" d="M118.44,139.27l-0.06-1.27l-0.46-9.66c-0.03-0.55-0.5-0.98-1.05-0.95c-0.55,0.03-0.98,0.5-0.95,1.05l0.46,9.67
		l0.09,1.93c0.03,0.54,0.47,0.95,1,0.95c0.02,0,0.03,0,0.05,0c0.46-0.02,0.82-0.36,0.91-0.79c0.02-0.08,0.04-0.16,0.04-0.25
		L118.44,139.27z"/>
	<path class="st2" d="M135.14,163.94c0.54-0.13,0.86-0.68,0.73-1.21c-0.13-0.54-0.68-0.86-1.21-0.73c-4.25,1.07-8.2,3.29-11.41,6.3
		c-1.38,1.29-2.64,2.72-3.71,4.28c-0.31,0.46-0.19,1.08,0.27,1.39c0.17,0.12,0.37,0.17,0.56,0.17c0.32,0,0.63-0.15,0.83-0.44
		c0.01-0.01,0.02-0.03,0.03-0.04C124.47,168.89,129.54,165.35,135.14,163.94z"/>
	<path class="st2" d="M50.06,153.04c1.81-0.11,3.68,0.25,5.49,0.61l2.25,0.44c1.38,0.27,2.81,0.55,4.14,1
		c0.11,0.04,0.22,0.05,0.32,0.05c0.42,0,0.81-0.26,0.95-0.68c0.18-0.52-0.1-1.09-0.63-1.27c-1.46-0.5-2.95-0.79-4.4-1.07l-2.25-0.44
		c-1.64-0.32-3.33-0.63-5.07-0.65c-0.31,0-0.61-0.02-0.93,0c-0.55,0.03-0.97,0.51-0.94,1.06c0.02,0.27,0.14,0.5,0.33,0.67
		C49.53,152.95,49.79,153.05,50.06,153.04z"/>
	<path class="st2" d="M50.33,157.65c0.22-0.51-0.01-1.1-0.52-1.31c-0.51-0.22-1.1,0.01-1.31,0.52c-1.18,2.74-2.02,5.61-2.53,8.54
		c-0.11,0.64-0.23,1.29-0.3,1.93c-0.07,0.55,0.32,1.05,0.87,1.11c0.04,0,0.08,0.01,0.12,0.01c0.36,0,0.68-0.2,0.85-0.49
		c0.07-0.12,0.12-0.24,0.14-0.39C48.07,164.15,48.97,160.81,50.33,157.65z"/>
	<path class="st2" d="M57.7,160.01c0-0.55-0.45-1-1-1c-0.48,0-1.06,0.3-1.26,1.13l-1.94,8.25c-0.04,0.18-0.02,0.36,0.04,0.53
		c0.1,0.32,0.35,0.59,0.71,0.68c0.08,0.02,0.15,0.03,0.23,0.03c0.45,0,0.86-0.31,0.97-0.77l0.65-2.77l1.25-5.31
		C57.56,160.59,57.7,160.32,57.7,160.01z"/>
	<path class="st2" d="M64.38,161.1c-0.01,0-0.01,0-0.02,0c-0.55,0.01-0.99,0.47-0.98,1.02c0.03,1.77-0.1,3.55-0.38,5.3
		c-0.07,0.43-0.14,0.86-0.23,1.29c-0.11,0.54,0.23,1.07,0.78,1.18c0.07,0.01,0.14,0.02,0.2,0.02c0.46,0,0.88-0.32,0.98-0.8
		c0.07-0.32,0.11-0.63,0.17-0.95c0.35-2.01,0.52-4.05,0.49-6.08C65.37,161.54,64.93,161.1,64.38,161.1z"/>
	<path class="st2" d="M72.93,175.3c-0.53-0.12-1.07,0.22-1.19,0.76c-0.57,2.55-1.03,5.15-1.37,7.75c-0.1,0.74-0.19,1.47-0.26,2.21
		c-0.06,0.55,0.34,1.04,0.89,1.1c0.04,0,0.07,0,0.1,0c0.51,0,0.94-0.38,0.99-0.9c0.03-0.28,0.07-0.57,0.1-0.85
		c0.34-2.98,0.83-5.96,1.49-8.88C73.81,175.96,73.47,175.42,72.93,175.3z"/>
	<path class="st2" d="M81.02,185.02c0-0.01,0-0.01,0-0.02l-0.26-8.67c-0.02-0.55-0.44-0.98-1.03-0.97
		c-0.55,0.02-0.99,0.48-0.97,1.03l0.19,6.54l0.06,2.13c0.01,0.26,0.03,1.04,0.71,1.45c0.16,0.1,0.34,0.15,0.52,0.15
		c0.34,0,0.66-0.17,0.85-0.48c0.08-0.13,0.12-0.27,0.13-0.42C81.26,185.51,81.19,185.23,81.02,185.02z"/>
	<path class="st2" d="M86.99,176.31c-0.13-0.54-0.68-0.86-1.21-0.73c-0.54,0.13-0.86,0.67-0.73,1.21c0.65,2.64,0.74,5.42,0.27,8.1
		c-0.07,0.39-0.15,0.77-0.24,1.15c0,0.02-0.01,0.03-0.01,0.05c-0.05,0.21-0.01,0.41,0.06,0.59c0.11,0.29,0.35,0.54,0.68,0.62
		c0.08,0.02,0.16,0.03,0.24,0.03c0.45,0,0.86-0.31,0.97-0.77c0.08-0.34,0.15-0.69,0.22-1.04C87.8,182.48,87.73,179.32,86.99,176.31z
		"/>
	<path class="st2" d="M90.74,168.86l-0.93,0.03c-3.65,0.13-7.43,0.27-11.09-0.07c-0.56-0.06-1.04,0.35-1.09,0.9s0.35,1.04,0.9,1.09
		c1.77,0.17,3.56,0.22,5.34,0.22c2.02,0,4.04-0.07,6.01-0.15l1.85-0.07l0.72-0.03c0.55-0.02,0.98-0.48,0.96-1.04
		c-0.01-0.23-0.1-0.42-0.23-0.59c-0.12-0.14-0.26-0.26-0.44-0.32c-0.11-0.04-0.24-0.06-0.37-0.06L90.74,168.86z"/>
	<path class="st2" d="M173.09,90.86c-1.5,3.35-3.04,6.81-5.19,9.8c-0.32,0.45-0.22,1.07,0.23,1.4c0.18,0.13,0.38,0.19,0.58,0.19
		c0.31,0,0.62-0.14,0.81-0.42c2.27-3.16,3.86-6.71,5.39-10.15c1.85-4.14,3.76-8.42,4.57-13.04c0.83-4.77,0.43-9.6,0.04-14.27
		c-0.05-0.55-0.53-0.97-1.08-0.91c-0.55,0.05-0.96,0.53-0.91,1.08c0.38,4.54,0.77,9.24-0.01,13.76
		C176.75,82.67,174.89,86.84,173.09,90.86z"/>
	<path class="st2" d="M80.98,36.16c0.39-0.39,0.38-1.03-0.01-1.41c-0.39-0.39-1.03-0.38-1.41,0.01c-2.37,2.42-4.27,5.59-5.99,9.98
		c-2.13,5.46-3.1,10.38-2.97,15.04c0.02,0.54,0.46,0.97,1,0.97c0.01,0,0.02,0,0.03,0c0.55-0.02,0.99-0.48,0.97-1.03
		c-0.13-4.39,0.8-9.05,2.83-14.26C77.04,41.33,78.81,38.37,80.98,36.16z"/>
	<path class="st6" d="M139.15,86.06c0.35,0.13,0.74,0.06,1.1-0.04c1.6-0.48,2.95-1.8,4.63-1.85c0.1,0,0.22-0.02,0.25-0.11
		c0.01-0.03,0.01-0.06,0.01-0.09c-0.04-0.36-0.36-0.65-0.7-0.77c-0.35-0.12-0.72-0.11-1.09-0.08c-1.58,0.11-3.24,0.46-4.39,1.55
		c-0.16,0.15-0.32,0.33-0.36,0.55C138.51,85.57,138.8,85.94,139.15,86.06z"/>
	<path class="st2" d="M158.03,26.73l0-0.38c0-0.36-0.19-0.68-0.48-0.85c-0.07-0.19-0.14-0.4-0.19-0.6
		c-0.21-0.73-0.32-1.53-0.44-2.35c-0.11-0.75-0.22-1.53-0.41-2.3c-0.23-0.91-0.56-1.78-0.88-2.62c-0.39-1-0.75-1.95-0.92-2.93
		c-0.1-0.54-0.61-0.9-1.16-0.81c-0.54,0.1-0.91,0.62-0.81,1.16c0.21,1.17,0.62,2.25,1.03,3.3c0.31,0.82,0.61,1.59,0.81,2.39
		c0.17,0.67,0.27,1.36,0.37,2.1c0.16,1.09,0.32,2.21,0.71,3.28c0.14,0.38,0.31,0.75,0.51,1.12c0.18,0.32,0.52,0.5,0.87,0.5
		c0.09,0,0.17-0.01,0.26-0.03C157.73,27.59,158.03,27.19,158.03,26.73z"/>
	<path class="st0" d="M128.9,33.37c-0.26-0.44-0.15-1,0.25-1.31c0.84-0.63,1.77-1,2.67-1.35c0.76-0.3,1.48-0.58,2.08-1
		c0.61-0.43,1.06-1.32,1.02-2.02c-0.03-0.48-0.27-0.61-0.36-0.66c-0.31-0.17-0.93-0.13-1.42-0.06c-2.72,0.4-5.32,1.27-7.73,2.57
		c-0.48,0.26-1.08,0.08-1.35-0.39c-0.27-0.47-0.11-1.08,0.36-1.35c2.62-1.55,6-3.91,6.17-6.91c-0.14-0.02-0.29-0.03-0.44-0.03
		c-2.01,0-4.12,1.85-5.98,3.49l-0.53,0.46c-2.9,2.52-6.38,4.45-10.06,5.58c-1.02,0.31-2.06,0.57-3.07,0.81
		c-2.32,0.57-4.51,1.1-6.41,2.27c-0.57,0.35-1.12,0.77-1.63,1.24c0.13,0.09,0.25,0.2,0.33,0.34c0.14,0.25,0.17,0.55,0.07,0.82
		c-2.96,8.38-3.74,16.86-2.24,24.52c0.92,4.7,2.72,9.27,4.46,13.68l6.34,16.1c0.41,1.04,1.18,2.99,0.3,4.65
		c-0.75,1.43-2.26,1.95-3.61,2.17c2.03,4.03,5.86,7.46,10.63,9.39c4.63,1.87,10.24,2.51,16.74,1.89c4.61-0.44,8.17-1.35,11.22-2.85
		c3.68-1.82,6.49-4.58,7.91-7.77c1.53-3.44,1.56-7.69,0.07-11.65c-0.47-1.26-1.1-2.51-1.71-3.72c-0.83-1.66-1.69-3.37-2.23-5.22
		c-0.79-2.73-0.8-5.65-0.11-8.39c-1.43,0.85-3.2,1.25-5.49,1.25c-0.67,0-1.38-0.03-2.24-0.1c-2.82-0.23-5.97-0.78-7.91-3.1
		c-1.25-1.5-1.81-3.62-1.54-5.83c0.21-1.75,0.92-3.54,2.15-5.46c1.46-2.29,3.17-4,5.09-5.09c2.29-1.31,4.96-1.69,7.24-1.03
		c1.15,0.34,2.17,0.92,2.92,1.39c1.43,0.89,2.5,1.79,3.28,2.77c-0.14-0.49-0.28-0.98-0.44-1.47c-1.18-3.67-2.97-8.31-6.32-11.54
		c-0.31-0.3-0.64-0.57-0.98-0.84c-0.12-0.03-0.23-0.08-0.34-0.16c-0.94-0.68-1.95-1.26-3-1.77c-2.05-0.82-4.21-1.09-6.13-0.64
		c-0.41,0.15-0.83,0.28-1.25,0.39c-0.51,0.14-1.04-0.15-1.21-0.66c-0.16-0.5,0.09-1.05,0.59-1.24c0.42-0.16,0.86-0.3,1.3-0.41
		c0.5-0.18,0.99-0.4,1.46-0.64c0.15-0.18,0.35-0.3,0.58-0.35c0.26-0.15,0.53-0.29,0.78-0.46c0.19-0.13,0.36-0.28,0.51-0.44
		c0.05-0.25,0.04-0.5-0.09-0.7c-0.12-0.17-0.27-0.3-0.42-0.39c-0.72-0.05-1.45-0.05-2.17-0.02c-0.09,0.04-0.18,0.06-0.26,0.11
		c-0.33,0.21-0.74,0.19-1.06-0.01c-1.92,0.23-3.8,0.75-5.54,1.54C129.71,33.98,129.16,33.81,128.9,33.37z M105.09,53.49
		c0.26-2.05,1.3-4.04,3-5.23s4.05-1.46,5.88-0.48c0.75,0.4,1.43,1.04,1.63,1.87c-0.83-0.12-1.66-0.2-2.5-0.24
		c-0.92-0.05-1.85-0.05-2.74,0.18c-0.89,0.23-1.74,0.73-2.24,1.5c-0.39,0.61-0.55,1.33-0.87,1.98c-0.32,0.64-0.93,1.25-1.65,1.21
		c-0.14-0.01-0.29-0.04-0.39-0.14C105.05,53.98,105.06,53.71,105.09,53.49z M113.75,75.12c-1.9-0.27-4.09-0.72-5.85-1.98
		c-3.98-2.83-4.31-8.57-2.33-12.49c1.7-3.35,4.89-5.86,8.55-6.71c0.92-0.21,1.88-0.32,2.85-0.32c2.82,0,5.58,0.91,7.78,2.57
		c1.01,0.76,1.74,1.55,2.25,2.42c0.78,1.33,1.11,2.99,1.02,5.07c-0.18,4.24-2.38,9.29-6.89,11.02c-1.2,0.46-2.54,0.69-4.1,0.69
		C116.08,75.39,115.03,75.31,113.75,75.12z M129.21,97.55c-0.51,0.81-1.46,1.25-2.39,1.48c-2.33,0.59-4.9,0.18-6.93-1.11
		c-0.65-0.41-1.26-0.93-1.61-1.61c-0.26-0.52-0.36-1.11-0.43-1.69c-0.04-0.4-0.07-0.83,0.06-1.21c0.14-0.38,0.49-0.72,0.89-0.72
		c0.23,0,0.46,0.11,0.6,0.29c0.1,0.13,0.15,0.28,0.21,0.43c0.61,1.53,1.87,2.79,3.4,3.39c1.53,0.61,3.31,0.55,4.8-0.14
		c0.5-0.23,1.21-0.48,1.5-0.01C129.5,96.92,129.38,97.28,129.21,97.55z M140.94,45.07c1.15-1.36,3.01-2.06,4.77-1.81
		c2,0.29,3.78,1.89,4.19,3.87c0.07,0.32,0.08,0.71-0.17,0.92c-0.32,0.15-0.71,0.03-0.99-0.19c-0.28-0.22-0.48-0.52-0.69-0.8
		c-0.53-0.71-1.2-1.31-1.94-1.78c-0.45-0.28-0.94-0.52-1.47-0.56c-0.53-0.04-1.1,0.15-1.41,0.58c-0.16,0.22-0.25,0.5-0.43,0.7
		c-0.34,0.36-0.91,0.37-1.41,0.36c-0.23-0.01-0.48-0.02-0.64-0.19C140.46,45.87,140.68,45.38,140.94,45.07z M131.58,91.04
		c0.06-1.55,0.17-3.05,0.92-4.34c0.74-1.28,1.98-2.12,3.09-2.77c1.71-1,3.54-1.81,5.43-2.4c2.17-0.68,3.77-0.81,5.22-0.44
		c2,0.51,3.54,1.97,4.77,3.33c0.68,0.75,1.44,1.65,1.84,2.76c0.39,1.1,0.37,2.29,0.35,3.33c-0.03,1.48-0.05,3-0.49,4.48
		c-0.5,1.69-1.54,3.04-2.83,3.7c-0.18,0.09-0.37,0.17-0.56,0.25c-0.45,0.19-0.88,0.38-1.11,0.7c-0.15,0.21-0.22,0.5-0.3,0.81
		c-0.07,0.28-0.15,0.57-0.28,0.85c-0.27,0.55-0.87,0.94-1.44,0.94c-0.37,0-0.68-0.16-0.88-0.45l-0.05-0.09l-0.41-0.96
		c-2.35,0.35-4.79,0.2-7.08-0.41c-2.44-0.65-4.16-1.77-5.13-3.31C131.52,95.25,131.51,93.1,131.58,91.04z"/>
	<path class="st9" d="M103.24,74.8c-1.77-4.5-3.6-9.15-4.56-14.03c-1.49-7.61-0.84-15.97,1.86-24.25c-0.35,0.06-0.7,0.16-1.01,0.26
		c-0.72,0.22-1.44,0.49-2.14,0.79c-4.71,8.43-5.51,19.04-1.84,28.01c2.24,5.48,6.05,10.54,6.38,16.45c0.08,1.52-0.1,3.13-0.99,4.36
		c-0.83,1.15-2.18,1.83-3.52,2.3c-5.13,1.82-10.75,1.36-16.19,1.6c-0.09,0-0.18,0.01-0.28,0.02c7.18,2.44,15.15,4.93,23.04,4.93h0
		c1.01,0,2.02-0.04,3-0.12c1.64-0.14,2.61-0.54,2.97-1.22c0.41-0.79,0.01-1.96-0.39-2.99L103.24,74.8z"/>
	<path class="st9" d="M160.88,46.94c-1-2.31-1.2-4.88-1.27-7.39c-0.17-6.84,0.56-13.75-0.55-20.51c-0.27-1.62-0.66-3.29-1.7-4.56
		s-2.87-2.04-4.37-1.38c-2.47,1.08-2.27,4.54-2.32,7.23c-0.11,6.06-4.05,11.74-9.43,14.43c0,0.01-0.01,0.01-0.01,0.02
		c1.85,0.6,3.62,1.45,5.24,2.53l9.18-11.18c-0.39-1.07-0.56-2.19-0.71-3.28c-0.1-0.74-0.2-1.43-0.37-2.1
		c-0.2-0.79-0.49-1.57-0.81-2.39c-0.4-1.05-0.82-2.13-1.03-3.3c-0.1-0.54,0.26-1.06,0.81-1.16c0.55-0.09,1.06,0.26,1.16,0.81
		c0.18,0.98,0.54,1.93,0.92,2.93c0.32,0.84,0.66,1.71,0.88,2.62c0.19,0.77,0.3,1.55,0.41,2.3c0.12,0.82,0.23,1.62,0.44,2.35
		c0.02,0,0.04,0,0.05,0.01c0.38,0.11,0.66,0.43,0.72,0.82c1.15,8.17,1.44,16.49,0.88,24.73c-0.03,0.37-0.08,1.14,0.18,1.37
		c0.2,0.18,0.75,0.18,0.99,0.18l0.12,0c1.91-0.02,3.83-0.09,5.67-0.31C163.66,51.08,161.84,49.15,160.88,46.94z"/>
	<path class="st10" d="M138.19,163.73c-0.96-0.67-1.37-1.74-1.67-2.79c-1.83-6.41-1.81-13.16-1.79-19.7c0.02-5.37,0.03-10.9-1-16.16
		c-0.5,0.01-1,0.02-1.5,0.02c0,0,0,0,0,0c-5.04,0-10.37-0.65-16.29-1.97c-4.36-0.98-8.48-2.24-12.36-3.73
		c-6.28-2.19-12.24-5.27-17.59-9.17c-0.83-0.61-1.59-1.21-2.33-1.81c3.53,5.89,10.27,9.74,16.98,11.86
		c8.02,2.54,16.57,3.37,24.29,6.7c1.5,0.65,2.99,1.41,4.09,2.62c1.9,2.09,2.3,5.1,2.6,7.91c0.68,6.27,1.36,12.55,2.04,18.82
		c0.35,3.24,1.71,7.39,4.81,7.56C138.39,163.83,138.29,163.79,138.19,163.73z"/>
	<path class="st10" d="M93.08,148.41c-0.02,1.39-0.01,2.79,0.06,4.18c0.15-0.02,0.29-0.04,0.44-0.07l2.26-0.65
		c0.6-0.17,1.28-0.35,2-0.37c7.42-2.28,14.08-7.05,18.54-13.41l-0.19-4.01C111.26,142.09,102.43,147.56,93.08,148.41z"/>
	<g>
		<path class="st10" d="M55.55,153.65c-1.81-0.36-3.68-0.72-5.49-0.61c-0.28,0.01-0.54-0.09-0.73-0.27
			c-3.08,0.62-5.87,2.5-7.56,5.16c-1.85,2.91-2.31,6.6-1.23,9.87c0.17,0.51,0.42,1.15,0.86,1.47c0.61,0.45,1.75,0.24,2.48-0.41
			c0.02-0.02,0.03-0.04,0.05-0.06c0.2-1.54,0.05-3.15,0.03-4.72c-0.02-2.56,0.37-5.11,1.17-7.54c0.24-0.73,0.54-1.48,1.14-1.96
			c0.74-0.6,1.77-0.64,2.72-0.66c2.4-0.05,4.79-0.1,7.19-0.15L55.55,153.65z"/>
		<path class="st10" d="M51.51,119.4c-2.45,2.93-4.3,6.37-5.4,10.04c0.11,0.16,0.18,0.34,0.19,0.55l0.49,14.69
			c0.02,0.52,0.02,1.12-0.06,1.72c0.82,1.7,2.03,3.35,3.83,4.35c0.13,0.07,0.23,0.18,0.31,0.29c1.74,0.02,3.43,0.32,5.07,0.65
			l0.5,0.1c-2.36-1.56-4.26-3.94-5.39-6.56c-1.9-4.41-1.96-9.39-1.53-14.17C49.88,127.13,50.55,123.22,51.51,119.4z"/>
	</g>
	<path class="st10" d="M148.49,104.41c-8.59,3.02-18.11,3.43-26.88,0.93c-2.98-0.85-6.14-2.26-7.39-5.09
		c-0.71-1.6-0.69-3.41-0.65-5.16c0.07-3.48,0.14-7.01-0.73-10.38c-2.16-8.3-9.76-14.52-11.29-22.96
		c-0.98-5.38,0.67-10.84,1.54-16.24c0.58-3.61,0.7-7.56-0.41-10.97c-0.06,0.06-0.13,0.1-0.19,0.16c0.13,0.09,0.25,0.2,0.33,0.34
		c0.14,0.25,0.17,0.55,0.07,0.82c-2.96,8.38-3.74,16.86-2.24,24.52c0.92,4.7,2.72,9.27,4.46,13.68l6.34,16.1
		c0.41,1.04,1.18,2.99,0.3,4.65c-0.75,1.43-2.26,1.95-3.61,2.17c2.03,4.03,5.86,7.46,10.63,9.39c4.63,1.87,10.24,2.51,16.74,1.89
		c4.61-0.44,8.17-1.35,11.22-2.85C147.35,105.11,147.93,104.77,148.49,104.41z"/>
	<g>
		<path class="st11" d="M91.39,99.18c5.06,0.18,10.14-0.17,15.13-1.03c-0.17-0.32-0.35-0.64-0.5-0.97
			c-0.67,0.03-1.34,0.06-2.01,0.06h0c-7.73,0-15.4-2.26-22.39-4.6c0.3,1.31,0.73,2.61,1.57,3.65C85.07,98.61,88.4,99.07,91.39,99.18
			z"/>
		<path class="st11" d="M160.39,82.19c-1-2.38-2.18-4.74-2.51-7.3c-0.45-3.46,0.66-6.91,1.29-10.34c0.64-3.47,0.74-7.1,0.19-10.59
			c-0.49-0.07-1.06-0.23-1.52-0.65c-0.98-0.88-0.88-2.25-0.83-2.99c0.08-1.15,0.13-2.31,0.18-3.46c-0.49-1.02-1.05-2.01-1.7-2.95
			c-1.74-2.53-4.13-4.65-6.84-6.12l-0.53,0.64c0.22,0.19,0.44,0.38,0.64,0.58c3.67,3.54,5.58,8.47,6.84,12.37
			c1.03,3.19,1.83,6.58,0.74,9.8c-0.41,1.23-1.07,2.31-1.7,3.36c-0.32,0.53-0.64,1.06-0.93,1.61c-1.64,3.16-2.02,6.93-1.03,10.35
			c0.48,1.67,1.27,3.23,2.09,4.88c0.63,1.26,1.28,2.55,1.79,3.91c1.67,4.45,1.63,9.25-0.12,13.17c-1.61,3.61-4.75,6.72-8.85,8.75
			c-3.27,1.62-7.05,2.59-11.91,3.05c-1.69,0.16-3.34,0.24-4.9,0.24c-4.59,0-8.74-0.71-12.35-2.11c2.99,2.82,6.97,4.73,11.05,5.39
			c7.2,1.17,14.57-0.93,21.12-4.14c4.42-2.16,8.81-5.06,10.95-9.49C164.26,94.58,162.8,87.89,160.39,82.19z"/>
	</g>
</g>
</svg>
