<?xml version="1.0" encoding="utf-8"?>
<!-- Generator: Adobe Illustrator 23.0.3, SVG Export Plug-In . SVG Version: 6.00 Build 0)  -->
<svg version="1.1" id="Vrstva_10" xmlns="http://www.w3.org/2000/svg" xmlns:xlink="http://www.w3.org/1999/xlink" x="0px" y="0px"
	 viewBox="0 0 162.85 198.84" style="enable-background:new 0 0 162.85 198.84;" xml:space="preserve">
<style type="text/css">
	.st0{fill:#A47C4F;}
	.st1{fill:#BA9060;}
	.st2{fill:#4C331B;}
	.st3{fill:#7B5632;}
	.st4{fill:#FFFFFF;}
	.st5{fill:#4A321A;}
	.st6{fill:#1C1C1B;}
	.st7{fill:#FFE78D;}
	.st8{fill:#D8EEF9;}
	.st9{fill:#F2EEE9;}
	.st10{fill:#62B594;}
	.st11{fill:#5C3F22;}
</style>
<g>
	<path class="st0" d="M37.3,137.04c-1.5,0.28-3.5,0.93-4.49,2.48c-0.28,0.45-0.59,1.1-0.42,1.63c0.04,0.14,0.14,0.28,0.25,0.4
		c2.03-1.37,4.4-1.86,6.52-2.12c0.54-0.07,1.05,0.32,1.12,0.87s-0.32,1.05-0.87,1.12c-1.77,0.22-3.72,0.6-5.36,1.61
		c0,0.07,0.01,0.14-0.01,0.21c-0.1,0.47-0.51,0.82-1.01,0.78c0,0,0,0,0,0c-0.44,0-0.82,0.33-1.06,0.6c-0.4,0.45-0.73,1.1-0.96,1.78
		c2.53-0.97,5.17-0.92,7.7-0.89c1.75,0.02,3.55,0.07,5.35-0.29c0.1-2.61,0.16-5.22,0.21-7.84C42.02,136.74,39.6,136.61,37.3,137.04z
		"/>
	<path class="st1" d="M48.32,113.73c-0.01,0-0.02-0.01-0.03-0.01c0,0.09,0.01,0.19,0.02,0.28c0.06,0.02,0.11,0.05,0.17,0.08
		c0-0.11,0-0.22,0.01-0.33C48.42,113.74,48.37,113.73,48.32,113.73z"/>
	<path class="st1" d="M84.44,105.92l-4.22-1.99c-3.46,2.6-7.6,4.23-11.28,5.66c-4.75,1.85-10.62,4.11-16.53,4.32
		c-0.36,0.54-0.77,1.04-1.21,1.51c0.12,0.06,0.24,0.12,0.36,0.19c0.71-0.58,1.52-1.16,2.49-1.48c0.44-0.14,0.9-0.22,1.37-0.22
		c1.09,0,2.04,0.4,2.68,1.13c0.72,0.83,0.98,2.04,0.73,3.33c-0.29,1.48-1.2,2.73-2.42,3.34c-0.56,0.28-1.21,0.42-1.85,0.39
		c0.11,0.48,0.18,0.98,0.16,1.49c-0.06,1.48-1.01,3.13-2.69,3.42c-0.16,0.03-0.31,0.04-0.47,0.04c-0.2,0-0.4-0.03-0.59-0.07
		c0,0.01,0,0.03,0.01,0.04c0.06,0.56,0.11,1.11,0.16,1.67c0.07,0.79,0.15,1.58,0.24,2.36c0.32,2.77,0.89,5.53,1.67,8.21
		c4.39-2.78,10.08-3.85,15.63-2.86c5.59,1,10.99,3.93,15.6,8.47c0.39,0.39,0.4,1.02,0.01,1.41c-0.2,0.2-0.45,0.3-0.71,0.3
		c-0.25,0-0.51-0.1-0.7-0.29c-4.33-4.26-9.36-7-14.55-7.93c-5.7-1.02-11.56,0.33-15.67,3.61c-0.15,0.12-0.34,0.18-0.52,0.2
		c-4.41,4.43-7.67,10.11-9.18,16.16c-0.47,1.89-0.68,3.41-0.64,4.8l0.01,0.37c0.04,0.94,0.07,2.07-0.43,3.03
		c0.57,2.73,1.21,5.28,3.01,7.08c0,0,0,0,0.01,0.01c0.96,0.22,1.92,0.65,2.88,1.32c0.9,0.63,1.69,1.37,2.45,2.08l0.59,0.55
		c0.41,0.37,0.43,1.01,0.06,1.41c-0.2,0.21-0.47,0.32-0.74,0.32c-0.24,0-0.48-0.09-0.68-0.26l-0.6-0.56
		c-0.74-0.7-1.44-1.35-2.22-1.9c-0.9-0.63-1.77-0.98-2.6-1.08c-3.52,1.63-6.92,3.56-10.11,5.76c-2.08,1.43-4.09,3.06-4.72,5.28
		c-0.32,1.12-0.04,2.53,0.7,3.49c0.19,0.25,0.46,0.52,0.79,0.73c0.24-1.48,0.95-2.95,2.06-4.18c1.2-1.33,2.82-2.39,4.94-3.24
		c0.52-0.21,1.1,0.04,1.3,0.56c0.21,0.51-0.04,1.09-0.56,1.3c-1.83,0.73-3.21,1.62-4.2,2.72c-0.97,1.08-1.54,2.36-1.62,3.61
		c0.13,0.19,0.23,0.42,0.2,0.65c-0.08,0.74,0.28,1.33,0.6,1.7c0.65,0.76,1.72,1.28,2.73,1.34c1.84,0.1,3.65-0.77,5.28-1.61
		c0.12-1.32,0.51-2.62,1.17-3.78c0.22-0.39,0.48-0.77,0.78-1.18c0.47-0.62,0.99-1.22,1.55-1.76c0.4-0.38,1.03-0.37,1.41,0.03
		c0.38,0.4,0.37,1.03-0.03,1.41c-0.49,0.47-0.94,0.98-1.34,1.51c-0.26,0.34-0.47,0.66-0.64,0.97c-0.72,1.27-1.02,2.74-0.91,4.19
		c0.04,0.08,0.07,0.17,0.14,0.25c0.51,0.62,1.65,0.94,2.4,0.64c0.97-0.38,1.27-1.04,1.78-2.37c0.11-0.29,0.24-0.59,0.37-0.9
		c-0.1-2.05,0.85-4.1,2.54-5.31c0.45-0.32,1.07-0.22,1.4,0.23c0.32,0.45,0.22,1.07-0.23,1.4c-1.16,0.83-1.81,2.31-1.69,3.73
		c0.23,0.09,0.59,0.19,0.91,0.23c0,0,0.01,0,0.01,0c0.4,0,0.84-0.24,1.22-0.47c5.14-3.08,9.73-6.93,13.65-11.45l-0.88-1.2
		c-0.31-0.42-0.24-1.02,0.16-1.36c0.4-0.34,1-0.3,1.37,0.08c3.67,3.87,9.28,6,15.79,6c2.04,0,4.09-0.21,6.12-0.63
		c5.04-1.04,9.9-3.19,14.06-6.21c2.89-2.1,5.66-4.78,8.25-7.97c3.69-4.55,5.84-8.79,6.57-12.96c1.67-9.53-4.06-18.75-9.15-24.82
		c-2.03-2.42-4.26-4.78-6.42-7.05c-4.25-4.49-8.64-9.12-11.85-14.57l-0.14-0.25c-0.4-0.69-0.78-1.34-1.28-1.84
		c-0.09-0.09-0.19-0.16-0.29-0.24c-0.72-0.38-1.43-0.77-2.13-1.15C85.56,106.52,85,106.22,84.44,105.92z"/>
	<path class="st2" d="M47.45,106.47c-0.17,1.15-0.35,2.31-0.56,3.46c0.21,0.21,0.4,0.43,0.56,0.69L47.45,106.47z"/>
	<path class="st2" d="M48.25,193.56c-0.06-0.31-0.1-0.62-0.12-0.93c-0.13,0.31-0.26,0.61-0.37,0.9c-0.52,1.33-0.81,1.99-1.78,2.37
		c-0.75,0.29-1.89-0.03-2.4-0.64c-0.07-0.08-0.1-0.17-0.14-0.25c0.01,0.15,0,0.3,0.02,0.44c0.08,0.55-0.31,1.05-0.85,1.13
		c-0.05,0.01-0.09,0.01-0.14,0.01c-0.19,0-0.36-0.07-0.51-0.16c0.02,0.03,0.04,0.06,0.07,0.09c0.75,0.92,2.01,1.49,3.28,1.49
		c0.49,0,0.95-0.08,1.38-0.25c1.63-0.63,2.25-1.82,2.74-3.05c-0.17-0.01-0.35-0.06-0.5-0.15C48.45,194.3,48.29,193.77,48.25,193.56z
		"/>
	<path class="st2" d="M44.24,120.77c-0.13,1.31-0.04,2.6,0.07,3.85C44.29,123.34,44.27,122.05,44.24,120.77
		C44.24,120.77,44.24,120.77,44.24,120.77z"/>
	<path class="st2" d="M96.55,182.34c-0.02-0.42,0.22-0.8,0.6-0.97c6.86-2.98,13.34-9.11,16.51-15.62c0.15-0.31,0.45-0.52,0.79-0.56
		c0.34-0.04,0.68,0.1,0.89,0.36c0.15,0.18,0.31,0.34,0.46,0.51c1.85-3.06,3.02-6.03,3.54-9c1.8-10.28-4.22-20.06-9.59-26.45
		c-2.07-2.47-4.32-4.84-6.5-7.14c-4-4.22-8.11-8.58-11.17-13.56c-1.3-0.63-2.58-1.29-3.84-1.97c0.1,0.08,0.2,0.16,0.29,0.24
		c0.5,0.5,0.88,1.15,1.28,1.84l0.14,0.25c3.21,5.45,7.6,10.09,11.85,14.57c2.16,2.28,4.39,4.63,6.42,7.05
		c5.1,6.06,10.82,15.29,9.15,24.82c-0.73,4.17-2.88,8.41-6.57,12.96c-2.59,3.19-5.36,5.87-8.25,7.97
		c-4.16,3.02-9.02,5.17-14.06,6.21c-2.02,0.42-4.08,0.63-6.12,0.63c-6.51,0-12.12-2.13-15.79-6c-0.36-0.38-0.96-0.42-1.37-0.08
		c-0.4,0.34-0.48,0.94-0.16,1.36l0.88,1.2c-3.92,4.52-8.51,8.37-13.65,11.45c-0.38,0.23-0.82,0.47-1.22,0.47c0,0-0.01,0-0.01,0
		c-0.31-0.04-0.67-0.13-0.91-0.23c0.01,0.07,0,0.15,0.02,0.22c0.17,0.12,0.3,0.29,0.37,0.5c0.18,0.52-0.11,1.09-0.63,1.27
		c-0.03,0.01-0.05,0.01-0.08,0.01c0.45,0.14,0.86,0.19,1,0.21c0.95,0.1,1.8-0.33,2.48-0.74c5.4-3.24,10.22-7.29,14.31-12.07
		c3.89,2.87,9.01,4.42,14.74,4.42c2.17,0,4.37-0.23,6.52-0.67c2.8-0.58,5.55-1.49,8.17-2.68C96.76,182.98,96.57,182.68,96.55,182.34
		z"/>
	<path class="st2" d="M41.44,193.62c-1.63,0.85-3.44,1.71-5.28,1.61c-1.01-0.06-2.08-0.58-2.73-1.34c-0.31-0.37-0.67-0.96-0.6-1.7
		c0.02-0.23-0.07-0.46-0.2-0.65c-0.01,0.22-0.02,0.44,0,0.66c0.04,0.55-0.37,1.03-0.92,1.08c-0.03,0-0.05,0-0.08,0
		c-0.52,0-0.95-0.4-1-0.92c-0.04-0.52-0.01-1.05,0.07-1.58c-0.34-0.21-0.6-0.48-0.79-0.73c-0.73-0.97-1.01-2.37-0.7-3.49
		c0.63-2.23,2.64-3.85,4.72-5.28c3.19-2.19,6.6-4.12,10.11-5.76c-0.15-0.02-0.29-0.04-0.44-0.05c-0.55-0.01-0.99-0.46-0.99-1.01
		c0.01-0.55,0.43-1.01,1.01-0.99c0.42,0.01,0.85,0.07,1.27,0.17c0,0,0,0-0.01-0.01c-1.79-1.8-2.44-4.34-3.01-7.08
		c-0.12,0.22-0.25,0.44-0.43,0.64c-0.35,0.39-0.8,0.66-1.3,0.82c0.48,2.13,1.12,4.22,2.42,5.98c-3.39,1.62-6.68,3.51-9.77,5.64
		c-2.28,1.56-4.71,3.54-5.51,6.39c-0.48,1.72-0.08,3.78,1.03,5.24c0.68,0.9,1.55,1.49,2.55,1.72c0.12,0.79,0.47,1.55,1.04,2.21
		c1,1.17,2.58,1.95,4.14,2.04c1.98,0.12,3.85-0.61,5.46-1.41c-0.01-0.03-0.03-0.06-0.03-0.09
		C41.39,195.03,41.38,194.32,41.44,193.62z"/>
	<path class="st2" d="M80.36,103.82c-0.05,0.03-0.09,0.07-0.14,0.1l4.22,1.99C83.1,105.2,81.74,104.49,80.36,103.82z"/>
	<path class="st2" d="M30.84,146.47c0.06-0.02,0.12-0.04,0.18-0.06c0.23-0.68,0.56-1.33,0.96-1.78c0.24-0.27,0.62-0.6,1.06-0.6
		c0,0,0,0,0,0c0.5,0.04,0.9-0.31,1.01-0.78c0.02-0.07,0.01-0.14,0.01-0.21c-0.45,0.27-0.88,0.58-1.27,0.96
		c-0.19,0.19-0.44,0.28-0.69,0.28c-0.26,0-0.52-0.1-0.72-0.31c-0.38-0.4-0.37-1.03,0.03-1.41c0.39-0.38,0.81-0.7,1.24-0.99
		c-0.11-0.13-0.21-0.26-0.25-0.4c-0.17-0.54,0.14-1.18,0.42-1.63c0.98-1.55,2.98-2.21,4.49-2.48c2.3-0.42,4.72-0.29,6.97,0.35
		c0.03-1.47,0.05-2.94,0.06-4.42c-0.08,0.76-0.18,1.52-0.3,2.28c-2.31-0.54-4.76-0.6-7.09-0.17c-2.72,0.5-4.73,1.67-5.81,3.38
		c-0.92,1.46-0.86,2.6-0.64,3.3c0.09,0.3,0.26,0.66,0.55,1.02c-0.19,0.16-0.38,0.33-0.56,0.54c-0.95,1.08-1.61,2.78-1.74,4.31
		C29.4,147.16,30.1,146.76,30.84,146.47z"/>
	<path class="st3" d="M154.1,175.96c3.11-2.6,5.26-5.88,6.07-9.22c-0.9,0.48-1.76,1.08-2.66,1.71c-0.5,0.35-1.01,0.7-1.52,1.03
		c-5.27,3.41-12.04,5.14-20.13,5.14c-2.26,0-4.68-0.13-7.19-0.4c-5.87-0.62-10.54-2.73-13.91-6.27
		c-3.15,5.67-8.57,10.94-14.49,14.12c6.11,1.78,12.39,2.99,18.71,3.61c2.1,0.21,3.79,0.3,5.33,0.3l0.55,0
		c5.12-0.08,10.65-1.27,17.41-3.76C146.1,180.81,150.49,178.97,154.1,175.96z"/>
	<path class="st2" d="M161.16,164.14c-1.79,0.59-3.31,1.65-4.78,2.67c-0.49,0.34-0.97,0.67-1.46,0.99
		c-4.94,3.2-11.35,4.82-19.04,4.82c-2.19,0-4.54-0.13-6.98-0.39c-5.64-0.6-10.03-2.68-13.1-6.16c-0.15-0.17-0.32-0.33-0.46-0.51
		c-0.21-0.26-0.55-0.41-0.89-0.36c-0.34,0.04-0.64,0.25-0.79,0.56c-3.16,6.5-9.64,12.63-16.51,15.62c-0.38,0.17-0.62,0.55-0.6,0.97
		c0.02,0.34,0.21,0.64,0.5,0.81c0.06,0.04,0.12,0.07,0.19,0.1c6.99,2.23,14.24,3.72,21.55,4.43c2.17,0.21,3.92,0.31,5.53,0.31
		l0.58,0c5.35-0.08,11.09-1.32,18.07-3.88c3.98-1.46,8.57-3.39,12.41-6.6c4.06-3.38,6.64-7.87,7.08-12.31
		c0.03-0.34-0.1-0.67-0.37-0.88C161.83,164.1,161.48,164.03,161.16,164.14z M124.32,185.98c-1.54,0-3.23-0.09-5.33-0.3
		c-6.32-0.62-12.61-1.83-18.71-3.61c5.93-3.19,11.35-8.45,14.49-14.12c3.37,3.54,8.05,5.65,13.91,6.27c2.51,0.27,4.93,0.4,7.19,0.4
		c8.08,0,14.85-1.73,20.13-5.14c0.51-0.33,1.02-0.68,1.52-1.03c0.9-0.62,1.76-1.22,2.66-1.71c-0.81,3.34-2.96,6.62-6.07,9.22
		c-3.61,3.01-8,4.85-11.82,6.26c-6.76,2.49-12.29,3.68-17.41,3.76L124.32,185.98z"/>
	<path class="st1" d="M70.3,96.4c-0.15-0.81-0.28-1.5-0.72-1.82c-0.08-0.06-0.17-0.11-0.26-0.16c-0.25-0.14-0.56-0.33-0.81-0.62
		c-0.58,1.18-1.03,2.41-1.32,3.69c-0.06,0.24-0.15,0.53-0.39,0.6c-0.38,0.1-0.59-0.43-0.6-0.83c-0.05-3.27,1.73-6.26,3.51-9
		c0.72-1.11,1.47-2.23,2.46-3.12c0.99-0.89,2.26-1.54,3.58-1.52c0.62,0.01,1.35,0.28,1.45,0.89c0.11,0.68-0.62,1.15-1.22,1.48
		c-0.81,0.44-1.57,0.96-2.3,1.52c0.44,0.39,1.28,1.09,1.88,0.91c0.12-0.04,0.27-0.12,0.43-0.21c0.23-0.13,0.5-0.27,0.82-0.37
		c0.9-0.27,1.93,0.01,2.78,0.35c0.34,0.13,0.69,0.28,1.03,0.41c0.34-1.5,0.58-3.04,0.81-4.56c0.07-0.48,0.15-0.97,0.22-1.45
		c0.66-4.13,1.59-8.26,2.49-12.25c0.4-1.77,0.8-3.57,1.18-5.38c0.65-3.83,1.16-7.64,1.43-11.44c0.43-6,0.2-11.59-0.65-16.72
		c-0.39-1.42-0.84-2.8-1.41-4.11c-0.06-0.14-0.12-0.27-0.18-0.41c-4.91-0.68-9.89-0.9-14.77-0.62c-5.79,0.33-11.6,1.34-17.23,2.32
		c-2.06,0.36-4.19,0.73-6.11,1.5c-1.64,0.65-3.2,1.63-4.7,2.56l-5.58,3.48c-1.28,0.8-2.6,1.62-3.69,2.64
		c-0.45,0.42-0.86,0.88-1.3,1.36c-0.41,0.45-0.83,0.91-1.27,1.33c-0.15,0.15-0.31,0.26-0.47,0.34c-0.04,4.46,0.56,8.51,1.77,12.09
		c0.29-3.38,1.87-6.58,4.35-8.73c2.33-2.01,5.44-3.08,8.44-2.87c3.12,0.22,6.05,1.81,7.83,4.26c2.21,3.03,2.69,7.43,1.24,11.49
		c-0.66,1.84-1.58,3.35-2.76,4.5c-1.93,1.88-4.71,2.92-7.83,2.92c-0.64,0-1.29-0.05-1.93-0.14c-2.16-0.31-4.09-1.09-5.62-2.23
		c0.02,0.06,0.04,0.12,0.06,0.18c1.18,4.49,0.38,9.11-0.38,13.58c-0.17,0.97-0.33,1.93-0.48,2.89c-1.02,6.75-0.17,11.52,2.61,14.59
		c2.82,3.11,7.27,3.98,11.37,4.19c0.38-0.33,0.82-0.43,1.09-0.49c2.76-0.54,5.57-0.96,8.37-1.26c0.55-0.06,1.1-0.11,1.65-0.16
		c1.98-0.19,4.03-0.39,5.97-0.82c2.39-0.53,4.34-1.4,5.86-2.55c-0.08-0.15-0.18-0.29-0.24-0.45C70.52,97.59,70.41,96.98,70.3,96.4z
		 M47.81,41.51c-0.61-0.55-1.24-1.19-2.06-1.29c-0.33-0.04-0.66,0.01-0.99,0.09c-2.25,0.5-4.3,1.85-5.63,3.73
		c-0.33,0.05-0.68-0.02-0.97-0.2c-0.17-1.06,0.58-2.04,1.38-2.75c1.15-1.03,2.54-1.84,4.07-2.1s3.19,0.08,4.35,1.1
		c0.49,0.43,0.91,1.06,0.8,1.71C48.45,41.98,48.07,41.74,47.81,41.51z M77.19,36.55c0.45-0.08,0.91-0.12,1.36-0.01
		c0.71,0.17,1.28,0.71,1.76,1.27c1.01,1.16,1.84,2.54,1.99,4.06c-0.37,0.13-0.79-0.04-1.06-0.32c-0.27-0.28-0.44-0.64-0.63-0.98
		c-0.42-0.76-0.99-1.47-1.75-1.9c-0.86-0.48-1.9-0.57-2.86-0.38s-1.86,0.63-2.69,1.16c-0.45,0.29-1.08,0.6-1.47,0.24
		C73.18,38.04,75.11,36.9,77.19,36.55z M61.68,54.67c1.68-3.33,4.86-5.77,8.52-6.53c1.01-0.21,2.12-0.3,3.25-0.27
		c3.3,0.09,6.17,1.2,8.08,3.14c2.98,3.02,3.18,7.45,3.03,9.83c-0.1,1.58-0.36,2.9-0.8,4.03c-1.14,2.91-3.75,5.24-6.99,6.23
		c-1.21,0.37-2.5,0.56-3.83,0.56c-1.8,0-3.7-0.35-5.48-1.01c-1.43-0.53-2.57-1.17-3.48-1.96c-0.98-0.85-1.8-1.95-2.43-3.28
		C59.97,62.07,60.02,57.96,61.68,54.67z M49.89,99.21c-0.34,0.23-0.77,0.35-1.21,0.35h0c-0.85,0-1.57-0.45-1.82-1.15
		c-0.09-0.25-0.11-0.5-0.13-0.72c-0.01-0.14-0.02-0.29-0.06-0.43c-0.11-0.38-0.5-0.71-1.05-0.89c-0.32-0.11-0.67-0.17-1.04-0.23
		c-0.27-0.04-0.53-0.09-0.79-0.15c-3.25-0.79-5-4.09-5.51-6.67c-0.47-2.37-0.28-4.82,0.56-7.09c0.95-2.59,2.68-4.4,4.73-4.98
		c0.86-0.24,1.76-0.26,2.54-0.28c0.88-0.02,1.76-0.03,2.64-0.03c3.28,0,5.76,0.2,8.06,0.63c2.19,0.42,3.85,1.02,5.21,1.89
		c1.77,1.13,2.98,2.72,3.41,4.48c0.2,0.83,0.24,1.77,0.13,2.79c-0.43,3.69-2.87,7.13-6.22,8.74c-2.52,1.21-5.36,1.42-8.08,1.49
		C51.08,97.75,50.71,98.67,49.89,99.21z"/>
	<path class="st2" d="M81.7,84.1c0.13-1.98,0.55-3.93,0.96-5.8c0.98-4.5,1.9-8.94,2.65-13.34c-0.38,1.81-0.78,3.61-1.18,5.38
		c-0.9,3.99-1.83,8.12-2.49,12.25c-0.08,0.48-0.15,0.96-0.22,1.45c-0.23,1.52-0.47,3.06-0.81,4.56c0.63,0.25,1.25,0.5,1.88,0.75
		c0.2-0.84,0.37-1.68,0.51-2.52c-0.22-0.09-0.41-0.21-0.58-0.36C81.59,85.71,81.67,84.54,81.7,84.1z"/>
	<path class="st2" d="M47.96,103.99c0.03-0.03,0.07-0.06,0.11-0.09c-4.1-0.21-8.56-1.07-11.37-4.19c-2.78-3.07-3.63-7.85-2.61-14.59
		c0.15-0.96,0.31-1.92,0.48-2.89c0.77-4.47,1.56-9.08,0.38-13.58c-0.02-0.06-0.04-0.12-0.06-0.18c-0.95-0.71-1.75-1.56-2.35-2.53
		c-0.95-1.54-1.45-3.48-1.44-5.59c0-0.36,0.03-0.71,0.06-1.07c-1.21-3.58-1.81-7.63-1.77-12.09c-0.21,0.11-0.42,0.17-0.64,0.17
		c-0.21,0-0.42-0.05-0.6-0.15c-0.54-0.29-0.67-0.84-0.71-1.02c-0.01-0.04-0.01-0.09-0.02-0.13c-0.17,5.8,0.64,11,2.43,15.46
		c0.38,0.93,0.8,1.85,1.21,2.73c0.77,1.67,1.5,3.24,1.94,4.92c1.07,4.07,0.31,8.47-0.42,12.73c-0.17,0.98-0.34,1.96-0.48,2.93
		c-1.12,7.38-0.1,12.69,3.11,16.23c3.16,3.49,7.88,4.54,12.24,4.81l0-0.3C47.45,105.22,47.45,104.52,47.96,103.99z"/>
	<path class="st2" d="M86.1,36.79c-0.25-1.52-0.56-2.99-0.92-4.43c-0.22-0.03-0.44-0.05-0.67-0.08c0.06,0.14,0.12,0.27,0.18,0.41
		C85.25,33.99,85.71,35.37,86.1,36.79z"/>
	<path class="st4" d="M40.71,69.21c0.57,0.08,1.15,0.12,1.72,0.12c2.72,0,5.13-0.88,6.78-2.49c1.01-0.98,1.81-2.3,2.39-3.92
		c1.28-3.6,0.89-7.47-1.04-10.1c-1.53-2.1-4.05-3.46-6.73-3.65c-0.22-0.02-0.44-0.02-0.65-0.02c-2.39,0-4.83,0.92-6.69,2.53
		c-2.42,2.1-3.88,5.34-3.89,8.68c-0.01,1.83,0.41,3.5,1.21,4.8C35.11,67.27,37.69,68.78,40.71,69.21z M37.06,53.83
		c0.99-1.79,2.95-3.05,5.26-3.36c1.17-0.16,2.26-0.05,3.18,0.32c2.68,1.08,3.71,4.19,3.78,6.53c0.04,1.34-0.18,2.34-0.69,3.14
		c-0.35,0.54-0.85,1.01-1.54,1.45c-1.16,0.74-2.59,1.14-4.01,1.14c-1.54,0-3.02-0.48-4.17-1.34C36.48,59.89,35.67,56.36,37.06,53.83
		z"/>
	<path class="st2" d="M42.43,70.84c3.12,0,5.9-1.04,7.83-2.92c1.17-1.14,2.1-2.66,2.76-4.5c1.45-4.06,0.97-8.46-1.24-11.49
		c-1.79-2.45-4.72-4.04-7.83-4.26c-3-0.21-6.11,0.86-8.44,2.87c-2.48,2.15-4.06,5.35-4.35,8.73c-0.03,0.36-0.06,0.71-0.06,1.07
		c-0.01,2.12,0.49,4.05,1.44,5.59c0.6,0.97,1.4,1.82,2.35,2.53c1.53,1.14,3.46,1.92,5.62,2.23C41.14,70.79,41.79,70.84,42.43,70.84z
		 M32.59,60.35c0.02-3.34,1.47-6.58,3.89-8.68c1.86-1.61,4.3-2.53,6.69-2.53c0.22,0,0.44,0.01,0.65,0.02
		c2.68,0.19,5.2,1.56,6.73,3.65c1.92,2.63,2.32,6.5,1.04,10.1c-0.58,1.62-1.38,2.94-2.39,3.92c-1.65,1.61-4.06,2.49-6.78,2.49
		c-0.57,0-1.15-0.04-1.72-0.12c-3.02-0.43-5.61-1.95-6.91-4.06C33,63.85,32.58,62.18,32.59,60.35z"/>
	<path class="st4" d="M63.02,55.34c-1.46,2.89-1.5,6.5-0.12,9.42c0.54,1.14,1.23,2.08,2.05,2.79c0.77,0.67,1.76,1.22,3.02,1.68
		c2.81,1.04,5.83,1.2,8.36,0.43c2.8-0.86,5.06-2.85,6.03-5.34c0.39-0.98,0.62-2.15,0.7-3.57c0.13-2.12-0.03-6.08-2.6-8.68
		c-1.64-1.66-4.14-2.62-7.05-2.69l-0.38,0c-0.89,0-1.74,0.08-2.52,0.25C67.34,50.27,64.47,52.46,63.02,55.34z M66.61,56.12
		c0.62-2.95,3.29-6,6.68-6l0.2,0c1.73,0.06,3.43,0.91,4.67,2.32c1.09,1.24,1.81,2.88,2.07,4.73c0.18,1.28,0.1,2.36-0.25,3.31
		c-0.59,1.62-2.09,2.99-4.02,3.67c-0.92,0.32-1.89,0.49-2.89,0.49c-1.15,0-2.31-0.23-3.35-0.66c-0.75-0.31-1.32-0.68-1.74-1.12
		c-0.44-0.46-0.78-1.08-1.06-1.88C66.37,59.41,66.27,57.73,66.61,56.12z"/>
	<path class="st2" d="M63.97,68.68c0.91,0.78,2.05,1.42,3.48,1.96c1.79,0.66,3.68,1.01,5.48,1.01c1.34,0,2.63-0.19,3.83-0.56
		c3.24-0.99,5.85-3.32,6.99-6.23c0.44-1.13,0.71-2.45,0.8-4.03c0.15-2.37-0.05-6.81-3.03-9.83c-1.91-1.94-4.78-3.06-8.08-3.14
		c-1.13-0.03-2.23,0.06-3.25,0.27c-3.66,0.76-6.85,3.2-8.52,6.53c-1.66,3.29-1.71,7.41-0.14,10.73
		C62.17,66.73,62.99,67.83,63.97,68.68z M73.03,49.37l0.38,0c2.91,0.08,5.41,1.03,7.05,2.69c2.57,2.61,2.73,6.56,2.6,8.68
		c-0.09,1.42-0.32,2.59-0.7,3.57c-0.97,2.48-3.23,4.48-6.03,5.34c-2.53,0.77-5.55,0.61-8.36-0.43c-1.26-0.47-2.25-1.02-3.02-1.68
		c-0.82-0.71-1.51-1.65-2.05-2.79c-1.38-2.92-1.33-6.52,0.12-9.42c1.45-2.88,4.32-5.08,7.49-5.73
		C71.29,49.45,72.14,49.37,73.03,49.37z"/>
	<path class="st5" d="M77.19,84.5c-0.1-0.61-0.83-0.88-1.45-0.89c-1.33-0.02-2.6,0.63-3.58,1.52c-0.99,0.89-1.73,2.01-2.46,3.12
		c-1.78,2.74-3.56,5.73-3.51,9c0.01,0.4,0.22,0.93,0.6,0.83c0.24-0.06,0.33-0.35,0.39-0.6c0.29-1.28,0.75-2.51,1.32-3.69
		c-0.1-0.12-0.2-0.24-0.27-0.4c-0.39-0.79-0.18-1.68,0.61-2.64c1.01-1.23,2.13-2.38,3.34-3.42c0.38-0.33,0.96-0.33,1.33,0.02
		c0.04,0.04,0.1,0.09,0.16,0.14c0.73-0.56,1.49-1.08,2.3-1.52C76.58,85.66,77.3,85.18,77.19,84.5z"/>
	<path class="st6" d="M64.55,86.61c0.1-0.9,0.07-1.72-0.1-2.43c-0.36-1.48-1.45-2.9-2.98-3.88c-1.25-0.8-2.79-1.36-4.86-1.75
		c-2.23-0.43-4.66-0.62-7.87-0.62c-0.87,0-1.75,0.01-2.62,0.03c-0.73,0.01-1.55,0.03-2.29,0.24c-2.47,0.69-3.66,3.28-4.06,4.36
		c-0.77,2.09-0.95,4.36-0.52,6.55c0.45,2.29,1.98,5.21,4.77,5.89c0.24,0.06,0.48,0.1,0.72,0.14c0.39,0.06,0.79,0.13,1.19,0.27
		c0.87,0.29,1.49,0.86,1.69,1.57c0.06,0.2,0.08,0.41,0.1,0.62c0.02,0.18,0.03,0.34,0.08,0.47c0.13,0.36,0.55,0.49,0.88,0.49h0
		c0.24,0,0.48-0.07,0.65-0.18c0.66-0.43,0.9-1.31,0.98-1.97l0.06-0.43l0.43-0.01c2.74-0.06,5.62-0.21,8.08-1.4
		C61.94,93.1,64.16,89.97,64.55,86.61z M54.52,81.71c-0.83-0.2-1.66-0.39-2.48-0.59c-0.95-0.23-1.93-0.45-2.9-0.36
		c-0.97,0.1-1.88,0.51-2.82,0.77c-0.94,0.26-2,0.37-2.85-0.12c-0.14-0.91,0.6-1.78,1.48-2.08c0.87-0.3,1.83-0.18,2.74-0.01
		c2.03,0.36,4.02,0.88,6.01,1.4c0.25,0.06,0.5,0.13,0.69,0.31C54.59,81.19,54.68,81.5,54.52,81.71z"/>
	<path d="M65.55,86.73c0.12-1.02,0.08-1.96-0.13-2.79c-0.43-1.75-1.64-3.35-3.41-4.48c-1.36-0.87-3.02-1.47-5.21-1.89
		c-2.29-0.44-4.78-0.63-8.06-0.63c-0.88,0-1.76,0.01-2.64,0.03c-0.79,0.02-1.68,0.03-2.54,0.28c-2.05,0.58-3.77,2.39-4.73,4.98
		c-0.84,2.27-1.03,4.72-0.56,7.09c0.51,2.58,2.26,5.88,5.51,6.67c0.26,0.06,0.53,0.11,0.79,0.15c0.37,0.06,0.71,0.12,1.04,0.23
		c0.55,0.18,0.94,0.52,1.05,0.89c0.04,0.14,0.05,0.28,0.06,0.43c0.02,0.22,0.04,0.47,0.13,0.72c0.25,0.7,0.96,1.15,1.82,1.15h0
		c0.44,0,0.86-0.12,1.21-0.35c0.82-0.54,1.19-1.46,1.35-2.25c2.72-0.07,5.57-0.28,8.08-1.49C62.68,93.85,65.12,90.42,65.55,86.73z
		 M50.38,95.98l-0.06,0.43c-0.09,0.66-0.33,1.54-0.98,1.97c-0.18,0.12-0.41,0.18-0.65,0.18h0c-0.32,0-0.75-0.13-0.88-0.49
		c-0.05-0.13-0.06-0.3-0.08-0.47c-0.02-0.21-0.04-0.42-0.1-0.62c-0.2-0.7-0.82-1.27-1.69-1.57c-0.4-0.13-0.8-0.2-1.19-0.27
		c-0.24-0.04-0.49-0.08-0.72-0.14c-2.79-0.68-4.31-3.6-4.77-5.89c-0.43-2.19-0.25-4.46,0.52-6.55c0.4-1.08,1.59-3.67,4.06-4.36
		c0.74-0.21,1.56-0.23,2.29-0.24c0.87-0.02,1.75-0.03,2.62-0.03c3.21,0,5.64,0.19,7.87,0.62c2.06,0.39,3.6,0.95,4.86,1.75
		c1.53,0.98,2.61,2.39,2.98,3.88c0.17,0.71,0.21,1.53,0.1,2.43c-0.39,3.36-2.61,6.48-5.66,7.96c-2.46,1.19-5.34,1.34-8.08,1.4
		L50.38,95.98z"/>
	<path class="st4" d="M53.71,80.71c-1.99-0.52-3.99-1.04-6.01-1.4c-0.91-0.16-1.87-0.29-2.74,0.01c-0.87,0.3-1.62,1.17-1.48,2.08
		c0.85,0.49,1.91,0.38,2.85,0.12c0.94-0.26,1.85-0.68,2.82-0.77c0.97-0.1,1.95,0.13,2.9,0.36c0.83,0.2,1.66,0.39,2.48,0.59
		c0.15-0.21,0.06-0.51-0.13-0.69C54.21,80.85,53.95,80.78,53.71,80.71z"/>
	<path class="st7" d="M52.72,123.52c0.04-0.91-0.39-1.9-0.77-2.77c-0.2-0.45-0.04-0.97,0.37-1.24c0.41-0.26,0.95-0.2,1.28,0.17
		c0.41,0.45,1.29,0.56,1.91,0.25c0.66-0.33,1.18-1.08,1.35-1.95c0.13-0.67,0.03-1.27-0.28-1.62c-0.37-0.42-1.2-0.56-1.92-0.32
		c-0.85,0.28-1.62,0.92-2.35,1.55c-0.32,0.27-0.78,0.31-1.15,0.1c-1.36-0.79-2.79-1.5-4.25-2.11c-0.37-0.15-0.61-0.51-0.61-0.9
		c-0.02-0.94-0.03-1.92-0.39-2.7c-0.29-0.63-0.87-1.09-1.38-1.09c-0.71,0.06-1.22,0.82-1.32,1.5c-0.14,0.93,0.16,1.94,0.45,2.92
		c0.11,0.36,0,0.75-0.27,1.01c-0.27,0.26-0.67,0.34-1.02,0.22c-0.55-0.19-1.29-0.05-1.85,0.34c-0.71,0.49-1.11,1.27-1.33,1.84
		c-0.34,0.89-0.36,2.05,0.27,2.46c0.61,0.4,1.73-0.12,2.3-0.96l0.1-0.14c0.22-0.33,0.49-0.74,0.97-1.02c0.34-0.2,0.72-0.3,1.14-0.3
		c0.29,0,0.57,0.05,0.85,0.12c0.3-0.12,0.63-0.1,0.91,0.07c0.39,0.25,0.8,0.47,1.22,0.68l2.74,1.01c0.48,0.18,0.75,0.69,0.62,1.19
		c-0.02,0.09-0.03,0.17-0.05,0.26c0.14,0.84,0.28,1.68,0.39,2.53c0.29,0.31,0.67,0.5,1.02,0.44
		C52.3,124.95,52.7,124.18,52.72,123.52z"/>
	<path class="st2" d="M44.22,119.82c-0.01-0.37,0.18-0.71,0.5-0.89c0.04-0.02,0.08-0.03,0.12-0.05c-0.27-0.07-0.56-0.12-0.85-0.12
		c-0.42,0-0.81,0.1-1.14,0.3c-0.48,0.28-0.75,0.69-0.97,1.02l-0.1,0.14c-0.58,0.84-1.69,1.36-2.3,0.96
		c-0.63-0.41-0.61-1.58-0.27-2.46c0.22-0.57,0.63-1.35,1.33-1.84c0.56-0.39,1.3-0.53,1.85-0.34c0.35,0.12,0.75,0.04,1.02-0.22
		c0.27-0.26,0.38-0.65,0.27-1.01c-0.29-0.98-0.6-1.99-0.45-2.92c0.1-0.68,0.61-1.44,1.32-1.5c0.51,0,1.09,0.46,1.38,1.09
		c0.36,0.78,0.37,1.76,0.39,2.7c0.01,0.4,0.25,0.75,0.61,0.9c1.46,0.61,2.89,1.32,4.25,2.11c0.37,0.21,0.82,0.17,1.15-0.1
		c0.74-0.63,1.5-1.27,2.35-1.55c0.72-0.23,1.55-0.1,1.92,0.32c0.31,0.35,0.41,0.96,0.28,1.62c-0.17,0.87-0.69,1.61-1.35,1.95
		c-0.62,0.31-1.5,0.2-1.91-0.25c-0.33-0.36-0.87-0.43-1.28-0.17c-0.41,0.27-0.57,0.79-0.37,1.24c0.38,0.87,0.81,1.86,0.77,2.77
		c-0.03,0.66-0.43,1.43-1.03,1.54c-0.35,0.06-0.73-0.14-1.02-0.44c0.11,0.8,0.21,1.59,0.29,2.38c0.2,0.04,0.39,0.07,0.59,0.07
		c0.16,0,0.31-0.01,0.47-0.04c1.68-0.29,2.63-1.94,2.69-3.42c0.02-0.51-0.04-1.01-0.16-1.49c0.64,0.02,1.28-0.11,1.85-0.39
		c1.22-0.61,2.12-1.86,2.42-3.34c0.26-1.29-0.01-2.5-0.73-3.33c-0.63-0.73-1.58-1.13-2.68-1.13c-0.46,0-0.92,0.07-1.37,0.22
		c-0.98,0.32-1.78,0.89-2.49,1.48c-0.12-0.07-0.24-0.12-0.36-0.19c-0.06,0.06-0.11,0.13-0.17,0.19c-0.09,0.09-0.2,0.2-0.23,0.25
		c-0.05,0.36-0.28,0.63-0.62,0.75c-0.1,0.04-0.21,0.06-0.31,0.06c-0.24,0-0.48-0.1-0.68-0.26c-0.72-0.6-0.74-1.52-0.74-1.92
		c0-0.14,0.01-0.28,0.01-0.42c-0.06-0.03-0.11-0.05-0.17-0.08c0-0.09-0.01-0.19-0.02-0.28c-0.47-0.09-0.82-0.49-0.82-0.98l0-2.12
		c-0.16-0.25-0.36-0.48-0.56-0.69c-0.72-0.72-1.65-1.13-2.59-1.04c-1.7,0.15-2.82,1.71-3.05,3.18c-0.13,0.82-0.03,1.64,0.13,2.39
		c-0.7,0.08-1.39,0.35-1.99,0.76c-0.89,0.62-1.59,1.57-2.05,2.76c-0.62,1.61-0.55,3.81,1.04,4.86c1.52,0.99,3.85,0.24,5.05-1.5
		l0.11-0.17c0.1-0.16,0.24-0.36,0.32-0.4c0.09-0.05,0.22-0.04,0.37-0.01c0,0,0,0,0,0C44.23,120.45,44.23,120.13,44.22,119.82z"/>
	<path class="st2" d="M49.71,120.63l-2.74-1.01c0.8,0.41,1.64,0.75,2.5,1c0.36,0.11,0.63,0.41,0.7,0.78
		c0.04,0.22,0.07,0.45,0.11,0.67c0.02-0.09,0.03-0.17,0.05-0.26C50.47,121.32,50.2,120.81,49.71,120.63z"/>
	<path class="st8" d="M87.06,105.06c3.88,2.1,7.88,4.28,12.11,5.57c2.52,0.77,4.28,0.9,5.8,0.45c1.58-0.47,3.13-1.97,2.97-3.66
		c-0.11-1.25-1.12-2.38-1.98-3.22c-4.52-4.44-10.52-7.23-16.27-9.71c-3.59-1.54-7.23-3.04-10.83-4.44c-0.56-0.22-1.11-0.41-1.47-0.3
		c-0.12,0.04-0.27,0.12-0.43,0.21c-0.23,0.13-0.5,0.27-0.82,0.37c-0.26,0.08-0.52,0.12-0.79,0.12c-0.94,0-1.77-0.46-2.48-1.02
		c-0.37,0.34-0.72,0.7-1.07,1.06c0.14,0.1,0.28,0.2,0.4,0.29l0.14,0.11c0.57,0.42,1.21,0.74,1.89,0.92c0.2-0.54,0.6-1.01,1.23-1.19
		c0.64-0.18,1.4,0.13,1.76,0.71c0.26,0.41,0.29,0.88,0.1,1.29c-0.06,0.13-0.14,0.25-0.22,0.35l0.2,0.09l0.27-0.74
		c0.02-0.05,0.04-0.1,0.07-0.14c0.21-0.33,0.56-0.53,0.95-0.53c0.76,0,1.48,0.74,1.48,1.51c0,0.44-0.14,0.8-0.27,1.12
		c0.16,0.05,0.33,0.1,0.49,0.14l0.09-0.55c0.04-0.21,0.16-0.4,0.35-0.52c0.87-0.52,2.16-0.19,2.66,0.68
		c0.25,0.43,0.31,0.97,0.17,1.48c-0.04,0.14-0.09,0.27-0.15,0.39c0.13,0.07,0.27,0.13,0.42,0.19c0.01-0.01,0.02-0.03,0.02-0.04
		c0.26-0.41,0.7-0.67,1.17-0.72c0.02,0,0.13-0.01,0.16-0.01c0.58,0,1.17,0.3,1.62,0.83c0.19,0.22,0.23,0.54,0.11,0.8l-0.16,0.35
		c0.06,0.02,0.12,0.04,0.17,0.07c0.12,0.05,0.24,0.1,0.37,0.14c0.19,0.06,0.43,0.03,0.45,0.01c0-0.01,0-0.04,0.02-0.08
		c0.04-0.11,0.08-0.25,0.17-0.41c0.24-0.4,0.67-0.64,1.16-0.64c0.7,0,1.37,0.46,1.6,1.1c0.21,0.59,0.1,1.17-0.09,1.66
		c0.71,0.34,1.22,0.29,1.37,0.15c0.04-0.04,0.08-0.09,0.12-0.13c0.11-0.13,0.24-0.28,0.44-0.41c0.56-0.38,1.4-0.26,1.9,0.24
		c0.28,0.28,0.42,0.64,0.42,1.01c0,0.23-0.11,0.44-0.28,0.58c0.12,0.04,0.24,0.08,0.36,0.11l0.01-0.08
		c0.03-0.29,0.22-0.53,0.49-0.63c0.92-0.33,2-0.31,2.9,0.08c0.38,0.16,0.55,0.59,0.4,0.97c-0.15,0.37-0.33,0.72-0.53,1.06
		c1.7,0.78,3.21,1.94,4.39,3.41c0.14,0.18,0.2,0.41,0.15,0.64c-0.05,0.22-0.2,0.41-0.41,0.51c-0.34,0.16-0.72,0.25-1.12,0.25
		c-0.92,0-1.73-0.42-2.26-0.78c-0.29-0.19-0.56-0.41-0.83-0.62c-0.45-0.36-0.88-0.7-1.35-0.9c-0.14-0.06-0.2-0.07-0.21-0.07
		c-0.03,0.03-0.15,0.26-0.22,0.39c-0.16,0.31-0.36,0.69-0.73,0.96c-0.69,0.51-1.8,0.33-2.3-0.36c-0.25-0.34-0.35-0.79-0.27-1.23
		c0.06-0.38,0.25-0.72,0.52-0.96c-0.27-0.18-0.53-0.21-0.59-0.17c-0.04,0.03-0.12,0.1-0.19,0.18c-0.14,0.15-0.32,0.34-0.58,0.47
		c-0.76,0.4-1.81-0.02-2.12-0.8c-0.14-0.36-0.12-0.76,0.03-1.12l-0.78-0.46c-0.6,0.79-1.52,1.26-2.44,1.27
		c-0.16,0-0.31-0.04-0.44-0.14c-0.49-0.34-0.71-0.97-0.56-1.61c0.05-0.22,0.15-0.43,0.27-0.6c-0.2-0.12-0.44-0.18-0.66-0.18
		c-0.15,0-0.44,0.03-0.65,0.24l-0.08,0.08c-0.12,0.13-0.28,0.31-0.53,0.44c-0.69,0.36-1.52,0.09-2.27-0.78
		c-0.18-0.2-0.23-0.49-0.14-0.74c0.1-0.29,0.25-0.55,0.43-0.79c-0.11-0.07-0.22-0.13-0.34-0.17c-0.4,0.53-0.95,0.85-1.54,0.88
		c0,0,0,0,0,0c-0.62,0-1.17-0.32-1.46-0.82c-0.2-0.33-0.25-0.71-0.17-1.05c-0.19,0.22-0.41,0.41-0.67,0.54
		c-0.78,0.4-1.84,0.17-2.31-0.5c-0.29-0.42-0.34-0.99-0.14-1.49c0.03-0.07,0.06-0.13,0.1-0.2c-0.1,0.05-0.2,0.1-0.3,0.16
		c-0.31,0.18-0.67,0.38-1.11,0.44c-0.69,0.11-1.48-0.37-1.73-1.03c-0.18-0.47-0.05-0.97,0.32-1.29c0.01-0.01,0.03-0.02,0.04-0.04
		c-0.13-0.21-0.43-0.34-0.65-0.43l-1.45-0.62c1.01,0.78,1.23,1.96,1.43,3c0.09,0.5,0.18,0.97,0.35,1.36
		c0.12,0.28,0.29,0.52,0.5,0.74c1.21,0.67,2.43,1.32,3.66,1.95C80.36,101.42,83.76,103.27,87.06,105.06z"/>
	<path class="st2" d="M80.61,88.59c-0.34-0.13-0.69-0.28-1.03-0.41c-0.85-0.33-1.88-0.62-2.78-0.35c-0.32,0.1-0.59,0.24-0.82,0.37
		c-0.16,0.09-0.31,0.17-0.43,0.21c-0.6,0.17-1.44-0.52-1.88-0.91c-0.06-0.05-0.11-0.1-0.16-0.14c-0.37-0.35-0.95-0.35-1.33-0.02
		c-1.21,1.04-2.33,2.19-3.34,3.42c-0.79,0.97-1,1.86-0.61,2.64c0.08,0.16,0.17,0.28,0.27,0.4c0.26,0.29,0.57,0.48,0.81,0.62
		c0.09,0.05,0.18,0.1,0.26,0.16c0.44,0.31,0.56,1.01,0.72,1.82c0.11,0.58,0.22,1.19,0.47,1.78c0.07,0.16,0.16,0.3,0.24,0.45
		c0.23-0.17,0.47-0.33,0.68-0.51c0.32-0.28,0.78-0.33,1.15-0.13c0.09,0.05,0.18,0.09,0.27,0.14c-0.2-0.22-0.38-0.46-0.5-0.74
		c-0.16-0.38-0.25-0.86-0.35-1.36c-0.19-1.04-0.42-2.22-1.43-3l-1.21-0.52c-0.08-0.03-0.15-0.08-0.22-0.14
		c-0.36-0.34-0.47-0.85-0.28-1.34c0.23-0.58,0.8-0.99,1.4-0.99c0.5,0,0.91,0.21,1.25,0.44c0.35-0.36,0.7-0.72,1.07-1.06
		c0.72,0.56,1.55,1.02,2.48,1.02c0.27,0,0.54-0.04,0.79-0.12c0.32-0.1,0.59-0.24,0.82-0.37c0.16-0.09,0.31-0.17,0.43-0.21
		c0.36-0.11,0.91,0.08,1.47,0.3c3.6,1.41,7.24,2.9,10.83,4.44c5.76,2.48,11.76,5.26,16.27,9.71c0.86,0.85,1.86,1.98,1.98,3.22
		c0.15,1.7-1.39,3.19-2.97,3.66c-1.52,0.45-3.28,0.32-5.8-0.45c-4.23-1.3-8.23-3.47-12.11-5.57c-3.29-1.79-6.7-3.63-10.29-4.98
		c1.23,0.63,2.47,1.24,3.72,1.82c0.31,0.15,0.53,0.45,0.57,0.79c0.04,0.34-0.1,0.68-0.37,0.9c-0.11,0.08-0.22,0.16-0.32,0.24
		c1.38,0.67,2.74,1.37,4.08,2.09c0.56,0.3,1.11,0.6,1.66,0.9c0.71,0.38,1.42,0.77,2.13,1.15c1.26,0.67,2.54,1.34,3.84,1.97
		c2.1,1.01,4.26,1.92,6.5,2.61c1.76,0.54,3.2,0.79,4.51,0.79c0.86,0,1.68-0.11,2.44-0.34c2.32-0.69,4.66-2.94,4.4-5.76
		c-0.17-1.89-1.46-3.38-2.57-4.47c-4.77-4.69-10.96-7.57-16.89-10.12c-2.65-1.14-5.32-2.24-7.99-3.3
		C81.86,89.09,81.24,88.84,80.61,88.59z"/>
	<path class="st6" d="M37.93,54.31c-1.16,2.11-0.47,5.07,1.55,6.59c1.88,1.42,4.95,1.47,7.04,0.15c0.56-0.36,0.96-0.73,1.23-1.14
		c0.4-0.62,0.56-1.43,0.53-2.57c-0.06-2.04-0.93-4.73-3.16-5.63c-0.52-0.21-1.12-0.32-1.77-0.32c-0.3,0-0.6,0.02-0.9,0.06
		C40.49,51.72,38.76,52.82,37.93,54.31z M44.39,53.28c0.46,0.34,0.75,0.88,0.78,1.45c0.04,0.86-0.55,1.7-1.36,1.98
		C43,57,42.03,56.73,41.46,56.1c-0.42-0.46-0.64-1.1-0.55-1.71c0.09-0.61,0.5-1.18,1.08-1.4c0.23-0.09,0.48-0.13,0.73-0.14
		C43.3,52.82,43.92,52.93,44.39,53.28z"/>
	<path d="M38.88,61.7c1.14,0.86,2.62,1.34,4.17,1.34c1.42,0,2.84-0.41,4.01-1.14c0.69-0.44,1.19-0.91,1.54-1.45
		c0.51-0.8,0.73-1.79,0.69-3.14c-0.07-2.34-1.11-5.45-3.78-6.53c-0.92-0.37-2-0.48-3.18-0.32c-2.31,0.31-4.27,1.57-5.26,3.36
		C35.67,56.36,36.48,59.89,38.88,61.7z M45.12,51.71c2.23,0.9,3.09,3.59,3.16,5.63c0.04,1.13-0.13,1.95-0.53,2.57
		c-0.26,0.41-0.67,0.79-1.23,1.14c-2.09,1.32-5.16,1.27-7.04-0.15c-2.02-1.52-2.71-4.48-1.55-6.59c0.82-1.49,2.55-2.58,4.52-2.85
		c0.3-0.04,0.6-0.06,0.9-0.06C44,51.39,44.6,51.5,45.12,51.71z"/>
	<path class="st6" d="M67.85,60.65c0.23,0.66,0.5,1.16,0.84,1.51c0.33,0.34,0.78,0.63,1.4,0.89c1.72,0.71,3.77,0.77,5.53,0.15
		c1.65-0.58,2.92-1.72,3.41-3.06c0.28-0.78,0.35-1.73,0.2-2.83c-0.23-1.66-0.87-3.12-1.83-4.21c-1.04-1.19-2.52-1.93-3.95-1.98
		l-0.16,0c-2.88,0-5.16,2.65-5.7,5.21C67.28,57.76,67.37,59.26,67.85,60.65z M72.24,54.05c0.3-0.46,0.94-0.74,1.43-0.47
		c0.19,0.1,0.34,0.28,0.46,0.46c0.43,0.65,0.59,1.54,0.17,2.2c-0.41,0.66-1.49,0.85-1.98,0.25c-0.19-0.23-0.26-0.53-0.31-0.83
		C71.93,55.11,71.94,54.52,72.24,54.05z"/>
	<path d="M67.96,62.85c0.42,0.45,0.99,0.81,1.74,1.12c1.04,0.43,2.2,0.66,3.35,0.66c1,0,1.97-0.16,2.89-0.49
		c1.93-0.67,3.43-2.04,4.02-3.67c0.35-0.95,0.43-2.03,0.25-3.31c-0.26-1.85-0.98-3.49-2.07-4.73c-1.24-1.41-2.94-2.25-4.67-2.32
		l-0.2,0c-3.39,0-6.06,3.05-6.68,6c-0.34,1.61-0.24,3.29,0.29,4.85C67.18,61.77,67.52,62.39,67.96,62.85z M73.28,51.11l0.16,0
		c1.43,0.05,2.91,0.79,3.95,1.98c0.96,1.1,1.6,2.55,1.83,4.21c0.15,1.1,0.09,2.05-0.2,2.83c-0.49,1.34-1.76,2.49-3.41,3.06
		c-1.76,0.62-3.81,0.56-5.53-0.15c-0.62-0.25-1.07-0.54-1.4-0.89c-0.34-0.35-0.61-0.85-0.84-1.51c-0.47-1.39-0.57-2.89-0.26-4.32
		C68.12,53.76,70.4,51.11,73.28,51.11z"/>
	<path class="st4" d="M40.91,54.39c-0.09,0.61,0.13,1.25,0.55,1.71c0.58,0.64,1.54,0.9,2.35,0.62c0.81-0.28,1.4-1.12,1.36-1.98
		c-0.03-0.57-0.32-1.11-0.78-1.45c-0.48-0.35-1.09-0.46-1.68-0.43c-0.25,0.01-0.5,0.05-0.73,0.14C41.41,53.21,41,53.78,40.91,54.39z
		"/>
	<path class="st4" d="M72.32,56.48c0.49,0.6,1.57,0.41,1.98-0.25c0.41-0.66,0.26-1.55-0.17-2.2c-0.12-0.18-0.27-0.35-0.46-0.46
		c-0.49-0.26-1.13,0.01-1.43,0.47c-0.3,0.46-0.31,1.06-0.23,1.6C72.06,55.95,72.13,56.25,72.32,56.48z"/>
	<path class="st3" d="M88.74,53.65c-0.59,8.32-2.28,16.57-4.11,25c-0.41,1.87-0.81,3.74-0.94,5.58c-0.04,0.64,0.06,0.74,0.06,0.74
		c0,0,0.06,0.04,0.29,0.04c0.17,0,0.34-0.02,0.5-0.04c6.21-0.84,14.18-2.36,20.78-6.71c6.56-4.33,10.63-11.1,10.61-17.67
		c0-1.96-0.35-4.12-1.09-6.77c-2.42-8.67-7.11-16.56-13.57-22.83c-5.62-5.44-12.43-9.51-19.85-11.89c0.53,0.68,1.03,1.41,1.5,2.19
		c1.71,2.44,2.89,5.12,3.42,7.85C88.58,36.29,89.39,44.52,88.74,53.65z"/>
	<path class="st2" d="M82.93,21.3c-0.47-0.78-0.97-1.51-1.5-2.19c7.43,2.38,14.23,6.45,19.85,11.89
		c6.46,6.26,11.16,14.16,13.57,22.83c0.74,2.66,1.09,4.81,1.09,6.77c0.01,6.58-4.05,13.35-10.61,17.67
		c-6.6,4.35-14.57,5.87-20.78,6.71c-0.16,0.02-0.33,0.04-0.5,0.04c-0.23,0-0.29-0.04-0.29-0.04c0,0-0.11-0.1-0.06-0.74
		c0.12-1.84,0.53-3.71,0.94-5.58c1.83-8.43,3.52-16.69,4.11-25c0.65-9.13-0.17-17.36-2.4-24.5c0.13,0.66,0.22,1.33,0.27,2
		c0.02,0.08,0.04,0.17,0.04,0.27c0,0.56-0.46,0.99-1.01,1c-0.05,0-0.11,0-0.16-0.01c-0.1-0.02-0.2-0.02-0.31-0.04
		c0.36,1.43,0.67,2.91,0.92,4.43c0.85,5.13,1.08,10.72,0.65,16.72c-0.27,3.81-0.78,7.61-1.43,11.44c-0.75,4.4-1.67,8.84-2.65,13.34
		c-0.41,1.88-0.83,3.82-0.96,5.8c-0.03,0.44-0.11,1.61,0.72,2.36c0.17,0.15,0.37,0.27,0.58,0.36c0.31,0.13,0.65,0.2,1.05,0.2
		c0.26,0,0.52-0.03,0.77-0.06c6.42-0.87,14.68-2.45,21.62-7.02c7.12-4.69,11.53-12.11,11.51-19.35c0-2.15-0.38-4.47-1.17-7.31
		c-2.51-9.01-7.39-17.21-14.11-23.72c-6.72-6.51-15.07-11.13-24.16-13.35c-0.14-0.03-0.28-0.03-0.41,0
		C79.99,17.7,81.62,19.43,82.93,21.3z"/>
	<path class="st9" d="M36.69,18.84c0.43-0.49,0.87-0.97,1.3-1.44c-1.72-1.93-3.36-3.7-5.08-5.3c-0.51,8.76-3.04,17.33-7.37,24.97
		c0.12,0.04,0.25,0.07,0.37,0.12c0.22,0.09,0.45,0.19,0.67,0.29c0.2,0.09,0.39,0.17,0.58,0.24c0.04-0.59,0.09-1.17,0.18-1.75
		c0.55-3.82,2.13-7.27,4.16-10.41C32.95,22.92,34.69,20.67,36.69,18.84z"/>
	<path class="st9" d="M13.77,41.72c2.76,0.51,5.57,1.52,8.38,3.01c-0.24-1.65-0.36-3.32-0.32-5c0.01-0.37,0.05-1.01,0.36-1.6
		c-2.1-2.47-4.67-4.23-7.32-4.97c-3.21-0.9-6.62-0.29-8.93,1.57c-0.48,2.38-0.9,4.77-1.29,7.16C7.39,41.11,10.19,41.07,13.77,41.72z
		"/>
	<path class="st9" d="M4.3,44.1c-0.38,2.44-0.72,4.88-1.05,7.32c6.71-2.04,14.19-1.58,20.61,1.23c-0.45-1.77-0.9-3.56-1.27-5.37
		c-3.09-1.82-6.18-3.03-9.19-3.58C9.71,43.01,7.06,43.13,4.3,44.1z"/>
	<path class="st9" d="M29.71,9.39c-0.8-0.58-1.61-1.1-2.43-1.56c0.26,4.98,0.02,9.33-0.75,13.23c-0.98,5-2.89,9.5-5.54,13.1
		c0.98,0.78,1.82,1.62,2.52,2.42c4.62-7.95,7.19-16.98,7.47-26.17C30.56,10.07,30.15,9.71,29.71,9.39z"/>
	<path class="st9" d="M2.96,53.62c-0.24,1.84-0.47,3.67-0.7,5.49c0.56-0.13,0.95-0.1,1.39-0.04c0.23,0.03,0.47,0.07,0.85,0.06
		C9.92,59,15.37,59.26,20.74,59.9c1.67,0.2,3.4,0.47,4.96,1.16c-0.27-1.97-0.71-3.96-1.19-5.91C17.94,51.8,9.94,51.23,2.96,53.62z"
		/>
	<path class="st9" d="M25.22,6.82c-1.98-0.85-3.96-1.33-5.87-1.4c-0.14,0-0.27-0.01-0.41-0.01c-0.02,0-0.04,0-0.07,0
		c2.58,8.54,1.03,18.36-4.08,25.68c0.21,0.05,0.42,0.08,0.63,0.14c1.47,0.41,2.78,1.04,3.94,1.77c2.49-3.36,4.29-7.6,5.21-12.32
		C25.37,16.6,25.57,12.17,25.22,6.82z"/>
	<path class="st9" d="M16.89,5.77c-1.63,0.71-2.64,2.55-3.49,4.45c-3.11,7-5.26,14.33-6.88,21.78c1.81-0.91,3.91-1.35,6.06-1.24
		C17.85,23.81,19.49,14.11,16.89,5.77z"/>
	<path class="st9" d="M4.56,61.13c-0.54,0.01-0.91-0.04-1.18-0.08c-0.37-0.05-0.49-0.07-0.99,0.1c-0.12,0.04-0.24,0.05-0.36,0.05
		c-0.06,0.76-0.04,1.51,0.24,2.15c0.42,0.96,1.44,1.73,3.2,2.42c4.45,1.75,9.33,2.17,13.96,2.45c0.48,0.03,0.97,0.05,1.46,0.05
		c1.66,0,2.74-0.29,3.53-0.93c0.94-0.77,1.42-2.07,1.45-3.9c-1.5-1.02-3.47-1.34-5.38-1.56C15.23,61.26,9.87,61,4.56,61.13z"/>
	<path class="st2" d="M18.46,4.14c0.15,0.42,0.28,0.85,0.41,1.27c0.02,0,0.04,0,0.07,0c0.14,0,0.27,0,0.41,0.01
		c1.92,0.07,3.9,0.55,5.87,1.4c-0.02-0.23-0.03-0.46-0.04-0.7c-0.04-0.55,0.37-1.03,0.92-1.07c0.04,0,0.07,0.01,0.1,0.01
		c-2.27-1-4.56-1.56-6.78-1.64c-0.62-0.02-1.2,0.01-1.74,0.08C18.02,3.56,18.33,3.78,18.46,4.14z"/>
	<path class="st2" d="M27.28,7.83c0.82,0.46,1.63,0.98,2.43,1.56c0.44,0.32,0.85,0.68,1.27,1.02C30.98,10.24,31,10.07,31,9.89
		c0.01-0.54,0.46-0.98,1-0.98c0.01,0,0.01,0,0.02,0c0.18,0,0.33,0.06,0.47,0.15c-0.53-0.44-1.05-0.88-1.6-1.28
		c-1.31-0.95-2.64-1.75-3.99-2.4c0.15,0.16,0.25,0.36,0.27,0.59C27.21,6.6,27.25,7.22,27.28,7.83z"/>
	<path class="st2" d="M22.78,38.83c-0.19-0.24-0.39-0.47-0.58-0.71c-0.32,0.59-0.35,1.23-0.36,1.6c-0.05,1.68,0.08,3.35,0.32,5
		c0.57,0.3,1.13,0.61,1.7,0.95c0.47,0.28,0.63,0.9,0.34,1.37c-0.19,0.31-0.52,0.49-0.86,0.49c-0.17,0-0.35-0.05-0.51-0.14
		c-0.07-0.04-0.15-0.08-0.22-0.13c0.37,1.81,0.82,3.61,1.27,5.37c0.64,0.28,1.27,0.58,1.89,0.9c0.49,0.26,0.67,0.86,0.42,1.35
		c-0.18,0.34-0.53,0.53-0.88,0.53c-0.16,0-0.32-0.04-0.47-0.12c-0.11-0.06-0.21-0.1-0.32-0.16c0.48,1.95,0.92,3.94,1.19,5.91
		c0.56,0.25,1.1,0.55,1.6,0.93c0.44,0.33,0.53,0.96,0.2,1.4c-0.2,0.26-0.5,0.4-0.8,0.4c-0.21,0-0.42-0.07-0.6-0.2
		c-0.07-0.05-0.15-0.09-0.22-0.14c-0.03,1.82-0.52,3.13-1.45,3.9c-0.78,0.64-1.87,0.93-3.53,0.93c-0.49,0-0.98-0.02-1.46-0.05
		c-4.63-0.28-9.51-0.7-13.96-2.45c-1.77-0.69-2.78-1.46-3.2-2.42c-0.28-0.64-0.29-1.39-0.24-2.15c-0.4-0.01-0.78-0.26-0.92-0.66
		c-0.18-0.52,0.09-1.09,0.61-1.28c0.2-0.07,0.38-0.12,0.54-0.16c0.23-1.83,0.46-3.66,0.7-5.49c-0.1,0.04-0.21,0.07-0.31,0.1
		c-0.52,0.19-1.09-0.09-1.28-0.61s0.09-1.09,0.61-1.28c0.42-0.15,0.85-0.29,1.28-0.42c0.33-2.44,0.67-4.88,1.05-7.32
		c-0.04,0.01-0.07,0.02-0.11,0.03c-0.52,0.19-1.09-0.08-1.28-0.6c-0.19-0.52,0.08-1.09,0.6-1.28C3.9,42.12,4.28,42,4.66,41.89
		c0.39-2.39,0.81-4.78,1.29-7.16c-0.04,0.03-0.08,0.05-0.12,0.08c-0.42,0.35-1.05,0.3-1.41-0.13c-0.35-0.42-0.3-1.05,0.13-1.41
		c0.6-0.5,1.27-0.91,1.97-1.27c1.62-7.46,3.77-14.78,6.88-21.78c0.85-1.91,1.86-3.74,3.49-4.45c-0.1-0.32-0.19-0.65-0.31-0.96
		c-0.17-0.47,0.05-0.97,0.48-1.2c-0.24,0.06-0.47,0.12-0.68,0.2c-2.43,0.9-3.75,3.23-4.8,5.6c-7.11,15.99-9.3,33.5-11.41,50.44
		C0,61.12-0.2,62.7,0.44,64.16c0.85,1.94,2.86,2.92,4.31,3.48c4.72,1.85,9.78,2.29,14.57,2.58c0.52,0.03,1.05,0.06,1.58,0.06
		c0,0,0,0,0,0c1.33,0,3.28-0.14,4.79-1.38c1.82-1.48,2.51-4.07,2.05-7.69c-0.38-3-1.14-5.96-1.87-8.83
		c-1.11-4.3-2.15-8.37-2.03-12.6c0-0.15,0.01-0.44,0.07-0.62c-0.11,0.04-0.22,0.06-0.33,0.06C23.27,39.22,22.98,39.09,22.78,38.83z"
		/>
	<path class="st2" d="M32.91,12.09c1.72,1.61,3.36,3.38,5.08,5.3c0.46-0.5,0.91-1,1.36-1.48c-2.19-2.46-4.28-4.69-6.6-6.65
		C32.9,9.45,33,9.68,33,9.93C32.98,10.65,32.95,11.37,32.91,12.09z"/>
	<path class="st2" d="M27.16,37.71c-0.19-0.07-0.38-0.15-0.58-0.24c-0.22-0.1-0.45-0.2-0.67-0.29c-0.12-0.05-0.25-0.08-0.37-0.12
		c-0.2,0.35-0.39,0.69-0.59,1.04c-0.1,0.17-0.25,0.3-0.42,0.38c-0.04,0.16-0.12,0.3-0.24,0.42c0.05-0.01,0.11-0.02,0.15-0.02
		c0.24,0,0.51,0.05,0.77,0.15c0.19,0.07,0.38,0.16,0.57,0.24c0.4,0.18,0.83,0.36,1.31,0.48C27.08,39.07,27.11,38.38,27.16,37.71z"/>
	<path class="st2" d="M36.14,19.47c0.18-0.21,0.37-0.43,0.55-0.63c-2.01,1.84-3.74,4.08-5.2,6.71c1.4-2.16,3-4.17,4.62-6.05
		C36.12,19.49,36.13,19.48,36.14,19.47z"/>
	<path class="st5" d="M73.32,39.44c0.83-0.53,1.72-0.97,2.69-1.16s2-0.1,2.86,0.38c0.76,0.43,1.33,1.13,1.75,1.9
		c0.19,0.34,0.35,0.71,0.63,0.98c0.27,0.28,0.69,0.46,1.06,0.32c-0.16-1.52-0.99-2.91-1.99-4.06c-0.48-0.55-1.05-1.09-1.76-1.27
		c-0.44-0.11-0.91-0.07-1.36,0.01c-2.08,0.35-4.02,1.49-5.34,3.13C72.25,40.04,72.87,39.73,73.32,39.44z"/>
	<path class="st5" d="M43.61,38.98c-1.52,0.26-2.91,1.07-4.07,2.1c-0.8,0.71-1.55,1.69-1.38,2.75c0.29,0.18,0.64,0.25,0.97,0.2
		c1.34-1.87,3.39-3.23,5.63-3.73c0.32-0.07,0.66-0.13,0.99-0.09c0.82,0.1,1.44,0.74,2.06,1.29c0.26,0.24,0.64,0.47,0.94,0.28
		c0.11-0.65-0.3-1.27-0.8-1.71C46.79,39.06,45.13,38.72,43.61,38.98z"/>
	<path class="st5" d="M99,104.33c0.24,0.19,0.49,0.39,0.74,0.56c0.1,0.07,0.19,0.13,0.29,0.18c-0.42-0.37-0.88-0.7-1.35-0.99
		C98.79,104.16,98.9,104.25,99,104.33z"/>
	<path class="st5" d="M94.37,102.11c0.19,0.12,0.33,0.25,0.42,0.33c0.49,0.45,0.52,0.88,0.46,1.17c-0.1,0.47-0.46,0.69-0.65,0.81
		c-0.09,0.06-0.11,0.09-0.12,0.14s0,0.09,0.01,0.1c0.01,0.02,0.06,0.04,0.13,0.04c0.16-0.08,0.27-0.29,0.36-0.47
		c0.21-0.4,0.53-1.01,1.25-1.16c0.11-0.02,0.22-0.04,0.33-0.03c-0.13-0.1-0.22-0.24-0.27-0.39c-0.07-0.23-0.01-0.48,0.14-0.67
		c0.18-0.23,0.35-0.46,0.49-0.71c-0.19-0.01-0.38,0-0.57,0.02l-0.04,0.42c-0.02,0.21-0.13,0.41-0.3,0.53
		c-0.17,0.13-0.39,0.18-0.6,0.13C95.06,102.3,94.71,102.22,94.37,102.11z"/>
	<path class="st5" d="M92.66,100.64c-0.36,0.22-0.8,0.32-1.27,0.3l0.26,0.15c0.26,0.16,0.4,0.45,0.36,0.75
		c-0.01,0.06-0.03,0.13-0.05,0.19c0.05-0.04,0.11-0.09,0.18-0.13c0.29-0.18,0.63-0.27,0.98-0.25c-0.02-0.01-0.04-0.02-0.06-0.03
		c-0.32-0.14-0.5-0.49-0.43-0.84C92.63,100.74,92.64,100.69,92.66,100.64z"/>
	<path class="st5" d="M84.29,97.72c-0.42-0.05-0.82-0.16-1.21-0.33c0.32,0.21,0.6,0.47,0.84,0.78c0.13,0.16,0.18,0.37,0.14,0.58
		c-0.03,0.2-0.15,0.38-0.32,0.5c-0.11,0.08-0.22,0.17-0.3,0.28c0.06,0.04,0.1,0.06,0.12,0.07c-0.01-0.02,0.03-0.06,0.06-0.1
		l0.12-0.13c0.44-0.45,1.05-0.69,1.72-0.69c1.1,0,2.07,0.63,2.42,1.57c0.06,0.17,0.06,0.36,0,0.53c0.07-0.07,0.14-0.14,0.2-0.22
		c0.16-0.23,0.37-0.52,0.76-0.65c0.05-0.02,0.1-0.03,0.14-0.04c-0.15-0.23-0.17-0.54-0.03-0.79c0.29-0.5,0.39-0.86,0.31-1.1
		c-0.01-0.02-0.05-0.06-0.1-0.08c-0.04,0.12-0.09,0.25-0.15,0.36c-0.38,0.67-1.31,0.93-2.18,0.66c-0.16-0.05-0.32-0.11-0.48-0.17
		c-0.25-0.1-0.48-0.19-0.66-0.19c-0.26,0-0.51-0.13-0.65-0.35c-0.14-0.22-0.17-0.49-0.06-0.72l0.31-0.66
		c-0.04-0.02-0.08-0.03-0.12-0.03c-0.03,0.01-0.04,0.01-0.05,0c0.05,0.22,0,0.46-0.15,0.64C84.8,97.65,84.55,97.76,84.29,97.72z"/>
	<path class="st5" d="M80.84,96.01c-0.37-0.03-0.73-0.09-1.09-0.18c0.35,0.18,0.68,0.41,0.97,0.67c0.18,0.16,0.27,0.39,0.25,0.62
		c0.16-0.18,0.4-0.28,0.65-0.25c0.29,0.03,0.57,0.1,0.83,0.21c-0.24-0.15-0.47-0.32-0.68-0.51c-0.18-0.16-0.27-0.4-0.24-0.64
		s0.17-0.45,0.38-0.57c0.08-0.04,0.15-0.14,0.18-0.26c0.03-0.12,0.02-0.24-0.02-0.32c-0.05-0.09-0.18-0.17-0.31-0.19l-0.13,0.8
		C81.57,95.77,81.24,96.02,80.84,96.01z"/>
	<path class="st5" d="M75.8,92.15c0.02-0.02,0.04-0.05,0.07-0.08c-0.02-0.01-0.03-0.01-0.04-0.01c-0.11,0.03-0.21,0.2-0.26,0.41
		C75.65,92.33,75.74,92.22,75.8,92.15z"/>
	<path class="st5" d="M77.37,94.76l-0.35-0.17c0.18,0.13,0.33,0.3,0.43,0.49c0.21,0.4,0.2,0.85-0.05,1.22
		c-0.11,0.17-0.29,0.29-0.5,0.33c0.14,0.09,0.32,0.12,0.45,0.05c0.2-0.1,0.38-0.37,0.45-0.69c0.05-0.2,0.17-0.37,0.34-0.48
		c0.13-0.08,0.29-0.12,0.45-0.11c-0.02-0.01-0.05-0.02-0.07-0.03c-0.26-0.13-0.41-0.39-0.41-0.67c-0.04,0.03-0.09,0.05-0.14,0.07
		C77.78,94.85,77.56,94.85,77.37,94.76z"/>
	<path class="st5" d="M74.28,93.36c0.18,0.35,0.23,0.79,0.12,1.17c-0.04,0.14-0.1,0.27-0.18,0.38c0.13-0.05,0.28-0.14,0.44-0.23
		c0.26-0.15,0.56-0.32,0.92-0.41c0.26-0.07,0.55-0.06,0.82,0.01l-0.29-0.14c-0.14-0.06-0.42-0.2-0.6-0.51
		c-0.09-0.16-0.14-0.32-0.15-0.47c-0.02,0.03-0.05,0.05-0.08,0.08c-0.16,0.14-0.38,0.21-0.6,0.18
		C74.56,93.41,74.42,93.39,74.28,93.36z"/>
	<path class="st2" d="M72.94,94.07c-0.02,0.01-0.03,0.02-0.04,0.04c-0.38,0.32-0.5,0.82-0.32,1.29c0.25,0.66,1.03,1.13,1.73,1.03
		c0.44-0.07,0.8-0.27,1.11-0.44c0.1-0.06,0.2-0.11,0.3-0.16c-0.04,0.06-0.07,0.13-0.1,0.2c-0.21,0.5-0.15,1.07,0.14,1.49
		c0.47,0.68,1.53,0.9,2.31,0.5c0.25-0.13,0.48-0.31,0.67-0.54c-0.09,0.34-0.03,0.72,0.17,1.05c0.29,0.5,0.84,0.82,1.46,0.82
		c0,0,0,0,0,0c0.59-0.03,1.14-0.35,1.54-0.88c0.12,0.04,0.23,0.1,0.34,0.17c-0.18,0.24-0.33,0.5-0.43,0.79
		c-0.09,0.25-0.04,0.54,0.14,0.74c0.75,0.88,1.58,1.14,2.27,0.78c0.25-0.13,0.41-0.31,0.53-0.44l0.08-0.08
		c0.2-0.21,0.49-0.24,0.65-0.24c0.22,0,0.46,0.06,0.66,0.18c-0.12,0.17-0.22,0.38-0.27,0.6c-0.15,0.63,0.07,1.26,0.56,1.61
		c0.13,0.09,0.28,0.13,0.44,0.14c0.93-0.01,1.84-0.48,2.44-1.27l0.78,0.46c-0.15,0.36-0.17,0.77-0.03,1.12
		c0.3,0.79,1.36,1.2,2.12,0.8c0.26-0.14,0.44-0.32,0.58-0.47c0.07-0.07,0.14-0.15,0.19-0.18c0.07-0.04,0.32-0.01,0.59,0.17
		c-0.27,0.24-0.46,0.58-0.52,0.96c-0.07,0.44,0.02,0.88,0.27,1.23c0.5,0.69,1.61,0.87,2.3,0.36c0.37-0.27,0.57-0.66,0.73-0.96
		c0.07-0.13,0.19-0.36,0.22-0.39c0.01,0,0.06,0,0.21,0.07c0.47,0.2,0.9,0.54,1.35,0.9c0.27,0.22,0.55,0.43,0.83,0.62
		c0.53,0.36,1.34,0.78,2.26,0.78c0.4,0,0.78-0.08,1.12-0.25c0.21-0.1,0.36-0.29,0.41-0.51c0.05-0.22,0-0.46-0.15-0.64
		c-1.18-1.47-2.68-2.63-4.39-3.41c0.2-0.34,0.38-0.69,0.53-1.06c0.16-0.38-0.02-0.81-0.4-0.97c-0.9-0.39-1.98-0.42-2.9-0.08
		c-0.27,0.1-0.46,0.34-0.49,0.63l-0.01,0.08c-0.12-0.04-0.24-0.07-0.36-0.11c0.17-0.14,0.28-0.35,0.28-0.58
		c0-0.37-0.14-0.73-0.42-1.01c-0.5-0.51-1.34-0.63-1.9-0.24c-0.2,0.13-0.33,0.29-0.44,0.41c-0.04,0.04-0.07,0.09-0.12,0.13
		c-0.15,0.14-0.66,0.2-1.37-0.15c0.19-0.49,0.3-1.07,0.09-1.66c-0.23-0.64-0.9-1.1-1.6-1.1c-0.49,0-0.92,0.23-1.16,0.64
		c-0.09,0.15-0.14,0.3-0.17,0.41c-0.01,0.04-0.02,0.07-0.02,0.08c-0.02,0.01-0.25,0.04-0.45-0.01c-0.12-0.04-0.25-0.09-0.37-0.14
		c-0.06-0.02-0.11-0.04-0.17-0.07l0.16-0.35c0.12-0.27,0.08-0.58-0.11-0.8c-0.45-0.53-1.04-0.83-1.62-0.83c-0.02,0-0.13,0-0.16,0.01
		c-0.47,0.04-0.91,0.31-1.17,0.72c-0.01,0.01-0.02,0.02-0.02,0.04c-0.14-0.05-0.28-0.11-0.42-0.19c0.06-0.12,0.12-0.25,0.15-0.39
		c0.14-0.51,0.08-1.04-0.17-1.48c-0.5-0.87-1.79-1.2-2.66-0.68c-0.19,0.11-0.31,0.3-0.35,0.52l-0.09,0.55
		c-0.17-0.04-0.33-0.08-0.49-0.14c0.13-0.32,0.27-0.69,0.27-1.12c0-0.78-0.72-1.51-1.48-1.51c-0.39,0-0.74,0.19-0.95,0.53
		c-0.03,0.04-0.05,0.09-0.07,0.14l-0.27,0.74l-0.2-0.09c0.08-0.1,0.15-0.21,0.22-0.35c0.19-0.41,0.16-0.88-0.1-1.29
		c-0.37-0.58-1.13-0.89-1.76-0.71c-0.62,0.18-1.02,0.66-1.23,1.19c-0.68-0.19-1.32-0.5-1.89-0.92l-0.14-0.11
		c-0.12-0.09-0.26-0.19-0.4-0.29c-0.35-0.23-0.75-0.43-1.25-0.44c-0.6,0-1.17,0.41-1.4,0.99c-0.19,0.49-0.08,1,0.28,1.34
		c0.06,0.06,0.14,0.11,0.22,0.14l1.21,0.52l1.45,0.62C72.51,93.74,72.81,93.86,72.94,94.07z M75.83,92.05
		c0.01,0,0.02,0.01,0.04,0.01c-0.02,0.03-0.05,0.06-0.07,0.08c-0.06,0.08-0.15,0.18-0.23,0.31C75.62,92.25,75.72,92.08,75.83,92.05z
		 M85.16,96.82c0.04,0,0.08,0.01,0.12,0.03l-0.31,0.66c-0.11,0.23-0.08,0.5,0.06,0.72c0.14,0.22,0.39,0.35,0.65,0.35
		c0.18,0,0.41,0.09,0.66,0.19c0.16,0.06,0.32,0.13,0.48,0.17c0.87,0.27,1.8,0.01,2.18-0.66c0.06-0.11,0.11-0.24,0.15-0.36
		c0.05,0.02,0.09,0.05,0.1,0.08c0.08,0.23-0.02,0.59-0.31,1.1c-0.15,0.25-0.13,0.56,0.03,0.79c-0.05,0.01-0.1,0.02-0.14,0.04
		c-0.38,0.13-0.59,0.42-0.76,0.65c-0.06,0.08-0.12,0.15-0.2,0.22c0.06-0.17,0.07-0.35,0-0.53c-0.35-0.94-1.32-1.57-2.42-1.57
		c-0.67,0-1.28,0.25-1.72,0.69l-0.12,0.13c-0.03,0.04-0.08,0.08-0.06,0.1c-0.03-0.01-0.07-0.03-0.12-0.07
		c0.09-0.11,0.19-0.2,0.3-0.28c0.17-0.12,0.29-0.3,0.32-0.5c0.03-0.2-0.02-0.41-0.14-0.58c-0.23-0.31-0.52-0.57-0.84-0.78
		c0.39,0.16,0.79,0.27,1.21,0.33c0.26,0.03,0.51-0.07,0.67-0.27c0.15-0.18,0.2-0.42,0.15-0.64C85.12,96.83,85.13,96.83,85.16,96.82z
		 M93.06,101.63c0.02,0.01,0.04,0.02,0.06,0.03c-0.35-0.02-0.69,0.06-0.98,0.25c-0.06,0.04-0.12,0.08-0.18,0.13
		c0.02-0.06,0.04-0.12,0.05-0.19c0.04-0.3-0.1-0.6-0.36-0.75l-0.26-0.15c0.47,0.03,0.9-0.07,1.27-0.3c-0.01,0.05-0.03,0.1-0.04,0.15
		C92.55,101.14,92.73,101.49,93.06,101.63z M96.31,101.71l0.04-0.42c0.19-0.03,0.38-0.04,0.57-0.02c-0.15,0.25-0.31,0.49-0.49,0.71
		c-0.15,0.19-0.2,0.44-0.14,0.67c0.04,0.16,0.14,0.3,0.27,0.39c-0.1-0.01-0.22,0-0.33,0.03c-0.72,0.15-1.04,0.76-1.25,1.16
		c-0.1,0.18-0.2,0.39-0.36,0.47c-0.07,0-0.12-0.03-0.13-0.04c-0.01-0.01-0.02-0.05-0.01-0.1s0.03-0.08,0.12-0.14
		c0.19-0.12,0.55-0.34,0.65-0.81c0.06-0.28,0.03-0.72-0.46-1.17c-0.09-0.08-0.24-0.21-0.42-0.33c0.34,0.1,0.69,0.19,1.04,0.26
		c0.21,0.04,0.43,0,0.6-0.13C96.18,102.12,96.29,101.93,96.31,101.71z M99.75,104.89c-0.26-0.17-0.5-0.37-0.74-0.56
		c-0.11-0.08-0.21-0.17-0.32-0.25c0.48,0.29,0.93,0.62,1.35,0.99C99.94,105.01,99.84,104.95,99.75,104.89z M81.77,94.59
		c0.13,0.02,0.26,0.09,0.31,0.19c0.05,0.08,0.06,0.2,0.02,0.32c-0.03,0.12-0.1,0.21-0.18,0.26c-0.21,0.12-0.36,0.33-0.38,0.57
		s0.06,0.48,0.24,0.64c0.21,0.19,0.44,0.36,0.68,0.51c-0.27-0.1-0.55-0.17-0.83-0.21c-0.25-0.03-0.49,0.07-0.65,0.25
		c0.02-0.23-0.07-0.46-0.25-0.62c-0.3-0.26-0.62-0.49-0.97-0.67c0.36,0.09,0.73,0.15,1.09,0.18c0.4,0.01,0.73-0.24,0.79-0.62
		L81.77,94.59z M78.12,94.7c0,0.28,0.16,0.54,0.41,0.67c0.02,0.01,0.05,0.02,0.07,0.03c-0.15-0.01-0.31,0.02-0.45,0.11
		c-0.17,0.11-0.3,0.28-0.34,0.48c-0.07,0.32-0.24,0.59-0.45,0.69c-0.13,0.07-0.31,0.04-0.45-0.05c0.2-0.04,0.38-0.15,0.5-0.33
		c0.24-0.37,0.26-0.83,0.05-1.22c-0.1-0.19-0.25-0.35-0.43-0.49l0.35,0.17c0.19,0.09,0.41,0.1,0.61,0.02
		C78.03,94.75,78.08,94.73,78.12,94.7z M75.37,93.17c0.01,0.15,0.05,0.3,0.15,0.47c0.18,0.31,0.47,0.45,0.6,0.51l0.29,0.14
		c-0.27-0.07-0.56-0.08-0.82-0.01c-0.36,0.09-0.65,0.26-0.92,0.41c-0.16,0.09-0.31,0.18-0.44,0.23c0.08-0.11,0.14-0.24,0.18-0.38
		c0.11-0.38,0.06-0.81-0.12-1.17c0.14,0.03,0.27,0.05,0.41,0.07c0.22,0.03,0.44-0.03,0.6-0.18C75.32,93.23,75.35,93.2,75.37,93.17z"
		/>
	<path class="st9" d="M64.54,12.12c-0.07,0-0.14-0.01-0.2-0.02l-4.44-0.92c-0.51,0.31-0.95,0.73-1.35,1.23
		c9.43,1.78,17.67,8.45,21.3,17.36c1.55,0.12,3.11,0.26,4.65,0.47c-0.72-4.97-3.88-9.84-8.66-13.24c-1.77-1.26-3.78-2.33-6.02-3.25
		c-1.81-0.17-3.55-0.75-5.05-1.66C64.71,12.11,64.63,12.12,64.54,12.12z"/>
	<path class="st9" d="M54.93,19.86c-0.92,2.21-1.78,4.5-2.43,6.86c2.17,0.76,3.79,2.13,5.16,4.36c2.82-0.46,5.67-0.86,8.54-1.14
		C63.8,25.41,59.69,21.73,54.93,19.86z"/>
	<path class="st9" d="M52,28.66c-0.25,1.14-0.42,2.3-0.54,3.46c0.24-0.04,0.47-0.09,0.71-0.13c1.1-0.19,2.21-0.38,3.33-0.57
		C54.53,30.05,53.44,29.19,52,28.66z"/>
	<path class="st9" d="M34.95,32.76c-0.23-2.67-0.48-5.57-0.15-8.43c-2.81,3.75-4.87,7.59-5.49,11.92c-0.23,1.61-0.25,3.25-0.25,5.08
		c0,1.05,0,2.2,0.14,3.33c0.15-0.16,0.3-0.33,0.45-0.49c0.45-0.49,0.91-1,1.42-1.47c1.23-1.15,2.64-2.03,4-2.88l0.48-0.3
		L34.95,32.76z"/>
	<path class="st9" d="M57.43,14.25c-0.21,0.42-0.41,0.85-0.61,1.29c-0.36,0.81-0.73,1.64-1.1,2.48c5.41,2.14,9.92,6.24,12.52,11.45
		c0.1,0.03,0.2,0.08,0.28,0.14c0.04,0.03,0.07,0.08,0.11,0.11c0.33-0.02,0.67-0.05,1-0.07c2.64-0.15,5.3-0.15,7.97-0.03
		C73.98,21.68,66.06,15.62,57.43,14.25z"/>
	<path class="st9" d="M42.53,21.88c0.29-2.93,0.65-5.65,1.66-8.02c-1.11,0.98-2.14,2.09-3.15,3.18c-1.16,1.25-2.28,2.49-3.34,3.72
		c-1.46,3.72-1.09,8.02-0.76,11.83l0.5,5.74l3.19-1.99c0.81-0.5,1.63-1.01,2.47-1.49C42.31,30.57,42.11,26.21,42.53,21.88z"/>
	<path class="st9" d="M54.99,14.72c0.66-1.47,1.39-2.95,2.44-4.08c-0.08-0.02-0.15-0.04-0.23-0.06c-1.27-0.15-2.41-0.24-3.46-0.24
		c-2.01,0-3.74,0.29-5.28,0.86c-2.92,2.6-3.5,6.31-3.94,10.88c-0.38,3.95-0.22,7.93,0.46,11.84c0.23-0.1,0.45-0.21,0.68-0.3
		c1.22-0.49,2.49-0.82,3.75-1.09C49.92,26.09,52.6,20.06,54.99,14.72z"/>
	<path class="st2" d="M48.71,9.65c0.36,0.42,0.31,1.05-0.11,1.41c-0.05,0.04-0.09,0.09-0.14,0.13c1.53-0.56,3.26-0.86,5.28-0.86
		c1.05,0,2.19,0.08,3.46,0.24c-0.34-0.11-0.68-0.26-1-0.48c-0.63-0.43-1.03-1.05-1.24-1.73c-0.42-0.02-0.82-0.03-1.22-0.03
		c-2.28,0-4.26,0.34-6.03,1.01C48.07,9.26,48.46,9.36,48.71,9.65z"/>
	<path class="st2" d="M28.14,47.2c0.18,0.1,0.39,0.15,0.6,0.15c0.22,0,0.44-0.06,0.64-0.17c0.16-0.08,0.32-0.19,0.47-0.34
		c0.44-0.42,0.85-0.88,1.27-1.33c0.44-0.48,0.85-0.94,1.3-1.36c1.09-1.02,2.41-1.84,3.69-2.64l5.58-3.48
		c1.51-0.94,3.06-1.91,4.7-2.56c1.92-0.77,4.05-1.14,6.11-1.5c5.63-0.98,11.45-1.99,17.23-2.32c4.88-0.28,9.86-0.06,14.77,0.62
		c0.22,0.03,0.44,0.05,0.67,0.08c0.1,0.01,0.2,0.02,0.31,0.04c0.05,0.01,0.11,0.01,0.16,0.01c0.55-0.01,1.01-0.44,1.01-1
		c0-0.09-0.01-0.18-0.04-0.27c-0.05-0.67-0.14-1.33-0.27-2c-0.53-2.73-1.7-5.41-3.42-7.85c-1.31-1.87-2.93-3.59-4.82-5.09
		c-0.36-0.28-0.72-0.56-1.1-0.83c-0.97-0.69-2.02-1.33-3.12-1.92c-0.94,0.23-1.91,0.36-2.91,0.36c-0.38,0-0.76-0.02-1.14-0.06
		c2.24,0.92,4.25,2,6.02,3.25c4.77,3.4,7.94,8.27,8.66,13.24c-1.55-0.21-3.1-0.35-4.65-0.47c0.02,0.05,0.05,0.1,0.07,0.16
		c0.21,0.51-0.04,1.09-0.56,1.3c-0.12,0.05-0.25,0.07-0.37,0.07c-0.4,0-0.77-0.24-0.93-0.63c-0.14-0.35-0.3-0.7-0.46-1.04
		c-2.67-0.12-5.34-0.12-7.97,0.03c-0.33,0.02-0.67,0.05-1,0.07c0.28,0.29,0.41,0.71,0.29,1.13c-0.13,0.45-0.51,0.77-0.98,0.8
		c-0.02,0-0.05,0-0.08,0c-0.29,0-0.85-0.11-1.2-0.86c-0.14-0.3-0.31-0.58-0.46-0.87c-2.87,0.28-5.72,0.68-8.54,1.14
		c0.11,0.18,0.23,0.36,0.33,0.55c0.27,0.48,0.1,1.09-0.39,1.36c-0.15,0.09-0.32,0.13-0.49,0.13c-0.35,0-0.69-0.18-0.87-0.51
		c-0.24-0.43-0.49-0.81-0.74-1.17c-1.12,0.19-2.23,0.38-3.33,0.57c-0.23,0.04-0.47,0.08-0.71,0.13c-0.03,0.33-0.08,0.66-0.11,1
		c-0.03,0.53-0.47,0.94-1,0.94c-0.02,0-0.04,0-0.06,0c-0.55-0.03-0.97-0.51-0.94-1.06c0.01-0.16,0.04-0.32,0.05-0.48
		c-1.27,0.27-2.53,0.6-3.75,1.09c-0.23,0.09-0.45,0.2-0.68,0.3c0.05,0.28,0.09,0.55,0.15,0.83c0.11,0.54-0.25,1.07-0.79,1.17
		c-0.06,0.01-0.13,0.02-0.19,0.02c-0.47,0-0.89-0.33-0.98-0.81c-0.02-0.09-0.03-0.19-0.05-0.28c-0.85,0.48-1.67,0.99-2.47,1.49
		l-3.19,1.99l0.05,0.59c0.31,0.32,0.42,0.85,0.22,1.25c-0.2,0.39-0.6,0.63-1.01,0.63c-0.16,0-0.32-0.03-0.47-0.11
		c-0.23-0.11-0.63-0.4-0.69-1.09l-0.01-0.09l-0.48,0.3c-1.36,0.85-2.77,1.73-4,2.88c-0.51,0.47-0.97,0.98-1.42,1.47
		c-0.15,0.16-0.3,0.33-0.45,0.49c-0.14-1.13-0.14-2.28-0.14-3.33c0-1.83,0.02-3.47,0.25-5.08c0.62-4.33,2.67-8.17,5.49-11.92
		c0.18-1.53,0.51-3.05,1.11-4.51c0.05-0.12,0.12-0.22,0.2-0.31c-1.62,1.87-3.23,3.88-4.62,6.05c-2.03,3.14-3.61,6.59-4.16,10.41
		c-0.08,0.58-0.14,1.16-0.18,1.75c-0.05,0.68-0.07,1.36-0.09,2.06c-0.01,0.5-0.01,1.02-0.01,1.55c0,1.46,0,3.1,0.35,4.73
		c0.01,0.04,0.01,0.09,0.02,0.13C27.48,46.36,27.6,46.91,28.14,47.2z"/>
	<path class="st2" d="M37.99,17.39c-0.43,0.47-0.86,0.95-1.3,1.44c-0.18,0.21-0.37,0.42-0.55,0.63c0.28-0.27,0.69-0.36,1.07-0.21
		c0.51,0.21,0.76,0.79,0.55,1.3c-0.02,0.06-0.04,0.12-0.06,0.18c1.06-1.23,2.18-2.46,3.34-3.72c1.01-1.09,2.04-2.2,3.15-3.18
		c0.68-1.61,1.66-3.06,3.12-4.31c0.07-0.06,0.15-0.09,0.23-0.13c-0.33,0.13-0.67,0.25-0.98,0.4c-2.84,1.38-5.04,3.76-6.98,5.86
		c-0.07,0.08-0.15,0.16-0.22,0.24C38.9,16.4,38.45,16.89,37.99,17.39z"/>
	<path class="st10" d="M50.51,107.49c1.15-0.61,2.77,0.15,3.23,1.45c0.38,1.09,0.05,2.18-0.25,2.92c5.2-0.43,10.43-2.46,14.72-4.13
		c3.39-1.32,6.88-2.68,9.91-4.74c-1.91-0.92-3.8-1.9-5.65-2.92c-1.79,1.41-4.1,2.44-6.88,3.06c-2.06,0.46-4.17,0.66-6.22,0.86
		c-0.54,0.05-1.09,0.11-1.63,0.16c-2.74,0.29-5.5,0.7-8.2,1.23c-0.02,0-0.06,0.01-0.09,0.02c0,0.04,0,0.1,0,0.17l0,3.15
		C49.64,108.28,49.95,107.79,50.51,107.49z"/>
	<path class="st10" d="M51.63,111.14c0.27-0.68,0.35-1.18,0.22-1.53c-0.07-0.19-0.29-0.35-0.4-0.35c-0.04,0.02-0.15,0.13-0.32,0.63
		c-0.22,0.66-0.36,1.34-0.48,2.02c0.2,0.01,0.39,0.03,0.59,0.03C51.38,111.67,51.52,111.41,51.63,111.14z"/>
	<path class="st2" d="M51.24,111.94c-0.2,0-0.39-0.02-0.59-0.03c-0.07,0.42-0.14,0.84-0.17,1.27
		C50.78,112.78,51.02,112.36,51.24,111.94z"/>
	<path class="st2" d="M47.46,112.74c0,0.48,0.35,0.89,0.82,0.98c0.01,0,0.02,0.01,0.03,0.01c0.05,0.01,0.11,0.01,0.16,0.02
		c0.04-1.52,0.28-3.02,0.76-4.48c0.04-0.14,0.12-0.34,0.22-0.56l0-3.15c0-0.07,0-0.12,0-0.17c0.04-0.01,0.07-0.01,0.09-0.02
		c2.7-0.53,5.46-0.95,8.2-1.23c0.54-0.06,1.09-0.11,1.63-0.16c2.04-0.2,4.15-0.4,6.22-0.86c2.78-0.62,5.1-1.65,6.88-3.06
		c1.85,1.02,3.75,2,5.65,2.92c-3.03,2.06-6.52,3.42-9.91,4.74c-4.29,1.67-9.52,3.7-14.72,4.13c0,0.01-0.01,0.02-0.01,0.03
		c-0.28,0.71-0.65,1.39-1.07,2.03c5.91-0.21,11.78-2.47,16.53-4.32c3.68-1.43,7.82-3.06,11.28-5.66c0.05-0.03,0.09-0.07,0.14-0.1
		c0.11-0.08,0.22-0.16,0.32-0.24c0.27-0.22,0.41-0.56,0.37-0.9c-0.04-0.34-0.26-0.64-0.57-0.79c-1.24-0.58-2.49-1.19-3.72-1.82
		c-1.24-0.63-2.46-1.28-3.66-1.95c-0.09-0.05-0.18-0.09-0.27-0.14c-0.37-0.21-0.83-0.16-1.15,0.13c-0.21,0.18-0.45,0.34-0.68,0.51
		c-1.53,1.15-3.47,2.02-5.86,2.55c-1.94,0.43-3.99,0.63-5.97,0.82c-0.55,0.05-1.1,0.11-1.65,0.16c-2.8,0.29-5.62,0.72-8.37,1.26
		c-0.28,0.05-0.72,0.15-1.09,0.49c-0.03,0.03-0.07,0.05-0.11,0.09c-0.51,0.53-0.51,1.24-0.51,1.58l0,0.3l0,0.6l0.01,4.15
		L47.46,112.74z"/>
	<path class="st1" d="M39.2,157.54c0.43-0.34,1.06-0.27,1.4,0.17c0.34,0.43,0.27,1.06-0.17,1.4c-1.66,1.3-2.65,3.42-2.6,5.53
		c0,0.01-0.01,0.02-0.01,0.03c0,0.09-0.02,0.18-0.05,0.28c-0.01,0.03-0.01,0.07-0.02,0.1c0,0,0,0.01,0,0.01
		c0.01,0.11,0.31,0.56,1,0.99c0.34,0.22,0.95,0.13,1.22-0.17c0.42-0.48,0.39-1.35,0.36-2.27l-0.01-0.39
		c-0.04-1.58,0.18-3.27,0.7-5.34c1.67-6.64,5.28-12.87,10.22-17.62c-0.87-2.92-1.49-5.92-1.85-8.95c-0.09-0.8-0.17-1.61-0.24-2.41
		c-0.05-0.55-0.1-1.1-0.16-1.65c-0.17-1.63-0.4-3.27-0.67-4.89c-0.7-0.24-1.39-0.52-2.05-0.84c0.18,8.16,0.1,16.41-0.23,24.56
		c-0.02,0.44-0.32,0.82-0.75,0.93c-2.27,0.59-4.47,0.54-6.59,0.51c-0.46-0.01-0.92-0.01-1.38-0.01c-2.21,0-4.03,0.14-5.73,0.82
		c-2.12,0.85-3.84,2.54-4.74,4.63c-0.9,2.1-0.92,4.51-0.08,6.63c0.32,0.81,0.91,1.86,1.88,2.3c0.23,0.11,0.51,0.16,0.78,0.16
		c0.45,0,1.02-0.16,1.27-0.61c0.03-0.06,0.08-0.1,0.12-0.15c0.1-1.07,0.28-2.2,0.78-3.26c0.89-1.89,2.73-3.38,5.45-4.43
		c0.52-0.2,1.09,0.06,1.29,0.57c0.2,0.52-0.06,1.09-0.57,1.29c-2.23,0.86-3.7,2.01-4.37,3.42c-0.5,1.06-0.58,2.33-0.67,3.56
		c-0.01,0.19-0.09,0.36-0.2,0.51c0.01,0.97,0.21,1.57,0.62,1.83c0.28,0.18,0.8,0.17,1.51,0.07c0.78-0.11,0.83-0.17,1.17-0.57
		c0,0,0.01-0.01,0.01-0.01C35.91,161.68,37.16,159.13,39.2,157.54z"/>
	<path class="st2" d="M41.47,167.2c0.18-0.2,0.31-0.42,0.43-0.64c0.5-0.97,0.47-2.09,0.43-3.03l-0.01-0.37
		c-0.04-1.39,0.16-2.91,0.64-4.8c1.52-6.05,4.77-11.73,9.18-16.16c-0.33,0.03-0.66-0.08-0.89-0.35c-0.34-0.43-0.27-1.06,0.16-1.41
		c0.52-0.42,1.07-0.8,1.64-1.16c-0.78-2.68-1.35-5.44-1.67-8.21c-0.09-0.79-0.16-1.58-0.24-2.36c-0.05-0.56-0.1-1.11-0.16-1.67
		c0-0.01,0-0.03-0.01-0.04c-0.08-0.79-0.18-1.59-0.29-2.38c-0.12-0.85-0.25-1.69-0.39-2.53c-0.04-0.22-0.07-0.45-0.11-0.67
		c-0.07-0.37-0.34-0.67-0.7-0.78c-0.86-0.26-1.7-0.6-2.5-1c-0.42-0.21-0.82-0.43-1.22-0.68c-0.27-0.17-0.61-0.19-0.91-0.07
		c-0.04,0.02-0.08,0.03-0.12,0.05c-0.32,0.18-0.51,0.53-0.5,0.89c0.01,0.32,0.01,0.63,0.02,0.95c0.03,1.28,0.05,2.57,0.07,3.85
		c0.04,2.78,0.05,5.56,0.03,8.34c-0.01,1.47-0.04,2.95-0.06,4.42c-0.05,2.62-0.11,5.24-0.21,7.84c-1.8,0.35-3.6,0.31-5.35,0.29
		c-2.53-0.03-5.17-0.07-7.7,0.89c-0.06,0.02-0.12,0.04-0.18,0.06c-0.75,0.3-1.45,0.69-2.1,1.15c-1.63,1.14-2.94,2.71-3.73,4.55
		c-1.1,2.58-1.14,5.55-0.09,8.16c0.66,1.64,1.66,2.81,2.9,3.38c0.85,0.39,1.91,0.44,2.77,0.17c0.14,0.96,0.52,1.98,1.5,2.6
		c0.48,0.31,1.05,0.45,1.74,0.45c0.39,0,0.78-0.05,1.14-0.1c0.58-0.08,0.99-0.2,1.32-0.35c0.33,0.44,0.8,0.87,1.41,1.26
		c0.45,0.29,0.99,0.44,1.55,0.44c0.32,0,0.63-0.06,0.93-0.16C40.67,167.85,41.12,167.59,41.47,167.2z M36.86,165.66
		c-0.01,0-0.02,0-0.03,0c-0.54,0-0.99-0.43-1-0.97c0-0.14,0.01-0.28,0.01-0.42c0,0-0.01,0.01-0.01,0.01
		c-0.34,0.39-0.39,0.45-1.17,0.57c-0.71,0.1-1.23,0.11-1.51-0.07c-0.41-0.26-0.61-0.85-0.62-1.83c-0.18,0.25-0.47,0.42-0.8,0.42
		c-0.02,0-0.05,0-0.07,0c-0.55-0.04-0.97-0.51-0.93-1.07c0.02-0.33,0.05-0.67,0.08-1.02c-0.04,0.05-0.09,0.09-0.12,0.15
		c-0.25,0.45-0.82,0.61-1.27,0.61c-0.28,0-0.55-0.06-0.78-0.16c-0.97-0.44-1.56-1.49-1.88-2.3c-0.85-2.12-0.82-4.53,0.08-6.63
		c0.9-2.1,2.63-3.79,4.74-4.63c1.7-0.68,3.52-0.82,5.73-0.82c0.46,0,0.92,0.01,1.38,0.01c2.12,0.03,4.33,0.08,6.59-0.51
		c0.43-0.11,0.73-0.49,0.75-0.93c0.33-8.15,0.4-16.4,0.23-24.56c0.66,0.32,1.35,0.61,2.05,0.84c0.28,1.62,0.51,3.26,0.67,4.89
		c0.06,0.55,0.11,1.1,0.16,1.65c0.07,0.8,0.15,1.61,0.24,2.41c0.35,3.02,0.97,6.03,1.85,8.95c-4.93,4.75-8.55,10.98-10.22,17.62
		c-0.52,2.07-0.74,3.77-0.7,5.34l0.01,0.39c0.04,0.92,0.07,1.79-0.36,2.27c-0.27,0.3-0.88,0.39-1.22,0.17
		c-0.69-0.43-0.99-0.88-1-0.99c0,0,0-0.01,0-0.01C37.61,165.39,37.27,165.65,36.86,165.66z"/>
	<path class="st2" d="M37.83,164.66c0,0.1-0.02,0.19-0.05,0.28C37.81,164.85,37.83,164.76,37.83,164.66z"/>
	<path class="st2" d="M51.53,28.5c-0.53-0.16-0.83-0.72-0.66-1.25c0.16-0.53,0.72-0.82,1.25-0.66c0.13,0.04,0.25,0.09,0.38,0.14
		c0.65-2.36,1.51-4.65,2.43-6.86c-0.25-0.1-0.49-0.22-0.75-0.31c-0.52-0.18-0.8-0.75-0.62-1.27c0.18-0.52,0.75-0.8,1.27-0.62
		c0.3,0.1,0.58,0.24,0.88,0.36c0.37-0.84,0.74-1.67,1.1-2.48c0.2-0.44,0.4-0.87,0.61-1.29c-0.21-0.03-0.41-0.08-0.62-0.11
		c-0.55-0.07-0.93-0.58-0.86-1.12s0.58-0.93,1.12-0.86c0.5,0.07,0.99,0.16,1.48,0.25c0.39-0.5,0.83-0.93,1.35-1.23l-1.73-0.36
		c-0.23-0.05-0.48-0.11-0.74-0.18c-1.05,1.14-1.78,2.61-2.44,4.08c-2.39,5.34-5.08,11.37-5.58,17.8c-0.01,0.16-0.04,0.32-0.05,0.48
		c-0.03,0.55,0.39,1.03,0.94,1.06c0.02,0,0.04,0,0.06,0c0.52,0,0.96-0.41,1-0.94c0.02-0.33,0.07-0.66,0.11-1
		c0.12-1.16,0.29-2.32,0.54-3.46C51.85,28.61,51.7,28.55,51.53,28.5z"/>
	<path class="st2" d="M44.19,13.85c-1.01,2.37-1.37,5.09-1.66,8.02c-0.42,4.33-0.22,8.69,0.59,12.97c0.02,0.09,0.03,0.19,0.05,0.28
		c0.09,0.48,0.51,0.81,0.98,0.81c0.06,0,0.13-0.01,0.19-0.02c0.54-0.11,0.9-0.63,0.79-1.17c-0.05-0.28-0.1-0.55-0.15-0.83
		c-0.69-3.91-0.85-7.89-0.46-11.84c0.45-4.57,1.03-8.28,3.94-10.88c0.05-0.04,0.09-0.09,0.14-0.13c0.42-0.36,0.47-0.99,0.11-1.41
		c-0.26-0.3-0.65-0.4-1-0.31c-0.06,0.02-0.12,0.04-0.18,0.07c-0.08,0.04-0.16,0.07-0.23,0.13C45.85,10.79,44.87,12.24,44.19,13.85z"
		/>
	<path class="st2" d="M37.7,20.75c0.02-0.06,0.04-0.12,0.06-0.18c0.21-0.51-0.03-1.1-0.55-1.3c-0.38-0.16-0.79-0.06-1.07,0.21
		c-0.01,0.01-0.02,0.02-0.03,0.03c-0.08,0.09-0.16,0.19-0.2,0.31c-0.6,1.47-0.93,2.98-1.11,4.51c-0.33,2.86-0.09,5.76,0.15,8.43
		l0.59,6.75l0.01,0.09c0.06,0.69,0.46,0.98,0.69,1.09c0.15,0.07,0.31,0.11,0.47,0.11c0.41,0,0.81-0.23,1.01-0.63
		c0.2-0.4,0.09-0.94-0.22-1.25l-0.05-0.59l-0.5-5.74C36.61,28.77,36.24,24.47,37.7,20.75z"/>
	<path class="st2" d="M58.55,12.41c-0.49-0.09-0.98-0.18-1.48-0.25c-0.54-0.07-1.05,0.31-1.12,0.86s0.31,1.05,0.86,1.12
		c0.21,0.03,0.41,0.07,0.62,0.11c8.63,1.37,16.55,7.43,20.18,15.38c0.16,0.35,0.32,0.69,0.46,1.04c0.16,0.39,0.53,0.63,0.93,0.63
		c0.12,0,0.25-0.02,0.37-0.07c0.51-0.21,0.76-0.79,0.56-1.3c-0.02-0.05-0.05-0.1-0.07-0.16C76.22,20.86,67.98,14.19,58.55,12.41z"/>
	<path class="st2" d="M68.23,29.48c-2.59-5.21-7.1-9.32-12.52-11.45c-0.29-0.12-0.58-0.25-0.88-0.36c-0.52-0.18-1.09,0.09-1.27,0.62
		c-0.18,0.52,0.09,1.09,0.62,1.27c0.25,0.09,0.5,0.21,0.75,0.31c4.76,1.88,8.87,5.55,11.26,10.08c0.15,0.29,0.33,0.57,0.46,0.87
		c0.35,0.75,0.91,0.86,1.2,0.86c0.03,0,0.06,0,0.08,0c0.46-0.03,0.84-0.35,0.98-0.8c0.12-0.41,0-0.84-0.29-1.13
		c-0.04-0.04-0.07-0.08-0.11-0.11C68.43,29.56,68.34,29.51,68.23,29.48z"/>
	<path class="st2" d="M52.5,26.72c-0.13-0.04-0.25-0.1-0.38-0.14c-0.52-0.16-1.09,0.13-1.25,0.66c-0.16,0.53,0.13,1.09,0.66,1.25
		c0.16,0.05,0.32,0.11,0.47,0.17c1.43,0.53,2.52,1.39,3.49,2.77c0.25,0.36,0.5,0.74,0.74,1.17c0.18,0.33,0.52,0.51,0.87,0.51
		c0.17,0,0.33-0.04,0.49-0.13c0.48-0.27,0.66-0.88,0.39-1.36c-0.11-0.19-0.22-0.37-0.33-0.55C56.29,28.84,54.66,27.47,52.5,26.72z"
		/>
	<path class="st9" d="M63.46,3.55c-0.13-0.8-0.41-1.39-0.69-1.43c0,0,0,0-0.01,0c-0.23,0-0.55,0.16-0.72,0.24
		c-0.87,0.42-1.72,0.89-2.54,1.4C58.49,4.38,57.49,5.1,57,6.09c-0.38,0.77-0.33,1.91,0.33,2.37c0.31,0.21,0.79,0.31,1.25,0.41
		l5.09,1.06C63.87,7.8,63.8,5.66,63.46,3.55z"/>
	<path class="st2" d="M56.2,10.1c0.32,0.22,0.66,0.37,1,0.48c0.08,0.03,0.15,0.04,0.23,0.06c0.26,0.07,0.51,0.13,0.74,0.18
		l1.73,0.36l4.44,0.92c0.07,0.01,0.14,0.02,0.2,0.02c0.08,0,0.16-0.02,0.24-0.04c-0.11-0.07-0.23-0.13-0.34-0.21
		c-0.21-0.14-0.36-0.35-0.42-0.59c-0.48-1.96,0.1-4.17,1.62-6.31c-0.06-0.58-0.12-1.17-0.22-1.75c-0.4-2.46-1.67-2.99-2.39-3.09
		c-0.71-0.1-1.36,0.18-1.88,0.43c-0.92,0.45-1.83,0.95-2.7,1.49c-1.21,0.74-2.54,1.7-3.25,3.15c-0.46,0.94-0.57,2.13-0.25,3.17
		C55.17,9.05,55.57,9.67,56.2,10.1z M63.67,9.92l-5.09-1.06c-0.46-0.1-0.93-0.2-1.25-0.41C56.66,7.99,56.62,6.86,57,6.09
		c0.49-0.99,1.49-1.7,2.51-2.33c0.82-0.5,1.67-0.97,2.54-1.4c0.17-0.08,0.49-0.24,0.72-0.24c0,0,0,0,0.01,0
		c0.27,0.04,0.56,0.62,0.69,1.43C63.8,5.66,63.87,7.8,63.67,9.92z"/>
	<path class="st2" d="M24.08,38.59c-0.17,0-0.35-0.04-0.51-0.14c-0.47-0.28-0.63-0.9-0.35-1.37c0.1-0.16,0.19-0.33,0.29-0.5
		c-0.7-0.8-1.54-1.64-2.52-2.42c-0.2,0.27-0.4,0.56-0.61,0.82c-0.2,0.25-0.49,0.38-0.78,0.38c-0.22,0-0.44-0.07-0.62-0.22
		c-0.43-0.34-0.5-0.97-0.16-1.41c0.19-0.23,0.36-0.48,0.54-0.73c-1.17-0.73-2.47-1.36-3.94-1.77c-0.21-0.06-0.42-0.09-0.63-0.14
		c-0.21,0.3-0.41,0.6-0.63,0.89c-0.2,0.26-0.5,0.4-0.8,0.4c-0.21,0-0.42-0.07-0.6-0.2c-0.44-0.33-0.53-0.96-0.19-1.4
		c0,0,0,0,0.01-0.01c-2.15-0.11-4.25,0.33-6.06,1.24c-0.7,0.36-1.37,0.77-1.97,1.27c-0.42,0.35-0.48,0.99-0.13,1.41
		c0.35,0.42,0.99,0.48,1.41,0.13c0.04-0.03,0.08-0.05,0.12-0.08c2.31-1.87,5.72-2.47,8.93-1.57c2.65,0.74,5.22,2.5,7.32,4.97
		c0.2,0.23,0.4,0.46,0.58,0.71c0.2,0.26,0.49,0.39,0.79,0.39c0.11,0,0.22-0.02,0.33-0.06c0.1-0.03,0.19-0.08,0.28-0.15
		c0.04-0.03,0.06-0.07,0.09-0.11c0.12-0.12,0.2-0.27,0.24-0.42C24.38,38.55,24.24,38.59,24.08,38.59z"/>
	<path class="st2" d="M4.66,41.89C4.28,42,3.9,42.12,3.52,42.26c-0.52,0.19-0.79,0.76-0.6,1.28c0.19,0.52,0.76,0.79,1.28,0.6
		c0.04-0.01,0.07-0.02,0.11-0.03c2.76-0.97,5.41-1.09,9.11-0.41c3.01,0.55,6.1,1.76,9.19,3.58c0.07,0.04,0.15,0.08,0.22,0.13
		c0.16,0.1,0.34,0.14,0.51,0.14c0.34,0,0.67-0.17,0.86-0.49c0.28-0.47,0.13-1.09-0.34-1.37c-0.57-0.34-1.13-0.65-1.7-0.95
		c-2.81-1.49-5.62-2.5-8.38-3.01C10.19,41.07,7.39,41.11,4.66,41.89z"/>
	<path class="st2" d="M3.26,51.42c-0.43,0.13-0.86,0.27-1.28,0.42c-0.52,0.19-0.79,0.76-0.61,1.28s0.76,0.79,1.28,0.61
		c0.1-0.04,0.21-0.07,0.31-0.1c6.98-2.39,14.97-1.82,21.54,1.54c0.11,0.05,0.22,0.1,0.32,0.16c0.15,0.08,0.31,0.12,0.47,0.12
		c0.36,0,0.71-0.19,0.88-0.53c0.26-0.49,0.07-1.09-0.42-1.35c-0.62-0.33-1.25-0.62-1.89-0.9C17.44,49.84,9.96,49.38,3.26,51.42z"/>
	<path class="st2" d="M4.51,59.13c-0.38,0.01-0.62-0.02-0.85-0.06c-0.44-0.06-0.83-0.09-1.39,0.04c-0.17,0.04-0.34,0.09-0.54,0.16
		c-0.52,0.18-0.79,0.76-0.61,1.28c0.14,0.4,0.52,0.65,0.92,0.66c0.12,0,0.24-0.01,0.36-0.05c0.49-0.17,0.62-0.16,0.99-0.1
		c0.27,0.04,0.64,0.08,1.18,0.08C9.87,61,15.23,61.26,20.5,61.89c1.91,0.23,3.88,0.55,5.38,1.56c0.07,0.05,0.15,0.09,0.22,0.14
		c0.18,0.13,0.39,0.2,0.6,0.2c0.3,0,0.6-0.14,0.8-0.4c0.33-0.44,0.24-1.07-0.2-1.4c-0.5-0.38-1.04-0.68-1.6-0.93
		c-1.56-0.7-3.29-0.96-4.96-1.16C15.37,59.26,9.92,59,4.51,59.13z"/>
	<path class="st2" d="M16.58,4.81c0.11,0.32,0.21,0.64,0.31,0.96c2.6,8.34,0.96,18.04-4.32,24.99c0,0,0,0-0.01,0.01
		c-0.33,0.44-0.25,1.07,0.19,1.4c0.18,0.14,0.39,0.2,0.6,0.2c0.3,0,0.6-0.14,0.8-0.4c0.22-0.29,0.42-0.59,0.63-0.89
		c5.1-7.32,6.66-17.14,4.08-25.68c-0.13-0.43-0.26-0.85-0.41-1.27c-0.13-0.36-0.44-0.58-0.79-0.64c-0.16-0.02-0.32-0.02-0.48,0.03
		c-0.05,0.02-0.08,0.05-0.13,0.08C16.63,3.84,16.41,4.34,16.58,4.81z"/>
	<path class="st2" d="M25.17,6.12c0.02,0.24,0.03,0.46,0.04,0.7c0.36,5.35,0.16,9.78-0.64,13.86c-0.92,4.73-2.73,8.96-5.21,12.32
		c-0.18,0.24-0.35,0.49-0.54,0.73c-0.34,0.43-0.27,1.06,0.16,1.41c0.18,0.15,0.4,0.22,0.62,0.22c0.29,0,0.58-0.13,0.78-0.38
		c0.21-0.26,0.41-0.54,0.61-0.82c2.65-3.6,4.57-8.09,5.54-13.1c0.76-3.9,1.01-8.24,0.75-13.23c-0.03-0.61-0.07-1.23-0.12-1.86
		c-0.02-0.23-0.12-0.43-0.27-0.59c-0.18-0.2-0.42-0.32-0.7-0.32c-0.03,0-0.07-0.01-0.1-0.01C25.54,5.09,25.13,5.57,25.17,6.12z"/>
	<path class="st2" d="M32,8.91c-0.54,0-0.99,0.43-1,0.98c0,0.17-0.01,0.34-0.02,0.52c-0.28,9.19-2.85,18.22-7.47,26.17
		c-0.1,0.17-0.19,0.33-0.29,0.5c-0.28,0.47-0.13,1.09,0.35,1.37c0.16,0.1,0.34,0.14,0.51,0.14c0.15,0,0.3-0.04,0.44-0.11
		c0.17-0.08,0.32-0.21,0.42-0.38c0.2-0.34,0.4-0.69,0.59-1.04c4.33-7.64,6.86-16.21,7.37-24.97c0.04-0.72,0.07-1.44,0.09-2.16
		C33,9.68,32.9,9.45,32.75,9.27c-0.07-0.08-0.16-0.15-0.26-0.21c-0.14-0.08-0.3-0.14-0.47-0.15C32.01,8.91,32.01,8.91,32,8.91z"/>
	<path class="st9" d="M65.9,10.43c2.88,1.74,6.96,1.8,9.88,0.14c0.77-0.44,1.72-1.16,1.88-2.11c0.2-1.15-0.8-2.26-1.24-2.68
		c-1.4-1.34-3.31-2.13-5.25-2.18l-0.15,0c-0.5,0-0.9,0.06-1.23,0.18c-0.71,0.26-1.31,0.87-1.8,1.43
		C67.06,6.28,65.61,8.34,65.9,10.43z"/>
	<path class="st2" d="M64.03,11.29c0.06,0.24,0.21,0.46,0.42,0.59c0.11,0.07,0.23,0.14,0.34,0.21c1.49,0.92,3.24,1.49,5.05,1.66
		c0.38,0.04,0.76,0.06,1.14,0.06c0.99,0,1.97-0.13,2.91-0.36c1.02-0.25,1.99-0.63,2.89-1.14c1.63-0.93,2.62-2.14,2.86-3.51
		c0.26-1.48-0.41-3.11-1.83-4.47c-1.75-1.68-4.15-2.68-6.59-2.74l-0.2,0c-0.73,0-1.36,0.1-1.91,0.3c-1.15,0.41-2.01,1.29-2.63,2
		c-0.31,0.36-0.58,0.71-0.84,1.08C64.13,7.12,63.55,9.32,64.03,11.29z M69.8,3.77c0.33-0.12,0.73-0.18,1.23-0.18l0.15,0
		c1.94,0.04,3.85,0.84,5.25,2.18c0.44,0.42,1.44,1.53,1.24,2.68c-0.17,0.95-1.11,1.67-1.88,2.11c-2.91,1.66-6.99,1.6-9.88-0.14
		C65.61,8.34,67.06,6.28,68,5.21C68.49,4.64,69.09,4.03,69.8,3.77z"/>
	<path class="st2" d="M68.32,138.39c5.19,0.93,10.22,3.67,14.55,7.93c0.19,0.19,0.45,0.29,0.7,0.29c0.26,0,0.52-0.1,0.71-0.3
		c0.39-0.39,0.38-1.03-0.01-1.41c-4.61-4.54-10.01-7.47-15.6-8.47c-5.55-0.99-11.24,0.08-15.63,2.86c-0.57,0.36-1.11,0.74-1.64,1.16
		c-0.43,0.34-0.5,0.97-0.16,1.41c0.22,0.28,0.56,0.39,0.89,0.35c0.18-0.02,0.37-0.07,0.52-0.2
		C56.76,138.72,62.62,137.37,68.32,138.39z"/>
	<path class="st2" d="M48.87,178.51l0.6,0.56c0.19,0.18,0.44,0.26,0.68,0.26c0.27,0,0.54-0.11,0.74-0.32
		c0.37-0.41,0.35-1.04-0.06-1.41l-0.59-0.55c-0.76-0.71-1.55-1.45-2.45-2.08c-0.96-0.67-1.93-1.1-2.88-1.32
		c-0.43-0.1-0.85-0.16-1.27-0.17c-0.58-0.02-1.01,0.44-1.01,0.99c-0.01,0.55,0.44,1.01,0.99,1.01c0.14,0,0.29,0.03,0.44,0.05
		c0.83,0.1,1.7,0.46,2.6,1.08C47.43,177.15,48.13,177.81,48.87,178.51z"/>
	<path class="st2" d="M42.62,196.58c0.55-0.08,0.93-0.58,0.85-1.13c-0.02-0.15-0.01-0.3-0.02-0.44c-0.11-1.45,0.19-2.92,0.91-4.19
		c0.18-0.31,0.39-0.63,0.64-0.97c0.4-0.54,0.85-1.05,1.34-1.51c0.4-0.38,0.41-1.02,0.03-1.41c-0.38-0.4-1.02-0.41-1.41-0.03
		c-0.56,0.54-1.09,1.13-1.55,1.76c-0.31,0.41-0.56,0.79-0.78,1.18c-0.66,1.16-1.05,2.46-1.17,3.78c-0.06,0.7-0.05,1.41,0.04,2.11
		c0,0.03,0.02,0.06,0.03,0.09c0.06,0.27,0.23,0.48,0.45,0.61c0.15,0.09,0.32,0.16,0.51,0.16C42.52,196.59,42.57,196.59,42.62,196.58
		z"/>
	<path class="st2" d="M38.46,185.22c0.51-0.21,0.76-0.79,0.56-1.3c-0.2-0.51-0.78-0.76-1.3-0.56c-2.12,0.85-3.74,1.91-4.94,3.24
		c-1.12,1.23-1.83,2.7-2.06,4.18c-0.08,0.53-0.11,1.06-0.07,1.58c0.04,0.52,0.48,0.92,1,0.92c0.03,0,0.05,0,0.08,0
		c0.55-0.04,0.96-0.53,0.92-1.08c-0.02-0.22-0.01-0.44,0-0.66c0.08-1.25,0.65-2.53,1.62-3.61
		C35.25,186.84,36.63,185.95,38.46,185.22z"/>
	<path class="st2" d="M50.54,193.41c-0.07-0.21-0.21-0.38-0.37-0.5c-0.01-0.07-0.01-0.15-0.02-0.22c-0.12-1.42,0.53-2.9,1.69-3.73
		c0.45-0.32,0.55-0.95,0.23-1.4c-0.32-0.45-0.95-0.55-1.4-0.23c-1.68,1.21-2.64,3.26-2.54,5.31c0.02,0.31,0.05,0.62,0.12,0.93
		c0.04,0.21,0.2,0.74,0.69,1.02c0.16,0.09,0.33,0.13,0.5,0.15c0.03,0,0.06,0.01,0.08,0.01c0.1,0,0.2-0.02,0.3-0.05
		c0.03-0.01,0.05,0,0.08-0.01C50.43,194.5,50.71,193.93,50.54,193.41z"/>
	<path class="st2" d="M33.4,158.89c0.67-1.41,2.13-2.56,4.37-3.42c0.52-0.2,0.77-0.78,0.57-1.29c-0.2-0.52-0.78-0.77-1.29-0.57
		c-2.73,1.05-4.56,2.54-5.45,4.43c-0.5,1.06-0.68,2.19-0.78,3.26c-0.03,0.35-0.05,0.69-0.08,1.02c-0.04,0.55,0.38,1.03,0.93,1.07
		c0.02,0,0.05,0,0.07,0c0.33,0,0.61-0.17,0.8-0.42c0.11-0.15,0.19-0.31,0.2-0.51C32.82,161.21,32.9,159.94,33.4,158.89z"/>
	<path class="st2" d="M37.76,165.04c0.01-0.03,0.01-0.06,0.02-0.1c0.03-0.09,0.05-0.18,0.05-0.28c0-0.01,0.01-0.02,0.01-0.03
		c-0.05-2.11,0.94-4.22,2.6-5.53c0.43-0.34,0.51-0.97,0.17-1.4c-0.34-0.43-0.97-0.51-1.4-0.17c-2.03,1.6-3.28,4.15-3.35,6.73
		c0,0.14-0.02,0.28-0.01,0.42c0.01,0.54,0.46,0.97,1,0.97c0.01,0,0.02,0,0.03,0C37.27,165.65,37.61,165.39,37.76,165.04z"/>
	<path class="st2" d="M40.28,140.3c-0.07-0.55-0.57-0.93-1.12-0.87c-2.13,0.27-4.49,0.75-6.52,2.12c-0.43,0.29-0.85,0.61-1.24,0.99
		c-0.4,0.38-0.41,1.02-0.03,1.41c0.2,0.2,0.46,0.31,0.72,0.31c0.25,0,0.5-0.09,0.69-0.28c0.39-0.38,0.82-0.69,1.27-0.96
		c1.64-1,3.59-1.39,5.36-1.61C39.96,141.35,40.35,140.85,40.28,140.3z"/>
	<path class="st2" d="M53.48,111.88c0-0.01,0.01-0.02,0.01-0.03c0.29-0.73,0.63-1.82,0.25-2.92c-0.46-1.31-2.08-2.06-3.23-1.45
		c-0.56,0.3-0.87,0.79-1.06,1.22c-0.1,0.22-0.18,0.42-0.22,0.56c-0.47,1.45-0.72,2.96-0.76,4.48c0,0.11-0.01,0.22-0.01,0.33
		c0,0.14-0.01,0.28-0.01,0.42c0.01,0.39,0.03,1.32,0.74,1.92c0.2,0.16,0.44,0.26,0.68,0.26c0.1,0,0.21-0.02,0.31-0.06
		c0.34-0.13,0.57-0.4,0.62-0.75c0.03-0.05,0.13-0.16,0.23-0.25c0.06-0.06,0.11-0.13,0.17-0.19c0.44-0.47,0.85-0.97,1.21-1.51
		C52.83,113.27,53.2,112.59,53.48,111.88z M50.66,111.91c0.11-0.68,0.26-1.36,0.48-2.02c0.16-0.5,0.28-0.61,0.32-0.63
		c0.11,0,0.34,0.16,0.4,0.35c0.12,0.35,0.05,0.85-0.22,1.53c-0.11,0.27-0.25,0.54-0.38,0.8c-0.22,0.43-0.47,0.85-0.76,1.24
		C50.52,112.75,50.59,112.33,50.66,111.91z"/>
	<g>
		<path class="st0" d="M66.03,178.22c-0.06-0.07-0.12-0.12-0.17-0.19c-0.03,0.06-0.06,0.12-0.09,0.18
			C65.86,178.2,65.94,178.21,66.03,178.22z"/>
		<path class="st0" d="M30.9,190.01c-0.15,0.19-0.29,0.39-0.41,0.59c0.07,0.06,0.14,0.12,0.22,0.17
			C30.75,190.52,30.83,190.27,30.9,190.01z"/>
		<path class="st0" d="M108.22,131.92c-2.03-2.42-4.26-4.78-6.42-7.05c-4.25-4.49-8.64-9.12-11.85-14.57l-0.14-0.25
			c-0.4-0.69-0.78-1.34-1.28-1.84c-0.09-0.09-0.19-0.16-0.29-0.24c-0.72-0.38-1.43-0.77-2.13-1.15c-0.55-0.3-1.11-0.6-1.66-0.9
			l-4.22-1.99c-2.73,2.06-5.89,3.5-8.91,4.73c1.2-0.38,2.41-0.76,3.61-1.13c1.59-0.5,3.37-0.99,4.88-0.27
			c0.73,0.35,1.31,0.95,1.87,1.54c5.08,5.32,10.17,10.64,15.25,15.96c2.46,2.58,4.92,5.15,7.22,7.87c3.2,3.79,6.14,7.98,7.4,12.78
			c1.69,6.43,0.15,13.47-3.4,19.1c-3.55,5.62-8.96,9.91-14.9,12.9c-3.52,1.77-7.25,3.12-11.09,4c-4.31,1-9.31,1.18-13.08-0.76
			c3.52,2.5,8.11,3.88,13.29,3.88c2.04,0,4.09-0.21,6.12-0.63c5.04-1.04,9.9-3.19,14.06-6.21c2.89-2.1,5.66-4.78,8.25-7.97
			c3.69-4.55,5.84-8.79,6.57-12.96C119.04,147.21,113.31,137.98,108.22,131.92z"/>
		<path class="st0" d="M43.58,195.26c0.51,0.62,1.65,0.94,2.4,0.64c0.97-0.38,1.27-1.04,1.78-2.37c0.11-0.29,0.24-0.59,0.37-0.9
			c-0.03-0.66,0.06-1.33,0.24-1.96c-1.04,1.13-2.44,1.92-3.93,1.73c-0.17-0.23-0.33-0.46-0.5-0.68c-0.41,1.04-0.58,2.18-0.5,3.3
			C43.49,195.09,43.52,195.18,43.58,195.26z"/>
		<path class="st0" d="M65.93,180.98l-0.88-1.2c-0.03-0.05-0.05-0.1-0.07-0.15c-2.46,3.8-6.7,6.27-10.73,8.52
			c-0.51,0.29-1.14,0.57-1.65,0.28c-0.14-0.08-0.25-0.19-0.36-0.31c0.01,0.32-0.12,0.63-0.4,0.83c-1.16,0.83-1.81,2.31-1.69,3.73
			c0.23,0.09,0.59,0.19,0.91,0.23c0,0,0.01,0,0.01,0c0.4,0,0.84-0.24,1.22-0.47C57.42,189.36,62.01,185.51,65.93,180.98z"/>
		<path class="st0" d="M41.78,191.87c-1.14,1.18-3.01,1.7-4.51,0.98c-1.61-0.77-2.52-2.53-3.92-3.6c-0.41,0.74-0.66,1.53-0.71,2.3
			c0.13,0.19,0.23,0.42,0.2,0.65c-0.08,0.74,0.28,1.33,0.6,1.7c0.65,0.76,1.72,1.28,2.73,1.34c1.84,0.1,3.65-0.77,5.28-1.61
			C41.5,193.03,41.61,192.44,41.78,191.87z"/>
	</g>
	<path class="st11" d="M101.28,31c-2.6-2.52-5.47-4.73-8.53-6.63c7.29,7.51,12.53,17.03,14.74,27.26c1.6,7.41,1.33,16.02-3.98,21.42
		c-5.22,5.3-13.66,5.89-19.71,10.17c-0.04,0.34-0.08,0.68-0.1,1.01c-0.04,0.64,0.06,0.74,0.06,0.74c0,0,0.06,0.04,0.29,0.04
		c0.17,0,0.34-0.02,0.5-0.04c6.21-0.84,14.18-2.36,20.78-6.71c6.56-4.33,10.63-11.1,10.61-17.67c0-1.96-0.35-4.12-1.09-6.77
		C112.44,45.15,107.74,37.26,101.28,31z"/>
	<path class="st0" d="M85.31,64.95c0.65-3.83,1.16-7.64,1.43-11.44c0.43-6,0.2-11.59-0.65-16.72c-0.39-1.42-0.84-2.8-1.41-4.11
		c-0.06-0.14-0.12-0.27-0.18-0.41c-1.92-0.26-3.85-0.44-5.79-0.56c1.45,1.1,2.63,2.63,3.4,4.29c1.33,2.91,1.62,6.18,1.77,9.37
		c0.15,3.25,0.16,6.5,0.04,9.74c0.68,2.14,0.72,4.29,0.63,5.71c-0.1,1.58-0.36,2.9-0.8,4.03c-0.2,0.5-0.45,0.98-0.74,1.45
		c-0.94,7.28-2.54,14.48-4.77,21.47c0.46,0.08,0.92,0.23,1.33,0.39c0.34,0.13,0.69,0.28,1.03,0.41c0.34-1.5,0.58-3.04,0.81-4.56
		c0.07-0.48,0.15-0.97,0.22-1.45c0.66-4.13,1.59-8.26,2.49-12.25C84.53,68.56,84.93,66.76,85.31,64.95z"/>
	<path class="st11" d="M160.17,166.74c-0.56,0.3-1.12,0.66-1.67,1.03c-0.08,0.16-0.15,0.31-0.22,0.47
		c-3.09,6.47-9.45,10.96-16.28,13.15c-6.83,2.18-14.15,2.31-21.31,1.92c-4.08-0.22-8.28-0.64-11.87-2.59
		c-1.14-0.62-2.22-1.39-3.31-2.12c-1.67,1.32-3.42,2.5-5.23,3.48c6.11,1.78,12.39,2.99,18.71,3.61c2.1,0.21,3.79,0.3,5.33,0.3
		l0.55,0c5.12-0.08,10.65-1.27,17.41-3.76c3.82-1.41,8.21-3.25,11.82-6.26C157.21,173.36,159.36,170.08,160.17,166.74z"/>
</g>
</svg>
