<?xml version="1.0" encoding="utf-8"?>
<!-- Generator: Adobe Illustrator 23.1.0, SVG Export Plug-In . SVG Version: 6.00 Build 0)  -->
<svg version="1.1" id="Vrstva_10" xmlns="http://www.w3.org/2000/svg" xmlns:xlink="http://www.w3.org/1999/xlink" x="0px" y="0px"
	 viewBox="0 0 162.469 197.904" enable-background="new 0 0 162.469 197.904" xml:space="preserve">
<path fill="#4A321A" d="M763.424,206.003c0.238-0.114,0.34-0.389,0.453-0.627c0.642-1.348,2.26-2.026,3.75-1.927
	s2.861,0.84,4.081,1.701c0.125-0.265-0.052-0.57-0.236-0.797c-1.078-1.333-2.707-2.206-4.413-2.367
	c-0.987-0.093-2.016,0.052-2.876,0.545s-1.53,1.36-1.656,2.344c-0.038,0.293-0.023,0.608,0.136,0.856
	C762.82,205.979,763.158,206.13,763.424,206.003z"/>
<path fill="#4A321A" d="M734.954,208.301c0.72-0.496,1.622-0.674,2.495-0.649c0.874,0.025,1.73,0.24,2.572,0.473
	c0.118,0.033,0.243,0.065,0.361,0.031s0.214-0.167,0.166-0.279c-0.028-0.065-0.093-0.104-0.155-0.139
	c-1.11-0.626-2.291-1.239-3.565-1.261c-1.15-0.02-2.278,0.461-3.154,1.207c-0.877,0.745-1.517,1.74-1.966,2.799
	c-0.159,0.374-0.253,0.898,0.092,1.112c0.384,0.238,0.838-0.179,1.079-0.561C733.492,210.058,734.004,208.955,734.954,208.301z"/>
<g>
	<polygon fill="#F2EEE9" points="13.426,8.645 8.281,21.874 4.656,36.355 1.463,54.718 0.764,63.325 5.298,66.547 12.308,68.729 
		24.359,68.729 27.391,64.515 23.153,43.929 23.168,38.207 28.324,38.781 28.326,45.931 39.781,37.59 46.838,34.416 54.056,32.629 
		71.53,30.278 85.335,30.834 82.969,22.009 75.781,15.326 71.967,12.683 77.079,10.804 79.22,8.648 77.604,5.292 73.872,3.481 
		69.917,2.003 65.864,5.903 64.599,5.292 63.372,1.161 58.553,2.729 56.761,4.811 55.499,8.821 47.452,10.582 38.656,17.277 
		33.644,11.661 25.538,5.657 16.517,4.324 	"/>
	<path fill="#A47C4F" d="M37.807,136.144c-1.504,0.275-6.463,1.12-5.748,2.813c0.448,1.06-1.665,7.447-1.892,8.131
		c2.531-0.966,5.998-0.831,8.526-0.8c1.747,0.023,4.147-0.279,5.946-0.632c0.099-2.606,0.361-6.362,0.409-8.981
		C42.793,136.036,40.106,135.721,37.807,136.144z"/>
	<path fill="#BA9060" d="M48.316,113.609c-0.012-0.002-0.022-0.009-0.034-0.011c0.005,0.093,0.013,0.189,0.016,0.281
		c0.057,0.025,0.112,0.053,0.169,0.079c0-0.111,0.004-0.221,0.007-0.332C48.422,113.618,48.368,113.616,48.316,113.609z"/>
	<path fill="#BA9060" d="M85.164,105.462l-4.986-2.403c-3.458,2.599-7.596,4.472-11.276,5.906
		c-4.754,1.854-10.657,4.191-16.568,4.398c-0.358,0.54-0.996,1.245-1.436,1.713c-1.163,0.979-1.044,9.625-0.048,11.796
		c0.001,0.014-0.021,0.114-0.019,0.128c0.058,0.557-0.363,0.934-0.312,1.491c0.073,0.788,0.13,1.65,0.222,2.438
		c0.322,2.773,1.159,8.25,1.159,8.25s0.648,0.852,0.563,1.491c-0.026,0.197-1.504,1.131-1.688,1.151
		c-4.413,4.427-7.149,9.825-8.668,15.878c-0.473,1.888-0.473,3.01-0.435,4.398l-0.332,1.202c0.036,0.941,0.502,1.947,0,2.915
		c0.565,2.735,0.532,5.382,2.327,7.185c0.002,0.002,0.177,0.663,0.179,0.665c-0.551,0.433,0.088,0.973-0.741,0.869
		c-3.516,1.635-6.011,3.279-9.205,5.472c-2.081,1.429-5.051,3.577-5.676,5.804c-0.316,1.123,0.265,2.722,0.997,3.689
		c0.19,0.251,1.043,1.092,1.381,1.297c0.332-0.228,0.997,0.102,1.406,0.281c0.215,0.094,0.127,0.38,0.102,0.614
		c-0.076,0.738,0.044,1.524,0.358,1.892c0.646,0.756,2.542,1.8,3.554,1.857c1.838,0.095,3.788-0.931,5.492-1.622
		c0.328-0.133,0.593,0.506,0.9,0.788c0.068,0.063,0.751,0.659,0.818,0.741c0.507,0.619,1.886,1.11,2.632,0.818
		c0.973-0.379,1.58-0.762,2.098-2.097c0.112-0.289,0.21-0.953,0.537-1.02c0.639-0.13,1.048-0.258,1.662-0.233
		c0.252,0.011,0.503,0.091,0.818,0.128c0.003,0,0.55,0.105,0.553,0.105c0.402,0,0.804-0.158,1.185-0.386
		c5.143-3.079,9.965-7.186,13.884-11.71c0,0,2.148-0.232,2.608,0.026c4.576,2.557,5.611,3.749,12.119,3.749
		c2.036,0,4.932-0.059,6.955-0.476c5.04-1.041,10.004-2.754,14.165-5.778c2.887-2.1,6.233-5.147,8.821-8.335
		c3.692-4.549,6.173-9.588,6.903-13.756c1.669-9.525-3.802-19.096-8.898-25.159c-2.034-2.421-4.746-4.831-6.903-7.108
		c-4.249-4.485-8.684-8.793-11.889-14.241l-0.307-0.46c-0.402-0.688-0.679-1.213-1.177-1.713c-0.087-0.088-0.242-0.439-0.338-0.519
		c-0.715-0.382-1.077-0.785-1.783-1.168C86.328,106.11,85.72,105.761,85.164,105.462z"/>
	<path fill="#4C331B" d="M47.45,106.351c-0.17,1.152-0.349,2.307-0.557,3.461c0.207,0.207,0.4,0.434,0.563,0.689L47.45,106.351z"/>
	<g>
		<path fill="#A47C4F" d="M41.777,191.753c-1.136,1.176-3.013,1.696-4.511,0.979c-1.606-0.769-2.522-2.534-3.916-3.603
			c-0.754,0.375-0.991,1.314-1.04,2.088c0.135,0.192,0.029,1.34,0.004,1.574c-0.076,0.738,0.879,1.332,1.193,1.7
			c0.646,0.756,1.717,1.28,2.729,1.337c1.838,0.095,3.647-0.765,5.278-1.614C41.568,193.622,42.005,192.483,41.777,191.753z"/>
		<path fill="#A47C4F" d="M66.032,178.106c-0.055-0.065-0.116-0.122-0.17-0.189c-0.028,0.06-0.061,0.116-0.09,0.175
			C65.86,178.085,65.945,178.089,66.032,178.106z"/>
		<path fill="#A47C4F" d="M30.896,189.895c-0.15,0.187-0.285,0.387-0.408,0.595c0.075,0.058-0.219,0.728,0.408,0.37
			C31.42,190.43,30.827,190.15,30.896,189.895z"/>
		<path fill="#A47C4F" d="M108.764,131.235c-2.034-2.421-4.567-4.984-6.724-7.261c-4.249-4.485-8.48-8.665-11.685-14.114
			l-0.307-0.741c-0.402-0.688-0.678-0.855-1.176-1.355c-0.087-0.088-0.441-0.379-0.537-0.46c-0.715-0.382-1.448-0.731-2.153-1.114
			c-0.55-0.298-1.177-0.786-1.733-1.085l-4.5-2.045c-2.734,2.055-6.085,3.503-8.644,5.477c1.205-0.378,2.409-0.756,3.614-1.135
			c1.593-0.5,3.369-0.99,4.876-0.273c0.733,0.349,1.312,0.949,1.873,1.536c5.083,5.319,10.167,10.638,15.25,15.958
			c2.461,2.575,4.924,5.152,7.222,7.874c3.204,3.793,6.139,7.978,7.404,12.779c1.695,6.432,0.149,13.473-3.402,19.097
			c-3.551,5.624-8.962,9.91-14.905,12.897c-3.52,1.769-7.253,3.117-11.091,4.004c-4.307,0.996-9.308,1.176-13.075-0.762
			c1.34,2.193,8.245,4.613,13.428,4.613c2.036,0,4.094-0.212,6.117-0.63c5.04-1.041,10.65-3.656,14.811-6.681
			c2.887-2.1,5.664-4.781,8.252-7.97c3.692-4.549,5.687-9.153,6.418-13.321C119.765,146.996,113.859,137.298,108.764,131.235z"/>
		<path fill="#A47C4F" d="M43.105,195.584c0.507,0.619,1.65,0.937,2.396,0.645c0.973-0.379,2.122-1.196,2.641-2.531
			c0.112-0.289,0.507-0.908,0.639-1.215c-0.032-0.665,0-1.367-0.414-1.931c-1.045,1.131-2.438,1.92-3.928,1.726
			c-0.166-0.228-0.331-0.456-0.497-0.684c-0.888,0.889-1.06,2.616-0.975,3.74C43.007,195.417,43.037,195.501,43.105,195.584z"/>
		<path fill="#A47C4F" d="M66.602,180.939l-1.202-1.423c-0.035-0.047-0.401,0.051-0.426,0c-2.457,3.803-6.701,6.274-10.728,8.515
			c-0.512,0.285-1.145,0.573-1.655,0.283c-0.139-0.079-0.25-0.194-0.359-0.312c0.006,0.317-0.873,0.434-1.15,0.633
			c-1.157,0.83-1.447,2.904-1.33,4.321c0.235,0.093,1.194,0.452,1.509,0.488c0.003,0,0.205,0.151,0.511-0.182
			c0.273-0.296,1.076-0.513,1.457-0.741C58.372,189.442,62.683,185.464,66.602,180.939z"/>
	</g>
	<path fill="#7B5632" d="M154.906,176.247c3.111-2.597,5.254-7.159,6.068-10.495c-0.897,0.484-2.889,1.218-3.784,1.841
		c-0.504,0.351-0.817,0.743-1.33,1.074c-5.272,3.411-11.298,5.165-19.381,5.165c-2.259,0-4.803-0.041-7.313-0.307
		c-5.867-0.62-11.2-3.354-14.574-6.898c-3.145,5.672-10.044,12.303-15.972,15.489c6.105,1.779,13.841,3.678,20.165,4.295
		c2.099,0.205,4.239,0.153,5.778,0.153l1.278-0.205c5.117-0.077,10.625-1.347,17.386-3.835
		C147.051,181.118,151.297,179.258,154.906,176.247z"/>
	<path fill="#BA9060" d="M81.508,89.777c0.342-1.501,0.526-2.699,0.756-4.216c0.074-0.483,0.114-1.584,0.191-2.065
		c0.656-4.126,1.683-7.971,2.584-11.965c0.4-1.772,0.759-4.067,1.143-5.877c0.649-3.829,1.499-8.489,1.77-12.297
		c0.428-6,0.135-11.136-0.716-16.265c-0.393-1.421-0.205-2.835-0.767-4.142c-0.06-0.14-1.092-1.273-1.153-1.409
		c-5.303-0.73-10.406-0.836-14.852-0.584c-6.219,0.354-12.779,1.028-17.967,1.928c-2.5,0.434-4.16,0.931-5.658,1.53
		c-2.064,0.823-3.492,1.553-4.619,2.256l-5.839,3.007c-1.216,0.893-2.999,2.097-3.786,2.834c-0.769,0.718-1.402,1.182-1.614,1.416
		c-0.702,0.771-1.241,1.065-1.426,1.243c-0.153,0.148-1.066,0.675-1.227,0.759c-0.036,4.46,0.423,8.448,1.636,12.025
		c0.631,1.714,1.498,6.292,2.135,7.313c1.157,1.854,0.671,2.976,1.751,3.528c0.017,0.062,0.307,1.921,0.307,1.921
		c1.179,4.494,0.154,6.454-0.614,10.919c-0.166,0.967-0.366,2.359-0.511,3.319c-1.021,6.748-0.428,11.92,2.352,14.992
		c2.819,3.113,6.843,4.303,10.943,4.51c0.376-0.331,3.227,0.052,3.502-0.002c2.757-0.541,3.415-1.001,6.214-1.295
		c0.548-0.058,2.335-0.152,2.884-0.205c1.982-0.191,4.428,0.025,6.372-0.409c2.387-0.53,5.143-1.96,6.669-3.107
		C71.882,99.292,81.166,89.642,81.508,89.777z"/>
	<path fill="#5C3F22" d="M160.429,166.093c-0.563,0.304-1.398,0.534-1.926,1.567c-0.075,0.156-0.151,0.314-0.224,0.466
		c-3.088,6.474-9.446,10.962-16.279,13.145c-6.833,2.184-14.149,2.307-21.311,1.92c-4.079-0.22-8.282-0.637-11.87-2.589
		c-1.138-0.619-2.219-1.39-3.31-2.122c-1.909,0.157-5.073,2.217-6.887,3.192c6.068,2.557,14.369,4.394,20.693,5.011
		c2.099,0.205,3.949-0.17,5.489-0.17l0.784,0.034c5.117-0.077,10.386-1.33,17.148-3.818c3.821-1.406,8.562-3.47,12.17-6.482
		C158.017,173.65,160.993,167.536,160.429,166.093z"/>
	<path fill="#A47C4F" d="M86.099,66.138c0.649-3.829,1.581-8.973,1.852-12.781c0.428-6,0.442-9.756-0.409-14.886
		c0.08-1.441,0.032-3.236-1.901-6.181c-0.083-0.127-0.265-0.614-0.327-0.75c-1.92-0.264-4.658,0.181-6.592,0.058
		c1.455,1.101,2.634,2.626,3.398,4.294c1.332,2.909,1.624,6.176,1.77,9.372c0.148,3.246,0.156,6.497,0.041,9.744
		c0.676,2.145,0.717,4.294,0.63,5.71c-0.097,1.578-0.36,2.896-0.803,4.027c-0.198,0.505-0.455,0.984-0.737,1.45
		c-0.936,7.283-2.537,14.478-4.772,21.472c0.463,0.081,0.919,0.229,1.334,0.391c0.341,0.133,0.685,0.277,1.027,0.411
		c0.815,1.802,1.466,0.02,1.696-1.497c0.074-0.483,0.071-2.56,0.147-3.042c0.656-4.126,1.241-6.233,2.142-10.227
		C84.996,71.934,85.715,67.948,86.099,66.138z"/>
	<path fill="#4C331B" d="M48.661,103.81c0.033-0.035-0.634,0.003-0.599-0.028c-4.1-0.207-8.555-1.072-11.374-4.185
		c-2.78-3.072-3.635-7.846-2.614-14.594c0.145-0.96,0.311-1.924,0.477-2.891c0.768-4.466,1.562-9.083,0.383-13.577
		c-0.016-0.062-0.039-0.121-0.056-0.183c-0.953-0.712-1.753-1.563-2.349-2.533c-0.95-1.545-1.446-3.479-1.436-5.595
		c0.002-0.359,0.032-0.715,0.063-1.071c-1.213-3.578-1.806-7.631-1.77-12.091c-0.209,0.108-0.424,0.168-0.644,0.168
		c-0.208,0-0.415-0.052-0.598-0.149c-0.542-0.287-0.666-0.84-0.707-1.021c-0.01-0.043-0.013-0.087-0.023-0.13
		c-0.174,5.8,0.636,11.004,2.434,15.463c0.375,0.931,0.8,1.847,1.21,2.732c0.771,1.665,1.5,3.237,1.941,4.917
		c1.069,4.074,0.312,8.475-0.419,12.73c-0.169,0.98-0.337,1.958-0.484,2.931c-1.116,7.379-0.099,12.689,3.109,16.234
		c3.161,3.492,7.875,4.536,12.243,4.812h0.786C48.235,105.411,48.152,104.339,48.661,103.81z"/>
	<path fill="#4C331B" d="M86.099,36.672c0.862-1.239-0.086-3.361-0.449-4.796c-0.221-0.032-1.21-0.174-1.432-0.205
		c0.061,0.136,0.415,0.754,0.475,0.893C85.255,33.872,85.707,35.252,86.099,36.672z"/>
	<path fill="#FFFFFF" d="M40.543,69.892c0.611,0.086,1.233,0.13,1.848,0.13c2.929,0,5.521-0.952,7.296-2.682
		c1.086-1.058,1.953-2.479,2.574-4.224c1.381-3.873,0.954-8.037-1.115-10.87c-1.649-2.257-4.356-3.727-7.242-3.931
		c-0.234-0.017-0.469-0.024-0.704-0.024c-2.576,0-5.202,0.993-7.204,2.726c-2.605,2.255-4.172,5.745-4.19,9.336
		c-0.01,1.975,0.441,3.761,1.306,5.167C34.511,67.796,37.288,69.43,40.543,69.892z"/>
	<path fill="#4C331B" d="M42.43,70.718c3.115,0,5.895-1.036,7.827-2.918c1.175-1.145,2.103-2.657,2.758-4.495
		c1.448-4.06,0.974-8.462-1.238-11.49c-1.79-2.45-4.719-4.044-7.835-4.265c-3-0.209-6.111,0.86-8.436,2.872
		c-2.482,2.149-4.055,5.355-4.349,8.732c-0.031,0.356-0.561,0.796-0.563,1.154c-0.011,2.115,1.505,5.887,2.455,7.432
		c0.597,0.971,0.877-0.099,1.831,0.612c1.529,1.142,3.459,1.921,5.623,2.229C41.138,70.672,41.787,70.718,42.43,70.718z
		 M32.594,60.233c0.017-3.337,1.473-6.58,3.894-8.676c1.861-1.61,4.301-2.533,6.695-2.533c0.218,0,0.437,0.007,0.654,0.022
		c2.681,0.189,5.197,1.556,6.729,3.653c1.923,2.633,2.32,6.503,1.036,10.102c-0.578,1.621-1.383,2.941-2.392,3.925
		c-1.65,1.607-4.058,2.492-6.78,2.492c-0.572,0-1.15-0.041-1.717-0.121c-3.024-0.43-5.605-1.948-6.905-4.063
		C33.004,63.728,32.584,62.068,32.594,60.233z"/>
	<path fill="#FFFFFF" d="M62.455,54.978c-1.548,3.075-1.597,6.912-0.129,10.015c0.573,1.21,1.308,2.207,2.184,2.963
		c0.821,0.708,1.871,1.294,3.21,1.792c2.986,1.108,6.201,1.276,8.89,0.456c2.982-0.913,5.38-3.036,6.416-5.678
		c0.41-1.047,0.654-2.29,0.747-3.799c0.139-2.259-0.037-6.461-2.77-9.232c-1.742-1.768-4.405-2.786-7.498-2.866l-0.405-0.005
		c-0.944,0-1.847,0.087-2.684,0.261C67.048,49.581,63.997,51.915,62.455,54.978z"/>
	<path fill="#4C331B" d="M63.973,68.562c0.91,0.784,2.047,1.424,3.476,1.955c1.788,0.664,3.685,1.015,5.484,1.015
		c1.335,0,2.625-0.188,3.835-0.559c3.238-0.99,5.851-3.317,6.99-6.226c0.443-1.132,0.706-2.449,0.803-4.027
		c0.146-2.373-0.054-6.806-3.033-9.825c-1.912-1.939-4.781-3.056-8.08-3.142c-1.129-0.026-2.234,0.062-3.246,0.271
		c-3.66,0.757-6.846,3.196-8.522,6.525c-1.659,3.294-1.711,7.407-0.137,10.732C62.173,66.609,62.991,67.713,63.973,68.562z
		 M73.031,49.248l0.38,0.005c2.908,0.075,5.412,1.032,7.05,2.694c2.569,2.605,2.734,6.557,2.604,8.681
		c-0.087,1.419-0.317,2.588-0.703,3.572c-0.974,2.484-3.229,4.48-6.033,5.339c-2.528,0.771-5.551,0.613-8.358-0.429
		c-1.259-0.468-2.246-1.019-3.018-1.685c-0.824-0.711-1.515-1.648-2.053-2.786c-1.381-2.917-1.334-6.524,0.121-9.416
		c1.45-2.88,4.319-5.075,7.486-5.73C71.295,49.33,72.144,49.248,73.031,49.248z"/>
	<path fill="#4A321A" d="M77.194,84.386c-0.098-0.608-0.83-0.88-1.445-0.889c-1.328-0.02-2.598,0.627-3.585,1.516
		c-0.987,0.889-1.732,2.01-2.455,3.124c-1.782,2.744-3.563,5.733-3.508,9.004c0.007,0.396,0.219,0.931,0.601,0.829
		c0.242-0.065,0.333-0.354,0.389-0.598c0.294-1.277,0.746-2.513,1.322-3.689c0.302-0.545,1.286-2.443,2.079-3.409
		c1.008-1.226,2.664-2.592,3.081-2.891c0.73-0.562,1.49-1.085,2.302-1.521C76.576,85.538,77.303,85.062,77.194,84.386z"/>
	<path fill="#1C1C1B" d="M65.236,86.55c0.109-0.941,0.073-1.793-0.109-2.535c-0.378-1.545-1.507-3.016-3.098-4.036
		c-1.303-0.835-2.91-1.416-5.058-1.826c-2.322-0.443-4.85-0.641-8.194-0.641c-0.911,0-1.821,0.014-2.729,0.033
		c-0.756,0.015-1.613,0.033-2.386,0.25c-2.569,0.722-3.811,3.417-4.226,4.543c-0.804,2.181-0.99,4.539-0.539,6.82
		c0.473,2.387,2.057,5.427,4.965,6.135c0.248,0.06,0.501,0.102,0.754,0.144c0.405,0.067,0.825,0.138,1.24,0.278
		c0.908,0.303,1.382,0.958,1.593,1.692c0.06,0.208-0.019,0.37,0,0.588c0.016,0.183,0.184,0.478,0.233,0.614
		c0.134,0.375,0.692,0.382,1.029,0.382h0.001c0.253,0,0.495-0.068,0.682-0.191c0.684-0.452,0.935-1.365,1.025-2.05l0.058-0.443
		l0.447-0.01c2.853-0.061,5.853-0.224,8.418-1.462C62.516,93.303,64.83,90.051,65.236,86.55z"/>
	<path d="M65.548,86.609c0.119-1.021,0.076-1.959-0.126-2.787c-0.43-1.755-1.64-3.346-3.407-4.479
		c-1.362-0.873-3.017-1.475-5.208-1.894c-2.294-0.438-4.779-0.633-8.056-0.633c-0.881,0-1.762,0.014-2.641,0.031
		c-0.786,0.017-1.676,0.034-2.541,0.277c-2.049,0.576-3.771,2.391-4.726,4.979c-0.835,2.267-1.029,4.718-0.56,7.088
		c0.511,2.582,2.262,5.878,5.512,6.669c0.262,0.063,0.528,0.108,0.794,0.152c0.367,0.062,0.714,0.12,1.039,0.229
		c0.547,0.183,0.939,0.517,1.047,0.895c0.04,0.138,0.049,0.283,0.062,0.428c0.019,0.221,0.041,0.472,0.131,0.724
		c0.25,0.698,0.964,1.15,1.818,1.15h0c0.436,0,0.864-0.124,1.206-0.35c0.82-0.541,1.19-1.455,1.354-2.248
		c2.725-0.07,5.566-0.279,8.083-1.493C62.678,93.734,65.119,90.303,65.548,86.609z M50.382,95.861l-0.056,0.426
		c-0.086,0.658-0.327,1.535-0.984,1.969c-0.18,0.118-0.412,0.184-0.655,0.184h0c-0.324,0-0.748-0.128-0.876-0.488
		c-0.047-0.13-0.062-0.297-0.077-0.473c-0.018-0.209-0.04-0.418-0.097-0.618c-0.203-0.704-0.819-1.274-1.691-1.565
		c-0.399-0.134-0.802-0.202-1.191-0.267c-0.243-0.041-0.485-0.081-0.724-0.139c-2.792-0.68-4.313-3.599-4.767-5.891
		c-0.434-2.19-0.255-4.455,0.517-6.549c0.398-1.081,1.591-3.669,4.058-4.362c0.742-0.209,1.565-0.226,2.291-0.24
		c0.873-0.018,1.746-0.031,2.621-0.031c3.211,0,5.638,0.189,7.868,0.615c2.062,0.394,3.605,0.951,4.856,1.753
		c1.528,0.979,2.612,2.392,2.975,3.875c0.174,0.712,0.209,1.53,0.104,2.434c-0.39,3.362-2.612,6.484-5.661,7.955
		c-2.463,1.188-5.344,1.345-8.083,1.403L50.382,95.861z"/>
	<path fill="#FFFFFF" d="M53.706,80.595c-1.991-0.519-3.985-1.038-6.011-1.399c-0.91-0.162-1.869-0.289-2.742,0.015
		c-0.873,0.304-1.619,1.171-1.476,2.084c0.845,0.487,1.907,0.385,2.846,0.12c0.939-0.264,1.847-0.676,2.818-0.773
		c0.974-0.097,1.947,0.131,2.899,0.357c0.828,0.196,1.656,0.393,2.484,0.589c0.151-0.205,0.063-0.514-0.125-0.687
		C54.211,80.73,53.953,80.66,53.706,80.595z"/>
	<path fill="#FFE78D" d="M53.354,124.134c0.043-1.027-0.445-2.145-0.874-3.132c-0.221-0.507-0.209-0.733,0.256-1.034
		c0.465-0.299,0.615,0.033,0.989,0.443c0.464,0.511,2.086,0.015,2.79-0.337c0.747-0.374,1.333-1.217,1.528-2.201
		c0.15-0.753,0.033-1.441-0.312-1.837c-0.415-0.477-1.662-0.97-2.472-0.705c-0.964,0.313-1.586,0.586-2.42,1.295
		c-0.366,0.309-0.848,0.853-1.261,0.614c-1.538-0.889-2.751-1.455-4.402-2.148c-0.414-0.173-0.274-0.54-0.282-0.989
		c-0.018-1.067-0.828-2.139-1.231-3.026c-0.326-0.716-0.98-1.235-1.556-1.235c-0.804,0.065-1.375,0.929-1.493,1.693
		c-0.162,1.047,0.181,2.194,0.513,3.302c0.122,0.408,0.005,0.848-0.302,1.142c-0.308,0.293-0.7,0.068-1.099-0.069
		c-0.623-0.219-1.51,0.26-2.145,0.705c-0.798,0.559-1.259,1.441-1.506,2.083c-0.385,1.002-0.408,2.319,0.308,2.787
		c0.694,0.455,1.94,0.862,2.593-0.091l0.477-0.302c0.247-0.373,0.586-0.774,1.125-1.091c0.382-0.225,0.409-0.955,0.886-0.955
		c0.331,0,0.68,0.158,0.989,0.239c0.334-0.136,0.678-0.366,0.989-0.17c0.446,0.28,0.936,0.375,1.405,0.612l2.983,1.468
		c0.546,0.2,0.146,0.528,0,1.091c-0.027,0.102,0.338,0.958,0.316,1.057c0.163,0.952,0.093,1.224,0.224,2.182
		c0.328,0.347,1.431,0.408,1.822,0.346C52.868,125.753,53.322,124.878,53.354,124.134z"/>
	<path fill="#D8EEF9" d="M86.827,105.463c4.079,2.33,8.297,4.741,12.747,6.178c2.651,0.855,4.505,0.994,6.1,0.498
		c1.667-0.52,3.294-2.181,3.131-4.06c-0.119-1.381-0.823-3.433-1.729-4.371c-4.756-4.927-11.423-7.222-17.483-9.967
		c-3.777-1.711-7.613-3.368-11.401-4.926c-0.592-0.245-1.173-0.449-1.552-0.329c-0.126,0.04-0.286,0.133-0.456,0.232
		c-0.246,0.143-0.525,0.304-0.863,0.412c-0.271,0.087-0.551,0.13-0.834,0.13c-0.987,0-1.858-0.507-2.616-1.131
		c-0.388,0.378-0.76,0.773-1.127,1.174c0.152,0.107-0.996,2.822-0.996,2.822c1.06,0.87,1.298,2.174,1.503,3.33
		c0.099,0.555,0.191,1.081,0.363,1.505c0.124,0.306,0.31,0.573,0.524,0.82c1.27,0.74,2.556,1.463,3.857,2.162
		C79.773,101.434,83.358,103.481,86.827,105.463z"/>
	<path fill="#1C1C1B" d="M37.538,53.996c-1.255,2.279-0.505,5.471,1.671,7.116c2.025,1.529,5.345,1.588,7.598,0.162
		c0.607-0.384,1.041-0.788,1.326-1.234c0.428-0.669,0.609-1.549,0.57-2.77c-0.069-2.2-1.003-5.112-3.409-6.081
		c-0.564-0.227-1.206-0.342-1.911-0.342c-0.324,0-0.65,0.024-0.97,0.067C40.293,51.205,38.425,52.385,37.538,53.996z"/>
	<path d="M38.879,61.581c1.144,0.863,2.624,1.34,4.166,1.34c1.421,0,2.845-0.406,4.008-1.142c0.688-0.437,1.191-0.91,1.536-1.449
		c0.51-0.797,0.728-1.793,0.686-3.136c-0.073-2.339-1.108-5.451-3.784-6.528c-0.915-0.368-2.001-0.477-3.176-0.316
		c-2.306,0.313-4.271,1.569-5.257,3.36C35.666,56.238,36.483,59.77,38.879,61.581z M45.118,51.594
		c2.228,0.897,3.093,3.595,3.157,5.632c0.036,1.131-0.132,1.946-0.528,2.565c-0.265,0.413-0.667,0.787-1.229,1.143
		c-2.087,1.32-5.162,1.266-7.037-0.15c-2.015-1.523-2.709-4.48-1.547-6.591c0.821-1.492,2.552-2.585,4.516-2.853
		c0.297-0.04,0.598-0.063,0.898-0.063C44.001,51.277,44.597,51.384,45.118,51.594z"/>
	<path fill="#1C1C1B" d="M67.497,60.84c0.244,0.713,0.538,1.244,0.901,1.625c0.351,0.369,0.842,0.681,1.504,0.955
		c1.849,0.765,4.055,0.827,5.945,0.166c1.772-0.62,3.144-1.852,3.669-3.294c0.305-0.84,0.376-1.863,0.21-3.044
		c-0.25-1.783-0.931-3.349-1.966-4.528c-1.121-1.276-2.709-2.07-4.246-2.124l-0.173-0.003c-3.096,0-5.546,2.848-6.126,5.601
		C66.889,57.738,66.987,59.345,67.497,60.84z"/>
	<path d="M67.961,62.732c0.424,0.446,0.994,0.814,1.742,1.123c1.043,0.432,2.203,0.66,3.355,0.66c0.996,0,1.967-0.164,2.888-0.486
		c1.929-0.674,3.433-2.045,4.023-3.666c0.346-0.949,0.427-2.033,0.247-3.313c-0.26-1.854-0.976-3.49-2.068-4.734
		c-1.239-1.41-2.94-2.255-4.666-2.316l-0.196-0.003c-3.388,0-6.056,3.053-6.678,6.005c-0.34,1.613-0.238,3.292,0.295,4.853
		C67.176,61.656,67.523,62.271,67.961,62.732z M73.284,50.996l0.161,0.003c1.43,0.051,2.907,0.789,3.95,1.977
		c0.963,1.097,1.596,2.554,1.829,4.213c0.154,1.099,0.088,2.051-0.196,2.832c-0.489,1.342-1.765,2.487-3.414,3.064
		c-1.758,0.615-3.81,0.558-5.531-0.154c-0.615-0.255-1.073-0.545-1.399-0.889c-0.337-0.354-0.611-0.849-0.838-1.512
		c-0.475-1.391-0.565-2.886-0.263-4.323C68.125,53.646,70.404,50.996,73.284,50.996z"/>
	<path fill="#FFFFFF" d="M40.906,54.271c-0.089,0.611,0.134,1.251,0.55,1.708c0.579,0.636,1.543,0.904,2.355,0.62
		c0.811-0.284,1.405-1.124,1.362-1.983c-0.028-0.567-0.323-1.115-0.779-1.451c-0.475-0.35-1.092-0.464-1.681-0.434
		c-0.247,0.013-0.495,0.049-0.725,0.14C41.411,53.095,40.995,53.659,40.906,54.271z"/>
	<path fill="#FFFFFF" d="M72.321,56.364c0.489,0.605,1.567,0.409,1.981-0.248c0.415-0.658,0.262-1.552-0.172-2.198
		c-0.122-0.181-0.268-0.353-0.461-0.457c-0.485-0.263-1.131,0.008-1.429,0.473c-0.298,0.465-0.315,1.058-0.23,1.603
		C72.056,55.831,72.134,56.132,72.321,56.364z"/>
	<path fill="#7B5632" d="M87.716,53.495c-0.64,8.722-2.466,17.378-4.441,26.217c-0.439,1.965-0.878,3.924-1.01,5.85
		c-0.046,0.671,0.068,0.779,0.069,0.78c0.002,0.001,0.068,0.046,0.311,0.046c0.181,0,0.366-0.021,0.541-0.045
		c6.705-0.879,15.317-2.472,22.448-7.035c7.088-4.535,11.481-11.635,11.465-18.53c-0.005-2.059-0.38-4.316-1.18-7.101
		c-2.61-9.089-7.68-17.365-14.662-23.932c-6.07-5.708-13.424-9.975-21.445-12.467c0.57,0.713,1.108,1.482,1.62,2.297
		c1.852,2.558,3.122,5.366,3.69,8.231C87.536,35.295,88.418,43.925,87.716,53.495z"/>
	<path fill="#5C3F22" d="M102.433,30.939c-2.603-2.522-6.095-6.157-9.678-6.693c7.289,7.51,12.529,17.026,14.737,27.263
		c1.597,7.405,1.334,16.025-3.982,21.421C98.287,78.23,89.854,78.817,83.8,83.101c-0.556,0.396-0.534,0.701-0.556,1.037
		c-0.042,0.64-0.001,0.681,0,0.682c0.001,0.001,0.218,0.648,0.443,0.648c0.167,0,0.747,0.022,0.91-0.001
		c6.208-0.838,15.286-2.906,21.888-7.258c6.562-4.325,10.629-11.097,10.615-17.673c-0.004-1.964-0.352-4.116-1.092-6.772
		C113.59,45.095,108.896,37.202,102.433,30.939z"/>
	<path fill="#4C331B" d="M82.927,21.179c-0.474-0.777-0.972-1.51-1.5-2.19c7.426,2.377,14.234,6.446,19.854,11.891
		c6.463,6.264,11.157,14.156,13.574,22.825c0.741,2.656,1.088,4.809,1.092,6.772c0.015,6.576-4.053,13.348-10.615,17.673
		c-6.602,4.353-14.575,5.872-20.782,6.71c-0.163,0.022-0.333,0.043-0.501,0.043c-0.225,0-0.287-0.043-0.288-0.044
		c-0.001-0.001-0.106-0.104-0.064-0.744c0.123-1.837,0.528-3.705,0.935-5.579c1.829-8.43,3.52-16.686,4.112-25.004
		c0.651-9.128-0.167-17.358-2.4-24.502c0.128,0.663,0.223,1.33,0.272,1.996c0.023,0.084,0.036,0.174,0.036,0.266
		c0,0.556-0.462,0.99-1.01,1c-0.054-0.001-0.106-0.004-0.159-0.011c-0.102-0.015-0.205-0.023-0.307-0.038
		c0.363,1.435,0.672,2.911,0.924,4.43c0.851,5.129,1.077,10.716,0.65,16.717c-0.271,3.808-0.785,7.615-1.434,11.444
		c-0.747,4.404-1.674,8.839-2.651,13.344c-0.408,1.879-0.829,3.821-0.961,5.805c-0.029,0.441-0.107,1.613,0.716,2.358
		c0.17,0.154,0.368,0.269,0.584,0.36c0.307,0.13,0.653,0.203,1.047,0.203c0.257,0,0.519-0.027,0.768-0.061
		c6.418-0.866,14.676-2.447,21.616-7.022c7.118-4.691,11.53-12.105,11.514-19.347c-0.005-2.149-0.375-4.471-1.166-7.306
		c-2.512-9.011-7.391-17.214-14.109-23.724c-6.719-6.51-15.072-11.128-24.157-13.354c-0.138-0.033-0.275-0.026-0.409-0.003
		C78.299,18.198,81.176,20.818,82.927,21.179z"/>
	<path fill="#4A321A" d="M73.325,39.323c0.827-0.529,1.725-0.974,2.689-1.161s2.004-0.098,2.86,0.384
		c0.759,0.427,1.328,1.134,1.746,1.897c0.188,0.342,0.354,0.705,0.628,0.983c0.274,0.278,0.693,0.455,1.06,0.321
		c-0.159-1.524-0.988-2.906-1.995-4.061c-0.483-0.554-1.048-1.091-1.762-1.266c-0.443-0.108-0.908-0.067-1.357,0.009
		c-2.08,0.354-4.017,1.49-5.343,3.131C72.249,39.923,72.872,39.613,73.325,39.323z"/>
	<path fill="#4A321A" d="M43.606,38.865c-1.523,0.261-2.913,1.072-4.066,2.101c-0.799,0.713-1.55,1.693-1.377,2.75
		c0.286,0.177,0.636,0.249,0.969,0.197c1.337-1.875,3.386-3.229,5.634-3.725c0.324-0.072,0.658-0.126,0.987-0.086
		c0.817,0.098,1.444,0.738,2.056,1.288c0.263,0.236,0.645,0.473,0.941,0.28c0.113-0.646-0.302-1.273-0.795-1.706
		C46.793,38.944,45.129,38.604,43.606,38.865z"/>
	<path fill="#4A321A" d="M99.005,104.213c0.243,0.192,0.487,0.386,0.742,0.558c0.097,0.066,0.194,0.126,0.291,0.18
		c-0.424-0.365-0.877-0.695-1.354-0.988C98.792,104.046,98.899,104.13,99.005,104.213z"/>
	<path fill="#4A321A" d="M92.659,100.525c-0.363,0.225-0.797,0.323-1.266,0.298l0.256,0.152c0.26,0.155,0.402,0.451,0.358,0.751
		c-0.009,0.064-0.026,0.127-0.051,0.186c0.054-0.044,0.113-0.086,0.177-0.126c0.294-0.183,0.632-0.271,0.984-0.247
		c-0.021-0.009-0.041-0.018-0.061-0.026c-0.324-0.142-0.505-0.49-0.435-0.837C92.633,100.624,92.645,100.574,92.659,100.525z"/>
	<path fill="#4A321A" d="M84.291,97.608c-0.416-0.052-0.824-0.162-1.21-0.325c0.319,0.208,0.604,0.471,0.838,0.778
		c0.125,0.164,0.176,0.373,0.143,0.577c-0.034,0.203-0.15,0.384-0.321,0.499c-0.114,0.077-0.215,0.171-0.301,0.278
		c0.056,0.039,0.099,0.061,0.125,0.07c-0.011-0.017,0.031-0.063,0.064-0.101l0.117-0.126c0.437-0.446,1.047-0.691,1.719-0.691
		c1.099,0,2.071,0.632,2.418,1.573c0.063,0.171,0.062,0.358-0.002,0.525c0.072-0.065,0.138-0.139,0.195-0.217
		c0.162-0.226,0.373-0.519,0.755-0.646c0.048-0.016,0.096-0.028,0.145-0.038c-0.154-0.23-0.174-0.536-0.027-0.791
		c0.289-0.504,0.389-0.862,0.307-1.096c-0.011-0.024-0.054-0.058-0.101-0.079c-0.041,0.123-0.087,0.245-0.151,0.358
		c-0.375,0.667-1.308,0.93-2.18,0.657c-0.16-0.05-0.319-0.111-0.477-0.175c-0.246-0.098-0.478-0.189-0.659-0.189
		c-0.256,0-0.509-0.131-0.646-0.348c-0.138-0.216-0.17-0.487-0.062-0.72l0.307-0.657c-0.043-0.018-0.084-0.026-0.121-0.026
		c-0.03,0.013-0.042,0.01-0.05-0.004c0.052,0.225-0.002,0.462-0.15,0.642C84.802,97.537,84.549,97.64,84.291,97.608z"/>
	<path fill="#4A321A" d="M80.842,95.893c-0.367-0.027-0.733-0.088-1.093-0.182c0.35,0.185,0.678,0.41,0.973,0.672
		c0.176,0.156,0.269,0.386,0.25,0.62c0.16-0.182,0.4-0.276,0.649-0.25c0.287,0.033,0.567,0.104,0.833,0.207
		c-0.241-0.148-0.467-0.318-0.676-0.508c-0.179-0.163-0.269-0.403-0.24-0.644s0.172-0.452,0.384-0.569
		c0.083-0.045,0.151-0.142,0.184-0.26c0.034-0.119,0.025-0.239-0.022-0.321c-0.055-0.095-0.18-0.167-0.314-0.189l-0.134,0.8
		C81.572,95.65,81.243,95.907,80.842,95.893z"/>
	<path fill="#4A321A" d="M75.805,92.028c0.02-0.024,0.043-0.053,0.066-0.081c-0.015-0.008-0.029-0.014-0.04-0.015
		c-0.106,0.033-0.211,0.204-0.257,0.408C75.655,92.21,75.742,92.104,75.805,92.028z"/>
	<path fill="#4A321A" d="M77.373,94.638l-0.346-0.167c0.18,0.134,0.331,0.301,0.432,0.488c0.213,0.396,0.195,0.854-0.049,1.225
		c-0.113,0.173-0.293,0.292-0.497,0.327c0.138,0.095,0.316,0.119,0.451,0.051c0.203-0.104,0.375-0.369,0.448-0.69
		c0.045-0.199,0.17-0.371,0.345-0.477c0.135-0.082,0.292-0.115,0.446-0.105c-0.023-0.011-0.046-0.022-0.069-0.033
		c-0.257-0.129-0.415-0.392-0.414-0.673c-0.043,0.029-0.09,0.054-0.14,0.074C77.784,94.736,77.563,94.728,77.373,94.638z"/>
	<path fill="#4A321A" d="M74.283,93.24c0.181,0.354,0.227,0.787,0.118,1.167c-0.041,0.141-0.1,0.27-0.176,0.384
		c0.13-0.051,0.284-0.137,0.444-0.228c0.263-0.148,0.561-0.316,0.918-0.406c0.261-0.067,0.549-0.059,0.82,0.013l-0.286-0.138
		c-0.136-0.064-0.423-0.203-0.603-0.51c-0.094-0.162-0.137-0.318-0.146-0.466c-0.023,0.027-0.049,0.053-0.076,0.077
		c-0.165,0.144-0.383,0.208-0.601,0.178C74.556,93.292,74.419,93.268,74.283,93.24z"/>
	<path fill="#4C331B" d="M109.93,107.118c-0.173-1.894-1.462-3.383-2.566-4.468c-4.766-4.688-10.956-7.57-16.887-10.121
		c-2.646-1.138-5.32-2.235-7.987-3.305c-0.627-0.251-1.254-0.506-1.879-0.752c-0.342-0.135-0.686-0.278-1.027-0.411
		c-0.853-0.333-1.881-0.619-2.782-0.348c-0.321,0.098-0.585,0.243-0.819,0.371c-0.162,0.089-0.314,0.174-0.434,0.21
		c-0.596,0.174-1.439-0.517-1.879-0.911c-0.06-0.054-0.114-0.103-0.157-0.143c-0.375-0.346-0.947-0.354-1.332-0.021
		c-1.205,1.042-2.327,2.192-3.335,3.418c-0.793,0.966-0.998,1.855-0.608,2.645c0.077,0.156,0.171,0.285,0.273,0.401
		c0.257,0.293,0.566,0.478,0.812,0.62c0.088,0.051,0.177,0.1,0.256,0.157c0.435,0.314,0.565,1.012,0.716,1.819
		c0.109,0.585,0.222,1.19,0.472,1.776c0.069,0.161,0.161,0.302,0.245,0.45c0.226-0.17,0.47-0.328,0.676-0.511
		c0.317-0.283,0.779-0.334,1.15-0.127c0.087,0.049,0.178,0.093,0.266,0.142c-0.204-0.223-0.38-0.463-0.498-0.739
		c-0.164-0.383-0.251-0.856-0.345-1.357c-0.195-1.043-0.421-2.219-1.428-3.004l1.453,0.619c0.221,0.094,0.519,0.22,0.651,0.43
		c-0.016,0.011-0.03,0.023-0.045,0.035c-0.376,0.324-0.5,0.82-0.324,1.295c0.247,0.662,1.035,1.134,1.728,1.027
		c0.442-0.068,0.796-0.269,1.108-0.444c0.102-0.058,0.202-0.114,0.297-0.16c-0.037,0.062-0.069,0.127-0.098,0.195
		c-0.207,0.497-0.154,1.066,0.137,1.485c0.472,0.678,1.534,0.901,2.31,0.505c0.252-0.13,0.477-0.313,0.665-0.538
		c-0.085,0.344-0.029,0.718,0.166,1.051c0.293,0.499,0.841,0.822,1.463,0.822c0.001,0,0.003,0,0.005,0
		c0.591-0.027,1.14-0.346,1.543-0.878c0.118,0.045,0.232,0.102,0.339,0.17c-0.184,0.238-0.33,0.505-0.431,0.79
		c-0.09,0.254-0.038,0.536,0.138,0.74c0.753,0.875,1.58,1.144,2.271,0.78c0.246-0.129,0.41-0.311,0.529-0.442l0.077-0.084
		c0.204-0.208,0.492-0.239,0.646-0.239c0.217,0,0.459,0.063,0.656,0.184c-0.124,0.173-0.217,0.375-0.27,0.599
		c-0.148,0.634,0.072,1.264,0.561,1.605c0.129,0.092,0.28,0.135,0.441,0.136c0.925-0.014,1.841-0.478,2.443-1.271l0.776,0.462
		c-0.155,0.364-0.167,0.767-0.032,1.122c0.302,0.788,1.356,1.2,2.115,0.805c0.261-0.136,0.439-0.322,0.583-0.473
		c0.07-0.073,0.142-0.148,0.187-0.176c0.065-0.04,0.324-0.007,0.593,0.174c-0.271,0.242-0.458,0.583-0.522,0.959
		c-0.074,0.438,0.025,0.885,0.271,1.227c0.497,0.691,1.61,0.873,2.301,0.362c0.369-0.272,0.571-0.656,0.733-0.965
		c0.07-0.134,0.188-0.357,0.217-0.391c0.009,0,0.063,0.003,0.205,0.065c0.469,0.203,0.898,0.541,1.352,0.899
		c0.273,0.216,0.546,0.431,0.832,0.623c0.526,0.355,1.345,0.779,2.26,0.779c0.4,0,0.778-0.083,1.122-0.247
		c0.207-0.099,0.357-0.286,0.408-0.51c0.051-0.224-0.003-0.458-0.146-0.637c-1.18-1.469-2.684-2.635-4.389-3.41
		c0.205-0.337,0.383-0.69,0.533-1.057c0.156-0.38-0.022-0.813-0.399-0.975c-0.902-0.388-1.978-0.415-2.899-0.081
		c-0.271,0.1-0.461,0.345-0.49,0.632l-0.007,0.078c-0.121-0.035-0.24-0.072-0.359-0.111c0.174-0.139,0.279-0.35,0.283-0.577
		c0.005-0.372-0.144-0.73-0.419-1.01c-0.502-0.508-1.342-0.626-1.905-0.244c-0.195,0.132-0.329,0.288-0.436,0.414
		c-0.038,0.044-0.074,0.089-0.117,0.13c-0.148,0.14-0.663,0.199-1.368-0.146c0.191-0.493,0.298-1.073,0.09-1.663
		c-0.226-0.64-0.898-1.104-1.6-1.104c-0.495,0-0.917,0.231-1.162,0.636c-0.091,0.15-0.14,0.298-0.175,0.405
		c-0.012,0.036-0.021,0.073-0.017,0.081c-0.021,0.012-0.253,0.044-0.448-0.015c-0.124-0.039-0.246-0.088-0.368-0.137
		c-0.056-0.022-0.113-0.045-0.171-0.067l0.162-0.346c0.124-0.266,0.082-0.578-0.107-0.802c-0.447-0.528-1.038-0.832-1.62-0.832
		c-0.023,0-0.133,0.005-0.156,0.007c-0.469,0.043-0.906,0.311-1.17,0.717c-0.008,0.012-0.016,0.024-0.023,0.037
		c-0.144-0.052-0.283-0.114-0.417-0.187c0.064-0.123,0.116-0.253,0.154-0.39c0.142-0.507,0.081-1.044-0.169-1.477
		c-0.503-0.869-1.795-1.202-2.661-0.682c-0.187,0.113-0.315,0.303-0.351,0.518l-0.093,0.553c-0.167-0.037-0.332-0.084-0.494-0.139
		c0.127-0.322,0.269-0.687,0.269-1.124c0-0.778-0.721-1.515-1.482-1.515c-0.393,0-0.739,0.192-0.951,0.527
		c-0.028,0.045-0.052,0.093-0.07,0.143l-0.271,0.737l-0.197-0.095c0.077-0.101,0.154-0.215,0.216-0.346
		c0.194-0.413,0.158-0.883-0.099-1.289c-0.367-0.579-1.125-0.893-1.764-0.708c-0.622,0.179-1.022,0.657-1.225,1.193
		c-0.68-0.188-1.322-0.501-1.888-0.923l-0.138-0.105c-0.124-0.095-0.261-0.194-0.405-0.29c0.349-0.361,0.702-0.718,1.071-1.059
		c0.72,0.563,1.547,1.021,2.485,1.021c0.269,0,0.535-0.039,0.792-0.117c0.322-0.098,0.586-0.243,0.82-0.372
		c0.162-0.089,0.314-0.173,0.434-0.209c0.359-0.108,0.912,0.076,1.474,0.297c3.599,1.405,7.243,2.9,10.831,4.443
		c5.757,2.476,11.756,5.265,16.275,9.709c0.86,0.846,1.863,1.978,1.976,3.224c0.154,1.695-1.391,3.193-2.975,3.662
		c-1.516,0.447-3.277,0.322-5.795-0.449c-4.228-1.296-8.234-3.471-12.109-5.572c-3.295-1.788-6.701-3.634-10.289-4.982
		c0.111,0.85,0.874,1.481,2.118,2.064c0.314,0.146,0.676,0.116,0.716,0.46c0.04,0.345,0.412,0.398,0.141,0.614
		c-0.105,0.084,0.015,0.354-0.013,0.486c-0.077,0.358,0.534,0.193,0.488,0.227l4.222,1.992c0.556,0.299,1.114,0.598,1.663,0.896
		c0.706,0.383,1.418,0.767,2.133,1.149c1.263,0.675,2.542,1.341,3.844,1.968c2.1,1.011,4.258,1.922,6.5,2.609
		c1.764,0.54,3.197,0.792,4.509,0.792c0.863,0,1.684-0.113,2.44-0.337C107.855,112.192,110.187,109.94,109.93,107.118z"/>
	<path fill="#62B594" d="M49.446,113.059c1.324,0.224,1.324,0.224,2.813,0c1.146-0.173,1.221-0.45,2.148-0.634
		c5.129-1.134,10.371-2.681,14.666-4.355c3.389-1.321,7.361-3.207,10.391-5.267c-1.907-0.925-5.235-2.635-7.087-3.653
		c-1.789,1.41-4.101,2.437-6.884,3.056c-2.063,0.459-4.175,0.663-6.217,0.859c-0.543,0.053-1.087,0.105-1.629,0.162
		c-2.74,0.289-5.499,0.704-8.197,1.234c-0.021,0.004-0.473,1.035-0.508,1.042c-0.002,0.045-0.003,0.1-0.003,0.165l0.004,3.146
		C49.133,108.393,48.823,112.953,49.446,113.059z"/>
	<path fill="#62B594" d="M51.628,111.019c0.274-0.68,0.348-1.18,0.225-1.531c-0.067-0.19-0.292-0.346-0.403-0.346
		c-0.039,0.02-0.152,0.125-0.317,0.629c-0.216,0.662-0.363,1.338-0.475,2.02c0.197,0.008,0.39,0.026,0.588,0.029
		C51.381,111.556,51.518,111.292,51.628,111.019z"/>
	<path fill="#4C331B" d="M51.418,111.819c-0.198-0.003-0.814-0.021-1.011-0.029c-0.07,0.421,0.014,1.439-0.016,1.865
		C50.68,113.262,51.195,112.247,51.418,111.819z"/>
	<path fill="#4C331B" d="M47.458,112.619c0,0.485,0.351,0.892,0.824,0.978c0.012,0.002,0.022,0.01,0.034,0.011
		c0.051,0.007,0.105,0.01,0.157,0.017c1.552-0.028,2.015-1.345,0.938-1.835c-0.13-0.059-0.058-2.981,0.041-3.201l-0.004-3.146
		c0-0.065,0.001-0.12,0.003-0.165c0.035-0.008,0.069-0.015,0.09-0.019c2.699-0.53,5.457-0.945,8.197-1.234
		c0.542-0.057,1.086-0.109,1.629-0.162c2.042-0.196,4.153-0.4,6.217-0.859c2.783-0.619,5.095-1.646,6.884-3.056
		c1.852,1.018,3.746,1.995,5.653,2.92c-3.03,2.06-6.519,3.42-9.908,4.741c-4.294,1.674-9.522,3.702-14.722,4.132
		c-0.003,0.008-0.001,0.025-0.01,0.025c-1.088,0.023-1.939,1.965-1.071,2.028c5.911-0.207,11.775-2.468,16.53-4.322
		c3.679-1.434,7.821-3.063,11.279-5.663c0.046-0.035,0.093-0.067,0.139-0.102c0.107-0.082,0.219-0.155,0.325-0.239
		c0.271-0.216,0.412-0.556,0.372-0.9c-0.04-0.344-0.255-0.643-0.569-0.789c-1.244-0.583-2.485-1.193-3.717-1.82
		c-1.236-0.63-2.458-1.282-3.664-1.95c-0.088-0.048-0.178-0.093-0.266-0.142c-0.371-0.207-0.833-0.156-1.15,0.127
		c-0.206,0.183-0.45,0.341-0.676,0.511c-1.526,1.148-3.475,2.016-5.862,2.545c-1.944,0.434-3.993,0.631-5.975,0.822
		c-0.549,0.053-1.099,0.106-1.647,0.164c-2.799,0.295-5.616,0.719-8.374,1.26c-0.275,0.055-0.717,0.154-1.094,0.485
		c-0.035,0.031-0.072,0.051-0.105,0.086c-0.51,0.529-0.509,1.238-0.508,1.578l0,0.304l0.001,0.6l0.006,4.15L47.458,112.619z"/>
	<path fill="#BA9060" d="M38.213,166.659c0.007,0.114,1.911,0.255,2.182-0.05c0.424-0.476,1.091-3.994,1.091-3.994
		c-0.044-1.576,0.3-2.498,0.818-4.568c1.665-6.638,5.225-13.318,10.159-18.068c-0.874-2.918-1.732-5.839-2.084-8.864
		c-0.094-0.802-0.365-1.65-0.439-2.455c-0.051-0.549-0.079-1.165-0.136-1.714c-0.168-1.626-0.587-3.346-0.866-4.967
		c-0.701-0.236-2.766-1.244-3.429-1.568c0.175,8.159-0.134,15.854-0.46,24c-0.018,0.439-0.069,1.457-0.494,1.568
		c-2.268,0.594-2.514,0.299-4.636,0.273c-0.459-0.006-1.632,0.035-2.09,0.035c-2.209,0-4.322,0.118-6.024,0.8
		c-2.116,0.848-4.753,2.728-5.65,4.824c-0.896,2.097-1.266,5.657-0.419,7.773c0.323,0.807,3.813,3.136,4.091,3.136
		c0.451,0,2.725,2.331,3.136,2.591c0.285,0.18,1.468,0.035,2.182-0.068C35.923,165.228,38.214,166.655,38.213,166.659z"/>
	<path fill="#4C331B" d="M37.828,164.547c0,0.096-0.022,0.187-0.048,0.275C37.806,164.731,37.827,164.64,37.828,164.547z"/>
	<path fill="#4C331B" d="M86.826,30.973c-0.049-0.667-0.355-1.281-0.483-1.944c-0.526-2.732-1.702-5.41-3.417-7.85
		c-1.311-1.865-2.932-3.591-4.82-5.092c-0.358-0.284-0.723-0.562-1.099-0.83c-0.975-0.694-2.023-1.328-3.124-1.923
		c1.018-0.253,1.992-0.632,2.888-1.143c1.634-0.933,2.624-2.145,2.86-3.506c0.257-1.479-0.409-3.108-1.826-4.467
		c-1.755-1.683-4.155-2.68-6.585-2.735l-0.196-0.002c-0.732,0-1.355,0.097-1.906,0.296c-1.149,0.413-2.01,1.288-2.632,2.005
		c-0.308,0.356-0.583,0.715-0.838,1.075c-0.056-0.583-0.123-1.166-0.216-1.746c-0.396-2.461-1.669-2.992-2.391-3.089
		c-0.715-0.1-1.363,0.175-1.879,0.429c-0.922,0.451-1.832,0.953-2.704,1.489c-1.208,0.744-2.54,1.7-3.252,3.146
		c-0.46,0.936-0.574,2.128-0.246,3.168c-0.417-0.02-0.824-0.031-1.22-0.031c-2.281,0-4.258,0.343-6.028,1.005
		c-0.062,0.016-0.118,0.044-0.177,0.072c-0.329,0.129-0.665,0.247-0.98,0.399c-2.843,1.379-5.043,3.76-6.983,5.859
		c-0.073,0.079-0.148,0.161-0.221,0.24c-2.193-2.458-4.277-4.69-6.6-6.649c-0.073-0.084-0.161-0.15-0.258-0.206
		c-0.526-0.435-1.047-0.876-1.604-1.282c-1.307-0.953-2.644-1.748-3.992-2.396c-0.178-0.196-0.423-0.315-0.701-0.32
		c-2.269-0.998-4.558-1.565-6.782-1.643c-0.62-0.023-1.202,0.006-1.744,0.082c-0.159-0.025-0.322-0.025-0.484,0.032
		c-0.048,0.017-0.083,0.053-0.127,0.076c-0.239,0.055-0.468,0.122-0.684,0.202c-2.432,0.9-3.746,3.226-4.802,5.604
		C4.465,25.288,2.275,42.801,0.159,59.737C0,61.006-0.197,62.584,0.44,64.039c0.85,1.941,2.864,2.918,4.305,3.483
		c4.717,1.853,9.783,2.291,14.569,2.58c0.518,0.031,1.049,0.057,1.58,0.057c0,0,0,0,0,0c1.334,0,3.282-0.143,4.792-1.377
		c1.816-1.484,2.507-4.07,2.052-7.686c-0.376-2.997-1.137-5.96-1.873-8.826c-1.105-4.305-2.149-8.371-2.032-12.602
		c0.004-0.155,0.015-0.437,0.072-0.623c0.097-0.034,0.191-0.082,0.278-0.148c0.039-0.03,0.06-0.073,0.093-0.108
		c0.054-0.006,0.111-0.016,0.153-0.016c0.236,0,0.508,0.055,0.766,0.154c0.192,0.073,0.382,0.159,0.572,0.244
		c0.398,0.178,0.834,0.362,1.307,0.479c-0.008,0.505-0.012,1.017-0.013,1.546c-0.002,1.456,0.002,3.102,0.354,4.732
		c0.009,0.043,0.021,0.086,0.023,0.13c0.071,1.464-0.087,1.841,0.455,2.128c0.183,0.098,0.661,0.094,0.869,0.102
		c0.632,0.026,0.417-1.12,0.626-1.228c0.162-0.084,0.32-0.193,0.473-0.341c0.441-0.425,0.854-0.878,1.267-1.331
		c0.439-0.483,0.854-0.939,1.303-1.358c1.087-1.018,2.411-1.844,3.692-2.642l5.579-3.477c1.506-0.939,3.063-1.91,4.704-2.564
		c1.921-0.769,4.051-1.138,6.109-1.495c5.627-0.977,11.446-1.986,17.231-2.315c4.876-0.277,9.86-0.055,14.765,0.62
		c0.222,0.031,0.574,0.844,0.795,0.876c0.102,0.015,0.466,0.002,0.567,0.017c0.053,0.007,0.543-0.103,0.597-0.102
		c0.548-0.01,0.491-0.552,0.491-1.108C86.96,31.751,86.849,31.057,86.826,30.973z M67.996,5.092c0.491-0.565,1.089-1.179,1.8-1.435
		c0.329-0.119,0.73-0.177,1.227-0.177l0.152,0.002c1.936,0.044,3.848,0.838,5.246,2.179c0.439,0.422,1.44,1.526,1.239,2.681
		c-0.166,0.953-1.114,1.675-1.881,2.112c-2.914,1.662-6.993,1.599-9.877-0.137C65.609,8.223,67.065,6.166,67.996,5.092z
		 M56.999,5.968c0.486-0.987,1.492-1.701,2.506-2.326c0.817-0.503,1.67-0.973,2.536-1.396c0.173-0.085,0.494-0.242,0.725-0.242
		c0.002,0,0.004,0,0.005,0c0.274,0.037,0.556,0.623,0.685,1.426c0.34,2.111,0.414,4.251,0.218,6.375L58.58,8.743
		c-0.459-0.097-0.935-0.196-1.246-0.409C56.664,7.874,56.62,6.739,56.999,5.968z M18.934,5.292c0.135,0,0.271,0.003,0.407,0.008
		c1.915,0.068,3.897,0.552,5.875,1.4c0.357,5.355,0.155,9.782-0.642,13.862c-0.924,4.727-2.726,8.96-5.212,12.324
		c-1.165-0.731-2.472-1.361-3.943-1.773c-0.208-0.058-0.419-0.09-0.628-0.137c5.104-7.317,6.661-17.14,4.078-25.681
		C18.891,5.294,18.911,5.292,18.934,5.292z M13.4,10.11c0.846-1.906,1.861-3.745,3.486-4.453c2.604,8.337,0.962,18.037-4.315,24.995
		c-2.145-0.11-4.245,0.328-6.055,1.241C8.135,24.437,10.288,17.11,13.4,10.11z M5.945,34.612c2.315-1.866,5.719-2.472,8.933-1.573
		c2.652,0.744,5.219,2.5,7.317,4.971c-0.315,0.591-0.351,1.234-0.362,1.604c-0.047,1.684,0.082,3.353,0.317,5.003
		c-2.81-1.487-5.621-2.503-8.38-3.01c-3.576-0.658-6.376-0.614-9.115,0.167C5.047,39.379,5.47,36.99,5.945,34.612z M25.874,63.336
		c-0.031,1.825-0.517,3.132-1.454,3.897c-0.783,0.641-1.871,0.926-3.526,0.926c-0.49,0-0.981-0.024-1.459-0.053
		c-4.625-0.28-9.513-0.699-13.958-2.445c-1.765-0.693-2.783-1.464-3.204-2.425c-0.279-0.636-0.294-1.395-0.239-2.15
		c0.118,0.003,0.239-0.008,0.357-0.049c0.494-0.175,0.619-0.159,0.988-0.104c0.269,0.038,0.639,0.084,1.179,0.078
		c5.31-0.126,10.671,0.131,15.94,0.762C22.404,62.001,24.377,62.319,25.874,63.336z M25.692,60.95
		c-1.56-0.698-3.286-0.963-4.957-1.164c-5.363-0.642-10.82-0.901-16.226-0.775c-0.377,0.008-0.617-0.024-0.85-0.059
		c-0.443-0.063-0.832-0.093-1.392,0.039c0.228-1.826,0.459-3.657,0.697-5.492c6.977-2.389,14.973-1.818,21.538,1.542
		C24.986,56.995,25.421,58.977,25.692,60.95z M23.867,52.53c-6.425-2.81-13.903-3.267-20.611-1.228
		c0.326-2.437,0.669-4.877,1.046-7.315c2.758-0.971,5.408-1.095,9.107-0.413c3.007,0.553,6.097,1.761,9.189,3.582
		C22.964,48.97,23.413,50.763,23.867,52.53z M23.51,36.463c-0.701-0.803-1.539-1.637-2.517-2.422
		c2.65-3.598,4.566-8.094,5.543-13.096c0.762-3.898,1.005-8.245,0.745-13.229c0.816,0.459,1.627,0.976,2.428,1.56
		c0.439,0.32,0.849,0.675,1.27,1.017C30.704,19.485,28.128,28.508,23.51,36.463z M27.335,35.84c-0.083,0.582-0.135,1.165-0.176,1.75
		c-0.187-0.072-0.378-0.154-0.576-0.242c-0.223-0.101-0.446-0.199-0.671-0.286c-0.124-0.048-0.249-0.082-0.374-0.117
		c4.33-7.643,6.859-16.21,7.371-24.972c1.722,1.609,3.365,3.379,5.081,5.305c-0.43,0.472-0.862,0.95-1.296,1.441
		c-2.009,1.839-3.744,4.081-5.201,6.712C29.468,28.569,27.882,32.024,27.335,35.84z M35.063,39.693
		c-1.363,0.849-2.771,1.728-4.001,2.878c-0.507,0.475-0.969,0.982-1.416,1.474c-0.148,0.162-0.296,0.325-0.447,0.488
		c-0.142-1.129-0.141-2.283-0.139-3.333c0.002-1.826,0.023-3.47,0.254-5.076c0.621-4.333,2.674-8.168,5.488-11.92
		c-0.329,2.863-0.085,5.764,0.149,8.434l0.594,6.755L35.063,39.693z M43.117,34.729c-0.849,0.476-1.669,0.985-2.475,1.488
		l-3.194,1.99l-0.505-5.744c-0.334-3.808-0.703-8.112,0.755-11.831c1.062-1.229,2.182-2.463,3.341-3.717
		c1.008-1.091,2.036-2.197,3.148-3.181c-1.007,2.372-1.373,5.091-1.659,8.024C42.107,26.091,42.308,30.453,43.117,34.729z
		 M45.662,33.492c-0.232,0.092-0.453,0.202-0.679,0.303c-0.687-3.91-0.848-7.89-0.464-11.844c0.445-4.569,1.027-8.278,3.943-10.875
		c1.532-0.564,3.262-0.855,5.276-0.855c1.052,0,2.189,0.081,3.461,0.236c0.078,0.025,0.154,0.043,0.232,0.065
		c-1.048,1.136-1.779,2.614-2.437,4.083c-2.391,5.335-5.078,11.369-5.58,17.801C48.148,32.675,46.885,33.003,45.662,33.492z
		 M52.171,31.884c-0.234,0.041-0.471,0.084-0.707,0.126c0.116-1.164,0.289-2.321,0.54-3.464c1.435,0.531,2.522,1.387,3.495,2.767
		C54.384,31.501,53.273,31.693,52.171,31.884z M57.652,30.958c-1.365-2.231-2.988-3.601-5.157-4.356
		c0.653-2.356,1.51-4.652,2.435-6.859c4.76,1.875,8.866,5.553,11.261,10.076C63.324,30.097,60.472,30.502,57.652,30.958z
		 M69.631,29.543c-0.335,0.019-0.669,0.048-1.003,0.071c-0.037-0.038-0.068-0.082-0.111-0.114c-0.084-0.062-0.18-0.109-0.282-0.142
		c-2.593-5.215-7.105-9.316-12.516-11.455c0.368-0.84,0.737-1.671,1.1-2.48c0.198-0.442,0.4-0.873,0.609-1.29
		c8.632,1.374,16.548,7.425,20.177,15.379C74.935,29.39,72.267,29.392,69.631,29.543z M79.853,29.653
		c-3.632-8.908-11.872-15.576-21.3-17.358c0.393-0.505,0.834-0.928,1.347-1.234l4.44,0.924c0.068,0.015,0.136,0.021,0.204,0.021
		c0.082,0,0.162-0.018,0.241-0.037c1.492,0.917,3.238,1.491,5.046,1.663c2.24,0.921,4.248,1.996,6.017,3.253
		c4.774,3.396,7.941,8.27,8.658,13.235C82.961,29.914,81.408,29.769,79.853,29.653z"/>
	<path fill="#4C331B" d="M162.095,164.19c-0.265-0.21-0.618-0.273-0.939-0.17c-1.791,0.59-3.313,1.649-4.785,2.673
		c-0.485,0.338-0.97,0.675-1.464,0.994c-4.943,3.198-11.349,4.82-19.04,4.82c-2.189,0-4.537-0.131-6.978-0.389
		c-5.638-0.596-10.03-2.679-13.096-6.16c1.847-3.058,3.025-6.034,3.544-8.998c1.802-10.284-4.22-20.059-9.589-26.448
		c-2.073-2.466-4.324-4.843-6.501-7.142c-3.996-4.218-8.11-8.581-11.166-13.556c0.126-1.464-2.8-3.062-3.844-1.968
		c0.096,0.081,0.2,0.156,0.287,0.243c0.498,0.5,0.877,1.149,1.279,1.838l0.144,0.246c3.205,5.448,7.599,10.087,11.847,14.572
		c2.157,2.277,4.388,4.632,6.422,7.053c5.096,6.063,10.82,15.29,9.151,24.815c-0.73,4.168-2.88,8.406-6.572,12.955
		c-2.588,3.188-5.365,5.87-8.252,7.97c-4.161,3.024-9.023,5.174-14.063,6.215c-2.022,0.418-4.081,0.63-6.117,0.63
		c-6.508,0-12.116-2.131-15.789-6c-0.363-0.382-0.963-0.419-1.368-0.077c-0.405,0.339-0.476,0.936-0.162,1.36l0.885,1.197
		c-3.918,4.524-8.507,8.374-13.649,11.453c-0.382,0.229-0.816,0.473-1.219,0.473c-0.003,0-0.006,0-0.009,0
		c-0.315-0.036-0.673-0.135-0.908-0.228c-0.118-1.417,0.531-2.899,1.688-3.729c0.448-0.322,0.551-0.947,0.229-1.396
		c-0.323-0.449-0.946-0.553-1.396-0.229c-1.683,1.209-2.635,3.258-2.536,5.305c-0.132,0.307-0.256,0.612-0.368,0.902
		c-0.519,1.335-0.811,1.993-1.784,2.372c-0.746,0.292-1.889-0.025-2.396-0.645c-0.068-0.082-0.098-0.167-0.138-0.25
		c-0.11-1.45,0.193-2.92,0.912-4.186c0.178-0.313,0.389-0.632,0.644-0.973c0.401-0.538,0.851-1.047,1.337-1.515
		c0.398-0.383,0.411-1.016,0.028-1.414c-0.383-0.398-1.017-0.411-1.414-0.027c-0.565,0.542-1.088,1.135-1.554,1.759
		c-0.305,0.407-0.56,0.794-0.781,1.181c-0.66,1.162-1.054,2.459-1.174,3.783c-1.631,0.849-3.441,1.71-5.278,1.614
		c-1.012-0.057-2.083-0.581-2.729-1.337c-0.314-0.368-0.673-0.962-0.597-1.7c0.024-0.234-0.068-0.457-0.203-0.649
		c0.079-1.247,0.647-2.531,1.621-3.607c0.994-1.099,2.368-1.989,4.2-2.722c0.513-0.205,0.762-0.787,0.557-1.3
		c-0.205-0.514-0.784-0.764-1.3-0.558c-2.122,0.849-3.737,1.908-4.94,3.237c-1.115,1.233-1.827,2.699-2.063,4.181
		c-0.337-0.205-0.605-0.476-0.795-0.727c-0.732-0.967-1.013-2.37-0.697-3.493c0.625-2.227,2.637-3.854,4.718-5.283
		c3.194-2.193,6.596-4.12,10.112-5.755c0.829,0.104,1.699,0.457,2.598,1.084c0.78,0.546,1.481,1.204,2.223,1.9l0.603,0.563
		c0.192,0.178,0.435,0.265,0.677,0.265c0.27,0,0.539-0.108,0.736-0.322c0.374-0.407,0.348-1.039-0.059-1.413l-0.588-0.549
		c-0.761-0.715-1.548-1.454-2.447-2.083c-0.964-0.672-1.929-1.104-2.885-1.321c-0.002-0.002-0.003-0.005-0.005-0.007
		c-1.794-1.803-2.441-4.345-3.007-7.08c0.502-0.968,0.469-2.093,0.433-3.034l-0.013-0.366c-0.039-1.388,0.164-2.913,0.637-4.801
		c1.518-6.053,4.77-11.733,9.184-16.16c0.184-0.019,0.366-0.071,0.52-0.195c4.105-3.279,9.961-4.629,15.666-3.607
		c5.192,0.929,10.224,3.671,14.549,7.932c0.195,0.191,0.448,0.287,0.702,0.287c0.258,0,0.517-0.1,0.712-0.299
		c0.388-0.393,0.383-1.026-0.011-1.414c-4.615-4.544-10.009-7.475-15.6-8.475c-5.548-0.99-11.242,0.076-15.631,2.855
		c-0.779-2.683-1.35-5.437-1.672-8.21c-0.091-0.787-0.164-1.576-0.237-2.364c-0.051-0.557-0.103-1.113-0.161-1.67
		c-0.001-0.014-0.004-0.028-0.005-0.042c-0.083-0.792-0.184-1.588-0.293-2.384c-0.116-0.847-0.249-1.69-0.393-2.531
		c0.019-0.088,0.029-0.169,0.052-0.26c0.129-0.498-0.14-1.014-0.623-1.19l-2.742-1.007c-0.415-0.21-0.824-0.431-1.219-0.679
		c-0.274-0.173-0.61-0.19-0.905-0.07c-0.041,0.017-0.533-0.087-0.607,0.026c-0.227,0.345-0.518,0.692-0.509,1.061
		c0.008,0.316,0.5,0.491,0.507,0.808c-0.001,0-0.002,0-0.003-0.001c-0.128,1.306-0.04,2.597,0.072,3.853
		c0.038,2.777,0.053,5.558,0.033,8.343c-0.079,0.761-0.18,1.52-0.303,2.275c-2.311-0.538-4.762-0.601-7.094-0.171
		c-2.72,0.498-4.73,1.667-5.814,3.38c-0.924,1.46-0.859,2.6-0.643,3.298c0.095,0.304,0.26,0.66,0.549,1.017
		c-0.193,0.156-0.38,0.335-0.558,0.537c-0.953,1.08-1.608,2.777-1.737,4.315c-1.63,1.137-2.944,2.713-3.732,4.553
		c-1.104,2.581-1.138,5.555-0.094,8.16c0.658,1.643,1.663,2.81,2.905,3.377c0.85,0.386,1.907,0.44,2.775,0.168
		c0.136,0.96,0.522,1.98,1.496,2.596c0.484,0.306,1.052,0.454,1.736,0.454c0.393,0,0.778-0.049,1.135-0.102
		c0.578-0.085,0.989-0.195,1.316-0.348c0.325,0.444,0.799,0.871,1.409,1.257c0.455,0.287,0.992,0.438,1.554,0.438
		c0.322,0,0.63-0.064,0.926-0.156c0.481,2.132,1.119,4.224,2.415,5.979c-3.395,1.618-6.677,3.511-9.773,5.637
		c-2.276,1.563-4.711,3.544-5.512,6.391c-0.484,1.722-0.08,3.779,1.028,5.242c0.68,0.897,1.554,1.488,2.552,1.722
		c0.119,0.786,0.474,1.549,1.041,2.212c0.999,1.17,2.584,1.95,4.139,2.035c1.98,0.117,3.849-0.614,5.463-1.406
		c0.064,0.265,0.228,0.477,0.449,0.611c0.024,0.031,0.043,0.064,0.068,0.095c0.755,0.921,2.014,1.493,3.285,1.493
		c0.489,0,0.954-0.085,1.383-0.253c1.63-0.633,2.246-1.824,2.738-3.045c0.028,0.002,0.056,0.011,0.084,0.011
		c0.101,0,0.202-0.023,0.302-0.05c0.452,0.135,0.855,0.194,1,0.211c0.955,0.104,1.796-0.334,2.481-0.744
		c5.404-3.235,10.218-7.294,14.315-12.069c3.891,2.869,9.006,4.42,14.74,4.42c2.172,0,4.366-0.227,6.521-0.671
		c2.803-0.579,5.55-1.491,8.167-2.684c0.061,0.035,0.122,0.073,0.191,0.095c6.995,2.229,14.245,3.72,21.549,4.433
		c2.165,0.212,3.921,0.31,5.527,0.31l0.576-0.004c5.35-0.081,11.092-1.315,18.071-3.884c3.982-1.465,8.571-3.395,12.414-6.603
		c4.055-3.384,6.637-7.87,7.083-12.308C162.498,164.733,162.359,164.402,162.095,164.19z M31.975,144.506
		c0.242-0.273,0.618-0.601,1.061-0.601c0,0,0.001,0,0.001,0c0.5,0.041,0.905-0.313,1.009-0.783c0.016-0.072,0.009-0.143,0.009-0.214
		c1.643-1.005,3.591-1.386,5.361-1.608c0.548-0.068,0.937-0.568,0.868-1.116s-0.574-0.934-1.116-0.868
		c-2.126,0.265-4.492,0.749-6.522,2.123c-0.114-0.127-0.205-0.26-0.25-0.404c-0.167-0.536,0.138-1.185,0.422-1.635
		c0.982-1.553,2.981-2.207,4.485-2.482c2.299-0.422,4.72-0.292,6.975,0.346c-0.048,2.62-0.112,5.237-0.212,7.843
		c-1.799,0.353-3.6,0.311-5.347,0.287c-2.527-0.031-5.169-0.073-7.7,0.893C31.246,145.603,31.58,144.954,31.975,144.506z
		 M40.331,163.482c0.035,0.921,0.068,1.791-0.356,2.267c-0.271,0.305-0.878,0.389-1.222,0.173c-0.686-0.434-0.992-0.876-0.999-0.99
		c0.002-0.004,0.001-0.009,0.003-0.013c0.012-0.03,0.012-0.065,0.022-0.096c0.026-0.088,0.048-0.179,0.048-0.275
		c0-0.011,0.006-0.02,0.005-0.03c-0.054-2.106,0.941-4.224,2.598-5.526c0.435-0.341,0.51-0.97,0.168-1.404
		c-0.341-0.435-0.97-0.511-1.404-0.168c-2.034,1.598-3.282,4.146-3.347,6.729c-0.003,0.003-0.007,0.008-0.01,0.011
		c-0.338,0.392-0.391,0.452-1.169,0.566c-0.713,0.104-1.229,0.114-1.513-0.065c-0.411-0.26-0.613-0.852-0.622-1.825
		c0.107-0.147,0.188-0.314,0.201-0.509c0.083-1.229,0.168-2.501,0.668-3.557c0.666-1.406,2.135-2.556,4.367-3.418
		c0.515-0.198,0.771-0.777,0.573-1.293c-0.199-0.516-0.778-0.77-1.293-0.572c-2.727,1.053-4.562,2.542-5.454,4.428
		c-0.5,1.057-0.681,2.187-0.779,3.26c-0.04,0.048-0.086,0.09-0.116,0.146c-0.248,0.451-0.818,0.612-1.269,0.612
		c-0.278,0-0.549-0.057-0.784-0.164c-0.967-0.44-1.555-1.494-1.878-2.301c-0.848-2.116-0.82-4.532,0.077-6.629
		c0.897-2.096,2.625-3.785,4.741-4.633c1.702-0.683,3.521-0.822,5.731-0.822c0.458,0,0.916,0.006,1.375,0.012
		c2.123,0.026,4.327,0.079,6.595-0.515c0.425-0.111,0.728-0.488,0.746-0.928c0.326-8.146,0.403-16.397,0.228-24.557
		c0.664,0.324,1.348,0.605,2.049,0.842c0.279,1.621,0.506,3.264,0.674,4.89c0.057,0.549,0.108,1.098,0.159,1.646
		c0.074,0.805,0.148,1.609,0.242,2.411c0.352,3.024,0.972,6.031,1.845,8.949c-4.935,4.75-8.553,10.982-10.218,17.62
		c-0.519,2.07-0.74,3.768-0.696,5.344L40.331,163.482z M154.1,175.842c-3.608,3.012-8.001,4.854-11.823,6.261
		c-6.761,2.488-12.294,3.684-17.411,3.761l-0.546,0.004c-1.54,0-3.234-0.095-5.333-0.3c-6.324-0.617-12.607-1.83-18.713-3.609
		c5.928-3.187,11.348-8.452,14.493-14.124c3.374,3.544,8.045,5.652,13.913,6.272c2.51,0.266,4.928,0.4,7.188,0.4
		c8.083,0,14.854-1.729,20.126-5.141c0.512-0.331,1.016-0.682,1.52-1.032c0.896-0.623,1.76-1.224,2.657-1.708
		C159.357,169.962,157.211,173.245,154.1,175.842z"/>
	<path fill="#4C331B" d="M58.103,114.93c-0.633-0.728-1.583-1.129-2.677-1.129c-0.464,0-0.924,0.073-1.368,0.217
		c-0.975,0.316-1.78,0.895-2.493,1.479c-0.118-0.066-0.241-0.125-0.361-0.189c0.44-0.469,0.848-0.973,1.205-1.513
		c0.424-0.64,0.786-1.321,1.071-2.028c0.003-0.008,0.006-0.017,0.01-0.025c0.294-0.732,0.631-1.823,0.247-2.916
		c-0.458-1.306-2.079-2.062-3.229-1.451c-0.558,0.297-0.866,0.793-1.058,1.215c-0.1,0.22-0.178,0.425-0.222,0.56
		c-0.474,1.452-0.719,2.955-0.757,4.476c-0.003,0.111-0.006,0.221-0.007,0.332c-0.057-0.025-0.112-0.054-0.169-0.079
		c-0.003-0.092-0.011-0.188-0.016-0.281c0.095-0.311,0-0.913,0-1.398l-0.69-1.905c0.013-0.857-0.493-0.274-0.7-0.482
		c-0.716-0.716-1.655-1.128-2.59-1.035c-1.703,0.146-2.823,1.711-3.05,3.182c-0.127,0.824-0.033,1.64,0.133,2.394
		c-0.698,0.082-1.39,0.346-1.985,0.764c-0.885,0.619-1.594,1.574-2.05,2.761c-0.618,1.606-0.555,3.812,1.044,4.856
		c1.515,0.99,3.849,0.244,5.048-1.504l0.113-0.168c0.105-0.158,0.236-0.356,0.315-0.403c0.088-0.052,0.224-0.038,0.366-0.007
		c0.001,0,0.002,0,0.003,0.001c-0.007-0.317-0.009-0.635-0.017-0.951c-0.01-0.369,0.184-0.713,0.504-0.895
		c0.039-0.022,0.081-0.033,0.122-0.049c-0.273-0.071-0.555-0.121-0.848-0.121c-0.422,0-0.807,0.101-1.145,0.3
		c-0.477,0.28-0.749,0.691-0.967,1.021l-0.095,0.142c-0.578,0.843-1.691,1.363-2.304,0.961c-0.633-0.414-0.612-1.578-0.272-2.464
		c0.219-0.568,0.626-1.348,1.332-1.842c0.562-0.393,1.296-0.533,1.847-0.34c0.353,0.121,0.749,0.037,1.021-0.222
		c0.271-0.26,0.375-0.649,0.267-1.01c-0.293-0.979-0.597-1.993-0.454-2.919c0.104-0.676,0.609-1.439,1.32-1.497
		c0.509,0,1.087,0.459,1.375,1.092c0.356,0.784,0.373,1.76,0.389,2.703c0.007,0.396,0.248,0.751,0.614,0.904
		c1.46,0.612,2.89,1.321,4.249,2.107c0.366,0.212,0.824,0.171,1.148-0.103c0.738-0.627,1.501-1.274,2.353-1.551
		c0.716-0.234,1.549-0.1,1.917,0.322c0.305,0.351,0.408,0.958,0.276,1.624c-0.172,0.869-0.69,1.614-1.351,1.945
		c-0.623,0.311-1.5,0.2-1.91-0.252c-0.331-0.362-0.873-0.432-1.284-0.167c-0.411,0.267-0.569,0.791-0.373,1.239
		c0.38,0.872,0.811,1.86,0.773,2.769c-0.028,0.658-0.429,1.432-1.029,1.535c-0.346,0.055-0.729-0.135-1.019-0.443
		c-1.146,0.366-0.848,2.088,0.293,2.384c0.196,0.041,0.394,0.07,0.594,0.07c0.155,0,0.312-0.013,0.468-0.04
		c1.684-0.288,2.628-1.939,2.69-3.422c0.021-0.515-0.043-1.015-0.155-1.492c0.636,0.024,1.285-0.112,1.845-0.392
		c1.22-0.61,2.124-1.861,2.419-3.345C59.087,116.969,58.822,115.757,58.103,114.93z M50.657,111.79
		c0.113-0.682,0.259-1.358,0.475-2.02c0.165-0.504,0.278-0.609,0.317-0.629c0.111,0,0.336,0.155,0.403,0.346
		c0.123,0.352,0.05,0.852-0.225,1.531c-0.11,0.273-0.247,0.537-0.383,0.8c-0.223,0.428-0.467,0.847-0.756,1.24
		C50.519,112.633,50.587,112.211,50.657,111.79z"/>
	<path fill="#4C331B" d="M82.951,83.496c0.132-1.983,0.271-3.693,0.679-5.571c0.977-4.505,2.557-8.923,1.685-13.092
		c-0.384,1.81-0.785,3.61-1.184,5.383c-0.9,3.994-1.832,8.124-2.488,12.25c-0.076,0.481-0.149,0.964-0.223,1.447
		c-0.23,1.517-0.465,3.058-0.808,4.559c-0.254,1.01,1.561,1.93,1.879,0.752c0.199-0.837,0.365-1.68,0.511-2.525
		c0.223-0.465,0.393-0.874,0.223-1.028C82.401,84.927,82.922,83.938,82.951,83.496z"/>
</g>
</svg>
