<?xml version="1.0" encoding="utf-8"?>
<!-- Generator: Adobe Illustrator 23.1.0, SVG Export Plug-In . SVG Version: 6.00 Build 0)  -->
<svg version="1.1" id="Vrstva_10" xmlns="http://www.w3.org/2000/svg" xmlns:xlink="http://www.w3.org/1999/xlink" x="0px" y="0px"
	 viewBox="0 0 184.716 190.139" enable-background="new 0 0 184.716 190.139" xml:space="preserve">
<g>
	<path fill="#BA9060" d="M135.242,29.812c0.613-0.432,0.04-1.854,0-2.557c-0.027-0.476-0.707-0.82-0.799-0.869
		c-0.305-0.166-3.894,0.003-4.388,0.077c-2.715,0.403-1.159-0.924-0.69-1.202c2.618-1.55,1.52-1.88,1.688-4.884
		c-0.145-0.02-1.36-0.23-1.509-0.23c-2.014,0-4.147,2.149-6.009,3.784l-0.818,0.741c-2.902,2.524-5.912,3.579-9.588,4.705
		c-1.016,0.312-2.648,0.98-3.656,1.227c-2.32,0.567-4.004,0.986-5.906,2.148c-0.574,0.35-1.298,1.435-1.814,1.903
		c0.134,0.087,0.252,0.197,0.332,0.34c0.141,0.251,0.166,0.551,0.07,0.821c-2.962,8.376-3.75,17.005-2.251,24.673
		c0.918,4.7,2.717,9.267,4.457,13.683l6.01,15.648c0.411,1.044,1.177,2.988,0.301,4.653c-0.753,1.43-1.982,2.045-3.497,2.591
		c2.026,4.033,7.286,8.208,12.052,10.138c4.629,1.874,10.238,2.506,16.744,1.886c4.609-0.441,8.173-1.348,11.216-2.854
		c3.681-1.82,7.095-5.415,8.513-8.603c1.533-3.444,1.559-7.692,0.072-11.654c-0.473-1.261-1.1-2.512-1.707-3.721
		c-0.831-1.656-1.69-3.369-2.225-5.221c-0.789-2.728-0.865-5.928-0.172-8.674c-0.141,0.608,5.645-7.946,3.138-15.105
		c-0.138-0.493-0.297-2.082-0.454-2.569c-1.184-3.675-3.637-7.901-6.989-11.135c-0.31-0.299-0.641-0.574-0.976-0.84
		c-0.118-0.031-0.232-0.081-0.336-0.156c-0.937-0.683-1.949-1.261-2.996-1.767c-2.046-0.816-1.422-1.723-3.341-1.278
		c-0.412,0.147-0.15-1.243,0-1.401c0.049-0.246,0.495-1.524,0.363-1.722c-0.116-0.175-0.721-0.872-0.879-0.968
		c-0.721-0.05-2.668-0.547-3.391-0.511C135.722,30.952,134.645,30.233,135.242,29.812z"/>
	<path fill="#A47C4F" d="M148.493,104.368c-8.591,3.019-18.113,3.432-26.878,0.934c-2.975-0.848-6.138-2.264-7.391-5.093
		c-0.708-1.6-0.687-3.415-0.651-5.165c0.071-3.478,0.143-7.009-0.733-10.376c-2.159-8.305-9.761-14.519-11.293-22.962
		c-0.976-5.383,0.675-10.841,1.54-16.243c0.578-3.613,0.696-7.56-0.41-10.969c-0.064,0.055-0.376-0.231-0.439-0.174
		c0.134,0.087-0.233,0.532-0.153,0.675c0.141,0.251-0.075,0.554-0.17,0.825c-2.962,8.376-3.715,17.014-2.216,24.682
		c0.918,4.7,3.136,9.289,4.875,13.705l6.231,16.278c0.411,1.044,0.876,2.613,0,4.278c-0.753,1.43-2.001,1.744-3.35,1.96
		c2.026,4.033,6.637,8.382,11.403,10.313c4.629,1.874,10.352,2.197,16.858,1.577c4.609-0.441,8.906-1.571,11.949-3.077
		C148.28,105.232,149.266,104.787,148.493,104.368z"/>
	<path fill="#BA9060" d="M76.481,99.869c-1.603,2.915-5.12,6.012-9.061,8.258c-1.577,0.898-3.935,2.089-5.529,2.863
		c-2.228,1.081-4.94,1.809-7.006,3.185c-5.238,3.489-7.748,9.647-9.568,15.682c0.112,0.157,0.18,0.345,0.187,0.545l0.487,14.69
		c0.017,0.518,0.024,1.116-0.062,1.725c0.817,1.703,1.519,3.17,3.322,4.171c0.13,0.072-0.666,1.34-0.861,1.165
		c-3.083,0.623-5.825,3.353-7.516,6.018c-1.846,2.909-2.305,6.601-1.229,9.874c0.169,0.515,0.42,1.146,0.858,1.47
		c0.608,0.452,2.714,0.715,3.437,0.068c0.86-0.768,2.728-0.941,2.659-0.825c-0.007,2.062,1.848,3.505,2.886,3.996
		c1.008,0.479,2.517-0.036,3.424-1.095c0.446-0.52,0.779-1.139,1.054-1.794c-0.053-0.167,1.882,0.605,2.476,1.419
		c0.564,0.773,1.361,1.281,2.186,1.396c1.482,0.204,3.508-0.515,4.122-1.964c-0.212-0.738,2.374-1.088,2.286-0.688
		c0.381,0.495,1.108,0.823,1.612,0.671c1.513-0.473,2.674-3.326,2.915-4.483c0.656-3.154,0.793-6.152-0.375-9.153
		c-0.04-0.102,6.774-0.534,6.774-0.305c0.004,5.488-3.158,8.8-6.298,13.12c-2.049,2.819-4.168,5.734-5.336,8.884
		c-0.688,1.854-0.866,3.399-0.542,4.722c0.368,1.506,2.724,3.632,3.989,3.803c1.069,0.148,2.437-0.598,2.615-1.536
		c-0.005-0.185,1.56-2.104,1.221,0.873c0.341,1.604,3.479,2.201,5.114,2.042c1.651-0.157,2.756-0.729,2.697-2.46
		c-0.055-0.275,1.111,0.118,1.083,0.387c0.347,0.806,1.761,1.218,2.561,1.561c0.666,0.288,2.072,0.313,2.46-0.358
		c0.029-0.05,1.175-2.094,1.488-1.275c0.967,0.914,3.198,1.377,4.741,1.377c0.917,0,2.481-1.224,3.287-1.578
		c3.075-1.35,5.059-5.091,4.517-8.518c-0.525-3.32-3.212-6.188-6.572-7.086l-1.409-1.897l0.116-2.988
		c-0.106-0.612-0.095-1.197-0.084-1.589c0.093-3.275,0.201-6.552,0.323-9.828c0.006-0.147,0.532-0.453,1.433-0.889
		c0.147-0.023,2.702-0.714,2.702-0.714c0.596-0.17,1.28-0.35,1.997-0.367c7.421-2.278,13.633-6.511,18.087-12.871
		c0,0,1.654,0.684,1.636,0.767c-0.018,7.384,3.17,21.886,3.17,21.886c0.593,1.682,1.518,6.457,1.483,6.699
		c0,1.33-0.835,1.539-2.261,4.743c-0.284,0.619-0.549,1.231-0.741,1.854c-0.605,1.966-0.462,3.941,0.394,5.42
		c0.897,1.553,3.541,3.53,5.118,3.225c0.728-0.145,1.724-0.217,2.194-0.873c0.061-0.874,1.775-0.687,1.176,0.409
		c-0.039,1.816,0.956,2.737,1.988,3.119c1.076,0.398,3.216-0.531,3.893-1.79c0.264-0.491,1.957-0.742,2.097-0.205
		c0.33,1.275,1.637,2.776,3.017,3.068c1.637,0.353,4.237-0.808,4.818-2.792c0.12-0.411,0.201-0.839,0.244-1.299
		c0.222-0.782,1.424-0.256,1.585-0.153c0.308,0.195,0.776-0.051,1.176-0.051l0.665,0.102c0.975,0,2.557-1.311,3.15-2.174
		c0.782-1.138,1.073-2.751,0.89-4.934c-0.455-5.396-4.419-12.247-10.013-12.898l-0.425-0.043c-0.805-0.076-1.718-0.163-2.52-0.724
		c-0.955-0.668-1.366-1.735-1.667-2.789c-1.832-6.407-1.337-12.349-1.317-18.882c0.017-5.372-0.153-11.915-1.188-17.182
		c-0.499,0.014-1.745,0-2.25,0c0,0-1.321-0.127-1.322-0.127c-5.041,0-10.368-0.646-16.286-1.973
		c-4.355-0.977-8.477-2.236-12.358-3.73c-6.285-2.188-11.216-5.705-16.568-9.614C81.577,105.462,78.919,102.605,76.481,99.869z"/>
	<path fill="none" d="M74.69,157.256c-1.398,0.335-2.85,0.47-4.304,0.375c0.842,2.906,0.985,6.042,0.393,9
		c1.771-2.528,3.293-5.04,3.991-7.763c-0.114-0.174-0.19-0.376-0.176-0.6C74.615,157.93,74.659,157.593,74.69,157.256z"/>
	<g>
		<path fill="#A47C4F" d="M55.224,152.939c-1.807-0.355-3.677-0.722-5.49-0.609c-0.276,0.009-0.536-0.095-0.731-0.27
			c-3.083,0.623-6.285,2.538-7.976,5.202c-1.846,2.909-2.56,7.268-1.483,10.541c0.169,0.515,1.71,2.131,2.148,2.455
			c0.608,0.452,2.455-0.378,2.19-1.434c-0.006-0.026,0.034-0.042,0.054-0.06c0.201-1.536,0.046-3.149,0.032-4.716
			c-0.023-2.555,0.374-5.114,1.17-7.542c0.239-0.729,0.54-1.483,1.138-1.963c0.742-0.596,1.771-0.642,2.722-0.662
			c2.396-0.05,4.792-0.1,7.188-0.149L55.224,152.939z"/>
		<path fill="#A47C4F" d="M51.508,119.353c-2.861,1.406-5.293,5.953-6.399,9.619c0.112,0.157,0.18,0.345,0.187,0.545l0.487,14.69
			c0.017,0.518,0.024,1.116-0.062,1.725c0.817,1.703,2.734,4.808,4.538,5.809c0.13,0.072,0.23,0.177,0.314,0.292
			c1.741,0.015,3.922,0.056,5.562,0.378l0.306-0.67c-2.361-1.561-4.264-3.935-5.391-6.556c-1.897-4.411-1.956-9.39-1.526-14.173
			C49.876,127.082,50.546,123.181,51.508,119.353z"/>
	</g>
	<path fill="#A47C4F" d="M93.082,148.37c-0.842,1.331-0.389,3.926-0.32,5.319c0.147-0.023,0.294-0.044,0.44-0.069l2.262-0.645
		c0.596-0.17,1.28-0.35,1.997-0.367c7.421-2.278,15.278-8.001,19.732-14.361l-1.006-4.196
		C111.258,142.043,102.434,147.517,93.082,148.37z"/>
	<path fill="#A47C4F" d="M139.107,163.304c-0.955-0.668-1.117-1.29-1.419-2.343c-1.832-6.407-1.811-13.163-1.791-19.696
		c0.017-5.372-0.409-11.403-1.444-16.67c-0.499,0.014-1.336,0-1.841,0c0,0-1.373-0.485-1.373-0.485
		c-5.041,0-10.368-0.646-16.286-1.973c-4.355-0.977-8.477-2.236-12.358-3.73c-6.285-2.188-11.012-5.597-16.364-9.506
		c-0.829-0.606-1.381-1.08-2.57-0.53c3.532,5.895,10.267,9.738,16.985,11.865c8.017,2.538,16.568,3.37,24.29,6.699
		c1.498,0.646,2.993,1.41,4.091,2.616c1.903,2.089,2.296,5.102,2.601,7.911c0.681,6.274,1.362,12.547,2.044,18.821
		c0.352,3.242,1.715,7.389,4.814,7.563C139.115,163.713,139.203,163.371,139.107,163.304z"/>
	<path fill="#4C331B" d="M93.142,152.608l0.438-0.125c-0.146,0.025-0.293,0.046-0.44,0.069
		C93.141,152.571,93.141,152.589,93.142,152.608z"/>
	<path fill="#4C331B" d="M118.442,138.329c0.004-0.13-0.024-0.254-0.067-0.371l0.06,1.269
		C118.441,138.927,118.433,138.629,118.442,138.329z"/>
	<path fill="#7B5632" d="M45.206,129.859c-11.668,10.846-25.737,17.187-40.742,20.712c-0.993,0.234-3.047,2.087-3.631,3.283
		c4.995,1.691,10.244,2.547,15.616,2.547c0.001,0,0.002,0,0.003,0c9.571,0,18.881-2.705,26.925-7.824
		c0.851-0.541,1.712-1.14,2.054-1.979c0.264-0.649,0.238-1.495,0.213-2.312L45.206,129.859z"/>
	<path fill="#A07A53" d="M92.285,157.027c-0.082,2.343,0.024,5.032-0.042,7.349c-0.023,0.813,0.087,2.035,0.519,2.354
		c0.438,0.323,1.974-0.118,2.241-0.757c0.367-0.877,0.593-2.128,1.994-2.128l2.858,0.356c0.459-0.022,0.87-0.138,1.186-0.332
		c0.477-0.294,1.54-1.583,1.881-2.408c0.609-1.479,0.684-2.993,0.203-4.152c-0.498-1.202-2.008-2.665-2.904-3.33
		c-0.636-0.474-1.32-0.92-2.021-0.983c-0.551-0.047-1.144,0.126-1.733,0.294l-3.872,1.063c0.047,0.581,0.075,1.164,0.138,1.743
		C92.773,156.48,92.585,156.827,92.285,157.027z"/>
	<path fill="#F2EEE9" d="M161.429,52.619l-0.133,0.001c-0.506,0-1.56,0-2.327-0.693c-0.977-0.884-0.883-2.255-0.833-2.991
		c0.502-7.331-0.391-15.223-1.268-22.522l-9.511,11.975c0.218,0.188,1.212,1.212,1.42,1.412c3.672,3.543,4.633,7.714,5.887,11.611
		c1.026,3.186,1.826,6.578,0.744,9.799c-0.412,1.228-1.065,2.31-1.697,3.355c-0.322,0.532-0.644,1.064-0.93,1.614
		c-1.643,3.157-1.876,7.847-0.887,11.267c0.484,1.674,1.265,3.23,2.092,4.879c0.63,1.256,1.282,2.555,1.792,3.914
		c1.669,4.45,1.819,7.594,0.075,11.514c-1.607,3.614-4.75,6.72-8.848,8.747c-3.268,1.617-7.053,2.586-11.913,3.051
		c-1.688,0.162-3.338,0.244-4.904,0.244c-4.769,0-8.982-1.308-12.695-2.812c-5.483-2.22-8.631-5.527-10.773-10.295
		c-0.665,0.035-2.037,0.505-2.712,0.505l-0.43-1.245c-8.952-0.001-17.043-2.47-24.872-5.146c-0.643-0.22-1.442-0.493-2.055-1.137
		c-0.947-0.995-0.359-1.739-0.341-2.932c0.099-6.475,0.715-12.815,1.801-19.196c1.417-8.322,3.361-14.304,6.305-19.395
		c3.824-6.61,9.478-11.008,15.683-12.92c0.253-0.078,0.533-0.151,0.824-0.215c0.976-1.164,2.567-2.131,3.784-2.875
		c2.167-1.324,4.614-1.923,6.98-2.502c0.981-0.24,1.996-0.489,2.957-0.783c3.411-1.045,5.355-2.562,8.047-4.903l0.518-0.453
		c2.126-1.868,4.537-3.984,7.305-3.984c0.594,0,0.321,0.44,0.886,0.639c0.364,0.128,0.027,0.233,0.068,0.617
		c0.226,2.1-0.966,3.975-2.25,5.494c0.714-0.17,1.96-0.309,2.691-0.418c0.311-0.046,0.68-0.093,1.068-0.093
		c0.623,0,1.149,0.122,1.608,0.374c0.842,0.461,1.393,0.552,1.451,1.573c0.044,0.775,0.134,3.091-0.273,3.813
		c1.7-1.911,4.334-6.156,5.045-8.523c0.275-0.917,0.611-1.916,0.874-2.838c0.284-0.991,0.421-2.753,0.122-3.908
		c-6.018-2.171-12.264-3.447-18.509-3.707c-0.775-0.032-1.553-0.048-2.329-0.048c-16.681,0-34.311,8.219-44.318,20.326
		c-4.832,5.847-8.133,12.587-9.547,19.492c-1.167,5.702-1.195,12.212-0.086,19.901c1.378,9.563,4.42,17.698,8.302,23.98
		c7.582,12.267,21.904,21.298,40.327,25.432c5.773,1.294,12.587,2.353,17.479,2.353c0,0,1.584,0.113,1.584,0.113
		c4.713,0,7.552-0.727,11.561-1.937c5.317-1.606,10.557-4.402,16.019-8.546c9.193-6.975,15.699-16.255,18.701-25.206
		c1.462-4.356,2.283-9.231,2.584-15.34c0.28-5.69-0.005-10.269-0.899-14.409c-0.75-3.477-2.629-7.523-4.402-10.96
		c-0.236,0.299-1.511,0.577-1.802,0.869C172.281,52.756,167.685,52.568,161.429,52.619z"/>
	<g>
		<path fill="#C7BFBE" d="M91.392,99.134c5.06,0.178,10.137-0.173,15.128-1.028c0.371-0.461,0.349-1.086,0.201-1.416
			c-0.665,0.035-1.48,0-2.154,0h-0.675c-7.728-0.001-15.511-3.648-22.271-4.097c0.3,1.312,0.73,2.606,1.57,3.646
			C85.072,98.569,88.4,99.029,91.392,99.134z"/>
		<path fill="#C7BFBE" d="M160.395,82.146c-1.004-2.378-2.176-4.738-2.511-7.298c-0.454-3.462,0.664-6.907,1.293-10.341
			c0.636-3.473,0.737-7.097,0.194-10.587c0.157-0.738-0.203-0.762-0.668-1.182c-0.977-0.884-0.883-2.255-0.833-2.991
			c0.079-1.153-0.067-1.807-0.675-2.932c-0.492-1.021-1.051-2.011-1.7-2.952c-1.744-2.529-4.132-4.647-6.838-6.118l-1.232,0.309
			c0.218,0.188,0.406,0.791,0.614,0.992c3.672,3.543,5.583,8.471,6.837,12.367c1.026,3.186,1.711,6.122,0.629,9.343
			c-0.412,1.228-1.065,2.31-1.697,3.355c-0.322,0.532-0.644,1.064-0.93,1.614c-1.643,3.157-2.204,6.988-1.216,10.408
			c0.484,1.674,1.265,3.23,2.092,4.879c0.63,1.256,1.529,2.638,2.039,3.998c1.669,4.45,1.626,9.25-0.118,13.17
			c-1.607,3.614-3.606,6.096-7.705,8.124c-3.268,1.617-7.053,2.586-11.913,3.051c-1.688,0.162-3.338,0.244-4.904,0.244
			c-4.589,0-8.922-1.693-12.709-1.25c2.992,2.82,6.967,4.729,11.048,5.393c7.195,1.17,14.57-0.934,21.119-4.136
			c4.424-2.163,8.81-5.06,10.953-9.494C164.26,94.538,162.802,87.85,160.395,82.146z"/>
	</g>
	<path fill="#4C331B" d="M179.067,46.13c-1.301-0.286-1.684,0.583-1.165,2.063c1.773,3.437,3.061,6.927,3.812,10.403
		c0.894,4.141,1.179,8.719,0.899,14.409c-0.301,6.108-1.122,10.983-2.584,15.34c-3.002,8.95-9.448,17.368-18.642,24.343
		c-5.461,4.144-10.701,6.939-16.019,8.546c-4.009,1.21-8.431,1.824-13.144,1.824c0,0,0,0-0.001,0c-4.892,0-10.076-0.63-15.849-1.924
		C97.952,117,83.63,107.969,76.048,95.702c-3.882-6.281-6.439-13.982-7.817-23.546c-1.108-7.689-1.08-14.199,0.086-19.901
		c1.414-6.905,4.715-13.646,9.547-19.492c10.007-12.107,25.941-19.336,42.622-19.336c0.776,0,1.554,0.016,2.329,0.048
		c6.244,0.26,12.49,1.536,18.509,3.707c1.081-0.127,1.056-1.278,0.6-1.909c-6.185-2.223-12.605-3.528-19.025-3.795
		c-0.803-0.033-1.608-0.05-2.412-0.05c-17.271,0-33.781,7.5-44.164,20.063c-5.04,6.097-8.485,13.139-9.964,20.365
		c-1.214,5.931-1.249,12.665-0.107,20.587c1.418,9.841,4.066,17.793,8.096,24.312c0.365,0.59,0.76,1.166,1.154,1.741
		c6.154,8.984,15.855,16.152,28.078,20.86c3.881,1.495,8.003,2.753,12.358,3.73c5.918,1.327,11.246,1.973,16.286,1.973c0,0,0,0,0,0
		c0.506,0,1.006-0.011,1.505-0.025c0.673-0.018,1.342-0.047,2.003-0.09c3.609-0.235,7.033-0.835,10.214-1.796
		c5.549-1.677,10.995-4.577,16.649-8.866c9.515-7.219,16.199-15.968,19.329-25.3c1.521-4.536,2.375-9.581,2.686-15.879
		c0.289-5.869-0.01-10.613-0.942-14.929C182.797,54.137,181.239,50.091,179.067,46.13z"/>
	<path fill="#FFFFFF" d="M126.529,63.578c0.077-1.789-0.19-3.18-0.816-4.251c-0.408-0.698-1.017-1.346-1.861-1.98
		c-1.944-1.463-4.388-2.269-6.883-2.269c-0.853,0-1.697,0.096-2.509,0.284c-3.23,0.752-6.053,2.969-7.55,5.929
		c-1.658,3.277-1.42,8.259,1.856,10.59c1.506,1.072,3.472,1.469,5.198,1.717c1.207,0.173,2.185,0.253,3.079,0.253
		c1.368,0,2.533-0.192,3.561-0.589C124.473,71.771,126.368,67.324,126.529,63.578z"/>
	<path fill="#4C331B" d="M128.028,63.642c0.089-2.086-0.245-3.745-1.021-5.073c-0.51-0.872-1.248-1.665-2.254-2.422
		c-2.202-1.657-4.967-2.569-7.785-2.569c-0.967,0-1.926,0.108-2.849,0.323c-3.657,0.852-6.853,3.361-8.549,6.712
		c-1.981,3.917-1.652,9.659,2.326,12.49c1.767,1.257,3.951,1.706,5.854,1.979c1.279,0.184,2.325,0.269,3.292,0.269
		c1.556,0,2.897-0.226,4.1-0.688C125.646,72.928,127.845,67.878,128.028,63.642z M113.964,73.598
		c-1.726-0.248-3.692-0.645-5.198-1.717c-3.276-2.331-3.515-7.313-1.856-10.59c1.497-2.96,4.32-5.177,7.55-5.929
		c0.812-0.188,1.656-0.284,2.509-0.284c2.495,0,4.938,0.806,6.883,2.269c0.845,0.635,1.454,1.282,1.861,1.98
		c0.626,1.071,0.894,2.462,0.816,4.251c-0.161,3.746-2.056,8.193-5.925,9.684c-1.028,0.396-2.193,0.589-3.561,0.589
		C116.149,73.85,115.17,73.77,113.964,73.598z"/>
	<polygon fill="#FFFFFF" points="144.754,63.277 144.754,63.28 144.754,63.277 	"/>
	<path fill="#FFFFFF" d="M153.753,55.558c-0.629-1.306-1.797-2.461-3.676-3.636c-0.672-0.42-1.569-0.939-2.547-1.227
		c-0.597-0.176-1.232-0.265-1.889-0.265c-1.391,0-2.876,0.41-4.183,1.154c-1.704,0.97-3.242,2.516-4.571,4.594
		c-1.107,1.732-1.735,3.314-1.921,4.838c-0.219,1.796,0.221,3.502,1.207,4.683c1.583,1.896,4.369,2.36,6.884,2.566
		c0.816,0.066,1.488,0.097,2.117,0.097c2.298,0,3.956-0.433,5.215-1.362c0.984-0.727,1.816-1.845,2.619-3.521
		C154.045,61.316,155.017,58.185,153.753,55.558z"/>
	<path fill="#4C331B" d="M154.36,64.129c1.18-2.46,2.267-6.058,0.744-9.221c-0.25-0.519-0.571-1.013-0.956-1.491
		c-0.782-0.971-1.849-1.874-3.277-2.766c-0.753-0.471-1.766-1.056-2.918-1.395c-2.273-0.667-4.943-0.28-7.237,1.026
		c-1.917,1.091-3.631,2.803-5.092,5.088c-1.231,1.927-1.933,3.714-2.146,5.465c-0.269,2.205,0.294,4.328,1.545,5.825
		c1.939,2.321,5.088,2.869,7.913,3.1c0.857,0.07,1.569,0.103,2.239,0.103c2.297,0,4.065-0.4,5.495-1.251
		c0.211-0.125,0.414-0.26,0.611-0.405C152.841,67.055,153.785,65.327,154.36,64.129z M150.388,67.001
		c-1.259,0.93-2.917,1.362-5.215,1.362c-0.628,0-1.301-0.03-2.117-0.097c-2.515-0.206-5.3-0.671-6.884-2.566
		c-0.986-1.181-1.426-2.887-1.207-4.683c0.186-1.523,0.814-3.105,1.921-4.838c1.329-2.078,2.867-3.624,4.571-4.594
		c1.307-0.744,2.792-1.154,4.183-1.154c0.656,0,1.292,0.089,1.889,0.265c0.978,0.287,1.875,0.807,2.547,1.227
		c1.879,1.175,3.047,2.33,3.676,3.636c1.264,2.627,0.292,5.758-0.745,7.922C152.204,65.156,151.372,66.274,150.388,67.001z"/>
	<path fill="#7B5632" d="M107.505,96.213c1.711-0.142,2.383-0.509,2.761-1.227c0.433-0.823,1.148-2.072,0.723-3.152l-6.603-16.996
		c-1.852-4.702-4.387-9.071-5.384-14.171c-1.556-7.954-0.359-16.141,2.469-24.795c-0.365,0.064-1.248-0.379-1.576-0.278
		c-5.981,1.842-11.33,6.409-15.063,12.861c-2.947,5.095-4.902,11.13-6.34,19.572c-1.117,6.563-1.735,13.268-1.838,19.927
		c-0.013,0.833,0.011,1.762,0.458,2.231c0.287,0.302,0.806,0.48,1.309,0.651c8.031,2.744,17.133,5.854,26.144,5.855h0.002
		C105.625,96.69,106.482,96.298,107.505,96.213z"/>
	<path fill="#5C3F22" d="M104.386,74.838c-1.772-4.499-3.79-9.31-4.744-14.19c-1.488-7.611-1.452-16.162,1.253-24.443
		c-0.35,0.062-0.978-0.02-1.291,0.077c-0.723,0.223-1.79,0.473-2.204,1.243c-4.713,8.433-5.505,19.041-1.838,28.005
		c2.242,5.481,6.052,10.538,6.381,16.45c0.084,1.518-0.099,3.128-0.99,4.361c-0.834,1.155-2.178,1.828-3.52,2.305
		c-5.133,1.822-10.746,1.359-16.188,1.6c-0.09,0.004-0.183,0.012-0.276,0.019c0.217,2.33,15.474,5.603,23.365,5.604l0.443,0.018
		c1.012,0,1.579-0.06,2.558-0.141c1.637-0.136,2.608-0.535,2.97-1.223c0.414-0.787,0.641-2.356,0.234-3.389L104.386,74.838z"/>
	<path fill="#7B5632" d="M157.68,26.734c1.146,8.172,0.937,16.666,0.373,24.901c-0.025,0.369-0.078,1.139,0.179,1.371
		c0.195,0.177,0.749,0.177,0.985,0.177l0.117-0.001c5.829-0.049,13.87-1.414,17.551-5.106c0.973-0.977,1.529-1.955,1.652-2.908
		c0.151-1.167-0.339-2.446-0.772-3.576l-9.477-23.651c-1.948-5.08-4.578-11.868-9.472-15.421c-0.91-0.66-1.35-0.938-2.027-1.02
		c-0.79-0.098-3.385-0.074-4.456,0.457c-4.036,2.001-6.283,6.647-7.66,9.596c-1.365,2.921-2.279,6.117-3.164,9.209
		c-0.267,0.931-0.533,1.86-0.811,2.786c-0.63,2.098-1.4,4.39-2.721,6.358c1.039,0.164,2.005,1.256,2.548,2.07
		c0.598,0.897,0.617,2.111,0.05,3.169c-0.033,0.062-0.067,0.121-0.103,0.18c1.846,0.599,4.651,1.991,6.271,3.064l9.75-12.063
		C156.561,26.734,157.625,26.34,157.68,26.734z"/>
	<path fill="#5C3F22" d="M160.882,46.896c-1.001-2.308-1.201-4.876-1.265-7.391c-0.174-6.844,0.556-13.75-0.549-20.506
		c-0.265-1.62-0.665-3.287-1.7-4.562s-2.867-2.036-4.372-1.378c-2.466,1.078-2.267,4.536-2.318,7.226
		c-0.115,6.06-4.051,11.743-9.434,14.426c-0.003,0.005-0.006,0.011-0.009,0.016c0.36,1.451,3.683,2.117,5.303,3.19l9.034-10.956
		c0.285-0.374,1.685-0.789,1.74-0.396c1.146,8.172,1.884,16.391,1.32,24.626c-0.025,0.369-0.078,1.139,0.179,1.371
		c0.195,0.177,0.749,0.177,0.985,0.177l0.117-0.001c1.911-0.016,5.818,0.001,6.053-1.081
		C163.658,51.041,161.839,49.103,160.882,46.896z"/>
	<path fill="#1C1C1B" d="M122.952,64.499c0.9-2.061,0.493-4.593-0.99-6.157c-0.793-0.836-1.811-1.387-3.058-2.02
		c-0.681-0.347-1.413-0.523-2.176-0.523c-2.665,0-5.44,2.172-6.318,4.944c-0.709,2.242-0.293,4.265,1.142,5.552
		c1.711,1.535,4.043,2.309,6.246,2.001C120.059,67.981,122.082,66.491,122.952,64.499z"/>
	<path d="M123.486,64.804c0.987-2.26,0.533-5.044-1.104-6.771c-0.91-0.959-2.122-1.574-3.095-2.068
		c-0.771-0.392-1.599-0.591-2.461-0.591c-2.871,0-5.851,2.312-6.785,5.263c-0.778,2.459-0.291,4.708,1.339,6.17
		c1.532,1.375,3.553,2.163,5.545,2.163c0.345,0,0.69-0.023,1.026-0.07C120.375,68.56,122.548,66.953,123.486,64.804z
		 M112.047,66.061c-1.324-1.188-1.708-3.056-1.054-5.125c0.81-2.559,3.372-4.563,5.832-4.563c0.704,0,1.379,0.162,2.008,0.482
		c1.151,0.584,2.09,1.093,2.823,1.864c1.369,1.444,1.745,3.781,0.914,5.684c-0.803,1.838-2.67,3.214-4.757,3.505
		C115.779,68.192,113.627,67.478,112.047,66.061z"/>
	<path fill="#1C1C1B" d="M144.744,63.24c2.78-0.017,5.359-1.689,6.13-3.978c0.632-1.876,0.071-4.112-1.396-5.562
		c-1.115-1.103-2.716-1.736-4.391-1.736c-0.426,0-0.85,0.042-1.26,0.125c-2.146,0.433-3.982,1.98-4.679,3.94
		c-0.722,2.034-0.147,4.41,1.401,5.779c1.043,0.923,2.517,1.431,4.15,1.431H144.744z"/>
	<path d="M143.753,51.543c-2.311,0.467-4.292,2.143-5.048,4.271c-0.797,2.245-0.153,4.876,1.568,6.398
		c1.143,1.012,2.734,1.568,4.481,1.568h0.046c3.019-0.019,5.725-1.803,6.581-4.339c0.701-2.08,0.087-4.551-1.528-6.147
		C148.333,51.791,145.935,51.105,143.753,51.543z M144.754,62.78c-1.503,0-2.859-0.468-3.818-1.316
		c-1.423-1.26-1.953-3.445-1.289-5.316c0.641-1.803,2.33-3.226,4.304-3.624c0.377-0.076,0.767-0.115,1.159-0.115
		c1.541,0,3.013,0.582,4.039,1.597c1.35,1.334,1.866,3.391,1.284,5.116c-0.71,2.105-3.082,3.644-5.639,3.659H144.754z"/>
	<path fill="#FFFFFF" d="M116.83,58.389c-0.221-0.119-0.459-0.207-0.707-0.242c-0.768-0.109-1.581,0.358-1.872,1.077
		s-0.034,1.621,0.592,2.077c0.627,0.457,1.564,0.425,2.159-0.072c0.212-0.178,0.381-0.405,0.503-0.654
		c0.24-0.486,0.294-1.094,0.019-1.561C117.364,58.743,117.107,58.539,116.83,58.389z"/>
	<path fill="#4A321A" d="M105.6,54.235c0.72,0.041,1.322-0.564,1.645-1.209c0.323-0.645,0.476-1.373,0.868-1.978
		c0.5-0.772,1.351-1.267,2.241-1.501c0.89-0.234,1.824-0.23,2.742-0.182c0.837,0.044,1.672,0.125,2.501,0.241
		c-0.205-0.828-0.88-1.47-1.632-1.871c-1.825-0.974-4.181-0.702-5.878,0.482s-2.742,3.174-3.001,5.226
		c-0.029,0.227-0.037,0.489,0.127,0.649C105.315,54.19,105.46,54.227,105.6,54.235z"/>
	<path fill="#4A321A" d="M141.384,46.309c0.501,0.016,1.067,0.006,1.41-0.359c0.188-0.199,0.273-0.473,0.433-0.695
		c0.31-0.43,0.878-0.618,1.406-0.578c0.528,0.04,1.022,0.276,1.471,0.558c0.749,0.47,1.411,1.078,1.944,1.783
		c0.214,0.283,0.412,0.586,0.692,0.804c0.28,0.218,0.671,0.335,0.995,0.19c0.248-0.216,0.235-0.603,0.168-0.925
		c-0.414-1.981-2.19-3.572-4.193-3.867c-1.757-0.258-3.625,0.449-4.771,1.805c-0.264,0.313-0.484,0.806-0.196,1.097
		C140.904,46.285,141.156,46.302,141.384,46.309z"/>
	<path fill="#4C331B" d="M152.677,176.413c-0.521-6.187-4.664-13.178-11.313-13.95l-0.467-0.048
		c-0.614-0.059-1.193-0.113-1.562-0.371c-0.419-0.294-0.66-0.893-0.891-1.7c-1.753-6.135-1.733-12.746-1.713-19.141
		c0.017-5.376,0.016-10.901-0.999-16.26c-0.665-1.168-1.432-1.219-2.003,0.09c1.035,5.267,1.019,10.793,1.002,16.164
		c-0.02,6.533-0.041,13.289,1.791,19.696c0.302,1.054,0.712,2.121,1.667,2.789c0.801,0.561,1.714,0.647,2.52,0.724l0.425,0.043
		c5.594,0.65,9.096,6.736,9.551,12.132c0.184,2.183-0.107,3.796-0.89,4.934c-0.593,0.863-1.646,1.442-2.622,1.442h0
		c-0.4,0-0.759-0.099-1.067-0.294c-0.161-0.103-0.304-0.221-0.43-0.359c0.04-1.812-0.359-3.647-0.683-5.142
		c-0.104-0.477-0.542-0.813-1.021-0.787c-0.487,0.021-0.887,0.392-0.948,0.875c-0.221,1.762-0.339,3.962,0.617,5.632
		c-0.043,0.46-0.124,0.888-0.244,1.299c-0.581,1.984-2.485,3.47-4.122,3.117c-1.38-0.292-2.331-1.71-2.661-2.985
		c-0.139-0.537-0.215-1.122-0.23-1.785c0.193-1.123,0.211-2.292,0.227-3.236c0.008-0.532-0.402-0.979-0.934-1.014
		c-0.526-0.026-0.998,0.352-1.059,0.882c-0.115,0.982-0.245,2.092-0.236,3.203c-0.128,0.662-0.319,1.224-0.583,1.715
		c-0.677,1.259-2.173,2.062-3.249,1.663c-1.032-0.383-1.535-1.497-1.496-3.313c0.599-1.096,0.75-2.296,0.423-3.407
		c-0.126-0.432-0.56-0.693-0.974-0.719c-0.449,0.007-0.839,0.312-0.953,0.746c-0.248,0.944-0.409,1.896-0.47,2.77
		c-0.47,0.656-1.162,1.124-1.889,1.269c-1.577,0.305-3.424-0.643-4.321-2.195c-0.855-1.479-0.999-3.454-0.394-5.42
		c0.191-0.622,0.457-1.235,0.741-1.854c3.254-4.769,8.325-8.311,13.923-9.722c0.535-0.135,0.86-0.679,0.725-1.214
		c-0.135-0.536-0.678-0.859-1.214-0.726c-4.25,1.071-8.202,3.295-11.411,6.296c0.035-0.242,0.061-0.486,0.074-0.735
		c0.096-1.885-0.517-3.624-1.109-5.306l-0.142-0.404c-2.44-6.992-3.649-14.268-3.631-21.652c0.018-0.083,0.043-0.164,0.039-0.254
		l-0.032-0.673l-0.06-1.269l-0.46-9.659c-0.026-0.552-0.503-0.98-1.046-0.951c-0.552,0.026-0.978,0.495-0.952,1.047l0.46,9.671
		c-4.454,6.36-11.118,11.128-18.538,13.406c-0.718,0.017-1.401,0.196-1.997,0.367l-2.262,0.645l-0.438,0.125
		c-0.001-0.019-0.001-0.038-0.002-0.056c-0.437-8.837,0.902-17.782,3.93-26.089c0.189-0.52-0.078-1.093-0.597-1.282
		c-0.517-0.188-1.093,0.078-1.282,0.597c-3.245,8.901-4.587,18.511-3.965,27.97c-0.111,0.268-0.127,0.522-0.133,0.669
		c-0.122,3.276-0.229,6.553-0.323,9.828c-0.011,0.392-0.022,0.977,0.084,1.589l-0.116,2.988l-0.926,0.034
		c-3.651,0.132-7.425,0.272-11.09-0.069c-0.564-0.057-1.037,0.354-1.088,0.903s0.353,1.037,0.903,1.089
		c1.775,0.165,3.56,0.223,5.337,0.223c2.022,0,4.035-0.074,6.012-0.147l1.846-0.068c3.36,0.898,6.048,3.766,6.572,7.086
		c0.542,3.427-1.442,7.168-4.517,8.518c-0.806,0.354-1.717,0.542-2.634,0.542c-1.543,0-2.958-0.535-3.925-1.449
		c0.576-3.041,0.501-6.204-0.236-9.211c-0.131-0.537-0.676-0.863-1.209-0.733c-0.536,0.132-0.864,0.674-0.733,1.21
		c0.648,2.645,0.736,5.421,0.265,8.102c-0.326,0.292-0.427,0.755-0.239,1.155c-0.004,0.016-0.006,0.033-0.01,0.049
		c-0.05,0.207-0.015,0.407,0.057,0.591c-0.018,0.045-0.026,0.085-0.055,0.135c-0.387,0.671-1.491,1.125-2.157,0.837
		c-0.8-0.344-1.327-1.08-1.675-1.886c0.028-0.269-0.042-0.541-0.219-0.75c0-0.006,0-0.012,0-0.018l-0.258-8.668
		c-0.016-0.552-0.44-0.984-1.029-0.971c-0.552,0.017-0.986,0.478-0.97,1.029l0.195,6.537c-0.211,0.213-0.336,0.507-0.293,0.825
		c0.036,0.271,0.081,0.546,0.136,0.821c0.06,1.731-1.359,3.433-3.01,3.59c-1.635,0.159-3.245-1.192-3.586-2.796
		c0.34-2.978,0.835-5.96,1.49-8.879c0.121-0.538-0.218-1.073-0.756-1.194c-0.535-0.119-1.074,0.217-1.195,0.757
		c-0.573,2.552-1.029,5.151-1.367,7.755c-0.123,0.15-0.215,0.327-0.234,0.533c-0.017,0.187-0.022,0.372-0.018,0.557
		c-0.178,0.938-1.356,1.771-2.425,1.622c-1.265-0.171-2.405-1.342-2.773-2.848c-0.323-1.322-0.146-2.867,0.542-4.722
		c1.168-3.149,3.287-6.064,5.336-8.884c3.14-4.32,6.386-8.786,6.382-14.274c0-0.229-0.083-0.446-0.223-0.62
		c0.275-1.821,0.641-3.637,1.011-5.415c0.241-1.158,0.482-2.316,0.698-3.477c1.58-8.523,1.764-17.197,0.548-25.781
		c-0.078-0.547-0.586-0.927-1.13-0.85c-0.547,0.077-0.927,0.584-0.85,1.131c1.186,8.369,1.006,16.825-0.535,25.135
		c-0.212,1.146-0.451,2.29-0.689,3.434c-0.396,1.9-0.788,3.845-1.074,5.814c-1.62,0.489-3.37,0.648-5.048,0.453
		c0.124-0.178,0.252-0.356,0.386-0.54l0.24-0.331c4.349-6.062,6.224-13.771,5.142-21.151c-0.403-2.754-1.181-5.171-2.31-7.185
		c-2.966-5.284-9.026-8.601-15.073-8.259c-0.552,0.031-0.973,0.504-0.942,1.055c0.032,0.552,0.513,0.981,1.055,0.941
		c5.301-0.292,10.615,2.608,13.216,7.241c1.009,1.8,1.708,3.985,2.076,6.495c1.007,6.873-0.738,14.052-4.789,19.696l-0.232,0.32
		c-0.322,0.442-0.655,0.899-0.943,1.407c-0.237,0.417-0.126,0.92,0.219,1.227c0.005,0.106,0.022,0.212,0.061,0.314
		c1.169,3.001,1.452,6.392,0.796,9.546c-0.241,1.156-0.87,3.166-2.383,3.639c-0.503,0.152-1.231-0.176-1.612-0.671
		c0.089-0.399,0.111-0.8,0.099-1.2c0.353-2.006,0.525-4.046,0.486-6.08c-0.011-0.545-0.456-0.98-1-0.98c-0.007,0-0.013,0-0.02,0
		c-0.552,0.011-0.991,0.467-0.981,1.02c0.034,1.772-0.1,3.548-0.384,5.299c-0.424,0.617-0.552,1.348-0.34,2.086
		c-0.614,1.449-2.194,2.502-3.677,2.298c-0.825-0.114-1.622-0.622-2.186-1.396c-0.594-0.813-0.863-1.823-0.725-2.713
		c0.072-0.246,0.142-0.491,0.21-0.736c0.089-0.316,0.001-0.631-0.187-0.874l1.249-5.309c0.217-0.184,0.354-0.457,0.354-0.764
		c0-0.553-0.448-1-1-1c-0.479,0-1.062,0.297-1.261,1.133l-1.942,8.252c-0.043,0.183-0.017,0.359,0.036,0.526
		c-0.275,0.655-0.608,1.274-1.054,1.794c-0.907,1.059-2.416,1.574-3.424,1.095c-1.037-0.491-1.547-1.794-1.54-3.856
		c0.069-0.116,0.12-0.243,0.137-0.385c0.413-3.42,1.315-6.758,2.681-9.92c0.219-0.507-0.015-1.096-0.521-1.314
		c-0.508-0.219-1.096,0.014-1.314,0.521c-1.183,2.739-2.017,5.605-2.526,8.538c-0.116,0.101-0.217,0.219-0.278,0.369
		c-0.445,1.093-0.95,2.333-1.811,3.101c-0.724,0.646-1.869,0.861-2.477,0.409c-0.438-0.323-0.688-0.955-0.858-1.47
		c-1.077-3.273-0.618-6.965,1.229-9.874c1.69-2.664,4.473-4.54,7.556-5.162c0.195,0.175,0.455,0.279,0.731,0.27
		c1.813-0.112,3.683,0.254,5.49,0.609l2.253,0.442c1.381,0.271,2.809,0.551,4.141,1.004c0.107,0.036,0.215,0.053,0.322,0.053
		c0.417,0,0.805-0.262,0.947-0.679c0.178-0.522-0.102-1.091-0.625-1.269c-1.458-0.495-2.954-0.788-4.399-1.072l-2.253-0.442
		c-1.64-0.322-3.331-0.631-5.072-0.646c-0.084-0.115-0.183-0.219-0.314-0.292c-1.804-1.001-3.017-2.649-3.834-4.352
		c0.086-0.609,0.08-1.207,0.062-1.725l-0.487-14.69c-0.007-0.201-0.075-0.388-0.187-0.545c1.82-6.036,5.629-11.495,10.867-14.984
		c2.065-1.376,4.37-2.494,6.598-3.575c1.594-0.774,3.243-1.574,4.82-2.473c3.941-2.246,6.736-4.853,8.338-7.768
		c1.919,3.321,4.91,6.409,9.258,9.586c5.352,3.908,11.307,6.987,17.592,9.175c-12.223-4.708-23.842-17.568-28.078-20.86
		c-1.257,3.037-3.966,5.772-8.101,8.129c-1.52,0.866-3.138,1.652-4.703,2.411c-2.289,1.11-4.655,2.259-6.833,3.711
		c-5.92,3.943-10.15,10.227-11.967,17.114c-11.013,9.634-24.361,16.353-38.675,19.436c-4.69,1.011-5.282,3.242-5.217,4.481
		c0.021,0.412,0.293,0.769,0.685,0.897c5.203,1.718,10.692,2.589,16.314,2.589c0.001,0,0.001,0,0.002,0
		c9.459,0,18.667-2.454,26.625-7.096c0.706-0.412,1.453-0.907,2.047-1.569c0.587,0.943,1.253,1.776,2.001,2.47
		c-3.103,0.945-5.844,2.994-7.592,5.749c-2.164,3.41-2.702,7.735-1.439,11.571c0.262,0.797,0.678,1.796,1.569,2.453
		c1.354,1,3.587,0.734,4.998-0.525c0.162-0.145,0.313-0.297,0.455-0.456c0.331,1.832,1.176,3.077,2.53,3.718
		c1.809,0.86,4.31,0.135,5.798-1.601c0.293-0.342,0.546-0.704,0.77-1.081c0.124,0.223,0.262,0.44,0.415,0.65
		c0.896,1.227,2.149,2.007,3.528,2.196c2.034,0.283,4.069-0.773,5.236-2.479c0.886,0.67,2.067,0.947,3.06,0.637
		c0.004-0.002,0.008-0.003,0.012-0.004c-1.357,1.995-2.596,4.074-3.428,6.318c-0.832,2.241-1.032,4.168-0.61,5.892
		c0.559,2.285,2.387,4.076,4.447,4.355c1.263,0.171,2.54-0.299,3.437-1.116c0.97,1.63,2.768,2.792,4.668,2.792
		c0.147,0,0.295-0.007,0.444-0.021c1.627-0.154,3.085-1.178,3.962-2.576c0.572,0.89,1.306,1.537,2.184,1.914
		c1.581,0.681,3.801-0.155,4.678-1.676c0.012-0.021,0.023-0.041,0.034-0.061c1.212,0.784,2.704,1.213,4.319,1.213
		c1.191,0,2.381-0.246,3.438-0.71c3.931-1.726,6.376-6.31,5.688-10.662c-0.596-3.768-3.438-7.071-7.101-8.42
		c-0.115-0.145-0.259-0.261-0.439-0.321l0.02-0.528c0.252,0.08,0.517,0.122,0.791,0.122c1.287,0,2.599-0.904,3.119-2.15
		c0.233-0.559,0.334-1.138,0.354-1.706c0.93,0.573,2.023,0.877,3.102,0.826c0.793-0.04,1.531-0.257,2.133-0.627
		c0.85-0.523,1.509-1.375,2.015-2.604c0.822-1.994,0.894-4.011,0.202-5.68c-0.686-1.654-2.038-2.806-3.139-3.624
		c-0.144-0.107-0.3-0.213-0.455-0.319c6.021-2.324,11.452-6.203,15.536-11.194c0.108,7.204,1.367,14.298,3.751,21.131l0.144,0.41
		c0.552,1.567,1.074,3.049,0.999,4.539c-0.076,1.496-0.753,2.909-1.469,4.405c-0.468,0.978-0.952,1.988-1.282,3.063
		c-0.769,2.496-0.56,5.051,0.574,7.009c1.326,2.295,4.029,3.63,6.441,3.156c0.58-0.115,1.143-0.348,1.657-0.676
		c0.363,1.616,1.257,2.739,2.617,3.244c1.735,0.644,3.888-0.151,5.173-1.779c0.76,1.771,2.188,3.07,3.834,3.419
		c2.629,0.558,5.585-1.54,6.456-4.513c0.019-0.065,0.038-0.133,0.056-0.2c0.547,0.272,1.162,0.415,1.801,0.415h0
		c1.629,0,3.306-0.906,4.27-2.31C152.497,181.114,152.901,179.074,152.677,176.413z M74.69,157.256
		c-0.031,0.338-0.075,0.674-0.096,1.013c-0.014,0.224,0.062,0.425,0.176,0.6c-0.698,2.722-2.219,5.235-3.991,7.763
		c0.592-2.958,0.45-6.094-0.393-9C71.84,157.726,73.292,157.591,74.69,157.256z M44.579,146.712
		c-0.326,0.732-1.145,1.255-1.955,1.727c-7.653,4.465-16.511,6.824-25.618,6.824c0,0-0.002,0-0.002,0
		c-5.111,0-10.105-0.747-14.858-2.222c0.556-1.043,2.552-1.587,3.497-1.791c14.276-3.075,27.62-9.678,38.721-19.139l0.417,12.584
		C44.805,145.408,44.83,146.145,44.579,146.712z M102.63,157.236c0.48,1.159,0.406,2.673-0.203,4.152
		c-0.34,0.825-0.738,1.369-1.215,1.663c-0.316,0.194-0.726,0.31-1.186,0.332l-0.15,0.004c-1.401,0-2.8-0.987-3.353-2.358
		l-0.25-1.187c-0.108-0.509-0.583-0.842-1.106-0.785c-0.517,0.067-0.896,0.52-0.871,1.04c0.024,0.506,0.126,1.009,0.303,1.498
		l0.142,0.672c0.263,1.245,0.451,2.347,0.084,3.224c-0.267,0.639-1.176,1.14-1.613,0.816c-0.431-0.319-0.465-1.192-0.442-2.005
		c0.066-2.317,0.142-4.643,0.224-6.987c0.3-0.2,0.489-0.547,0.447-0.931c-0.063-0.579-0.091-1.162-0.138-1.743l3.087-0.88
		c0.589-0.168,1.183-0.341,1.733-0.294c0.701,0.063,1.385,0.51,2.021,0.983C101.041,155.116,102.132,156.034,102.63,157.236z"/>
	<path fill="#4C331B" d="M173.088,90.821c-1.497,3.348-3.044,6.809-5.192,9.802c-0.322,0.448-0.219,1.073,0.229,1.396
		c0.177,0.127,0.38,0.188,0.582,0.188c0.312,0,0.618-0.145,0.813-0.417c2.266-3.157,3.855-6.713,5.393-10.151
		c1.85-4.139,3.763-8.418,4.568-13.035c0.831-4.771,0.427-9.6,0.036-14.269c-0.046-0.55-0.528-0.97-1.08-0.912
		c-0.55,0.046-0.959,0.529-0.913,1.079c0.381,4.543,0.774,9.24-0.013,13.758C176.75,82.631,174.889,86.794,173.088,90.821z"/>
	<path fill="#4C331B" d="M80.979,36.114c0.387-0.395,0.38-1.027-0.014-1.414c-0.394-0.388-1.027-0.379-1.414,0.014
		c-2.369,2.416-4.272,5.587-5.989,9.979c-2.134,5.462-3.104,10.383-2.966,15.043c0.016,0.542,0.46,0.971,0.999,0.971
		c0.01,0,0.02,0,0.03,0c0.552-0.017,0.986-0.478,0.97-1.029c-0.13-4.387,0.796-9.05,2.83-14.256
		C77.041,41.288,78.805,38.331,80.979,36.114z"/>
	<path fill="#4C331B" d="M178.45,40.512l-8.885-23.179c-2.042-5.326-4.583-11.955-9.958-15.857c-0.807-0.586-1.904-1.279-3.227-1.44
		c-1.191-0.142-2.404,0.136-3.836,0.848c-4.554,2.258-7.313,6.592-8.826,9.831c-0.699,1.495-1.277,3.041-1.794,4.6
		c-0.211,0.635-0.407,1.272-0.6,1.909c-0.304,1.002-0.597,2.004-0.881,2.995c-0.264,0.922-0.528,1.844-0.803,2.761
		c-0.712,2.367-1.609,4.995-3.309,6.906c0.407-0.723,0.637-1.542,0.594-2.317c-0.058-1.021-0.554-1.839-1.396-2.3
		c-0.459-0.252-0.985-0.374-1.608-0.374c-0.388,0-0.758,0.047-1.068,0.093c-0.73,0.108-1.454,0.248-2.168,0.418
		c1.284-1.519,2.114-3.315,1.889-5.415c-0.041-0.384-0.298-0.709-0.662-0.837c-0.565-0.199-1.154-0.3-1.748-0.3
		c-2.768,0-5.178,2.116-7.305,3.984l-0.518,0.453c-2.692,2.342-5.918,4.132-9.329,5.177c-0.961,0.294-1.976,0.543-2.957,0.783
		c-2.366,0.579-4.813,1.178-6.98,2.502c-1.217,0.744-2.321,1.729-3.298,2.893c-0.291,0.065-0.571,0.138-0.824,0.215
		c-6.206,1.912-11.729,6.606-15.552,13.217c-2.943,5.091-4.888,11.072-6.305,19.395c-1.086,6.382-1.687,12.899-1.786,19.374
		c-0.018,1.192,0.042,2.549,0.989,3.544c0.612,0.644,1.412,0.917,2.055,1.137c7.83,2.676,16.704,5.709,25.656,5.71h0.001
		c0.674,0,1.345-0.024,2.01-0.058c2.142,4.769,6.515,8.832,11.998,11.053c3.712,1.504,8.013,2.267,12.782,2.267
		c1.565,0,3.215-0.082,4.904-0.244c4.859-0.465,8.645-1.434,11.913-3.051c4.098-2.027,7.24-5.133,8.848-8.747
		c1.744-3.92,1.787-8.72,0.118-13.17c-0.51-1.359-1.162-2.658-1.792-3.914c-0.827-1.648-1.607-3.205-2.092-4.879
		c-0.988-3.42-0.613-7.192,1.03-10.35c0.286-0.55,0.608-1.082,0.93-1.614c0.632-1.046,1.285-2.128,1.697-3.355
		c1.082-3.221,0.282-6.613-0.744-9.799c-1.254-3.896-3.166-8.824-6.837-12.367c-0.208-0.201-0.426-0.388-0.645-0.576l8.321-10.139
		c0.877,7.299,1.068,14.698,0.566,22.029c-0.05,0.736-0.144,2.107,0.833,2.991c0.767,0.693,1.82,0.693,2.327,0.693l0.133-0.001
		c6.255-0.052,12.621-0.68,16.811-4.882c0.292-0.293,0.546-0.59,0.782-0.89c0.53-0.673,0.921-1.362,1.165-2.063
		c0.128-0.368,0.223-0.738,0.272-1.111C179.554,43.393,178.942,41.797,178.45,40.512z M104.009,95.238h-0.001
		c-8.62-0.001-17.327-2.977-25.009-5.603c-0.48-0.164-0.978-0.334-1.252-0.623c-0.427-0.448-0.45-1.338-0.438-2.135
		c0.098-6.372,0.689-12.788,1.758-19.068c1.375-8.078,3.246-13.854,6.064-18.729c3.57-6.174,8.688-10.544,14.409-12.307
		c0.313-0.097,0.659-0.194,1.009-0.256c-2.705,8.281-3.351,16.638-1.863,24.249c0.954,4.88,2.786,9.533,4.558,14.032l6.342,16.104
		c0.407,1.033,0.806,2.202,0.392,2.989c-0.362,0.688-1.333,1.087-2.97,1.223C106.03,95.196,105.021,95.238,104.009,95.238z
		 M153.707,51.989c0.157,0.486,0.303,0.978,0.441,1.471c-0.28,0.923,0.084,1.27,0.334,1.789c1.523,3.163,0.299,6.39-0.881,8.85
		c-0.575,1.198-1.369,2.46-2.931,3.614c-0.196,0.145-0.177,0.65-0.002,0.942c-0.693,2.745-0.681,5.666,0.108,8.393
		c0.535,1.852,1.395,3.564,2.225,5.221c0.607,1.209,1.234,2.46,1.707,3.721c1.486,3.962,1.46,8.21-0.072,11.654
		c-1.418,3.188-4.227,5.946-7.907,7.767c-3.043,1.506-6.607,2.412-11.216,2.854c-6.506,0.62-12.115-0.012-16.744-1.886
		c-4.766-1.93-8.605-5.356-10.631-9.389c1.349-0.216,2.857-0.735,3.61-2.166c0.876-1.665,0.11-3.609-0.301-4.653l-6.342-16.104
		c-1.739-4.416-3.538-8.982-4.457-13.683c-1.499-7.668-0.726-16.148,2.236-24.524c0.096-0.271,0.07-0.57-0.07-0.821
		c-0.08-0.143-0.198-0.253-0.332-0.34c0.517-0.468,1.06-0.888,1.633-1.238c1.902-1.162,4.093-1.699,6.413-2.267
		c1.008-0.247,2.051-0.502,3.067-0.813c3.676-1.126,7.153-3.055,10.056-5.579l0.525-0.46c1.861-1.635,3.971-3.487,5.985-3.487
		c0.149,0,0.295,0.01,0.439,0.029c-0.167,3.004-3.552,5.361-6.17,6.911c-0.469,0.277-0.629,0.878-0.361,1.353
		c0.268,0.473,0.864,0.649,1.345,0.388c2.414-1.301,5.015-2.165,7.73-2.568c0.494-0.073,1.117-0.109,1.422,0.057
		c0.091,0.05,0.333,0.183,0.36,0.658c0.04,0.703-0.41,1.593-1.023,2.024c-0.598,0.421-1.318,0.703-2.081,1.003
		c-0.903,0.354-1.836,0.72-2.673,1.354c-0.406,0.309-0.515,0.871-0.254,1.309c0.261,0.438,0.81,0.611,1.272,0.399
		c1.744-0.791,3.625-1.312,5.541-1.542c0.315,0.198,0.725,0.211,1.058,0.005c0.08-0.049,0.177-0.073,0.264-0.114
		c0.723-0.035,1.447-0.032,2.168,0.018c0.158,0.096,0.307,0.217,0.424,0.391c0.132,0.197,0.141,0.455,0.091,0.701
		c-0.15,0.158-0.318,0.312-0.507,0.44c-0.252,0.17-0.522,0.312-0.785,0.464c-0.233,0.041-0.435,0.167-0.584,0.346
		c-0.473,0.242-0.962,0.456-1.462,0.641c-0.441,0.107-0.877,0.245-1.296,0.408c-0.494,0.192-0.751,0.737-0.587,1.241
		c0.165,0.503,0.69,0.794,1.205,0.657c0.423-0.11,0.841-0.24,1.253-0.388c1.919-0.445,4.08-0.172,6.126,0.645
		c1.046,0.506,2.059,1.083,2.996,1.767c0.104,0.075,0.218,0.126,0.336,0.156c0.336,0.266,0.666,0.54,0.976,0.84
		C150.736,43.681,152.523,48.314,153.707,51.989z M177.355,44.804c-0.124,0.953-0.68,1.932-1.652,2.908
		c-3.681,3.691-9.582,4.245-15.411,4.294l-0.117,0.001c-0.236,0-0.79,0-0.985-0.177c-0.256-0.232-0.204-1.002-0.179-1.371
		c0.564-8.234,0.269-16.554-0.877-24.726c-0.055-0.394-0.337-0.717-0.72-0.824c-0.018-0.005-0.036-0.003-0.055-0.008
		c-0.207-0.735-0.324-1.527-0.442-2.35c-0.107-0.753-0.219-1.532-0.409-2.3c-0.228-0.914-0.561-1.782-0.883-2.621
		c-0.385-1.003-0.749-1.951-0.924-2.931c-0.097-0.544-0.613-0.903-1.161-0.809c-0.543,0.098-0.905,0.617-0.808,1.16
		c0.209,1.167,0.625,2.25,1.026,3.296c0.314,0.818,0.611,1.592,0.808,2.387c0.166,0.669,0.266,1.364,0.371,2.101
		c0.156,1.091,0.319,2.21,0.712,3.28l-9.176,11.18c-1.62-1.073-3.393-1.927-5.238-2.525c0.036-0.059,0.07-0.118,0.103-0.18
		c0.566-1.058,0.547-2.271-0.05-3.169c-0.543-0.814-1.416-1.344-2.455-1.508c1.321-1.969,2.091-4.261,2.721-6.358
		c0.278-0.926,0.544-1.855,0.811-2.786c0.885-3.092,1.799-6.288,3.164-9.209c1.377-2.949,3.867-6.885,7.903-8.886
		c1.071-0.531,1.916-0.75,2.706-0.652c0.677,0.082,1.384,0.413,2.293,1.073c4.894,3.553,7.318,9.875,9.266,14.955l8.885,23.178
		C177.016,42.358,177.506,43.637,177.355,44.804z"/>
	<path fill="#4A321A" d="M127.831,96.623c-1.492,0.696-3.272,0.748-4.802,0.142c-1.531-0.606-2.792-1.863-3.403-3.392
		c-0.06-0.15-0.115-0.305-0.214-0.432c-0.141-0.181-0.367-0.292-0.597-0.293c-0.407-0.001-0.755,0.335-0.893,0.718
		c-0.138,0.383-0.11,0.804-0.065,1.209c0.064,0.58,0.161,1.168,0.425,1.689c0.347,0.685,0.957,1.2,1.605,1.612
		c2.031,1.291,4.6,1.703,6.934,1.114c0.933-0.235,1.881-0.669,2.393-1.483c0.169-0.269,0.281-0.626,0.114-0.896
		C129.038,96.143,128.33,96.391,127.831,96.623z"/>
	<path fill="#1C1C1B" d="M137.689,99.848c2.413,0.649,4.995,0.77,7.456,0.348l0.218,0.33l0.915,1.293l0.053,0.02
		c0.176,0,0.467-0.175,0.578-0.401c0.099-0.204,0.16-0.443,0.226-0.699c0.098-0.384,0.21-0.82,0.48-1.203
		c0.414-0.586,1.054-0.862,1.619-1.104c0.178-0.076,0.356-0.153,0.525-0.239c1.115-0.567,2.012-1.762,2.462-3.278
		c0.424-1.426,0.452-2.969,0.479-4.461c0.02-1.068,0.04-2.17-0.309-3.155c-0.351-0.991-1.076-1.841-1.729-2.56
		c-1.202-1.324-2.68-2.741-4.528-3.209c-1.334-0.338-2.847-0.209-4.945,0.451c-1.926,0.602-3.785,1.423-5.525,2.44
		c-1.059,0.619-2.231,1.406-2.894,2.548c-0.672,1.157-0.777,2.601-0.832,4.104c-0.073,2.015-0.06,4.118,0.948,5.728
		C133.761,98.202,135.377,99.226,137.689,99.848z"/>
	<path d="M137.755,100.288c2.291,0.617,4.729,0.759,7.082,0.413l0.409,0.963l0.051,0.093c0.204,0.289,0.517,0.448,0.882,0.448
		c0.571,0,1.179-0.396,1.444-0.941c0.138-0.282,0.212-0.571,0.283-0.85c0.079-0.307,0.153-0.597,0.303-0.809
		c0.228-0.323,0.655-0.507,1.107-0.7c0.188-0.081,0.376-0.162,0.555-0.254c1.296-0.659,2.329-2.009,2.832-3.703
		c0.439-1.479,0.466-3.006,0.493-4.482c0.019-1.046,0.041-2.231-0.349-3.333c-0.394-1.111-1.154-2.006-1.835-2.757
		c-1.236-1.362-2.77-2.822-4.773-3.329c-1.446-0.367-3.046-0.24-5.217,0.439c-1.891,0.592-3.717,1.398-5.426,2.397
		c-1.113,0.65-2.352,1.488-3.095,2.769c-0.75,1.292-0.863,2.792-0.92,4.343c-0.075,2.06-0.056,4.218,1.047,5.98
		C133.594,98.519,135.319,99.634,137.755,100.288z M132.58,91.032c0.052-1.42,0.151-2.785,0.786-3.878
		c0.626-1.079,1.733-1.822,2.734-2.407c1.644-0.961,3.4-1.737,5.22-2.306c1.983-0.623,3.413-0.745,4.673-0.426
		c1.746,0.442,3.143,1.781,4.278,3.032c0.616,0.68,1.301,1.482,1.633,2.419c0.329,0.931,0.31,1.973,0.292,2.981
		c-0.025,1.409-0.052,2.867-0.452,4.215c-0.425,1.433-1.273,2.562-2.327,3.098c-0.16,0.081-0.328,0.153-0.496,0.226
		c-0.534,0.229-1.139,0.489-1.53,1.043c-0.255,0.362-0.361,0.773-0.454,1.137c-0.062,0.241-0.12,0.468-0.213,0.66
		c-0.104,0.214-0.379,0.379-0.546,0.379l-0.05-0.019l-0.68-1.601l-0.39,0.066c-2.325,0.398-4.765,0.284-7.045-0.329
		c-2.185-0.588-3.711-1.556-4.539-2.879C132.523,94.923,132.511,92.937,132.58,91.032z"/>
	<path fill="#FFFFFF" d="M139.147,86.022c0.35,0.125,0.739,0.064,1.096-0.042c1.604-0.476,2.952-1.804,4.625-1.852
		c0.097-0.003,0.218-0.017,0.251-0.108c0.011-0.03,0.009-0.063,0.005-0.095c-0.044-0.364-0.356-0.651-0.702-0.773
		c-0.346-0.121-0.723-0.107-1.089-0.08c-1.58,0.113-3.24,0.463-4.392,1.552c-0.161,0.152-0.315,0.328-0.358,0.545
		C138.511,85.533,138.797,85.896,139.147,86.022z"/>
	<path fill="#FFFFFF" d="M145.634,56.05c0.414-0.685,0.09-1.702-0.644-2.022c-0.734-0.32-1.699,0.135-1.919,0.905
		c-0.126,0.439-0.005,0.961,0.357,1.24c0.172,0.132,0.382,0.202,0.59,0.266c0.373,0.114,0.787,0.209,1.143,0.051
		C145.36,56.401,145.521,56.238,145.634,56.05z"/>
</g>
</svg>
