<?xml version="1.0" encoding="utf-8"?>
<!-- Generator: Adobe Illustrator 23.1.0, SVG Export Plug-In . SVG Version: 6.00 Build 0)  -->
<svg version="1.1" id="Vrstva_10" xmlns="http://www.w3.org/2000/svg" xmlns:xlink="http://www.w3.org/1999/xlink" x="0px" y="0px"
	 viewBox="0 0 220.19 186.771" enable-background="new 0 0 220.19 186.771" xml:space="preserve">
<g>
	<path fill="none" d="M53.555,131.723c0.015,0.075,0.026,0.152,0.023,0.231c-0.068,1.956,0.599,3.883,1.304,5.922
		c0.847,2.449,1.723,4.982,1.278,7.667c-0.274,1.666-1.081,3.229-2.243,4.381c-0.125,0.394-0.4,0.623-0.504,0.702
		c-0.023,0.018-0.052,0.03-0.075,0.048c-0.065,0.06-0.139,0.115-0.21,0.171c1.423-0.342,2.821-0.512,4.013-0.607
		c0.144-0.011,0.406-0.031,0.477-0.073c0.01-0.013,0.119-0.16,0.06-0.885c-0.605-7.418-1.787-14.849-3.511-22.085
		c-0.108-0.452-0.221-0.903-0.332-1.355c-0.068,0.249-0.157,0.52-0.34,0.775L53.555,131.723z"/>
	<path fill="none" d="M155.198,166.614c1.465-0.411,2.85-0.8,3.848-1.7c0.996-0.897,1.574-2.313,2.084-3.562
		c1.159-2.835,2.357-5.766,2.643-8.812c0.238-2.534-0.151-4.994-0.954-7.41c-0.962,1.575-2.464,2.829-3.832,3.822l-0.39,0.282
		c-1.858,1.341-3.78,2.729-4.461,4.697c-0.1,0.29-0.173,0.588-0.247,0.887c-0.124,0.493-0.251,1.004-0.479,1.516
		c-0.716,1.606-2.098,2.599-3.664,3.455c0.728,1.314,1.27,2.718,1.617,4.187c0.195,0.823,0.394,1.913,0.196,3.048
		c-0.075,0.428-0.214,0.841-0.395,1.234c0.32-0.216,0.651-0.419,1.004-0.59C153.148,167.189,154.19,166.896,155.198,166.614z"/>
	<path fill="#BA9060" d="M164.385,152.995c-0.314,3.341-1.352,6.331-2.566,9.301c-0.562,1.375-1.485,3.027-2.82,4.231
		c-1.347,1.213-2.536,0.9-4.159,1.356c-0.965,0.271-2.248,1.076-3.068,1.475c-3.334,1.623-4.586,7.489-3,10.841
		c1.122,2.373,4.86,3.955,7.69,3.955c0.734,0,1.444-0.196,2.102-0.411c0.776-0.407-0.266,0.188,1.117,0.002
		c0.042,0.127,0.694,1.1,0.682,1.238c-0.052,0.629,1.202,0.639,1.909,0.739c0.635,0.09,1.405,0.133,2.045-0.068
		c-0.17-0.416,0.136-0.955,0.682-0.671c0.029,0.027,0.819,0.368,0.846,0.398c1.094,1.256,3.921,1.39,5.836,1.39
		c2.778,0,5.449-1.599,6.409-3.776c0.233-0.529,0.562-1.671,0.741-2.274c0.201-0.675,0.408-1.373,0.722-2.055
		c0.282-0.614,0.631-1.172,0.968-1.711c0.383-0.613,0.744-1.192,0.979-1.802c0.646-1.678,0.303-3.715-0.003-5.729l-0.134-0.901
		c-0.633-4.476-0.177-8.701,0.769-13.367c0.159-0.782,0.339-1.572,0.52-2.366c0.828-3.638,1.165-7.853-0.1-11.142
		c-0.569-1.48-1.532-2.777-2.551-4.15c-0.609-0.82-1.239-1.669-1.788-2.571c-4.354-7.157-2.621-16.072-1.343-24.022l0.143-0.89
		c0.18-1.128,0.358-2.311,0.527-3.53c-0.343-0.948-0.237-1.909-0.13-2.763c1.702-13.595-3.199-28.307-5.993-35.77
		c-2.384-3.671-5.34-6.724-8.734-8.911c-5.208-3.357-12.516-5.145-20.623-5.291c-5.354-0.104-10.785,0.489-16.049,1.055
		c-1.781,0.191-3.562,0.383-5.342,0.551c-3.929,0.369-7.448,0.548-10.759,0.548c-7.485,0-13.917-0.834-19.491-2.759
		c-0.227,0.283-1.108,0.645-1.331,0.869l-0.103,0.103c-1.263,1.271-2.369,2.788-3.439,4.254c-1.461,2-2.973,4.056-4.962,5.664
		c0.062,0.542,0.134,1.903,0.236,2.439c0.404,2.129,1.265,3.969,2.022,6.11c0.525,1.486,0.922,3.168,1.345,4.731
		c1.29,4.757,0.422,8.282-1.413,11.318c-2.769,4.581-6.538,5.263-10.636,6c-4.485,0.806-8.734,1.237-13.091,1.237
		c-0.604,0-2.574,0.016-3.179,0c-1.82-0.048-4.662-0.419-6.956,0.47c0.038,0.136,0.07,0.274,0.112,0.408
		c0.31,1.001,0.729,2.032,1.135,3.028c0.752,1.85,2.522,5.289,3.057,7.95l1.026-3.905c-0.224-0.905,0.84-0.397,1.044-0.508
		c0.104-0.487,1.221-0.658,1.193-0.143c0.334-0.032,1.41-0.015,1.75-0.015c3.47,0,5.929,1.53,8.386,4.295
		c2.689,3.025,3.801,6.44,3.886,11.321c0.002,0.094,0.068,1.243,0.068,1.274c0.385-0.037,1.932,0.039,2.318,0
		c5.367-0.535,5.032-0.944,9.205-2.708c1.513-0.64,3.524-2.72,3.534-2.727c1.443-1.023,2.06-1.039,1.855-0.687
		c15.022,1.865,31.147-0.2,44.929-6.381c1.181-0.528,2.527-1.113,3.818-1.113c0.602,0,1.331,0.248,1.839,0.477
		c1.689,0.511,1.637,1.416,2.252,2.523c0.214,0.385,1.415,1.049,1.633,1.432l14.512,21.409c0.392,0.544,1.334,1.229,1.717,1.773
		c0.54,0.602,1.087,1.522,1.638,2.114c1.77,1.899,3.477,3.078,3.294,6.273C164.597,145.826,164.733,149.285,164.385,152.995z"/>
	<path fill="#A47C4F" d="M162.898,165.627c4.308-3.202,6.445-8.738,6.529-14.105c0.043-2.775,0.193-6.2-1.085-8.663
		c-1.006-1.938-3.131-5.833-4.5-7.534c-6.606-8.206-11.005-15.055-15.394-24.632c-1.82-3.97-4.247-8.434-8.541-9.232
		c-2.19-0.407-4.419,0.268-6.548,0.922c-7.408,2.276-14.865,4.396-22.362,6.358c-6.338,1.658-13.063,3.201-19.354,1.374
		c0.492-5.322,0.159-10.719-0.984-15.939c-1.3-1.045-3.366,0.071-3.986,1.619c-0.62,1.548-0.319,3.287-0.28,4.954
		c0.116,4.865-2.242,9.725-6.136,12.643c-2.616,1.961-5.88,2.987-9.146,3.017c-0.885,0.807-0.909,2.178-0.887,2.998
		c0.001,0.027,1.416,0.131,1.417,0.162c0.385-0.037,1.596,0.039,1.982,0c5.367-0.535,9.901-1.384,12.234-5.267
		c0.007-0.011,0.806-0.668,0.818-0.665c1.199,0.319,0.588,0.633,1.199,0.319c15.022,1.865,31.37-0.235,45.152-6.416
		c1.181-0.528,2.44-1.045,3.731-1.045c0.602,0,1.159,0.124,1.668,0.353c1.689,0.511,1.591,1.574,2.205,2.681
		c0.214,0.385,0.441,0.762,0.659,1.145l14.905,21.062c0.392,0.544,0.778,1.087,1.161,1.63c0.54,0.602,1.076,1.208,1.627,1.8
		c1.77,1.899,3.995,3.936,3.812,7.132c1.487,3.399,2.309,6.9,1.961,10.61c-0.314,3.341-1.722,5.989-2.936,8.958
		c-0.562,1.375-1.261,3.087-2.596,4.291c-1.347,1.213-3.024,1.684-4.647,2.14c-0.965,0.271-1.876,0.526-2.696,0.926
		c-3.334,1.623-4.506,6.773-2.921,10.125c0.412,0.871,1.636,2.608,2.568,1.9c-0.537-2.27-0.92-4.54-0.203-6.646
		C152.932,169.872,158.888,168.607,162.898,165.627z"/>
	<polygon fill="#BA9060" points="71.299,89.284 71.299,89.296 71.299,89.284 	"/>
	<path fill="#BA9060" d="M79.976,57.472c0.521-2.024,2.095-9.168,1.336-11.977c0.228-4.263-0.036-10.11-2.699-14.068
		c-1.404-2.087-4.066-3.535-6.514-5.393c-2.041-1.55-2.703-3.737-4.991-3.471c-0.461,0.056,1.704-3.193,1.756-3.351
		c0.234-0.712-0.513-2.281-0.75-2.99c-0.082-0.105-3.606-0.452-4.5,0c-2.241,1.13,0.851-2.086,0.747-2.795
		c-0.12-0.815-2.49-2.182-3.232-2.182c-0.255,0-4.569,1.328-4.81,1.368c-2.646,0.444-0.901-1.286-0.477-2.186
		c0.432-0.916,0.632-4.023,0.136-4.841c-0.395-0.649-3.844,0.169-4.295,0.477c-2.216,1.514-3.794,6.17-4.159,6.549
		c-0.554,0.579-2.312,1.141-2.857,1.223c-4.537,0.678-7.96,2.968-11.53,5.85c-0.026,0.163-1.396,1.036-1.5,1.17
		c-4.747,6.108-7.081,14.159-6.749,21.889c0.351,8.146,3.985,15.896,7.227,23.398c1.736,4.018,3.766,7.949,5.114,12.166
		c0.526,1.646,0.421,3.553,0,4.595c0.333,1.612,0.329,3.102,1.004,4.5c1.288,2.665,4.481,5.377,7.791,6.682
		c3.369,1.329,6.73,1.681,9.545,1.753c4.828,0.131,10.231-0.168,15.205-1.062c3.717-0.668,9.923-1.754,12.273-5.64
		c1.951-3.23,1.377-8.189,0.58-11.13c-0.404-1.49-0.501-3.266-1.014-4.717c-0.749-2.118-1.567-3.069-2-5.349
		c-0.118-0.622-0.293-1.507-0.362-2.131c-0.078-0.136-0.538-1.562-0.545-1.725C79.598,61.73,79.813,59.823,79.976,57.472z"/>
	<g>
		<path fill="#A47C4F" d="M65.636,23.862c0.012,0.244,0.038,0.488,0.095,0.733c3.468,1.324,6.53,3.691,8.685,6.714
			c2.448,3.435,3.633,7.482,4.141,11.698c0.106,0.864,1.655,2.177,2.185,3.114c0.228-4.263,0.076-10.091-2.588-14.049
			c-1.404-2.087-3.232-3.887-5.681-5.745C70.481,24.813,66.851,22.717,65.636,23.862z"/>
		<path fill="#A47C4F" d="M66.563,20.856c0.424,0.173,1.083,0.108,1.361-0.287c0.018-0.037-0.294-0.846-0.275-0.883
			C67.237,20.032,66.867,20.424,66.563,20.856z"/>
		<path fill="#A47C4F" d="M82.635,89.066c1.951-3.23,1.786-8.386,0.99-11.327c-0.404-1.49-0.987-3.228-1.501-4.679
			c-0.749-2.118-1.332-3.832-1.764-6.111c-0.118-0.622-0.238-1.37-0.307-1.994c-0.078-0.136-0.342-0.707-0.349-0.869
			c-0.104-2.357-0.453-5.116-0.29-7.466c-0.195,0.226-0.818,0.511-0.864,1.14c-0.291,5.862-0.394,11.752,1.472,17.265
			c0.677,1.999,1.615,3.96,1.722,6.068c0.183,3.605-2.168,6.959-5.163,8.974s-6.57,2.94-10.068,3.831
			c-1.151,0.293-2.301,0.586-3.452,0.879c1.675,0.809,3.869,0.956,6.533,0.476C73.312,94.586,80.285,92.953,82.635,89.066z"/>
	</g>
	<path fill="#7B5632" d="M173.299,70.376c1.79,8.131,5.704,21.837,4.193,33.903c-0.092,0.73-0.165,1.701,0.045,2.206
		c0.135,0.321,0.408,0.625,0.752,0.989c10.087,10.673,22.754,17.788,34.186,18.639c0.438,0.032,0.882,0.057,1.324,0.057
		c1.154,0,2.03-0.165,2.757-0.52c0.784-0.383,2.538-2.476,2.664-3.32c-3.859-0.689-7.437-1.954-10.227-3.631
		c-5.881-3.533-8.558-6.909-12.119-13.449c-1.465-2.69-2.834-5.875-4.091-8.595c-1.244-2.69-2.53-5.472-3.968-8.101
		C185.711,82.876,179.743,75.541,173.299,70.376z"/>
	<path fill="#5C3F22" d="M218.029,123.043c-2.724,1.214-5.906,0.557-8.807-0.195c-4.893-1.268-9.855-2.759-13.929-5.752
		c-3.015-2.215-5.408-5.155-7.765-8.062c-3.193-3.938-6.418-7.956-8.843-12.378c-1.296,2.203-1.267,5.004-1.586,7.552
		c-0.092,0.73-0.176,1.407,0.034,1.912c0.135,0.321,0.986,1.783,1.33,2.148c10.087,10.673,23.04,16.735,34.471,17.585
		c0.438,0.032,0.882,0.057,1.324,0.057c1.154,0,2.03-0.165,2.757-0.52C217.663,125.075,218.708,123.404,218.029,123.043z"/>
	<path fill="#7B5632" d="M32.143,66.802c-3.314-7.668-6.892-15.543-7.258-24.057c-0.342-7.963,1.989-16.55,6.749-22.948
		c-0.22-0.175-1.116-0.606-1.452-0.609c0,0-1.24,0.498-1.241,0.498c-0.701,0-1.931,0.312-2.557,0.63
		c-9.162,4.66-14.307,13.727-18.409,21.091c-2.085,3.741-4.238,8.447-5.574,13.372c-1.349,4.973-1.526,9.935-0.402,14.075
		c0.482,1.775,0.833,3.185,1.681,4.334c1.74,2.358,5.424,5.166,7.875,6.239c7.111,3.109,15.367,4.034,23.126,3.886
		c0.491-0.01,1.254-0.616,1.55-0.788c0.761-0.442,1.396-1.43,0.995-2.69C35.907,75.712,33.86,70.775,32.143,66.802z"/>
	<path fill="#5C3F22" d="M15.35,78.477C11.121,75.945,8.868,70.917,8.533,66s0.982-9.789,2.485-14.483
		c3.307-10.329,7.773-20.567,14.154-29.249c-4.775,1.067-13.532,12.561-17.197,19.14c-2.085,3.741-4.238,8.447-5.574,13.372
		c-1.349,4.973-1.526,10.69-0.402,14.83c0.482,1.775,1.958,3.453,2.806,4.602c1.74,2.358,5.066,4.246,7.517,5.318
		c2.202,0.963,5.114,1.892,6.162,0.87C17.509,79.684,16.339,79.069,15.35,78.477z"/>
	<path fill="#FFFFFF" d="M76.019,42.312c-0.674-0.283-1.456-0.501-2.39-0.663c-0.912-0.16-1.829-0.241-2.728-0.241
		c-2.55,0-4.863,0.646-6.685,1.868c-1.813,1.215-3.192,3.023-3.88,5.092c-0.415,1.243-0.6,2.623-0.55,4.1
		c0.041,1.244,0.245,2.18,0.64,2.946c0.377,0.727,1.005,1.427,1.921,2.137c1.269,0.984,2.693,1.719,4.227,2.184
		c1.172,0.355,2.392,0.536,3.629,0.537c0,0,0,0,0.001,0c2.253,0,4.385-0.595,6.166-1.719c1.67-1.055,2.979-2.599,3.8-4.337
		c0.211-1.749,0.5-3.489,0.85-5.218C80.588,46.068,78.651,43.417,76.019,42.312z"/>
	<path fill="#4C331B" d="M76.183,41.483c-0.733-0.309-1.566-0.542-2.549-0.713c-3.641-0.639-7.245-0.008-9.865,1.747
		c-1.963,1.316-3.456,3.275-4.203,5.516c-0.442,1.327-0.641,2.789-0.589,4.346c0.047,1.389,0.289,2.464,0.765,3.385
		c0.454,0.874,1.174,1.688,2.203,2.486c1.328,1.029,2.816,1.798,4.422,2.285c1.232,0.374,2.517,0.563,3.816,0.564c0,0,0,0,0.001,0
		c2.382,0,4.646-0.635,6.546-1.834c0.927-0.585,1.74-1.322,2.447-2.144c1.284-0.731,1.258-2.521,0.292-3.164
		c-0.765,1.618-1.985,3.058-3.54,4.04c-1.66,1.047-3.646,1.602-5.745,1.602c-0.001,0-0.001,0-0.001,0
		c-1.152-0.001-2.289-0.169-3.381-0.5c-1.43-0.434-2.756-1.118-3.938-2.035c-0.854-0.662-1.438-1.313-1.79-1.991
		c-0.368-0.714-0.559-1.586-0.597-2.745c-0.046-1.377,0.126-2.662,0.513-3.82c0.642-1.928,1.926-3.612,3.615-4.744
		c1.698-1.139,3.853-1.74,6.229-1.74c0.838,0,1.692,0.075,2.542,0.225c0.87,0.151,1.599,0.354,2.227,0.618
		c2.453,1.029,4.257,3.499,4.659,6.23c0.556,0.084,0.467-0.132,0.556-0.53c0.07-0.316,0.196-0.118,0.494-0.244
		c0.069-0.029,0.201-0.611,0-1.161c-0.2-0.58-0.458-1.134-0.759-1.665C79.546,43.719,78.027,42.257,76.183,41.483z"/>
	<path fill="#FFFFFF" d="M52.986,51.277c-0.377-1.111-0.854-1.989-1.459-2.682c-1.132-1.295-2.921-2.165-5.32-2.586
		c-0.869-0.152-1.757-0.23-2.635-0.23c-3.508,0-6.602,1.233-8.491,3.382c-2.282,2.597-2.703,6.171-2.654,8.712
		c0.059,3.081,0.839,5.41,2.32,6.924c1.007,1.029,2.459,1.774,4.198,2.157c0.801,0.176,1.635,0.266,2.477,0.266
		c3.464,0,6.874-1.497,9.12-4.006C53.356,60.071,54.338,55.274,52.986,51.277z"/>
	<path fill="#4C331B" d="M53.68,51.134c-0.414-1.224-0.953-2.205-1.648-3c-1.283-1.47-3.24-2.443-5.817-2.896
		c-0.895-0.157-1.807-0.237-2.711-0.237c-3.693,0-6.982,1.332-9.024,3.655c-2.439,2.776-2.892,6.493-2.842,9.122
		c0.063,3.26,0.933,5.77,2.586,7.46c1.142,1.166,2.751,2.004,4.654,2.422c0.851,0.188,1.734,0.282,2.626,0.282
		c3.643,0,7.23-1.58,9.6-4.225C54.118,60.352,55.13,55.413,53.68,51.134z M39.2,66.195c-1.617-0.355-2.968-1.049-3.904-2.006
		c-1.378-1.408-2.104-3.575-2.158-6.44c-0.045-2.363,0.347-5.688,2.469-8.103c1.757-1.999,4.635-3.146,7.897-3.146
		c0.817,0,1.643,0.072,2.451,0.214c2.231,0.392,3.896,1.201,4.948,2.405c0.563,0.645,1.007,1.461,1.357,2.494
		c1.258,3.718,0.345,8.18-2.274,11.103c-2.089,2.333-5.261,3.726-8.482,3.726C40.72,66.442,39.945,66.359,39.2,66.195z"/>
	<path fill="#1C1C1B" d="M71.493,89.305c0.365-0.026,0.607-0.606,0.622-1.128c0.005-0.173,0-0.349-0.005-0.527
		c-0.017-0.582-0.036-1.242,0.291-1.838c0.41-0.749,1.181-1.084,1.86-1.379c0.138-0.06,0.275-0.119,0.407-0.182
		c2.123-1.004,3.603-3.415,3.773-6.142c0.143-2.281-0.547-4.779-2.051-7.428c-0.823-1.449-2.557-3.88-4.926-3.88
		c-0.791,0.007-1.523,0.257-2.401,0.583c-4.102,1.521-8.181,3.25-12.125,5.142c-1.135,0.544-2.122,1.066-2.714,1.938
		c-0.599,0.882-0.672,2.017-0.627,2.812c0.18,3.221,2.305,6.142,4.012,8.489c0.629,0.867,1.343,1.849,2.32,2.346
		c0.556,0.282,1.205,0.42,1.984,0.42c0.876,0,1.828-0.173,2.749-0.34c0.95-0.172,1.932-0.35,2.87-0.35
		c1.141,0,2.072,0.269,2.849,0.822c0.094,0.066,0.186,0.139,0.28,0.211c0.288,0.222,0.56,0.433,0.798,0.433v0.509l0.001,0
		L71.493,89.305z"/>
	<path d="M71.262,66.219c-0.961,0.009-1.875,0.349-2.609,0.621c-3.961,1.469-7.9,3.139-11.71,4.965
		c-1.176,0.565-2.29,1.158-2.996,2.199c-0.579,0.853-0.847,1.998-0.772,3.314c0.189,3.381,2.322,6.313,4.036,8.67
		c0.637,0.876,1.429,1.967,2.58,2.552c0.677,0.345,1.447,0.512,2.355,0.512c0.93,0,1.888-0.174,2.814-0.342
		c0.907-0.164,1.764-0.32,2.573-0.32c0.891,0,1.574,0.191,2.151,0.603c0.079,0.057,0.158,0.117,0.237,0.179
		c0.378,0.292,0.808,0.624,1.376,0.624l0.105-0.004c0.962-0.072,1.493-1.086,1.522-2.05c0.005-0.186,0-0.374-0.005-0.563
		c-0.014-0.473-0.027-0.919,0.156-1.253c0.229-0.417,0.752-0.645,1.305-0.886c0.143-0.062,0.283-0.123,0.42-0.188
		c2.359-1.117,4.003-3.759,4.188-6.73c0.149-2.384-0.556-4.967-2.096-7.678C75.347,67.72,73.361,66.219,71.262,66.219z
		 M71.299,89.284v-0.488c-0.228,0-0.488-0.202-0.765-0.415c-0.09-0.069-0.179-0.139-0.269-0.202
		c-0.745-0.53-1.638-0.788-2.731-0.788c-0.899,0-1.841,0.171-2.752,0.336c-0.883,0.16-1.796,0.326-2.636,0.326
		c-0.747,0-1.369-0.132-1.902-0.402c-0.938-0.477-1.621-1.418-2.225-2.249c-1.637-2.25-3.674-5.051-3.847-8.139
		c-0.043-0.763,0.027-1.851,0.602-2.696c0.567-0.836,1.514-1.337,2.602-1.858c3.781-1.813,7.692-3.472,11.625-4.93
		c0.842-0.313,1.543-0.552,2.302-0.559c2.271,0,3.934,2.33,4.723,3.72c1.442,2.539,2.104,4.935,1.967,7.121
		c-0.163,2.614-1.582,4.926-3.617,5.889c-0.127,0.061-0.259,0.117-0.391,0.175c-0.651,0.283-1.39,0.604-1.783,1.322
		c-0.313,0.571-0.296,1.204-0.279,1.762c0.005,0.17,0.01,0.339,0.005,0.505c-0.015,0.5-0.247,1.056-0.597,1.081L71.299,89.284v0.012
		V89.284z"/>
	<path fill="#FFFFFF" d="M71.604,69.654c-0.18-0.504-0.745-0.786-1.279-0.8c-0.535-0.014-1.049,0.185-1.547,0.38
		c-1.614,0.634-3.34,1.359-4.241,2.84c0.179,0.488,0.84,0.548,1.356,0.489c1.251-0.142,2.472-0.477,3.686-0.811
		c0.53-0.146,1.076-0.3,1.503-0.645C71.51,70.763,71.789,70.172,71.604,69.654z"/>
	<path fill="#4A321A" d="M50.524,84.614c-0.513,0.738-0.812,1.623-0.852,2.521c-0.042,0.937,0.513,2.12,1.442,1.993
		c0.197-0.027,0.384-0.117,0.529-0.252c0.248-0.233,0.355-0.577,0.414-0.912c0.207-1.172-0.077-2.423-0.771-3.39
		C51.032,84.587,50.778,84.6,50.524,84.614z"/>
	<path fill="#E31317" d="M70.224,119.407c-0.129-4.875-1.655-9.188-4.296-12.144c-2.718-3.042-7.02-4.637-10.646-3.951
		c-0.02,0.031-0.033,0.065-0.054,0.096c-0.107,0.16-0.249,0.283-0.41,0.366l-2.029,5.803c2.465,0.791,4.151,1.704,5.367,4.282
		c0.955,2.025,1.275,4.443,1.091,7.016c2.043-0.624,4.785-0.72,6.474-0.72c0.061,0,0.122,0.004,0.183,0.005
		c0.873-0.084,1.745-0.162,2.61-0.237l1.704-0.146C70.225,119.676,70.228,119.558,70.224,119.407z"/>
	<path fill="#4A321A" d="M62.042,36.101c0.238-0.114,0.34-0.389,0.453-0.627c0.642-1.348,2.26-2.026,3.75-1.927
		s2.861,0.84,4.081,1.701c0.125-0.265-0.052-0.57-0.236-0.797c-1.078-1.333-2.707-2.206-4.413-2.367
		c-0.987-0.093-2.016,0.052-2.876,0.545s-1.53,1.36-1.656,2.344c-0.038,0.293-0.023,0.608,0.136,0.856
		C61.439,36.078,61.776,36.229,62.042,36.101z"/>
	<path fill="#4A321A" d="M33.573,38.399c0.72-0.496,1.622-0.674,2.495-0.649c0.874,0.025,1.73,0.24,2.572,0.473
		c0.118,0.033,0.243,0.065,0.361,0.031s0.214-0.167,0.166-0.279c-0.028-0.065-0.093-0.104-0.155-0.139
		c-1.11-0.626-2.291-1.239-3.565-1.261c-1.15-0.02-2.278,0.461-3.154,1.207c-0.877,0.745-1.517,1.74-1.966,2.799
		c-0.159,0.374-0.253,0.898,0.092,1.112c0.384,0.238,0.838-0.179,1.079-0.561C32.111,40.156,32.623,39.054,33.573,38.399z"/>
	<path fill="#1C1C1B" d="M76.013,52.385c-0.127-0.643-0.417-1.298-0.864-1.948c-0.939-1.37-2.325-2.328-3.801-2.627
		c-0.322-0.066-0.655-0.099-0.989-0.099c-1.266,0-2.462,0.467-3.283,1.282c-1.265,1.256-1.578,3.178-1.618,4.57
		c-0.019,0.629-0.001,1.438,0.306,2.128c0.234,0.526,0.652,1.023,1.242,1.477c1.006,0.776,2.253,1.254,3.607,1.38
		c0.959,0.094,1.891-0.039,2.573-0.406c0.378-0.206,0.758-0.517,1.161-0.95C75.694,55.739,76.318,53.943,76.013,52.385z"/>
	<path d="M75.53,50.177c-0.985-1.437-2.452-2.444-4.024-2.764c-1.699-0.345-3.563,0.176-4.725,1.329
		c-1.08,1.072-1.683,2.721-1.742,4.767c-0.02,0.668,0.003,1.537,0.359,2.339c0.277,0.624,0.753,1.198,1.414,1.707
		c1.05,0.81,2.344,1.307,3.742,1.438c0.212,0.02,0.427,0.03,0.642,0.03c0.851,0,1.601-0.172,2.229-0.511
		c0.437-0.237,0.86-0.58,1.295-1.049c1.424-1.532,2.074-3.466,1.739-5.171C76.319,51.583,76.007,50.871,75.53,50.177z
		 M70.648,57.997c-1.211-0.113-2.326-0.54-3.226-1.234c-0.527-0.406-0.901-0.851-1.11-1.321c-0.274-0.617-0.29-1.341-0.273-1.903
		c0.036-1.245,0.316-2.964,1.447-4.087c0.733-0.729,1.804-1.146,2.936-1.146c0.299,0,0.597,0.03,0.885,0.089
		c1.32,0.268,2.56,1.124,3.399,2.35c0.399,0.581,0.659,1.167,0.772,1.742c0.272,1.393-0.285,2.999-1.491,4.299
		c-0.36,0.388-0.7,0.665-1.038,0.85C72.34,57.962,71.506,58.081,70.648,57.997z"/>
	<path fill="#1C1C1B" d="M47.853,59.524c-0.041-0.772-0.2-1.389-0.486-1.886c-0.504-0.871-1.468-1.461-2.318-1.984
		c-0.939-0.575-1.935-1.138-2.889-1.138c-0.178,0-0.352,0.02-0.519,0.059c-0.359,0.086-0.73,0.272-1.205,0.605
		c-1.945,1.367-3.174,3.502-3.209,5.569c-0.038,2.233,1.469,4.388,3.432,4.905c0.395,0.104,0.837,0.157,1.312,0.157l0.236-0.004
		c1.329-0.045,2.573-0.47,3.502-1.194C47.137,63.499,47.959,61.549,47.853,59.524z"/>
	<path d="M45.255,55.258c-0.957-0.587-1.983-1.16-3.093-1.16c-0.236,0-0.469,0.027-0.692,0.08c-0.575,0.137-1.059,0.441-1.415,0.692
		c-1.987,1.396-3.244,3.602-3.28,5.754c-0.043,2.467,1.59,4.765,3.798,5.347c0.435,0.114,0.912,0.173,1.422,0.173l0.245-0.004
		c1.39-0.048,2.702-0.5,3.694-1.272c1.524-1.188,2.401-3.245,2.29-5.367c-0.044-0.848-0.229-1.543-0.565-2.126
		C47.083,56.38,46.069,55.758,45.255,55.258z M41.994,65.143c-0.423,0-0.815-0.047-1.167-0.14c-1.746-0.46-3.087-2.376-3.053-4.362
		c0.031-1.839,1.125-3.737,2.854-4.953c0.422-0.296,0.752-0.462,1.071-0.538c0.148-0.035,0.304-0.053,0.462-0.053
		c0.849,0,1.734,0.5,2.569,1.012c0.756,0.465,1.613,0.99,2.062,1.765c0.255,0.442,0.396,0.991,0.433,1.678
		c0.095,1.802-0.637,3.536-1.907,4.526c-0.826,0.644-1.933,1.021-3.114,1.062L41.994,65.143z"/>
	<path fill="#FFFFFF" d="M72.716,53.941c-0.315-0.476-0.937-0.715-1.498-0.608c-0.561,0.107-1.04,0.534-1.248,1.066
		c-0.09,0.231-0.133,0.481-0.125,0.729c0.004,0.137,0.025,0.277,0.095,0.395c0.085,0.145,0.233,0.241,0.379,0.324
		c0.371,0.21,0.779,0.374,1.205,0.385c0.426,0.011,0.871-0.152,1.126-0.493c0.126-0.169,0.2-0.372,0.246-0.579
		c0.058-0.264,0.071-0.542,0.004-0.804C72.863,54.209,72.8,54.068,72.716,53.941z"/>
	<path fill="#FFFFFF" d="M43.793,60.675c-0.501-0.255-1.167-0.178-1.558,0.226c-0.158,0.164-0.268,0.37-0.342,0.586
		c-0.219,0.637-0.112,1.405,0.359,1.887s1.317,0.585,1.831,0.15c0.11-0.093,0.202-0.205,0.28-0.325
		c0.221-0.342,0.326-0.756,0.295-1.162C44.616,61.476,44.294,60.93,43.793,60.675z"/>
	<path fill="#7B5632" d="M84.184,29.109c0.623,5.356,0.739,8.813,0.649,13.705c-0.017,0.897,0.493,1.987,0.484,2.881
		c-0.005,0.49,0.007,0.989,0.198,1.223c0.134,0.163,0.431,0.288,0.703,0.39c1.341,0.496,4.501,1.541,6.132,1.541
		c2.247,0,5.131-0.545,8.386-1.54c2.032-0.621,4.264-2.828,5.011-4.597c0.57-1.353-0.618-3.477-1.079-5.216
		c-2.875-10.852-5.493-22.17-11.603-32.153c-0.917-1.499-2.853-3.493-4.419-4.552c-0.768-0.519-2.863-0.706-3.574-0.726
		c-0.001,0-1.932,0.726-1.933,0.726c-1.296,0-0.782,0.439-1.92,1.217c-5.139,3.512-9.318,8.37-12.696,13.602
		c0.707,1.311,0.466,2.938,0,4.358c-0.244,0.742-0.749,1.414-1.279,1.986c1.724,0.501,4.602,2.694,6.24,3.985
		c1.854,1.461,3.172,2.945,4.65,4.705c1.291-1.084,2.862-2.157,4.475-2.64C84.043,28.717,84.17,28.99,84.184,29.109z"/>
	<path fill="#5C3F22" d="M101.248,46.501c1.572-0.481,3.421-1.5,2.413-2.548c-0.737-0.06-1.477,0.111-2.2,0.28
		c-2.14,0.501-4.347,0.916-6.526,0.625c-2.178-0.291-4.35-1.396-5.43-3.31c-1.016-1.8-0.935-3.985-1.074-6.048
		c-0.416-6.135-3.017-11.992-3.186-18.138c-0.064-2.33,0.223-4.68-0.141-6.983c-0.158-1-0.532-2.098-1.448-2.53
		c-1.122-0.528-2.498,0.28-3.064,1.382c-0.567,1.103-0.557,2.398-0.608,3.637c-0.193,4.738-1.687,9.693-5.169,12.838
		c0,1.869,2.175,3.573,3.321,4.937c1.291-1.084,2.862-2.157,4.475-2.64c1.253,0.347,1.624,0.669,1.653,0.785
		c1.227,4.859,0.66,9.134,0.57,14.026c-0.017,0.897,0.493,2.626,0.484,3.52c-0.005,0.49,0.007,0.989,0.198,1.223
		c0.134,0.163,0.431,0.288,0.703,0.39c1.341,0.496,5.626,0.359,7.257,0.359C95.723,48.304,97.993,47.495,101.248,46.501z"/>
	<path fill="#62B594" d="M80.112,63.336c1.296-1.273,3.813-3.188,4.961-4.758c1.114-1.526,2.205-3.461,3.574-4.84l0.734-0.594
		c0.117-0.118,0.443-1.174,0.549-1.287c-2.234-0.838-5.907-1.822-7.977-3.01C81.147,52.909,80.072,59.198,80.112,63.336z"/>
	<path fill="#4C331B" d="M81.311,47.161c-0.073,0.013-0.147,0.006-0.217,0.036c-0.299,0.126-0.518,0.388-0.588,0.704
		c-0.088,0.397-0.165,0.797-0.245,1.196c-0.325,1.611-0.595,3.232-0.792,4.862c-0.127,1.052-0.219,2.107-0.292,3.164
		c-0.163,2.35-0.201,4.709-0.097,7.066c0.007,0.163,0.06,0.315,0.138,0.451c0.099,0.172,0.243,0.317,0.429,0.406
		c0.138,0.066,0.285,0.099,0.433,0.099c0.208,0,0.416-0.065,0.59-0.192c0.189-0.138,0.368-0.287,0.549-0.433
		c1.989-1.608,3.501-3.664,4.962-5.664c1.07-1.466,2.177-2.982,3.439-4.254l0.103-0.103c0.223-0.224,0.467-0.477,0.694-0.76
		c0.291-0.363,0.551-0.779,0.68-1.285c0.053-0.206,0.023-0.41-0.048-0.596c-0.102-0.269-0.305-0.497-0.596-0.598
		c-2.803-0.962-5.502-2.232-8.041-3.759c-0.133-0.08-0.271-0.152-0.404-0.234C81.797,47.135,81.55,47.118,81.311,47.161z
		 M88.308,53.084l-0.107,0.107c-1.369,1.379-2.521,2.957-3.636,4.483c-1.147,1.57-2.247,3.077-3.543,4.351
		c-0.04-4.138,0.346-8.272,1.151-12.334c2.07,1.188,4.239,2.208,6.474,3.046C88.541,52.85,88.425,52.966,88.308,53.084z"/>
	<path fill="#F2EEE9" d="M58.038,115.509c-0.537-2.097-1.589-3.773-2.964-4.719c-0.476-0.327-1.012-0.588-1.581-0.864
		c-0.235-0.114-0.471-0.229-0.704-0.349c-1.968,1.402-4.243,2.133-6.449,2.844c-0.379,0.122-0.757,0.244-1.132,0.369
		c-3.66,1.216-6.442,2.569-8.757,4.257c-2.402,1.751-4.254,3.883-5.431,6.217c0.104,0.059,0.209,0.118,0.312,0.177
		c2.877,1.644,5.594,3.196,8.731,3.681c3.906,0.605,8.129,0.048,12.232-1.589c0.292-0.975,0.898-1.879,1.733-2.62
		c0.329-0.576,0.873-0.832,1.145-0.953c1.11-0.493,2.242-0.89,3.387-1.215C58.55,118.931,58.462,117.168,58.038,115.509z"/>
	<path fill="#E31317" d="M43.667,135.472c0.228,0.012,0.779-0.182,1.023-0.136c3.004-0.574,5.314-2.634,7.86-4.191l-0.05-4.201
		c-4.041,1.349-8.192,1.766-12.065,1.191c-3.517-0.52-6.534-2.174-9.451-3.773c-0.084-0.047-0.169-0.092-0.253-0.139
		c-0.022,0.055-0.044,0.111-0.064,0.167c-0.527,1.358-1.125,2.897-1.166,4.127c-0.029,0.9-0.294,1.933-0.004,2.66
		c0.589,0.995,1.306,2.355,2.477,3.011c1.211,0.539,3.123,0.926,4.45,1.216c1.296,0.216,2.683,0.679,3.961,0.728
		c0.228,0.009,0.566-0.257,0.794-0.251c0.054-0.012-0.055,0.012,0,0C41.891,135.722,42.818,135.433,43.667,135.472z"/>
	<path fill="#4C331B" d="M34.009,134.185c0.759,0.282,1.55,0.456,2.348,0.589c-1.251-0.273-2.462-0.664-3.603-1.172
		C33.147,133.822,33.564,134.02,34.009,134.185z"/>
	<path fill="#4C331B" d="M53.338,150.674c0.024-0.018,0.052-0.03,0.075-0.048c0.104-0.079,0.379-0.308,0.504-0.702
		c-0.002,0.002-0.004,0.004-0.006,0.006C53.773,150.195,53.583,150.447,53.338,150.674z"/>
	<path fill="#4C331B" d="M49.844,151.942c-0.084,0.012-0.167,0.026-0.251,0.034c0.151-0.01,0.304-0.015,0.451-0.033
		c0.01-0.005,0.019-0.01,0.029-0.014C49.998,151.937,49.92,151.937,49.844,151.942z"/>
	<path fill="#4C331B" d="M44.373,150.845c-0.456-0.187-0.958-0.412-1.4-0.764c-0.875-0.458-1.724-0.965-2.544-1.517
		c0.634,0.571,1.367,1.035,2.115,1.439c1.464,0.791,3.225,1.637,5.178,1.92c0.061,0.009,0.123,0.006,0.184,0.013
		c-0.723-0.109-1.395-0.319-1.99-0.54C45.418,151.242,44.907,151.065,44.373,150.845z"/>
	<path fill="#4C331B" d="M49.014,152.018c0.088,0,0.169-0.016,0.256-0.018c-0.104,0.006-0.208,0.013-0.312,0.014
		C48.977,152.014,48.996,152.018,49.014,152.018z"/>
	<path fill="#F2EEE9" d="M53.916,138.342c-0.546-1.58-1.546-3.707-1.762-5.392c-1.706,1.021-4.919,2.197-6.883,2.864
		c0.309,1.968,0.966,4.342,2.182,6.136c1.317,1.945,3.086,4.422,4.701,6.136l2.334-0.409c0.003,0.003,0.53-0.989,0.533-0.985
		c0.395-0.655,0.262-1.013,0.39-1.785C55.771,142.721,54.717,140.657,53.916,138.342z"/>
	<path fill="#F2EEE9" d="M39.315,139.448c-0.382-1.096-0.675-1.944-0.779-3.168c-1.847-0.139-3.804-0.42-5.652-1.106
		c-0.735-0.273-1.428-0.603-2.069-0.986c0.235,0.403-0.251,1.219,0,1.625c1.797,2.898,3.906,5.925,6.341,8.459
		c1.31,1.364,3.39,2.187,4.951,3.27L39.315,139.448z"/>
	<path fill="#4C331B" d="M49.309,151.971c-1.048,0-2.171-0.195-3.393-0.575c0.595,0.222,1.267,0.431,1.99,0.54
		c0.068,0.01,0.133,0.026,0.201,0.034c0.261,0.031,0.522,0.046,0.783,0.046c0.023,0,0.045-0.003,0.068-0.003
		c0.104-0.001,0.208-0.008,0.312-0.014c0.108-0.006,0.216-0.012,0.324-0.023c0.084-0.009,0.167-0.022,0.251-0.034
		C49.667,151.954,49.492,151.971,49.309,151.971z"/>
	<path fill="#A07A53" d="M59.699,168.282c0.104,0.185,0.798,0.477,1.19,0.11l0.25-0.24c0.399-0.39,0.854-0.831,1.473-1.11
		c0.653-0.296,2.079-0.92,2.599-0.92c0.176,0,0.351,0.005,0.524,0.01c0.428,0.013,0.859,0.023,1.29,0.023
		c0.986,0,2.265-0.053,3.413-0.462c1.446-0.518,2.698-1.591,3.836-2.674c1.594-1.518,3.293-4.047,3.706-6.284
		c0.425-2.308-0.534-4.588-1.549-7.003c-0.6-1.427-1.221-2.903-1.57-4.44c-0.374-1.647-0.431-3.496-0.477-5.114l-0.58-15.682
		c-0.033-1.207-0.207-2.924-0.102-4.17l-5.932,0.549c-4.217,0.365-9.156,0.832-13.057,2.495c-0.031,0.013,0.027,2.352,0.239,3.245
		c1.748,7.334,3.3,13.952,3.914,21.471c0.043,0.53,0.158,1.94-0.907,2.686c-0.503,0.354-1.059,0.396-1.465,0.429
		c-2.907,0.233-6.652,2.151-8.881,4.557c-1.368,1.478-2.042,3.554-1.801,5.555c0.135,1.129,0.838,2.328,1.681,2.387
		c0.227,1.231,1.797,2.807,1.622,2.901c0.038,0.356,0.229,0.741,0.508,0.987c0.631,0.554,1.604,0.76,2.469,0.909
		c2.285,0.399,3.878,0.302,5.044-0.273C58.19,168.451,59.241,167.945,59.699,168.282z"/>
	<path fill="#A07A53" d="M144.152,169.299c0.787,0.822,2.561,0.743,3.656,0.409c1.106-0.337,2.019-1.368,2.217-2.51
		c0.105-0.605,0.355-1.988,0.13-2.934c-0.379-1.603-1.022-3.117-1.912-4.502c-0.153-0.238,0.206-0.168,0.28-0.441
		c0.074-0.273,0.261-0.502,0.513-0.63c1.607-0.815,2.761-1.678,3.352-3.004c0.156-0.352,0.258-0.758,0.364-1.187
		c0.089-0.354,0.179-0.71,0.298-1.055c0.888-2.568,3.399-4.099,5.412-5.551l0.387-0.279c1.77-1.284,3.823-3.042,3.994-5.251
		c0.17-2.196-2.173-5.186-4.168-7.327c-7.287-7.815-13.648-16.428-18.835-25.775c-0.623-1.122-1.257-2.146-2.156-2.35
		c-0.578-0.133-1.313,0.104-2.14,0.412l-7.167,2.777l4.229,6.852c1.915,3.103,3.456,6.482,5.884,9.238
		c0.354,0.401,0.719,0.795,1.082,1.188c0.811,0.875,1.647,1.78,2.379,2.782c2.447,3.354,4.169,7.569,3.864,12.112
		c-0.266,3.951-1.062,6.75-3.452,10.611c-0.159,0.257-0.426,0.428-0.725,0.466c-0.298,0.033-0.601-0.062-0.817-0.271
		c-1.417-1.356-3.152-1.525-5.285-1.525c-1.779,0-3.479,0.545-4.786,1.536c-3,2.274-4.658,8.032-2.884,11.354
		c0.91,1.703,2.432,2.86,3.97,3.018c0.529,0.059,1.801,0.299,2.243-0.055c-0.201-0.894,1.585,0.518,1.534,0.639
		c-0.184,0.438,0.786,1.1,1.26,1.554c0.565,0.542,1.405,0.85,2.217,1.118c0.804,0.267,1.789,0.534,2.517,0.357
		c0.333-0.08,0.62-0.297,0.8-0.542C142.192,170.218,144.031,169.173,144.152,169.299z"/>
	<path fill="#4C331B" d="M136.219,166.528c0.039,0.103,0.055,0.208,0.059,0.312C136.273,166.732,136.257,166.627,136.219,166.528z"
		/>
	<path fill="#E31317" d="M53.413,149.523c-0.027-0.016-0.204-0.194-0.291-0.279l-0.231-0.231c-1.996-1.987-4.06-4.042-5.742-6.372
		c-1.547-2.142-1.974-4.103-2.459-6.508c-0.351-0.014-1.415-0.099-1.719-0.155c-0.215-0.039-0.43-0.082-0.633-0.092l-0.186-0.004
		c-0.569,0-1.15,0.122-1.766,0.251c-0.405,0.085-0.818,0.172-1.251,0.231c0.106,0.662,0.312,1.214,0.622,2.045l3.412,9.28
		c0.158,0.43,0.321,0.875,0.573,1.146c0.279,0.299,0.783,0.51,1.277,0.701c3.285,1.264,5.912,1.433,7.796,0.488
		C53.187,149.837,53.391,149.602,53.413,149.523z"/>
	<path fill="#4C331B" d="M220.094,121.53c-0.092-0.396-0.416-0.698-0.818-0.762c-3.944-0.625-7.353-1.772-10.13-3.411
		c-4.35-2.566-8.119-6.841-11.523-13.068c-1.438-2.629-2.724-5.41-3.968-8.101c-1.257-2.72-2.558-5.532-4.026-8.22
		c-3.731-6.826-10.304-14.686-17.168-20.532c-2.522-3.846-5.647-7.054-9.234-9.366c-5.525-3.562-12.63-5.444-21.116-5.597
		c-5.452-0.091-10.974,0.494-16.298,1.066c-1.771,0.19-3.543,0.381-5.315,0.547c-3.865,0.364-7.323,0.54-10.571,0.54
		c-7.264,0-13.513-0.915-18.878-2.77c-0.743-0.171-0.767,0.236-0.82,0.442c-0.129,0.506-0.298,1.009,0.188,1.439
		c5.574,1.925,12.025,2.889,19.51,2.889c3.311,0,6.83-0.179,10.759-0.548c1.78-0.168,3.561-0.359,5.342-0.551
		c5.264-0.565,10.695-1.158,16.049-1.055c8.107,0.146,14.859,1.921,20.067,5.278c3.394,2.187,6.35,5.24,8.734,8.911
		c2.795,7.463,7.147,21.834,5.445,35.429c-0.107,0.854-0.212,1.815,0.13,2.763c-0.169,1.219-0.346,2.402-0.527,3.53l-0.143,0.89
		c-1.278,7.95-2.728,16.961,1.627,24.118c0.549,0.902,1.179,1.751,1.788,2.571c1.019,1.373,1.981,2.67,2.551,4.15
		c1.266,3.289,0.408,7.051-0.42,10.688c-0.181,0.794-0.36,1.584-0.52,2.366c-0.946,4.666-1.104,9.301-0.472,13.776l0.134,0.901
		c0.306,2.014,0.595,3.916-0.051,5.594c-0.234,0.609-0.596,1.188-0.979,1.802c-0.337,0.539-0.686,1.097-0.968,1.711
		c-0.313,0.682-0.521,1.38-0.722,2.055c-0.179,0.603-0.348,1.172-0.581,1.701c-0.96,2.178-3.472,3.642-6.25,3.642
		c-1.915,0-3.64-0.72-4.733-1.976c-0.026-0.03-0.064-0.043-0.094-0.07c-0.808-1.428-1.142-3.115-0.916-4.745
		c0.265-1.898,1.279-3.669,2.783-4.858c0.434-0.342,0.507-0.971,0.164-1.404c-0.342-0.433-0.97-0.508-1.404-0.164
		c-1.904,1.505-3.188,3.747-3.523,6.151c-0.245,1.766,0.03,3.586,0.755,5.208c-0.641,0.202-1.298,0.342-1.933,0.252
		c-0.707-0.101-1.488-0.704-1.437-1.333c0.012-0.138-0.013-0.271-0.056-0.398c-0.111-2.133-0.186-4.31,0.077-6.418
		c0.329-2.632,1.147-4.805,2.434-6.457c0.339-0.436,0.261-1.064-0.175-1.403c-0.436-0.341-1.063-0.262-1.403,0.175
		c-1.511,1.94-2.466,4.443-2.84,7.438c-0.265,2.124-0.214,4.249-0.112,6.33c-0.658,0.215-1.359,0.325-2.093,0.325
		c-2.83,0-5.592-1.657-6.714-4.03c-1.586-3.352,0.006-7.884,3.34-9.507c0.82-0.399,1.731-0.655,2.696-0.926
		c1.623-0.456,3.301-0.927,4.647-2.14c1.335-1.204,2.034-2.916,2.596-4.291c1.214-2.97,2.469-6.04,2.783-9.381
		c0.348-3.71-0.474-7.211-1.961-10.61c0.183-3.195-2.228-5.789-3.998-7.688c-0.552-0.592-1.087-1.198-1.627-1.8
		c-0.383-0.543-0.769-1.087-1.161-1.63l-15.068-20.898c-0.218-0.383-0.445-0.76-0.659-1.145c-0.614-1.107-1.537-2.741-3.226-3.251
		c-0.081-0.024-0.154-0.06-0.239-0.079c0,0-0.001,0-0.001,0c-0.445-0.168-0.917-0.274-1.428-0.274c-1.291,0-2.551,0.517-3.731,1.045
		c-13.782,6.181-29.642,8.535-44.665,6.67c3.016-5.128,3.797-10.789,2.236-16.493c-0.146-0.533-0.699-0.84-1.229-0.701
		c-0.533,0.146-0.847,0.696-0.701,1.229c1.543,5.636,0.559,11.234-2.832,16.217c-0.007,0.011-0.017,0.018-0.024,0.029
		c-2.333,3.883-7.621,4.913-12.988,5.448c-0.386,0.039-0.768,0.074-1.153,0.111c-0.001-0.031-0.001-0.067-0.002-0.094
		c-0.13-4.88-1.682-9.234-4.371-12.26c-2.457-2.766-5.996-4.416-9.466-4.416c-0.34,0-0.674,0.038-1.008,0.07
		c0.028-0.515-0.001-1.003-0.027-1.404l-0.188-2.869c-0.036-0.55-0.494-0.962-1.063-0.933c-0.551,0.036-0.969,0.512-0.933,1.063
		l0.188,2.87c0.043,0.644,0.056,1.226-0.048,1.713c-0.204,0.111-0.379,0.269-0.467,0.488l-0.946,2.381
		c-0.223-1.977-0.98-3.873-1.732-5.722c-0.405-0.996-0.825-2.027-1.135-3.028c-0.042-0.134-0.073-0.272-0.112-0.408
		c2.24,0.416,4.401,0.54,6.221,0.588c0.604,0.016,1.208,0.023,1.813,0.023c4.356,0,8.84-0.409,13.325-1.215
		c4.099-0.737,9.868-2.246,12.637-6.827c1.835-3.036,2.122-7.155,0.832-11.912c-0.423-1.563-0.967-3.099-1.492-4.585
		c-0.757-2.142-1.473-4.164-1.877-6.293c-0.102-0.536-0.18-1.076-0.242-1.618c0.214-0.662,0.282-1.32,0.093-1.182
		c-0.174,0.127-0.591,0.162-0.799,0.162c-0.147,0-0.553,0.424-0.69,0.358c-0.185-0.089-0.384,0.153-0.604,0.782
		c0.069,0.625,0.159,1.249,0.277,1.871c0.433,2.279,1.207,4.469,1.956,6.587c0.514,1.451,1.044,2.951,1.448,4.441
		c0.797,2.94,1.338,7.124-0.613,10.354c-2.35,3.887-7.563,5.225-11.279,5.893c-4.974,0.895-9.903,1.291-14.731,1.16
		c-2.815-0.072-6.479-0.327-9.849-1.656c-3.311-1.305-5.843-3.492-7.131-6.157c-0.675-1.398-1.02-2.928-1.353-4.54
		c0.421-1.041,0.382-2.448-0.144-4.093c-1.348-4.218-3.143-8.372-4.879-12.39c-3.242-7.502-6.595-15.26-6.945-23.405
		c-0.332-7.73,2.2-15.667,6.947-21.775c0.104-0.134,0.168-0.29,0.195-0.453c3.57-2.882,7.903-4.829,12.44-5.508
		c0.545-0.082,1.291-0.193,1.845-0.772c0.365-0.38,0.514-0.822,0.649-1.226c0.859-2.541,2.554-4.774,4.77-6.288
		c0.451-0.309,1.039-0.663,1.638-0.663c0.001,0,0.002,0,0.003,0c0.156,0.007,0.634,0.025,1.028,0.675
		c0.496,0.818,0.545,2.126,0.113,3.042c-0.424,0.899-1.089,1.692-1.792,2.531c-0.708,0.845-1.44,1.718-1.972,2.763
		c-0.229,0.451-0.085,1.003,0.335,1.284c0.424,0.283,0.987,0.203,1.315-0.18c1.747-2.035,4.268-3.457,6.913-3.901
		c0.241-0.04,0.493-0.061,0.748-0.061c0.742,0,2.03,0.217,2.15,1.032c0.104,0.709-0.746,1.484-1.498,2.081l-5.215,4.141
		c-0.413,0.327-0.501,0.918-0.202,1.351c0.298,0.433,0.88,0.561,1.335,0.292c2.154-1.283,4.383-2.507,6.624-3.637
		c0.894-0.452,2.359-1.031,3.138-0.554c0.115,0.071,0.208,0.166,0.291,0.271c0.237,0.708,0.268,1.488,0.034,2.2
		c-0.052,0.158-0.137,0.301-0.211,0.449c-0.417,0.829-1.151,1.496-2.039,1.777c-0.01,0.003-0.018,0.011-0.028,0.015
		c-0.134,0.047-0.247,0.125-0.346,0.218c-0.116,0.072-0.233,0.143-0.347,0.213c-0.4,0.245-0.577,0.735-0.424,1.179
		c0.152,0.445,0.6,0.724,1.061,0.668c2.288-0.267,4.477,1.163,6.518,2.713c2.448,1.858,4.367,3.523,5.771,5.61
		c2.664,3.958,3.017,9.042,2.789,13.305c-0.296,0.625-0.342,1.065-0.142,1.645c0.239-0.043,1.245,0.784,1.457,0.915
		c0.132,0.082,0.486-0.051,0.544-0.555c0.436-4.787,0.405-11.118-2.807-16.13c1.105-0.976,2.417-1.732,3.826-2.164
		c0.923,4.316,0.839,8.883,0.758,13.308c-0.017,0.903-0.033,1.806-0.042,2.706c-0.006,0.634-0.016,1.695,0.651,2.509
		c0.437,0.532,1.031,0.803,1.555,0.997c1.546,0.572,3.267,0.863,5.112,0.863c2.453,0,5.087-0.471,8.539-1.526
		c2.475-0.756,5.147-1.87,6.215-4.397c0.817-1.934,0.389-3.967-0.164-6.054c-2.913-10.994-6.28-22.583-12.53-32.797
		c-1.102-1.801-2.37-3.636-4.178-4.858c-1.099-0.742-2.216-1.134-3.322-1.167L85.88-1.211c-1.752,0-3.293,0.887-4.697,1.847
		c-5.431,3.713-10.154,8.602-13.691,14.15c-0.874-0.172-1.85-0.041-2.713,0.271c0.378-0.605,0.621-1.326,0.502-2.144
		c-0.244-1.666-1.865-2.742-4.129-2.742c-0.365,0-0.729,0.029-1.079,0.088c-1,0.168-1.984,0.455-2.928,0.847
		c0.095-0.168,0.185-0.341,0.268-0.518c0.716-1.52,0.629-3.548-0.212-4.933c-0.614-1.012-1.559-1.593-2.659-1.636
		c-0.014-0.001-0.117-0.003-0.13-0.003c-1.097,0-2.029,0.542-2.719,1.013c-2.571,1.757-4.537,4.349-5.553,7.351
		c-0.05,0.148-0.125,0.372-0.181,0.43c-0.083,0.087-0.468,0.145-0.697,0.179c-4.768,0.713-9.327,2.726-13.118,5.705
		c-0.566-0.445-1.309-0.72-2.125-0.727c-1.07,0-2.045,0.421-2.938,0.875c-9.645,4.905-15.749,14.272-19.99,21.886
		c-2.018,3.622-4.513,8.441-5.913,13.604c-1.442,5.315-1.561,10.494-0.343,14.977c0.548,2.019,1.3,3.656,2.297,5.009
		c2.032,2.754,5.204,4.381,7.74,5.49c7.058,3.087,14.864,4.719,22.577,4.719c0.343,0,0.688-0.004,1.032-0.01
		c0.585-0.012,1.195-0.054,1.777-0.274c0.293,1.273,0.653,2.547,1.238,3.76c1.508,3.119,4.419,5.658,8.197,7.148
		c0.701,0.277,1.412,0.499,2.122,0.696c0.111,0.51,0.236,1.016,0.389,1.511c0.335,1.083,0.771,2.154,1.192,3.19
		c1.02,2.508,1.982,4.876,1.56,7.268c-0.106,0.595-0.305,1.178-0.546,1.761c-1.402,0.765-2.992,1.256-4.652,1.768
		c-0.363,0.112-0.726,0.225-1.086,0.339c-3.65,1.164-6.447,2.474-8.801,4.12c-2.701,1.889-4.752,4.24-5.993,6.831
		c-0.161,0.118-0.297,0.265-0.365,0.457c-0.133,0.378-0.289,0.779-0.45,1.193c-0.555,1.429-1.183,3.048-1.231,4.549
		c-0.022,0.673,0.046,1.324,0.177,1.944c-0.02,0.089-0.038,0.179-0.032,0.274c0.143,2.3,1.258,4.271,2.488,6.257
		c1.602,2.586,3.39,5.297,5.611,7.608c1.31,1.364,2.775,2.588,4.352,3.648c0.82,0.551,1.67,1.059,2.544,1.517
		c0.442,0.352,0.944,0.577,1.4,0.764c0.535,0.219,1.045,0.397,1.543,0.551c1.222,0.379,2.346,0.575,3.393,0.575
		c0.183,0,0.358-0.018,0.535-0.029c0.076-0.005,0.154-0.005,0.229-0.013c-0.01,0.005-0.019,0.01-0.029,0.014
		c-1.086,0.533-2.113,1.215-2.973,2.144c-1.763,1.902-2.63,4.576-2.32,7.152c0.194,1.613,1.123,3.309,2.561,3.922
		c-0.084,1.071,0.432,2.186,1.198,2.859c0.974,0.855,2.232,1.168,3.447,1.378c1.041,0.181,1.95,0.268,2.779,0.268
		c1.355,0,2.534-0.243,3.521-0.727c0.411,0.432,1.002,0.692,1.594,0.692c1.027-0.003,1.811-0.627,2.311-1.095l0.277-0.268
		c0.31-0.301,0.603-0.586,0.901-0.721c0.242-0.109,0.551-0.156,1.032-0.156c0.155,0,0.312,0.005,0.467,0.01
		c0.447,0.013,0.897,0.023,1.348,0.023c1.147,0,2.647-0.065,4.086-0.579c1.797-0.643,3.245-1.873,4.542-3.108
		c1.826-1.739,3.763-3.896,4.279-6.695c0.533-2.895-0.588-5.562-1.672-8.141c-0.566-1.348-1.152-2.741-1.464-4.108
		c-0.331-1.457-0.374-2.96-0.42-4.557l-0.444-15.73c-0.038-1.336-0.065-2.708,0.1-4.024c4.727-0.666,9.134-1.997,11.607-5.541
		c13.506,1.836,27.701,0.305,40.586-4.283l4.572,7.408c1.958,3.173,3.982,6.454,6.522,9.338c0.364,0.414,0.739,0.819,1.114,1.225
		c0.807,0.871,1.568,1.694,2.231,2.604c2.17,2.975,3.215,6.856,2.941,10.931c-0.221,3.295-1.315,6.742-3.177,10.031
		c-1.682-1.216-3.812-1.896-6.014-1.896c-2.213,0-4.342,0.689-5.995,1.942c-3.749,2.844-4.996,8.533-2.779,12.684
		c1.238,2.318,3.305,3.838,5.529,4.066c0.694,0.068,1.407-0.01,2.016-0.223c0.214,0.588,0.573,1.113,0.984,1.508
		c0.867,0.831,1.989,1.248,2.973,1.573c0.762,0.252,1.653,0.521,2.592,0.521c0.354,0,0.698-0.04,1.021-0.117
		c0.842-0.203,1.652-0.764,2.118-1.524c1.177,0.605,2.641,0.76,3.915,0.374c0.243-0.074,0.478-0.17,0.706-0.28
		c-1.709,2.63-2.137,6.105-0.766,9.004c1.465,3.096,4.89,5.175,8.522,5.175c0.843,0,1.655-0.112,2.429-0.335
		c0.517,1.115,1.714,1.89,2.895,2.058c1.153,0.163,2.293-0.133,3.271-0.475c0.158,0.166,0.356,0.265,0.573,0.296
		c1.426,1.154,3.307,1.804,5.339,1.804c3.613,0,6.785-1.898,8.08-4.835c0.284-0.645,0.479-1.303,0.669-1.938
		c0.188-0.636,0.366-1.236,0.621-1.789c0.229-0.498,0.528-0.979,0.846-1.486c0.417-0.666,0.848-1.355,1.15-2.144
		c0.835-2.171,0.492-4.429,0.161-6.612l-0.131-0.88c-0.602-4.25-0.449-8.657,0.452-13.099c0.155-0.768,0.332-1.542,0.509-2.32
		c0.895-3.931,1.82-7.994,0.337-11.852c-0.668-1.735-1.758-3.203-2.813-4.623c-0.608-0.82-1.184-1.596-1.685-2.419
		c-3.972-6.528-2.645-14.781-1.361-22.762l0.143-0.891c0.083-0.518,0.165-1.048,0.247-1.586
		c10.322,10.72,22.429,17.102,34.168,17.976c0.486,0.036,0.98,0.063,1.473,0.063c1.47,0,2.624-0.229,3.634-0.723
		C219.121,125.6,220.584,123.651,220.094,121.53z M69.31,15.639c3.378-5.232,7.862-9.841,13.001-13.353
		c1.138-0.777,2.357-1.497,3.653-1.497c0.001,0,0.002,0,0.003,0c0.711,0.021,1.492,0.306,2.26,0.824
		c1.566,1.06,2.675,2.746,3.592,4.245c6.109,9.983,9.428,21.413,12.303,32.265c0.461,1.739,0.826,3.411,0.256,4.764
		c-0.747,1.769-2.925,2.643-4.957,3.264c-3.255,0.994-5.708,1.438-7.955,1.438c-1.631,0-3.076-0.242-4.417-0.738
		c-0.272-0.102-0.569-0.227-0.703-0.39c-0.191-0.233-0.203-0.732-0.198-1.223c0.009-0.895,0.024-1.79,0.041-2.688
		c0.09-4.892,0.183-9.95-1.044-14.81c-0.029-0.116-0.08-0.222-0.144-0.316c-1.14-5.464-2.298-11.108-1.547-16.678
		c0.073-0.548-0.311-1.051-0.857-1.125c-0.559-0.069-1.051,0.311-1.125,0.857c-0.769,5.709,0.369,11.569,1.46,16.809
		c-1.613,0.483-3.141,1.285-4.432,2.368c-1.479-1.76-3.035-3.523-4.89-4.984c-1.639-1.291-3.362-2.204-5.086-2.705
		c0.53-0.572,0.941-1.253,1.186-1.995C70.174,18.553,70.017,16.95,69.31,15.639z M35.695,82.312
		c-0.296,0.172-0.762,0.194-1.253,0.204c-7.759,0.147-15.659-1.432-22.771-4.541C9.22,76.903,6.48,75.488,4.74,73.13
		c-0.848-1.149-1.494-2.57-1.977-4.346c-1.124-4.14-1.006-8.956,0.343-13.929C4.442,49.93,6.753,45.441,8.838,41.7
		c4.103-7.364,9.986-16.415,19.148-21.075c0.626-0.318,1.351-0.658,2.052-0.658c0.001,0,0.001,0,0.001,0
		c0.336,0.003,0.66,0.118,0.88,0.293c-4.76,6.397-7.283,14.567-6.941,22.53c0.366,8.515,3.793,16.444,7.107,24.112
		c1.717,3.973,3.492,8.081,4.811,12.205C36.297,80.367,36.456,81.87,35.695,82.312z M55.448,104.724
		c0.144-0.075,0.272-0.186,0.369-0.331c0.019-0.028,0.031-0.058,0.049-0.087c3.262-0.621,7.133,0.823,9.579,3.574
		c2.376,2.674,3.749,6.575,3.865,10.984c0.004,0.136,0.001,0.242-0.004,0.333l-1.533,0.133c-0.779,0.067-1.563,0.138-2.349,0.214
		c-0.055,0-0.11-0.004-0.165-0.004c-1.52,0-3.387,0.087-5.225,0.651c0.166-2.327-0.188-4.486-1.048-6.318
		c-1.095-2.332-3.047-4.089-5.265-4.805L55.448,104.724z M37.018,117.442c2.184-1.527,4.809-2.752,8.262-3.853
		c0.354-0.113,0.711-0.224,1.068-0.334c2.081-0.643,4.228-1.305,6.084-2.573c0.22,0.108,0.442,0.212,0.664,0.315
		c0.536,0.25,1.042,0.486,1.491,0.782c1.297,0.856,2.289,2.373,2.796,4.271c0.4,1.502,0.483,3.097,0.493,4.738
		c-1.081,0.294-2.148,0.653-3.195,1.099c-0.257,0.109-0.769,0.341-1.08,0.862c-0.787,0.67-1.359,1.488-1.635,2.371
		c-3.871,1.482-7.856,1.985-11.54,1.438c-2.96-0.438-5.523-1.844-8.237-3.331c-0.098-0.053-0.197-0.107-0.295-0.16
		C33.005,120.956,34.752,119.027,37.018,117.442z M53.338,150.674c0.246-0.227,0.436-0.479,0.573-0.744
		c0.002-0.002,0.004-0.004,0.006-0.006c1.162-1.152,1.969-2.716,2.243-4.381c0.444-2.685-0.432-5.218-1.278-7.667
		c-0.705-2.039-1.372-3.966-1.304-5.922c0.003-0.079-0.008-0.156-0.023-0.231l-0.06-5.108c0.182-0.255,0.271-0.526,0.34-0.775
		c0.111,0.451,0.224,0.902,0.332,1.355c1.724,7.236,2.905,14.667,3.511,22.085c0.06,0.725-0.05,0.872-0.06,0.885
		c-0.07,0.042-0.333,0.063-0.477,0.073c-1.193,0.096-2.591,0.265-4.013,0.607C53.199,150.788,53.273,150.733,53.338,150.674z
		 M48.57,141.727c-1.216-1.795-2.093-3.431-2.402-5.399c1.964-0.666,3.793-1.664,5.499-2.685c0.217,1.686,0.777,3.307,1.323,4.887
		c0.801,2.315,1.557,4.502,1.196,6.688c-0.127,0.771-0.415,1.504-0.81,2.159c-0.003-0.003-0.007-0.008-0.01-0.011l-0.194-0.206
		C51.557,145.444,49.887,143.673,48.57,141.727z M30.215,131.228c-0.274-0.685-0.413-1.481-0.385-2.329
		c0.038-1.159,0.602-2.61,1.099-3.89c0.02-0.053,0.04-0.105,0.061-0.157c0.079,0.044,0.159,0.087,0.238,0.131
		c2.749,1.507,5.592,3.065,8.906,3.556c3.65,0.542,7.562,0.149,11.37-1.122l0.047,3.959c-2.4,1.467-5.052,3.011-7.883,3.551
		c-0.229-0.043-0.46-0.086-0.675-0.098c-0.801-0.037-1.502,0.116-2.172,0.267c-0.052,0.012-0.1,0.02-0.152,0.031
		c-0.215-0.006-0.43-0.008-0.644-0.016c-1.204-0.047-2.445-0.132-3.667-0.336c-0.798-0.133-1.589-0.307-2.348-0.589
		c-0.445-0.165-0.863-0.363-1.255-0.583C31.65,132.984,30.77,132.165,30.215,131.228z M37.519,143.532
		c-2.093-2.179-3.81-4.785-5.354-7.276c-0.216-0.349-0.427-0.696-0.629-1.043c0.551,0.329,1.146,0.613,1.778,0.848
		c1.589,0.589,3.27,0.831,4.858,0.951c0.089,1.052,0.341,1.781,0.669,2.723l2.401,6.958C39.9,145.761,38.645,144.704,37.519,143.532
		z M45.132,148.996c-0.413-0.17-0.835-0.358-1.068-0.625c-0.211-0.241-0.348-0.638-0.479-1.021l-2.854-8.274
		c-0.26-0.741-0.432-1.233-0.521-1.823c0.362-0.053,0.708-0.13,1.047-0.206c0.516-0.115,1.002-0.224,1.478-0.224l0.155,0.004
		c0.17,0.009,0.35,0.047,0.529,0.082c0.255,0.05,0.54,0.104,0.834,0.117c0.405,2.145,1.367,3.913,2.661,5.823
		c1.407,2.078,3.134,3.91,4.804,5.682l0.193,0.206c0.072,0.076,0.221,0.234,0.243,0.249c-0.019,0.07-0.188,0.28-0.5,0.446
		C50.078,150.273,47.881,150.123,45.132,148.996z M75.579,149.678c1.015,2.415,1.974,4.695,1.549,7.003
		c-0.413,2.237-2.098,4.092-3.691,5.609c-1.138,1.083-2.39,2.156-3.836,2.674c-1.148,0.409-2.427,0.462-3.413,0.462
		c-0.431,0-0.862-0.011-1.29-0.023c-0.174-0.005-0.349-0.01-0.524-0.01c-0.521,0-1.202,0.038-1.855,0.334
		c-0.619,0.279-1.073,0.721-1.473,1.11l-0.25,0.24c-0.393,0.367-0.711,0.554-0.949,0.555c-0.03,0-0.08-0.023-0.116-0.05
		c0.029-0.216-0.021-0.429-0.125-0.614c1.182-2.478,2.987-4.681,5.197-6.296c0.446-0.326,0.543-0.951,0.218-1.397
		c-0.326-0.446-0.951-0.544-1.397-0.218c-2.783,2.033-4.991,4.897-6.278,8.098c-1.165,0.574-2.759,0.671-5.044,0.273
		c-0.864-0.149-1.838-0.355-2.469-0.909c-0.279-0.246-0.47-0.631-0.508-0.987c0.175-0.095,0.326-0.237,0.421-0.429
		c1.62-3.26,4.67-5.829,8.157-6.872c0.529-0.158,0.83-0.716,0.672-1.244c-0.158-0.529-0.719-0.831-1.244-0.672
		c-3.707,1.109-6.965,3.726-8.91,7.074c-0.843-0.06-1.546-1.258-1.681-2.387c-0.241-2.001,0.433-4.077,1.801-5.555
		c2.229-2.406,5.853-2.982,8.76-3.216c0.406-0.032,0.962-0.075,1.465-0.429c1.065-0.745,0.95-2.155,0.907-2.686
		c-0.614-7.52-1.812-15.052-3.56-22.386c-0.212-0.893-0.434-1.784-0.655-2.675l-0.044-0.18c-0.006-0.022-0.017-0.066-0.027-0.113
		c0.023-0.011,0.05-0.022,0.081-0.035c3.9-1.663,8.262-2.04,12.479-2.405l5.187-0.448c-0.104,1.246-0.069,2.482-0.036,3.689
		L73.54,140.3c0.046,1.617,0.095,3.29,0.469,4.938C74.358,146.775,74.979,148.252,75.579,149.678z M163.772,152.541
		c-0.285,3.046-1.483,5.977-2.643,8.812c-0.51,1.249-1.088,2.664-2.084,3.562c-0.998,0.9-2.383,1.289-3.848,1.7
		c-1.008,0.282-2.05,0.575-3.031,1.053c-0.352,0.172-0.683,0.374-1.004,0.59c0.182-0.393,0.321-0.806,0.395-1.234
		c0.197-1.135-0.001-2.225-0.196-3.048c-0.348-1.469-0.89-2.872-1.617-4.187c1.566-0.856,2.948-1.849,3.664-3.455
		c0.229-0.512,0.355-1.022,0.479-1.516c0.074-0.299,0.147-0.597,0.247-0.887c0.681-1.969,2.603-3.356,4.461-4.697l0.39-0.282
		c1.368-0.992,2.87-2.247,3.832-3.822C163.621,147.547,164.01,150.007,163.772,152.541z M147.371,169.19
		c-1.096,0.334-2.452-0.025-3.239-0.848c-0.121-0.127-0.271-0.204-0.43-0.253c-0.311-1.036-0.421-2.229-0.335-3.837
		c0.037-0.692,0.104-1.422,0.336-2.063c0.219-0.604,0.574-1.07,1.001-1.313c0.479-0.273,0.647-0.885,0.374-1.364
		c-0.274-0.48-0.885-0.648-1.364-0.374c-0.84,0.479-1.512,1.32-1.892,2.37c-0.32,0.885-0.407,1.79-0.453,2.637
		c-0.106,2.001,0.05,3.492,0.508,4.837c0.052,0.154,0.162,0.469,0.375,0.786c-0.18,0.245-0.467,0.462-0.8,0.542
		c-0.728,0.177-1.713-0.091-2.517-0.357c-0.812-0.269-1.651-0.576-2.217-1.118c-0.474-0.454-0.691-1.125-0.508-1.563
		c0.006-0.013,0.003-0.027,0.008-0.041c0.039-0.106,0.067-0.216,0.069-0.331c0-0.02-0.009-0.04-0.01-0.06
		c-0.005-0.104-0.02-0.21-0.059-0.312c-0.003-0.007-0.001-0.015-0.004-0.022c-0.143-0.351-0.397-2.1-0.399-2.605
		c-0.006-2.554,0.42-3.487,1.997-5.592c0.332-0.441,0.242-1.068-0.2-1.399c-0.44-0.331-1.068-0.241-1.399,0.2
		c-1.806,2.408-2.405,3.729-2.397,6.797c0.002,0.489,0.161,1.806,0.361,2.7c-0.442,0.354-1.11,0.454-1.639,0.395
		c-1.538-0.157-3.06-1.314-3.97-3.018c-1.773-3.321-0.775-7.874,2.225-10.148c1.307-0.991,3.007-1.536,4.786-1.536
		c2.133,0,4.169,0.778,5.586,2.135c0.217,0.209,0.52,0.304,0.817,0.271c0.299-0.038,0.565-0.209,0.725-0.466
		c2.39-3.86,3.793-7.989,4.059-11.94c0.305-4.543-0.875-8.892-3.322-12.245c-0.731-1.002-1.568-1.907-2.379-2.782
		c-0.363-0.394-0.728-0.787-1.082-1.188c-2.428-2.756-4.406-5.964-6.321-9.066l-4.229-6.852l5.814-2.175
		c0.826-0.308,1.562-0.545,2.14-0.412c0.899,0.203,1.533,1.228,2.156,2.35c5.188,9.348,11.513,18.05,18.8,25.865
		c1.995,2.142,3.634,4.093,3.464,6.289c-0.171,2.209-2.225,3.967-3.994,5.251l-0.387,0.279c-2.013,1.452-4.293,3.099-5.181,5.667
		c-0.119,0.345-0.209,0.7-0.298,1.055c-0.106,0.429-0.208,0.835-0.364,1.187c-0.591,1.325-2.083,2.166-3.69,2.981
		c-0.252,0.128-0.438,0.356-0.513,0.63c-0.074,0.272-0.029,0.564,0.124,0.803c0.89,1.385,1.533,2.899,1.912,4.502
		c0.225,0.946,0.277,1.639,0.172,2.244C149.389,167.822,148.477,168.853,147.371,169.19z M216.545,124.634
		c-0.727,0.354-1.603,0.52-2.757,0.52c-0.442,0-0.887-0.024-1.324-0.057c-11.432-0.851-23.282-7.197-33.369-17.87
		c-0.344-0.364-0.617-0.668-0.752-0.989c-0.21-0.505-0.126-1.182-0.034-1.912c1.511-12.066-1.587-24.672-4.303-32.815
		c5.62,5.31,10.764,11.738,13.867,17.418c1.438,2.629,2.724,5.41,3.968,8.101c1.257,2.72,2.558,5.532,4.027,8.22
		c3.582,6.553,7.594,11.077,12.263,13.832c2.804,1.654,6.177,2.84,10.036,3.529C218.041,123.453,217.329,124.251,216.545,124.634z"
		/>
</g>
</svg>
