<?xml version="1.0" encoding="utf-8"?>
<!-- Generator: Adobe Illustrator 23.0.3, SVG Export Plug-In . SVG Version: 6.00 Build 0)  -->
<svg version="1.1" id="Vrstva_10" xmlns="http://www.w3.org/2000/svg" xmlns:xlink="http://www.w3.org/1999/xlink" x="0px" y="0px"
	 viewBox="0 0 86.92 46.99" style="enable-background:new 0 0 86.92 46.99;" xml:space="preserve">
<style type="text/css">
	.st0{fill:#F8EABF;}
	.st1{fill:#4C331B;}
	.st2{fill:#C1B38F;}
	.st3{fill:#D8CAA4;}
</style>
<g>
	<path class="st0" d="M43.47,6.91c-2.45-1.01-5.2-1.52-8.16-1.52c-0.56,0-1.12,0.02-1.67,0.05c-0.54,0.04-1.1,0.09-1.52,0.32
		c-0.27,0.15-0.46,0.42-0.45,0.61c0.81,2.72,0.71,7.66-0.23,10.31c-0.09,0.29-1.14,4.14-1.25,4.76c-0.02,0.39-0.26,0.75-0.65,0.89
		c-0.12,0.04-0.23,0.06-0.35,0.06c-0.41,0-0.79-0.25-0.94-0.65c-0.26-0.69,1.29-5.69,1.3-5.74c0.1-0.28,0.19-0.6,0.27-0.94l0.4-3.95
		c0.01-1.64-0.15-3.24-0.49-4.31c-0.01-0.03,0-0.07-0.01-0.1c-0.01-0.03-0.03-0.06-0.03-0.09c-0.11-0.92-0.66-2.21-4.16-2.76
		c-2.05-0.32-4.12-0.62-6.18-0.88c-0.87-0.11-1.72-0.28-2.54-0.44c-1.26-0.25-2.45-0.49-3.69-0.52C12.92,2,12.75,2,12.58,2
		c-1.95,0-3.36,0.37-4.87,1.28C5.95,4.34,4.5,5.83,3.52,7.56C2.57,9.23,2.05,11.15,2,13.12c-0.01,0.57,0,1.13,0.05,1.67
		c5.69,6.86,18.02,9.71,24.87,10.8c2.87,0.46,5.82,0.7,8.6,0.75c0.64-1.04,1.48-1.99,2.63-2.98c1.07-0.92,2.23-1.62,3.36-2.29
		c0.72-0.43,1.4-0.84,2.06-1.31c1.71-1.2,3.46-2.39,5.21-3.54c1.11-0.73,2.13-1.21,3.06-1.45c-0.26-0.58-0.55-1.15-0.89-1.7
		C49.31,10.41,46.65,8.22,43.47,6.91z"/>
	<path class="st1" d="M1.25,14.42c0.3,0,0.6,0.13,0.8,0.36c0,0,0,0,0.01,0.01c-0.05-0.54-0.06-1.1-0.05-1.67
		c0.05-1.97,0.57-3.89,1.51-5.55C4.5,5.83,5.95,4.34,7.71,3.28C9.21,2.37,10.62,2,12.58,2c0.17,0,0.34,0,0.52,0.01
		c1.24,0.04,2.43,0.27,3.69,0.52c0.82,0.16,1.67,0.33,2.54,0.44c2.05,0.26,4.13,0.56,6.18,0.88c3.51,0.56,4.06,1.84,4.16,2.76
		c0,0.03,0.02,0.06,0.03,0.09c-0.11-0.5,0.16-1,0.66-1.16c0.53-0.17,1.09,0.12,1.26,0.65c0.02,0.05,0.03,0.12,0.04,0.17
		c-0.01-0.19,0.19-0.46,0.45-0.61c0.41-0.23,0.98-0.28,1.52-0.32c0.56-0.04,1.11-0.05,1.67-0.05c2.97,0,5.71,0.51,8.16,1.52
		c3.18,1.31,5.84,3.5,7.48,6.17c0.34,0.55,0.63,1.12,0.89,1.7c0.76-0.2,1.47-0.25,2.13-0.15c-0.36-0.88-0.8-1.76-1.32-2.6
		C50.79,9,47.8,6.53,44.23,5.06c-2.69-1.11-5.7-1.67-8.93-1.67c-0.6,0-1.2,0.02-1.8,0.06C32.77,3.49,31.92,3.57,31.15,4
		c-0.13,0.07-0.24,0.15-0.36,0.23c-0.94-1.19-2.6-1.98-4.97-2.36c-2.07-0.33-4.17-0.63-6.24-0.89c-0.8-0.1-1.58-0.26-2.41-0.42
		c-1.29-0.26-2.62-0.52-4.02-0.56c-2.61-0.06-4.51,0.37-6.48,1.56c-2.05,1.24-3.75,2.97-4.9,5.01C0.67,8.53,0.06,10.77,0,13.07
		c-0.01,0.57,0,1.53,0.14,2.62c0.04-0.28,0.12-0.59,0.33-0.87C0.66,14.58,0.94,14.43,1.25,14.42z"/>
	<path class="st0" d="M30.2,11.12l-0.4,3.95C30.06,13.93,30.19,12.52,30.2,11.12z"/>
	<path class="st1" d="M30.2,11.12c-0.01,1.4-0.14,2.82-0.4,3.95c-0.08,0.34-0.17,0.66-0.27,0.94c-0.02,0.05-1.56,5.05-1.3,5.74
		c0.15,0.4,0.53,0.65,0.94,0.65c0.12,0,0.23-0.02,0.35-0.06c0.39-0.15,0.63-0.51,0.65-0.89c0.11-0.62,1.16-4.47,1.25-4.76
		c0.94-2.66,1.04-7.6,0.23-10.31c-0.02-0.05-0.03-0.12-0.04-0.17c-0.17-0.53-0.73-0.81-1.26-0.65c-0.49,0.16-0.76,0.66-0.66,1.16
		c0.01,0.03,0,0.07,0.01,0.1C30.06,7.88,30.21,9.48,30.2,11.12z"/>
	<path class="st2" d="M2.7,18.31c0.54,1.32,1.41,2.59,2.56,3.73c1.42,1.41,3.22,2.62,5.84,3.94c6.98,3.51,14.87,5.37,22.82,5.4
		c0.09-0.84,0.23-1.68,0.48-2.5c0.06-0.19,0.12-0.37,0.19-0.55c-2.61-0.08-5.33-0.33-7.98-0.75C18.89,26.34,8.91,23.75,2.7,18.31z"
		/>
	<path class="st1" d="M33.93,31.37c-7.96-0.03-15.85-1.89-22.82-5.4c-2.62-1.32-4.43-2.53-5.84-3.94c-1.15-1.13-2.02-2.41-2.56-3.73
		c6.21,5.45,16.19,8.04,23.9,9.26c2.65,0.42,5.37,0.67,7.98,0.75c0.25-0.71,0.55-1.36,0.93-1.98c-2.78-0.04-5.73-0.29-8.6-0.75
		c-6.85-1.09-19.18-3.94-24.87-10.8c0,0,0,0-0.01-0.01c-0.2-0.24-0.5-0.36-0.8-0.36c-0.31,0.01-0.59,0.16-0.78,0.4
		c-0.21,0.28-0.29,0.59-0.33,0.87c-0.04,0.33-0.01,0.63,0.01,0.78c0.32,2.46,1.64,4.94,3.7,6.99c2.02,2,4.46,3.35,6.35,4.3
		c7.23,3.63,15.4,5.57,23.65,5.61C33.83,32.7,33.85,32.04,33.93,31.37z"/>
	<path class="st0" d="M74.91,7.61c-3.01-0.87-6.46-0.7-9.69,0.47c-2.94,1.06-5.8,2.97-8.27,5.53c-0.38,0.39-0.76,0.81-0.91,1.25
		c-0.1,0.28-0.06,0.61,0.07,0.75c2.43,1.46,5.68,5.2,6.77,7.8c0.13,0.28,1.94,3.83,2.27,4.37c0.25,0.3,0.31,0.73,0.12,1.1
		c-0.18,0.34-0.53,0.54-0.89,0.54c-0.15,0-0.31-0.04-0.46-0.11c-0.66-0.34-2.87-5.08-2.89-5.12c-0.12-0.28-0.26-0.57-0.44-0.88
		l-2.36-3.19c-1.09-1.22-2.29-2.3-3.26-2.86c-0.03-0.02-0.05-0.05-0.07-0.06c-0.03-0.02-0.06-0.03-0.08-0.05
		c-0.45-0.39-0.95-0.58-1.54-0.58c-0.92,0-2.03,0.44-3.4,1.33c-1.74,1.14-3.47,2.32-5.16,3.5c-0.72,0.5-1.46,0.95-2.18,1.38
		c-1.1,0.66-2.15,1.29-3.09,2.1c-1.71,1.47-2.59,2.75-3.13,4.57c-0.59,1.97-0.66,4.04-0.22,5.99c0.42,1.87,1.33,3.64,2.61,5.13
		c0.37,0.43,0.76,0.83,1.16,1.2c0.77,0.11,1.59,0.17,2.43,0.17c8.41,0,18.18-5.57,23.25-8.89c7.87-5.16,16.34-13.28,16.6-20.68
		C80.61,10.26,77.94,8.49,74.91,7.61z"/>
	<path class="st1" d="M39.04,42.03c0.22-0.21,0.53-0.31,0.83-0.27c0,0,0.01,0,0.01,0c-0.4-0.37-0.79-0.78-1.16-1.2
		c-1.29-1.49-2.19-3.26-2.61-5.13c-0.44-1.95-0.37-4.02,0.22-5.99c0.54-1.82,1.42-3.1,3.13-4.57c0.94-0.81,1.98-1.43,3.09-2.1
		c0.72-0.43,1.46-0.88,2.18-1.38c1.69-1.19,3.43-2.36,5.16-3.5c1.37-0.9,2.48-1.33,3.4-1.33c0.59,0,1.09,0.19,1.54,0.58
		c0.03,0.02,0.06,0.03,0.08,0.05c-0.41-0.3-0.55-0.85-0.29-1.3c0.28-0.48,0.89-0.64,1.37-0.37c0.05,0.03,0.09,0.06,0.14,0.09
		c-0.13-0.14-0.16-0.46-0.07-0.75c0.15-0.45,0.53-0.86,0.91-1.25c2.47-2.55,5.33-4.47,8.27-5.53c3.23-1.17,6.68-1.33,9.69-0.47
		c3.03,0.87,5.69,2.64,7.24,4.75c0-0.04,0.01-0.09,0.01-0.13c0.01-0.42,0.28-0.79,0.68-0.92c0.4-0.13,0.84-0.01,1.1,0.32
		c0.17,0.22,0.36,0.44,0.54,0.68c-1.65-2.98-5-5.45-9.01-6.6c-3.41-0.98-7.3-0.8-10.92,0.51c-3.22,1.16-6.34,3.24-9.02,6.02
		c-0.51,0.53-1.08,1.16-1.37,2c-0.05,0.14-0.08,0.27-0.11,0.41c-0.02,0-0.05,0-0.08-0.01c-0.66-0.1-1.37-0.05-2.13,0.15
		c-0.94,0.25-1.95,0.72-3.06,1.45c-1.75,1.15-3.51,2.34-5.21,3.54c-0.66,0.46-1.34,0.87-2.06,1.31c-1.13,0.68-2.29,1.38-3.36,2.29
		c-1.15,0.99-1.99,1.94-2.63,2.98c-0.38,0.62-0.68,1.27-0.93,1.98c-0.06,0.18-0.13,0.36-0.19,0.55c-0.24,0.82-0.38,1.66-0.48,2.5
		c-0.07,0.67-0.1,1.33-0.07,2c0.03,0.85,0.11,1.69,0.3,2.51c0.49,2.19,1.55,4.26,3.05,5.99c0.37,0.43,1.03,1.13,1.87,1.85
		c-0.16-0.23-0.3-0.52-0.34-0.86C38.7,42.55,38.81,42.24,39.04,42.03z"/>
	<path class="st1" d="M80.2,29.8c-0.48,0.54-0.96,1.06-1.46,1.58C79.25,30.87,79.74,30.35,80.2,29.8z"/>
	<path class="st0" d="M60.6,23.31c-0.57-1.01-1.43-2.15-2.36-3.19L60.6,23.31z"/>
	<path class="st1" d="M58.24,20.12c0.93,1.04,1.79,2.18,2.36,3.19c0.17,0.31,0.32,0.6,0.44,0.88c0.02,0.05,2.23,4.79,2.89,5.12
		c0.15,0.08,0.3,0.11,0.46,0.11c0.36,0,0.71-0.2,0.89-0.54c0.19-0.37,0.13-0.8-0.12-1.1c-0.33-0.53-2.14-4.09-2.27-4.37
		c-1.09-2.6-4.34-6.34-6.77-7.8c-0.05-0.03-0.1-0.06-0.14-0.09c-0.48-0.27-1.09-0.11-1.37,0.37c-0.26,0.45-0.12,1,0.29,1.3
		c0.03,0.02,0.04,0.05,0.07,0.06C55.95,17.82,57.15,18.9,58.24,20.12z"/>
	<path class="st2" d="M54.09,43.96c11.63-3.24,22.14-10.88,28.81-20.94c1.12-1.69,2.23-3.67,1.98-5.62c-0.12-0.9-0.5-1.73-1.04-2.57
		c-2.06,9.3-13.49,17.45-17.2,19.88c-6.32,4.14-15.55,9.06-23.93,9.22c1.29,0.61,2.79,0.98,4.41,1.05
		C49.17,45.06,51.25,44.75,54.09,43.96z"/>
	<path class="st1" d="M78.74,31.38c0.5-0.52,0.98-1.05,1.46-1.58c1.59-1.79,3.05-3.69,4.37-5.68c1.32-1.99,2.63-4.38,2.29-6.98
		c-0.25-1.92-1.35-3.52-2.39-4.85c-0.18-0.23-0.36-0.46-0.54-0.68c-0.26-0.33-0.7-0.45-1.1-0.32c-0.4,0.13-0.67,0.5-0.68,0.92
		c0,0.04-0.01,0.09-0.01,0.13c-0.27,7.4-8.73,15.52-16.6,20.68c-5.07,3.32-14.83,8.89-23.25,8.89c-0.84,0-1.65-0.06-2.43-0.17
		c0,0-0.01,0-0.01,0c-0.3-0.04-0.61,0.05-0.83,0.27c-0.22,0.21-0.33,0.51-0.31,0.82c0.03,0.35,0.18,0.63,0.34,0.86
		c0.19,0.27,0.41,0.47,0.53,0.57c1.9,1.61,4.54,2.56,7.44,2.68c0.24,0.01,0.48,0.02,0.71,0.02c0,0,0,0,0,0
		c2.03,0,4.15-0.34,6.88-1.1C63.73,43.35,72.17,38.22,78.74,31.38z M66.64,34.71c3.71-2.43,15.14-10.58,17.2-19.88
		c0.55,0.85,0.93,1.67,1.04,2.57c0.25,1.95-0.86,3.93-1.98,5.62c-6.68,10.06-17.18,17.7-28.81,20.94c-2.84,0.79-4.92,1.11-6.97,1.02
		c-1.61-0.07-3.12-0.43-4.41-1.05C51.09,43.77,60.32,38.85,66.64,34.71z"/>
	<path class="st3" d="M65.55,33.04c7.87-5.16,16.34-13.28,16.6-20.68c-1.38-1.88-3.66-3.49-6.29-4.43
		c0.96,3.34,0.71,7.04-0.79,10.18c-1.47,3.08-3.99,5.52-6.45,7.89c-0.95,0.91-2.04,1.87-3.26,2.2c0.05,0.22,0.04,0.46-0.08,0.68
		c-0.18,0.34-0.53,0.54-0.89,0.54c-0.15,0-0.3-0.03-0.45-0.11c-0.53,1.56-2.37,2.62-4,3.33c-3.55,1.54-7.1,3.07-10.65,4.61
		c-2.95,1.28-6.29,2.57-9.29,1.4c-1.18-0.46-2.22-1.28-3.42-1.65c0.49,1.29,1.21,2.5,2.13,3.57c0.37,0.43,0.76,0.83,1.16,1.2
		c0.77,0.11,1.59,0.17,2.43,0.17C50.71,41.93,60.48,36.36,65.55,33.04z"/>
	<path class="st3" d="M51.85,14.77c-0.26-0.58-0.55-1.15-0.89-1.7c-0.5-0.82-1.11-1.58-1.79-2.3c-0.76,2.26-2.11,4.35-3.84,6.01
		c-2.84,2.72-6.58,4.37-10.43,5.16c-0.98,0.2-2.02,0.35-2.99,0.08c-0.64-0.18-1.24-0.59-1.6-1.13c-0.06,0.25-0.11,0.45-0.13,0.55
		c-0.02,0.39-0.26,0.75-0.65,0.89c-0.12,0.04-0.23,0.06-0.35,0.06c-0.41,0-0.79-0.25-0.94-0.65c-0.04-0.11-0.03-0.36,0.01-0.67
		c-1.98,0.7-4.54,0.11-6.67-0.58c-6.88-2.22-14.04-4.63-19.32-9.47C2.12,11.72,2.02,12.41,2,13.12c-0.01,0.57,0,1.13,0.05,1.67
		c5.69,6.86,18.02,9.71,24.87,10.8c2.87,0.46,5.82,0.7,8.6,0.75c0.64-1.04,1.48-1.99,2.63-2.98c1.07-0.92,2.23-1.62,3.36-2.29
		c0.72-0.43,1.4-0.84,2.06-1.31c1.71-1.2,3.46-2.39,5.21-3.54C49.9,15.5,50.91,15.02,51.85,14.77z"/>
</g>
</svg>
