<?xml version="1.0" encoding="utf-8"?>
<!-- Generator: Adobe Illustrator 23.1.0, SVG Export Plug-In . SVG Version: 6.00 Build 0)  -->
<svg version="1.1" id="Vrstva_10" xmlns="http://www.w3.org/2000/svg" xmlns:xlink="http://www.w3.org/1999/xlink" x="0px" y="0px"
	 viewBox="0 0 86.924 46.988" enable-background="new 0 0 86.924 46.988" xml:space="preserve">
<g>
	<path fill="#C1B38F" d="M2.371,17.575c0,1.381,2.044,4.308,3.189,5.441c1.418,1.405,3.22,2.62,5.845,3.938
		c6.977,3.507,14.866,5.368,22.824,5.398c0.092-0.84,0.416-2.504,0.66-3.324c0.057-0.191,0.2-1.214,0.264-1.397
		c-2.608-0.081-5.33-0.33-7.981-0.752C19.458,25.654,8.58,23.02,2.371,17.575z"/>
	<path fill="#F8EABF" d="M43.62,6.076c-2.452-1.011-5.199-1.523-8.165-1.523c-0.558,0-1.115,0.019-1.671,0.055
		c-0.541,0.035-1.104,0.088-1.517,0.316c-0.267,0.147-2.258,0.685-2.262,0.652c-0.107-0.92-1.264-1.803-4.771-2.36
		c-2.046-0.324-4.125-0.621-6.176-0.88c-0.872-0.11-1.722-0.279-2.544-0.442c-1.261-0.251-2.453-0.487-3.691-0.523
		c-0.176-0.006-0.35-0.008-0.52-0.008c-1.954,0-3.365,0.371-4.869,1.281C5.675,3.708,3.54,5.918,2.555,7.657
		c-0.942,1.666-1.465,3.585-1.513,5.552c-0.014,0.568,0.004,1.129,0.05,1.673c5.689,6.863,19.046,10.539,25.893,11.629
		c2.866,0.455,5.816,0.704,8.597,0.746c0.638-1.043,2.379-2.614,3.531-3.601c1.068-0.915,2.231-1.615,3.356-2.292
		c0.72-0.433,1.4-0.842,2.062-1.306c1.706-1.196,3.46-2.387,5.214-3.536c1.112-0.73,2.126-1.205,3.062-1.454
		c-0.265-0.577-1.364-2.274-1.704-2.824C49.461,9.578,46.803,7.387,43.62,6.076z"/>
	<path fill="#D8CAA4" d="M52.808,15.068c-0.265-0.577-0.956-1.596-1.295-2.146c-0.504-0.818-0.972-1.805-2.355-2.149
		c-0.755,2.265-2.107,4.353-3.836,6.011c-2.837,2.722-6.583,4.366-10.435,5.158c-0.985,0.202-2.017,0.351-2.986,0.08
		c-0.64-0.179-1.24-0.589-1.601-1.134c-0.062,0.25-0.108,0.447-0.127,0.55c-0.017,0.389-0.261,0.749-0.649,0.895
		c-0.116,0.043-0.234,0.063-0.351,0.063c-0.405,0-0.786-0.248-0.937-0.649c-0.043-0.115-0.032-0.357,0.009-0.668
		c-1.984,0.699-4.537,0.11-6.674-0.58c-6.877-2.222-14.04-4.634-19.317-9.469c-1.245-0.258-1.224,1.269-1.241,1.975
		c-0.014,0.568,0.004,1.129,0.05,1.673c5.689,6.863,19.073,10.742,25.92,11.832c2.866,0.455,6.05,0.367,8.832,0.409
		c0.638-1.043,1.913-2.016,3.065-3.004c1.068-0.915,1.688-1.624,2.813-2.301c0.72-0.433,2.176-1.093,2.838-1.557
		c1.706-1.196,2.823-2.224,4.577-3.373C50.222,15.955,51.872,15.316,52.808,15.068z"/>
	<path fill="#F8EABF" d="M30.203,11.116l-0.396,3.951C30.064,13.934,30.194,12.515,30.203,11.116z"/>
	<path fill="#4C331B" d="M52.654,12.024C50.792,9.002,47.8,6.528,44.23,5.056c-2.694-1.11-5.698-1.674-8.926-1.674
		c-0.601,0-1.201,0.021-1.8,0.059c-0.733,0.048-1.581,0.134-2.356,0.562c-0.125,0.069-0.244,0.146-0.356,0.23
		c-0.936-1.19-2.598-1.979-4.969-2.355c-2.067-0.328-4.167-0.628-6.238-0.89c-0.802-0.102-1.581-0.256-2.406-0.42
		c-1.287-0.256-2.617-0.521-4.023-0.562c-2.607-0.064-4.515,0.372-6.482,1.563C4.621,2.81,2.928,4.543,1.775,6.58
		c-1.104,1.95-1.717,4.194-1.771,6.488c-0.014,0.566,0.002,1.527,0.141,2.622c-0.043,0.332-0.013,0.626,0.008,0.779
		c0.322,2.463,1.636,4.944,3.699,6.986c2.017,1.999,4.455,3.351,6.354,4.305c7.234,3.635,15.405,5.567,23.648,5.609
		c0.733-0.632,1.299-1.553,0.074-1.998c-7.958-0.031-15.846-1.892-22.824-5.398c-2.625-1.318-4.427-2.533-5.845-3.938
		c-1.146-1.134-2.017-2.412-2.556-3.729c6.209,5.445,16.191,8.035,23.905,9.262c2.651,0.422,5.373,0.671,7.981,0.752
		c0.88-0.185,1.404-0.965,0.931-1.98c-2.782-0.042-5.731-0.291-8.597-0.746c-6.847-1.09-19.181-3.941-24.87-10.804
		c-0.046-0.544-0.063-1.105-0.05-1.673c0.047-1.967,0.57-3.886,1.513-5.552C4.5,5.825,5.95,4.344,7.708,3.28
		c1.504-0.91,2.915-1.281,4.869-1.281c0.17,0,0.344,0.002,0.52,0.008c1.239,0.036,2.43,0.272,3.691,0.523
		c0.822,0.163,1.673,0.332,2.544,0.442c2.052,0.259,4.13,0.556,6.176,0.88c3.507,0.557,4.056,1.843,4.163,2.763
		c0.004,0.033,0.023,0.059,0.03,0.091c0.007,0.033,0.001,0.066,0.011,0.099c0.345,1.07,0.501,2.675,0.49,4.311
		c-0.009,1.399-0.139,2.818-0.396,3.951c-0.078,0.343-0.166,0.662-0.265,0.944c-0.017,0.048-1.562,5.049-1.305,5.736
		c0.15,0.401,0.531,0.649,0.937,0.649c0.117,0,0.235-0.021,0.351-0.063c0.388-0.146,0.632-0.506,0.649-0.895
		c0.113-0.617,1.164-4.467,1.254-4.76c0.941-2.659,1.042-7.597,0.233-10.314c-0.01-0.195,0.188-0.464,0.455-0.612
		c0.413-0.229,0.976-0.281,1.517-0.316c0.556-0.036,1.113-0.055,1.671-0.055c2.966,0,5.712,0.513,8.165,1.523
		c3.183,1.312,5.841,3.502,7.484,6.168c0.339,0.55,0.628,1.121,0.893,1.698c0.818,0.809,1.815,1.039,2.125-0.152
		C53.608,13.737,53.173,12.865,52.654,12.024z"/>
	<path fill="#F8EABF" d="M75.342,7.066C72.333,6.2,67.421,6.759,64.195,7.924c-2.937,1.061-5.608,2.613-8.08,5.168
		c-0.377,0.39-1.177,1.528-1.33,1.976c-0.096,0.283-2.35,1.081-2.94,1.081c-0.916,0-2.027,0.437-3.397,1.334
		c-1.736,1.139-3.474,2.316-5.163,3.502c-0.719,0.504-1.461,0.95-2.178,1.382c-1.103,0.664-2.145,1.29-3.086,2.098
		c-1.713,1.467-2.591,2.747-3.132,4.565c-0.585,1.969,0.487,5.462,0.929,7.413c0.422,1.866,1.326,3.639,2.613,5.125
		c0.372,0.43,0.762,0.833,1.162,1.205c0.772,0.11,1.588,0.166,2.425,0.166c8.412-0.001,19.459-5.474,24.53-8.795
		c7.874-5.157,16.302-14.283,16.568-21.682C81.573,10.358,78.374,7.941,75.342,7.066z"/>
	<path fill="#D8CAA4" d="M66.172,33.768c7.874-5.157,16.677-14.215,16.943-21.614c-1.38-1.881-4.372-4.231-7.26-4.231
		c0.956,3.345,0.71,7.038-0.793,10.182c-1.473,3.083-3.985,5.523-6.445,7.894c-0.946,0.911-2.04,1.874-3.26,2.196
		c0.051,0.222,0.037,0.461-0.076,0.681c-0.177,0.345-0.527,0.542-0.89,0.542c-0.151,0-0.304-0.035-0.449-0.108
		c-0.526,1.559-2.367,2.622-3.997,3.328c-3.549,1.536-7.099,3.072-10.648,4.608c-2.953,1.278-6.291,2.569-9.288,1.399
		c-1.182-0.461-2.221-1.279-3.425-1.648c-0.48,1.408,0.534,3.187,1.455,4.251c0.372,0.43,0.762,0.833,1.162,1.205
		c0.772,0.11,1.588,0.166,2.425,0.166C50.039,42.618,61.101,37.089,66.172,33.768z"/>
	<path fill="#C1B38F" d="M53.22,44.989c11.634-3.244,23.626-11.112,30.304-21.175c1.118-1.687,2.347-4.396,2.097-6.341
		c-0.115-0.898-1.344-2.785-1.892-3.631c-2.058,9.301-14.031,17.817-17.744,20.25c-6.318,4.138-16.374,9.404-24.75,9.563
		c1.286,0.614,3.398,2.281,5.011,2.35C48.298,46.094,50.379,45.782,53.22,44.989z"/>
	<path fill="#4C331B" d="M80.204,29.799c-0.476,0.537-0.963,1.065-1.461,1.583C79.246,30.872,79.735,30.347,80.204,29.799z"/>
	<path fill="#F8EABF" d="M60.604,23.308c-0.572-1.011-1.43-2.149-2.365-3.191L60.604,23.308z"/>
	<path fill="#4C331B" d="M86.871,17.145c-0.246-1.919-1.346-3.517-2.394-4.85c-1.651-2.983-5.002-5.447-9.011-6.604
		c-3.414-0.983-7.298-0.799-10.92,0.51c-3.222,1.164-6.342,3.244-9.024,6.017c-0.511,0.527-1.081,1.161-1.367,2
		c-0.046,0.136-0.083,0.273-0.109,0.411c-0.025-0.004-0.05-0.004-0.075-0.008c-0.66-0.102-1.367-0.05-2.125,0.152
		c-0.936,0.249-1.949,0.724-3.062,1.454c-1.754,1.149-3.508,2.34-5.214,3.536c-0.662,0.464-1.341,0.873-2.062,1.306
		c-1.125,0.677-2.288,1.377-3.356,2.292c-1.153,0.987-1.994,1.937-2.632,2.98c-0.377,0.616-0.683,1.269-0.931,1.98
		c-0.064,0.182-0.128,0.364-0.185,0.555c-0.244,0.82-0.384,1.657-0.476,2.497c-0.073,0.666-0.097,1.332-0.074,1.998
		c0.03,0.845,0.11,1.687,0.296,2.509c0.495,2.187,1.55,4.259,3.051,5.992c0.371,0.428,1.029,1.129,1.868,1.846
		c0.192,0.275,0.412,0.472,0.529,0.571c1.895,1.607,4.536,2.561,7.437,2.685c0.238,0.01,0.476,0.016,0.713,0.016c0,0,0,0,0,0
		c2.027,0,4.15-0.341,6.884-1.104c9.102-2.537,17.536-7.662,24.111-14.502c0.498-0.518,0.985-1.045,1.461-1.583
		c1.588-1.792,3.052-3.688,4.372-5.676C85.898,22.13,87.205,19.742,86.871,17.145z M39.875,41.767
		c-0.399-0.372-0.79-0.775-1.162-1.205c-1.287-1.486-2.19-3.259-2.613-5.125c-0.442-1.951-0.365-4.023,0.22-5.992
		c0.541-1.818,1.419-3.099,3.132-4.565c0.941-0.808,1.983-1.434,3.086-2.098c0.717-0.432,1.459-0.878,2.178-1.382
		c1.689-1.186,3.427-2.363,5.163-3.502c1.37-0.897,2.481-1.334,3.397-1.334c0.59,0,1.094,0.189,1.542,0.579
		c0.026,0.022,0.058,0.029,0.085,0.048c0.027,0.02,0.044,0.048,0.074,0.065c0.975,0.56,2.169,1.643,3.261,2.861
		c0.934,1.042,1.792,2.18,2.365,3.191c0.173,0.306,0.322,0.601,0.438,0.876c0.019,0.047,2.235,4.785,2.893,5.123
		c0.146,0.076,0.303,0.111,0.457,0.111c0.363,0,0.713-0.197,0.89-0.542c0.189-0.369,0.128-0.8-0.122-1.1
		c-0.332-0.533-2.143-4.088-2.273-4.365c-1.092-2.602-4.344-6.337-6.77-7.802c-0.131-0.142-0.164-0.465-0.068-0.748
		c0.152-0.447,0.533-0.864,0.91-1.254c2.472-2.555,5.33-4.466,8.267-5.526c3.227-1.165,6.677-1.335,9.686-0.469
		c3.031,0.875,5.695,2.643,7.237,4.745c-0.267,7.398-8.729,15.523-16.602,20.68c-5.071,3.321-14.834,8.894-23.247,8.895
		C41.463,41.933,40.647,41.876,39.875,41.767z M82.909,23.018c-6.679,10.063-17.181,17.696-28.815,20.94
		c-2.841,0.793-4.921,1.105-6.974,1.016c-1.614-0.069-3.121-0.432-4.407-1.046c8.376-0.158,17.611-5.078,23.929-9.216
		c3.713-2.433,15.144-10.583,17.202-19.884c0.548,0.846,0.928,1.673,1.043,2.571C85.137,19.345,84.027,21.331,82.909,23.018z"/>
</g>
</svg>
