<?xml version="1.0" encoding="utf-8"?>
<!-- Generator: Adobe Illustrator 23.0.3, SVG Export Plug-In . SVG Version: 6.00 Build 0)  -->
<svg version="1.1" id="Vrstva_10" xmlns="http://www.w3.org/2000/svg" xmlns:xlink="http://www.w3.org/1999/xlink" x="0px" y="0px"
	 viewBox="0 0 110.27 133.11" style="enable-background:new 0 0 110.27 133.11;" xml:space="preserve">
<style type="text/css">
	.st0{fill:none;}
	.st1{fill:#466D5C;}
	.st2{fill:#4C331B;}
	.st3{fill:#4C3E44;}
	.st4{fill:#63B595;}
	.st5{fill:#D3CED2;}
</style>
<g>
	<path class="st0" d="M36.82,54.64c0.89,2.73,3.13,5.17,6.13,6.69c2.51,1.28,5.57,1.98,9.35,2.16c0.5,0.02,1.01,0.03,1.52,0.03
		c6.6,0,12.78-1.91,17.47-5.2c-0.74,0.03-1.48,0.04-2.22,0.04c-1.26,0-2.39-0.05-3.44-0.15c-3.54-0.35-7.02-1.39-10.08-2.31
		c-1.41-0.42-2.87-0.86-4.31-1.44c-5.42-2.16-10.43-6.31-14.6-12.02c-0.27,1.79-0.35,3.67-0.39,5.53
		C36.18,50.12,36.12,52.53,36.82,54.64z"/>
	<path class="st1" d="M73.24,12.04c0.06-0.01,0.1-0.04,0.12-0.07c-0.04-0.1-0.07-0.2-0.08-0.3c-0.05-0.46,0.1-0.91,0.42-1.27
		c0.37-0.41,0.93-0.66,1.51-0.66c0.24,0,0.46,0.04,0.68,0.12c0.92,0.35,1.4,1.2,1.68,1.81l0.08,0.18c0.17,0.39,0.34,0.75,0.55,0.92
		c0.21,0.16,0.58,0.23,0.91,0.29c1.3,0.21,2.08,0.14,2.67-0.21c0.51-0.3,0.9-0.87,1.22-1.38c0.92-1.49,1.32-2.76,1.23-3.89
		c-0.13-1.54-1.18-2.94-2.24-4.24c-0.45-0.55-0.86-1.03-1.35-1.23c-0.59-0.24-1.44-0.06-2.07,0.44c-0.59,0.47-1.08,1.2-1.54,2.29
		c-0.12,0.28-0.35,0.49-0.64,0.57c-0.29,0.08-0.6,0.03-0.85-0.14c-0.65-0.45-1.24-0.99-1.73-1.62c-0.49-0.18-1.25,0.15-1.63,0.67
		c-0.44,0.62-0.61,1.5-0.55,2.78c0.05,1.05,0.22,2.16,0.51,3.31c0.14,0.56,0.29,1,0.54,1.31C72.84,11.91,73.07,12.04,73.24,12.04z
		 M79.39,3.75c0.74-0.22,1.61,0.06,2.15,0.69c0.44,0.5,0.61,1.11,0.71,1.57c0.13,0.63,0.19,1.27,0.16,1.9
		c-0.01,0.28-0.08,0.49-0.19,0.65c-0.06,0.29-0.15,0.61-0.34,0.93c-0.34,0.55-0.93,0.9-1.52,0.9c-0.05,0-0.19-0.01-0.24-0.02
		c-0.94-0.14-1.35-1-1.48-1.28c-0.47-0.98-0.72-1.94-0.73-2.84C77.88,5.01,78.46,4.03,79.39,3.75z"/>
	<path class="st2" d="M70.29,4.69c0.35,0.16,0.59,0.5,0.6,0.89c0.06,2.15,0.49,4.27,1.26,6.28c0.19,0.5-0.04,1.06-0.53,1.28
		c-0.08,0.03-0.16,0.07-0.24,0.11c0.67,0.64,1.6,0.94,2.43,0.73c0.62-0.16,1.15-0.62,1.41-1.24c0.12-0.28,0.17-0.56,0.16-0.84
		c0.11,0.13,0.24,0.34,0.36,0.62l0.07,0.16c0.24,0.54,0.54,1.21,1.15,1.68c0.55,0.43,1.2,0.58,1.82,0.68
		c0.59,0.1,1.09,0.14,1.55,0.14c0.97,0,1.77-0.2,2.46-0.6c0.88-0.52,1.46-1.33,1.9-2.05c1.15-1.86,1.65-3.53,1.52-5.1
		c-0.17-2.11-1.48-3.86-2.68-5.34c-0.6-0.74-1.22-1.43-2.13-1.81c-1.26-0.52-2.89-0.23-4.08,0.72c-0.59,0.47-1.1,1.08-1.55,1.88
		c-0.18-0.19-0.35-0.39-0.51-0.6c-0.08-0.1-0.17-0.19-0.28-0.26c-1.36-0.82-3.44-0.24-4.43,1.17c-0.32,0.46-0.53,0.95-0.67,1.44
		C70.02,4.61,70.16,4.63,70.29,4.69z M72.15,10.41c-0.29-1.15-0.46-2.26-0.51-3.31c-0.06-1.28,0.12-2.16,0.55-2.78
		c0.37-0.53,1.13-0.85,1.63-0.67c0.5,0.62,1.08,1.17,1.73,1.62c0.25,0.17,0.56,0.22,0.85,0.14c0.29-0.08,0.52-0.29,0.64-0.57
		c0.46-1.09,0.95-1.82,1.54-2.29c0.63-0.5,1.48-0.69,2.07-0.44c0.48,0.2,0.9,0.67,1.35,1.23c1.06,1.3,2.11,2.7,2.24,4.24
		c0.09,1.13-0.31,2.4-1.23,3.89c-0.32,0.52-0.71,1.08-1.22,1.38c-0.59,0.35-1.37,0.42-2.67,0.21c-0.33-0.05-0.71-0.12-0.91-0.29
		c-0.22-0.17-0.38-0.53-0.55-0.92l-0.08-0.18c-0.28-0.61-0.76-1.47-1.68-1.81c-0.21-0.08-0.44-0.12-0.68-0.12
		c-0.58,0-1.14,0.25-1.51,0.66c-0.32,0.36-0.47,0.81-0.42,1.27c0.01,0.1,0.04,0.21,0.08,0.3c-0.02,0.03-0.06,0.06-0.12,0.07
		c-0.17,0-0.4-0.13-0.56-0.32C72.44,11.41,72.29,10.98,72.15,10.41z"/>
	<path class="st1" d="M107.74,24.54c0.26-0.2,0.47-0.54,0.52-0.86c0.03-0.18,0-0.33-0.08-0.43c-0.09-0.12-0.15-0.25-0.18-0.4
		c-0.04-0.02-0.36-0.13-0.57-0.21c-0.51-0.19-1.14-0.42-1.58-0.97c-0.64-0.79-0.64-1.97-0.01-3.07c0.14-0.25,0.3-0.48,0.47-0.71
		c0.22-0.31,0.43-0.61,0.52-0.89c0.38-1.11-0.82-2.44-2.16-3.04c-0.91-0.4-1.95-0.62-3-0.62c-2.69,0-5.15,1.33-6.29,3.39
		c-0.12,0.22-0.28,0.54-0.31,0.83c-0.05,0.46,0.22,1.03,0.72,1.52c0.35,0.35,0.79,0.65,1.24,0.97c0.25,0.17,0.51,0.35,0.75,0.54
		c0.11,0.08,0.2,0.18,0.26,0.3c0.58,1.02,0.03,2.23-0.82,2.77c-0.29,0.19-0.6,0.31-0.91,0.38c1.43,0.92,3.31,1.35,5.83,1.35
		c0,0,0,0,0,0c0.92,0,1.93-0.06,3.18-0.18C106.29,25.1,107.15,24.99,107.74,24.54z M105.11,16.7c-0.11,0.65-0.59,1.23-1.27,1.52
		c-0.48,0.2-0.97,0.23-1.4,0.24l-0.39,0c-0.79,0-1.59-0.05-2.38-0.15c-0.24-0.03-0.68-0.08-1.08-0.35c-0.59-0.4-0.85-1.14-0.62-1.76
		c0.16-0.42,0.47-0.66,0.62-0.77c0.77-0.58,1.5-0.96,2.25-1.16c0.96-0.27,1.95-0.22,2.78,0.13
		C104.49,14.76,105.28,15.62,105.11,16.7z"/>
	<path class="st2" d="M109.88,22.21c-0.31-0.91-1.18-1.23-1.78-1.45c-0.28-0.1-0.62-0.23-0.72-0.35c-0.07-0.09-0.06-0.44,0.17-0.83
		c0.11-0.19,0.24-0.38,0.37-0.56c0.28-0.39,0.59-0.84,0.78-1.39c0.79-2.29-1.08-4.56-3.24-5.52c-1.16-0.52-2.48-0.79-3.82-0.79
		c-3.4,0-6.56,1.74-8.04,4.43c-0.2,0.37-0.48,0.94-0.55,1.6c-0.11,1.07,0.37,2.21,1.31,3.14c0.48,0.47,1,0.83,1.51,1.18
		c0.11,0.08,0.21,0.15,0.32,0.23c-0.02,0.02-0.04,0.04-0.07,0.06c-0.26,0.17-0.73,0.2-1.13,0.23c-0.27,0.02-0.51,0.14-0.69,0.34
		c-0.18,0.2-0.26,0.46-0.24,0.73c0.01,0.09-0.02,0.19-0.08,0.26c-0.31,0.41-0.26,1,0.13,1.34c0.49,0.45,1.04,0.83,1.64,1.15
		c0.12-0.26,0.25-0.51,0.37-0.77c0.17-0.38,0.57-0.61,0.98-0.58c0.36,0.03,0.68,0.25,0.83,0.57c0.06,0.02,0.16,0.05,0.33,0.07
		c1.54,0.18,3.12,0.2,4.67,0.07c0.34-0.04,0.68,0.12,0.88,0.39c0.21,0.27,0.26,0.64,0.14,0.96c-0.08,0.21-0.17,0.41-0.26,0.61
		c0.55-0.03,1.15-0.08,1.8-0.14c1.23-0.12,2.42-0.29,3.43-1.04c0.7-0.52,1.18-1.34,1.3-2.19C110.33,23.32,110.2,22.71,109.88,22.21z
		 M102.14,25.38C102.14,25.38,102.14,25.38,102.14,25.38c-2.52,0-4.4-0.43-5.83-1.35c0.3-0.08,0.62-0.2,0.91-0.38
		c0.84-0.54,1.4-1.76,0.82-2.77c-0.07-0.12-0.16-0.22-0.26-0.3c-0.24-0.19-0.5-0.36-0.75-0.54c-0.46-0.32-0.89-0.62-1.24-0.97
		c-0.5-0.49-0.77-1.06-0.72-1.52c0.03-0.29,0.19-0.61,0.31-0.83c1.13-2.06,3.6-3.39,6.29-3.39c1.06,0,2.09,0.21,3,0.62
		c1.34,0.6,2.54,1.93,2.16,3.04c-0.1,0.28-0.3,0.58-0.52,0.89c-0.16,0.23-0.32,0.47-0.47,0.71c-0.63,1.1-0.62,2.28,0.01,3.07
		c0.44,0.55,1.08,0.78,1.58,0.97c0.21,0.08,0.53,0.19,0.57,0.21c0.03,0.15,0.09,0.28,0.18,0.4c0.08,0.11,0.11,0.25,0.08,0.43
		c-0.04,0.32-0.25,0.66-0.52,0.86c-0.6,0.45-1.45,0.56-2.43,0.66C104.07,25.32,103.06,25.38,102.14,25.38z"/>
	<path class="st3" d="M75.18,57.73c-4.59,4.32-11.72,7.79-21.37,7.79c-0.54,0-1.08-0.01-1.61-0.04c-4.07-0.19-7.39-0.96-10.16-2.37
		c-3.47-1.76-6.06-4.62-7.12-7.85c-0.8-2.44-0.74-5.03-0.69-7.32c0.06-2.71,0.22-5.47,0.87-8c-0.01-0.05-0.03-0.1-0.03-0.16
		c-0.04-0.5,0.12-0.91,0.28-1.25c0.33-0.71,0.7-1.41,1.1-2.09c0.1-0.19,0.24-0.36,0.35-0.54c0.18-0.29,0.36-0.57,0.55-0.85
		c-0.26-0.22-0.5-0.47-0.72-0.75c-3.59,3.95-5.67,9.33-5.62,14.66c0.06,5.76,2.61,11.54,6.83,15.46c0.23,0.22,0.35,0.53,0.31,0.84
		s-0.22,0.59-0.49,0.75c-2.71,1.58-4.43,4.75-4.27,7.88c0.15,3.13,2.17,6.12,5.03,7.42c1.33,0.61,2.83,0.91,4.58,0.91
		c2.04,0,4.13-0.38,6.34-0.79c2.25-0.41,4.58-0.84,6.88-0.84c2.15,0,3.86,0.41,5.21,1.26c3.19,2,4.29,6.8,2.4,10.5
		c-1.57,3.07-4.83,5.33-8.93,6.2c-1.46,0.31-3.05,0.46-4.85,0.46c-1.96,0-3.98-0.18-5.75-0.34l-7.17-0.64
		c0.71,1.27,1.28,2.63,1.7,4.02c0.07,0.18,0.16,0.35,0.22,0.54c0.45-0.06,0.9-0.09,1.38-0.09c2.35,0,4.67,0.74,6.91,1.45
		c1.8,0.57,3.66,1.17,5.47,1.34c0.4,0.04,0.8,0.06,1.19,0.06c4.14,0,8.54-1.98,13.44-6.05c1.58-1.31,2.78-2.48,3.55-3.92
		c1.98-3.72,0.45-8.48-1.18-11.81c-1.72-3.52-3.55-5.52-5.76-6.29c-0.85-0.3-1.83-0.44-3.1-0.44c-0.69,0-1.39,0.04-2.08,0.08
		L46.1,77.67c-0.32,0.02-0.64,0.04-0.97,0.04c-0.52,0-1.29-0.04-2.05-0.37c-2.18-0.94-2.84-3.58-2.37-5.58
		c0.46-1.95,1.74-3.47,2.87-4.81c0.18-0.22,0.45-0.35,0.73-0.36c0.28-0.02,0.56,0.1,0.76,0.31c2,2.09,5.04,3.16,9.04,3.16
		c1.11,0,2.28-0.08,3.48-0.25c9.19-1.28,17.85-5.97,23.98-12.92c-1.29-0.67-2.37-1.72-3.09-2.98c-0.69,1.01-1.52,2.01-2.45,2.99
		c-0.08,0.09-0.16,0.2-0.24,0.29C75.63,57.37,75.42,57.56,75.18,57.73z M66.06,97.09c0.39,0.39,0.39,1.02,0,1.41
		c-2.04,2.05-4.75,3.33-7.63,3.62c-0.03,0-0.07,0-0.1,0c-0.51,0-0.94-0.39-0.99-0.9c-0.05-0.55,0.35-1.04,0.9-1.09
		c2.38-0.23,4.72-1.34,6.41-3.04C65.03,96.71,65.67,96.7,66.06,97.09z"/>
	<path class="st2" d="M83.17,57.41c-1.49-0.64-2.5-1.8-3.47-2.93c-0.37-0.42-0.72-0.83-1.09-1.2c-0.73,1.29-1.59,2.5-2.56,3.62
		c0.94-0.97,1.76-1.98,2.45-2.99c0.72,1.26,1.8,2.31,3.09,2.98c-6.13,6.96-14.79,11.64-23.98,12.92c-1.2,0.17-2.37,0.25-3.48,0.25
		c-4,0-7.04-1.06-9.04-3.16c-0.2-0.21-0.47-0.33-0.76-0.31c-0.28,0.01-0.55,0.14-0.73,0.36c-1.13,1.34-2.41,2.86-2.87,4.81
		c-0.48,2,0.19,4.64,2.37,5.58c0.76,0.33,1.54,0.37,2.05,0.37c0.32,0,0.65-0.02,0.97-0.04l12.76-0.74c0.69-0.04,1.39-0.08,2.08-0.08
		c1.26,0,2.25,0.14,3.1,0.44c2.21,0.78,4.04,2.77,5.76,6.29c1.63,3.34,3.16,8.1,1.18,11.81c-0.77,1.44-1.98,2.61-3.55,3.92
		c-4.9,4.07-9.29,6.05-13.44,6.05c-0.4,0-0.79-0.02-1.19-0.06c-1.81-0.17-3.67-0.77-5.47-1.34c-2.24-0.71-4.55-1.45-6.91-1.45
		c-0.48,0-0.93,0.03-1.38,0.09c0.24,0.64,0.45,1.29,0.65,1.95c0.24-0.02,0.48-0.04,0.73-0.04c2.04,0,4.11,0.66,6.3,1.36
		c1.9,0.61,3.86,1.23,5.89,1.43c0.46,0.04,0.92,0.07,1.38,0.07c4.63,0,9.44-2.13,14.72-6.52c1.52-1.26,3.06-2.69,4.04-4.52
		c1.88-3.53,1.48-8.25-1.15-13.63c-1.24-2.53-3.3-6.04-6.89-7.3c-1.07-0.38-2.26-0.55-3.76-0.55c-0.73,0-1.47,0.04-2.2,0.08
		l-12.77,0.74c-0.28,0.02-0.57,0.03-0.85,0.03c-0.54,0-0.94-0.06-1.26-0.2c-1.12-0.48-1.5-2.08-1.21-3.28
		c0.27-1.15,1.01-2.21,1.78-3.17c2.35,2,5.6,3.01,9.68,3.01c1.2,0,2.47-0.09,3.76-0.27c9.97-1.39,19.35-6.6,25.83-14.32
		c-0.05,0.01-0.1,0.02-0.15,0.02C83.43,57.49,83.29,57.46,83.17,57.41z"/>
	<path class="st2" d="M38.82,102.08c-0.42-1.39-0.99-2.75-1.7-4.02l7.17,0.64c1.78,0.16,3.79,0.34,5.75,0.34
		c1.8,0,3.39-0.15,4.85-0.46c4.1-0.87,7.35-3.12,8.93-6.2c1.89-3.7,0.79-8.5-2.4-10.5c-1.36-0.85-3.06-1.26-5.21-1.26
		c-2.3,0-4.63,0.43-6.88,0.84c-2.22,0.41-4.31,0.79-6.34,0.79c-1.75,0-3.25-0.3-4.58-0.91c-2.85-1.31-4.87-4.29-5.03-7.42
		c-0.16-3.13,1.56-6.3,4.27-7.88c0.27-0.16,0.46-0.44,0.49-0.75s-0.08-0.63-0.31-0.84c-4.22-3.92-6.77-9.7-6.83-15.46
		c-0.05-5.33,2.03-10.71,5.62-14.66c0.21,0.27,0.45,0.52,0.72,0.75c0.08-0.12,0.16-0.25,0.24-0.37l-1.35-1.41
		c-0.15-0.16-0.42-0.45-0.53-0.88c-4.26,4.36-6.75,10.51-6.69,16.6c0.06,5.88,2.5,11.78,6.58,16.03c-2.71,2.09-4.37,5.56-4.2,8.99
		c0.19,3.86,2.68,7.53,6.19,9.14c1.6,0.73,3.37,1.09,5.41,1.09c2.22,0,4.5-0.42,6.71-0.82c2.16-0.4,4.4-0.81,6.52-0.81
		c1.76,0,3.12,0.31,4.15,0.96c2.59,1.62,2.96,5.39,1.68,7.89c-1.28,2.5-4.1,4.42-7.56,5.15c-1.32,0.28-2.78,0.41-4.44,0.41
		c-1.87,0-3.75-0.17-5.57-0.33l-9.12-0.81c0,0,0.01,0.01,0.01,0.02C36.79,97.81,37.94,99.88,38.82,102.08z"/>
	<path class="st2" d="M36.79,35.91c-0.11,0.18-0.25,0.35-0.35,0.54C36.55,36.27,36.68,36.09,36.79,35.91z"/>
	<path class="st2" d="M34.92,55.26c1.06,3.23,3.65,6.09,7.12,7.85c2.77,1.41,6.1,2.19,10.16,2.37c0.53,0.02,1.07,0.04,1.61,0.04
		c9.65,0,16.78-3.47,21.37-7.79c-0.13,0.09-0.25,0.19-0.41,0.26c-0.43,0.19-0.85,0.21-1.18,0.23c-0.76,0.04-1.53,0.07-2.31,0.1
		c-4.69,3.28-10.86,5.2-17.47,5.2c-0.51,0-1.01-0.01-1.52-0.03c-3.78-0.17-6.83-0.88-9.35-2.16c-3-1.52-5.23-3.96-6.13-6.69
		c-0.69-2.12-0.64-4.53-0.59-6.65c0.04-1.86,0.12-3.75,0.39-5.53c-0.37-0.5-0.74-0.99-1.09-1.52c-0.14-0.21-0.36-0.55-0.44-0.99
		c-0.65,2.53-0.81,5.28-0.87,8C34.18,50.23,34.12,52.82,34.92,55.26z"/>
	<path class="st3" d="M12.35,99.17c-3.45,1.32-6.39,4.1-8.27,7.83c-0.59,1.18-1.06,2.53-1.43,4.13c-0.53,2.31-0.63,4.71-0.65,6.55
		c-0.02,1.58,0.93,3.5,1.64,4.81l0.16,0.29c1.76,3.07,4.44,5.54,7.55,6.93c2.06,0.93,4.46,1.42,6.94,1.42c3.84,0,7.4-1.21,9.76-3.32
		c3.78-3.37,5.94-8.37,5.8-13.38c-0.04-1.47-0.32-2.94-0.75-4.35c-0.09-0.02-0.18-0.05-0.27-0.09c-0.27-0.14-0.46-0.39-0.52-0.69
		c-0.7-3.54-3.64-6.29-6.42-8.51c-0.09-0.07-0.16-0.17-0.22-0.26c-2.49-1.46-5.34-2.26-8.2-2.26
		C15.68,98.24,13.96,98.55,12.35,99.17z M28.17,106.7c2.46,3.77,2.84,8.73,0.99,12.95c-1.32,3.01-3.61,5.38-6.46,6.69
		c-1.64,0.75-3.48,1.15-5.33,1.15c-2.29,0-4.5-0.59-6.4-1.71c-1.51-0.9-2.76-2.07-3.73-3.48c-2.57-3.78-2.83-8.7-0.69-13.17
		c2.15-4.47,6.15-7.35,10.71-7.71c0.35-0.03,0.7-0.04,1.05-0.04C22.36,101.37,25.95,103.31,28.17,106.7z"/>
	<path class="st2" d="M33.7,110c-0.13,0.06-0.27,0.08-0.4,0.08c-0.07,0-0.13-0.01-0.2-0.02c0.44,1.42,0.71,2.88,0.75,4.35
		c0.15,5.01-2.02,10.01-5.8,13.38c-2.36,2.11-5.92,3.32-9.76,3.32c-2.48,0-4.88-0.49-6.94-1.42c-3.11-1.4-5.79-3.86-7.55-6.93
		l-0.16-0.29c-0.71-1.31-1.66-3.23-1.64-4.81c0.03-1.83,0.12-4.23,0.65-6.55c0.37-1.6,0.83-2.95,1.43-4.13
		c1.88-3.73,4.82-6.51,8.27-7.83c1.61-0.61,3.33-0.92,5.12-0.92c2.86,0,5.71,0.8,8.2,2.26c-0.12-0.19-0.17-0.41-0.15-0.64
		c0.04-0.35,0.26-0.64,0.58-0.79c0.19-0.09,0.37-0.2,0.55-0.31c-2.79-1.63-5.98-2.52-9.18-2.52c-2.04,0-4,0.35-5.83,1.05
		c-3.92,1.49-7.24,4.62-9.34,8.79c-0.67,1.32-1.19,2.82-1.59,4.58c-0.57,2.5-0.67,5.03-0.7,6.96c-0.03,2.03,0.99,4.16,1.88,5.79
		l0.18,0.33c1.97,3.44,4.97,6.19,8.46,7.76c2.32,1.04,5,1.59,7.76,1.59c4.39,0,8.33-1.36,11.09-3.83c4.21-3.76,6.63-9.34,6.47-14.93
		c-0.05-1.67-0.33-3.31-0.81-4.89C34.59,109.64,34.14,109.8,33.7,110z"/>
	<path class="st4" d="M8.36,109.98c-1.83,3.82-1.63,8,0.54,11.18c0.8,1.17,1.84,2.14,3.09,2.89c1.58,0.94,3.44,1.43,5.38,1.43
		c1.56,0,3.12-0.33,4.5-0.97c2.4-1.1,4.33-3.11,5.46-5.67c1.58-3.61,1.26-7.84-0.83-11.05c-1.86-2.85-4.77-4.42-8.18-4.42
		c-0.29,0-0.59,0.01-0.89,0.04C13.58,103.7,10.2,106.16,8.36,109.98z M23.15,109.43c1.97,2.18,2.63,5.73,1.55,8.43
		c-0.56,1.39-1.53,2.61-2.81,3.5c-1.29,0.91-2.84,1.42-4.35,1.45l-0.13,0c-1.86,0-3.77-0.73-5.23-2.01c-1.6-1.41-2.37-3.57-2.1-5.93
		c0.32-2.77,1.97-5.33,4.22-6.53c1.11-0.59,2.47-0.92,3.83-0.92C20.17,107.42,22,108.15,23.15,109.43z"/>
	<path class="st2" d="M6.56,109.12c-2.14,4.47-1.89,9.39,0.69,13.17c0.96,1.42,2.22,2.59,3.73,3.48c1.89,1.12,4.1,1.71,6.4,1.71
		c1.85,0,3.69-0.4,5.33-1.15c2.84-1.3,5.14-3.68,6.46-6.69c1.85-4.22,1.47-9.18-0.99-12.95c-2.21-3.39-5.8-5.33-9.85-5.33
		c-0.34,0-0.69,0.01-1.05,0.04C12.71,101.77,8.71,104.65,6.56,109.12z M26.49,107.79c2.1,3.21,2.42,7.44,0.83,11.05
		c-1.12,2.56-3.06,4.57-5.46,5.67c-1.38,0.63-2.93,0.97-4.5,0.97c-1.93,0-3.79-0.5-5.38-1.43c-1.25-0.74-2.29-1.72-3.09-2.89
		c-2.17-3.18-2.37-7.36-0.54-11.18c1.83-3.82,5.22-6.28,9.06-6.58c0.3-0.02,0.6-0.04,0.89-0.04
		C21.72,103.37,24.63,104.94,26.49,107.79z"/>
	<path class="st1" d="M12.08,115.1c-0.11,1-0.08,2.87,1.43,4.2c1.1,0.96,2.52,1.52,3.91,1.52l0.09,0c1.12-0.02,2.27-0.41,3.24-1.09
		c0.95-0.67,1.7-1.59,2.1-2.61c0.79-2,0.29-4.73-1.18-6.35c-0.77-0.85-2.06-1.34-3.54-1.34c-1.04,0-2.06,0.24-2.88,0.68
		C13.59,110.99,12.32,112.99,12.08,115.1z"/>
	<path class="st2" d="M10.09,114.87c-0.27,2.36,0.49,4.52,2.1,5.93c1.46,1.28,3.36,2.01,5.23,2.01l0.13,0
		c1.51-0.03,3.06-0.54,4.35-1.45c1.29-0.9,2.26-2.11,2.81-3.5c1.08-2.7,0.42-6.25-1.55-8.43c-1.15-1.27-2.98-2-5.02-2
		c-1.36,0-2.72,0.33-3.83,0.92C12.06,109.54,10.41,112.1,10.09,114.87z M21.67,110.77c1.47,1.62,1.97,4.35,1.18,6.35
		c-0.41,1.01-1.15,1.94-2.1,2.61c-0.97,0.68-2.13,1.07-3.24,1.09l-0.09,0c-1.38,0-2.81-0.55-3.91-1.52c-1.51-1.33-1.54-3.2-1.43-4.2
		c0.24-2.1,1.52-4.11,3.17-4.99c0.82-0.44,1.85-0.68,2.88-0.68C19.61,109.42,20.9,109.91,21.67,110.77z"/>
	<path class="st2" d="M58.24,100.13c-0.55,0.05-0.95,0.54-0.9,1.09c0.05,0.52,0.49,0.9,0.99,0.9c0.03,0,0.06,0,0.1,0
		c2.88-0.28,5.59-1.56,7.63-3.62c0.39-0.39,0.39-1.02,0-1.41c-0.39-0.39-1.02-0.39-1.41,0C62.95,98.79,60.62,99.9,58.24,100.13z"/>
	<path class="st3" d="M37.17,106.64c0.25-0.07,0.72-0.2,0.81-0.34c0.04-0.07,0.06-0.28-0.09-0.84c-0.86-3.03-2.24-5.84-4.12-8.36
		c-0.63-0.85-1-0.94-1.13-0.94c-0.21,0.03-0.46,0.21-0.55,0.28c-0.65,0.48-1.22,1.09-1.82,1.74c-0.63,0.67-1.27,1.36-2.02,1.93
		c2.41,2.04,4.74,4.5,5.73,7.61C35.02,107.3,36.09,106.94,37.17,106.64z"/>
	<path class="st2" d="M39.05,102.61c-0.07-0.18-0.15-0.36-0.22-0.54c-0.89-2.19-2.03-4.26-3.46-6.17c0,0-0.01-0.01-0.01-0.02
		c-0.36-0.48-1.5-1.93-3.08-1.7c-0.58,0.09-1.04,0.39-1.38,0.65c-0.79,0.59-1.45,1.29-2.09,1.98c-0.7,0.75-1.38,1.46-2.15,1.95
		c-0.18,0.11-0.36,0.23-0.55,0.31c-0.32,0.14-0.54,0.44-0.58,0.79c-0.03,0.23,0.03,0.45,0.15,0.64c0.06,0.1,0.13,0.19,0.22,0.26
		c2.78,2.22,5.72,4.97,6.42,8.51c0.06,0.3,0.25,0.55,0.52,0.69c0.08,0.04,0.17,0.07,0.27,0.09c0.06,0.01,0.13,0.02,0.2,0.02
		c0.14,0,0.27-0.03,0.4-0.08c0.44-0.19,0.89-0.36,1.35-0.53c0.88-0.34,1.76-0.65,2.67-0.9c0.59-0.17,1.48-0.41,1.98-1.22
		c0.56-0.9,0.27-1.93,0.13-2.43c-0.03-0.12-0.08-0.23-0.12-0.35C39.5,103.9,39.29,103.25,39.05,102.61z M28.24,100.11
		c0.75-0.57,1.4-1.26,2.02-1.93c0.61-0.65,1.18-1.26,1.82-1.74c0.09-0.07,0.33-0.25,0.55-0.28c0.13,0,0.5,0.09,1.13,0.94
		c1.88,2.52,3.27,5.33,4.12,8.36c0.16,0.56,0.14,0.77,0.09,0.84c-0.08,0.14-0.56,0.27-0.81,0.34c-1.08,0.3-2.16,0.66-3.2,1.08
		C32.98,104.6,30.65,102.15,28.24,100.11z"/>
	<path class="st3" d="M62.8,52.31c-4.76-1.43-9.12-3.75-14.19-6.78c-3.81-2.28-7.7-4.82-10.17-8.54c-0.48,0.77-0.91,1.57-1.29,2.4
		c-0.02,0.05-0.1,0.21-0.1,0.26c0,0,0,0,0,0c0.02,0,0.1,0.12,0.14,0.18c4.14,6.17,9.25,10.59,14.77,12.79
		c1.36,0.54,2.77,0.97,4.14,1.38c2.98,0.89,6.35,1.9,9.7,2.23c0.99,0.1,2.05,0.14,3.25,0.14c1.48,0,2.98-0.07,4.43-0.14
		c0.18-0.01,0.38-0.02,0.47-0.06c0.1-0.04,0.26-0.23,0.35-0.33c0.75-0.84,1.43-1.74,2.03-2.69C72.21,54.03,67.55,53.73,62.8,52.31z"
		/>
	<path class="st2" d="M40.01,36.78c-0.27,0-0.53-0.11-0.72-0.31l-1.71-1.78c-0.08,0.12-0.16,0.25-0.24,0.37
		c-0.19,0.28-0.37,0.56-0.55,0.85c-0.11,0.18-0.24,0.36-0.35,0.54c-0.4,0.68-0.77,1.38-1.1,2.09c-0.16,0.34-0.33,0.75-0.28,1.25
		c0,0.06,0.02,0.1,0.03,0.16c0.08,0.43,0.3,0.78,0.44,0.99c0.35,0.52,0.72,1.02,1.09,1.52c4.17,5.71,9.18,9.86,14.6,12.02
		c1.44,0.57,2.9,1.01,4.31,1.44c3.06,0.92,6.54,1.96,10.08,2.31c1.05,0.1,2.18,0.15,3.44,0.15c0.74,0,1.49-0.02,2.22-0.04
		c0.78-0.03,1.55-0.06,2.31-0.1c0.34-0.02,0.75-0.04,1.18-0.23c0.16-0.07,0.28-0.17,0.41-0.26c0.24-0.18,0.45-0.37,0.62-0.55
		c0.08-0.09,0.16-0.19,0.24-0.29c0.97-1.12,1.83-2.33,2.56-3.62c-0.32-0.32-0.65-0.62-1.01-0.86c-0.23-0.16-0.38-0.4-0.43-0.67
		c-0.04-0.27,0.03-0.55,0.2-0.77c0.05-0.07,0.11-0.13,0.16-0.2c-4.17,1.26-9.09,1.14-14.14-0.38c-4.57-1.37-8.79-3.62-13.74-6.58
		c-3.35-2.01-6.75-4.22-9.02-7.24c-0.12,0.09-0.26,0.17-0.42,0.2C40.14,36.78,40.08,36.78,40.01,36.78z M74.31,55.84
		c-0.09,0.1-0.25,0.28-0.35,0.33c-0.09,0.04-0.29,0.05-0.47,0.06c-1.45,0.07-2.95,0.14-4.43,0.14c-1.2,0-2.26-0.05-3.25-0.14
		c-3.35-0.33-6.73-1.34-9.7-2.23c-1.37-0.41-2.79-0.84-4.14-1.38c-5.52-2.2-10.63-6.63-14.77-12.79c-0.04-0.06-0.12-0.18-0.14-0.18
		c0,0,0,0,0,0c0.01-0.05,0.08-0.21,0.1-0.26c0.38-0.82,0.81-1.62,1.29-2.4c2.47,3.72,6.36,6.25,10.17,8.54
		c5.07,3.04,9.42,5.35,14.19,6.78c4.74,1.42,9.41,1.72,13.54,0.85C75.74,54.11,75.06,55,74.31,55.84z"/>
	<path class="st1" d="M79.9,6.2c0.01,0.53,0.15,1.11,0.4,1.72c0.02-0.14,0.06-0.27,0.11-0.37c0-0.39-0.04-0.76-0.12-1.13
		c-0.04-0.21-0.12-0.51-0.26-0.68C80.02,5.73,80,5.72,79.98,5.71C79.94,5.8,79.9,5.98,79.9,6.2z"/>
	<path class="st2" d="M80.12,10.37c0.05,0.01,0.19,0.02,0.24,0.02c0.6,0,1.18-0.34,1.52-0.9c0.19-0.31,0.29-0.64,0.34-0.93
		c0.1-0.16,0.18-0.37,0.19-0.65c0.02-0.64-0.03-1.28-0.16-1.9c-0.1-0.47-0.27-1.07-0.71-1.57C81,3.81,80.13,3.53,79.39,3.75
		c-0.93,0.28-1.51,1.26-1.49,2.49c0.02,0.91,0.26,1.86,0.73,2.84C78.77,9.37,79.18,10.23,80.12,10.37z M80.29,6.43
		c0.08,0.37,0.12,0.75,0.12,1.13c-0.05,0.1-0.09,0.23-0.11,0.37c-0.26-0.61-0.39-1.19-0.4-1.72c0-0.23,0.04-0.4,0.08-0.5
		c0.02,0.01,0.03,0.03,0.05,0.04C80.17,5.91,80.25,6.21,80.29,6.43z"/>
	<path class="st1" d="M102.84,16.24c-0.41-0.17-0.95-0.19-1.47-0.04c-0.19,0.05-0.38,0.12-0.58,0.22c0.42,0.03,0.84,0.05,1.26,0.05
		l0.34,0c0.25,0,0.5-0.02,0.66-0.08C103.01,16.33,102.93,16.28,102.84,16.24z"/>
	<path class="st2" d="M103.62,14.4c-0.83-0.35-1.83-0.39-2.78-0.13c-0.74,0.2-1.48,0.58-2.25,1.16c-0.15,0.11-0.46,0.35-0.62,0.77
		c-0.23,0.63,0.03,1.37,0.62,1.76c0.4,0.27,0.85,0.33,1.08,0.35c0.79,0.1,1.59,0.15,2.38,0.15l0.39,0c0.42-0.01,0.91-0.04,1.4-0.24
		c0.68-0.28,1.16-0.86,1.27-1.52C105.28,15.62,104.49,14.76,103.62,14.4z M102.05,16.46c-0.42,0-0.84-0.02-1.26-0.05
		c0.2-0.09,0.39-0.17,0.58-0.22c0.53-0.15,1.06-0.13,1.47,0.04c0.09,0.04,0.17,0.09,0.22,0.14c-0.16,0.07-0.42,0.08-0.66,0.08
		L102.05,16.46z"/>
	<path class="st5" d="M37.76,31.98l1.97,2.07c0.9-1.56,2.16-2.86,3.3-4.03c1.56-1.6,3.17-3.25,4.96-4.69
		c1.11-0.89,2.28-1.7,3.42-2.47c5.87-4.02,11.92-8.17,18.54-11.17c-0.44-1.31-0.75-2.67-0.92-4.04c-4.45,3.72-9.24,7.06-13.89,10.31
		c-3.83,2.68-7.79,5.44-11.5,8.38C41.56,27.98,39.4,29.81,37.76,31.98z"/>
	<path class="st2" d="M37.58,34.69l1.71,1.78c0.19,0.2,0.45,0.31,0.72,0.31c0.07,0,0.13-0.01,0.2-0.02c0.15-0.03,0.29-0.1,0.42-0.2
		c0.14-0.11,0.26-0.26,0.32-0.43c0.68-1.82,2.19-3.36,3.52-4.73c1.52-1.55,3.08-3.16,4.79-4.53c1.05-0.84,2.19-1.63,3.31-2.39
		c5.96-4.09,12.12-8.31,18.82-11.25c0.08-0.03,0.16-0.07,0.24-0.11c0.49-0.21,0.73-0.78,0.53-1.28c-0.78-2.01-1.2-4.12-1.26-6.28
		c-0.01-0.39-0.24-0.73-0.6-0.89c-0.13-0.06-0.27-0.08-0.41-0.07c-0.23,0-0.47,0.08-0.65,0.24c-4.78,4.17-10.09,7.88-15.22,11.46
		c-3.85,2.69-7.84,5.48-11.6,8.45c-2.2,1.74-4.49,3.68-6.28,6.04c-0.17,0.22-0.6,0.8-0.45,1.53c0,0.02,0.01,0.04,0.02,0.06
		c0.11,0.43,0.38,0.72,0.53,0.88L37.58,34.69z M55.15,17.95c4.65-3.25,9.44-6.6,13.89-10.31c0.17,1.37,0.48,2.72,0.92,4.04
		c-6.63,3-12.68,7.15-18.54,11.17c-1.14,0.78-2.31,1.59-3.42,2.47c-1.8,1.44-3.41,3.09-4.96,4.69c-1.14,1.17-2.41,2.47-3.3,4.03
		l-1.97-2.07c1.65-2.17,3.81-3.99,5.89-5.65C47.36,23.4,51.32,20.63,55.15,17.95z"/>
	<path class="st5" d="M94.66,38.1c2.52-3.35,5.11-6.81,6.84-10.65c-1.15,0.03-2.31-0.03-3.45-0.16c-0.23-0.03-0.44-0.07-0.62-0.12
		c-2.9,6.01-6.6,11.59-11.01,16.61c-0.9,1.02-1.82,2.02-2.75,3.01c-1.39,1.49-2.82,3.03-4.12,4.63c0.61,0.54,1.13,1.15,1.65,1.75
		c0.57,0.66,1.12,1.29,1.73,1.78c0.21-0.49,0.47-0.95,0.74-1.39c2.64-4.34,5.73-8.46,8.71-12.44L94.66,38.1z"/>
	<path class="st2" d="M103.83,25.76c-0.21-0.27-0.54-0.43-0.88-0.39c-1.54,0.13-3.12,0.11-4.67-0.07c-0.17-0.02-0.28-0.05-0.33-0.07
		c-0.15-0.32-0.46-0.54-0.83-0.57c-0.42-0.03-0.81,0.2-0.98,0.58c-0.12,0.26-0.25,0.51-0.37,0.77c-2.84,5.95-6.48,11.48-10.84,16.44
		c-0.88,1.01-1.8,1.99-2.71,2.97c-1.58,1.7-3.22,3.47-4.69,5.35c-0.05,0.07-0.11,0.13-0.16,0.2c-0.17,0.22-0.24,0.5-0.2,0.77
		c0.04,0.27,0.2,0.51,0.43,0.67c0.36,0.24,0.69,0.54,1.01,0.86c0.37,0.37,0.73,0.78,1.09,1.2c0.98,1.13,1.99,2.3,3.47,2.93
		c0.13,0.05,0.26,0.08,0.39,0.08c0.05,0,0.1-0.01,0.15-0.02c0.13-0.02,0.26-0.06,0.37-0.12c0.28-0.17,0.45-0.46,0.48-0.78
		c0.05-0.63,0.4-1.26,0.83-1.96c2.58-4.26,5.65-8.33,8.6-12.27l2.28-3.03c2.78-3.71,5.65-7.54,7.45-11.97
		c0.08-0.21,0.18-0.41,0.26-0.61C104.09,26.4,104.04,26.03,103.83,25.76z M82.94,54.95c-0.61-0.49-1.16-1.12-1.73-1.78
		c-0.51-0.59-1.04-1.2-1.65-1.75c1.3-1.6,2.73-3.14,4.12-4.63c0.93-1,1.85-1.99,2.75-3.01c4.41-5.02,8.11-10.6,11.01-16.61
		c0.18,0.05,0.39,0.09,0.62,0.12c1.14,0.13,2.3,0.19,3.45,0.16c-1.72,3.84-4.32,7.3-6.84,10.65l-2.28,3.03
		c-2.99,3.98-6.08,8.09-8.71,12.44C83.41,54,83.14,54.46,82.94,54.95z"/>
</g>
</svg>
