<?xml version="1.0" encoding="utf-8"?>
<!-- Generator: Adobe Illustrator 23.1.0, SVG Export Plug-In . SVG Version: 6.00 Build 0)  -->
<svg version="1.1" id="Vrstva_10" xmlns="http://www.w3.org/2000/svg" xmlns:xlink="http://www.w3.org/1999/xlink" x="0px" y="0px"
	 viewBox="0 0 110.265 133.11" enable-background="new 0 0 110.265 133.11" xml:space="preserve">
<g>
	<path fill="none" d="M36.817,54.641c0.894,2.727,3.127,5.165,6.126,6.689c2.515,1.278,5.572,1.984,9.349,2.156
		c0.503,0.023,1.011,0.034,1.518,0.034c6.604,0,12.778-1.915,17.467-5.196c-0.737,0.026-1.479,0.044-2.222,0.044
		c-1.264,0-2.391-0.051-3.444-0.154c-3.544-0.349-7.018-1.389-10.082-2.306c-1.412-0.424-2.872-0.861-4.311-1.436
		c-5.419-2.163-10.43-6.313-14.597-12.02c-0.269,1.787-0.353,3.672-0.394,5.534C36.178,50.115,36.124,52.525,36.817,54.641z"/>
	<path fill="#466D5C" d="M73.049,12.794c0.067-0.015,0.11-0.051,0.131-0.083c-0.044-0.11,0.628,0.083,0.616-0.036
		c-0.053-0.534-0.031-0.866,0.307-1.278c0.387-0.474,0.412-1.254,1.019-1.254c0.248,0,0.488,0.047,0.712,0.14
		c0.966,0.4,1.47,1.384,1.765,2.09l0.084,0.203c0.182,0.445,0.355,0.864,0.583,1.059c0.218,0.187,0.61,0.267,0.961,0.329
		c1.372,0.24,2.194,0.16,2.816-0.242c0.534-0.347,0.95-1.001,1.286-1.595c0.97-1.713,1.393-3.179,1.294-4.48
		c-0.135-1.772-1.24-3.387-2.359-4.888c-0.475-0.637-0.909-1.183-1.419-1.415c-0.622-0.281-1.521-0.064-2.18,0.509
		c-0.624,0.544-1.14,1.382-1.621,2.637c-0.122,0.321-0.37,0.563-0.675,0.661c-0.306,0.096-0.633,0.038-0.894-0.158
		c-0.689-0.519-1.302-1.146-1.826-1.865c-0.521-0.207-1.32,0.168-1.712,0.778c-0.461,0.716-0.647,1.734-0.584,3.207
		c0.05,1.208,0.231,2.49,0.539,3.81c0.152,0.649,0.309,1.155,0.572,1.505C72.626,12.643,72.867,12.794,73.049,12.794z"/>
	<path fill="#466D5C" d="M108.403,24.951c0.29-0.217,0.516-0.595,0.564-0.942c0.028-0.198-0.003-0.357-0.092-0.473
		c-0.099-0.129-0.168-0.279-0.202-0.439c-0.049-0.019-0.178-0.623-0.408-0.707c-0.556-0.205-1.464,0.016-1.951-0.588
		c-0.698-0.866-0.705-2.155-0.016-3.364c0.155-0.269,0.332-0.526,0.51-0.78c0.241-0.343,0.467-0.668,0.574-0.978
		c0.417-1.218-0.902-2.676-2.365-3.328c-0.993-0.443-2.13-0.677-3.286-0.677c-2.94,0-5.642,1.458-6.883,3.714
		c-0.129,0.237-0.307,0.59-0.338,0.909c-0.05,0.504,0.246,1.123,0.792,1.659c0.388,0.381,0.862,0.71,1.362,1.057
		c0.277,0.191,0.554,0.384,0.821,0.587c0.118,0.09,0.216,0.202,0.289,0.33c0.635,1.112-0.811,1.991-1.735,2.585
		c-0.32,0.206,0.181,0.785-0.153,0.869c1.563,1.007,3.626,1.483,6.379,1.483c0.001,0,0.001,0,0.001,0
		c1.008,0,2.115-0.063,3.48-0.198C106.815,25.565,107.75,25.439,108.403,24.951z"/>
	<path fill="#4C3E44" d="M74.255,57.828c-4.592,4.318-10.845,7.21-20.499,7.21c-0.538,0-1.211-0.078-1.745-0.102
		c-4.065-0.186-6.687-0.993-9.46-2.403c-3.468-1.764-5.795-3.934-6.852-7.159c-0.8-2.441-1.176-5.128-1.125-7.415
		c0.06-2.711,0.219-4.988,0.869-7.517c-0.01-0.053,0,0,0.511-0.716c0.29-0.406,0.324-1.089,0.484-1.432
		c0.33-0.713,0.218-0.904,0.616-1.585c0.104-0.187,0.517-0.346,0.632-0.528c0.178-0.287,0.277-0.983,0.467-1.262
		c-0.264-0.223-1.503-1.107-1.715-1.381c-3.588,3.948-6.111,10.116-6.057,15.443c0.057,5.76,2.684,11.623,6.903,15.545
		c0.232,0.216,0.291,0.453,0.256,0.767s-0.212,0.351-0.485,0.511c-2.712,1.58-4.477,5.048-4.322,8.182
		c0.153,3.133,2.72,6.977,5.574,8.284c1.331,0.609,3.569,0.818,5.318,0.818c2.035,0,4.688-0.361,6.903-0.767
		c2.25-0.412,3.423-0.817,5.727-0.818c2.151,0,3.349,0.225,4.705,1.074c3.188,1.996,4.036,5.969,2.148,9.665
		c-1.571,3.072-4.848,4.606-8.949,5.472c-1.461,0.308-2.75,0.529-4.551,0.529c-1.962,0-4.207-0.217-5.983-0.375l-7.466-0.409
		c0.71,1.273,1.438,3.276,1.857,4.669c0.073,0.18,0.887,1.388,0.955,1.569c0.448-0.059,1.313-0.33,1.79-0.33
		c2.354,0,4.461,0.639,6.699,1.353c1.8,0.574,3.764,1.207,5.574,1.381c0.399,0.038,1.444-0.205,1.841-0.205
		c4.143,0,7.681-1.502,12.58-5.574c1.576-1.312,3.476-3.006,4.244-4.449c1.979-3.718,0.763-8.987-0.869-12.324
		c-1.72-3.518-3.775-5.821-5.983-6.597c-0.849-0.298-1.855-0.767-3.119-0.767c-0.694,0-1.765,0.113-2.455,0.153l-12.477,0.511
		c-0.319,0.019-1.263,0.051-1.585,0.051c-0.519,0-0.878,0.124-1.636-0.205c-2.176-0.943-2.421-2.55-1.943-4.551
		c0.463-1.948,0.918-3.208,2.045-4.551c0.183-0.218,0.432-0.451,0.716-0.46c0.282-0.017,0.571,0.152,0.767,0.358
		c2.001,2.095,4.58,3.528,8.58,3.528c1.109,0,3.002-0.446,4.204-0.614c9.187-1.281,18.058-6.543,24.188-13.5
		c-1.288-0.674-2.809-2.659-3.528-3.919c-0.691,1.011-2.078,2.64-3.017,3.612c-0.082,0.095-0.478,0.522-0.563,0.615
		C74.853,57.404,74.494,57.653,74.255,57.828z"/>
	<path fill="#4C331B" d="M36.79,35.909c-0.115,0.182-0.248,0.354-0.352,0.542C36.547,36.265,36.676,36.092,36.79,35.909z"/>
	<path fill="#4C3E44" d="M12.073,98.332c-3.646,1.39-6.749,4.327-8.739,8.268c-0.627,1.242-1.119,2.668-1.506,4.361
		c-0.558,2.443-0.66,4.979-0.687,6.915c-0.023,1.666,0.979,3.696,1.734,5.079l0.169,0.302c1.857,3.247,4.689,5.847,7.975,7.324
		c2.178,0.979,4.715,1.497,7.336,1.497c4.055,0,7.814-1.278,10.309-3.506c3.989-3.561,6.28-8.845,6.125-14.134
		c-0.045-1.558-0.336-3.104-0.796-4.6c-0.097-0.019-0.191-0.048-0.281-0.095c-0.285-0.149-0.486-0.417-0.549-0.731
		c-0.74-3.742-3.843-6.643-6.78-8.988c-0.098-0.078-0.172-0.175-0.236-0.279c-2.63-1.543-5.64-2.389-8.666-2.389
		C15.59,97.356,13.771,97.684,12.073,98.332z"/>
	<path fill="#63B595" d="M7.788,109.753c-1.96,4.084-1.745,8.556,0.575,11.964c0.854,1.253,1.967,2.293,3.31,3.089
		c1.693,1.004,3.682,1.535,5.752,1.535c1.674,0,3.339-0.357,4.813-1.034c2.566-1.177,4.639-3.333,5.84-6.071
		c1.694-3.863,1.352-8.395-0.891-11.829c-1.994-3.053-5.102-4.733-8.751-4.733c-0.311,0-0.63,0.013-0.952,0.038
		C13.374,103.034,9.75,105.665,7.788,109.753z"/>
	<path fill="#4C331B" d="M6.561,109.116c-2.143,4.467-1.886,9.39,0.688,13.17c0.964,1.416,2.217,2.587,3.726,3.482
		c1.891,1.121,4.103,1.714,6.396,1.714c1.851,0,3.694-0.396,5.331-1.147c2.843-1.305,5.136-3.68,6.455-6.688
		c1.851-4.221,1.472-9.183-0.99-12.951c-2.213-3.386-5.804-5.328-9.852-5.328c-0.342,0-0.692,0.014-1.046,0.041
		C12.71,101.766,8.707,104.646,6.561,109.116z M26.491,107.79c2.097,3.209,2.416,7.444,0.833,11.054
		c-1.122,2.559-3.06,4.573-5.457,5.673c-1.377,0.632-2.933,0.966-4.497,0.966c-1.935,0-3.793-0.496-5.375-1.435
		c-1.255-0.744-2.295-1.716-3.093-2.887c-2.168-3.185-2.368-7.363-0.537-11.18c1.833-3.819,5.22-6.278,9.06-6.579
		c0.301-0.023,0.599-0.035,0.89-0.035C21.723,103.367,24.627,104.937,26.491,107.79z"/>
	<path fill="#466D5C" d="M11.463,114.993c-0.129,1.126-0.093,3.238,1.613,4.737c1.239,1.088,2.844,1.711,4.407,1.711l0.101-0.001
		c1.261-0.022,2.56-0.458,3.659-1.228c1.073-0.75,1.915-1.795,2.373-2.94c0.897-2.254,0.326-5.334-1.328-7.166
		c-0.872-0.964-2.326-1.518-3.991-1.518c-1.171,0-2.328,0.272-3.254,0.768C13.176,110.356,11.738,112.621,11.463,114.993z"/>
	<path fill="#4C331B" d="M10.09,114.869c-0.272,2.358,0.492,4.519,2.096,5.928c1.457,1.28,3.362,2.015,5.226,2.015l0.125-0.001
		c1.512-0.027,3.059-0.542,4.354-1.449c1.285-0.898,2.258-2.11,2.813-3.504c1.075-2.7,0.423-6.246-1.55-8.431
		c-1.151-1.273-2.981-2.004-5.021-2.004c-1.36,0-2.72,0.325-3.827,0.917C12.064,109.538,10.41,112.101,10.09,114.869z
		 M21.669,110.767c1.466,1.623,1.972,4.353,1.177,6.35c-0.405,1.015-1.151,1.94-2.103,2.605c-0.974,0.682-2.125,1.068-3.242,1.088
		l-0.09,0.001c-1.385,0-2.808-0.553-3.905-1.517c-1.512-1.328-1.544-3.199-1.43-4.197c0.243-2.103,1.518-4.109,3.173-4.994
		c0.821-0.439,1.846-0.681,2.884-0.681C19.608,109.423,20.897,109.913,21.669,110.767z"/>
	<path fill="#4C331B" d="M58.236,100.133c-0.55,0.054-0.952,0.542-0.898,1.092c0.05,0.517,0.485,0.903,0.994,0.903
		c0.032,0,0.064-0.002,0.098-0.005c2.88-0.28,5.591-1.563,7.632-3.615c0.39-0.391,0.388-1.024-0.004-1.414
		c-0.39-0.39-1.024-0.387-1.414,0.004C62.955,98.794,60.619,99.9,58.236,100.133z"/>
	<path fill="#4C3E44" d="M37.704,107.781c0.289-0.084,0.827-0.24,0.924-0.407c0.051-0.086,0.074-0.33-0.108-1.004
		c-0.976-3.616-2.559-6.977-4.705-9.99c-0.72-1.011-1.139-1.12-1.284-1.12c-0.244,0.036-0.52,0.252-0.625,0.334
		c-0.736,0.576-1.389,1.308-2.081,2.082c-0.715,0.802-1.447,1.621-2.308,2.302c2.747,2.437,5.402,5.371,6.536,9.089
		C35.245,108.572,36.468,108.141,37.704,107.781z"/>
	<path fill="#4C3E44" d="M63.211,52.001c-4.839-1.621-9.262-4.243-14.412-7.68c-3.87-2.584-7.818-5.452-10.33-9.664
		c-0.486,0.875-0.925,1.781-1.309,2.712c-0.025,0.059-0.097,0.232-0.105,0.293c0,0,0.001,0,0.002,0c0.017,0-0.896,1.793-0.856,1.86
		c4.207,6.984,9.897,11.313,15.504,13.807c1.377,0.613,3.486,1.155,4.878,1.62c3.025,1.01,6.547,1.841,9.951,2.215
		c1.005,0.111,2.212,0.012,3.429,0.012c1.503,0,2.626-0.657,4.1-0.735c0.181-0.01,0.387-0.021,0.477-0.065
		c0.101-0.05,0.269-0.26,0.359-0.372c0.766-0.949,1.456-2.316,2.066-3.392C72.768,53.598,68.029,53.613,63.211,52.001z"/>
	<path fill="#4C331B" d="M80.119,10.37c0.05,0.007,0.187,0.018,0.237,0.018c0.599,0,1.183-0.344,1.524-0.897
		c0.193-0.313,0.287-0.641,0.344-0.927c0.104-0.155,0.177-0.365,0.188-0.648c0.024-0.637-0.029-1.275-0.161-1.903
		c-0.1-0.467-0.27-1.067-0.709-1.572c-0.544-0.629-1.414-0.909-2.15-0.688c-0.929,0.282-1.514,1.26-1.49,2.491
		c0.018,0.906,0.265,1.863,0.734,2.845C78.771,9.37,79.182,10.227,80.119,10.37z M80.294,6.426c0.078,0.371,0.119,0.748,0.123,1.134
		c-0.049,0.104-0.087,0.226-0.111,0.369c-0.258-0.612-0.394-1.19-0.404-1.725c-0.005-0.226,0.04-0.403,0.082-0.498
		c0.016,0.012,0.033,0.026,0.049,0.044C80.172,5.912,80.249,6.214,80.294,6.426z"/>
	<path fill="#4C331B" d="M103.62,14.395c-0.832-0.349-1.826-0.394-2.782-0.126c-0.741,0.204-1.477,0.584-2.245,1.159
		c-0.151,0.112-0.465,0.346-0.622,0.768c-0.232,0.625,0.027,1.367,0.617,1.764c0.402,0.271,0.849,0.325,1.085,0.354
		c0.789,0.098,1.59,0.147,2.38,0.147l0.387-0.004c0.422-0.01,0.913-0.037,1.396-0.238c0.677-0.282,1.164-0.863,1.271-1.517
		C105.285,15.619,104.49,14.764,103.62,14.395z M102.052,16.461c-0.419,0-0.841-0.016-1.263-0.047
		c0.198-0.093,0.391-0.165,0.581-0.217c0.525-0.148,1.06-0.132,1.472,0.041c0.092,0.039,0.166,0.091,0.218,0.136
		c-0.163,0.066-0.418,0.078-0.664,0.083L102.052,16.461z"/>
	<path fill="#D3CED2" d="M36.837,32.208l3.063,2.448c1.786-0.557,1.901-1.895,3.111-3.163c1.646-1.727,3.368-4.014,5.267-5.574
		c1.171-0.961,2.89-1.816,4.091-2.659c6.202-4.351,11.3-7.955,18.307-11.199c-0.466-1.421-1.301-3.76-1.483-5.243
		c-4.702,4.018-9.352,6.895-14.267,10.408c-4.049,2.895-8.859,5.877-12.784,9.051C39.934,28.062,38.577,29.864,36.837,32.208z"/>
	<path fill="#D3CED2" d="M95.272,39.061c2.519-3.354,5.028-8.054,6.75-11.894c-1.152,0.026-2.235-0.452-3.375-0.583
		c-0.231-0.026-1.454,0.053-1.636,0c-2.902,6.01-7.15,12.115-11.557,17.131c-0.896,1.021-1.836,1.969-2.761,2.965
		c-1.388,1.494-2.789,3.409-4.091,5.012c0.606,0.542,1.633,1.911,2.148,2.506c0.569,0.659,1.588,0.996,2.199,1.483
		c0.206-0.487,1.114-1.095,1.381-1.534c2.637-4.344,5.296-8.089,8.284-12.068L95.272,39.061z"/>
	<path fill="#4C331B" d="M109.883,22.209c-0.306-0.909-1.182-1.232-1.775-1.451c-0.275-0.102-0.619-0.228-0.717-0.35
		c-0.073-0.091-0.057-0.438,0.165-0.826c0.11-0.193,0.239-0.376,0.367-0.559c0.275-0.394,0.588-0.84,0.777-1.39
		c0.786-2.295-1.081-4.556-3.237-5.517c-1.162-0.519-2.481-0.792-3.816-0.792c-3.404,0-6.56,1.738-8.04,4.43
		c-0.203,0.371-0.481,0.941-0.546,1.597c-0.106,1.07,0.371,2.214,1.313,3.139c0.477,0.468,0.999,0.831,1.506,1.182
		c0.107,0.075,0.215,0.149,0.322,0.226c-0.019,0.021-0.041,0.042-0.066,0.059c-0.264,0.169-0.726,0.199-1.133,0.226
		c-0.267,0.018-0.515,0.141-0.689,0.342c-0.176,0.201-0.263,0.464-0.243,0.729c0.006,0.089-0.023,0.188-0.077,0.261
		c-0.312,0.413-0.256,0.995,0.127,1.343c0.492,0.446,1.04,0.828,1.639,1.155c-2.844,5.953-6.481,11.484-10.837,16.442
		c-0.885,1.008-1.799,1.99-2.712,2.974c-1.583,1.704-3.215,3.467-4.688,5.347c-4.17,1.264-9.09,1.136-14.142-0.382
		c-4.566-1.371-8.794-3.624-13.736-6.583c-3.352-2.009-6.745-4.224-9.018-7.242c0.142-0.111,0.256-0.257,0.321-0.432
		c0.683-1.818,2.19-3.362,3.521-4.726c1.516-1.554,3.082-3.159,4.785-4.526c1.049-0.842,2.192-1.626,3.308-2.392
		c5.96-4.087,12.123-8.307,18.822-11.25c0.671,0.644,1.603,0.939,2.43,0.725c0.622-0.161,1.149-0.624,1.409-1.238
		c0.117-0.275,0.171-0.562,0.161-0.842c0.114,0.132,0.235,0.338,0.363,0.617l0.073,0.163c0.241,0.537,0.541,1.205,1.15,1.679
		c0.553,0.431,1.203,0.581,1.823,0.681c0.595,0.096,1.089,0.141,1.554,0.141c0.966,0,1.77-0.198,2.456-0.604
		c0.88-0.521,1.455-1.33,1.901-2.053c1.154-1.862,1.652-3.532,1.521-5.104c-0.175-2.107-1.477-3.861-2.683-5.339
		c-0.602-0.737-1.217-1.431-2.127-1.81C80.158-0.268,78.52,0.03,77.33,0.979c-0.595,0.474-1.102,1.084-1.553,1.877
		c-0.182-0.187-0.353-0.387-0.51-0.598c-0.077-0.103-0.174-0.189-0.283-0.256c-1.358-0.82-3.438-0.24-4.431,1.172
		c-0.321,0.456-0.531,0.947-0.672,1.44c-0.234,0.002-0.466,0.076-0.649,0.236c-4.779,4.165-10.089,7.875-15.224,11.463
		c-3.854,2.693-7.84,5.479-11.599,8.451c-2.204,1.742-4.49,3.68-6.276,6.042c-0.165,0.219-0.603,0.801-0.453,1.529
		c0.004,0.02,0.013,0.036,0.018,0.056c-4.256,4.359-6.75,10.513-6.689,16.602c0.058,5.883,2.496,11.784,6.577,16.032
		c-2.714,2.095-4.366,5.558-4.197,8.987c0.189,3.859,2.679,7.534,6.193,9.144c1.598,0.731,3.368,1.087,5.41,1.087
		c2.217,0,4.498-0.418,6.705-0.822c2.161-0.396,4.396-0.806,6.518-0.807c1.765,0,3.123,0.313,4.152,0.957
		c2.589,1.621,2.958,5.391,1.678,7.895c-1.276,2.495-4.102,4.42-7.557,5.149c-1.324,0.279-2.775,0.414-4.436,0.414
		c-1.873,0-3.755-0.168-5.574-0.33l-9.124-0.814c-0.36-0.482-1.503-1.932-3.078-1.696c-0.577,0.091-1.042,0.395-1.383,0.649
		c-0.788,0.589-1.448,1.295-2.087,1.978c-0.703,0.751-1.38,1.456-2.154,1.947c-2.788-1.628-5.977-2.52-9.184-2.52
		c-2.036,0-3.998,0.354-5.833,1.055c-3.918,1.494-7.236,4.617-9.345,8.794c-0.668,1.322-1.188,2.821-1.59,4.584
		c-0.57,2.495-0.674,5.032-0.701,6.964c-0.027,2.025,0.994,4.16,1.884,5.789l0.182,0.325c1.966,3.438,4.972,6.194,8.465,7.764
		c2.317,1.042,5.003,1.593,7.765,1.593c4.388,0,8.326-1.359,11.091-3.826c4.211-3.76,6.628-9.341,6.466-14.93
		c-0.049-1.67-0.33-3.314-0.809-4.891c0.876-0.335,1.764-0.645,2.668-0.896c0.59-0.165,1.481-0.413,1.978-1.221
		c0.557-0.903,0.267-1.935,0.126-2.432c-0.034-0.12-0.082-0.235-0.118-0.354c0.241-0.02,0.481-0.041,0.733-0.041
		c2.044,0,4.11,0.659,6.3,1.358c1.899,0.605,3.863,1.232,5.886,1.427c0.464,0.045,0.924,0.066,1.384,0.066
		c4.63,0,9.443-2.131,14.716-6.516c1.521-1.265,3.063-2.688,4.038-4.52c1.881-3.532,1.482-8.247-1.15-13.633
		c-1.237-2.529-3.298-6.038-6.893-7.299c-1.067-0.375-2.262-0.55-3.76-0.55c-0.732,0-1.47,0.041-2.197,0.083l-12.766,0.738
		c-0.281,0.017-0.567,0.032-0.851,0.032c-0.541,0-0.94-0.063-1.259-0.202c-1.118-0.484-1.501-2.08-1.215-3.281
		c0.274-1.152,1.006-2.21,1.78-3.173c2.353,1.997,5.602,3.008,9.676,3.008c1.201,0,2.467-0.092,3.76-0.272
		c9.974-1.391,19.355-6.604,25.826-14.319c0.13-0.019,0.258-0.055,0.373-0.125c0.275-0.168,0.454-0.458,0.479-0.779
		c0.048-0.633,0.404-1.265,0.828-1.965c2.585-4.259,5.646-8.333,8.604-12.273l2.275-3.029c2.784-3.707,5.645-7.542,7.446-11.967
		c0.554-0.031,1.147-0.079,1.801-0.143c1.231-0.121,2.42-0.292,3.427-1.045c0.696-0.52,1.182-1.338,1.3-2.188
		C110.326,23.321,110.2,22.71,109.883,22.209z M48.616,45.524c5.07,3.036,9.424,5.352,14.188,6.783
		c4.743,1.424,9.408,1.72,13.54,0.849c-0.601,0.95-1.28,1.849-2.034,2.687c-0.089,0.099-0.254,0.284-0.354,0.328
		c-0.089,0.039-0.292,0.049-0.47,0.058c-1.451,0.069-2.952,0.142-4.432,0.142c-1.197,0-2.26-0.047-3.249-0.145
		c-3.352-0.33-6.726-1.34-9.703-2.231c-1.37-0.411-2.787-0.836-4.143-1.377c-5.52-2.202-10.625-6.627-14.767-12.795
		c-0.04-0.059-0.12-0.179-0.137-0.179c-0.001,0-0.002,0-0.002,0c0.008-0.054,0.079-0.207,0.104-0.259
		c0.379-0.822,0.811-1.623,1.289-2.396C40.919,40.709,44.806,43.242,48.616,45.524z M36.226,47.989
		c0.041-1.863,0.125-3.747,0.394-5.534c4.167,5.706,9.178,9.857,14.597,12.02c1.438,0.574,2.898,1.012,4.311,1.436
		c3.064,0.917,6.538,1.957,10.082,2.306c1.054,0.104,2.181,0.154,3.444,0.154c0.743,0,1.486-0.018,2.222-0.044
		c-4.689,3.281-10.863,5.196-17.467,5.196c-0.507,0-1.015-0.011-1.518-0.034c-3.776-0.172-6.834-0.878-9.349-2.156
		c-2.999-1.524-5.232-3.963-6.126-6.689C36.124,52.525,36.178,50.115,36.226,47.989z M72.189,4.325
		c0.372-0.529,1.131-0.854,1.625-0.675c0.497,0.624,1.079,1.168,1.733,1.618c0.248,0.17,0.559,0.22,0.849,0.137
		c0.289-0.085,0.524-0.295,0.641-0.573c0.457-1.089,0.946-1.816,1.539-2.288c0.625-0.497,1.479-0.686,2.069-0.441
		c0.483,0.201,0.896,0.675,1.347,1.228c1.063,1.303,2.111,2.704,2.239,4.241c0.094,1.129-0.308,2.4-1.229,3.887
		c-0.319,0.516-0.714,1.083-1.221,1.384c-0.59,0.349-1.37,0.418-2.673,0.21c-0.333-0.054-0.705-0.123-0.912-0.285
		c-0.217-0.169-0.381-0.533-0.554-0.919l-0.08-0.176c-0.28-0.612-0.759-1.467-1.676-1.813c-0.213-0.08-0.44-0.121-0.676-0.121
		c-0.576,0-1.141,0.245-1.508,0.656c-0.32,0.357-0.468,0.809-0.417,1.271c0.012,0.104,0.04,0.205,0.082,0.301
		c-0.02,0.028-0.061,0.06-0.124,0.072c-0.173,0-0.401-0.131-0.556-0.319c-0.25-0.304-0.398-0.742-0.543-1.306
		c-0.292-1.146-0.464-2.258-0.512-3.306C71.575,5.83,71.752,4.946,72.189,4.325z M43.65,26.333c3.713-2.936,7.674-5.703,11.504-8.38
		c4.649-3.249,9.44-6.597,13.889-10.313c0.172,1.372,0.479,2.723,0.92,4.037c-6.629,3-12.678,7.147-18.545,11.171
		c-1.136,0.779-2.311,1.586-3.418,2.475c-1.797,1.442-3.407,3.093-4.965,4.689c-1.145,1.173-2.409,2.469-3.305,4.031l-1.975-2.065
		C39.402,29.81,41.561,27.984,43.65,26.333z M28.054,127.792c-2.362,2.108-5.92,3.318-9.759,3.318c-2.481,0-4.883-0.49-6.944-1.417
		c-3.11-1.397-5.791-3.859-7.549-6.933l-0.16-0.286c-0.715-1.309-1.663-3.23-1.642-4.808c0.025-1.833,0.122-4.233,0.65-6.546
		c0.366-1.603,0.832-2.952,1.426-4.128c1.884-3.73,4.821-6.511,8.272-7.826c1.606-0.613,3.329-0.924,5.12-0.924
		c2.864,0,5.713,0.801,8.203,2.261c0.06,0.098,0.131,0.19,0.223,0.264c2.78,2.22,5.718,4.966,6.418,8.508
		c0.06,0.298,0.25,0.552,0.52,0.692c0.085,0.044,0.174,0.071,0.266,0.09c0.436,1.416,0.711,2.88,0.754,4.355
		C33.999,119.419,31.831,124.421,28.054,127.792z M37.984,106.299c-0.085,0.14-0.557,0.271-0.81,0.341
		c-1.084,0.302-2.156,0.662-3.201,1.076c-0.994-3.111-3.321-5.567-5.729-7.606c0.755-0.57,1.396-1.256,2.023-1.927
		c0.606-0.647,1.179-1.26,1.824-1.742c0.092-0.068,0.334-0.249,0.548-0.279c0.128,0,0.495,0.092,1.126,0.938
		c1.881,2.521,3.269,5.334,4.124,8.36C38.048,106.022,38.029,106.226,37.984,106.299z M57.602,69.806
		c-1.202,0.168-2.374,0.253-3.483,0.253c-4,0-7.042-1.063-9.043-3.157c-0.196-0.206-0.474-0.325-0.756-0.309
		c-0.284,0.009-0.551,0.138-0.733,0.355c-1.128,1.343-2.406,2.864-2.869,4.813c-0.478,2.001,0.189,4.637,2.365,5.58
		c0.759,0.328,1.535,0.366,2.054,0.366c0.322,0,0.647-0.018,0.967-0.036l12.765-0.738c0.689-0.04,1.388-0.079,2.082-0.079
		c1.265,0,2.249,0.139,3.098,0.437c2.208,0.775,4.038,2.773,5.758,6.291c1.632,3.337,3.161,8.096,1.182,11.813
		c-0.769,1.442-1.976,2.611-3.552,3.923c-4.898,4.072-9.294,6.053-13.437,6.053c-0.396,0-0.793-0.019-1.192-0.057
		c-1.81-0.174-3.67-0.769-5.47-1.343c-2.238-0.714-4.553-1.452-6.907-1.452c-0.476,0-0.933,0.033-1.381,0.092
		c-0.069-0.181-0.151-0.356-0.224-0.535c-0.419-1.394-0.985-2.751-1.695-4.024l7.173,0.641c1.776,0.158,3.79,0.338,5.752,0.338
		c1.801,0,3.387-0.149,4.848-0.457c4.101-0.865,7.354-3.124,8.926-6.196c1.889-3.695,0.79-8.504-2.398-10.5
		c-1.356-0.849-3.062-1.262-5.213-1.262c-2.304,0.001-4.629,0.427-6.879,0.839c-2.216,0.406-4.309,0.79-6.344,0.79
		c-1.749,0-3.247-0.296-4.578-0.905c-2.854-1.307-4.874-4.29-5.027-7.423c-0.155-3.134,1.563-6.301,4.274-7.881
		c0.273-0.16,0.455-0.439,0.49-0.754s-0.081-0.627-0.313-0.843c-4.22-3.923-6.772-9.704-6.829-15.464
		c-0.054-5.327,2.027-10.713,5.615-14.661c0.212,0.273,0.453,0.524,0.717,0.747c-0.19,0.279-0.373,0.562-0.552,0.849
		c-0.114,0.183-0.243,0.356-0.352,0.542c-0.399,0.681-0.766,1.379-1.095,2.093c-0.159,0.343-0.325,0.751-0.28,1.248
		c0.005,0.056,0.021,0.104,0.031,0.157c-0.65,2.529-0.806,5.285-0.866,7.996c-0.051,2.287-0.109,4.879,0.69,7.32
		c1.058,3.226,3.652,6.086,7.12,7.85c2.773,1.41,6.098,2.186,10.163,2.371c0.534,0.024,1.071,0.036,1.609,0.036
		c9.654,0,16.78-3.47,21.372-7.788c0.238-0.175,0.449-0.367,0.618-0.555c0.084-0.094,0.159-0.194,0.242-0.289
		c0.939-0.972,1.763-1.976,2.455-2.986c0.72,1.26,1.8,2.306,3.088,2.979C75.453,63.84,66.789,68.525,57.602,69.806z M94.665,38.096
		l-2.275,3.029c-2.988,3.979-6.078,8.094-8.715,12.438c-0.267,0.439-0.531,0.898-0.737,1.386c-0.611-0.487-1.161-1.122-1.73-1.781
		c-0.515-0.595-1.042-1.204-1.648-1.746c1.302-1.603,2.729-3.14,4.117-4.634c0.926-0.996,1.852-1.993,2.748-3.014
		c4.407-5.016,8.107-10.597,11.01-16.606c0.183,0.053,0.388,0.094,0.619,0.12c1.14,0.131,2.296,0.186,3.448,0.159
		C99.779,31.286,97.183,34.742,94.665,38.096z M107.741,24.54c-0.596,0.445-1.45,0.561-2.426,0.656
		c-1.247,0.123-2.258,0.181-3.179,0.181c0,0,0,0-0.001,0c-2.515,0-4.399-0.435-5.827-1.354c0.305-0.077,0.616-0.195,0.908-0.384
		c0.845-0.542,1.396-1.756,0.816-2.771c-0.066-0.117-0.156-0.22-0.264-0.302c-0.244-0.186-0.497-0.361-0.75-0.536
		c-0.457-0.317-0.89-0.618-1.244-0.966c-0.499-0.49-0.77-1.056-0.724-1.516c0.028-0.291,0.19-0.613,0.309-0.83
		c1.134-2.061,3.602-3.393,6.287-3.393c1.057,0,2.095,0.214,3.002,0.618c1.336,0.596,2.541,1.928,2.16,3.04
		c-0.098,0.283-0.305,0.58-0.524,0.894c-0.162,0.232-0.324,0.467-0.466,0.713c-0.629,1.104-0.623,2.282,0.015,3.073
		c0.444,0.552,1.075,0.784,1.583,0.972c0.21,0.077,0.526,0.194,0.571,0.212c0.031,0.146,0.094,0.283,0.185,0.401
		c0.081,0.105,0.109,0.251,0.084,0.432C108.212,23.996,108.005,24.342,107.741,24.54z"/>
</g>
</svg>
