<?xml version="1.0" encoding="utf-8"?>
<!-- Generator: Adobe Illustrator 23.0.2, SVG Export Plug-In . SVG Version: 6.00 Build 0)  -->
<svg version="1.1" id="Vrstva_10" xmlns="http://www.w3.org/2000/svg" xmlns:xlink="http://www.w3.org/1999/xlink" x="0px" y="0px"
	 viewBox="0 0 405 372.3" style="enable-background:new 0 0 405 372.3;" xml:space="preserve">
<style type="text/css">
	.st0{fill:none;}
	.st1{fill:#62B594;}
	.st2{fill:#BAB5AF;}
	.st3{fill:#BA9060;}
	.st4{fill:#7B5632;}
	.st5{fill:#4C331B;}
	.st6{fill:#C29391;}
	.st7{fill:#FFE78D;}
	.st8{fill:#1C1C1B;}
	.st9{fill:#FFFFFF;}
	.st10{fill:#4A321A;}
	.st11{fill:#F0F5F7;}
	.st12{fill:#EC6E06;}
	.st13{fill:#D8EEF9;}
	.st14{fill:#5C3F22;}
	.st15{fill:#A87876;}
	.st16{fill:#A37B4F;}
</style>
<g>
	<path class="st0" d="M147.6,194.2c0.1-0.7,0-40.9,0-40.9s-0.1-1.2,0.5-1.3c0.2,0,1.7,0,4,0c10.2,0,36.4,0.2,36.4,0.2s0.1,0,0.3,0
		c0.4,0,1-0.1,1-0.8c0-1,0-56,0-56s0-1.1-1.1-1.2c-1.3-0.1-40.3-0.7-40.3-0.7s-0.1,0-0.1,0c-0.3,0-1.2-0.1-1.2-0.8
		c0-0.9,0.5-40.1,0.5-40.1s0.1-1-0.9-1.1c-0.3,0-6.8-0.1-15.2-0.1c-16.9,0-41.9,0.1-41.9,0.1s0,0-0.1,0c-0.2,0-0.8,0.1-1.1,0.7
		c-0.3,0.8,0,40.3,0,40.3s0.3,1.9-0.7,1.9c0,0-0.1,0-0.1,0c-0.7-0.1-17.4-0.5-29.4-0.5c-5.4,0-9.9,0.1-11.5,0.3
		c-0.4,0.1-0.5,0.2-0.5,0.3c-0.2,0.9-0.1,56.6-0.1,56.6s-0.1,0.9,1.1,1c1.3,0.1,39,0.4,39.8,0.4s1.3,0,1.3,0.7c0,0.6,0,40.4,0,40.7
		c0,0.2,0.1,0.6,1.2,0.7c0.4,0,10.3,0.1,21.8,0.2c0.2-0.7,0.5-1.4,0.7-2c0.1-7.1,0.2-13.8,0.3-19.9c-2.7-0.2-3-0.5-3.2-0.7
		c-0.6-0.6-0.8-1.7-0.4-2.7c0.1-0.4,0.3-0.6,0.6-0.9c-0.6-0.5-1-1.2-1.1-1.9c-0.1-0.6,0.1-1.1,0.3-1.5c-0.1-0.1-0.1-0.3-0.1-0.4
		c0-1.3,0.1-2.2,0.5-3.1c0.5-1,1.3-1.7,2.3-2c0-0.2,0-0.3,0-0.4c0-0.1,0-0.2,0-0.3c-0.1-0.6-1.2-0.9-2.1-0.9l-0.1,0
		c-1.2,0-2.4,0.2-3.7,0.3c-1.4,0.2-2.8,0.3-4.3,0.4c-2,0-5.7-0.4-7.9-3.2c-1.1-1.4-1.6-3-2-4.6c-3.9-14.5-3.9-29.8-3.2-44.1
		c0.2-4.1,0.5-7.7,2.3-10.9c1.1-2,2.8-3.8,5.1-5.4c4.1-2.9,9.2-4.8,15.2-5.5c1.4-0.2,2.9-0.3,4.4-0.3c-0.1-1.7,0.2-3.5,0.9-5.1
		c0.7-1.6,1.8-2.5,3.1-2.5c1.3,0,2.5,1,3.2,2.8c0.6,1.6,0.9,3.3,0.9,5c1.1,0.1,2.3,0.2,3.6,0.3c4.9,0.5,10.5,1.4,14.6,4.9
		c4.7,4.1,6,10.8,6.7,16.7c1.7,14.8,1.1,29.7-1.6,44.3c-0.4,2-0.8,3.9-1.9,5.6c-1.7,2.6-4.9,4.2-8.1,3.7c-0.8-0.1-1.6-0.3-2.4-0.6
		c-0.9-0.3-1.8-0.5-2.6-0.5c0,0,0,0,0,0c-0.9,0-1.7,0.4-2.2,0.9c-0.2,0.3-0.3,0.5-0.3,0.8c0,0.1,0,0.1,0,0.2
		c0.7,0.7,0.9,1.9,0.2,2.8c-0.1,0.1-0.2,0.2-0.3,0.3c0.9,1.5,1,2.8,0.3,3.8c-0.5,0.7-1.1,1-1.8,1.2c0.1,0.2,0.1,0.5,0.1,0.7
		c0,0.8-0.3,1.6-0.9,2.2c-0.7,0.7-1.8,1.1-3.1,1.1l-0.6,0c-0.3,0-0.6,0-0.9,0c0,0.1,0,0.1,0,0.2l0.1,21.3
		c12.9,0.1,24.8,0.2,24.8,0.2S147.6,194.9,147.6,194.2z"/>
	<path class="st0" d="M110.8,255.1c0.1,0.2,0.2,0.5,0.3,0.7c0.2-13.2,0.4-28,0.7-42.4C107.8,227,105.4,241.8,110.8,255.1z"/>
	<path class="st1" d="M109.3,199.9c0.8-1.7,1.5-3.5,2.1-5.2c-11.4-0.1-21.3-0.2-21.8-0.2c-1-0.1-1.1-0.4-1.2-0.7c0-0.2,0-40,0-40.7
		c0-0.6-0.5-0.6-1.3-0.7s-38.5-0.3-39.8-0.4c-1.2-0.1-1.1-1-1.1-1s-0.1-55.8,0.1-56.6c0-0.1,0.1-0.2,0.5-0.3c1.6-0.2,6-0.3,11.5-0.3
		c12,0,28.6,0.4,29.4,0.5c0,0,0.1,0,0.1,0c1,0,0.7-1.9,0.7-1.9s-0.4-39.5,0-40.3c0.2-0.6,0.8-0.7,1.1-0.7c0.1,0,0.1,0,0.1,0
		s25-0.1,41.9-0.1c8.5,0,14.9,0,15.2,0.1c0.9,0.1,0.9,1.1,0.9,1.1s-0.5,39.1-0.5,40.1c0,0.7,0.9,0.8,1.2,0.8c0.1,0,0.1,0,0.1,0
		s39,0.6,40.3,0.7c1.1,0.1,1.1,1.2,1.1,1.2s0,54.9,0,56c0,0.7-0.6,0.8-1,0.8c-0.2,0-0.3,0-0.3,0s-26.1-0.2-36.4-0.2
		c-2.4,0-3.9,0-4,0c-0.6,0.1-0.5,1.3-0.5,1.3s0.1,40.2,0,40.9c-0.1,0.7-1.1,0.7-1.1,0.7s-11.9-0.1-24.8-0.2l0.1,13
		c6.7,0.1,14.8,0.1,24.6,0.2c0,0,0.1,0,0.1,0c0.2,0,0.5,0,0.7,0c7.1-0.4,12.7-5.7,13.4-12.6c0.1-0.7,0.1-1.1,0.1-30.3
		c10.6,0,24.6,0.1,27.4,0.1c0.3,0,0.6,0,0.9,0c3.9,0,7.5-1.5,10.1-4.2c2.6-2.6,4-6.1,3.9-9.8c0-1.8,0-34.3,0-55.8
		c0-7.5-5.6-13.6-13.1-14.2c-0.5,0-1.5-0.1-29.5-0.6c0.1-8.2,0.2-19.2,0.4-27.7c0.2-7.2-5.1-13.5-12.2-14.3c-1-0.1-1.2-0.2-16.8-0.2
		c-15.7,0-38.7,0-41.6,0.1c-0.1,0-0.3,0-0.4,0c-5.8,0-11,3.5-13.1,8.8c-1.1,2.8-1.3,3.1-1,33.7c-6.5-0.1-13.5-0.2-17-0.2
		c-9,0-11.7,0.2-13.3,0.4c-5.6,0.8-10.1,4.8-11.3,10.2c-0.4,1.9-0.5,2.3-0.5,59.4c-0.1,7.4,5.6,13.5,13.2,14.1
		c0.9,0.1,3.5,0.1,28.9,0.3c0,0,0,0,0.1,0c0,28.9,0,29,0.1,29.8c0.6,5.4,4.7,11.3,12.6,12.2c0.6,0.1,1.1,0.1,17.1,0.3
		c0.2-0.4,0.5-0.8,0.7-1.3C107.1,204.3,108.3,202.1,109.3,199.9z"/>
	<path class="st2" d="M120.4,291.9l0-2.3c-1.7-2-3.4-4-5.1-6c-0.8-1-1.7-2.1-2.6-3.2c-0.1,5.5-0.1,10-0.2,13.3
		C115.2,293.2,117.8,292.6,120.4,291.9z"/>
	<path class="st2" d="M119.7,185.8c-1.1,6.4-3.2,12.7-5.2,19c-0.2,0.7-0.4,1.3-0.7,2c-0.3,18.2-0.6,37.2-0.9,53.1
		c2.1,3.8,4.6,7.3,7.2,10.7L119.7,185.8z"/>
	<path class="st3" d="M71.4,317c0-0.3-0.1-0.7-0.1-1C71.3,316.3,71.4,316.7,71.4,317z"/>
	<path class="st3" d="M71.5,318.1c0-0.3-0.1-0.6-0.1-0.9C71.4,317.5,71.5,317.8,71.5,318.1z"/>
	<path class="st3" d="M99.9,320.4c1.1,0.7,2.6,0.5,3.5-0.4c0.5-0.5,0.8-1.1,1.1-1.8c0.7-1.4,1.3-2.8,2-4.2c0,0,0,0,0,0
		c0.8-3.3,2.5-6.4,5-8.5c1.6-1.4,3.7-2.4,5.8-2.9c0,0,0,0-0.1-0.1c0.1,0,0.2,0,0.3,0c0.1,0,0.2,0,0.3,0c0.8,0,1.6-0.1,2.4-0.3
		c0.1,0,0.1,0,0.2,0c2.1,0,4.2,0.5,5.9,1.5c0.5,0.3,1,0.6,1.5,1c1,0.7,2,1.3,3,1.5c1.2,0.2,2.6-0.1,4-0.5
		c-3.9-4.1-7.8-8.3-11.6-12.6c-3.3,1-6.6,1.8-9.9,2.5c0,0,0.1,0.1,0.1,0.1c0,0,0,0,0,0c-0.8-0.1-1.7,0-2.5,0.2
		c-0.1,0-0.3,0.1-0.4,0.1c-0.2,0-0.4,0.1-0.6,0.1c-3.5,0.7-7,1.7-10.4,3c-0.8,0.3-1.6,0.7-2.4,1c-2.8,1.2-5.8,2.5-8.9,2.9
		c-1.2,0.1-2.4,0.2-3.6,0.2l-1.8,0c-2.6,0-5,0.1-7.1,1.4c-2.1,1.3-3.3,3.8-3.8,5.6c-0.6,1.9-0.9,3.9-0.8,5.8c0-0.4,0-0.7,0-1.1
		c0.1,0.2,0.1,0.5,0.2,0.7c0.5,1.5,1.7,2.6,2.9,3.6c1,0.9,2.1,1.8,3.5,2c1,0.2,2.1-0.1,2.8-0.8c-0.1-1.5-0.1-3,0-4.5
		c0-1.8,0-3.9,1.1-5.8c0.2-0.4,0.5-0.7,0.7-1.1c0.4-0.5,0.8-1,0.9-1.5c0.1-0.5,0.7-0.8,1.2-0.7c0.5,0.1,0.8,0.7,0.7,1.2
		c-0.2,0.9-0.8,1.6-1.2,2.2c-0.2,0.3-0.4,0.6-0.6,0.9c-0.8,1.4-0.8,3.2-0.8,4.8c0,1.8,0,3.7,0.1,5.6c0.3,0.3,0.5,0.5,0.8,0.7
		c1,0.7,2.3,1.2,3.5,0.8c1.1-0.3,1.9-1.2,2.4-2.2v0l0,0c0-0.4,0-0.7,0-1c0.1-3.8,1.2-7.4,2.1-10.1c0.2-0.5,0.7-0.8,1.3-0.6
		c0.5,0.2,0.8,0.7,0.6,1.3c-0.9,2.6-1.9,6-2,9.5c0,0.4,0,0.8,0,1.2c0.1,0.1,0.1,0.3,0.2,0.4c0.3,0.5,0.6,1,1.1,1.3
		c0.5,0.2,1.1,0.2,1.6,0.1c1.1-0.3,1.9-1.1,2.6-2v0v0c0.1-3.7,0.6-7.4,1.5-11c0.1-0.5,0.7-0.9,1.2-0.7c0.5,0.1,0.9,0.7,0.7,1.2
		c-0.7,3.1-1.2,6.2-1.3,9.3C99.3,319.9,99.6,320.2,99.9,320.4z"/>
	<path class="st3" d="M91.6,322.8c-0.1-0.5-0.1-1.1-0.1-1.6C91.5,321.8,91.6,322.3,91.6,322.8z"/>
	<path class="st3" d="M324,320.9c1-1.4-0.2-3.3-0.4-5c-0.2-2.1,1.3-4,3.1-5.1c1.8-1,4-1.3,6-1.7c4-0.8,7.9-2.1,11.6-3.9
		c2.4-1.1,4.8-2.6,6.1-4.9c1.3-2.3,0.9-5.7-1.4-7.1c0,0-0.1,0-0.1,0.1c-1.9,2.4-4.7,4-7.7,4.4c0,0-0.1,0-0.1,0
		c-0.2,0-0.4-0.1-0.6-0.2c-0.2,0.1-0.5,0.2-0.7,0.2c0.1-0.3,0.2-0.6,0.3-0.8c0,0,0-0.1,0-0.1c0-0.4,0.1-0.7,0.4-0.9
		c3.7-10.8,3.3-23.1-1.3-33.6c-4.6-10.6-13.4-19.2-24-23.8c-0.2,0-0.4,0-0.5-0.1c-1.3-0.1-2.6-0.2-3.9-0.4c1.1,1,2.1,2,3,3.2
		c0.3,0.4,0.3,1.1-0.2,1.4c-0.2,0.1-0.4,0.2-0.6,0.2c-0.3,0-0.6-0.1-0.8-0.4c-1.7-2.2-3.9-4.1-6.4-5.3c-0.1,0-0.1-0.1-0.2-0.1
		c-0.3-0.1-0.7-0.2-1-0.3c-1.5-0.4-2.8-0.8-4.3-1c-0.7-0.1-1.4-0.1-2.1-0.1c-2.8,0-5.7,0.7-8.5,1.5c-0.1,0.2-0.2,0.4-0.4,0.5
		c-2.9,1.7-5.3,4.7-6.7,8.5c-1.4,3.8-1.6,8-1.7,11.2c-0.1,3.3,0.1,5.8,0.5,8.1c1.7,9,8,16.5,13.3,22c2,2.1,3.6,3.6,5.2,4.9
		c2,1.7,4.2,3.3,6.5,4.7c4.1,2.5,14.5,7.7,24.1,3.4c0.5-0.2,1.1,0,1.3,0.5c0.2,0.5,0,1.1-0.5,1.3c-2.7,1.2-5.7,1.8-8.8,1.8
		c-1.6,0-3.3-0.2-5.1-0.5c-1.5,1.2-3.3,1.9-5.1,2.4c-0.6,0.3-1.2,0.6-1.8,0.8c-3.2,1.5-6.3,2.9-8.9,5.1c-2.6,2.1-4.3,5.5-4.6,8.6
		c-0.1,1.1,0,2.5,0.7,3.8c1.2,0.8,2.5,1.4,3.8,1.6c2,0.4,4.3-0.2,5.7-1.5l0,0c0-0.1-0.1-0.3-0.2-0.4c-0.8-2.7-0.5-5.6,0.9-7.7
		c0.3-0.5,0.9-0.6,1.4-0.3c0.5,0.3,0.6,0.9,0.3,1.4c-0.9,1.4-1.2,3.4-0.8,5.3c1,1.4,2.8,2.1,4.4,1.6c1.3-0.3,2.3-1.4,2.7-2.6
		c-0.9-2.2-0.8-4.8,0.3-6.9c0.3-0.5,0.9-0.7,1.3-0.4c0.5,0.3,0.7,0.9,0.4,1.3c-0.8,1.5-0.9,3.2-0.4,4.8
		C319.9,321.1,322,321.2,324,320.9z"/>
	<path class="st3" d="M147.3,303.6c0.2-0.2,0.5-0.4,0.6-0.5c6.6-4.8,15.4-7.6,26.2-8.4c2.5-0.2,5.2-0.3,8.3-0.3c0.2,0,0.4,0,0.7,0
		c-2.8-3-4.7-6.9-5.4-11c-0.7-0.1-1.4-0.1-2.1-0.2c-1.2-0.1-2.3-0.2-3.5-0.4c1.1,1.1,1.9,2.5,1.6,4.2c-0.3,2-2.3,3.6-4.6,3.6
		c-0.2,0-0.4,0-0.7,0c-1.6-0.2-3.2-1.3-4.3-2.8c-1.9,1.5-4.1,3.2-6.6,4c0.1,0.1,0.3,0.2,0.4,0.4c0.2,0.1,0.3,0.3,0.5,0.4
		c1.1,1,1.8,2.6,0.9,3.9c-0.2,0.3-0.6,0.6-1.1,0.9c-0.7,0.3-1.5,0.5-2.3,0.5c-1.2,0-2.3-0.4-3.2-1.1c-1-0.8-1.6-2-1.8-3.3
		c-1.3,0.4-2.7,0.4-3.9-0.2c-1.9-0.8-3.2-2.7-3.3-4.7c-0.1-2.1,1.3-4.1,3.2-4.8c0.6-0.2,1.3-0.3,1.9-0.3c0.5,0.1,1,0.2,1.6,0.5
		c0.5,0.3,1,0.7,1.5,1.1c0.2-0.1,0.3-0.2,0.4-0.3c1.7-1.1,3.5-2,5.4-2.6c-0.5-0.6-1-1.2-1.3-2c-0.5-1.4-0.3-3.1,0.8-4.1
		c-0.2-0.1-0.5-0.3-0.7-0.4c-1.5-1-2.4-2.5-3.1-3.8c-0.3,1-0.7,2-1.2,3c-3.5,7.1-11,11.2-16.4,13.6c-0.5,0.2-0.9,0.4-1.4,0.6
		c4,5,8.2,9.8,12.5,14.5C147.2,303.5,147.3,303.6,147.3,303.6z"/>
	<path class="st3" d="M229.4,316.3c6.2-0.7,12.8-3.9,14.7-9.8c0.9-2.9,1.2-6.9,4.1-7.8c0.9-0.3,1.9-0.1,2.8-0.2
		c2.2,0,4.2-0.8,6.2-1.9l0,0c1.4-2,3.1-3.7,5.1-5.1c4-2.9,9-4.3,14-4.1c-0.4,0-0.8,0-1.2,0c3.7-0.7,7.6-0.6,11.3,0.2
		c-10-11-15.2-28-8.2-41.2c1.2-2.3,3-4.5,5.1-5.8c0.6-0.8,1.2-1.6,1.8-2.2c-8.4,2.2-16.3,3.3-23.4,3.3c-8.6,0-16.4-1.7-23.1-4.9
		c-1.1,5.9,1.3,12,3.6,17.8l0.4,0.9c2.5,6.4,4.8,13.8,2.1,20.3c-2,4.8-6.5,8.6-12.5,10.4c-3.3,1-6.9,1.5-11.5,1.5
		c-1.4,0-2.8,0-4.7-0.1c-4.8-0.2-10-0.7-14.9-2.2c-1.2-0.4-2.3-0.8-3.4-1.3c-0.9,0.4-1.8,0.5-2.6,0.5c-0.2,0-0.5,0-0.7,0
		c-4.9-0.2-9.8-0.5-14.6-1c0,0.1-0.1,0.2-0.1,0.3c0.9,3.9,3,7.6,5.9,10.3c0.1,0.1,0.1,0.1,0.1,0.2c2,0,4,0.1,5.9,0.1
		c3.1,0.1,6.2,0.2,9.3,0.2l1.3,0c1.6,0,3.4,0,5.1,0.6c1.2,0.4,2.2,0.9,3.2,1.7c3.1-0.8,6.2-1.4,9.3-1.9c4.5-0.8,9.2-1.6,13.5-3.3
		c0.5-0.2,1.1,0,1.3,0.6c0.2,0.5,0,1.1-0.6,1.3c-4.5,1.8-9.3,2.6-13.9,3.4c-2.6,0.5-5.3,0.9-7.9,1.6c1.2,1.4,2.2,3.1,2.7,5
		c1.2,4.3,0.2,8.4-0.8,11.2c-0.2,0.5-0.4,1-0.6,1.5l0,0C219,316.2,224.2,316.9,229.4,316.3z"/>
	<path class="st3" d="M172.7,271.2C172.7,271.2,172.7,271.2,172.7,271.2c-0.7,0-1.4,0-2.1,0c0.5,0.3,1.1,0.5,1.6,0.6
		c2.3,0.7,4.8,1,7.8,1c1.9,0,3.8-0.1,5.6-0.2c-0.4-0.9-0.8-1.9-1.2-2.8c-0.9,0.4-1.9,0.7-3.2,0.9C178.5,271,175.6,271.2,172.7,271.2
		z"/>
	<path class="st3" d="M175.6,221.9c1.2,13.8,4.9,27.2,10.8,39.7c0.6,1.3,1.5,3.1,1,5c-0.2,0.8-0.6,1.5-1.2,2
		c0.7,1.8,1.4,3.6,2.4,5.3c2.2,2.7,4.7,5.5,7.9,7.4c0.2,0.1,0.3,0.2,0.5,0.3c0.1,0.1,0.3,0.1,0.4,0.2c1.5,0.8,3,1.3,4.3,1.7
		c4.7,1.5,9.7,1.9,14.4,2.1c1.8,0.1,3.2,0.1,4.6,0.1c4.4,0,7.8-0.4,10.9-1.4c5.3-1.6,9.5-5.1,11.2-9.3c2.4-5.8,0.4-12.5-2.1-18.8
		l-0.4-0.9c-2.5-6.2-5-12.5-3.7-19.1c0.1-0.3,0.1-0.6,0.2-0.9c-1.4,1.1-3.1,1.8-4.8,2c-0.5,0.1-1,0.1-1.7,0.1c-0.2,0-0.4,0-0.7,0
		c-2.2,0-4.8-0.2-6.9-1.4c-0.9-0.5-1.6-1.1-2.3-1.7c-0.7-0.6-1.4-1.3-1.9-2.1c-1.4-2.2-1.3-5.4,0.4-7.9c0.1-0.1,0.2-0.3,0.3-0.4
		c0.5-0.7,0.9-1.3,0.9-1.9c-0.4-0.5-0.7-1.2-0.4-1.9c0.3-0.9,1.3-1.2,1.6-1.3c0,0,0,0,0.1,0c0-0.1,0.1-0.2,0.2-0.4
		c2.4-3.6,6.7-5.7,10.7-5.2c0.8,0.1,1.5,0.3,2.1,0.5c0.7,0.3,1.3,0.7,2.1,1.3c1.7,1.4,3.2,3.3,4.5,5.6c-0.1-5.2-2.4-10.7-6.6-15.3
		c-2-2.2-3.9-3.8-6-4.8c-1.9-0.8-3.9-1.2-6-1.4c-1.3,0-2.6,0.3-3.7,0.9c-0.5,0.2-1,0.1-1.3-0.4c-0.3-0.4-0.2-1,0.2-1.3
		c0.9-0.7,1.9-1,2.9-1.4c0.6-0.2,1.2-0.4,1.8-0.7c0.3-0.2,0.6-0.4,0.8-0.7c0.2-0.3,0.3-0.8,0.2-1.2c0-0.2-0.2-0.4-0.3-0.5
		c-0.2-0.1-0.6-0.2-1-0.2l-2.3-0.2l-4.8,0.5c-0.7,0.1-1.4,0.2-2.2,0.2c-0.5,0-1-0.4-1.1-0.9c0-0.5,0.3-1,0.9-1.1l2.1-0.2
		c1-0.1,1.7-0.4,2.4-0.7c0.7-0.9,1.4-1.9,1.9-3c0-0.3-0.1-0.7-0.4-1c-0.5-0.5-1.3-0.7-2.5-0.7c-0.3,0-0.5,0-0.8,0
		c-3.4,0.2-6.8,0.9-10,2.1c-0.5,0.2-1,0-1.2-0.5c-0.2-0.4-0.1-1,0.3-1.3l5.7-4.3c0.7-0.5,2.3-1.9,1.9-2.9c-0.2-0.4-0.6-0.6-1.4-0.6
		c-0.7,0-1.5,0.2-2.2,0.5c-2.2,1.1-4.2,2.7-6.2,4.3c-1,0.8-2.1,1.7-3.1,2.5c-3.7,2.7-7.7,4.6-12.1,5.7c-0.6,0.2-1.2,0.3-1.8,0.4
		c-2.5,0.6-5.1,1.3-7,2.6c0.3,1-0.1,2.1-0.2,2.4C175.5,204.2,174.7,211.8,175.6,221.9z M224.8,209.8c0.8-2,2.8-3.5,4.9-3.5
		c1.4,0,2.8,0.7,3.9,1.6c1.1,0.9,1.9,2.1,2.7,3.3c0.3,0.5,0.7,1.1,0.5,1.6c-1.2-0.1-2-1.2-2.8-2c-0.6-0.7-1.3-1.3-2.1-1.7
		s-1.8-0.6-2.7-0.3c-1.1,0.3-1.9,1.2-2.5,2.1c-0.4,0.5-1,1.1-1.6,0.9C224.5,211.3,224.6,210.4,224.8,209.8z M213.8,265.8
		c0.5-4.9,4-8.5,10.3-10.7c2.3-0.8,4.4-1.2,6.5-1.1c2.4,0.1,4.6,0.9,6.2,2.2c2.2,1.8,2.5,2.4,3.6,5.6c0.8,2.1,0.8,4.6,0,6.9
		c-0.8,2.1-2.2,4-4.1,5.5l-0.2,0.2c-0.8,0.6-1.6,1.3-1.7,2.1c0,0.2,0,0.4,0,0.6c0,0.5,0.1,1-0.2,1.5c-0.3,0.4-0.7,0.7-1.3,0.7
		c-0.5,0-0.9-0.2-1.2-0.6c-0.1-0.2-0.2-0.4-0.3-0.6c-0.1-0.1-0.1-0.3-0.2-0.3c-0.1-0.1-0.2-0.2-0.7-0.2c-0.4,0-0.8,0.1-1,0.2
		c-1.9,0.5-3.5,0.8-5,0.8l-0.3,0c-2,0-3.8-0.6-5.2-1.6c-0.7-0.5-1.4-1.2-2.2-2.1C214.6,272.2,213.5,268.9,213.8,265.8z M210.5,279.6
		c0,0.2,0.1,0.4,0,0.6c-0.1,0.2-0.4,0.3-0.6,0.4c-0.4,0.1-0.8,0.2-1.2,0.1c-0.5-0.2-0.8-0.7-1.2-1.1c-0.9-1-2.4-1.5-3.7-1
		c-0.5,0.2-0.9,0.4-1.4,0.5c-0.4,0.1-1,0-1-0.4c0-0.3,0.2-0.6,0.5-0.8c1.2-0.8,2.6-1.2,4-1.3c0.7-0.1,1.3,0,2,0.1
		C209.2,277.1,210.3,278.2,210.5,279.6z M201.9,219.4c2.2,1,3.9,2.7,4.6,4.6c0,0.1,0.1,0.2,0.1,0.4c0.2,0.3,0.4,0.7,0.5,1
		c0.1,0.1,0.1,0.3,0.1,0.4c0.1,0.1,0.1,0.3,0.2,0.4c0,0,0,0.1,0,0.1c0.5,1.3,0.8,2.9,1,4.6c0.3,2.8,0.2,4.9-0.4,6.8
		c-0.6,1.9-1.7,3.7-3.4,5.6c-0.6,0.6-1.4,1.5-2.5,2c-0.9,0.5-2,0.8-3.4,0.9c-0.4,0-0.9,0.1-1.3,0.1c-0.6,0-1.2,0-1.8-0.1
		c-3.7-0.5-7.5-2.4-10.9-5.7c-0.1-0.1-0.2-0.2-0.2-0.2c-0.1,0.1-0.3,0.2-0.5,0.2c-0.2,0.1-0.4,0.3-0.7,0.3c-0.1,0-0.2,0-0.3,0
		c-0.1,0-0.3-0.1-0.5-0.3c0,0,0,0-0.1,0c-0.4-0.2-0.6-0.7-0.5-1.2c0.1-0.2,0.1-0.4,0.2-0.6c0.1-0.7,0.1-1.5,0-2.2
		c-0.1-0.5-0.3-1.1-0.4-1.6c-0.2-0.7-0.4-1.4-0.6-2.2c-0.6-3.1-0.1-6.4,1.4-9.1c1.6-2.8,4.4-4.8,7.4-5.5c0.9-0.2,1.8-0.3,2.8-0.3
		c1,0,2.1,0.1,2.8,0.2C197.8,218.2,199.9,218.5,201.9,219.4z M180.6,218.5c0.2-1,0.6-2,1-2.9c0.3-0.8,0.7-1.7,1.4-2.3
		c1.3-1.4,3.4-1.6,5.3-1.6c1.6-0.1,3.2-0.1,4.6,0.5c0.4,0.1,0.8,0.4,0.7,0.8c-0.1,0.5-0.7,0.5-1.2,0.5c-1.6-0.1-3.3,0-4.8,0.5
		c-1.3,0.4-2.5,1-3.2,2.1c-0.8,1.3-0.9,3.1-2.1,4c-0.3,0.2-0.7,0.4-1,0.2C180.5,220,180.4,219.2,180.6,218.5z"/>
	<path class="st4" d="M326.2,183.2c1.1,0.2,2.3,0.6,3.6,1.2C328.5,183.8,327.3,183.4,326.2,183.2z"/>
	<path class="st4" d="M359.9,254.7c6.2-12.3,5-27.5-1.1-39.9s-16.7-22-28.5-29.2c-1.3-0.8-2.7-1.6-4-2.5l0,0h0
		c-1.4-0.3-2.7-0.2-3.8,0.2c0.7,1.7,2.4,3.1,4,4.3c4.2,3.3,8.2,6.8,11.9,10.6c3.1,3.2,6.3,6.7,8,11c1,2.5,1.6,5.5,1.8,9
		c0.6,10.6-2.6,20.9-8.8,28.4c5.3,4.9,9.3,11.1,11.7,17.8c0.3-0.2,0.6-0.4,0.9-0.5C355.5,261.8,358,258.4,359.9,254.7z"/>
	<path class="st5" d="M365.6,220c-0.7-2.1-1.8-4.8-3.2-7.3c-7-12.2-17.7-22.6-30.3-29.3c-4.8-2.6-8.5-3-11.4-1.4
		c-0.4,0.2-0.6,0.6-0.5,1.1c0.5,2.8,3,4.7,4.9,6.3c4.1,3.2,8,6.7,11.7,10.4c3,3,6,6.4,7.6,10.4c0.9,2.3,1.5,5,1.7,8.3
		c0.6,10.2-2.4,20-8.4,27.1c-5-4.2-11-7.2-17.2-8.3c-1.9-0.3-3.8-0.5-5.7-0.7c-2.4-0.2-4.8-0.4-7.1-1c-0.8-0.2-1.7-0.4-2.5-0.7
		c-1.5-0.4-3-0.9-4.6-1.1c-0.8-0.1-1.6-0.2-2.4-0.2c-3.6,0-7.1,1-10.6,2l-1.1,0.3c-9,2.5-17.4,3.8-25,3.8c-8.5,0-16.1-1.6-22.6-4.8
		c0.4-1.2,0.8-2.4,1.3-3.6c0.1,0,0.1,0,0.2,0c0,0,0.1,0,0.1,0c0.8-0.1,1.4-0.8,1.3-1.7c0-0.5-0.3-0.9-0.5-1.2
		c0.4-0.8,0.6-1.6,0.7-2.5c0-0.1,0-0.1,0.1-0.2c1.6-7-0.8-15.1-6.6-21.5c-1.2-1.3-2.4-2.4-3.6-3.4c3.3-4.4,6.7-8.8,10.2-13
		c0.4-0.5,0.6-0.6,0.7-0.6c0,0.1,0,0.1,0.1,0.2c0,0.2,0.2,0.4,0.3,0.5c0,0.1,0.1,0.3,0.1,0.4c0.4,3.6,0.5,7.4,0.5,11
		c0,3.8,0,7.7,0.5,11.5c0.2,1.8,0.6,3.7,1.7,5.2c1.3,1.7,3.3,2.8,6.2,3.3c1.4,0.3,2.8,0.4,4.3,0.4c3.5,0,7.1-0.8,10.2-2.4
		c2.4-1.2,3.9-2.6,4.7-4.2c0.8-1.7,0.7-3.5,0.6-4.7c-0.3-3.1-1.3-6-2.2-8.8c-3.2-8.9-7.1-17.7-10.9-26.2c-0.9-1.9-1.7-3.9-2.6-5.8
		l-0.1-0.1c-1.5-3.3-3-6.7-5.4-9.4c-2.9-3.2-6.8-4.9-10.3-4.4c-4.5,0.6-7.7,4.5-9.7,7.3c-3.9,5.5-6.9,11.6-8.9,18.1
		c-0.2,0.8-0.5,1.6-0.7,2.4c-0.4,1.5-0.8,3-1.4,4.4c-0.9-0.9-2.1-1.3-3.9-1.3c-0.3,0-0.6,0-0.9,0c-1.8,0.1-3.5,0.4-5.2,0.7l1.3-1
		c3.2-2.4,2.9-4.4,2.5-5.3c-0.5-1.2-1.7-1.8-3.2-1.8c-1,0-2.1,0.3-3,0.8c-2.4,1.2-4.6,2.9-6.6,4.6c-1,0.8-2,1.6-3,2.4
		c-3.5,2.5-7.3,4.3-11.4,5.4c-0.6,0.2-1.2,0.3-1.8,0.4c-2.8,0.7-5.8,1.4-8.1,3.2c-0.2,0-0.5,0-0.7,0.1c-5.7,1.1-10,4.8-12.6,7.7
		c-3.2,3.5-5.6,7.5-8.2,12.1c-1.5,2.7-3,5.3-4.2,8c-5.5,12.4-5.7,26.6-5.8,39.1c0,1.1,0,2.5,0.6,3.8c1,1.9,3.1,2.7,5.2,3.3
		c0.5,0.1,1,0.2,1.5,0.4c-0.4,1.9-0.9,3.8-1.8,5.5c-3.2,6.5-10.3,10.4-15.4,12.7c-0.6,0.3-1.2,0.5-1.8,0.8c-3.8-4.7-7.4-9.4-11-14.1
		l-0.4-65.4l-0.1-13l-0.1-21.3c0-0.1,0-0.2,0-0.2c0.3,0,0.6,0,0.9,0l0.6,0c1.3,0,2.4-0.4,3.1-1.1c0.6-0.6,0.9-1.4,0.9-2.2
		c0-0.3-0.1-0.5-0.1-0.7c0.7-0.2,1.4-0.5,1.8-1.2c0.7-1,0.6-2.3-0.3-3.8c0.1-0.1,0.2-0.2,0.3-0.3c0.7-0.9,0.4-2.1-0.2-2.8
		c0-0.1,0-0.1,0-0.2c0-0.3,0.1-0.5,0.3-0.8c0.5-0.5,1.3-0.9,2.2-0.9c0,0,0,0,0,0c0.9,0,1.7,0.3,2.6,0.5c0.8,0.2,1.6,0.5,2.4,0.6
		c3.2,0.4,6.4-1.1,8.1-3.7c1.1-1.7,1.5-3.6,1.9-5.6c2.7-14.6,3.2-29.5,1.6-44.3c-0.7-5.9-2-12.6-6.7-16.7c-4.1-3.6-9.6-4.4-14.6-4.9
		c-1.3-0.1-2.5-0.2-3.6-0.3c0-1.7-0.3-3.4-0.9-5c-0.7-1.8-1.8-2.8-3.2-2.8c-1.2,0-2.4,0.9-3.1,2.5c-0.7,1.6-1,3.4-0.9,5.1
		c-1.5,0.1-3,0.2-4.4,0.3c-6,0.7-11.1,2.6-15.2,5.5c-2.3,1.6-4,3.5-5.1,5.4c-1.8,3.2-2.1,6.9-2.3,10.9c-0.6,14.4-0.7,29.7,3.2,44.1
		c0.4,1.6,0.9,3.2,2,4.6c2.2,2.7,5.9,3.2,7.9,3.2c1.4,0,2.9-0.2,4.3-0.4c1.3-0.2,2.5-0.3,3.7-0.3l0.1,0c0.9,0,2,0.3,2.1,0.9
		c0,0.1,0,0.2,0,0.3c0,0.1,0,0.3,0,0.4c-1,0.3-1.8,1-2.3,2c-0.4,0.8-0.6,1.8-0.5,3.1c0,0.1,0,0.3,0.1,0.4c-0.3,0.4-0.4,1-0.3,1.5
		c0.1,0.8,0.5,1.5,1.1,1.9c-0.2,0.3-0.4,0.5-0.6,0.9c-0.4,1.1-0.2,2.1,0.4,2.7c0.2,0.2,0.5,0.5,3.2,0.7c-0.1,6.1-0.2,12.8-0.3,19.9
		c-0.2,0.7-0.4,1.4-0.7,2c-0.6,1.8-1.3,3.5-2.1,5.2c-1,2.2-2.2,4.4-3.3,6.5c-0.2,0.4-0.4,0.8-0.7,1.3c-0.9,1.7-1.9,3.5-2.7,5.3
		c-8.4,18.1-7.4,40.1,2.9,57.3c1.6,2.7,3.4,5.3,5.3,7.7c-0.1,6.7-0.2,12.2-0.2,16.1c-4,0.7-7.9,1.8-11.6,3.3c-0.8,0.3-1.6,0.7-2.4,1
		c-2.8,1.2-5.5,2.4-8.4,2.7c-1.1,0.1-2.2,0.2-3.3,0.2l-1.8,0c-2.8,0-5.7,0.1-8.1,1.7c-2.1,1.3-3.7,3.6-4.7,6.6
		c-2.7,8.1,0.5,17.4,7.3,21.6c0.9,0.5,2.2,1.2,3.7,1.2c0.8,0,1.6-0.3,2.1-0.8c1,1.4,2.7,2.4,4.6,2.4c0.2,0,0.3,0,0.5,0
		c1.8-0.2,3.6-1.3,4.8-2.9c0.8,0.9,2.1,1.5,3.4,1.5c0.5,0,0.9-0.1,1.4-0.2c1.1-0.4,2-1.3,2.5-2.5c0.2-0.5,0.3-1.1,0.3-1.6
		c0.5,0.1,0.9,0.1,1.4,0.1c1.7,0,3.4-0.4,5-0.9c0.4-0.1,0.8-0.2,1.2-0.4c1.2,2.3,2.8,4.4,4.7,6.3c1.2,1.2,3.2,2.8,5.6,3
		c0.1,0,0.2,0,0.4,0c1.6,0,3.4-0.9,4.3-2.3c1.3,1,3,1.6,4.7,1.6l0.1,0c0.5,0,1.3-0.1,2-0.6c0.1-0.1,0.2-0.2,0.3-0.2
		c0.7,0.5,1.6,0.7,2.5,0.7c1,0,1.9-0.3,2.7-0.8c1.3-0.8,2.2-2.2,2.7-4c0.9,0.4,2.2,0.3,3.3-0.2c0.7-0.3,1.3-0.7,1.8-1.1
		c0.5-0.4,1.1-0.7,1.6-0.9c0.7-0.3,1.5-0.4,2.4-0.5l0.4-0.1c3.9-0.5,7.6-1.7,11.1-3.5c0,0,0,0,0,0c0.1,0,0.3,0,0.4,0
		c0.5,0,1,0,1.6,0c0.3,0.9,0.5,1.8,0.7,2.7l0.1,0.4c0.3,1.3,0.6,2.8,1.6,3.9c1.1,1.3,2.8,1.9,5.2,1.9c0,0,0,0,0,0
		c0.8,0,1.6-0.1,2.3-0.1l30.8-3.2c0.5,0,1-0.1,1.5-0.3c0.7-0.3,1.3-0.8,1.8-1.2c1.5-1.4,2.8-2.7,4-4.2c3.2,0.2,6.4,0.4,9.5,0.4
		c2.5,0,4.7-0.1,6.9-0.3c7.1-0.6,12.3-2.2,16.4-5c5-3.5,7.8-9.1,7.4-14.4c1.5-0.2,3-0.5,4.5-0.7c-0.3,1.3-0.4,2.4-0.3,3.5
		c0.1,1.3,0.5,2.6,1.2,4.1c2.5,5.3,7.4,9,12.4,9.3c0.2,0,0.4,0,0.6,0c0,0,0,0,0,0c2.3,0,5-0.9,6.4-3c1.3,1.1,2.9,1.7,4.5,1.4
		c1.7-0.2,3.2-1.5,3.7-3c2,1,4.8,0.6,6.4-0.9c1.7-1.5,2.5-4.1,2-6.5c4.6-0.2,9.1-0.8,13.6-1.6c-1.3,0.7-2.5,1.6-3.7,2.5
		c-3,2.5-5,6.3-5.3,10c-0.2,2.6,0.6,4.9,2.1,6.7c3.1,3.5,7.8,3.5,12.4,3.6c0.7,0,1.3,0,2,0c0.1,0,0.2,0.1,0.4,0.1
		c0.1,0,0.2,0,0.3-0.1c0.8,0,1.6,0.1,2.3,0.2c0.4,0,0.8,0.1,1.2,0.2c0.9,0.1,1.9,0.3,2.9,0.3c0.8,0,1.6-0.1,2.3-0.3
		c1.4-0.5,2.6-1.7,3.1-3.1c0-0.1,0.1-0.3,0.1-0.4c0.5,0.1,0.9,0.2,1.4,0.2c2.3,0,4.4-1.3,5.4-3.2c1.4-2.8,0.8-5.9-0.5-8.2l20.6-6.3
		c2.3-0.7,5.5-1.7,7.4-4.2c2.1-2.8,1.9-7-0.3-10.1c-1.7-2.3-4.4-4-7.7-4.7c1.7-6.3,2.1-12.8,1.3-19c0.1,0,0.2,0,0.3-0.1
		c8.6-3.6,15.1-12.4,17-22.9C370.7,240.2,369.5,230.8,365.6,220z M239.8,227.5c-2.8-2.3-5.9-4.4-9.1-6.2c-1.3-0.7-2.8-1.5-4.5-1.9
		c-0.6-0.1-1.3-0.2-1.9-0.3c-0.3,0-0.6-0.1-0.9-0.1c2-2.6,5.3-4.1,8.4-3.8c0.6,0.1,1.1,0.2,1.6,0.4c0.5,0.2,1,0.5,1.6,1
		c1.6,1.3,3,3.1,4.2,5.4c0.5,0.8,0.9,1.7,1,2.6C240.5,225.6,240.3,226.6,239.8,227.5z M222,220.7c0.2,0.1,0.3,0.1,0.4,0.1
		c0,0,0,0,0.1,0c-0.3,0-0.6,0-0.7-0.1c0,0,0.1,0,0.2-0.1C221.9,220.7,221.9,220.7,222,220.7z M220.4,224.8c0.4-0.6,0.9-1.2,1.1-2
		c0.3,0,0.5,0.1,0.7,0.1c0.2,0,0.3,0,0.5,0l0.1,0c0.1,0,0.3,0,0.4,0c0.7,0,1.4,0,2.2,0.1c1.8,0.2,3.5,0.8,5.4,1.7
		c0.7,0.3,1.3,0.7,2,1.1c0.6,0.4,1.2,0.8,1.9,1.2c1,0.7,2,1.5,3.1,2.4l0.3,0.3c0.3,0.2,0.6,0.5,0.9,0.7c-0.3,0.6-0.6,1.2-1,1.8
		c-1.4,2.1-3.7,3.5-6.1,3.8c-0.4,0.1-0.9,0.1-1.5,0.1c-0.2,0-0.4,0-0.6,0c-2,0-4.4-0.2-6.2-1.2c-0.8-0.4-1.4-1-2-1.5
		c-0.7-0.6-1.2-1.1-1.6-1.8c-1.1-1.7-0.9-4.3,0.4-6.2C220.2,225.1,220.3,225,220.4,224.8z M223.3,182c0.2-0.8,0.4-1.6,0.7-2.4
		c1.9-6.3,4.8-12.2,8.6-17.5c1.8-2.5,4.6-5.9,8.4-6.5c2.9-0.4,6.2,1,8.6,3.7c2.3,2.5,3.7,5.7,5.1,8.9l0.1,0.1
		c0.9,1.9,1.7,3.9,2.6,5.8c3.8,8.5,7.7,17.2,10.9,26.1c0.9,2.6,1.9,5.4,2.1,8.3c0.1,1.6,0,2.8-0.4,3.7c-0.4,0.9-1.1,1.6-2.1,2.3h0
		l0,0c-0.2,0.2-0.5,0.3-0.7,0.5c0,0,0,0-0.1,0c-0.3,0.2-0.5,0.3-0.8,0.4c-4,2-8.8,2.6-13.2,1.8c-2.4-0.5-4.1-1.3-5-2.6
		c-0.9-1.2-1.2-2.7-1.4-4.3c-0.5-3.7-0.5-7.6-0.5-11.3c0-3.7,0-7.5-0.5-11.2c-0.1-0.9-0.3-1.5-0.6-1.9c-1.1-4.4-2.7-9.3-5.9-13.3
		c-0.3-0.4-1-0.5-1.4-0.2c-0.4,0.3-0.5,1-0.2,1.4c2.6,3.3,4.1,7.3,5.1,11.1c-0.9,0.2-1.5,0.9-1.8,1.3c-3.5,4.2-6.9,8.6-10.2,13
		c-0.5-0.2-0.9-0.4-1.4-0.6c-0.2-0.1-0.4-0.1-0.6-0.2c-0.3-0.1-0.5-0.2-0.8-0.3c-0.2-0.1-0.5-0.2-0.7-0.2c-0.2-0.1-0.4-0.1-0.6-0.2
		c-0.3-0.1-0.6-0.2-0.9-0.2c-0.5-0.1-1-0.2-1.4-0.3c0.2-0.2,0.4-0.4,0.5-0.6c0.6-0.8,0.8-1.9,0.6-2.8c-0.2-0.8-0.6-1.4-1.3-1.8
		c-0.6-0.4-1.3-0.4-1.8-0.4l-2.7-0.2C221.5,188.7,222.4,185.3,223.3,182z M178.1,197.7c0.1-0.4,0.5-1.5,0.2-2.4c1.9-1.3,4.4-2,7-2.6
		c0.6-0.1,1.2-0.3,1.8-0.4c4.4-1.2,8.4-3.1,12.1-5.7c1.1-0.8,2.1-1.6,3.1-2.5c2-1.7,4-3.2,6.2-4.3c0.7-0.3,1.5-0.5,2.2-0.5
		c0.7,0,1.2,0.2,1.4,0.6c0.5,1-1.2,2.4-1.9,2.9l-5.7,4.3c-0.4,0.3-0.5,0.8-0.3,1.3c0.2,0.4,0.8,0.6,1.2,0.5c3.2-1.2,6.6-1.9,10-2.1
		c0.3,0,0.5,0,0.8,0c1.2,0,2,0.2,2.5,0.7c0.3,0.3,0.4,0.7,0.4,1c-0.5,1.1-1.1,2.1-1.9,3c-0.6,0.3-1.4,0.6-2.4,0.7l-2.1,0.2
		c-0.5,0.1-0.9,0.5-0.9,1.1c0,0.5,0.5,0.9,1.1,0.9c0.7-0.1,1.5-0.1,2.2-0.2l4.8-0.5l2.3,0.2c0.3,0,0.7,0.1,1,0.2
		c0.2,0.1,0.3,0.2,0.3,0.5c0.1,0.4,0,0.9-0.2,1.2c-0.2,0.3-0.5,0.5-0.8,0.7c-0.5,0.3-1.1,0.5-1.8,0.7c-1,0.3-2,0.7-2.9,1.4
		c-0.4,0.3-0.5,0.9-0.2,1.3c0.3,0.4,0.8,0.6,1.3,0.4c1.1-0.5,2.4-0.8,3.7-0.9c2.1,0.2,4.1,0.7,6,1.4c2,1,4,2.6,6,4.8
		c4.1,4.6,6.4,10.1,6.6,15.3c-1.3-2.4-2.8-4.2-4.5-5.6c-0.7-0.6-1.4-1-2.1-1.3c-0.6-0.3-1.3-0.4-2.1-0.5c-4-0.5-8.3,1.7-10.7,5.2
		c-0.1,0.1-0.1,0.2-0.2,0.4c0,0,0,0-0.1,0c-0.3,0.1-1.2,0.4-1.6,1.3c-0.2,0.7,0,1.4,0.4,1.9c0,0.6-0.4,1.2-0.9,1.9
		c-0.1,0.1-0.2,0.3-0.3,0.4c-1.6,2.5-1.8,5.6-0.4,7.9c0.5,0.8,1.2,1.5,1.9,2.1c0.7,0.6,1.4,1.2,2.3,1.7c2.2,1.2,4.7,1.3,6.9,1.4
		c0.2,0,0.4,0,0.7,0c0.7,0,1.2,0,1.7-0.1c1.8-0.2,3.4-0.9,4.8-2c-0.1,0.3-0.2,0.6-0.2,0.9c-1.3,6.5,1.2,12.9,3.7,19.1l0.4,0.9
		c2.5,6.3,4.5,12.9,2.1,18.8c-1.7,4.2-5.9,7.7-11.2,9.3c-3.1,0.9-6.5,1.4-10.9,1.4c-1.3,0-2.8,0-4.6-0.1c-4.7-0.2-9.7-0.6-14.4-2.1
		c-1.3-0.4-2.8-1-4.3-1.7c-0.1-0.1-0.3-0.1-0.4-0.2c-0.2-0.1-0.3-0.2-0.5-0.3c-3.2-1.9-5.7-4.7-7.9-7.4c-1-1.7-1.8-3.4-2.4-5.3
		c0.6-0.6,1-1.3,1.2-2c0.5-1.8-0.4-3.6-1-5c-5.9-12.5-9.6-25.9-10.8-39.7C174.7,211.8,175.5,204.2,178.1,197.7z M179.1,281.6
		c-0.3-0.2-0.7-0.3-1.1-0.1c0,0,0,0,0,0c-0.8-0.1-1.5-0.1-2.3-0.2c-1.6-0.2-3.3-0.3-4.8-0.7c-0.3-0.1-0.6-0.2-0.9-0.3
		c-0.3-0.1-0.6-0.2-0.9-0.2c1.1-1.8,1.4-4.2,0.5-6.2c-0.1-0.3-0.4-0.5-0.8-0.6c-2.1-0.3-3.6,1.7-3.9,3.7c0,0.1,0,0.2,0,0.3
		c-0.6-0.6-1.4-1.1-2.2-1.4c-0.7-0.3-1.4-0.5-2-0.7c-1.1-0.3-2.1-0.6-2.9-1.2c-1.4-0.9-2.2-2.5-2.8-3.7c-0.2-0.3-0.3-0.7-0.4-1
		c3.9,0.8,7.9,1.4,11.9,1.8c0.3,0,0.6,0.1,0.8,0.1c0.2,0.1,0.3,0.3,0.5,0.4c0.1,0.1,0.2,0.2,0.3,0.3c1.1,1,2.5,1.5,3.6,1.9
		c2.5,0.7,5.1,1.1,8.4,1.1c2.2,0,4.4-0.2,6.5-0.3c2.2,2.9,4.9,6,8.3,8.1c-0.1,0-0.2,0-0.3,0C189.4,282.5,184.2,282,179.1,281.6z
		 M154.9,291.4c0.3,1,1.1,1.7,1.7,2.3c0.1,0.1,0.3,0.2,0.4,0.4c0.5,0.5,0.7,1,0.6,1.2c0,0-0.1,0.1-0.3,0.2c-1,0.5-2.4,0.4-3.3-0.3
		c-0.9-0.7-1.3-2-1-3.1c0.1-0.4,0-0.8-0.4-1.1c-0.2-0.1-0.4-0.2-0.6-0.2c-0.2,0-0.4,0.1-0.6,0.2c-1,0.8-2.5,0.9-3.7,0.5
		c-1.2-0.5-2-1.7-2-2.9c0-1.2,0.8-2.5,1.9-2.9c0.3-0.1,0.6-0.2,0.9-0.1c0.3,0,0.5,0.1,0.9,0.3c0.7,0.4,1.3,0.9,1.7,1.5
		c0.2,0.3,0.7,0.5,1.1,0.4c0.4-0.1,0.7-0.4,0.8-0.8c0,0,0.1-0.1,0.5-0.4c2-1.3,4.2-2.3,6.6-2.8c0.4-0.1,0.6-0.4,0.7-0.7
		c0.1-0.4,0-0.7-0.3-1c-0.8-0.7-1.7-1.5-2.1-2.5c-0.3-0.7-0.1-1.7,0.5-2.1c0.2-0.1,0.4-0.1,0.8-0.2l0.1,0c2.2,0,4.3,1.8,4.5,4
		c0.1,0.5,0.5,0.9,1,0.9c0,0,0,0,0.1,0c0.1,0.1,0.1,0.1,0.2,0.2c0.2,0.1,0.3,0.2,0.5,0.2c0.1,0,0.3,0,0.4-0.1c0.1,0,0.1-0.1,0.2-0.1
		c1.1,0.2,2.1,0.6,3,1.2c1,0.7,2.2,1.9,2,3.2c-0.2,1.3-1.8,2.1-3,1.9c-1.3-0.2-2.6-1.2-3.4-2.8c-0.1-0.3-0.4-0.4-0.7-0.5
		c-0.3-0.1-0.6,0-0.8,0.2c-2.3,1.9-5,4.1-8,4.6c-0.3,0-0.5,0.2-0.7,0.4C154.9,290.8,154.9,291.1,154.9,291.4z M166.9,277.2
		c0.1-0.7,0.5-1.5,1.1-1.8c0.4,1.4-0.1,3-1,4.1c0,0,0,0,0-0.1C166.9,278.7,166.8,277.9,166.9,277.2z M185.6,272.5
		c-1.8,0.1-3.7,0.2-5.6,0.2c-3.1,0-5.6-0.3-7.8-1c-0.5-0.1-1.1-0.3-1.6-0.6c0.7,0,1.4,0,2.1,0c0,0,0,0,0,0c2.9,0,5.8-0.2,8.5-0.6
		c1.3-0.2,2.3-0.5,3.2-0.9C184.8,270.7,185.2,271.6,185.6,272.5z M151.4,266.1c-1.6-0.4-3.3-1-3.9-2.3c-0.4-0.8-0.4-1.9-0.4-2.8
		c0.1-12.3,0.3-26.3,5.7-38.3c1.2-2.6,2.6-5.2,4.1-7.8c2.5-4.4,4.9-8.4,8-11.7c2.4-2.7,6.4-6,11.6-7.1c0,0,0,0,0.1,0
		c0,0.2,0,0.6-0.2,1c-0.6,1.4-1,2.8-1.4,4.3c-0.2,0.7-0.4,1.4-0.5,2.1c0,0.1,0,0.1,0,0.2c-0.4,2.1-0.7,4.3-0.9,6.7
		c0,0.2,0,0.4,0,0.6c0,0.6,0,1.1-0.1,1.7c0,0.5,0,1,0,1.4c0,0.5,0,1,0,1.5c0,0.6,0,1.3,0.1,2c0,0.4,0,0.8,0.1,1.2
		c0.1,1.1,0.1,2.2,0.2,3.4c1.3,14,5,27.6,11,40.4c0.5,1.2,1.2,2.5,0.9,3.6c-0.4,1.6-2.7,2.3-4.5,2.6c-2.6,0.4-5.4,0.6-8.2,0.6
		C166.3,269.2,159.3,268.2,151.4,266.1z M136,288.3c5.3-2.4,12.9-6.5,16.4-13.6c0.5-1,0.9-2,1.2-3c0.7,1.3,1.6,2.8,3.1,3.8
		c0.2,0.2,0.5,0.3,0.7,0.4c-1.1,1-1.3,2.8-0.8,4.1c0.3,0.8,0.8,1.5,1.3,2c-1.9,0.6-3.7,1.5-5.4,2.6c-0.1,0.1-0.3,0.2-0.4,0.3
		c-0.4-0.4-0.9-0.8-1.5-1.1c-0.6-0.3-1.1-0.5-1.6-0.5c-0.6-0.1-1.3,0-1.9,0.3c-1.9,0.7-3.2,2.8-3.2,4.8c0.1,2,1.4,3.9,3.3,4.7
		c1.2,0.5,2.7,0.6,3.9,0.2c0.2,1.3,0.8,2.5,1.8,3.3c0.9,0.7,2,1.1,3.2,1.1c0.8,0,1.6-0.2,2.3-0.5c0.5-0.2,0.8-0.5,1.1-0.9
		c0.9-1.3,0.2-2.9-0.9-3.9c-0.2-0.1-0.3-0.3-0.5-0.4c-0.1-0.1-0.3-0.2-0.4-0.4c2.5-0.8,4.7-2.5,6.6-4c1.1,1.5,2.7,2.5,4.3,2.8
		c0.2,0,0.4,0,0.7,0c2.3,0,4.3-1.6,4.6-3.6c0.2-1.6-0.6-3.1-1.6-4.2c1.2,0.2,2.4,0.3,3.5,0.4c0.7,0.1,1.4,0.1,2.1,0.2
		c0.7,4.1,2.6,8,5.4,11c-0.2,0-0.4,0-0.7,0c-3.1,0-5.8,0.1-8.3,0.3c-10.8,0.8-19.6,3.6-26.2,8.4c-0.2,0.1-0.4,0.3-0.6,0.5
		c-0.1-0.1-0.1-0.2-0.2-0.2c-4.3-4.6-8.5-9.5-12.5-14.5C135,288.7,135.5,288.6,136,288.3z M111.1,255.8c-0.1-0.2-0.2-0.5-0.3-0.7
		c-5.4-13.3-2.9-28.2,1-41.7C111.5,227.9,111.3,242.7,111.1,255.8z M113.9,206.7c0.2-0.7,0.4-1.3,0.7-2c2.1-6.2,4.1-12.6,5.2-19
		l0.5,84.8c-2.6-3.4-5.2-7-7.2-10.7C113.3,243.9,113.6,224.9,113.9,206.7z M127.2,167c-0.3,0.5-1.4,0.5-2.2,0.5
		c-0.9,0-1.8-0.1-2.7-0.1c-3.1-0.1-6.3-0.3-9.5-0.2c-0.8,0-1.7,0-2.2-0.3c-0.2-0.1-0.4-0.4-0.4-0.6l3-0.4c0,0,0,0,0,0l13.3-1
		C127,165.5,127.5,166.5,127.2,167z M117.6,80.1c0.3-0.6,0.7-1.3,1.2-1.3c0.5,0,1,0.8,1.3,1.5c0.5,1.3,0.8,2.8,0.8,4.2
		c-1-0.2-2.1-0.3-3.1-0.3c-0.3,0-0.6,0-1,0C116.7,82.8,117,81.4,117.6,80.1z M109.1,155.8l-0.2,0c-1.3,0-2.6,0.2-3.9,0.3
		c-1.4,0.2-2.7,0.3-4.1,0.3c-1.6,0-4.6-0.3-6.3-2.4c-0.8-1-1.3-2.5-1.6-3.8c-3.8-14.2-3.8-29.3-3.2-43.5c0.2-3.8,0.4-7.2,2-10
		c1-1.7,2.5-3.3,4.5-4.8c3.8-2.7,8.6-4.5,14.3-5.2c3-0.4,6.1-0.5,10-0.2c0.3,0.1,0.6,0.1,0.9,0.2c0.1,0,0.2,0,0.3,0
		c0.2,0,0.3-0.1,0.5-0.1c1.2,0.1,2.5,0.2,3.9,0.4c4.6,0.5,9.8,1.3,13.4,4.5c4.2,3.7,5.4,9.9,6,15.4c1.6,14.6,1.1,29.3-1.5,43.7
		c-0.3,1.8-0.7,3.5-1.6,4.9c-1.3,2-3.8,3.2-6.2,2.9c-0.7-0.1-1.4-0.3-2.1-0.5c-1-0.3-2-0.6-3.1-0.6c0,0-0.1,0-0.1,0
		c-1.4,0-2.8,0.6-3.7,1.6c-0.4,0.4-0.6,0.9-0.7,1.3l-0.2,0c-0.1,0-0.2,0-0.3,0c-1-0.1-2.1-0.2-3.5-0.2c-0.2,0-0.5,0-0.7,0l-7.8-0.4
		c-0.7,0-0.9-0.2-0.9-0.2c0-0.1,0-0.3,0-0.4c0-0.2,0-0.4-0.1-0.7C112.8,156.7,111.3,155.8,109.1,155.8z M110.8,162.3
		c0.3-0.6,0.7-0.9,1.2-1c0.3,0,0.6,0.1,1,0.1l0.2,0c1.4,0.3,2.9,0.4,4.9,0.4c0.8,0,1.5,0,2.3,0c0.8,0,1.5,0,2.3,0
		c1.3,0,2.3,0.1,3.2,0.2c0.5,0.1,0.9,0.2,1.2,0.4c0.1,0.1,0.2,0.3,0.2,0.3c0,0-0.2,0.1-0.7,0.1l-14.4,1.1c-0.6,0-1.2,0.1-1.6-0.1
		C110.5,163.2,110.6,162.7,110.8,162.3z M110.6,170.5c0-0.3,0.1-0.8,0.2-0.8c0.3,0,0.6,0,0.8-0.1c0.3,0,0.7-0.1,1-0.1
		c4.1,0.4,8.3,0.6,12.5,0.5c0,0,0,0,0,0.1c0,0.3-0.1,0.5-0.3,0.7c-0.4,0.4-1.2,0.5-1.7,0.5l-0.5,0
		C113.7,171,111.3,170.7,110.6,170.5z M107.2,269.2c-9.9-16.6-10.9-37.9-2.8-55.4c1-2.2,2.2-4.3,3.3-6.4c1.2-2.1,2.3-4.3,3.4-6.6
		c4.2-9.1,5.9-18.9,4.7-27.8c0.7,0,1.5,0.1,2.4,0.1c1.1,10.4-2.3,20.8-5.7,31c-0.3,0.9-0.6,1.9-0.9,2.8c-5,15.3-9.2,33.1-2.8,49
		c2.7,6.8,7.2,12.6,11.5,18.2c7.9,10.3,16.1,21,25.2,30.7c0.6,0.7,1.3,1.4,1.9,2.1c4.5,4.7,9.2,9.6,11.9,15.5
		c-4.3,0-8.3-3.3-11.7-6.6c-10.9-10.5-21.3-21.7-31-33.4C113.7,278.5,110.1,274.1,107.2,269.2z M115.3,283.6c1.7,2,3.4,4,5.1,6
		l0,2.3c-2.6,0.7-5.2,1.3-7.9,1.8c0-3.3,0.1-7.8,0.2-13.3C113.6,281.5,114.4,282.6,115.3,283.6z M106.6,325.4
		c-1.5,0.4-3,0.8-4.4,0.8c-0.9,0-1.6-0.1-2.3-0.5c0,0-0.1,0-0.1,0c0,0,0,0-0.1,0c-0.4-0.1-0.6-0.8-0.7-1.9c0-0.9,0-1.7,0-2.6
		c0-0.5,0-1.1,0.1-1.6c0,0,0,0,0,0c0.2-3.1,0.6-6.2,1.3-9.3c0.1-0.5-0.2-1.1-0.7-1.2c-0.5-0.1-1.1,0.2-1.2,0.7
		c-0.9,3.6-1.4,7.3-1.5,11l0,0c0,1,0,1.9,0,2.9c0.1,2.2,0.8,3.1,1.6,3.6c0.1,0.5,0.1,1-0.1,1.6c-0.3,0.6-0.7,1.1-1.3,1.4
		c-0.2,0.1-0.4,0.1-0.7,0.1c-1.1,0-2.1-0.8-2.4-1.7c-0.1-0.4-0.4-0.7-0.9-0.7c-0.3-0.4-0.5-0.9-0.7-1.4c0-0.1-0.1-0.1-0.1-0.2
		c-0.2-0.5-0.3-1-0.5-1.5c0-0.1,0-0.2-0.1-0.3c-0.1-0.5-0.2-1-0.3-1.6c0-0.1,0-0.1,0-0.2c-0.1-0.5-0.1-1.1-0.1-1.6
		c0-0.1,0-0.1,0-0.2c0,0,0,0,0,0c0-0.4,0-0.8,0-1.2c0.1-3.5,1.1-6.9,2-9.5c0.2-0.5-0.1-1.1-0.6-1.3c-0.5-0.2-1.1,0.1-1.3,0.6
		c-0.9,2.7-2,6.3-2.1,10.1c0,0.3,0,0.7,0,1c0,0,0,0,0,0c0,0.3,0,0.6,0,1c0,0.1,0,0.3,0,0.4c0,0.2,0,0.5,0.1,0.7c0,0.2,0,0.3,0.1,0.5
		c0,0.2,0.1,0.5,0.1,0.7c0,0.2,0.1,0.3,0.1,0.5c0.1,0.2,0.1,0.5,0.2,0.7c0,0.2,0.1,0.3,0.1,0.5c0.1,0.2,0.2,0.5,0.2,0.7
		c0.1,0.2,0.1,0.3,0.2,0.5c0.1,0.3,0.2,0.5,0.3,0.8c0.1,0.1,0.1,0.3,0.2,0.4c0.2,0.4,0.4,0.8,0.7,1.2c-0.9,1.4-2.2,2.4-3.6,2.5
		c-1.7,0.2-3.5-1.1-3.7-2.6c0-0.2-0.1-0.4-0.3-0.6c-0.2-0.5-0.4-1.1-0.6-1.6c0-0.1-0.1-0.3-0.1-0.4c-0.1-0.4-0.2-0.9-0.3-1.3
		c0-0.1,0-0.2-0.1-0.4c-0.1-0.5-0.2-1-0.2-1.4c0-0.1,0-0.1,0-0.2c-0.1-0.6-0.1-1.1-0.2-1.7l0,0h0c-0.1-1.9-0.1-3.8-0.1-5.6
		c0-1.6,0-3.4,0.8-4.8c0.2-0.3,0.4-0.6,0.6-0.9c0.5-0.6,1-1.3,1.2-2.2c0.1-0.5-0.2-1.1-0.7-1.2c-0.5-0.1-1.1,0.2-1.2,0.7
		c-0.1,0.5-0.5,1-0.9,1.5c-0.3,0.3-0.5,0.7-0.7,1.1c-1.1,1.8-1.1,4-1.1,5.8c0,1.4,0,3,0,4.5l0,0v0c0,0.3,0,0.7,0.1,1
		c0,0.2,0,0.3,0,0.5c0,0.4,0.1,0.8,0.1,1.3c0,0.3,0.1,0.6,0.1,0.9c0,0.2,0.1,0.4,0.1,0.6c0.1,0.4,0.1,0.9,0.2,1.3
		c0,0.1,0,0.2,0.1,0.3c0.1,0.5,0.2,0.9,0.4,1.4c0,0.1,0.1,0.3,0.1,0.4c0.2,0.5,0.3,1,0.5,1.5c-0.3,0.4-0.8,0.7-1.4,0.7l-0.1,0
		c-0.7,0-1.5-0.3-2.4-0.9c-0.3-0.2-0.7-0.4-1-0.7c-0.1-0.1-0.2-0.2-0.3-0.2c-0.2-0.2-0.4-0.3-0.6-0.5c-0.1-0.1-0.2-0.2-0.3-0.3
		c-0.2-0.2-0.4-0.4-0.6-0.6c-0.1-0.1-0.2-0.2-0.3-0.3c-0.3-0.3-0.5-0.6-0.7-0.9c-0.1-0.1-0.2-0.3-0.3-0.4c-0.1-0.2-0.3-0.4-0.4-0.6
		c-0.1-0.2-0.2-0.3-0.3-0.5c-0.1-0.2-0.2-0.3-0.3-0.5c-0.1-0.2-0.2-0.4-0.3-0.6c-0.1-0.1-0.1-0.2-0.2-0.4c-0.4-0.8-0.7-1.7-1-2.6
		c0-0.1,0-0.1,0-0.2c-0.1-0.3-0.2-0.6-0.2-1c0,0,0-0.1,0-0.1c-0.1-0.4-0.1-0.7-0.2-1.1c0-0.3-0.1-0.6-0.1-0.9c0-0.1,0-0.1,0-0.2
		c0-0.3-0.1-0.7-0.1-1c0,0,0,0,0,0c-0.1-2,0.2-3.9,0.8-5.8c0.6-1.8,1.7-4.2,3.8-5.6c2-1.3,4.5-1.4,7.1-1.4l1.8,0
		c1.1,0,2.4,0,3.6-0.2c3.2-0.4,6.1-1.6,8.9-2.9c0.8-0.3,1.6-0.7,2.4-1c3.3-1.3,6.8-2.3,10.4-3c0.2-0.1,0.4-0.1,0.6-0.1
		c0.1,0,0.3-0.1,0.4-0.1c0.8-0.2,1.7-0.3,2.5-0.2c0,0,0,0,0,0c0,0-0.1-0.1-0.1-0.1c3.4-0.7,6.7-1.5,9.9-2.5
		c3.8,4.3,7.6,8.5,11.6,12.6c-1.4,0.4-2.8,0.7-4,0.5c-1.1-0.2-2-0.8-3-1.5c-0.5-0.3-1-0.7-1.5-1c-1.7-1-3.8-1.5-5.9-1.5
		c-0.1,0-0.1,0-0.2,0c-0.8,0.2-1.6,0.3-2.4,0.3c-0.1,0-0.2,0-0.3,0c-0.1,0-0.2,0-0.3,0c0,0,0,0,0.1,0.1c-2.1,0.5-4.2,1.5-5.8,2.9
		c-2.5,2.1-4.2,5.2-5,8.5c-0.2,0.9-0.3,1.8-0.4,2.8c0,0,0,0,0,0.1c0,0.4,0,0.8,0,1.2c0,0.1,0,0.2,0,0.3c0,0.4,0,0.9,0.1,1.3
		c0.2,1.8,0.6,3.6,1.3,5.4C107.2,325.2,106.9,325.3,106.6,325.4z M147.5,325.9l-0.4,0.1c-1,0.1-1.9,0.2-2.9,0.6
		c-0.7,0.3-1.4,0.7-2,1.1c-0.5,0.3-1,0.7-1.5,0.9c-0.3,0.1-0.7,0.2-1.1,0.2c-0.3,0-0.9-0.1-1.2-0.5c0,0,0,0,0,0c0-1.8,0-3.7-0.1-5.5
		c0-0.6-0.5-1-1.1-0.9c-0.6,0-1,0.5-0.9,1.1c0.1,1.3,0.1,2.6,0.1,3.9c0,0.8,0,1.7,0,2.5c0,0.1,0,0.1,0,0.2c-0.3,1.6-1,2.8-2,3.5
		c-0.4,0.3-1,0.4-1.6,0.4c-0.7,0-1.6-0.3-2-1c-0.1-0.2-0.3-0.4-0.5-0.5c-0.3-0.6-0.6-1.2-0.8-1.7c-0.2-0.5-0.4-1-0.6-1.5
		c0,0,0-0.1-0.1-0.1c-0.4-1.1-0.6-2.1-0.7-3.1c0,0,0,0,0,0v0c0-0.1,0-0.2,0-0.2c-0.3-2.9,0.2-5.8,0.7-8c0.1-0.5-0.2-1.1-0.8-1.2
		c-0.5-0.1-1.1,0.2-1.2,0.8c-0.3,1.4-0.6,3-0.8,4.8l0,0c0,0.3,0,0.6-0.1,0.9c0,0.1,0,0.2,0,0.2c0,0.2,0,0.5,0,0.7c0,0.2,0,0.3,0,0.5
		c0,0.2,0,0.4,0,0.5c0,0.4,0,0.7,0.1,1.1c0.3,2.5,1.2,5,2.7,7.9c-0.2,0.1-0.4,0.2-0.9,0.2c-1.7,0-3.3-0.8-4.4-2
		c-0.2-0.3-0.6-0.4-0.9-0.3c-0.2-0.2-0.4-0.5-0.6-0.7c-1.3-1.6-2.5-3.4-3.1-5.4c0-0.1-0.1-0.3-0.1-0.4c-0.2-1-0.2-2-0.2-2.9
		c0-1.1,0.1-2.3,0.5-3.3c0.4-1,1-1.9,1.8-2.2c0.5-0.2,0.7-0.8,0.4-1.3c-0.2-0.5-0.8-0.7-1.3-0.4c-1.3,0.6-2.2,1.8-2.8,3.4
		c-0.5,1.3-0.6,2.8-0.6,4c0,0.2,0,0.3,0,0.5c0,0.2,0,0.4,0,0.5c0,0.1,0,0.2,0,0.3c0,0.1,0,0.3,0,0.4c0,0.2,0,0.3,0,0.5
		c0,0.1,0,0.2,0,0.3c0,0.3,0.1,0.5,0.1,0.8c0.6,3.2,2.8,5.8,4.6,7.9c-0.5,0.9-1.7,1.4-2.8,1.3c-1.3-0.1-2.7-0.9-4.3-2.4
		c-0.4-0.4-0.8-0.8-1.1-1.2c-0.1-0.1-0.2-0.3-0.3-0.4c-0.2-0.3-0.5-0.6-0.7-0.9c-0.1-0.1-0.2-0.3-0.3-0.4c-0.3-0.4-0.5-0.7-0.7-1.1
		c-0.2-0.3-0.3-0.5-0.5-0.8c-0.1-0.1-0.1-0.2-0.2-0.4c-0.6-1-1-2-1.4-3.1c0,0,0,0,0,0v0l0,0v0c-0.5-1.3-0.8-2.7-0.9-4
		c-0.5-4.8,1.3-9.6,4.6-12.5c2.1-1.8,4.9-2.8,7.7-2.8c1.8,0,3.5,0.4,4.9,1.2c0.5,0.3,0.9,0.6,1.4,0.9c1.1,0.7,2.3,1.5,3.7,1.8
		c0.4,0.1,0.8,0.1,1.3,0.1c1.3,0,2.6-0.4,3.9-0.7c0.3-0.1,0.5-0.1,0.8-0.2c0,0,0,0,0,0c0.6,0.6,1.1,1.1,1.7,1.7
		c2.9,3.7,6.2,7,10,9.8c0.2,0.2,0.5,0.4,0.7,0.6c0.2,0.2,0.4,0.4,0.7,0.5c0.1,0.1,0.1,0.1,0.2,0.2c0.2,0.2,0.4,0.3,0.6,0.4
		c0.1,0.1,0.2,0.2,0.3,0.2c0.2,0.1,0.3,0.3,0.5,0.4c0.1,0.1,0.3,0.2,0.4,0.3c0.2,0.1,0.3,0.2,0.5,0.3c0.1,0.1,0.3,0.2,0.4,0.3
		c0.2,0.1,0.3,0.2,0.5,0.3c0.2,0.1,0.3,0.2,0.5,0.3c0.1,0.1,0.3,0.2,0.4,0.2c0.2,0.1,0.4,0.2,0.6,0.3c0.1,0.1,0.2,0.1,0.3,0.2
		c0.3,0.1,0.6,0.3,1,0.4C153.2,324.8,150.4,325.6,147.5,325.9z M203.5,326.9c-0.4,0.4-0.8,0.7-1.2,0.8c-0.3,0.1-0.7,0.1-1,0.2
		l-30.8,3.2c-0.6,0.1-1.3,0.1-2.1,0.1c-1.8,0-3-0.4-3.7-1.2c-0.2-0.2-0.3-0.4-0.4-0.6c0-0.1-0.1-0.2-0.1-0.3
		c-0.1-0.1-0.1-0.3-0.2-0.4c0-0.1-0.1-0.2-0.1-0.4c0-0.1-0.1-0.2-0.1-0.4c0-0.2-0.1-0.3-0.1-0.5c0,0,0,0,0,0c0-0.2-0.1-0.4-0.1-0.6
		l-0.1-0.4c-1.6-7.2-5.8-13.7-11.7-18.2c-0.9-1-1.9-2-2.8-3c-0.1-0.1-0.2-0.2-0.4-0.4c0.1-0.1,0.3-0.3,0.4-0.3
		c6.3-4.6,14.8-7.3,25.2-8c2.4-0.2,5.1-0.3,8.1-0.3c3.1,0,6.3,0.1,9.3,0.2c3.1,0.1,6.3,0.2,9.4,0.2l1.3,0c1.5,0,3.1,0,4.5,0.5
		c0.6,0.2,1.1,0.4,1.7,0.8c0,0,0.1,0,0.1,0.1c0.2,0.1,0.5,0.3,0.7,0.5c0.1,0.1,0.1,0.1,0.2,0.2c0.2,0.2,0.4,0.3,0.6,0.5
		c0.1,0.1,0.2,0.2,0.3,0.3c0.2,0.2,0.3,0.4,0.5,0.5c0.1,0.1,0.2,0.2,0.3,0.4c0.1,0.2,0.3,0.4,0.4,0.5c0.1,0.2,0.2,0.3,0.3,0.5
		c0.1,0.2,0.2,0.3,0.3,0.5c0.1,0.2,0.2,0.4,0.3,0.7c0.1,0.1,0.1,0.3,0.2,0.4c0.2,0.4,0.3,0.8,0.4,1.2c1,3.7,0.2,7.5-0.7,10
		C211,318.6,207.9,322.9,203.5,326.9z M254.3,302.2c-2.1,0.3-4.3,0.6-6.4,1c-0.3,0-0.5,0.2-0.7,0.4s-0.2,0.5-0.2,0.7
		c0.9,5.5-2.6,10.7-6.5,13.4c-3.8,2.6-8.7,4.1-15.4,4.7c-2.1,0.2-4.3,0.3-6.8,0.3c-2.7,0-5.3-0.1-8-0.3c0.4-0.5,0.8-1.1,1.1-1.6
		c0.2-0.3,0.3-0.5,0.5-0.8c0.2-0.3,0.3-0.5,0.5-0.8c0.2-0.3,0.4-0.7,0.6-1c0.1-0.2,0.2-0.3,0.2-0.5c0.2-0.4,0.4-0.8,0.6-1.2
		c0.2-0.5,0.4-1,0.6-1.5c1-2.8,2-7,0.8-11.2c-0.5-1.9-1.5-3.6-2.7-5c2.6-0.6,5.3-1.1,7.9-1.6c4.6-0.8,9.4-1.6,13.9-3.4
		c0.5-0.2,0.8-0.8,0.6-1.3c-0.2-0.5-0.8-0.8-1.3-0.6c-4.3,1.7-9,2.5-13.5,3.3c-3.1,0.5-6.2,1.1-9.3,1.9c-1-0.7-2.1-1.3-3.2-1.7
		c-1.7-0.5-3.5-0.6-5.1-0.6l-1.3,0c-3.1,0-6.3-0.1-9.3-0.2c-1.9-0.1-3.9-0.1-5.9-0.1c0-0.1-0.1-0.1-0.1-0.2c-3-2.7-5.1-6.4-5.9-10.3
		c0.1-0.1,0.1-0.2,0.1-0.3c4.8,0.4,9.7,0.8,14.6,1c0.2,0,0.5,0,0.7,0c0.8,0,1.7-0.1,2.6-0.5c1.1,0.5,2.2,0.9,3.4,1.3
		c4.9,1.5,10.1,2,14.9,2.2c1.8,0.1,3.3,0.1,4.7,0.1c4.6,0,8.2-0.5,11.5-1.5c5.9-1.8,10.5-5.6,12.5-10.4c2.7-6.5,0.5-13.9-2.1-20.3
		l-0.4-0.9c-2.3-5.8-4.7-11.9-3.6-17.8c6.7,3.2,14.5,4.9,23.1,4.9c7.1,0,15-1.1,23.4-3.3c-0.7,0.7-1.3,1.4-1.8,2.2h0
		c-0.4,0.6-0.8,1.2-1.1,1.8c-0.1,0.2-0.2,0.4-0.3,0.6c-0.1,0.2-0.2,0.5-0.3,0.7c-0.2,0.5-0.5,1.1-0.7,1.6c-1.5,4.1-1.8,8.5-1.8,11.9
		c-0.1,3.5,0.1,6.1,0.5,8.5c1.8,9.5,8.3,17.3,13.8,23c2,2.1,3.7,3.7,5.3,5.1c1.1,0.9,2.1,1.8,3.3,2.6c-0.6-0.3-1.2-0.6-1.9-0.9
		c-1.8-0.9-3.6-1.8-5.5-2.6c-3-1.3-6.1-2.5-9.2-3.5c-2.7-0.9-5.8-1.8-9.2-1.9c-4.9-0.2-9.9,1.2-14,4.1c-2,1.4-3.7,3.2-5.1,5.1
		c-0.6,0.8-1.2,1.7-1.6,2.7c0,0.1-0.1,0.2-0.1,0.2c-0.2,0.4-0.4,0.8-0.6,1.2C254.6,301.2,254.4,301.7,254.3,302.2z M289.1,307.4
		c-0.1,0-0.1,0-0.2,0c-0.4-0.2-0.8-0.7-1.2-1.3c-1.1-1.8-1.3-4.2-0.6-6.2c0.2-0.5-0.1-1.1-0.6-1.3c-0.5-0.2-1.1,0.1-1.3,0.6
		c-0.8,2.5-0.5,5.5,0.8,7.8c0.7,1.2,1.5,1.9,2.4,2.3c0.5,1.8,0,3.8-1.2,4.9c-0.7,0.6-1.6,0.9-2.6,0.9c-1,0-1.9-0.4-2.6-1
		c0,0,0,0,0,0c-0.2-0.2-0.5-0.4-1-0.8c-0.3-0.2-0.8-0.6-0.9-0.7c-2-3.2-3.2-5.3-3-8.6c0.1-1.2,0.4-2.4,1-3.5
		c0.3-0.5,0.1-1.1-0.4-1.4c-0.5-0.3-1.1-0.1-1.4,0.4c-0.7,1.3-1.2,2.9-1.2,4.4c-0.2,4.2,1.4,6.8,3.3,9.8c0.2,0.4,0.7,0.7,1.4,1.2
		c0.1,0.1,0.3,0.2,0.4,0.3c-0.1,1.1-1.1,2.2-2.3,2.3c-1.3,0.2-2.8-0.6-3.7-1.8c0-0.1-0.1-0.1-0.2-0.2c0,0,0,0,0,0
		c-2.4-1.9-4-3.8-4.4-6.4c-0.2-1.3-0.1-2.7,0-4c0.1-1.6,0.3-3.3,1.1-4.5c0.3-0.4,0.2-1.1-0.2-1.4c-0.4-0.3-1.1-0.2-1.4,0.2
		c-1.2,1.6-1.4,3.6-1.5,5.6c-0.1,1.3-0.1,2.8,0.1,4.3c0.4,3.2,2.4,5.4,4.5,7.3c-0.9,1.8-3.4,2.5-5.3,2.4c-4.3-0.3-8.5-3.5-10.7-8.1
		c-0.6-1.3-0.9-2.4-1-3.4c-0.1-1.1,0.1-2.2,0.5-3.7c1.3-4.3,4-8.2,7.7-10.8c3.4-2.4,7.6-3.8,11.8-3.8c0.3,0,0.6,0,0.9,0
		c3.1,0.1,6.1,1,8.6,1.8c3,1,6,2.1,9,3.5c1.8,0.8,3.7,1.7,5.4,2.6c4.8,2.3,9.7,4.7,14.9,5.9c-1.2,0.5-2.6,0.9-3.9,1.2
		C303.3,306.1,296.2,307.1,289.1,307.4z M356.5,296.6c1.7,2.3,1.8,5.7,0.3,7.7c-1.4,1.8-3.7,2.6-6.4,3.5l-21.8,6.7
		c-0.3,0.1-0.5,0.3-0.7,0.6c-0.1,0.3-0.1,0.6,0.1,0.9c1.3,1.8,2.4,4.9,1.1,7.3c-0.6,1.2-2.2,2.1-3.7,2.1c-0.6,0-1.5-0.1-2.1-0.9
		c0,0,0,0,0,0c-0.1-0.1-0.1-0.1-0.2-0.1c0,0-0.1-0.1-0.1-0.1c0,0-0.1,0-0.1,0c-0.1,0-0.2-0.1-0.3-0.1c0,0,0,0,0,0
		c-2.2-0.1-3.4-0.8-4.4-2.5c-0.1-0.2-0.2-0.4-0.3-0.6c-0.1-0.2-0.2-0.4-0.2-0.6l0,0c-0.5-1.6-0.4-3.4,0.4-4.8
		c0.3-0.5,0.1-1.1-0.4-1.3c-0.5-0.3-1.1-0.1-1.3,0.4c-1.1,2.1-1.2,4.7-0.3,6.9c0.1,0.4,0.3,0.7,0.5,1.1c1.2,2.1,2.9,3.2,5.5,3.5
		c0.1,0.3,0.1,0.6,0,0.9c-0.2,0.8-1,1.6-1.8,1.8c-1.1,0.4-2.6,0.2-4.2,0c-0.4-0.1-0.8-0.1-1.2-0.2c-0.8-0.1-1.6-0.1-2.4-0.2
		c-1.7-1.7-2.7-3.4-3.3-5.2c-0.1-0.2-0.1-0.5-0.2-0.7l0,0c-0.4-1.9-0.2-3.9,0.8-5.3c0.3-0.5,0.2-1.1-0.3-1.4
		c-0.5-0.3-1.1-0.2-1.4,0.3c-1.4,2.1-1.7,5-0.9,7.7c0,0.1,0.1,0.3,0.2,0.4c0.1,0.3,0.3,0.7,0.4,1c0,0,0,0,0,0c0.2,0.3,0.3,0.7,0.5,1
		c0,0.1,0.1,0.1,0.1,0.2c0.2,0.3,0.3,0.5,0.5,0.8c0.2,0.3,0.5,0.7,0.8,1c0,0,0,0,0,0c-4.3,0-8.4-0.1-10.9-2.9
		c-0.2-0.2-0.4-0.4-0.5-0.7c0,0,0,0,0,0c-0.1-0.2-0.3-0.4-0.4-0.7l0,0l0,0c-0.7-1.4-0.8-2.8-0.7-3.8c0.2-3.1,2-6.4,4.6-8.6
		c2.6-2.2,5.6-3.6,8.9-5.1c0.6-0.3,1.2-0.6,1.8-0.8c1.8-0.5,3.6-1.2,5.1-2.4c1.7,0.3,3.4,0.5,5.1,0.5c3.1,0,6.1-0.6,8.8-1.8
		c0.5-0.2,0.7-0.8,0.5-1.3c-0.2-0.5-0.8-0.7-1.3-0.5c-9.6,4.3-20.1-0.9-24.1-3.4c-2.3-1.4-4.5-3-6.5-4.7c-1.6-1.3-3.2-2.9-5.2-4.9
		c-5.3-5.5-11.6-13-13.3-22c-0.4-2.3-0.6-4.8-0.5-8.1c0.1-3.2,0.3-7.4,1.7-11.2c1.4-3.8,3.8-6.8,6.7-8.5c0.2-0.1,0.3-0.3,0.4-0.5
		c2.8-0.8,5.7-1.5,8.5-1.5c0.7,0,1.4,0,2.1,0.1c1.4,0.2,2.8,0.6,4.3,1c0.3,0.1,0.6,0.2,1,0.3c0.1,0,0.1,0.1,0.2,0.1
		c2.5,1.3,4.7,3.1,6.4,5.3c0.2,0.3,0.5,0.4,0.8,0.4c0.2,0,0.4-0.1,0.6-0.2c0.4-0.3,0.5-1,0.2-1.4c-0.9-1.2-1.9-2.2-3-3.2
		c1.3,0.2,2.6,0.3,3.9,0.4c0.2,0,0.4,0,0.5,0.1c0,0,0,0,0,0c0.8,0.1,1.6,0.2,2.4,0.2c0.9,0.1,1.8,0.2,2.6,0.4
		c10.6,1.9,20.3,9.4,25.5,19.5c4.8,9.5,5.7,21.2,2.6,32.2c-0.1,0.1-0.1,0.1-0.2,0.2c-1.5,2.5-4.2,4.3-7.2,4.6
		c-0.1,0-0.2,0.1-0.3,0.1c-0.1,0-0.1,0.1-0.2,0.1c-0.3,0.2-0.4,0.5-0.4,0.9c0,0,0,0.1,0,0.1v0c0,0.1,0.1,0.2,0.1,0.3c0,0,0,0,0,0
		c0.1,0.1,0.2,0.2,0.3,0.3c0.2,0.1,0.3,0.2,0.6,0.2c0,0,0.1,0,0.1,0c3-0.4,5.9-2,7.7-4.4l0,0c0.2-0.2,0.4-0.4,0.5-0.7
		C352.5,293.2,355.1,294.6,356.5,296.6z M367.1,248.4c-1.7,9.4-7.3,17.3-14.7,21c-0.2-0.7-0.4-1.4-0.6-2.1c-0.1-0.2-0.1-0.4-0.2-0.5
		c-0.2-0.7-0.4-1.4-0.7-2.1l0,0l0,0c-2.4-6.8-6.4-12.9-11.7-17.8c6.2-7.5,9.4-17.8,8.8-28.4c-0.2-3.5-0.8-6.4-1.8-9
		c-1.8-4.3-4.9-7.9-8-11c-3.7-3.8-7.7-7.3-11.9-10.6c-1.6-1.2-3.3-2.6-4-4.3c1.1-0.4,2.4-0.5,3.8-0.2l0,0h0c1.1,0.2,2.3,0.6,3.6,1.2
		c0,0,0,0,0.1,0c0.4,0.2,0.9,0.4,1.4,0.7c12.2,6.6,22.7,16.7,29.5,28.6c1.4,2.4,2.4,5,3.1,7C367.5,231.2,368.6,240.2,367.1,248.4z"
		/>
	<path class="st3" d="M314.1,303.2c-5.2-1.2-10.1-3.6-14.9-5.9c-1.8-0.9-3.6-1.8-5.4-2.6c-2.9-1.3-5.9-2.5-9-3.5
		c-2.5-0.8-5.5-1.7-8.6-1.8c-0.3,0-0.6,0-0.9,0c-4.2,0-8.4,1.3-11.8,3.8c-3.7,2.6-6.4,6.5-7.7,10.8c-0.4,1.4-0.6,2.6-0.5,3.7
		c0.1,1,0.4,2.1,1,3.4c2.2,4.7,6.4,7.9,10.7,8.1c2,0.1,4.5-0.6,5.3-2.4c-2.2-1.8-4.1-4-4.5-7.3c-0.2-1.5-0.1-3-0.1-4.3
		c0.1-1.9,0.3-3.9,1.5-5.6c0.3-0.4,1-0.5,1.4-0.2c0.4,0.3,0.5,1,0.2,1.4c-0.9,1.2-1,2.9-1.1,4.5c-0.1,1.2-0.1,2.6,0,4
		c0.4,2.7,2,4.5,4.4,6.4c0,0,0,0,0,0c0.1,0,0.1,0.1,0.2,0.2c0.9,1.3,2.4,2,3.7,1.8c1.2-0.2,2.2-1.2,2.3-2.3
		c-0.1-0.1-0.3-0.2-0.4-0.3c-0.7-0.5-1.2-0.9-1.4-1.2c-1.9-3-3.5-5.6-3.3-9.8c0.1-1.5,0.5-3,1.2-4.4c0.3-0.5,0.9-0.7,1.4-0.4
		c0.5,0.3,0.7,0.9,0.4,1.4c-0.6,1.1-0.9,2.3-1,3.5c-0.2,3.4,1,5.4,3,8.6c0.1,0.1,0.6,0.4,0.9,0.7c0.5,0.3,0.8,0.6,1,0.8c0,0,0,0,0,0
		c0.6,0.6,1.5,1,2.6,1c1,0,1.9-0.3,2.6-0.9c1.3-1.1,1.7-3.1,1.2-4.9c-0.9-0.4-1.8-1.1-2.4-2.3c-1.3-2.3-1.6-5.2-0.8-7.8
		c0.2-0.5,0.7-0.8,1.3-0.6c0.5,0.2,0.8,0.7,0.6,1.3c-0.7,2-0.4,4.3,0.6,6.2c0.4,0.6,0.8,1.1,1.2,1.3c0.1,0,0.1,0,0.2,0
		c7.1-0.3,14.2-1.3,21.1-3C311.5,304.1,312.9,303.7,314.1,303.2z"/>
	<path class="st6" d="M194.9,322c3.7-0.6,7.6-1.3,10.1-4c1.1-1.2,1.9-2.7,2.4-4.3c1.9-5.1,1.9-10.9,0.4-16.1
		c0.3,0.1,0.6,0.3,0.8,0.4c-0.5-0.3-1.1-0.6-1.7-0.8c-1.4-0.4-3-0.5-4.5-0.5l-1.3,0c-3.1,0-6.3-0.1-9.4-0.2
		c-3.1-0.1-6.2-0.2-9.3-0.2c-3,0-5.7,0.1-8.1,0.3c-10.4,0.7-18.9,3.5-25.2,8c-0.1,0.1-0.3,0.2-0.4,0.3c0.1,0.1,0.2,0.2,0.4,0.4
		c0.9,1,1.9,2,2.8,3c5.9,4.4,10.1,10.9,11.7,18.2l0.1,0.4c0,0.2,0.1,0.4,0.1,0.6c3-1.3,6.3-1.8,9.5-2.3
		C180.5,324.2,187.7,323.1,194.9,322z"/>
	<path class="st7" d="M155.7,290.2c3.1-0.6,5.7-2.7,8-4.6c0.2-0.2,0.5-0.3,0.8-0.2c0.3,0.1,0.5,0.2,0.7,0.5c0.8,1.5,2.1,2.6,3.4,2.8
		c1.2,0.2,2.8-0.6,3-1.9c0.2-1.3-0.9-2.5-2-3.2c-0.9-0.6-1.9-1-3-1.2c-0.1,0-0.1,0.1-0.2,0.1c-0.1,0.1-0.3,0.1-0.4,0.1
		c-0.2,0-0.4-0.1-0.5-0.2c-0.1-0.1-0.2-0.1-0.2-0.2c0,0,0,0-0.1,0c-0.5,0-0.9-0.4-1-0.9c-0.3-2.2-2.3-4-4.5-4l-0.1,0
		c-0.3,0-0.6,0.1-0.8,0.2c-0.6,0.3-0.8,1.3-0.5,2.1c0.4,1,1.3,1.8,2.1,2.5c0.3,0.2,0.4,0.6,0.3,1c-0.1,0.4-0.4,0.6-0.7,0.7
		c-2.3,0.6-4.5,1.5-6.6,2.8c-0.4,0.3-0.5,0.4-0.5,0.4c-0.1,0.4-0.4,0.7-0.8,0.8c-0.4,0.1-0.8-0.1-1.1-0.4c-0.4-0.6-1-1.2-1.7-1.5
		c-0.3-0.2-0.6-0.3-0.9-0.3c-0.3,0-0.6,0-0.9,0.1c-1.1,0.4-1.9,1.7-1.9,2.9c0,1.2,0.9,2.4,2,2.9c1.1,0.5,2.6,0.3,3.7-0.5
		c0.2-0.1,0.4-0.2,0.6-0.2c0.2,0,0.4,0.1,0.6,0.2c0.4,0.2,0.5,0.7,0.4,1.1c-0.3,1.1,0.1,2.4,1,3.1c0.9,0.7,2.3,0.9,3.3,0.3
		c0.2-0.1,0.3-0.2,0.3-0.2c0.1-0.2-0.1-0.8-0.6-1.2c-0.1-0.1-0.3-0.2-0.4-0.4c-0.7-0.6-1.5-1.2-1.7-2.3c-0.1-0.3,0-0.6,0.1-0.8
		C155.2,290.4,155.4,290.2,155.7,290.2z"/>
	<path class="st3" d="M110.5,326.6c-0.6-1-1-2-1.4-3.1C109.5,324.6,109.9,325.6,110.5,326.6z"/>
	<path class="st3" d="M122.1,330.4c-1.3-1.6-2.5-3.4-3.1-5.4C119.6,327.1,120.8,328.8,122.1,330.4z"/>
	<path class="st3" d="M137.3,320.8c0.8-0.4,1.2,0.9,2,1.2c0.3,0.1,0.7,0.1,1.1,0c2.9-0.6,5.7-1.5,8.5-2.6c0,0,0,0,0,0
		c-0.2-0.2-0.5-0.4-0.7-0.6c-3.8-2.8-7.1-6.1-10-9.8c-0.6-0.6-1.1-1.1-1.7-1.7c0,0,0,0,0,0c-0.3,0.1-0.5,0.1-0.8,0.2
		c-1.2,0.4-2.5,0.7-3.9,0.7c-0.4,0-0.9,0-1.3-0.1c-1.4-0.3-2.6-1.1-3.7-1.8c-0.5-0.3-0.9-0.6-1.4-0.9c-1.4-0.8-3.2-1.2-4.9-1.2
		c-2.8,0-5.6,1-7.7,2.8c-3.3,2.9-5.1,7.7-4.6,12.5c0.1,1.4,0.5,2.7,0.9,4l0,0c0.2,0.4,0.4,0.9,0.7,1.3c0.9,1.5,2.8,2.7,4.4,1.8
		c1.6-0.8,1.7-3.1,2.6-4.5v0c0-0.2,0-0.3,0-0.5c0-1.2,0.1-2.6,0.6-4c0.5-1.5,1.5-2.7,2.8-3.4c0.5-0.2,1.1,0,1.3,0.4
		c0.2,0.5,0,1.1-0.4,1.3c-0.8,0.4-1.4,1.2-1.8,2.2c-0.4,1.1-0.4,2.2-0.5,3.3c0,0.9,0,1.9,0.2,2.9c0,0.1,0.1,0.3,0.1,0.4
		c0.8,1,2,1.8,3.2,2.1c0.8,0.2,1.7,0.3,2.4-0.1c1.7-1,1-3.7,1.4-5.6c0.1-1.7,0.5-3.4,0.8-4.8c0.1-0.5,0.7-0.9,1.2-0.8
		c0.5,0.1,0.9,0.7,0.8,1.2c-0.5,2.2-1.1,5.2-0.7,8c0,0.1,0,0.2,0,0.2v0v0c0.8,1.5,1.7,3,3.2,3.7c1.5,0.8,3.7,0.5,4.5-1
		c0.3-0.4,0.4-0.9,0.5-1.4c0-1.3,0-2.6-0.1-3.9c0-0.6,0.4-1,0.9-1.1c-0.1,0-0.1,0-0.2,0C137.2,321.5,137.2,321.2,137.3,320.8z"/>
	<path class="st3" d="M129,328.6c-0.4-1.1-0.6-2.1-0.7-3.1C128.4,326.5,128.6,327.5,129,328.6z"/>
	<path class="st1" d="M194.8,282.6c-3.4-2.2-6.1-5.3-8.3-8.1c-2,0.2-4.2,0.3-6.5,0.3c-3.3,0-5.9-0.3-8.4-1.1
		c-1.1-0.3-2.5-0.8-3.6-1.9c-0.1-0.1-0.2-0.2-0.3-0.3c-0.2-0.2-0.4-0.4-0.5-0.4c-0.2-0.1-0.5-0.1-0.8-0.1c-4-0.3-8-0.9-11.9-1.8
		c0.1,0.3,0.2,0.6,0.4,1c0.6,1.3,1.4,2.8,2.8,3.7c0.8,0.6,1.8,0.9,2.9,1.2c0.7,0.2,1.4,0.4,2,0.7c0.8,0.3,1.5,0.8,2.2,1.4
		c0-0.1,0-0.2,0-0.3c0.2-1.9,1.8-3.9,3.9-3.7c0.3,0,0.6,0.3,0.8,0.6c0.9,2,0.7,4.3-0.5,6.2c0.3,0.1,0.6,0.2,0.9,0.2
		c0.3,0.1,0.6,0.2,0.9,0.3c1.6,0.4,3.2,0.6,4.8,0.7c0.8,0.1,1.5,0.1,2.3,0.2c0,0,0,0,0,0c0.4-0.2,0.8-0.1,1.1,0.1
		c5.1,0.5,10.3,0.9,15.4,1.1C194.7,282.6,194.7,282.6,194.8,282.6z"/>
	<path class="st8" d="M219.5,276.1c1.2,0.9,2.9,1.3,4.7,1.4l0.3,0c1.4,0,2.9-0.2,4.7-0.7c0.3-0.1,0.8-0.2,1.3-0.2
		c0.7,0,1.1,0.2,1.5,0.7c0.1,0.2,0.2,0.4,0.3,0.6c0.1,0.1,0.1,0.3,0.2,0.3c0.1,0.1,0.2,0.2,0.4,0.2c0.2,0,0.3-0.1,0.4-0.2
		c0.1-0.2,0.1-0.5,0.1-0.9c0-0.2,0-0.5,0-0.7c0.1-1.3,1.2-2.1,2.1-2.8l0.2-0.2c1.8-1.4,3.1-3.2,3.8-5.1c0.8-2.1,0.8-4.3,0-6.2
		c-1.1-3.2-1.3-3.6-3.3-5.2c-1.5-1.2-3.5-1.9-5.7-2c-1.9-0.1-3.9,0.3-6.1,1.1c-5.9,2.1-9.2,5.4-9.6,9.9c-0.3,2.8,0.7,5.9,2.7,8.3
		C218.3,275.1,218.9,275.7,219.5,276.1z M221.6,259.6c0.7-0.9,1.8-1.4,2.9-1.8c1.2-0.4,2.4-0.7,3.6-0.5c0.3,0,0.6,0.1,0.8,0.3
		c0.2,0.2,0.4,0.5,0.2,0.8c-0.2,0.4-0.8,0.4-1.2,0.4c-1.4,0.1-2.5,1.1-3.2,2.3c-0.3,0.5-0.6,1.2-1.1,1.4c-0.7,0.3-1.4-0.1-1.9-0.6
		c-0.2-0.2-0.4-0.4-0.5-0.7C221.1,260.5,221.3,260,221.6,259.6z"/>
	<path d="M219,277c1.4,1,3.2,1.5,5.2,1.6l0.3,0c1.5,0,3.1-0.2,5-0.8c0.3-0.1,0.7-0.2,1-0.2c0.4,0,0.6,0.1,0.7,0.2
		c0.1,0.1,0.1,0.2,0.2,0.3c0.1,0.2,0.2,0.4,0.3,0.6c0.3,0.4,0.7,0.6,1.2,0.6c0.5,0,1-0.2,1.3-0.7c0.3-0.5,0.3-1,0.2-1.5
		c0-0.2,0-0.4,0-0.6c0.1-0.9,0.9-1.5,1.7-2.1l0.2-0.2c1.9-1.5,3.4-3.4,4.1-5.5c0.8-2.3,0.9-4.8,0-6.9c-1.1-3.2-1.4-3.8-3.6-5.6
		c-1.6-1.3-3.9-2.1-6.2-2.2c-2-0.1-4.1,0.3-6.5,1.1c-6.3,2.2-9.8,5.8-10.3,10.7c-0.3,3.1,0.8,6.4,3,9
		C217.5,275.8,218.2,276.5,219,277z M214.8,265.9c0.5-4.4,3.7-7.8,9.6-9.9c2.2-0.8,4.2-1.1,6.1-1.1c2.2,0.1,4.2,0.8,5.7,2
		c2,1.6,2.2,2,3.3,5.2c0.7,1.9,0.7,4.1,0,6.2c-0.7,1.9-2,3.7-3.8,5.1l-0.2,0.2c-0.9,0.7-2,1.5-2.1,2.8c0,0.2,0,0.5,0,0.7
		c0,0.4,0,0.7-0.1,0.9c-0.1,0.1-0.2,0.2-0.4,0.2c-0.2,0-0.3-0.1-0.4-0.2c-0.1-0.1-0.1-0.2-0.2-0.3c-0.1-0.2-0.2-0.4-0.3-0.6
		c-0.3-0.4-0.8-0.7-1.5-0.7c-0.5,0-1,0.1-1.3,0.2c-1.8,0.5-3.3,0.7-4.7,0.7l-0.3,0c-1.8,0-3.4-0.5-4.7-1.4c-0.6-0.4-1.3-1.1-2-1.9
		C215.5,271.8,214.5,268.8,214.8,265.9z"/>
	<path class="st9" d="M221.7,261.7c0.5,0.5,1.2,0.9,1.9,0.6c0.6-0.2,0.8-0.8,1.1-1.4c0.7-1.2,1.9-2.2,3.2-2.3c0.5,0,1,0,1.2-0.4
		c0.1-0.3,0-0.6-0.2-0.8c-0.2-0.2-0.5-0.3-0.8-0.3c-1.2-0.1-2.5,0.1-3.6,0.5c-1.1,0.4-2.2,0.9-2.9,1.8c-0.3,0.4-0.6,1-0.4,1.5
		C221.3,261.3,221.5,261.5,221.7,261.7z"/>
	<path class="st8" d="M205.9,276.6c-1.4,0.1-2.8,0.5-4,1.3c-0.3,0.2-0.6,0.4-0.5,0.8c0.1,0.4,0.6,0.5,1,0.4c0.5-0.1,0.9-0.4,1.4-0.5
		c1.3-0.4,2.8,0,3.7,1c0.3,0.4,0.6,0.9,1.2,1.1c0.4,0.1,0.8,0,1.2-0.1c0.2-0.1,0.5-0.2,0.6-0.4c0.1-0.2,0.1-0.4,0-0.6
		c-0.3-1.3-1.3-2.5-2.6-2.9C207.3,276.5,206.6,276.5,205.9,276.6z"/>
	<path class="st9" d="M206.5,228.2c-0.1,0-0.2,0.1-0.3,0.1c-1.7,0.5-3.4,0.8-5,1.2c-0.7,0.1-1.4,0.3-2.1,0.4
		c2.3,1.1,3.8,3.6,3.9,6.1c0.1,2.5-1.2,5-3.4,6.4c-1.3,0.8-2.8,1.3-4.4,1.3c-1,0-1.9-0.2-2.8-0.5c-2.3-0.9-4.2-2.8-5.1-5.1
		c-0.1-0.3-0.2-0.7-0.3-1c-0.4,0.6-0.8,1.2-1.1,1.8c0,0.1-0.1,0.2-0.2,0.3c0.1,0.1,0.2,0.2,0.3,0.2c2.2,2.1,5.7,4.8,10,5.3
		c0.9,0.1,1.8,0.1,2.7,0c1.1-0.1,2.1-0.3,2.8-0.7c0.8-0.5,1.6-1.2,2.1-1.7c1.5-1.6,2.6-3.3,3.1-5c0.5-1.7,0.6-3.7,0.3-6.2
		C206.9,230,206.7,229.1,206.5,228.2z"/>
	<path class="st9" d="M219.8,231.5c0.4,0.6,0.9,1.2,1.6,1.8c0.6,0.5,1.3,1.1,2,1.5c1.9,1,4.2,1.2,6.2,1.2c0.2,0,0.4,0,0.6,0
		c0.6,0,1.1,0,1.5-0.1c2.5-0.3,4.8-1.7,6.1-3.8c0.4-0.6,0.7-1.2,1-1.8c-0.3-0.2-0.6-0.5-0.9-0.7l-0.3-0.3c-1.1-0.9-2.1-1.7-3.1-2.4
		c0.2,0.7,0.1,1.4,0.1,1.9c-0.2,1.6-0.7,2.9-1.4,4c-1.2,1.7-3.4,2.8-5.7,2.8c-0.6,0-1.1-0.1-1.7-0.2c-2.4-0.6-4.4-2.3-5.2-4.6
		c-0.8-2.3-0.4-5,1.2-6.8c0.4-0.4,0.8-0.8,1.3-1.1c-0.1,0-0.3,0-0.4,0l-0.1,0c-0.2,0-0.3,0-0.5,0c-0.2,0-0.4,0-0.7-0.1
		c-0.2,0.8-0.7,1.4-1.1,2c-0.1,0.1-0.2,0.3-0.3,0.4C218.9,227.2,218.7,229.7,219.8,231.5z"/>
	<path class="st10" d="M181.1,220.2c0.3,0.1,0.7,0,1-0.2c1.2-0.9,1.3-2.7,2.1-4c0.7-1.1,2-1.7,3.2-2.1c1.5-0.5,3.2-0.6,4.8-0.5
		c0.5,0,1.1,0,1.2-0.5c0.1-0.4-0.3-0.7-0.7-0.8c-1.5-0.6-3.1-0.5-4.6-0.5c-1.9,0.1-4,0.3-5.3,1.6c-0.6,0.6-1,1.5-1.4,2.3
		c-0.4,0.9-0.8,1.9-1,2.9C180.4,219.2,180.5,220,181.1,220.2z"/>
	<path class="st10" d="M225.2,211.6c0.6,0.2,1.2-0.3,1.6-0.9c0.7-0.9,1.5-1.8,2.5-2.1c0.9-0.3,1.8-0.1,2.7,0.3s1.5,1,2.1,1.7
		c0.8,0.9,1.7,1.9,2.8,2c0.1-0.6-0.2-1.2-0.5-1.6c-0.8-1.2-1.7-2.3-2.7-3.3c-1.1-0.9-2.4-1.6-3.9-1.6c-2.1,0-4.1,1.6-4.9,3.5
		C224.6,210.4,224.5,211.3,225.2,211.6z"/>
	<path class="st8" d="M192.7,242.3c2,0.8,4.5,0.5,6.3-0.7c1.8-1.2,3-3.4,2.9-5.5c-0.1-2.2-1.5-4.4-3.5-5.3c-0.4-0.2-0.8-0.3-1.2-0.4
		c0,0-0.1,0-0.1,0c-3.4,0.9-5.9,2.1-7.7,3.7c-0.6,0.5-1.1,1.1-1.6,1.7c0,0.7,0.1,1.3,0.3,1.9C189,239.8,190.7,241.5,192.7,242.3z
		 M190.3,234.7c0.3-0.5,0.8-0.8,1.4-0.8c0.3,0,0.6,0,0.9,0.1c0.7,0.2,1.5,0.7,1.7,1.4c0.1,0.3,0,0.6,0,0.9c-0.1,0.5-0.2,0.9-0.5,1.3
		c-0.4,0.5-1.2,0.6-1.8,0.6c-0.7,0-1.5-0.3-1.9-0.9c-0.2-0.3-0.2-0.7-0.2-1C189.9,235.7,190,235.1,190.3,234.7z"/>
	<path d="M192.4,243.2c0.9,0.3,1.9,0.5,2.8,0.5c1.6,0,3.1-0.4,4.4-1.3c2.1-1.4,3.5-3.9,3.4-6.4c-0.1-2.5-1.7-5-3.9-6.1
		c-0.6,0.1-1.2,0.3-1.8,0.4c0,0,0,0,0,0c0,0,0.1,0,0.1,0c0.4,0,0.7,0.2,1.2,0.4c2,1,3.4,3.1,3.5,5.3c0.1,2.1-1.1,4.3-2.9,5.5
		c-1.8,1.2-4.3,1.4-6.3,0.7c-2-0.8-3.7-2.5-4.5-4.6c-0.2-0.5-0.4-1.2-0.3-1.9c-0.3,0.4-0.6,0.8-0.9,1.2c0.1,0.3,0.2,0.7,0.3,1
		C188.2,240.4,190.1,242.3,192.4,243.2z"/>
	<path class="st8" d="M221.6,230.5c0.7,1.9,2.5,3.5,4.5,4c0.5,0.1,1,0.2,1.4,0.2c2,0,3.8-0.9,4.9-2.3c0.7-0.9,1.1-2.1,1.2-3.5
		c0.1-0.6,0.1-1.5-0.3-2.2c-0.2-0.3-0.4-0.6-0.7-0.8c-0.7-0.4-1.3-0.8-2-1.1c-1.8-0.9-3.6-1.4-5.4-1.7c-1.1,0.3-2,0.8-2.8,1.7
		C221.3,226.2,220.9,228.5,221.6,230.5z M223,228.1c0.1-0.2,0.3-0.4,0.5-0.5c0.7-0.6,1.8-0.9,2.7-0.4c0.3,0.2,0.5,0.4,0.7,0.7
		c0.4,0.6,0.5,1.5,0.2,2.2c-0.3,0.7-1.1,1.2-1.8,1.1c-0.3,0-0.6-0.1-0.9-0.3c-0.5-0.2-1.1-0.5-1.3-1c-0.1-0.3-0.2-0.6-0.2-0.9
		C222.7,228.7,222.8,228.4,223,228.1z"/>
	<path d="M220.6,230.8c0.8,2.2,2.8,4,5.2,4.6c0.5,0.1,1.1,0.2,1.7,0.2c2.3,0,4.4-1.1,5.7-2.8c0.8-1,1.2-2.4,1.4-4
		c0.1-0.5,0.1-1.2-0.1-1.9c-0.6-0.4-1.3-0.8-1.9-1.2c0.3,0.2,0.5,0.5,0.7,0.8c0.4,0.7,0.3,1.6,0.3,2.2c-0.2,1.4-0.6,2.6-1.2,3.5
		c-1,1.4-2.9,2.3-4.9,2.3c-0.5,0-1-0.1-1.4-0.2c-2-0.5-3.8-2.1-4.5-4c-0.7-2-0.3-4.3,1-5.8c0.7-0.8,1.7-1.4,2.8-1.7
		c-0.7-0.1-1.5-0.1-2.2-0.1c-0.5,0.3-1,0.7-1.3,1.1C220.3,225.8,219.8,228.5,220.6,230.8z"/>
	<path class="st9" d="M192,238.2c0.7,0,1.4-0.1,1.8-0.6c0.3-0.3,0.4-0.8,0.5-1.3c0.1-0.3,0.1-0.6,0-0.9c-0.2-0.8-1-1.2-1.7-1.4
		c-0.3-0.1-0.6-0.2-0.9-0.1c-0.6,0-1.1,0.4-1.4,0.8c-0.3,0.5-0.5,1-0.5,1.6c0,0.3,0,0.7,0.2,1C190.4,237.9,191.2,238.2,192,238.2z"
		/>
	<path class="st9" d="M224.2,230.9c0.3,0.1,0.6,0.2,0.9,0.3c0.7,0.1,1.5-0.4,1.8-1.1c0.3-0.7,0.2-1.5-0.2-2.2
		c-0.2-0.3-0.4-0.5-0.7-0.7c-0.8-0.5-1.9-0.2-2.7,0.4c-0.2,0.1-0.4,0.3-0.5,0.5c-0.2,0.3-0.2,0.6-0.2,0.9c0,0.3,0,0.6,0.2,0.9
		C223.1,230.4,223.7,230.7,224.2,230.9z"/>
	<path class="st4" d="M222.3,191.8c0.5,0,1.2,0.1,1.8,0.4c0.6,0.4,1.1,1,1.3,1.8c0.2,0.9,0,2-0.6,2.8c-0.2,0.2-0.3,0.4-0.5,0.6
		c0.5,0.1,1,0.2,1.4,0.3l0,0c0.1-0.1,0.2-0.3,0.4-0.4c3.2-3.5,6.4-7.2,8.4-11.5c2-4.3,2.7-9.5,0.6-13.8c1.4-1.3,3.8-1.1,5.3,0.1
		s2.5,2.9,3.2,4.7c2.9,6.5,4.8,13.6,5.5,20.7c0.5,5.1,0.7,10.9,4.3,14.5c3.4,3.4,8.8,3.9,13.4,2.9c0.3-0.1,0.6-0.1,0.9-0.2
		c1-0.7,1.7-1.5,2.1-2.3c0.4-0.9,0.6-2.1,0.4-3.7c-0.3-2.9-1.2-5.7-2.1-8.3c-3.1-8.9-7.1-17.6-10.9-26.1c-0.9-1.9-1.8-3.9-2.6-5.8
		l-0.1-0.1c-1.4-3.1-2.8-6.4-5.1-8.9c-2.4-2.7-5.7-4.1-8.6-3.7c-3.7,0.5-6.6,3.9-8.4,6.5c-3.8,5.3-6.7,11.2-8.6,17.5
		c-0.2,0.8-0.5,1.6-0.7,2.4c-0.9,3.3-1.9,6.7-3.8,9.5L222.3,191.8z"/>
	<path class="st1" d="M168,275.4c-0.6,0.3-1,1.1-1.1,1.8c-0.1,0.7,0,1.5,0.1,2.3c0,0,0,0,0,0.1C167.9,278.4,168.3,276.8,168,275.4z"
		/>
	<path class="st4" d="M173.4,218.7c0.1,1.1,0.1,2.2,0.2,3.4C173.5,220.9,173.4,219.8,173.4,218.7z"/>
	<path class="st4" d="M172.4,265c1.3-0.3,2.7-0.7,3.5-1.8c1-1.3,0.7-3.2,0.3-4.8c-2.5-11.4-6.7-22.5-6.9-34.2
		c-0.1-7.9,1.8-15.8,5.4-22.9l0,0c0.4-1.5,0.9-2.9,1.4-4.3c0.2-0.4,0.2-0.8,0.2-1c0,0,0,0-0.1,0c-5.1,1-9.1,4.4-11.6,7.1
		c-3.1,3.4-5.4,7.3-8,11.7c-1.5,2.6-2.9,5.2-4.1,7.8c-5.4,12-5.5,26-5.7,38.3c0,0.9,0,2,0.4,2.8c0.7,1.3,2.4,1.8,3.9,2.3
		c-0.4-0.1-0.7-0.2-1.1-0.3C157.4,264.5,165.2,266.5,172.4,265z"/>
	<path class="st11" d="M113.2,158.2c0,0.2,0.1,0.4,0.1,0.7c0,0.1,0,0.3,0,0.4c0,0,0.2,0.1,0.9,0.2l7.8,0.4c0.2,0,0.5,0,0.7,0
		c1.4,0,2.5,0.1,3.5,0.2c0.1,0,0.2,0,0.3,0l0.2,0c0.1-0.5,0.4-0.9,0.7-1.3c0.8-1,2.3-1.6,3.7-1.6c0,0,0.1,0,0.1,0
		c1.1,0,2.1,0.3,3.1,0.6c0.7,0.2,1.4,0.4,2.1,0.5c2.4,0.3,4.9-0.9,6.2-2.9c0.9-1.4,1.3-3.1,1.6-4.9c2.7-14.4,3.2-29.1,1.5-43.7
		c-0.6-5.6-1.8-11.8-6-15.4c-3.6-3.2-8.8-4-13.4-4.5c-1.4-0.1-2.7-0.3-3.9-0.4c-0.1,0.1-0.3,0.1-0.5,0.1c-0.1,0-0.2,0-0.3,0
		c-0.3-0.1-0.6-0.1-0.9-0.2c-3.9-0.2-7-0.1-10,0.2c-5.6,0.7-10.4,2.4-14.3,5.2c-2,1.5-3.6,3.1-4.5,4.8c-1.6,2.8-1.9,6.2-2,10
		c-0.6,14.2-0.7,29.3,3.2,43.5c0.4,1.4,0.8,2.8,1.6,3.8c1.7,2.1,4.7,2.4,6.3,2.4c1.4,0,2.7-0.2,4.1-0.3c1.3-0.2,2.6-0.3,3.9-0.3
		l0.2,0C111.3,155.8,112.8,156.7,113.2,158.2z M123.9,98.3c0.3-0.8,1.1-1.4,2-1.4c0.4,0,0.7,0.1,1,0.3c0.5,0.3,0.9,0.8,1,1.5
		c0.1,0.6-0.1,1.2-0.5,1.7c-0.4,0.4-1,0.7-1.6,0.7h0c-0.4,0-0.7-0.1-1-0.3C124,100.2,123.6,99.2,123.9,98.3z M120.1,96.8
		c0.2-0.2,0.3-0.3,0.6-0.3c0.8-0.1,1.5-0.1,2.3,0.2c0.4,0.1,0.7,0.5,0.7,1l0,2.1c0,0.4-0.2,0.7-0.5,0.9c-0.4,0.2-0.8,0.3-1.2,0.3
		c-0.8,0-1.5-0.3-1.9-0.9C119.2,99.1,119.3,97.7,120.1,96.8z M115.8,103.4c0.6-0.6,1.4-0.9,2.2-1c1.7-0.1,3.4,1.3,3.6,2.9
		c0.1,0.9-0.2,1.9-0.8,2.7c-0.7,0.8-1.6,1.2-2.5,1.2c0,0-0.1,0-0.1,0c-0.9,0-1.9-0.4-2.5-1.2c-0.7-0.7-1-1.7-0.9-2.6
		C114.9,104.8,115.3,104,115.8,103.4z M113.5,98.5c0.3,0.2,0.4,0.5,0.4,0.8c0,0.1,0,0.3,0,0.4c0.1,0.5,0.1,1-0.1,1.6
		c-0.3,0.7-1.1,1.2-1.9,1.2c-0.5,0-1-0.2-1.3-0.5c-0.5-0.4-0.7-0.9-0.8-1.5c0-0.6,0.2-1.3,0.6-1.7C111.1,98,112.6,97.9,113.5,98.5z
		 M107.8,94.3c0.6-0.9,1.9-1.2,2.8-0.7c0.5,0.3,0.8,0.8,1,1.4c0.1,0.6,0,1.2-0.4,1.7c-0.4,0.6-1.1,0.9-1.8,0.9
		c-0.4,0-0.8-0.1-1.1-0.3c-0.1-0.1-0.2-0.1-0.3-0.2C107.4,96.3,107.3,95.1,107.8,94.3z M106,103.1c0.6-0.9,1.6-1.4,2.7-1.4
		c0.5,0,1,0.1,1.4,0.3c1.4,0.7,2.1,2.5,1.5,3.9c-0.5,1.2-1.7,2-3,2c-0.3,0-0.5,0-0.8-0.1c-0.5-0.1-1-0.4-1.4-0.8
		c-0.2-0.2-0.4-0.5-0.6-0.7C105.3,105.3,105.4,104.1,106,103.1z M105.2,152.5c-1.4,0-3.4-0.1-4.8-1.4c-1.4-1.3-1.6-3.1-1.7-4.9
		l-1.2-19.1c-0.3-4.3-0.6-8.7-0.1-13.1c0.1-0.7,0.3-2.9,2.1-3.6c0.3-0.1,0.6-0.2,0.9-0.2c0.9,0,1.6,0.4,2.4,0.8
		c1.5,0.8,3.2,1.6,4.7,1.6h0c0.3,0,0.6,0,0.9-0.1c0.7-0.2,1.5-0.5,2.2-0.9c0.6-0.3,1.2-0.6,1.9-0.9c1-0.3,2-0.5,3.2-0.5
		c1.7,0,3.5,0.4,5.2,0.8c1.7,0.4,3.3,0.7,4.8,0.7c0.8,0,1.6-0.1,2.3-0.3c0.7-0.2,1.4-0.6,2.1-0.9c0.7-0.4,1.5-0.7,2.3-1
		c0.6-0.2,1.3-0.3,2-0.3c1.5,0,2.8,0.6,3.6,1.6c0.9,1.3,0.8,2.9,0.8,4l-1.7,29c-0.2,3.4-0.8,7-3.8,8.6c-1.2,0.6-2.6,0.7-3.7,0.7
		c-0.3,0-0.6,0-0.9,0L105.2,152.5z"/>
	<polygon class="st11" points="118.2,108.4 118.2,108.3 118.2,108.3 	"/>
	<path class="st12" d="M129.3,151.1c0.9,0,2-0.1,2.8-0.5c2.1-1.1,2.6-4.1,2.7-6.9l1.7-29c0.1-1.1,0.1-2.1-0.4-2.7
		c-0.5-0.7-1.4-0.8-1.9-0.8c-0.5,0-0.9,0.1-1.4,0.2c-0.7,0.2-1.3,0.5-2,0.9c-0.8,0.4-1.6,0.8-2.4,1c-0.9,0.3-1.8,0.4-2.8,0.4
		c-1.8,0-3.5-0.4-5.2-0.8c-1.7-0.4-3.2-0.7-4.8-0.7c-0.9,0-1.7,0.1-2.5,0.4c-0.5,0.2-1.1,0.5-1.6,0.8c-0.8,0.4-1.7,0.9-2.7,1.1
		c-0.4,0.1-0.9,0.1-1.4,0.1h0c-2,0-3.9-0.9-5.7-1.8c-0.4-0.2-1-0.5-1.4-0.5c-0.1,0-0.2,0-0.2,0c-0.4,0.1-0.7,0.8-0.8,1.9
		c-0.4,4.2-0.1,8.6,0.1,12.8l1.2,19.1c0.1,1.4,0.2,2.8,1.1,3.6c0.8,0.7,2.1,0.8,3.5,0.9l23.2,0.6
		C128.8,151.1,129.1,151.1,129.3,151.1z M126.2,127.9c-1.6,0-3.1,0.1-4.7,0.1c-6,0-11.9-0.3-17.9-0.9c-0.3,0-0.5-0.3-0.4-0.5
		c0-0.3,0.3-0.5,0.5-0.4c7.4,0.8,15,1,22.4,0.8c0.3,0,0.5,0.2,0.5,0.5C126.7,127.7,126.5,127.9,126.2,127.9z M111,122.7
		c-2.7,0-5.4-0.2-8-0.7c-0.3-0.1-0.4-0.3-0.4-0.6s0.3-0.4,0.6-0.4c8.3,1.7,17.1,0.1,24.9-1.2c0.3,0,0.5,0.1,0.6,0.4
		c0,0.3-0.1,0.5-0.4,0.6C122.8,121.6,116.9,122.7,111,122.7z"/>
	<path class="st5" d="M129.3,153.1c1.2,0,2.5-0.1,3.7-0.7c3-1.6,3.6-5.2,3.8-8.6l1.7-29c0.1-1.1,0.2-2.7-0.8-4c-0.8-1-2-1.6-3.6-1.6
		c-0.7,0-1.4,0.1-2,0.3c-0.8,0.3-1.6,0.6-2.3,1c-0.7,0.4-1.4,0.7-2.1,0.9c-0.7,0.2-1.4,0.3-2.3,0.3c-1.5,0-3.1-0.3-4.8-0.7
		c-1.7-0.4-3.4-0.8-5.2-0.8c-1.2,0-2.2,0.2-3.2,0.5c-0.7,0.2-1.3,0.6-1.9,0.9c-0.8,0.4-1.5,0.8-2.2,0.9c-0.3,0.1-0.6,0.1-0.9,0.1h0
		c-1.6,0-3.2-0.7-4.7-1.6c-0.7-0.4-1.5-0.8-2.4-0.8c-0.3,0-0.6,0.1-0.9,0.2c-1.8,0.7-2,2.8-2.1,3.6c-0.4,4.4-0.1,8.8,0.1,13.1
		l1.2,19.1c0.1,1.8,0.3,3.6,1.7,4.9c1.4,1.3,3.5,1.4,4.8,1.4l23.2,0.6C128.7,153.1,129,153.1,129.3,153.1z M101.8,149.6
		c-0.8-0.8-1-2.1-1.1-3.6L99.5,127c-0.3-4.2-0.6-8.6-0.1-12.8c0.1-1.1,0.4-1.7,0.8-1.9c0.1,0,0.1,0,0.2,0c0.4,0,1,0.3,1.4,0.5
		c1.8,0.9,3.7,1.8,5.7,1.8h0c0.5,0,0.9,0,1.4-0.1c1-0.2,1.9-0.7,2.7-1.1c0.6-0.3,1.1-0.6,1.6-0.8c0.8-0.3,1.6-0.4,2.5-0.4
		c1.5,0,3.1,0.3,4.8,0.7c1.7,0.4,3.5,0.8,5.2,0.8c1,0,2-0.1,2.8-0.4c0.9-0.3,1.7-0.7,2.4-1c0.7-0.3,1.3-0.7,2-0.9
		c0.5-0.1,0.9-0.2,1.4-0.2c0.5,0,1.4,0.1,1.9,0.8c0.5,0.6,0.4,1.6,0.4,2.7l-1.7,29c-0.2,2.8-0.6,5.8-2.7,6.9
		c-0.9,0.4-1.9,0.5-2.8,0.5c-0.3,0-0.6,0-0.9,0l-23.2-0.6C103.9,150.4,102.6,150.4,101.8,149.6z"/>
	<path class="st5" d="M121.9,100.9c0.4,0,0.8-0.1,1.2-0.3c0.3-0.2,0.5-0.5,0.5-0.9l0-2.1c0-0.4-0.3-0.8-0.7-1
		c-0.7-0.2-1.5-0.3-2.3-0.2c-0.2,0-0.4,0.1-0.6,0.3c-0.8,0.9-0.9,2.3-0.1,3.2C120.4,100.6,121.1,100.9,121.9,100.9z"/>
	<path class="st5" d="M124.8,100.7c0.3,0.2,0.7,0.3,1,0.3h0c0.6,0,1.2-0.2,1.6-0.7c0.4-0.4,0.6-1.1,0.5-1.7c-0.1-0.6-0.5-1.2-1-1.5
		c-0.3-0.2-0.6-0.3-1-0.3c-0.9,0-1.7,0.6-2,1.4C123.6,99.2,124,100.2,124.8,100.7z"/>
	<path class="st13" d="M118.2,107.4l0,1h0L118.2,107.4c0.4,0,0.8-0.2,1-0.5c0.3-0.3,0.4-0.7,0.4-1.1c-0.1-0.7-0.8-1.2-1.4-1.2
		c-0.4,0-0.7,0.2-1,0.4c-0.2,0.2-0.4,0.6-0.4,0.9c0,0.4,0.1,0.8,0.4,1.1C117.5,107.2,117.9,107.4,118.2,107.4z"/>
	<path class="st5" d="M118.2,109.4C118.3,109.4,118.3,109.4,118.2,109.4c1,0,1.9-0.5,2.6-1.2c0.7-0.8,1-1.7,0.8-2.7
		c-0.2-1.7-1.9-3.1-3.6-2.9c-0.8,0.1-1.6,0.4-2.2,1c-0.6,0.6-0.9,1.3-1,2.1c-0.1,0.9,0.2,1.9,0.9,2.6
		C116.4,108.9,117.3,109.4,118.2,109.4z M117.2,104.9c0.2-0.2,0.6-0.4,1-0.4c0.7,0,1.3,0.6,1.4,1.2c0.1,0.4-0.1,0.8-0.4,1.1
		c-0.3,0.3-0.7,0.5-1,0.5l0,1l0,0v0l0-1c-0.4,0-0.8-0.2-1-0.5c-0.3-0.3-0.4-0.7-0.4-1.1C116.8,105.4,117,105.1,117.2,104.9z"/>
	<path class="st13" d="M107.8,105.6c0.1,0.1,0.3,0.2,0.5,0.3c0.5,0.1,1.2-0.2,1.3-0.7c0.2-0.5-0.1-1.2-0.5-1.4
		c-0.1-0.1-0.3-0.1-0.5-0.1c-0.4,0-0.8,0.2-1,0.5c-0.2,0.3-0.2,0.8,0,1.1C107.7,105.4,107.7,105.5,107.8,105.6z"/>
	<path class="st5" d="M106.4,107c0.4,0.4,0.8,0.6,1.4,0.8c0.3,0.1,0.5,0.1,0.8,0.1c1.3,0,2.5-0.8,3-2c0.6-1.4-0.1-3.2-1.5-3.9
		c-0.4-0.2-0.9-0.3-1.4-0.3c-1.1,0-2.1,0.5-2.7,1.4c-0.6,0.9-0.6,2.2-0.1,3.2C106,106.5,106.2,106.8,106.4,107z M107.7,104.2
		c0.2-0.3,0.6-0.5,1-0.5c0.2,0,0.3,0,0.5,0.1c0.5,0.2,0.7,0.9,0.5,1.4c-0.2,0.5-0.8,0.8-1.3,0.7c-0.2,0-0.4-0.1-0.5-0.3
		c-0.1-0.1-0.1-0.2-0.2-0.3C107.4,105,107.4,104.5,107.7,104.2z"/>
	<path class="st13" d="M111.9,100.6c0.1,0,0.1,0,0.1,0c0-0.1,0-0.2,0-0.4c-0.1,0-0.1,0.1-0.2,0.1c0,0-0.1,0.1-0.1,0.2
		C111.8,100.5,111.8,100.5,111.9,100.6L111.9,100.6z"/>
	<path class="st5" d="M109.8,100.6c0,0.6,0.3,1.2,0.8,1.5c0.4,0.3,0.8,0.5,1.3,0.5c0.9,0,1.6-0.5,1.9-1.2c0.3-0.6,0.2-1.2,0.1-1.6
		c0-0.1,0-0.3,0-0.4c0-0.3-0.2-0.6-0.4-0.8c-1-0.6-2.4-0.5-3.2,0.4C110,99.3,109.8,99.9,109.8,100.6z M111.9,100.2
		c0,0,0.1-0.1,0.2-0.1c0,0.2,0,0.4,0,0.4c0,0-0.1,0-0.1,0l-0.1,0c0,0,0-0.1-0.1-0.1C111.8,100.3,111.8,100.2,111.9,100.2z"/>
	<path class="st5" d="M108.3,97.3c0.3,0.2,0.7,0.3,1.1,0.3c0.7,0,1.4-0.3,1.8-0.9c0.4-0.5,0.5-1.1,0.4-1.7c-0.1-0.6-0.5-1.1-1-1.4
		c-0.9-0.5-2.2-0.2-2.8,0.7c-0.5,0.8-0.5,2,0.2,2.8C108.1,97.2,108.2,97.3,108.3,97.3z"/>
	<path class="st2" d="M120.9,84.5c0-1.4-0.3-2.8-0.8-4.2c-0.3-0.7-0.8-1.5-1.3-1.5c-0.5,0-1,0.7-1.2,1.3c-0.6,1.3-0.8,2.7-0.8,4.1
		c0.3,0,0.6,0,1,0C118.8,84.2,119.9,84.3,120.9,84.5z"/>
	<path class="st13" d="M113.2,165.9C113.2,165.9,113.2,165.9,113.2,165.9l-3,0.4c0,0.2,0.2,0.5,0.4,0.6c0.6,0.3,1.4,0.3,2.2,0.3
		c3.2-0.1,6.4,0.1,9.5,0.2c0.9,0,1.8,0.1,2.7,0.1c0.8,0,1.8,0,2.2-0.5c0.3-0.5-0.1-1.4-0.6-2.1L113.2,165.9z"/>
	<path d="M128.6,120.1c0-0.3-0.3-0.5-0.6-0.4c-7.8,1.4-16.6,2.9-24.9,1.2c-0.3-0.1-0.5,0.1-0.6,0.4s0.1,0.5,0.4,0.6
		c2.6,0.5,5.3,0.7,8,0.7c5.9,0,11.8-1,17.2-2C128.5,120.7,128.7,120.4,128.6,120.1z"/>
	<path d="M126.2,126.9c-7.5,0.2-15-0.1-22.4-0.8c-0.3,0-0.5,0.2-0.5,0.4c0,0.3,0.2,0.5,0.4,0.5c5.9,0.6,11.9,0.9,17.9,0.9
		c1.6,0,3.1,0,4.7-0.1c0.3,0,0.5-0.2,0.5-0.5C126.7,127.1,126.5,126.9,126.2,126.9z"/>
	<path class="st10" d="M222.4,220.9C222.4,220.9,222.4,220.9,222.4,220.9c-0.1,0-0.3-0.1-0.5-0.1c0,0-0.1,0-0.1,0
		c-0.1,0-0.1,0-0.2,0.1C221.9,220.9,222.1,220.9,222.4,220.9z"/>
	<path class="st13" d="M147.8,315.7c3.4,3.3,7.4,6.6,11.7,6.6c-2.7-5.9-7.4-10.8-11.9-15.5c-0.7-0.7-1.3-1.4-1.9-2.1
		c-9.1-9.7-17.3-20.4-25.2-30.7c-4.3-5.6-8.8-11.4-11.5-18.2c-6.4-15.9-2.2-33.7,2.8-49c0.3-0.9,0.6-1.9,0.9-2.8
		c3.3-10.1,6.8-20.6,5.7-31c-0.9,0-1.7-0.1-2.4-0.1c1.2,8.9-0.5,18.7-4.7,27.8c-1,2.2-2.2,4.4-3.4,6.6c-1.1,2.1-2.3,4.3-3.3,6.4
		c-8.2,17.5-7.1,38.8,2.8,55.4c2.9,4.9,6.5,9.3,9.6,13.1C126.5,294,136.9,305.2,147.8,315.7z"/>
	<path class="st13" d="M112.1,163.9l14.4-1.1c0.5,0,0.7-0.1,0.7-0.1c0,0-0.1-0.2-0.2-0.3c-0.3-0.2-0.7-0.3-1.2-0.4
		c-0.9-0.1-2-0.2-3.2-0.2c-0.8,0-1.5,0-2.3,0c-0.8,0-1.5,0-2.3,0c-2,0-3.5-0.1-4.9-0.4l-0.2,0c-0.4-0.1-0.7-0.2-1-0.1
		c-0.5,0-1,0.4-1.2,1c-0.2,0.4-0.3,0.9-0.3,1.6C110.9,164,111.5,164,112.1,163.9z"/>
	<path class="st13" d="M123.1,171.3c0.5,0,1.3-0.1,1.7-0.5c0.2-0.2,0.3-0.4,0.3-0.7c0,0,0,0,0-0.1c-4.1,0.1-8.3-0.1-12.5-0.5
		c-0.3,0-0.7,0-1,0.1c-0.3,0-0.6,0.1-0.8,0.1c-0.1,0.1-0.3,0.6-0.2,0.8c0.7,0.2,3.1,0.5,12,0.8L123.1,171.3z"/>
	<path class="st4" d="M190.6,220c-2.5,0.5-4.8,2.2-6.1,4.5c-1.3,2.2-1.7,5-1.2,7.7c0.1,0.7,0.3,1.3,0.5,2c0.2,0.6,0.3,1.2,0.5,1.8
		c0.7-0.7,1.3-1.5,1.9-2.4c0.8-1.1,1.6-2.2,2.6-3.1c3.1-3,7.7-4.5,13.7-4.5c1.3,0,2.1-0.3,2.2-0.7c0-0.2-0.1-0.5-0.1-0.5
		c-0.5-1.4-1.8-2.7-3.6-3.5c-1.7-0.8-3.6-1.1-5.4-1.2c-0.7-0.1-1.7-0.2-2.6-0.2C192.1,219.8,191.3,219.9,190.6,220z"/>
	<path class="st5" d="M190.2,218.1c-3,0.7-5.8,2.7-7.4,5.5c-1.5,2.6-2.1,5.9-1.4,9.1c0.2,0.7,0.4,1.5,0.6,2.2
		c0.2,0.6,0.3,1.1,0.4,1.6c0.1,0.8,0.1,1.5,0,2.2c-0.1,0.2-0.2,0.4-0.2,0.6c-0.2,0.5,0,1,0.5,1.2c0,0,0,0,0.1,0
		c0.2,0.2,0.4,0.3,0.5,0.3c0.1,0,0.2,0,0.3,0c0.3,0,0.5-0.1,0.7-0.3c0.2-0.1,0.3-0.1,0.5-0.2c0.1,0,0.1,0.1,0.2,0.2
		c3.4,3.3,7.2,5.3,10.9,5.7c0.6,0.1,1.2,0.1,1.8,0.1c0.4,0,0.9,0,1.3-0.1c1.3-0.1,2.5-0.4,3.4-0.9c1-0.6,1.9-1.4,2.5-2
		c1.7-1.8,2.9-3.7,3.4-5.6c0.6-1.9,0.7-4.1,0.4-6.8c-0.2-1.7-0.6-3.2-1-4.6c0,0,0-0.1,0-0.1c-0.1-0.1-0.1-0.3-0.2-0.4
		c0-0.1-0.1-0.3-0.1-0.4c-0.2-0.4-0.3-0.7-0.5-1c0-0.1-0.1-0.3-0.1-0.4c-0.7-1.9-2.4-3.6-4.6-4.6c-2-0.9-4.1-1.2-6.1-1.4
		c-0.8-0.1-1.8-0.2-2.8-0.2C191.9,217.8,191,217.9,190.2,218.1z M206.7,237.3c-0.5,1.7-1.6,3.3-3.1,5c-0.5,0.6-1.2,1.3-2.1,1.7
		c-0.8,0.4-1.7,0.6-2.8,0.7c-0.9,0.1-1.8,0.1-2.7,0c-4.3-0.5-7.8-3.2-10-5.3c-0.1-0.1-0.2-0.2-0.3-0.2c0.1-0.1,0.1-0.2,0.2-0.3
		c0.4-0.6,0.7-1.2,1.1-1.8c0.3-0.4,0.6-0.8,0.9-1.2c0.5-0.6,1-1.2,1.6-1.7c1.8-1.7,4.3-2.8,7.7-3.7c0,0,0,0,0,0
		c0.6-0.2,1.2-0.3,1.8-0.4c0.7-0.2,1.4-0.3,2.1-0.4c1.7-0.3,3.4-0.7,5-1.2c0.1,0,0.2-0.1,0.3-0.1c0.2,0.9,0.4,1.8,0.5,2.9
		C207.3,233.6,207.2,235.6,206.7,237.3z M201.1,221.2c1.7,0.8,3,2.1,3.6,3.5c0,0.1,0.1,0.4,0.1,0.5c-0.1,0.4-0.9,0.7-2.2,0.7
		c-6,0-10.6,1.6-13.7,4.5c-1,1-1.8,2.1-2.6,3.1c-0.6,0.8-1.2,1.6-1.9,2.4c-0.1-0.6-0.3-1.2-0.5-1.8c-0.2-0.7-0.4-1.4-0.5-2
		c-0.5-2.6-0.1-5.4,1.2-7.7c1.3-2.3,3.6-4,6.1-4.5c0.7-0.2,1.5-0.2,2.4-0.2c0.9,0,1.9,0.1,2.6,0.2
		C197.4,220.1,199.4,220.4,201.1,221.2z"/>
	<path class="st4" d="M239.3,222c-1.3-2.3-2.7-4.1-4.2-5.4c-0.6-0.5-1.1-0.8-1.6-1c-0.4-0.2-1-0.3-1.6-0.4c-3.1-0.4-6.4,1.2-8.4,3.8
		c0.3,0,0.6,0.1,0.9,0.1c0.6,0.1,1.2,0.1,1.9,0.3c1.7,0.4,3.2,1.2,4.5,1.9c3.2,1.8,6.2,3.9,9.1,6.2c0.5-1,0.6-2,0.5-2.9
		C240.2,223.8,239.8,222.9,239.3,222z"/>
	<path class="st14" d="M253.5,212c-3.6-3.7-3.8-9.4-4.3-14.5c-0.7-7.1-2.6-14.1-5.5-20.7c-0.8-1.7-1.7-3.5-3.2-4.7s-3.9-1.4-5.3-0.1
		c2,4.3,1.4,9.5-0.6,13.8c-2,4.3-5.2,8-8.4,11.5c-0.1,0.1-0.2,0.3-0.4,0.4l0,0c0.3,0.1,0.6,0.1,0.9,0.2c0.2,0.1,0.4,0.1,0.6,0.2
		c0.3,0.1,0.5,0.2,0.7,0.2c0.3,0.1,0.5,0.2,0.8,0.3c0.2,0.1,0.4,0.1,0.6,0.2c0.5,0.2,0.9,0.4,1.4,0.6c3.3-4.4,6.7-8.7,10.2-13
		c0.3-0.3,0.9-1.1,1.8-1.3c-1-3.8-2.5-7.8-5.1-11.1c-0.3-0.4-0.3-1.1,0.2-1.4c0.4-0.3,1.1-0.3,1.4,0.2c3.2,4,4.8,8.9,5.9,13.3
		c0.3,0.4,0.5,1,0.6,1.9c0.4,3.7,0.5,7.5,0.5,11.2c0,3.7,0,7.6,0.5,11.3c0.2,1.5,0.5,3.1,1.4,4.3c0.9,1.2,2.6,2.1,5,2.6
		c4.4,0.8,9.2,0.2,13.2-1.8c0.3-0.1,0.6-0.3,0.8-0.4c0,0,0,0,0.1,0c0.2-0.1,0.5-0.3,0.7-0.5l0,0h0c-0.3,0.1-0.6,0.1-0.9,0.2
		C262.2,215.8,256.8,215.4,253.5,212z"/>
	<path class="st14" d="M180.9,268.6c1.8-0.3,4.1-1,4.5-2.6c0.3-1.1-0.3-2.4-0.9-3.6c-6-12.7-9.7-26.3-11-40.4
		c-0.1-1.2-0.2-2.3-0.2-3.4c0-0.4,0-0.8-0.1-1.2c0-0.7,0-1.3-0.1-2c0-0.5,0-1,0-1.5c0-0.5,0-1,0-1.4c0-0.6,0-1.1,0.1-1.7
		c0-0.2,0-0.4,0-0.6c0.2-2.4,0.4-4.6,0.9-6.7c0-0.1,0-0.1,0-0.2c0.2-0.7,0.3-1.4,0.5-2.1l0,0c-3.6,7.1-5.5,15-5.4,22.9
		c0.1,11.6,4.4,22.8,6.9,34.2c0.3,1.6,0.6,3.5-0.3,4.8c-0.8,1.1-2.2,1.5-3.5,1.8c-7.2,1.5-15-0.5-22.2,0.8c0.4,0.1,0.8,0.2,1.1,0.3
		c7.9,2.1,14.9,3.2,21.3,3.2C175.5,269.2,178.3,269,180.9,268.6z"/>
	<path class="st14" d="M360.7,213.7c-6.8-11.8-17.3-22-29.5-28.6c-0.5-0.3-0.9-0.5-1.4-0.7c0,0,0,0-0.1,0c-1.3-0.6-2.5-1-3.6-1.2h0
		c1.3,0.9,2.7,1.7,4,2.5c11.8,7.2,22.4,16.9,28.5,29.2s7.3,27.5,1.1,39.9c-1.9,3.7-4.4,7.1-7.9,9.3c-0.3,0.2-0.6,0.4-0.9,0.5l0,0
		l0,0c0.2,0.7,0.5,1.4,0.7,2.1c0.1,0.2,0.1,0.4,0.2,0.5c0.2,0.7,0.4,1.4,0.6,2.1c7.4-3.6,13-11.5,14.7-21c1.5-8.1,0.4-17.2-3.4-27.7
		C363,218.6,362.1,216,360.7,213.7z"/>
	<polygon class="st14" points="326.2,183.2 326.2,183.2 326.2,183.2 	"/>
	<path class="st15" d="M213.3,304.2c-0.1-0.4-0.2-0.8-0.4-1.2c-0.1-0.1-0.1-0.3-0.2-0.4c-0.1-0.2-0.2-0.5-0.3-0.7
		c-0.1-0.2-0.2-0.3-0.3-0.5c-0.1-0.2-0.2-0.3-0.3-0.5c-0.1-0.2-0.3-0.4-0.4-0.5c-0.1-0.1-0.2-0.2-0.3-0.4c-0.2-0.2-0.3-0.4-0.5-0.5
		c-0.1-0.1-0.2-0.2-0.3-0.3c-0.2-0.2-0.4-0.4-0.6-0.5c-0.1-0.1-0.1-0.1-0.2-0.2c-0.2-0.2-0.5-0.3-0.7-0.5c0,0-0.1,0-0.1-0.1
		c-0.3-0.2-0.5-0.3-0.8-0.4c1.6,5.2,1.5,11-0.4,16.1c-0.6,1.6-1.3,3.1-2.4,4.3c-2.5,2.7-6.5,3.4-10.1,4c-7.2,1.1-14.5,2.2-21.7,3.3
		c-3.2,0.5-6.5,1-9.5,2.3c0,0,0,0,0,0c0,0.2,0.1,0.3,0.1,0.5c0,0.1,0.1,0.2,0.1,0.4c0,0.1,0.1,0.2,0.1,0.4c0.1,0.1,0.1,0.3,0.2,0.4
		c0,0.1,0.1,0.2,0.1,0.3c0.1,0.2,0.2,0.4,0.4,0.6c0.7,0.8,1.9,1.2,3.7,1.2c0.7,0,1.5-0.1,2.1-0.1l30.8-3.2c0.4,0,0.7-0.1,1-0.2
		c0.4-0.1,0.8-0.5,1.2-0.8c4.4-4,7.5-8.3,9.1-12.7C213.5,311.7,214.4,308,213.3,304.2z"/>
	<path class="st16" d="M339.2,262.3c4.6,10.5,5.1,22.7,1.3,33.6c0.1,0,0.1-0.1,0.2-0.1c0.1,0,0.2-0.1,0.3-0.1
		c2.9-0.3,5.7-2.1,7.2-4.6c0-0.1,0.1-0.1,0.2-0.2c3.1-11,2.1-22.7-2.6-32.2c-5.2-10.2-14.9-17.7-25.5-19.5c-0.9-0.2-1.7-0.3-2.6-0.4
		c-0.8-0.1-1.6-0.2-2.4-0.2c0,0,0,0,0,0C325.8,243.1,334.6,251.8,339.2,262.3z"/>
	<path class="st16" d="M349,293.3L349,293.3C349,293.3,349.1,293.3,349,293.3c2.4,1.3,2.7,4.7,1.5,7c-1.3,2.3-3.7,3.8-6.1,4.9
		c-3.7,1.8-7.6,3.1-11.6,3.9c-2.1,0.4-4.2,0.7-6,1.7c-1.8,1-3.4,3-3.1,5.1c0.2,1.7,1.4,3.6,0.4,5c-2.1,0.3-4.2,0.2-6.2-0.4l0,0
		c0.1,0.2,0.1,0.4,0.2,0.6c0.1,0.2,0.2,0.4,0.3,0.6c1,1.7,2.2,2.4,4.4,2.5c0,0,0,0,0,0c0.1,0,0.2,0,0.3,0.1c0,0,0.1,0,0.1,0
		c0,0,0.1,0.1,0.1,0.1c0.1,0,0.1,0.1,0.2,0.1c0,0,0,0,0,0c0.6,0.7,1.5,0.9,2.1,0.9c1.5,0,3-0.9,3.7-2.1c1.3-2.4,0.2-5.4-1.1-7.3
		c-0.2-0.3-0.2-0.6-0.1-0.9c0.1-0.3,0.3-0.5,0.7-0.6l21.8-6.7c2.7-0.8,5-1.6,6.4-3.5c1.5-2,1.4-5.4-0.3-7.7c-1.5-2-4-3.5-7-4
		C349.4,292.9,349.2,293.1,349,293.3z"/>
	<path class="st16" d="M340.6,297.5c-0.1-0.1-0.2-0.2-0.3-0.3c0,0,0,0,0,0c-0.1-0.1-0.1-0.2-0.1-0.3v0c-0.1,0.3-0.2,0.6-0.3,0.8
		C340.1,297.7,340.4,297.6,340.6,297.5z"/>
	<path class="st16" d="M313.4,324.2c-1.6,0.4-3.5-0.3-4.4-1.6l0,0c0.1,0.2,0.1,0.5,0.2,0.7c0.5,1.7,1.6,3.4,3.3,5.2
		c0.8,0,1.6,0.1,2.4,0.2c0.4,0,0.8,0.1,1.2,0.2c1.6,0.2,3.1,0.4,4.2,0c0.8-0.3,1.5-1,1.8-1.8c0.1-0.3,0.1-0.6,0-0.9
		c-2.5-0.3-4.2-1.3-5.5-3.5c-0.2-0.3-0.4-0.7-0.5-1.1C315.7,322.9,314.7,323.9,313.4,324.2z"/>
	<path class="st16" d="M301.7,325.8c-1.4-0.3-2.7-0.9-3.8-1.6l0,0l0,0c0.1,0.2,0.2,0.4,0.4,0.7c0,0,0,0,0,0c0.2,0.2,0.3,0.5,0.5,0.7
		c2.5,2.8,6.6,2.8,10.9,2.9c0,0,0,0,0,0c-0.3-0.3-0.5-0.7-0.8-1c-0.2-0.3-0.3-0.5-0.5-0.8c0-0.1-0.1-0.1-0.1-0.2
		c-0.2-0.3-0.4-0.7-0.5-1c0,0,0,0,0,0c-0.2-0.3-0.3-0.7-0.4-1l0,0C305.9,325.6,303.7,326.2,301.7,325.8z"/>
	<path class="st16" d="M255.5,299.3c0.5-0.9,1-1.8,1.6-2.7l0,0c-1.9,1.1-3.9,1.9-6.2,1.9c-1,0-1.9-0.1-2.8,0.2
		c-2.9,0.9-3.2,4.8-4.1,7.8c-1.9,5.9-8.5,9.1-14.7,9.8c-5.1,0.6-10.3,0-15.5,0.1l0,0c-0.2,0.4-0.4,0.8-0.6,1.2
		c-0.1,0.2-0.2,0.3-0.2,0.5c-0.2,0.4-0.4,0.7-0.6,1c-0.2,0.3-0.3,0.5-0.5,0.8c-0.2,0.3-0.3,0.5-0.5,0.8c-0.4,0.5-0.7,1.1-1.1,1.6
		c2.7,0.2,5.4,0.3,8,0.3c2.4,0,4.6-0.1,6.8-0.3c6.7-0.6,11.6-2,15.4-4.7c3.9-2.7,7.4-7.9,6.5-13.4c0-0.3,0-0.5,0.2-0.7
		s0.4-0.4,0.7-0.4c2.1-0.4,4.3-0.7,6.4-1c0.2-0.5,0.4-1,0.6-1.5c0.2-0.4,0.4-0.8,0.6-1.2C255.5,299.4,255.5,299.3,255.5,299.3z"/>
	<path class="st16" d="M278.2,246.4c-7,13.2-1.8,30.1,8.2,41.2c-3.7-0.8-7.6-0.9-11.3-0.2c0.4,0,0.8,0,1.2,0
		c3.3,0.2,6.5,1.1,9.2,1.9c3.1,1,6.2,2.2,9.2,3.5c1.8,0.8,3.7,1.7,5.5,2.6c0.6,0.3,1.2,0.6,1.9,0.9c-1.1-0.8-2.2-1.7-3.3-2.6
		c-1.6-1.4-3.3-3-5.3-5.1c-5.5-5.7-12.1-13.5-13.8-23c-0.4-2.4-0.6-5-0.5-8.5c0.1-3.4,0.3-7.8,1.8-11.9c0.2-0.6,0.4-1.1,0.7-1.6
		c0.1-0.2,0.2-0.5,0.3-0.7c0.1-0.2,0.2-0.4,0.3-0.6c0.4-0.6,0.7-1.2,1.1-1.8h0C281.2,242,279.4,244.2,278.2,246.4z"/>
	<path class="st16" d="M154.5,323.1c-0.2-0.1-0.4-0.2-0.6-0.3c-0.1-0.1-0.3-0.1-0.4-0.2c-0.2-0.1-0.3-0.2-0.5-0.3
		c-0.2-0.1-0.3-0.2-0.5-0.3c-0.1-0.1-0.3-0.2-0.4-0.3c-0.2-0.1-0.3-0.2-0.5-0.3c-0.1-0.1-0.3-0.2-0.4-0.3c-0.2-0.1-0.4-0.3-0.5-0.4
		c-0.1-0.1-0.2-0.2-0.3-0.2c-0.2-0.1-0.4-0.3-0.6-0.4c-0.1-0.1-0.1-0.1-0.2-0.2c-0.2-0.2-0.4-0.4-0.7-0.5c0,0,0,0,0,0
		c-2.8,1.1-5.6,2-8.5,2.6c-0.4,0.1-0.8,0.2-1.1,0c-0.8-0.3-1.2-1.6-2-1.2c0,0.4-0.1,0.7-0.1,1.1c0.1,0,0.1,0,0.2,0
		c0.6,0,1,0.4,1.1,0.9c0.1,1.8,0.1,3.7,0.1,5.5c0,0,0,0,0,0c0.2,0.5,0.9,0.5,1.2,0.5c0.4,0,0.7-0.1,1.1-0.2c0.5-0.2,1-0.5,1.5-0.9
		c0.6-0.4,1.2-0.8,2-1.1c1-0.4,1.9-0.5,2.9-0.6l0.4-0.1c2.9-0.4,5.6-1.1,8.2-2.3c-0.3-0.1-0.7-0.2-1-0.4
		C154.7,323.2,154.6,323.2,154.5,323.1z"/>
	<path class="st16" d="M124.7,327.1c-0.7,0.4-1.6,0.4-2.4,0.1c-1.3-0.4-2.4-1.1-3.2-2.1c0.5,2,1.7,3.8,3.1,5.4
		c0.2,0.2,0.4,0.5,0.6,0.7c0.3-0.1,0.7,0.1,0.9,0.3c1.1,1.3,2.7,2,4.4,2c0.5,0,0.7-0.1,0.9-0.2c-1.5-2.8-2.4-5.4-2.7-7.9
		c0-0.4-0.1-0.7-0.1-1.1c0-0.2,0-0.4,0-0.5c0-0.2,0-0.3,0-0.5c0-0.2,0-0.5,0-0.7c0-0.1,0-0.2,0-0.2c0-0.3,0-0.6,0.1-0.9l0,0
		C125.7,323.4,126.4,326.1,124.7,327.1z"/>
	<path class="st16" d="M131.5,329.2c-1.5-0.7-2.5-2.2-3.2-3.7c0,0,0,0,0,0c0.1,1,0.4,2,0.7,3.1c0,0,0,0.1,0.1,0.1
		c0.2,0.5,0.4,1,0.6,1.5c0.2,0.6,0.5,1.1,0.8,1.7c0.2,0.1,0.4,0.2,0.5,0.5c0.4,0.8,1.3,1,2,1c0.6,0,1.1-0.2,1.6-0.4
		c1-0.7,1.7-1.9,2-3.5c0-0.1,0-0.1,0-0.2c0-0.8,0-1.7,0-2.5c-0.1,0.5-0.2,1-0.5,1.4C135.1,329.7,133,329.9,131.5,329.2z"/>
	<polygon class="st16" points="128.2,325.5 128.2,325.5 128.2,325.5 	"/>
	<path class="st16" d="M114.1,326.7c-1.5,0.8-3.5-0.3-4.4-1.8c-0.3-0.4-0.5-0.9-0.7-1.3c0,0,0,0,0,0c0.4,1.1,0.8,2.1,1.4,3.1
		c0.1,0.1,0.1,0.2,0.2,0.4c0.2,0.3,0.3,0.5,0.5,0.8c0.2,0.4,0.5,0.7,0.7,1.1c0.1,0.2,0.2,0.3,0.3,0.4c0.2,0.3,0.5,0.6,0.7,0.9
		c0.1,0.1,0.2,0.3,0.3,0.4c0.4,0.4,0.7,0.8,1.1,1.2c1.6,1.5,3,2.3,4.3,2.4c1,0.1,2.2-0.4,2.8-1.3c-1.8-2.1-3.9-4.7-4.6-7.9
		c-0.1-0.3-0.1-0.5-0.1-0.8c0-0.1,0-0.2,0-0.3c0-0.2,0-0.3,0-0.5c0-0.1,0-0.3,0-0.4c0-0.1,0-0.2,0-0.3c0-0.2,0-0.4,0-0.5v0
		C115.8,323.6,115.7,325.8,114.1,326.7z"/>
	<polygon class="st16" points="109.1,323.5 109.1,323.5 109.1,323.5 109.1,323.5 	"/>
	<path class="st16" d="M106.1,318.4c0-0.1,0-0.2,0-0.3c0-0.4,0-0.8,0-1.2c0,0,0,0,0-0.1c0.1-0.9,0.2-1.9,0.4-2.8c0,0,0,0,0,0
		c-0.7,1.4-1.3,2.8-2,4.2c-0.3,0.6-0.6,1.3-1.1,1.8c-0.9,0.9-2.4,1-3.5,0.4c-0.3-0.2-0.6-0.5-0.8-0.8c0,0,0,0,0,0c0,0.5,0,1-0.1,1.6
		c0,0.9,0,1.7,0,2.6c0,1.1,0.3,1.8,0.7,1.9c0,0,0,0,0.1,0c0,0,0.1,0,0.1,0c0.7,0.3,1.4,0.5,2.3,0.5c1.4,0,3-0.4,4.4-0.8
		c0.3-0.1,0.6-0.2,0.9-0.3c-0.7-1.7-1.2-3.5-1.3-5.4C106.1,319.3,106.1,318.9,106.1,318.4z"/>
	<path class="st16" d="M89.5,320.9c-0.5,1.1-1.3,1.9-2.4,2.2c-1.2,0.3-2.5-0.1-3.5-0.8c-0.3-0.2-0.6-0.5-0.8-0.7h0l0,0
		c0,0.6,0.1,1.1,0.2,1.7c0,0.1,0,0.1,0,0.2c0.1,0.5,0.1,1,0.2,1.4c0,0.1,0,0.2,0.1,0.4c0.1,0.4,0.2,0.9,0.3,1.3
		c0,0.1,0.1,0.3,0.1,0.4c0.2,0.6,0.3,1.1,0.6,1.6c0.2,0.2,0.3,0.4,0.3,0.6c0.2,1.5,1.9,2.8,3.7,2.6c1.4-0.1,2.8-1.1,3.6-2.5
		c-0.2-0.4-0.5-0.8-0.7-1.2c-0.1-0.1-0.1-0.3-0.2-0.4c-0.1-0.3-0.2-0.5-0.3-0.8c-0.1-0.2-0.1-0.3-0.2-0.5c-0.1-0.2-0.2-0.5-0.2-0.7
		c0-0.2-0.1-0.3-0.1-0.5c-0.1-0.2-0.1-0.5-0.2-0.7c0-0.2-0.1-0.3-0.1-0.5c0-0.2-0.1-0.5-0.1-0.7c0-0.2-0.1-0.3-0.1-0.5
		c0-0.2-0.1-0.5-0.1-0.7c0-0.1,0-0.3,0-0.4C89.5,321.6,89.5,321.2,89.5,320.9C89.5,320.9,89.5,320.9,89.5,320.9L89.5,320.9
		L89.5,320.9z"/>
	<path class="st16" d="M77.9,321.2c-1.3-0.2-2.4-1.1-3.5-2c-1.2-1-2.4-2.1-2.9-3.6c-0.1-0.2-0.1-0.5-0.2-0.7c0,0.4,0,0.7,0,1.1
		c0,0,0,0,0,0c0,0.3,0,0.7,0.1,1c0,0.1,0,0.1,0,0.2c0,0.3,0.1,0.6,0.1,0.9c0.1,0.4,0.1,0.7,0.2,1.1c0,0,0,0.1,0,0.1
		c0.1,0.3,0.1,0.6,0.2,1c0,0.1,0,0.1,0,0.2c0.3,0.9,0.6,1.8,1,2.6c0.1,0.1,0.1,0.2,0.2,0.4c0.1,0.2,0.2,0.4,0.3,0.6
		c0.1,0.2,0.2,0.3,0.3,0.5c0.1,0.2,0.2,0.4,0.3,0.5c0.1,0.2,0.3,0.4,0.4,0.6c0.1,0.1,0.2,0.3,0.3,0.4c0.2,0.3,0.5,0.6,0.7,0.9
		c0.1,0.1,0.2,0.2,0.3,0.3c0.2,0.2,0.4,0.4,0.6,0.6c0.1,0.1,0.2,0.2,0.3,0.3c0.2,0.2,0.4,0.4,0.6,0.5c0.1,0.1,0.2,0.2,0.3,0.2
		c0.3,0.2,0.6,0.5,1,0.7c1,0.6,1.7,0.9,2.4,0.9l0.1,0c0.5,0,1.1-0.3,1.4-0.7c-0.2-0.5-0.4-1-0.5-1.5c0-0.1-0.1-0.3-0.1-0.4
		c-0.1-0.5-0.3-0.9-0.4-1.4c0-0.1,0-0.2-0.1-0.3c-0.1-0.4-0.2-0.9-0.2-1.3c0-0.2-0.1-0.4-0.1-0.6c0-0.3-0.1-0.6-0.1-0.9
		c0-0.4-0.1-0.8-0.1-1.3c0-0.2,0-0.3,0-0.5c0-0.3,0-0.7-0.1-1v0l0,0C80,321.1,78.9,321.4,77.9,321.2z"/>
	<path class="st16" d="M94.5,322.9c-0.5,0.2-1.1,0.2-1.6-0.1c-0.5-0.3-0.9-0.8-1.1-1.3c-0.1-0.1-0.1-0.3-0.2-0.4c0,0,0,0,0,0
		c0,0.1,0,0.1,0,0.2c0,0.5,0.1,1.1,0.1,1.6c0,0.1,0,0.1,0,0.2c0.1,0.5,0.2,1.1,0.3,1.6c0,0.1,0,0.2,0.1,0.3c0.1,0.5,0.3,1,0.5,1.5
		c0,0.1,0.1,0.1,0.1,0.2c0.2,0.5,0.4,1,0.7,1.4c0.4,0,0.7,0.3,0.9,0.7c0.2,1,1.3,1.7,2.4,1.7c0.2,0,0.5,0,0.7-0.1
		c0.6-0.2,1-0.7,1.3-1.4c0.2-0.5,0.2-1.1,0.1-1.6c-0.8-0.4-1.5-1.4-1.6-3.6c0-1,0-1.9,0-2.9C96.4,321.8,95.6,322.6,94.5,322.9z"/>
	<polygon class="st16" points="97,320.9 97,320.9 97,320.9 	"/>
</g>
</svg>
