<?xml version="1.0" encoding="utf-8"?>
<!-- Generator: Adobe Illustrator 23.1.0, SVG Export Plug-In . SVG Version: 6.00 Build 0)  -->
<svg version="1.1" id="Vrstva_10" xmlns="http://www.w3.org/2000/svg" xmlns:xlink="http://www.w3.org/1999/xlink" x="0px" y="0px"
	 viewBox="0 0 336.028 298.3" enable-background="new 0 0 336.028 298.3" xml:space="preserve">
<path fill="#4C331B" d="M427.109,403.274c0.01-0.004,0.018-0.011,0.028-0.015c0.887-0.282,1.621-0.948,2.039-1.777
	C428.667,402.203,427.894,402.773,427.109,403.274z"/>
<g>
	<path fill="none" d="M113.901,156c0.1-0.7,0-40.9,0-40.9s-0.1-1.2,0.5-1.3c0.2,0,1.7,0,4,0c10.2,0,36.4,0.2,36.4,0.2s0.1,0,0.3,0
		c0.4,0,1-0.1,1-0.8c0-1,0-56,0-56s0-1.1-1.1-1.2c-1.3-0.1-40.3-0.7-40.3-0.7h-0.1c-0.3,0-1.2-0.1-1.2-0.8c0-0.9,0.5-40.1,0.5-40.1
		s0.1-1-0.9-1.1c-0.3,0-6.8-0.1-15.2-0.1c-16.9,0-41.9,0.1-41.9,0.1s0,0-0.1,0c-0.2,0-0.8,0.1-1.1,0.7c-0.3,0.8,0,40.3,0,40.3
		s0.3,1.9-0.7,1.9h-0.1c-0.7-0.1-17.4-0.5-29.4-0.5c-5.4,0-9.9,0.1-11.5,0.3c-0.4,0.1-0.5,0.2-0.5,0.3c-0.2,0.9-0.1,56.6-0.1,56.6
		s-0.1,0.9,1.1,1c1.3,0.1,39,0.4,39.8,0.4s1.3,0,1.3,0.7c0,0.6,0,40.4,0,40.7s0.1,0.6,1.2,0.7c0.4,0,10.3,0.1,21.8,0.2
		c0.2-0.7,0.5-1.4,0.7-2c0.1-7.1,0.2-13.8,0.3-19.9c-2.7-0.2-3-0.5-3.2-0.7c-0.6-0.6-0.8-1.7-0.4-2.7c0.1-0.4,0.3-0.6,0.6-0.9
		c-0.6-0.5-1-1.2-1.1-1.9c-0.1-0.6,0.1-1.1,0.3-1.5c-0.1-0.1-0.1-0.3-0.1-0.4c0-1.3,0.1-2.2,0.5-3.1c0.5-1,1.3-1.7,2.3-2
		c0-0.2,0-0.3,0-0.4c0-0.1,0-0.2,0-0.3c-0.1-0.6-1.2-0.9-2.1-0.9h-0.1c-1.2,0-2.4,0.2-3.7,0.3c-1.4,0.2-2.8,0.3-4.3,0.4
		c-2,0-5.7-0.4-7.9-3.2c-1.1-1.4-1.6-3-2-4.6c-3.9-14.5-3.9-29.8-3.2-44.1c0.2-4.1,0.5-7.7,2.3-10.9c1.1-2,2.8-3.8,5.1-5.4
		c4.1-2.9,9.2-4.8,15.2-5.5c1.4-0.2,2.9-0.3,4.4-0.3c-0.1-1.7,0.2-3.5,0.9-5.1s1.8-2.5,3.1-2.5s2.5,1,3.2,2.8c0.6,1.6,0.9,3.3,0.9,5
		c1.1,0.1,2.3,0.2,3.6,0.3c4.9,0.5,10.5,1.4,14.6,4.9c4.7,4.1,6,10.8,6.7,16.7c1.7,14.8,1.1,29.7-1.6,44.3c-0.4,2-0.8,3.9-1.9,5.6
		c-1.7,2.6-4.9,4.2-8.1,3.7c-0.8-0.1-1.6-0.3-2.4-0.6c-0.9-0.3-1.8-0.5-2.6-0.5l0,0c-0.9,0-1.7,0.4-2.2,0.9
		c-0.2,0.3-0.3,0.5-0.3,0.8c0,0.1,0,0.1,0,0.2c0.7,0.7,0.9,1.9,0.2,2.8c-0.1,0.1-0.2,0.2-0.3,0.3c0.9,1.5,1,2.8,0.3,3.8
		c-0.5,0.7-1.1,1-1.8,1.2c0.1,0.2,0.1,0.5,0.1,0.7c0,0.8-0.3,1.6-0.9,2.2c-0.7,0.7-1.8,1.1-3.1,1.1h-0.6c-0.3,0-0.6,0-0.9,0
		c0,0.1,0,0.1,0,0.2l0.1,21.3c12.9,0.1,24.8,0.2,24.8,0.2S113.801,156.7,113.901,156z"/>
	<path fill="none" d="M77.001,216.9c0.1,0.2,0.2,0.5,0.3,0.7c0.2-13.2,0.4-28,0.7-42.4C74.001,188.7,71.601,203.6,77.001,216.9z"/>
	<path fill="#62B594" d="M75.501,161.7c0.8-1.7,1.5-3.5,2.1-5.2c-11.4-0.1-21.3-0.2-21.8-0.2c-1-0.1-1.1-0.4-1.2-0.7
		c0-0.3,0-40,0-40.7c0-0.6-0.5-0.6-1.3-0.7c-0.8-0.1-38.5-0.3-39.8-0.4c-1.2-0.1-1.1-1-1.1-1s0-55.7,0.2-56.6c0-0.1,0.1-0.2,0.5-0.3
		c1.6-0.2,6-0.3,11.5-0.3c12,0,28.6,0.4,29.4,0.5h0.1c1,0,0.7-1.9,0.7-1.9s-0.4-39.5,0-40.3c0.2-0.6,0.8-0.7,1.1-0.7
		c0.1,0,0.1,0,0.1,0s25-0.1,41.9-0.1c8.5,0,14.9,0,15.2,0.1c0.9,0.1,0.9,1.1,0.9,1.1s-0.5,39.1-0.5,40.1c0,0.7,0.9,0.8,1.2,0.8
		c0.1,0,0.1,0,0.1,0s39,0.6,40.3,0.7c1.1,0.1,1.1,1.2,1.1,1.2s0,54.9,0,56c0,0.7-0.6,0.8-1,0.8c-0.2,0-0.3,0-0.3,0
		s-26.1-0.2-36.4-0.2c-2.4,0-3.9,0-4,0c-0.6,0.1-0.5,1.3-0.5,1.3s0.1,40.2,0,40.9s-1.1,0.7-1.1,0.7s-11.9-0.1-24.8-0.2l0.1,13
		c6.7,0.1,14.8,0.1,24.6,0.2h0.1c0.2,0,0.5,0,0.7,0c7.1-0.4,12.7-5.7,13.4-12.6c0.1-0.7,0.1-1.1,0.1-30.3c10.6,0,24.6,0.1,27.4,0.1
		c0.3,0,0.6,0,0.9,0c3.9,0,7.5-1.5,10.1-4.2c2.6-2.6,4-6.1,3.9-9.8c0-1.8,0-34.3,0-55.8c0-7.5-5.6-13.6-13.1-14.2
		c-0.5,0-1.5-0.1-29.5-0.6c0.1-8.2,0.2-19.2,0.4-27.7c0.2-7.2-5.1-13.5-12.2-14.3c-1-0.1-1.2-0.2-16.8-0.2c-15.7,0-38.7,0-41.6,0.1
		c-0.1,0-0.3,0-0.4,0c-5.8,0-11,3.5-13.1,8.8c-1.1,2.8-1.3,3.1-1,33.7c-6.5-0.1-13.5-0.2-17-0.2c-9,0-11.7,0.2-13.3,0.4
		c-5.6,0.8-10.1,4.8-11.3,10.2c-0.4,1.9-0.5,2.3-0.5,59.4c-0.1,7.4,5.6,13.5,13.2,14.1c0.9,0.1,3.5,0.1,28.9,0.3c0,0,0,0,0.1,0
		c0,28.9,0,29,0.1,29.8c0.6,5.4,4.7,11.3,12.6,12.2c0.6,0.1,1.1,0.1,17.1,0.3c0.2-0.4,0.5-0.8,0.7-1.3
		C73.301,166,74.501,163.9,75.501,161.7z"/>
	<path fill="#BBB6B0" d="M87.087,253.626v-2.3c-1.7-2-3.487-4.257-5.188-6.257c-0.8-1-2.298-2.556-3.198-3.656
		c-0.674,5.53-0.767,11.028-0.177,14.293C81.225,255.205,84.487,254.326,87.087,253.626z"/>
	<path fill="#BBB6B0" d="M86.501,142.157c-1.344,6.4-3.502,17.43-5.945,23.73c-0.244,0.7-0.489,1.3-0.855,2
		c-0.366,18.2-0.733,37.2-1.099,53.1c2.565,3.8,5.619,10.225,8.795,13.625L86.501,142.157z"/>
	<path fill="#BA9160" d="M37.601,278.8c0-0.3-0.1-0.7-0.1-1C37.601,278.1,37.601,278.4,37.601,278.8z"/>
	<path fill="#BA9160" d="M37.701,279.8c0-0.3-0.1-0.6-0.1-0.9C37.701,279.2,37.701,279.5,37.701,279.8z"/>
	<path fill="#BA9160" d="M73.219,275.7l0.337-0.895c0.8-3.3,1.932-4.65,4.432-6.75c1.6-1.4,3.37-2.279,5.47-2.779c0,0,0,0-0.1-0.1
		c0.1,0,0.2,0,0.3,0s0.2,0,0.3,0c0.8,0,1.6-0.1,2.4-0.3c0.1,0,0.1,0,0.2,0c2.1,0,3.979,1.375,5.679,2.375
		c0.5,0.3,1.137,0.336,1.637,0.736c1,0.7,2.273,0.823,3.273,1.023c1.2,0.2,4.055-0.691,5.455-1.091
		c-3.9-4.1-9.155-9.473-12.955-13.773c-3.3,1-3.995,0.555-7.295,1.255l-2.182,0.995l1.295-0.273c-0.8-0.1-2.814,0.482-3.614,0.682
		c-0.1,0-0.964-0.691-1.227,0.273c-0.053,0.193-0.55,0.068-0.75,0.068c-3.5,0.7-6.555,1.564-9.955,2.864
		c-0.8,0.3-1.818,1.064-2.618,1.364c-2.8,1.2-5.395,1.918-8.495,2.318c-1.2,0.1-2.277,0.682-3.477,0.682l-2.25-0.136
		c-2.6,0-5.264,0.364-7.364,1.664s-3.114,4.2-3.614,6c-0.6,1.9-1.227,4.805-1.227,4.405c0.051,0.103,8.758,18.324,17.523,15.895
		C72.801,287.1,72.878,276.381,73.219,275.7z"/>
	<path fill="#BA9160" d="M57.901,284.6c-0.1-0.5-0.1-1.1-0.1-1.6C57.701,283.5,57.801,284.1,57.901,284.6z"/>
	<path fill="#BA9160" d="M292.096,282.884c1-1.4,0.348-8.258,2.148-9.358c1.8-1,3.625-1.339,5.625-1.739
		c4-0.8,9.595-1.78,13.295-3.58c2.4-1.1,3.609-3.888,4.909-6.188c1.3-2.3-0.564-7.012-2.864-8.412c0,0-3.648,3.691-6.648,4.091
		c0,0,4.6-23.634,0-34.134c-4.6-10.6-16.349-19.124-26.949-23.724c-0.2,0-10.183-1.942-10.483-2.042c-1.5-0.4-6.101-1.03-6.801-1.03
		c-2.8,0-5.944,0.581-8.744,1.381c-0.1,0.2-1.334,1.178-1.534,1.278c-2.9,1.7-4.378,4.586-5.778,8.386
		c-1.4,3.8-1.587,8.05-1.688,11.25c-0.1,3.3,0.617,5.734,1.017,8.034c1.7,9,8,16.5,13.3,22c2,2.1,3.6,3.6,5.2,4.9
		c2,1.7,4.2,3.3,6.5,4.7c4.1,2.5,4.921,4.752,9.188,5.213c0.5-0.2,3.612,1.587,1.812,1.287c-1.5,1.2-3.3,1.9-5.1,2.4
		c-0.6,0.3-1.2,0.6-1.8,0.8c-3.2,1.5-6.3,2.9-8.9,5.1c-2.6,2.1-4.3,5.5-4.6,8.6c-0.1,1.1,0,2.5,0.7,3.8
		c1.2,0.8,2.144,2.665,3.444,2.865c2,0.4,12.002-0.642,13.602-1.142C282.248,287.322,290.096,283.184,292.096,282.884z"/>
	<path fill="#BA9160" d="M113.783,265.626c0.2-0.2,0.514-0.539,0.614-0.639c6.6-4.8,15.024-7.433,25.824-8.233
		c2.5-0.2,6.181-0.511,9.281-0.511c0.2,0,0.4,0,0.7,0c-2.8-3-5.201-7.442-5.901-11.542c-0.7-0.1-1.4-0.1-2.1-0.2
		c-1.2-0.1-2.978-0.2-4.178-0.4c1.1,1.1,1.801,2.8,1.501,4.5c-0.3,2-1.622,3.268-3.922,3.268c-0.2,0-0.4,0-0.7,0
		c-1.6-0.2-3.373-1.357-4.473-2.857c-1.9,1.5-4.429,3.44-6.929,4.24c0.1,0.1-0.1,0.695,0,0.895c0.2,0.1,0.797,0.335,0.997,0.435
		c1.1,1,1.283,1.632,0.383,2.932c-0.2,0.3,0.014,0.552-0.486,0.852c-0.7,0.3-1.245,0.665-2.045,0.665
		c-1.2,0-1.887-0.041-2.787-0.741c-1-0.8-1.845-2.188-2.045-3.487c-1.3,0.4-2.456,0.355-3.656-0.245
		c-1.9-0.8-3.249-2.091-3.349-4.091c-0.1-2.1,0.991-4.364,2.891-5.064c0.6-0.2,0.714-0.183,1.314-0.183c0.5,0.1,1,0.2,1.6,0.5
		c0.5,0.3,1.375,0.989,1.875,1.389c0.2-0.1,0.886-0.317,0.986-0.417c1.7-1.1,3.5-2,5.4-2.6c-0.5-0.6-1.375-1.589-1.675-2.289
		c-0.5-1.4-0.3-3.1,0.8-4.1c-0.2-0.1-0.5-0.3-0.7-0.4c-1.5-1-2.433-3.178-3.133-4.478c-0.3,1-1.393,2.323-1.893,3.323
		c-3.5,7.1-11,11.2-16.4,13.6c-0.5,0.2-0.9,0.4-1.4,0.6c4,5,8.925,10.155,13.225,14.855
		C113.769,265.509,113.783,265.526,113.783,265.626z"/>
	<path fill="#BA9160" d="M196.079,278.589c6.2-0.7,13.032-4.191,14.932-10.091c0.9-2.9,0.577-6.464,3.477-7.364
		c0.9-0.3,1.827-0.105,2.727-0.205c2.2,0,4.784-1.082,6.784-2.182l0.205-0.448c1.4-2,3.42-3.368,5.42-4.768
		c4-2.9,5.636-3.984,10.636-3.784c-0.4,0,1.326-0.17,0.926-0.17c3.7-0.7,11.431,1.859,15.131,2.659
		c-10-11-18.114-30.948-11.114-44.148c1.2-2.3,3.286-4.223,5.386-5.523c0.6-0.8,3.068-3.58,0.711-2.466c-8.4,2.2-16.3,3.3-23.4,3.3
		c-8.6,0-16.361-2.4-23.061-5.6c-1.1,5.9,1.261,12.7,3.561,18.5l0.4,0.9c2.5,6.4,4.8,13.8,2.1,20.3c-2,4.8-6.437,8.35-12.437,10.15
		c-3.3,1-6.9,1.5-11.5,1.5c-1.4,0-2.8,0-4.7-0.1c-4.8-0.2-9.683-0.721-14.583-2.221c-1.2-0.4-2.3-0.8-3.4-1.3
		c-0.9,0.4-1.98,0.348-2.78,0.348c-0.2,0-0.5,0-0.7,0c-4.9-0.2-9.8-0.5-14.6-1c0,0.1-0.3,0.623-0.3,0.723c0.9,3.9,3,7.6,5.9,10.3
		c0.1,0.1,0.081,0.67,0.081,0.77c2,0,4,0.1,5.9,0.1c3.1,0.1,6.2,0.2,9.3,0.2h1.3c1.6,0,3.4,0,5.1,0.6
		c1.2,0.4,2.505,0.829,3.505,1.629c0.511,0.57,0.92,0.98,1.414,1.2c1.2,1.4,2.2,3.1,2.7,5c1.2,4.3,0.2,8.4-0.8,11.2
		c-0.2,0.5-0.727,1.659-0.927,2.159l0.155,0.385C185.13,279.044,190.879,279.189,196.079,278.589z"/>
	<path fill="#BA9160" d="M138.542,232.481l-0.538,0.076c-0.7,0-1.09,0.248-1.79,0.248c0.5,0.3,1.686,0.695,2.186,0.795
		c2.3,0.7,4.8,1,7.8,1c1.9,0,4.227,0,6.027-0.1c-0.4-0.9-1.159-2.419-1.559-3.319c-0.9,0.4-2.327,0.6-3.627,0.8
		C144.342,232.281,141.542,232.481,138.542,232.481z"/>
	<path fill="#BA9160" d="M140.801,184.193c1.2,13.8,4.9,27.2,10.8,39.7c0.6,1.3,1.619,2.749,1.119,4.649
		c-0.2,0.8-0.319,1.893-0.919,2.393c0.7,1.8,1.4,3.6,2.4,5.3c2.2,2.7,4.7,5.5,7.9,7.4c0.2,0.1,0.3,0.2,0.5,0.3
		c0.1,0.1,0.3,0.1,0.4,0.2c1.5,0.8,3,1.3,4.3,1.7c4.7,1.5,11.113,2.265,15.813,2.465c1.8,0.1,3.2,0.1,4.6,0.1
		c4.4,0,7.8-0.4,10.9-1.4c5.3-1.6,9.5-5.1,11.2-9.3c2.4-5.8,0.948-13.45-1.552-19.75l-0.3-0.8c-2.5-6.2-5-12.5-3.7-19.1
		c0.1-0.3-0.443-0.15-0.343-0.45c2.061-3,4.023-9.795,4.577-14.974c-0.1-5.2-2.4-10.7-6.6-15.3c-2-2.2-3.9-3.8-6-4.8
		c-1.9-0.8-4.124-1.954-6.224-2.154c-1.3,0-2.6,0.3-3.7,0.9c-0.5,0.2-1,0.1-1.3-0.4c-0.3-0.4-0.065,0.203,0.335-0.097
		c0.9-0.7,1.9-1,2.9-1.4c0.6-0.2,1.2-0.4,1.8-0.7c0.3-0.2,0.375-0.843,0.575-1.143c0.2-0.3,0.871-1.232,0.771-1.632
		c0-0.2-0.2-0.4-0.3-0.5c-0.2-0.1-0.118-0.375-0.518-0.375l-2.3-0.2l-5.426,0.575c-0.7,0.1-1.45,0-2.25,0c-0.5,0-1.059,0.5-1.159,0
		c0-0.5-0.6,0.1,0,0l1.841-0.459c1-0.1,2.095-0.45,2.795-0.75c0.7-0.9,1.664-1.518,2.164-2.618c0-0.3,0.859-2.332,0.559-2.632
		c-0.5-0.5-1.011-1.05-2.211-1.05c-0.3,0-1.916-0.314-2.216-0.314c-3.4,0.2-5.936,0.573-9.136,1.773
		c-0.5,0.2-1.342,0.619-1.542,0.119c-0.2-0.4,0.46-0.151,0.86-0.451l5.7-4.3c0.7-0.5,1.45-2.618,1.05-3.618
		c-0.2-0.4-1.477-1.209-2.277-1.209c-0.7,0-1.5,0.2-2.2,0.5c-2.2,1.1-4.2,2.7-6.2,4.3c-1,0.8-2.1,1.7-3.1,2.5
		c-3.7,2.7-7.7,4.6-12.1,5.7c-0.6,0.2-1.2,0.3-1.8,0.4c-2.5,0.6-5.1,1.3-7,2.6c0.3,1-0.541,3.386-0.641,3.686
		C141.147,166.277,139.901,174.193,140.801,184.193z"/>
	<path fill="#7C5633" d="M292.501,144.9c1.1,0.2,2.3,0.6,3.6,1.2C294.701,145.5,293.501,145.1,292.501,144.9z"/>
	<path fill="#FFFFFF" d="M187.494,224.151c0.576,0.576,1.382,1.037,2.188,0.691c0.691-0.23,0.921-0.921,1.267-1.613
		c0.806-1.382,2.188-2.534,3.686-2.649c0.576,0,1.152,0,1.382-0.461c0.115-0.346,0-0.691-0.23-0.921
		c-0.23-0.23-0.576-0.346-0.921-0.346c-1.382-0.115-2.88,0.115-4.147,0.576c-1.267,0.461-2.534,1.037-3.34,2.073
		c-0.346,0.461-0.691,1.152-0.461,1.728C187.149,223.691,187.264,223.921,187.494,224.151z"/>
	<path fill="#FFFFFF" d="M190.513,193.221c0.35,0.117,0.699,0.233,1.049,0.35c0.816,0.117,1.749-0.466,2.098-1.282
		c0.35-0.816,0.233-1.749-0.233-2.564c-0.233-0.35-0.466-0.583-0.816-0.816c-0.933-0.583-2.215-0.233-3.147,0.466
		c-0.233,0.117-0.466,0.35-0.583,0.583c-0.233,0.35-0.233,0.699-0.233,1.049c0,0.35,0,0.699,0.233,1.049
		C189.347,192.755,189.93,192.988,190.513,193.221z"/>
	<path fill="#7C5633" d="M326.101,216.4c6.2-12.3,5-27.5-1.1-39.9s-16.7-22-28.5-29.2c-1.3-0.8-2.7-1.6-4-2.5l0,0l0,0
		c-1.4-0.3-3.55-0.274-4.65,0.126c0.7,1.7,3.284,4.648,4.884,5.848c4.2,3.3,8.036,6.862,11.736,10.662
		c3.1,3.2,5.689,6.49,7.389,10.79c1,2.5,1.59,4.324,1.79,7.824c0.6,10.6-2.57,21.188-8.77,28.688
		c5.3,4.9,9.769,11.709,12.169,18.409c0.3-0.2,1.849-0.897,2.149-0.997C322.698,224.148,324.201,220.1,326.101,216.4z"/>
	<path fill="#BA9160" d="M281.789,264.782c-5.2-1.2-11.046-4.285-15.846-6.585c-1.8-0.9-3.6-1.8-5.4-2.6c-2.9-1.3-5.9-2.5-9-3.5
		c-2.5-0.8-5.5-1.7-8.6-1.8c-0.3,0-0.6,0-0.9,0c-4.2,0-9.637,1.746-13.037,4.246c-3.7,2.6-6.4,6.5-7.7,10.8
		c-0.4,1.4-0.6,2.6-0.5,3.7c0.1,1,0.718,3.166,1.318,4.466c2.2,4.7,6.882,7.777,11.182,7.977c1.043,0.052,3.331-1.233,6.661-1.705
		c1.245-0.176,3.275,1.267,4.726,0.927c2.108-0.493,3.477-2.768,3.477-2.768s2.057,0.896,4.705-0.682
		c2.505-1.493,1.662-6.484,4.909-7.227c6.034-1.382,15.214-2.52,18.545-3.341C277.528,266.191,280.589,265.282,281.789,264.782z"/>
	<path fill="#C29391" d="M161.417,283.932c3.7-0.6,8.085-1.391,10.585-4.091c1.1-1.2,1.852-2.841,2.352-4.441
		c1.9-5.1,1.935-11,0.435-16.2c0.3,0.1-0.737-0.348-0.537-0.248c-0.5-0.3-0.32-0.235-0.92-0.435c-1.4-0.4-3.158-0.85-4.658-0.85
		h-1.3c-3.1,0-6.3-0.1-9.4-0.2c-3.1-0.1-6.264,0.045-9.364,0.045c-3,0-5.7,0.1-8.1,0.3c-10.4,0.7-19.613,3.804-25.913,8.304
		c-0.1,0.1-0.3,0.2-0.4,0.3c0.1,0.1,0.622,0.741,0.822,0.941c0.9,1,1.9,2,2.8,3c5.9,4.4,9.899,11.042,11.499,18.342l0.1,0.4
		c0,0.2,0.1,0.4,0.1,0.6c3-1.3,7.248-1.893,10.448-2.393C147.065,286.307,154.117,285.032,161.417,283.932z"/>
	<path fill="#FFE88D" d="M122.029,252.231c3.1-0.6,5.7-2.7,8-4.6c0.2-0.2,0.5-0.3,0.8-0.2c0.3,0.1,0.538,0.406,0.738,0.706
		c0.8,1.5,2.1,2.6,3.4,2.8c1.2,0.2,3.013-0.844,3.213-2.144s-1.065-3.038-2.165-3.738c-0.9-0.6-1.9-1-3-1.2c-0.1,0-0.1,0.1-0.2,0.1
		c-0.1,0.1-0.3,0.1-0.4,0.1c-0.2,0-0.4-0.1-0.5-0.2s-0.2-0.1-0.2-0.2c0,0,0,0-0.1,0c-0.5,0-0.9-0.4-1-0.9c-0.3-2.2-2.3-4-4.5-4h-0.1
		c-0.3,0-1.139,0.294-1.339,0.394c-0.6,0.3-0.658,1.25-0.358,2.05c0.4,1,1.22,1.993,2.02,2.693c0.3,0.2,0.381,0.418,0.281,0.818
		c-0.1,0.4-0.421,0.368-0.721,0.468c-2.3,0.6-4.5,1.5-6.6,2.8c-0.4,0.3-0.401,0.746-0.401,0.746c-0.1,0.4-0.499,0.354-0.899,0.454
		c-0.4,0.1-0.343-0.104-0.643-0.404c-0.4-0.6-1-1.2-1.7-1.5c-0.3-0.2-0.6-0.3-0.9-0.3c-0.3,0-0.6,0-0.9,0.1
		c-1.1,0.4-2.296,2.086-2.296,3.286c0,1.2,0.997,2.645,2.097,3.145s2.463,0.46,3.563-0.34c0.2-0.1,0.401-0.219,0.6-0.2
		c0.271,0.026,0.492,0.134,0.6,0.2c0.381,0.234,0.5,0.7,0.4,1.1c-0.3,1.1,0.539,2.218,1.439,2.918s2.3,0.9,3.3,0.3
		c0.2-0.1,0.806-0.61,0.806-0.61c0.1-0.2-0.1-0.8-0.6-1.2c-0.1-0.1-0.3-0.2-0.4-0.4c-0.7-0.6-1.5-1.2-1.7-2.3
		c-0.1-0.3,0.128-0.269,0.228-0.469C122.191,252.306,121.829,252.231,122.029,252.231z"/>
	<path fill="#BA9160" d="M115.801,281.7l-0.909-0.609c-0.2-0.2-0.5-0.4-0.7-0.6c-3.8-2.8-7.1-6.1-10-9.8c-0.6-0.6-1.1-1.1-1.7-1.7
		l0,0c-0.3,0.1-0.5,0.1-0.8,0.2c-1.2,0.4-2.5,0.7-3.9,0.7c-0.4,0-0.9,0-1.3-0.1c-1.4-0.3-2.6-1.1-3.7-1.8c-0.5-0.3-0.9-0.6-1.4-0.9
		c-1.4-0.8-3.2-1.2-4.9-1.2c-2.8,0-5.6,1-7.7,2.8c-3.3,2.9-5.1,7.7-4.6,12.5c0.1,1.4-0.374,2.235,0.026,3.535l0.803,1.397
		c0.2,0.4,0.29,1.477,0.59,1.877c0.45,0.75,12.177,7.7,21.489,6.3S114.401,282.25,115.801,281.7z"/>
	<path fill="#62B594" d="M161.749,244.557c-3.4-2.2-6.595-5.665-8.795-8.465c-2,0.2-4.2,0.3-6.5,0.3c-3.3,0-5.38-0.235-7.88-1.036
		c-1.1-0.3-2.5-0.8-3.6-1.9c-0.1-0.1-0.2-0.2-0.3-0.3c-0.2-0.2-1.101-0.487-1.201-0.487c-0.2-0.1-0.5-0.1-0.8-0.1
		c-4-0.3-8-0.9-11.9-1.8c0.1,0.3-0.072,0.783,0.128,1.183c0.6,1.3,0.865,2.859,2.265,3.759c0.8,0.6,2.403,1.089,3.503,1.389
		c0.7,0.2,1.471,0.458,2.071,0.759c0.8,0.3,1.985,0.985,2.685,1.585c0-0.1,0.128-0.488,0.128-0.588c0.2-1.9,1.301-3.703,3.401-3.503
		c0.3,0,0.311,0.288,0.511,0.588c0.9,2,0.433,4.134-0.767,6.034c0.3,0.1,1.411,0.419,1.711,0.419c0.3,0.1,0.6,0.2,0.9,0.3
		c1.6,0.4,3.2,0.6,4.8,0.7c0.8,0.1,1.5,0.1,2.3,0.2l0.209-0.187c0.4-0.2,0.591,0.087,0.891,0.287c5.1,0.5,10.219,0.817,15.319,1.017
		C161.129,244.711,161.749,244.557,161.749,244.557z"/>
	<path fill="#1D1D1C" d="M185.344,238.159c1.2,0.9,2.9,1.3,4.7,1.4h0.3c1.4,0,3.357-0.459,5.157-0.959
		c0.3-0.1,0.895,0.273,1.395,0.273c0.7,0,0.793-0.091,1.193,0.409c0.1,0.2,0.343,0.518,0.443,0.718c0.1,0.1,0.275,0.35,0.375,0.35
		c0.1,0.1,0.093-0.15,0.293-0.15c0.2,0,0.3-0.1,0.4-0.2c0.1-0.2,0.432-0.284,0.432-0.684c0-0.2-0.102-0.731-0.102-0.931
		c0.1-1.3,1.395-2.066,2.295-2.766l0.2-0.2c1.8-1.4,3.1-3.2,3.8-5.1c0.8-2.1,0.8-4.342,0-6.242c-1.1-3.2-2.073-4.35-4.073-5.95
		c-1.5-1.2-3.5-1.9-5.7-2c-1.9-0.1-3.9,0.3-6.1,1.1c-5.9,2.1-9.2,5.4-9.6,9.9c-0.3,2.8,0.59,6.931,2.59,9.331
		C184.044,237.059,184.644,237.659,185.344,238.159z M187.901,221.3c0.7-0.9,1.8-1.4,2.9-1.8c1.2-0.4,2.4-0.7,3.6-0.5
		c0.3,0,0.6,0.1,0.8,0.3c0.2,0.2,0.4,0.5,0.2,0.8c-0.2,0.4-0.8,0.4-1.2,0.4c-1.4,0.1-2.5,1.1-3.2,2.3c-0.3,0.5-0.6,1.2-1.1,1.4
		c-0.7,0.3-1.4-0.1-1.9-0.6c-0.2-0.2-0.4-0.4-0.5-0.7C187.301,222.3,187.501,221.7,187.901,221.3z"/>
	<path fill="#020203" d="M185.201,238.7c1.4,1,3.2,1.5,5.2,1.6h0.3c1.5,0,3.1-0.2,5-0.8c0.3-0.1,0.7-0.2,1-0.2
		c0.4,0,0.6,0.1,0.7,0.2s0.1,0.2,0.2,0.3c0.1,0.2,0.2,0.4,0.3,0.6c0.3,0.4,0.7,0.6,1.2,0.6s1-0.2,1.3-0.7s0.3-1,0.2-1.5
		c0-0.2,0-0.4,0-0.6c0.1-0.9,0.9-1.5,1.7-2.1l0.2-0.2c1.9-1.5,3.4-3.4,4.1-5.5c0.8-2.3,0.9-4.8,0-6.9c-1.1-3.2-1.4-3.8-3.6-5.6
		c-1.6-1.3-3.9-2.1-6.2-2.2c-2-0.1-4.1,0.3-6.5,1.1c-6.3,2.2-9.8,5.8-10.3,10.7c-0.3,3.1,0.8,6.4,3,9
		C183.801,237.5,184.501,238.2,185.201,238.7z M181.001,227.7c0.5-4.4,3.7-7.8,9.6-9.9c2.2-0.8,4.2-1.1,6.1-1.1
		c2.2,0.1,4.2,0.8,5.7,2c2,1.6,2.2,2,3.3,5.2c0.7,1.9,0.7,4.1,0,6.2c-0.7,1.9-2,3.7-3.8,5.1l-0.2,0.2c-0.9,0.7-2,1.5-2.1,2.8
		c0,0.2,0,0.5,0,0.7c0,0.4,0,0.7-0.1,0.9c-0.1,0.1-0.2,0.2-0.4,0.2c-0.2,0-0.3-0.1-0.4-0.2s-0.1-0.2-0.2-0.3
		c-0.1-0.2-0.2-0.4-0.3-0.6c-0.3-0.4-0.8-0.7-1.5-0.7c-0.5,0-1,0.1-1.3,0.2c-1.8,0.5-3.3,0.7-4.7,0.7h-0.3c-1.8,0-3.4-0.5-4.7-1.4
		c-0.6-0.4-1.3-1.1-2-1.9C181.701,233.5,180.701,230.5,181.001,227.7z"/>
	<path fill="#1D1D1C" d="M172.201,238.3c-1.4,0.1-2.8,0.5-4,1.3c-0.3,0.2-0.6,0.4-0.5,0.8s0.6,0.5,1,0.4c0.5-0.1,0.9-0.4,1.4-0.5
		c1.3-0.4,2.8,0,3.7,1c0.3,0.4,0.6,0.9,1.2,1.1c0.4,0.1,0.8,0,1.2-0.1c0.2-0.1,0.5-0.2,0.6-0.4c0.1-0.2,0.1-0.4,0-0.6
		c-0.3-1.3-1.3-2.5-2.6-2.9C173.501,238.3,172.801,238.2,172.201,238.3z"/>
	<path fill="#FFFFFF" d="M173.37,189.9c-0.1,0-0.869,0.1-0.969,0.1c-1.7,0.5-3.4,0.8-5,1.2c-0.7,0.1-1.986,0.3-2.686,0.4
		c2.3,1.1,3.957,3.5,4.057,6c0.1,2.5-1.38,5.032-3.58,6.432c-1.3,0.8-2.404,1.125-4.004,1.125c-1,0-1.777-0.211-2.677-0.511
		c-2.3-0.9-3.359-2.745-4.259-5.045c-0.1-0.3-0.891-1.113-0.991-1.412c-0.4,0.6-1.409,1.876-1.709,2.476c0,0.1-0.1,0.2-0.2,0.3
		c0.1,0.1,0.2,0.2,0.3,0.2c2.2,2.1,6.71,5.389,11.01,5.889c0.9,0.1,1.8,0.1,2.7,0c1.1-0.1,2.1-0.3,2.8-0.7c0.8-0.5,1.6-1.2,2.1-1.7
		c1.5-1.6,2.809-3.952,3.309-5.652s0.6-3.7,0.3-6.2C173.77,191.8,173.57,190.8,173.37,189.9z"/>
	<path fill="#FFFFFF" d="M185.587,193.165c0.4,0.6,0.646,1.394,1.346,1.994c0.6,0.5,1.627,1.492,2.327,1.892
		c1.9,1,4.85,1.448,6.85,1.448c0.2,0,0.4,0,0.6,0c0.6,0,1.1,0,1.5-0.1c2.5-0.3,4.8-1.7,6.1-3.8c0.4-0.6,1.474-2.139,1.774-2.739
		c-0.3-0.2-1.913-0.994-2.213-1.194l-0.3-0.3c-1.1-0.9-2.1-1.7-3.1-2.4c0.2,0.7,0.201,2.019,0.201,2.519
		c-0.2,1.6-0.521,2.423-1.221,3.523c-1.2,1.7-2.715,2.859-5.015,2.859c-0.6,0-1.219,0.052-1.819-0.048
		c-2.4-0.6-4.427-2.022-5.227-4.322c-0.8-2.3-0.637-4.543,0.963-6.343c0.4-0.4,1.29-1.433,1.79-1.733
		c-0.1,0-0.946-0.129-1.046-0.129h-0.1c-0.2,0-0.3,0-0.5,0s-0.4,0-0.7-0.1c-0.2,0.8-0.937,1.443-1.337,2.043
		c-0.1,0.1-0.159,0.564-0.259,0.664C185.101,188.9,184.487,191.465,185.587,193.165z"/>
	<path fill="#4A321B" d="M147.401,181.9c0.3,0.1,0.7,0,1-0.2c1.2-0.9,1.3-2.7,2.1-4c0.7-1.1,2-1.7,3.2-2.1c1.5-0.5,3.2-0.6,4.8-0.5
		c0.5,0,1.1,0,1.2-0.5c0.1-0.4-0.3-0.7-0.7-0.8c-1.5-0.6-3.1-0.5-4.6-0.5c-1.9,0.1-4,0.3-5.3,1.6c-0.6,0.6-1,1.5-1.4,2.3
		c-0.4,0.9-0.8,1.9-1,2.9C146.701,180.9,146.701,181.7,147.401,181.9z"/>
	<path fill="#4A321B" d="M191.401,173.3c0.6,0.2,1.2-0.3,1.6-0.9c0.7-0.9,1.5-1.8,2.5-2.1c0.9-0.3,1.8-0.1,2.7,0.3s1.5,1,2.1,1.7
		c0.8,0.9,1.7,1.9,2.8,2c0.1-0.6-0.2-1.2-0.5-1.6c-0.8-1.2-1.7-2.3-2.7-3.3c-1.1-0.9-2.4-1.6-3.9-1.6c-2.1,0-4.1,1.6-4.9,3.5
		C190.801,172.1,190.801,173,191.401,173.3z"/>
	<path fill="#1D1D1C" d="M187.521,192.15c0.7,1.9,2.773,3.9,4.773,4.4c0.5,0.1,1,0.2,1.4,0.2c2,0,3.8-0.9,4.9-2.3
		c0.7-0.9,1.441-1.9,1.541-3.3c0.1-0.6,0.817-2.937,0.417-3.637c-0.2-0.3-0.4-0.6-0.7-0.8c-0.7-0.4-1.3-0.8-2-1.1
		c-1.8-0.9-3.6-1.4-5.4-1.7c-1.1,0.3-3.331,1.637-4.131,2.537C187.221,187.85,186.821,190.15,187.521,192.15z M189.201,189.9
		c0.1-0.2,0.3-0.4,0.5-0.5c0.7-0.6,1.8-0.9,2.7-0.4c0.3,0.2,0.5,0.4,0.7,0.7c0.4,0.6,0.5,1.5,0.2,2.2s-1.1,1.2-1.8,1.1
		c-0.3,0-0.6-0.1-0.9-0.3c-0.5-0.2-1.1-0.5-1.3-1c-0.1-0.3-0.2-0.6-0.2-0.9C189.001,190.5,189.001,190.1,189.201,189.9z"/>
	<path fill="#020203" d="M186.901,192.6c0.8,2.3,2.8,4,5.2,4.6c0.5,0.1,1.1,0.2,1.7,0.2c2.3,0,4.4-1.1,5.7-2.8c0.8-1,1.2-2.4,1.4-4
		c0.1-0.5,0.03-1.532-0.17-2.232c-0.6-0.4-1.248-0.64-1.848-1.04c0.3,0.2,0.518,0.671,0.718,0.971c0.4,0.7,0.3,1.6,0.3,2.2
		c-0.2,1.4-0.6,2.6-1.2,3.5c-1,1.4-2.9,2.3-4.9,2.3c-0.5,0-1-0.1-1.4-0.2c-2-0.5-3.8-2.1-4.5-4c-0.7-2-0.3-4.3,1-5.8
		c0.7-0.8,1.7-1.4,2.8-1.7c-0.7-0.1-1.5-0.1-2.2-0.1c-0.5,0.3-1,0.7-1.3,1.1C186.501,187.5,186.001,190.3,186.901,192.6z"/>
	<path fill="#FFFFFF" d="M158.555,200.4c0.838,0,1.677-0.12,2.156-0.719c0.359-0.359,0.479-0.958,0.599-1.557
		c0.12-0.359,0.12-0.719,0-1.078c-0.24-0.958-1.198-1.437-2.036-1.677c-0.359-0.12-0.719-0.24-1.078-0.12
		c-0.719,0-1.317,0.479-1.677,0.958c-0.359,0.599-0.599,1.198-0.599,1.916c0,0.359,0,0.838,0.24,1.198
		C156.759,200.04,157.717,200.4,158.555,200.4z"/>
	<path fill="#7C5633" d="M188.701,154.532c0.5,0,1.084,0.109,1.684,0.409c0.6,0.4,0.319,0.385,0.519,1.185
		c0.2,0.9-0.603,1.697-1.203,2.497c-0.2,0.2,0.2,1.232,0,1.432c0.5,0.1,1.9,0.514,2.3,0.614l1.474-0.102
		c0.1-0.1,0.698-1.639,0.898-1.739c3.2-3.5,6.747-6.848,8.747-11.148s2.1-8.995,0-13.295c1.4-1.3,0.88-1.084,2.38,0.116
		s3.309,3.505,4.009,5.305c2.9,6.5,3.493,13.048,4.193,20.148c0.5,5.1,1.718,12.355,5.318,15.955c3.4,3.4,8.082,3.864,12.682,2.864
		c0.3-0.1,2.198-1.731,2.498-1.831c1-0.7,2.816-1.839,3.216-2.639c0.4-0.9,0.6-2.1,0.4-3.7c-0.3-2.9-1.2-5.7-2.1-8.3
		c-3.1-8.9-7.1-17.6-10.9-26.1c-0.9-1.9-1.8-3.9-2.6-5.8l-0.1-0.1c-1.4-3.1-2.8-6.4-5.1-8.9c-2.4-2.7-7.575-5.211-10.475-4.811
		c-3.7,0.5-6.67,4.968-8.47,7.568c-3.8,5.3-6.57,10.643-8.47,16.943c-0.2,0.8-0.7,1.995-0.9,2.795
		c-0.9,3.3-2.552,7.836-4.452,10.636H188.701z"/>
	<path fill="#62B594" d="M134.361,236.381c-0.791,0.396-1.319,1.45-1.45,2.373c-0.132,0.923,0,1.978,0.132,3.033c0,0,0,0,0,0.132
		C134.229,240.337,134.888,238.227,134.361,236.381z"/>
	<path fill="#7C5633" d="M139.601,180.4c0.1,1.1,0.1,2.2,0.2,3.4C139.701,182.6,139.701,181.5,139.601,180.4z"/>
	<path fill="#7C5633" d="M139.801,232.2c3.709,0,11.8-1.5,12.6-2.6c1-1.3-1.264-6.561-1.664-8.161
		c-3.427-12.039-9.486-23.093-9.686-34.793c-0.1-7.9-2.232-16.545,1.368-23.645l0.136-1.445c0.4-1.5,0.455-2.355,0.955-3.755
		c0.2-0.4-0.909-0.776-0.909-0.976c0,0,0,0-0.1,0c-5.1,1-9.1,4.4-11.6,7.1c-3.1,3.4-5.4,7.3-8,11.7c-1.5,2.6-2.9,5.2-4.1,7.8
		c-5.4,12-6.144,24.603-6.344,36.903c0,0.9-0.301,3.176,0.099,3.976c0.7,1.3,0.945,2.863,2.445,3.363
		c-0.376-0.094,6.317,1.992,6.691,2.07l3.121,1.264C132.09,229.926,132.514,233.697,139.801,232.2z"/>
	<path fill="#F0F5F7" d="M78.294,120.151c0,0.2,0.767,0.262,0.767,0.563c0,0.1,0.119,0.565,0.119,0.665c0,0,0.749,0.053,1.449,0.153
		l7.773,0.46c0.2,0,0.72,0.068,0.92,0.068c1.4,0,2.119-0.1,3.119,0c0.1,0,0.309,0,0.409,0l0.46-0.16
		c0.1-0.5,0.331-0.565,0.631-0.965c0.8-1,1.924-1.619,3.324-1.619l0.545,0.051c1.1,0,1.881,0.399,2.881,0.699
		c0.7,0.2,1.417,0.377,2.117,0.477c2.4,0.3,5.106-1.085,6.406-3.085c0.9-1.4,1.37-3.467,1.67-5.267
		c2.7-14.4,3.353-29.105,1.653-43.705c-0.6-5.6-2.414-12.201-6.614-15.801c-3.6-3.2-8.798-4.089-13.398-4.589
		c-1.4-0.1-2.84-0.169-4.04-0.269c-0.1,0.1-0.328,0-0.528,0c-0.1,0-0.184,0-0.284,0c-0.3-0.1-0.711-0.019-1.011-0.119
		c-3.9-0.2-7.074-0.112-10.074,0.188c-5.6,0.7-10.725,2.586-14.625,5.386c-2,1.5-3.941,3.703-4.841,5.403
		c-1.6,2.8-1.639,6.035-1.739,9.835c-0.6,14.2-0.747,29.283,3.153,43.483c0.4,1.4,1.28,3.466,2.08,4.466
		c1.7,2.1,5.491,2.42,7.091,2.42c1.4,0,3.322-0.207,4.722-0.307c1.3-0.2,1.495-0.222,2.795-0.222l0.955,0.256
		C77.647,118.975,77.868,119.333,78.294,120.151z"/>
	<path fill="#F0F5F7" d="M84.501,70.1L84.501,70.1L84.501,70.1z"/>
	<path fill="#ED6F09" d="M95.879,113.518c0.94,0,2.089-0.105,2.924-0.524c2.193-1.153,2.716-4.298,2.82-7.233l1.776-30.401
		c0.104-1.153,0.104-2.201-0.418-2.83c-0.522-0.734-1.462-0.839-1.984-0.839c-0.522,0-0.94,0.105-1.462,0.21
		c-0.731,0.21-1.358,0.524-2.089,0.943c-0.836,0.419-1.671,0.839-2.507,1.048c-0.94,0.314-1.88,0.419-2.924,0.419
		c-1.88,0-3.656-0.419-5.431-0.839s-3.342-0.734-5.013-0.734c-0.94,0-1.776,0.105-2.611,0.419c-0.522,0.21-1.149,0.524-1.671,0.839
		c-0.836,0.419-1.776,0.943-2.82,1.153c-0.418,0.105-0.94,0.105-1.462,0.105l0,0c-2.089,0-4.073-0.943-5.953-1.887
		c-0.418-0.21-1.044-0.524-1.462-0.524c-0.104,0-0.209,0-0.209,0c-0.418,0.105-0.731,0.839-0.836,1.992
		c-0.418,4.403-0.104,9.015,0.104,13.418l1.253,20.022c0.104,1.468,0.209,2.935,1.149,3.774c0.836,0.734,2.193,0.839,3.656,0.943
		l24.231,0.629C95.252,113.518,95.566,113.518,95.879,113.518z"/>
	<path fill="#4C331B" d="M95.601,114.8c1.2,0,2.5-0.1,3.7-0.7c3-1.6,3.6-5.2,3.8-8.6l1.7-29c0.1-1.1,0.2-2.7-0.8-4
		c-0.8-1-2-1.6-3.6-1.6c-0.7,0-1.4,0.1-2,0.3c-0.8,0.3-1.6,0.6-2.3,1c-0.7,0.4-1.4,0.7-2.1,0.9c-0.7,0.2-1.4,0.3-2.3,0.3
		c-1.5,0-3.1-0.3-4.8-0.7c-1.7-0.4-3.4-0.8-5.2-0.8c-1.2,0-2.2,0.2-3.2,0.5c-0.7,0.2-1.3,0.6-1.9,0.9c-0.8,0.4-1.5,0.8-2.2,0.9
		c-0.3,0.1-0.6,0.1-0.9,0.1l0,0c-1.6,0-3.2-0.7-4.7-1.6c-0.7-0.4-1.5-0.8-2.4-0.8c-0.3,0-0.6,0.1-0.9,0.2c-1.8,0.7-2,2.8-2.1,3.6
		c-0.4,4.4-0.1,8.8,0.1,13.1l1.2,19.1c0.1,1.8,0.3,3.6,1.7,4.9c1.4,1.3,3.5,1.4,4.8,1.4l23.2,0.6
		C94.901,114.8,95.301,114.8,95.601,114.8z M68.001,111.4c-0.8-0.8-1-2.1-1.1-3.6l-1.2-19.1c-0.3-4.2-0.6-8.6-0.1-12.8
		c0.1-1.1,0.4-1.7,0.8-1.9c0.1,0,0.1,0,0.2,0c0.4,0,1,0.3,1.4,0.5c1.8,0.9,3.7,1.8,5.7,1.8l0,0c0.5,0,0.9,0,1.4-0.1
		c1-0.2,1.9-0.7,2.7-1.1c0.6-0.3,1.1-0.6,1.6-0.8c0.8-0.3,1.6-0.4,2.5-0.4c1.5,0,3.1,0.3,4.8,0.7c1.7,0.4,3.5,0.8,5.2,0.8
		c1,0,2-0.1,2.8-0.4c0.9-0.3,1.7-0.7,2.4-1s1.3-0.7,2-0.9c0.5-0.1,0.9-0.2,1.4-0.2s1.4,0.1,1.9,0.8c0.5,0.6,0.4,1.6,0.4,2.7l-1.7,29
		c-0.2,2.8-0.6,5.8-2.7,6.9c-0.9,0.4-1.9,0.5-2.8,0.5c-0.3,0-0.6,0-0.9,0l-23.2-0.6C70.101,112.2,68.801,112.1,68.001,111.4z"/>
	<path fill="#4C331B" d="M88.101,62.7c0.4,0,0.8-0.1,1.2-0.3c0.3-0.2,0.5-0.5,0.5-0.9v-2.1c0-0.4-0.3-0.8-0.7-1
		c-0.7-0.2-1.5-0.3-2.3-0.2c-0.2,0-0.4,0.1-0.6,0.3c-0.8,0.9-0.9,2.3-0.1,3.2C86.601,62.3,87.401,62.7,88.101,62.7z"/>
	<path fill="#4C331B" d="M91.001,62.5c0.3,0.2,0.7,0.3,1,0.3l0,0c0.6,0,1.2-0.2,1.6-0.7c0.4-0.4,0.6-1.1,0.5-1.7s-0.5-1.2-1-1.5
		c-0.3-0.2-0.6-0.3-1-0.3c-0.9,0-1.7,0.6-2,1.4C89.801,60.9,90.201,62,91.001,62.5z"/>
	<path fill="#D9EFFA" d="M84.501,69.1v1l0,0V69.1c0.4,0,0.8-0.2,1-0.5c0.3-0.3,0.4-0.7,0.4-1.1c-0.1-0.7-0.8-1.2-1.4-1.2
		c-0.4,0-0.7,0.2-1,0.4c-0.2,0.2-0.4,0.6-0.4,0.9c0,0.4,0.1,0.8,0.4,1.1C83.701,68.9,84.101,69.1,84.501,69.1z"/>
	<path fill="#4C331B" d="M84.501,71.1L84.501,71.1c1,0,1.9-0.5,2.6-1.2c0.7-0.8,1-1.7,0.8-2.7c-0.2-1.7-1.9-3.1-3.6-2.9
		c-0.8,0.1-1.6,0.4-2.2,1c-0.6,0.6-0.9,1.3-1,2.1c-0.1,0.9,0.2,1.9,0.9,2.6C82.601,70.7,83.501,71.1,84.501,71.1z M83.501,66.6
		c0.2-0.2,0.6-0.4,1-0.4c0.7,0,1.3,0.6,1.4,1.2c0.1,0.4-0.1,0.8-0.4,1.1c-0.3,0.3-0.7,0.5-1,0.5v1l0,0l0,0v-1c-0.4,0-0.8-0.2-1-0.5
		c-0.3-0.3-0.4-0.7-0.4-1.1C83.101,67.2,83.201,66.8,83.501,66.6z"/>
	<path fill="#D9EFFA" d="M74.001,67.3c0.1,0.1,0.3,0.2,0.5,0.3c0.5,0.1,1.2-0.2,1.3-0.7c0.2-0.5-0.1-1.2-0.5-1.4
		c-0.1-0.1-0.3-0.1-0.5-0.1c-0.4,0-0.8,0.2-1,0.5s-0.2,0.8,0,1.1C73.901,67.2,74.001,67.2,74.001,67.3z"/>
	<path fill="#4C331B" d="M72.601,68.8c0.4,0.4,0.8,0.6,1.4,0.8c0.3,0.1,0.5,0.1,0.8,0.1c1.3,0,2.5-0.8,3-2c0.6-1.4-0.1-3.2-1.5-3.9
		c-0.4-0.2-0.9-0.3-1.4-0.3c-1.1,0-2.1,0.5-2.7,1.4c-0.6,0.9-0.6,2.2-0.1,3.2C72.201,68.3,72.401,68.5,72.601,68.8z M73.901,65.9
		c0.2-0.3,0.6-0.5,1-0.5c0.2,0,0.3,0,0.5,0.1c0.5,0.2,0.7,0.9,0.5,1.4s-0.8,0.8-1.3,0.7c-0.2,0-0.4-0.1-0.5-0.3
		c-0.1-0.1-0.1-0.2-0.2-0.3C73.701,66.7,73.701,66.3,73.901,65.9z"/>
	<path fill="#D9EFFA" d="M78.101,62.3c0.1,0,0.1,0,0.1,0c0-0.1,0-0.3,0-0.4c-0.1,0-0.1,0.1-0.2,0.1c0,0-0.1,0.1-0.1,0.2
		C78.001,62.2,78.101,62.3,78.101,62.3L78.101,62.3z"/>
	<path fill="#4C331B" d="M76.001,62.3c0,0.6,0.3,1.2,0.8,1.5c0.4,0.3,0.8,0.5,1.3,0.5c0.9,0,1.6-0.5,1.9-1.2
		c0.3-0.6,0.2-1.2,0.1-1.6c0-0.1,0-0.3,0-0.4c0-0.3-0.2-0.6-0.4-0.8c-1-0.6-2.4-0.5-3.2,0.4C76.201,61,76.001,61.7,76.001,62.3z
		 M78.101,61.9c0,0,0.1-0.1,0.2-0.1c0,0.2,0,0.4,0,0.4h-0.1h-0.1c0,0,0-0.1-0.1-0.1C78.001,62,78.001,62,78.101,61.9z"/>
	<path fill="#4C331B" d="M74.501,59c0.3,0.2,0.7,0.3,1.1,0.3c0.7,0,1.4-0.3,1.8-0.9c0.4-0.5,0.5-1.1,0.4-1.7s-0.5-1.1-1-1.4
		c-0.9-0.5-2.2-0.2-2.8,0.7c-0.5,0.8-0.5,2,0.2,2.8C74.301,58.9,74.401,59,74.501,59z"/>
	<path fill="#BBB6B0" d="M87.482,46.753c0-1.4-0.352-3.628-0.852-5.028c-0.3-0.7-1.128-1.534-1.628-1.534s-1.309,0.849-1.509,1.449
		c-0.6,1.3-0.972,3.441-0.972,4.841c0.3,0,1.577-0.102,1.977-0.102C85.499,46.378,86.482,46.553,87.482,46.753z"/>
	<path fill="#D9EFFA" d="M78.788,127.503C78.788,127.503,78.682,127.503,78.788,127.503l-3.187,0.493
		c0,0.246,0.212,0.616,0.425,0.74c0.637,0.37,1.487,0.37,2.337,0.37c3.4-0.123,6.799,0.123,10.093,0.247
		c0.956,0,1.912,0.123,2.868,0.123c0.85,0,1.912,0,2.337-0.616c0.319-0.616-0.106-1.726-0.637-2.588L78.788,127.503z"/>
	<path fill="#020203" d="M94.901,81.9c0-0.3-0.3-0.5-0.6-0.4c-7.8,1.4-16.6,2.9-24.9,1.2c-0.3-0.1-0.5,0.1-0.6,0.4s0.1,0.5,0.4,0.6
		c2.6,0.5,5.3,0.7,8,0.7c5.9,0,11.8-1,17.2-2C94.701,82.4,94.901,82.1,94.901,81.9z"/>
	<path fill="#020203" d="M92.401,88.7c-7.5,0.2-15-0.1-22.4-0.8c-0.3,0-0.5,0.2-0.5,0.4c0,0.3,0.2,0.5,0.4,0.5
		c5.9,0.6,11.9,0.9,17.9,0.9c1.6,0,3.1,0,4.7-0.1c0.3,0,0.5-0.2,0.5-0.5C92.901,88.9,92.701,88.6,92.401,88.7z"/>
	<path fill="#D9EFFA" d="M113.301,278.7c3.4,3.3,8.966,5.9,13.266,5.9c-2.7-5.9-7.816-11.909-12.316-16.609
		c-0.7-0.7-1.3-1.4-1.9-2.1c-9.1-9.7-16.952-19.956-24.852-30.257c-4.3-5.6-8.866-11.234-11.566-18.034
		c-6.4-15.9-2.332-33.65,2.668-48.95c0.3-0.9,0.4-1.968,0.7-2.868c3.3-10.1,7.457-21.305,6.357-31.705c-0.9,0-3.8,0-4.5,0
		c1.2,8.9-0.198,18.82-4.398,27.92c-1,2.2-1.695,3.936-2.895,6.136c-1.1,2.1-3.264,4.966-4.264,7.066c-8.2,17.5-6.6,40.3,3.3,56.9
		c2.9,4.9,6.5,9.3,9.6,13.1C92.001,256.9,102.401,268.2,113.301,278.7z"/>
	<path fill="#D9EFFA" d="M78.356,126.1l14.864-1.476c0.516,0,0.723-0.134,0.723-0.134s-0.103-0.268-0.206-0.403
		c-0.31-0.268-0.723-0.403-1.239-0.537c-0.929-0.134-2.064-0.268-3.303-0.268c-0.826,0-1.548,0-2.374,0s-1.548,0-2.374,0
		c-2.064,0-3.613-0.134-5.058-0.537h-0.206c-0.413-0.134-0.723-0.268-1.032-0.134c-0.516,0-1.032,0.537-1.239,1.342
		c-0.206,0.537-0.31,1.208-0.31,2.148C77.117,126.1,77.737,126.1,78.356,126.1z"/>
	<path fill="#D9EFFA" d="M89.587,133.43c0.526,0,1.368-0.142,1.789-0.71c0.211-0.284,0.316-0.568,0.316-0.994c0,0,0,0,0-0.142
		c-4.316,0.142-8.736-0.142-13.157-0.71c-0.316,0-0.737,0-1.053,0.142c-0.316,0-0.632,0.142-0.842,0.142
		c-0.105,0.142-0.316,0.852-0.211,1.136c0.737,0.284,3.263,0.71,12.631,1.136L89.587,133.43z"/>
	<path fill="#7C5633" d="M156.835,180.896c-2.648,0.526-5.084,2.315-6.461,4.736c-1.377,2.315-1.551,5.975-1.021,8.817
		c0.106,0.737,0.318,1.368,0.53,2.105c0.212,0.631,0.318,1.263,0.53,1.894c0.741-0.737,1.377-1.579,2.013-2.526
		c0.847-1.158,1.695-2.315,2.754-3.263c3.284-3.157,8.156-4.736,14.511-4.736c1.377,0,2.224-0.316,2.33-0.737
		c0-0.21-0.106-0.526-0.106-0.526c-0.53-1.473-2.157-3.555-4.063-4.397c-1.801-0.842-3.813-1.158-5.72-1.263
		c-0.741-0.105-1.801-0.21-2.754-0.21C158.424,180.686,157.577,180.791,156.835,180.896z"/>
	<path fill="#7C5633" d="M205.852,182.834c-1.3-2.3-2.7-4.1-4.2-5.4c-0.6-0.5-1.1-0.8-1.6-1c-0.4-0.2-1-0.3-1.6-0.4
		c-3.1-0.4-6.4,1.2-8.4,3.8c0.3,0-1.551,1.391-1.251,1.391c0.6,0.1,3.175,0.925,3.875,1.125c1.7,0.4,3.2,1.2,4.5,1.9
		c3.2,1.8,6.2,3.9,9.1,6.2c0.5-1,0.776-4.116,0.676-5.016C206.752,184.534,206.352,183.634,205.852,182.834z"/>
	<path fill="#5C3F22" d="M219.701,173.7c-3.6-3.7-3.8-9.4-4.3-14.5c-0.7-7.1-2.6-14.1-5.5-20.7c-0.8-1.7-1.7-3.5-3.2-4.7
		s-3.9-1.4-5.3-0.1c2,4.3,1.4,9.5-0.6,13.8s-5.2,8-8.4,11.5c-0.1,0.1-0.2,0.3-0.4,0.4l0,0c0.3,0.1,1.155,1.299,1.455,1.399
		c0.2,0.1,0.4,0.1,0.6,0.2c0.3,0.1,0.5,0.2,0.7,0.2c0.3,0.1,0.5,0.2,0.8,0.3c0.2,0.1,0.4,0.1,0.6,0.2c0.5,0.2,0.9,0.4,1.4,0.6
		c3.3-4.4,7.063-9.458,10.563-13.758c0.3-0.3,1.981-0.197,2.31-0.076c0.3,0.4,0.5,1,0.6,1.9c0.4,3.7,0.5,7.5,0.5,11.2
		s0,7.6,0.5,11.3c0.2,1.5,0.5,3.1,1.4,4.3s3.882,2.384,6.282,2.884c4.4,0.8,9.628-0.327,13.628-2.327c0.3-0.1,0.388-0.36,0.588-0.46
		c0,0,0.173-0.323,0.273-0.323c0.2-0.1-0.2-0.339,0-0.539l0,0l0,0c-0.3,0.1-0.6,0.1-0.9,0.2
		C228.401,177.6,223.101,177.1,219.701,173.7z"/>
	<path fill="#5C3F22" d="M327.277,174.654c-6.8-11.8-17.459-21.954-29.659-28.554c-0.5-0.3-1.162-0.291-1.662-0.491
		c0,0-0.565-0.332-0.665-0.332c-1.3-0.6-1.89-0.176-2.99-0.376l0,0c1.3,0.9,2.7,1.7,4,2.5c11.8,7.2,22.4,16.9,28.5,29.2
		s7.3,27.5,1.1,39.9c-1.9,3.7-4.4,7.1-7.9,9.3c-0.3,0.2-0.6,0.4-0.9,0.5l0,0l0,0c0.2,0.7,0.5,1.4,0.7,2.1c0.1,0.2,0.1,0.4,0.2,0.5
		c0.2,0.7,0.3,1.892,0.5,2.592c7.4-3.6,13.747-11.977,15.447-21.477c1.5-8.1,0.504-17.446-3.296-27.946
		C330.052,180.169,328.677,177.054,327.277,174.654z"/>
	<path fill="#5C3F22" d="M292.501,144.9L292.501,144.9L292.501,144.9z"/>
	<path fill="#A87876" d="M179.601,265.9c-0.1-0.4-0.2-0.8-0.4-1.2c-0.1-0.1-0.1-0.3-0.2-0.4c-0.1-0.2-0.2-0.5-0.3-0.7
		c-0.1-0.2-0.2-0.3-0.3-0.5c-0.1-0.2-0.2-0.3-0.3-0.5c-0.1-0.2-0.3-0.4-0.4-0.5s-0.2-0.2-0.3-0.4c-0.2-0.2-0.3-0.4-0.5-0.5
		c-0.1-0.1-0.2-0.2-0.3-0.3c-0.2-0.2-0.4-0.4-0.6-0.5c-0.1-0.1-0.1-0.1-0.2-0.2c-0.2-0.2-0.5-0.3-0.7-0.5c0,0-0.1,0-0.1-0.1
		c-0.3-0.2-0.5-0.3-0.8-0.4c1.6,5.2,1.5,11-0.4,16.1c-0.6,1.6-1.3,3.1-2.4,4.3c-2.5,2.7-6.5,3.4-10.1,4c-7.2,1.1-14.5,2.2-21.7,3.3
		c-3.2,0.5-6.853,1.135-9.853,2.435v0.18c0,0.2,0.1,0.12,0.1,0.32c0,0.1,0.1,0.2,0.1,0.4c0,0.1,0.1,0.2,0.1,0.4
		c0.1,0.1,0.1,0.3,0.2,0.4c0,0.1,0.1,0.2,0.1,0.3c0.1,0.2,0.2,0.4,0.4,0.6c0.7,0.8,2.253,1.065,4.053,1.065c0.7,0,1.5-0.1,2.1-0.1
		l30.8-3.2c0.4,0,0.7-0.1,1-0.2c0.4-0.1,0.8-0.5,1.2-0.8c4.4-4,7.5-8.3,9.1-12.7C179.701,273.5,180.601,269.7,179.601,265.9z"/>
	<path fill="#A37C50" d="M305.401,224.1c4.6,10.5,5.1,22.7,1.3,33.6c0.1,0,0.1-0.1,0.2-0.1s0.2-0.1,0.3-0.1
		c2.9-0.3,5.971-1.903,7.471-4.403c0-0.1,0.565-0.437,0.665-0.537c3.1-11,1.888-22.741-2.813-32.241
		c-5.2-10.2-15.403-18.271-26.003-20.071c-0.9-0.2-1.887-0.258-2.787-0.358c-0.8-0.1-1.987-0.011-2.787-0.011l0.553,0.521
		C292.001,204.8,300.801,213.5,305.401,224.1z"/>
	<path fill="#A37C50" d="M315.005,254.887l0.197,0.213c0.1-0.1,0.1-0.1,0,0c2.4,1.3,2.7,4.7,1.5,7c-1.3,2.3-3.7,3.8-6.1,4.9
		c-3.7,1.8-7.6,3.1-11.6,3.9c-2.1,0.4-4.2,0.7-6,1.7s-3.4,3-3.1,5.1c0.2,1.7,1.4,3.6,0.4,5c-2.1,0.3-4.566,0.17-6.566-0.43v0.179
		c0.1,0.2,0.181,0.925,0.281,1.125s0.488,0.644,0.588,0.844c1,1.7,1.871,1.715,4.071,1.815h0.2c0.052,0.31,0,0,0.1,0.1h0.1l0.1,0.1
		c0.1,0,0.1,0.1,0.2,0.1l0.215,0.211c0.6,0.7,1.906,0.878,2.506,0.878c1.5,0,2.706-1.322,3.406-2.522c1.3-2.4,0.2-5.4-1.1-7.3
		c-0.2-0.3-0.2-0.6-0.1-0.9s0.488-0.257,0.888-0.357l21.886-6.699c2.7-0.8,4.726-1.844,6.126-3.744c1.5-2,1.4-5.4-0.3-7.7
		c-1.5-2-4.257-4.291-7.257-4.791C315.344,253.809,315.205,254.587,315.005,254.887z"/>
	<path fill="#A37C50" d="M279.601,286c-1.6,0.4-3.5-0.3-4.4-1.6l0,0c0.1,0.2-0.1,0.509,0,0.709c0.5,1.7,2.087,3.958,3.787,5.758
		c0.8,0,1.6,0.1,2.4,0.2c0.4,0,0.8,0.1,1.2,0.2c1.6,0.2,3.1,0.4,4.2,0c0.8-0.3,1.5-1,1.8-1.8c0.1-0.3,0.121-1.118,0.021-1.418
		c-2.5-0.3-4.508-1.349-5.808-3.549c-0.2-0.3-0.4-0.7-0.5-1.1C281.901,284.6,280.901,285.6,279.601,286z"/>
	<path fill="#A37C50" d="M267.901,287.5c-1.4-0.3-2.9-0.9-4-1.6v0.231v0.205c0.1,0.2,0.2,0.247,0.4,0.547l0.104,0.283
		c0.2,0.2,0.196,0.217,0.396,0.417c2.5,2.8,6.6,2.8,10.9,2.9l0.65-0.431c-0.3-0.3-0.5-0.7-0.8-1c-0.2-0.3-0.3-0.5-0.5-0.8
		c0-0.1-0.1-0.1-0.1-0.2c-0.2-0.3-0.4-0.7-0.5-1l-0.049-0.179c-0.2-0.3-0.251-0.521-0.351-0.821l-0.45,0.148
		C272.201,287.4,269.901,287.9,267.901,287.5z"/>
	<path fill="#A37C50" d="M222.55,261.015c0.5-0.9,1.241-2.39,1.841-3.29l-0.99,0.575c-1.9,1.1-3.9,1.9-6.2,1.9c-1,0-1.9-0.1-2.8,0.2
		c-2.9,0.9-3.2,4.8-4.1,7.8c-1.9,5.9-8.5,9.1-14.7,9.8c-5.1,0.6-10.637-0.074-15.837,0.026v0.136c-0.2,0.4-0.622,0.493-0.822,0.893
		c-0.1,0.2-0.2,0.3-0.2,0.5c-0.2,0.4-0.4,0.7-0.6,1s-0.3,0.5-0.5,0.8s-0.3,0.5-0.5,0.8c-0.4,0.5-0.889,1.744-1.289,2.244
		c2.7,0.2,5.831,0.7,8.431,0.7c2.4,0,4.891-0.311,7.091-0.511c6.7-0.6,11.882-2.005,15.682-4.705c3.9-2.7,7.309-8.379,6.409-13.879
		c0-0.3,0.209-0.102,0.409-0.302s0.416-0.17,0.716-0.17c2.1-0.4,4.07-0.655,6.17-0.955c0.2-0.5,0.618-0.898,0.818-1.398
		c0.2-0.4,0.362-0.725,0.563-1.125C222.041,262.155,222.45,261.115,222.55,261.015z"/>
	<path fill="#A37C50" d="M244.401,208.2c-7,13.2-1.8,30.1,8.2,41.2c-3.7-0.8-7.6-0.9-11.3-0.2c-0.994,0.228-1.611,0.684-1.211,0.684
		c3.3,0.2,8.482,0.768,11.182,1.568c3.1,1,6,2.314,9,3.614c1.8,0.8,4.268,1.895,6.068,2.795c0.6,0.3,2.743,0.859,3.443,1.159
		c-1.1-0.8-2.991-2.68-4.091-3.58c-1.6-1.4-3.352-3.014-5.352-5.114c-5.5-5.7-11.902-13.477-13.602-22.977
		c-0.4-2.4-0.495-4.779-0.395-8.279c0.1-3.4,0.3-7.8,1.8-11.9c0.2-0.6,0.4-1.1,0.7-1.6c0.1-0.2,0.2-0.5,0.3-0.7
		c0.1-0.2,0.2-0.4,0.3-0.6c0.4-0.6,0.748-2.06,1.148-2.66l-0.989,0.689C247.401,203.7,245.601,205.9,244.401,208.2z"/>
	<path fill="#A37C50" d="M120.701,284.9c-0.2-0.1-0.4-0.2-0.6-0.3c-0.1-0.1-0.3-0.1-0.4-0.2c-0.2-0.1-0.3-0.2-0.5-0.3
		c-0.2-0.1-0.3-0.2-0.5-0.3c-0.1-0.1-0.3-0.2-0.4-0.3c-0.2-0.1-0.3-0.2-0.5-0.3c-0.1-0.1-0.3-0.2-0.4-0.3c-0.2-0.1-0.4-0.3-0.5-0.4
		s-0.2-0.2-0.3-0.2c-0.2-0.1-0.4-0.3-0.6-0.4c-0.1-0.1-0.1-0.1-0.2-0.2c-0.2-0.2-0.4-0.4-0.7-0.5l0,0c-2.8,1.1-5.6,2-8.5,2.6
		c-0.4,0.1-0.8,0.2-1.1,0c-0.8-0.3-1.2-1.6-2-1.2c0,0.4-0.1,0.7-0.1,1.1c0.1,0-0.1,0.548,0,0.548c0.6,0,0.634,0.095,0.734,0.595
		c0.1,1.8,0.239,3.844,0.239,5.644l0.409,0.245c0.2,0.5,0.78,0.581,1.08,0.581c0.4,0,0.7-0.1,1.1-0.2c0.5-0.2,1-0.5,1.5-0.9
		c0.6-0.4,1.2-0.8,2-1.1c1-0.4,1.9-0.5,2.9-0.6l0.4-0.1c2.9-0.4,6.591-0.988,9.191-2.188c-0.3-0.1-1.552-1.025-1.852-1.225
		C120.901,285,120.801,284.9,120.701,284.9z"/>
	<path fill="#A37C50" d="M90.697,289.345c-0.7,0.4-1.6,0.4-2.4,0.1c-1.3-0.4-2.4-1.1-3.2-2.1c0.5,2,1.7,3.8,3.1,5.4
		c0.2,0.2,0.4,0.5,0.6,0.7c0.3-0.1,0.7,0.1,0.9,0.3c1.1,1.3,2.7,2,4.4,2c0.5,0,1.042-0.245,1.242-0.345c-1.5-2.8-2.4-5.4-2.7-7.9
		c0-0.4-0.1-0.7-0.1-1.1c0-0.2,0-0.4,0-0.5c0-0.2,0-0.3,0-0.5s0-0.5,0-0.7c0-0.1,0-0.2,0-0.2c0-0.3,0-0.6,0.1-0.9l-0.342,0.145
		C91.697,285.645,92.397,288.345,90.697,289.345z"/>
	<path fill="#A37C50" d="M97.531,291.207c-1.5-0.7-2.5-2.2-3.2-3.7l0,0c0.1,1,0.4,2,0.7,3.1c0,0,0,0.1,0.1,0.1
		c0.2,0.5,0.4,1,0.6,1.5c0.2,0.6,0.5,1.1,0.8,1.7c0.2,0.1,0.4,0.2,0.5,0.5c0.4,0.8,1.3,1,2,1c0.6,0,1.332-0.084,1.832-0.284
		c1-0.7,1.814-2.5,2.114-4.1c0-0.1,0-0.1,0-0.2c0-0.8,0-1.7,0-2.5c-0.1,0.5-0.545,1.484-0.845,1.884
		C101.231,291.707,99.031,292.007,97.531,291.207z"/>
	<path fill="#A37C50" d="M94.501,287.2L94.501,287.2L94.501,287.2z"/>
	<path fill="#A37C50" d="M80.401,289.125c-1.5,0.8-3.5-0.3-4.4-1.8c-0.3-0.4-0.78-0.803-0.98-1.203v0.307
		c0.4,1.1,0.773,2.17,1.373,3.17c0.1,0.1,0.1,0.2,0.2,0.4c0.2,0.3,0.3,0.5,0.5,0.8c0.2,0.4,0.5,0.7,0.7,1.1c0.1,0.2,0.2,0.3,0.3,0.4
		c0.2,0.3,0.5,0.6,0.7,0.9c0.1,0.1,0.2,0.3,0.3,0.4c0.4,0.4,0.7,0.8,1.1,1.2c1.6,1.5,3.307,1.825,4.607,1.925
		c1,0.1,2.507-0.625,3.107-1.525c-1.8-2.1-4.207-4.475-4.907-7.675c-0.1-0.3-0.1-0.5-0.1-0.8c0-0.1,0-0.2,0-0.3c0-0.2,0-0.3,0-0.5
		c0-0.1,0-0.3,0-0.4s0-0.2,0-0.3c0-0.2,0-0.4,0-0.5l0,0C82.001,286.125,81.901,288.325,80.401,289.125z"/>
	<polygon fill="#A37C50" points="75.301,285.3 75.301,285.3 75.301,285.3 	"/>
	<path fill="#A37C50" d="M72.819,280.1c0-0.1,0-0.2,0-0.3c0-0.4,0-0.8,0-1.2c0,0,0,0,0-0.1c0.1-0.9,0.2-1.9,0.4-2.8l-0.543,0.1
		c-0.7,1.4-1.3,2.8-2,4.2c-0.3,0.6-0.6,1.3-1.1,1.8c-0.9,0.9-2.4,1-3.5,0.4c-0.3-0.2-0.979-0.789-1.179-1.089v0.375
		c0,0.5,0.1,0.73,0,1.33c0,0.9,0.279,1.884,0.279,2.784c0,1.1,0.3,1.8,0.7,1.9c0,0,0,0,0.1,0h0.1c0.7,0.3,1.4,0.5,2.3,0.5
		c1.4,0,3-0.4,4.4-0.8c0.3-0.1,1.143-0.3,1.443-0.4c-0.7-1.7-1.2-3.5-1.3-5.4C72.919,280.9,72.819,280.5,72.819,280.1z"/>
	<path fill="#A37C50" d="M55.76,282.168c-0.5,1.1-1.63,2.332-2.73,2.632c-1.2,0.3-2.5-0.1-3.5-0.8c-0.3-0.2-0.6-0.5-0.8-0.7l0,0l0,0
		c0,0.6,0.1,1.1,0.2,1.7c0,0.1,0,0.1,0,0.2c0.1,0.5,0.1,1,0.2,1.4c0,0.1,0,0.2,0.1,0.4c0.1,0.4,0.2,0.9,0.3,1.3
		c0,0.1,0.1,0.3,0.1,0.4c0.2,0.6,0.3,1.1,0.6,1.6c0.2,0.2,0.3,0.4,0.3,0.6c0.2,1.5,1.9,2.8,3.7,2.6c1.4-0.1,3.234-1.256,4.034-2.656
		c-0.2-0.4-0.5-0.8-0.7-1.2c-0.1-0.1-0.1-0.3-0.2-0.4c-0.1-0.3-0.2-0.5-0.3-0.8c-0.1-0.2-0.1-0.3-0.2-0.5c-0.1-0.2-0.2-0.5-0.2-0.7
		s-0.1-0.3-0.1-0.5c-0.1-0.2-0.1-0.5-0.2-0.7c0-0.2-0.1-0.3-0.1-0.5s-0.1-0.5-0.1-0.7s-0.1-0.3-0.1-0.5s-0.1-0.5-0.1-0.7
		c0-0.1,0-0.3,0-0.4c-0.1-0.1-0.034-0.244-0.034-0.644v-0.432v0.432L55.76,282.168z"/>
	<path fill="#A37C50" d="M43.882,282.9c-1.3-0.2-2.4-1.1-3.5-2c-1.2-1-2.4-2.1-2.9-3.6c-0.1-0.2-0.1-0.5-0.2-0.7c0,0.4,0,0.7,0,1.1
		l0,0c0,0.3,0,0.7,0.1,1c0,0.1,0,0.1,0,0.2c0,0.3,0.1,0.6,0.1,0.9c0.1,0.4,0.1,0.7,0.2,1.1v0.1c0.1,0.3,0.1,0.6,0.2,1
		c0,0.1,0,0.1,0,0.2c0.3,0.9,0.6,1.8,1,2.6c0.1,0.1,0.1,0.2,0.2,0.4c0.1,0.2,0.2,0.4,0.3,0.6c0.1,0.2,0.2,0.3,0.3,0.5
		c0.1,0.2,0.2,0.4,0.3,0.5c0.1,0.2,0.3,0.4,0.4,0.6c0.1,0.1,0.2,0.3,0.3,0.4c0.2,0.3,0.5,0.6,0.7,0.9c0.1,0.1,0.2,0.2,0.3,0.3
		c0.2,0.2,0.4,0.4,0.6,0.6c0.1,0.1,0.2,0.2,0.3,0.3c0.2,0.2,0.4,0.4,0.6,0.5c0.1,0.1,0.2,0.2,0.3,0.2c0.3,0.2,0.6,0.5,1,0.7
		c1,0.6,1.7,0.9,2.4,0.9h0.1c0.5,0,1.448-0.365,1.748-0.765c-0.2-0.5-0.4-1-0.5-1.5c0-0.1-0.1-0.3-0.1-0.4c-0.1-0.5-0.3-0.9-0.4-1.4
		c0-0.1,0-0.2-0.1-0.3c-0.1-0.4-0.2-0.9-0.2-1.3c0-0.2-0.1-0.4-0.1-0.6c0-0.3-0.1-0.6-0.1-0.9c0-0.4-0.1-0.8-0.1-1.3
		c0-0.2,0-0.3,0-0.5c0-0.3,0-0.7-0.1-1l-0.348,0.065l0,0C45.982,282.8,44.782,283.1,43.882,282.9z"/>
	<path fill="#A37C50" d="M60.429,284.6c-0.5,0.2-1.1,0.2-1.6-0.1c-0.5-0.3-0.9-0.8-1.1-1.3c-0.1-0.1-0.1-0.3-0.2-0.4l0,0
		c0,0.1,0,0.1,0,0.2c0,0.5,0.1,1.1,0.1,1.6c0,0.1,0,0.1,0,0.2c0.1,0.5,0.2,1.1,0.3,1.6c0,0.1,0,0.2,0.1,0.3c0.1,0.5,0.3,1,0.5,1.5
		c0,0.1,0.1,0.1,0.1,0.2c0.2,0.5,0.4,1,0.7,1.4c0.4,0,0.7,0.3,0.9,0.7c0.2,1,1.3,1.7,2.4,1.7c0.2,0,0.5,0,0.7-0.1
		c0.6-0.2,1.357-0.973,1.657-1.673c0.2-0.5,0.2-1.1,0.1-1.6c-0.8-0.4-1.5-1.4-1.6-3.6c0-1,0-1.9,0-2.9
		C62.685,283.327,61.529,284.3,60.429,284.6z"/>
	<path fill="#A37C50" d="M63.301,282.6L63.301,282.6L63.301,282.6z"/>
	<path fill="#5C3F22" d="M147.942,231.4c1.8-0.3,4.312-1.785,4.712-3.385c0.3-1.1-0.481-2.993-1.081-4.193
		c-6-12.7-9.33-25.922-10.63-40.022c-0.1-1.2-0.243-2.3-0.243-3.4c0-0.4,0.032-8.435,0.032-8.635c0.2-2.4,0.114-4.343,0.614-6.443
		c0-0.1,0.176-0.616,0.176-0.716c0.172-0.6,0.368-2.737,0.285-3.234c-0.014-0.082-0.933,1.728-0.905,1.629l0,0
		c-3.6,7.1-5.5,15-5.4,22.9c0.1,11.6,4.4,22.8,6.9,34.2c0.3,1.6,0.6,3.5-0.3,4.8c-0.8,1.1-2.2,1.5-3.5,1.8c-7.2,1.5-15-0.5-22.2,0.8
		c0.4,0.1,0.559,1.028,0.859,1.128c7.9,2.1,15.333,3.324,21.733,3.324C141.993,231.952,145.242,231.8,147.942,231.4z"/>
	<path fill="#4C331B" d="M331.901,181.7c-0.7-2.1-1.8-4.8-3.2-7.3c-7-12.2-17.7-22.6-30.3-29.3c-4.8-2.6-8.5-3-11.4-1.4
		c-0.4,0.2-0.6,0.6-0.5,1.1c0.5,2.8,3,4.7,4.9,6.3c4.1,3.2,8,6.7,11.7,10.4c3,3,6,6.4,7.6,10.4c0.9,2.3,1.5,5,1.7,8.3
		c0.6,10.2-2.4,20-8.4,27.1c-5-4.2-11-7.2-17.2-8.3c-1.9-0.3-3.8-0.5-5.7-0.7c-2.4-0.2-4.8-0.4-7.1-1c-0.8-0.2-1.7-0.4-2.5-0.7
		c-1.5-0.4-3-0.9-4.6-1.1c-0.8-0.1-1.6-0.2-2.4-0.2c-3.6,0-7.1,1-10.6,2l-1.1,0.3c-9,2.5-17.4,3.8-25,3.8c-8.5,0-16.1-1.6-22.6-4.8
		c0.4-1.2,0.8-2.4,1.3-3.6c0.1,0,0.1,0,0.2,0h0.1c0.8-0.1,1.4-0.8,1.3-1.7c0-0.5-0.3-0.9-0.5-1.2c0.4-0.8,0.6-1.6,0.7-2.5
		c0-0.1,0-0.1,0.1-0.2c1.6-7-0.8-15.1-6.6-21.5c-1.2-1.3-2.4-2.4-3.6-3.4c3.3-4.4,6.7-8.8,10.2-13c0.4-0.5,0.6-0.6,0.7-0.6
		c0,0.1,0,0.1,0.1,0.2c0,0.2,0.2,0.4,0.3,0.5c0,0.1,0.1,0.3,0.1,0.4c0.4,3.6,0.5,7.4,0.5,11c0,3.8,0,7.7,0.5,11.5
		c0.2,1.8,0.6,3.7,1.7,5.2c1.3,1.7,3.3,2.8,6.2,3.3c1.4,0.3,2.8,0.4,4.3,0.4c3.5,0,7.1-0.8,10.2-2.4c2.4-1.2,3.9-2.6,4.7-4.2
		c0.8-1.7,0.7-3.5,0.6-4.7c-0.3-3.1-1.3-6-2.2-8.8c-3.2-8.9-7.1-17.7-10.9-26.2c-0.9-1.9-1.7-3.9-2.6-5.8l-0.1-0.1
		c-1.5-3.3-3-6.7-5.4-9.4c-2.9-3.2-6.8-4.9-10.3-4.4c-4.5,0.6-7.7,4.5-9.7,7.3c-3.9,5.5-6.9,11.6-8.9,18.1c-0.2,0.8-0.5,1.6-0.7,2.4
		c-0.4,1.5-0.8,3-1.4,4.4c-0.9-0.9-2.1-1.3-3.9-1.3c-0.3,0-0.6,0-0.9,0c-1.8,0.1-3.5,0.4-5.2,0.7l1.3-1c3.2-2.4,2.9-4.4,2.5-5.3
		c-0.5-1.2-1.7-1.8-3.2-1.8c-1,0-2.1,0.3-3,0.8c-2.4,1.2-4.6,2.9-6.6,4.6c-1,0.8-2,1.6-3,2.4c-3.5,2.5-7.3,4.3-11.4,5.4
		c-0.6,0.2-1.2,0.3-1.8,0.4c-2.8,0.7-5.8,1.4-8.1,3.2c-0.2,0-0.5,0-0.7,0.1c-5.7,1.1-10,4.8-12.6,7.7c-3.2,3.5-5.6,7.5-8.2,12.1
		c-1.5,2.7-3,5.3-4.2,8c-5.5,12.4-5.7,26.6-5.8,39.1c0,1.1,0,2.5,0.6,3.8c1,1.9,3.1,2.7,5.2,3.3c0.5,0.1,1,0.2,1.5,0.4
		c-0.4,1.9-0.9,3.8-1.8,5.5c-3.2,6.5-10.3,10.4-15.4,12.7c-0.6,0.3-1.2,0.5-1.8,0.8c-3.8-4.7-7.4-9.4-11-14.1l-0.4-65.4l-0.1-13
		l-0.1-21.3c0-0.1,0-0.2,0-0.2c0.3,0,0.6,0,0.9,0h0.6c1.3,0,2.4-0.4,3.1-1.1c0.6-0.6,0.9-1.4,0.9-2.2c0-0.3-0.1-0.5-0.1-0.7
		c0.7-0.2,1.4-0.5,1.8-1.2c0.7-1,0.6-2.3-0.3-3.8c0.1-0.1,0.2-0.2,0.3-0.3c0.7-0.9,0.4-2.1-0.2-2.8c0-0.1,0-0.1,0-0.2
		c0-0.3,0.1-0.5,0.3-0.8c0.5-0.5,1.3-0.9,2.2-0.9l0,0c0.9,0,1.7,0.3,2.6,0.5c0.8,0.2,1.6,0.5,2.4,0.6c3.2,0.4,6.4-1.1,8.1-3.7
		c1.1-1.7,1.5-3.6,1.9-5.6c2.7-14.6,3.2-29.5,1.6-44.3c-0.7-5.9-2-12.6-6.7-16.7c-4.1-3.6-9.6-4.4-14.6-4.9
		c-1.3-0.1-2.5-0.2-3.6-0.3c0-1.7-0.3-3.4-0.9-5c-0.7-1.8-1.8-2.8-3.2-2.8c-1.2,0-2.4,0.9-3.1,2.5c-0.7,1.6-1,3.4-0.9,5.1
		c-1.5,0.1-3,0.2-4.4,0.3c-6,0.7-11.1,2.6-15.2,5.5c-2.3,1.6-4,3.5-5.1,5.4c-1.8,3.2-2.1,6.9-2.3,10.9c-0.6,14.4-0.7,29.7,3.2,44.1
		c0.4,1.6,0.9,3.2,2,4.6c2.2,2.7,5.9,3.2,7.9,3.2c1.4,0,2.9-0.2,4.3-0.4c1.3-0.2,2.5-0.3,3.7-0.3h0.1c0.9,0,2,0.3,2.1,0.9
		c0,0.1,0,0.2,0,0.3s0,0.3,0,0.4c-1,0.3-1.8,1-2.3,2c-0.4,0.8-0.6,1.8-0.5,3.1c0,0.1,0,0.3,0.1,0.4c-0.3,0.4-0.4,1-0.3,1.5
		c0.1,0.8,0.5,1.5,1.1,1.9c-0.2,0.3-0.4,0.5-0.6,0.9c-0.4,1.1-0.2,2.1,0.4,2.7c0.2,0.2,0.5,0.5,3.2,0.7c-0.1,6.1-0.2,12.8-0.3,19.9
		c-0.2,0.7-0.4,1.4-0.7,2c-0.6,1.8-1.3,3.5-2.1,5.2c-1,2.2-2.2,4.4-3.3,6.5c-0.2,0.4-0.4,0.8-0.7,1.3c-0.9,1.7-1.9,3.5-2.7,5.3
		c-8.4,18.1-7.4,40.1,2.9,57.3c1.6,2.7,3.4,5.3,5.3,7.7c-0.1,6.7-0.2,12.2-0.2,16.1c-4,0.7-7.9,1.8-11.6,3.3c-0.8,0.3-1.6,0.7-2.4,1
		c-2.8,1.2-5.5,2.4-8.4,2.7c-1.1,0.1-2.2,0.2-3.3,0.2h-1.8c-2.8,0-5.7,0.1-8.1,1.7c-2.1,1.3-3.7,3.6-4.7,6.6
		c-2.7,8.1,0.5,17.4,7.3,21.6c0.9,0.5,2.2,1.2,3.7,1.2c0.8,0,1.6-0.3,2.1-0.8c1,1.4,2.7,2.4,4.6,2.4c0.2,0,0.3,0,0.5,0
		c1.8-0.2,3.6-1.3,4.8-2.9c0.8,0.9,2.1,1.5,3.4,1.5c0.5,0,0.9-0.1,1.4-0.2c1.1-0.4,2-1.3,2.5-2.5c0.2-0.5,0.3-1.1,0.3-1.6
		c0.5,0.1,0.9,0.1,1.4,0.1c1.7,0,3.4-0.4,5-0.9c0.4-0.1,0.8-0.2,1.2-0.4c1.2,2.3,2.8,4.4,4.7,6.3c1.2,1.2,3.2,2.8,5.6,3
		c0.1,0,0.2,0,0.4,0c1.6,0,3.4-0.9,4.3-2.3c1.3,1,3,1.6,4.7,1.6h0.1c0.5,0,1.3-0.1,2-0.6c0.1-0.1,0.2-0.2,0.3-0.2
		c0.7,0.5,1.6,0.7,2.5,0.7c1,0,1.9-0.3,2.7-0.8c1.3-0.8,2.2-2.2,2.7-4c0.9,0.4,2.2,0.3,3.3-0.2c0.7-0.3,1.3-0.7,1.8-1.1
		s1.1-0.7,1.6-0.9c0.7-0.3,1.5-0.4,2.4-0.5l0.4-0.1c3.9-0.5,7.6-1.7,11.1-3.5l0,0c0.1,0,0.3,0,0.4,0c0.5,0,1,0,1.6,0
		c0.3,0.9,0.5,1.8,0.7,2.7l0.1,0.4c0.3,1.3,0.6,2.8,1.6,3.9c1.1,1.3,2.8,1.9,5.2,1.9l0,0c0.8,0,1.6-0.1,2.3-0.1l30.8-3.2
		c0.5,0,1-0.1,1.5-0.3c0.7-0.3,1.3-0.8,1.8-1.2c1.5-1.4,2.8-2.7,4-4.2c3.2,0.2,6.4,0.4,9.5,0.4c2.5,0,4.7-0.1,6.9-0.3
		c7.1-0.6,12.3-2.2,16.4-5c5-3.5,7.8-9.1,7.4-14.4c1.5-0.2,3-0.5,4.5-0.7c-0.3,1.3-0.4,2.4-0.3,3.5c0.1,1.3,0.5,2.6,1.2,4.1
		c2.5,5.3,7.4,9,12.4,9.3c0.2,0,0.4,0,0.6,0l0,0c2.3,0,5-0.9,6.4-3c1.3,1.1,2.9,1.7,4.5,1.4c1.7-0.2,3.2-1.5,3.7-3
		c2,1,4.8,0.6,6.4-0.9c1.7-1.5,2.5-4.1,2-6.5c4.6-0.2,9.1-0.8,13.6-1.6c-1.3,0.7-2.5,1.6-3.7,2.5c-3,2.5-5,6.3-5.3,10
		c-0.2,2.6,0.6,4.9,2.1,6.7c3.1,3.5,7.8,3.5,12.4,3.6c0.7,0,1.3,0,2,0c0.1,0,0.2,0.1,0.4,0.1c0.1,0,0.2,0,0.3-0.1
		c0.8,0,1.6,0.1,2.3,0.2c0.4,0,0.8,0.1,1.2,0.2c0.9,0.1,1.9,0.3,2.9,0.3c0.8,0,1.6-0.1,2.3-0.3c1.4-0.5,2.6-1.7,3.1-3.1
		c0-0.1,0.1-0.3,0.1-0.4c0.5,0.1,0.9,0.2,1.4,0.2c2.3,0,4.4-1.3,5.4-3.2c1.4-2.8,0.8-5.9-0.5-8.2l20.6-6.3c2.3-0.7,5.5-1.7,7.4-4.2
		c2.1-2.8,1.9-7-0.3-10.1c-1.7-2.3-4.4-4-7.7-4.7c1.7-6.3,2.1-12.8,1.3-19c0.1,0,0.2,0,0.3-0.1c8.6-3.6,15.1-12.4,17-22.9
		C336.901,202,335.701,192.6,331.901,181.7z M206.001,189.3c-2.8-2.3-5.9-4.4-9.1-6.2c-1.3-0.7-2.8-1.5-4.5-1.9
		c-0.6-0.1-1.3-0.2-1.9-0.3c-0.3,0-0.6-0.1-0.9-0.1c2-2.6,5.3-4.1,8.4-3.8c0.6,0.1,1.1,0.2,1.6,0.4s1,0.5,1.6,1
		c1.6,1.3,3,3.1,4.2,5.4c0.5,0.8,0.9,1.7,1,2.6C206.701,187.3,206.501,188.3,206.001,189.3z M186.701,186.5c0.4-0.6,0.9-1.2,1.1-2
		c0.3,0,0.5,0.1,0.7,0.1s0.3,0,0.5,0h0.1c0.1,0,0.3,0,0.4,0c0.7,0,1.4,0,2.2,0.1c1.8,0.2,3.5,0.8,5.4,1.7c0.7,0.3,1.3,0.7,2,1.1
		c0.6,0.4,1.2,0.8,1.9,1.2c1,0.7,2,1.5,3.1,2.4l0.3,0.3c0.3,0.2,0.6,0.5,0.9,0.7c-0.3,0.6-0.6,1.2-1,1.8c-1.4,2.1-3.7,3.5-6.1,3.8
		c-0.4,0.1-0.9,0.1-1.5,0.1c-0.2,0-0.4,0-0.6,0c-2,0-4.4-0.2-6.2-1.2c-0.8-0.4-1.4-1-2-1.5c-0.7-0.6-1.2-1.1-1.6-1.8
		c-1.041-1.608-0.918-4.022,0.199-5.887c0.064-0.106,0.073-0.666,0.144-0.804C186.662,186.576,186.681,186.54,186.701,186.5z
		 M189.601,143.8c0.2-0.8,0.4-1.6,0.7-2.4c1.9-6.3,4.8-12.2,8.6-17.5c1.8-2.5,4.6-5.9,8.4-6.5c2.9-0.4,6.2,1,8.6,3.7
		c2.3,2.5,3.7,5.7,5.1,8.9l0.1,0.1c0.9,1.9,1.7,3.9,2.6,5.8c3.8,8.5,7.7,17.2,10.9,26.1c0.9,2.6,1.9,5.4,2.1,8.3
		c0.1,1.6,0,2.8-0.4,3.7s-1.1,1.6-2.1,2.3l0,0l0,0c-0.2,0.2-0.5,0.3-0.7,0.5c0,0,0,0-0.1,0c-0.3,0.2-0.5,0.3-0.8,0.4
		c-4,2-8.8,2.6-13.2,1.8c-2.4-0.5-4.1-1.3-5-2.6c-0.9-1.2-1.2-2.7-1.4-4.3c-0.5-3.7-0.5-7.6-0.5-11.3s0-7.5-0.5-11.2
		c-0.1-0.9-0.3-1.5-0.6-1.9c-1.1-4.4-2.7-9.3-5.9-13.3c-0.3-0.4-1-0.5-1.4-0.2s-0.5,1-0.2,1.4c2.6,3.3,4.1,7.3,5.1,11.1
		c-0.9,0.2-1.5,0.9-1.8,1.3c-3.5,4.2-6.9,8.6-10.2,13c-0.5-0.2-0.9-0.4-1.4-0.6c-0.2-0.1-0.4-0.1-0.6-0.2c-0.3-0.1-0.5-0.2-0.8-0.3
		c-0.2-0.1-0.5-0.2-0.7-0.2c-0.2-0.1-0.4-0.1-0.6-0.2c-0.3-0.1-0.6-0.2-0.9-0.2c-0.5-0.1-1-0.2-1.4-0.3c0.2-0.2,0.4-0.4,0.5-0.6
		c0.6-0.8,0.8-1.9,0.6-2.8c-0.2-0.8-0.6-1.4-1.3-1.8c-0.6-0.4-1.3-0.4-1.8-0.4l-2.7-0.2C187.701,150.4,188.601,147.1,189.601,143.8z
		 M144.301,159.5c0.1-0.4,0.5-1.5,0.2-2.4c1.9-1.3,4.4-2,7-2.6c0.6-0.1,1.2-0.3,1.8-0.4c4.4-1.2,8.4-3.1,12.1-5.7
		c1.1-0.8,2.1-1.6,3.1-2.5c2-1.7,4-3.2,6.2-4.3c0.7-0.3,1.5-0.5,2.2-0.5s1.2,0.2,1.4,0.6c0.5,1-1.2,2.4-1.9,2.9l-5.7,4.3
		c-0.4,0.3-0.5,0.8-0.3,1.3c0.2,0.4,0.8,0.6,1.2,0.5c3.2-1.2,6.6-1.9,10-2.1c0.3,0,0.5,0,0.8,0c1.2,0,2,0.2,2.5,0.7
		c0.3,0.3,0.4,0.7,0.4,1c-0.5,1.1-1.1,2.1-1.9,3c-0.6,0.3-1.4,0.6-2.4,0.7l-2.1,0.2c-0.5,0.1-0.9,0.5-0.9,1.1c0,0.5,0.5,0.9,1.1,0.9
		c0.7-0.1,1.5-0.1,2.2-0.2l4.8-0.5l2.3,0.2c0.3,0,0.7,0.1,1,0.2c0.2,0.1,0.3,0.3,0.3,0.5c0.1,0.4,0,0.9-0.2,1.2s-0.5,0.5-0.8,0.7
		c-0.5,0.3-1.1,0.5-1.8,0.7c-1,0.3-2,0.7-2.9,1.4c-0.4,0.3-0.5,0.9-0.2,1.3c0.3,0.4,0.8,0.6,1.3,0.4c1.1-0.5,2.4-0.8,3.7-0.9
		c2.1,0.2,4.1,0.7,6,1.4c2,1,4,2.6,6,4.8c4.1,4.6,6.4,10.1,6.6,15.3c-1.3-2.4-2.8-4.2-4.5-5.6c-0.7-0.6-1.4-1-2.1-1.3
		c-0.6-0.3-1.3-0.4-2.1-0.5c-4-0.5-8.3,1.7-10.7,5.2c-0.1,0.1-0.1,0.2-0.2,0.4c0,0,0,0-0.1,0c-0.3,0.1-1.2,0.4-1.6,1.3
		c-0.2,0.7,0,1.4,0.4,1.9c0,0.6-0.4,1.2-0.9,1.9c-0.1,0.1-0.2,0.3-0.3,0.4c-1.6,2.5-1.8,5.6-0.4,7.9c0.5,0.8,1.2,1.5,1.9,2.1
		c0.7,0.6,1.4,1.2,2.3,1.7c2.2,1.2,4.7,1.3,6.9,1.4c0.2,0,0.4,0,0.7,0c0.7,0,1.2,0,1.7-0.1c1.8-0.2,3.4-0.9,4.8-2
		c-0.1,0.3-0.2,0.6-0.2,0.9c-1.3,6.5,1.2,12.9,3.7,19.1l0.4,0.9c2.5,6.3,4.5,12.9,2.1,18.8c-1.7,4.2-5.9,7.7-11.2,9.3
		c-3.1,0.9-6.5,1.4-10.9,1.4c-1.3,0-2.8,0-4.6-0.1c-4.7-0.2-9.7-0.6-14.4-2.1c-1.3-0.4-2.8-1-4.3-1.7c-0.1-0.1-0.3-0.1-0.4-0.2
		c-0.2-0.1-0.3-0.2-0.5-0.3c-3.2-1.9-5.7-4.7-7.9-7.4c-1-1.7-1.8-3.4-2.4-5.3c0.6-0.6,1-1.3,1.2-2c0.5-1.8-0.4-3.6-1-5
		c-5.9-12.5-9.6-25.9-10.8-39.7C140.901,173.6,141.701,165.9,144.301,159.5z M145.401,243.3c-0.3-0.2-0.7-0.3-1.1-0.1l0,0
		c-0.8-0.1-1.5-0.1-2.3-0.2c-1.6-0.2-3.3-0.3-4.8-0.7c-0.3-0.1-0.6-0.2-0.9-0.3c-0.3-0.1-0.6-0.2-0.9-0.2c1.1-1.8,1.4-4.2,0.5-6.2
		c-0.1-0.3-0.4-0.5-0.8-0.6c-2.1-0.3-3.6,1.7-3.9,3.7c0,0.1,0,0.2,0,0.3c-0.6-0.6-1.4-1.1-2.2-1.4c-0.7-0.3-1.4-0.5-2-0.7
		c-1.1-0.3-2.1-0.6-2.9-1.2c-1.4-0.9-2.2-2.5-2.8-3.7c-0.2-0.3-0.3-0.7-0.4-1c3.9,0.8,7.9,1.4,11.9,1.8c0.3,0,0.6,0.1,0.8,0.1
		c0.2,0.1,0.3,0.3,0.5,0.4c0.1,0.1,0.2,0.2,0.3,0.3c1.1,1,2.5,1.5,3.6,1.9c2.5,0.7,5.1,1.1,8.4,1.1c2.2,0,4.4-0.2,6.5-0.3
		c2.2,2.9,4.9,6,8.3,8.1c-0.1,0-0.2,0-0.3,0C155.701,244.2,150.501,243.8,145.401,243.3z M121.101,253.1c0.3,1,1.1,1.7,1.7,2.3
		c0.1,0.1,0.3,0.2,0.4,0.4c0.5,0.5,0.7,1,0.6,1.2c0,0-0.1,0.1-0.3,0.2c-1,0.5-2.4,0.4-3.3-0.3c-0.9-0.7-1.3-2-1-3.1
		c0.1-0.4,0-0.8-0.4-1.1c-0.2-0.1-0.4-0.2-0.6-0.2c-0.2,0-0.4,0.1-0.6,0.2c-1,0.8-2.5,0.9-3.7,0.5c-1.2-0.5-2-1.7-2-2.9
		c0-1.2,0.8-2.5,1.9-2.9c0.3-0.1,0.6-0.2,0.9-0.1c0.3,0,0.5,0.1,0.9,0.3c0.7,0.4,1.3,0.9,1.7,1.5c0.2,0.3,0.7,0.5,1.1,0.4
		c0.4-0.1,0.7-0.4,0.8-0.8c0,0,0.1-0.1,0.5-0.4c2-1.3,4.2-2.3,6.6-2.8c0.4-0.1,0.6-0.4,0.7-0.7c0.1-0.4,0-0.7-0.3-1
		c-0.8-0.7-1.7-1.5-2.1-2.5c-0.3-0.7-0.1-1.7,0.5-2.1c0.2-0.1,0.4-0.1,0.8-0.2h0.1c2.2,0,4.3,1.8,4.5,4c0.1,0.5,0.5,0.9,1,0.9
		c0,0,0,0,0.1,0c0.1,0.1,0.1,0.1,0.2,0.2c0.2,0.1,0.3,0.2,0.5,0.2c0.1,0,0.3,0,0.4-0.1c0.1,0,0.1-0.1,0.2-0.1c1.1,0.2,2.1,0.6,3,1.2
		c1,0.7,2.2,1.9,2,3.2c-0.2,1.3-1.8,2.1-3,1.9c-1.3-0.2-2.6-1.2-3.4-2.8c-0.1-0.3-0.4-0.4-0.7-0.5s-0.6,0-0.8,0.2
		c-2.3,1.9-5,4.1-8,4.6c-0.3,0-0.5,0.2-0.7,0.4C121.101,252.6,121.101,252.9,121.101,253.1z M133.101,238.9c0.1-0.7,0.5-1.5,1.1-1.8
		c0.4,1.4-0.1,3-1,4.1c0,0,0,0,0-0.1C133.101,240.4,133.001,239.6,133.101,238.9z M151.801,234.3c-1.8,0.1-3.7,0.2-5.6,0.2
		c-3.1,0-5.6-0.3-7.8-1c-0.5-0.1-1.1-0.3-1.6-0.6c0.7,0,1.4,0,2.1,0l0,0c2.9,0,5.8-0.2,8.5-0.6c1.3-0.2,2.3-0.5,3.2-0.9
		C151.001,232.4,151.401,233.3,151.801,234.3z M117.601,227.8c-1.6-0.4-3.3-1-3.9-2.3c-0.4-0.8-0.4-1.9-0.4-2.8
		c0.1-12.3,0.3-26.3,5.7-38.3c1.2-2.6,2.6-5.2,4.1-7.8c2.5-4.4,4.9-8.4,8-11.7c2.4-2.7,6.4-6,11.6-7.1c0,0,0,0,0.1,0
		c0,0.2,0,0.6-0.2,1c-0.6,1.4-1,2.8-1.4,4.3c-0.2,0.7-0.4,1.4-0.5,2.1c0,0.1,0,0.1,0,0.2c-0.4,2.1-0.7,4.3-0.9,6.7
		c0,0.2,0,0.4,0,0.6c0,0.6,0,1.1-0.1,1.7c0,0.5,0,1,0,1.4c0,0.5,0,1,0,1.5c0,0.6,0,1.3,0.1,2c0,0.4,0,0.8,0.1,1.2
		c0.1,1.1,0.1,2.2,0.2,3.4c1.3,14,5,27.6,11,40.4c0.5,1.2,1.2,2.5,0.9,3.6c-0.4,1.6-2.7,2.3-4.5,2.6c-2.6,0.4-5.4,0.6-8.2,0.6
		C132.501,231,125.501,229.9,117.601,227.8z M102.201,250.1c5.3-2.4,12.9-6.5,16.4-13.6c0.5-1,0.9-2,1.2-3c0.7,1.3,1.6,2.8,3.1,3.8
		c0.2,0.2,0.5,0.3,0.7,0.4c-1.1,1-1.3,2.8-0.8,4.1c0.3,0.8,0.8,1.5,1.3,2c-1.9,0.6-3.7,1.5-5.4,2.6c-0.1,0.1-0.3,0.2-0.4,0.3
		c-0.4-0.4-0.9-0.8-1.5-1.1c-0.6-0.3-1.1-0.5-1.6-0.5c-0.6-0.1-1.3,0-1.9,0.3c-1.9,0.7-3.2,2.8-3.2,4.8c0.1,2,1.4,3.9,3.3,4.7
		c1.2,0.5,2.7,0.6,3.9,0.2c0.2,1.3,0.8,2.5,1.8,3.3c0.9,0.7,2,1.1,3.2,1.1c0.8,0,1.6-0.2,2.3-0.5c0.5-0.2,0.8-0.5,1.1-0.9
		c0.9-1.3,0.2-2.9-0.9-3.9c-0.2-0.1-0.3-0.3-0.5-0.4c-0.1-0.1-0.3-0.2-0.4-0.4c2.5-0.8,4.7-2.5,6.6-4c1.1,1.5,2.7,2.5,4.3,2.8
		c0.2,0,0.4,0,0.7,0c2.3,0,4.3-1.6,4.6-3.6c0.2-1.6-0.6-3.1-1.6-4.2c1.2,0.2,2.4,0.3,3.5,0.4c0.7,0.1,1.4,0.1,2.1,0.2
		c0.7,4.1,2.6,8,5.4,11c-0.2,0-0.4,0-0.7,0c-3.1,0-5.8,0.1-8.3,0.3c-10.8,0.8-19.6,3.6-26.2,8.4c-0.2,0.1-0.4,0.3-0.6,0.5
		c-0.1-0.1-0.1-0.2-0.2-0.2c-4.3-4.6-8.5-9.5-12.5-14.5C101.301,250.5,101.701,250.3,102.201,250.1z M77.301,217.6
		c-0.1-0.2-0.2-0.5-0.3-0.7c-5.4-13.3-2.9-28.2,1-41.7C77.701,189.6,77.501,204.4,77.301,217.6z M80.101,168.4
		c0.2-0.7,0.4-1.3,0.7-2c2.1-6.2,4.1-12.6,5.2-19l0.5,84.8c-2.6-3.4-5.2-7-7.2-10.7C79.501,205.6,79.801,186.7,80.101,168.4z
		 M93.401,128.7c-0.3,0.5-1.4,0.5-2.2,0.5c-0.9,0-1.8-0.1-2.7-0.1c-3.1-0.1-6.3-0.3-9.5-0.2c-0.8,0-1.7,0-2.2-0.3
		c-0.2-0.1-0.4-0.4-0.4-0.6l3-0.4l0,0l13.3-1C93.201,127.3,93.701,128.2,93.401,128.7z M83.801,41.9c0.3-0.6,0.7-1.3,1.2-1.3
		s1,0.8,1.3,1.5c0.5,1.3,0.8,2.8,0.8,4.2c-1-0.2-2.1-0.3-3.1-0.3c-0.3,0-0.6,0-1,0C83.001,44.6,83.201,43.1,83.801,41.9z
		 M75.301,117.5h-0.2c-1.3,0-2.6,0.2-3.9,0.3c-1.4,0.2-2.7,0.3-4.1,0.3c-1.6,0-4.6-0.3-6.3-2.4c-0.8-1-1.3-2.5-1.6-3.8
		c-3.8-14.2-3.8-29.3-3.2-43.5c0.2-3.8,0.4-7.2,2-10c1-1.7,2.5-3.3,4.5-4.8c3.8-2.7,8.6-4.5,14.3-5.2c3-0.4,6.1-0.5,10-0.2
		c0.3,0.1,0.6,0.1,0.9,0.2c0.1,0,0.2,0,0.3,0c0.2,0,0.3-0.1,0.5-0.1c1.2,0.1,2.5,0.2,3.9,0.4c4.6,0.5,9.8,1.3,13.4,4.5
		c4.2,3.7,5.4,9.9,6,15.4c1.6,14.6,1.1,29.3-1.5,43.7c-0.3,1.8-0.7,3.5-1.6,4.9c-1.3,2-3.8,3.2-6.2,2.9c-0.7-0.1-1.4-0.3-2.1-0.5
		c-1-0.3-2-0.6-3.1-0.6h-0.1c-1.4,0-2.8,0.6-3.7,1.6c-0.4,0.4-0.6,0.9-0.7,1.3h-0.2c-0.1,0-0.2,0-0.3,0c-1-0.1-2.1-0.2-3.5-0.2
		c-0.2,0-0.5,0-0.7,0l-7.8-0.4c-0.7,0-0.9-0.2-0.9-0.2c0-0.1,0-0.3,0-0.4c0-0.2,0-0.4-0.1-0.7
		C79.101,118.4,77.501,117.5,75.301,117.5z M77.001,124c0.3-0.6,0.7-0.9,1.2-1c0.3,0,0.6,0.1,1,0.1h0.2c1.4,0.3,2.9,0.4,4.9,0.4
		c0.8,0,1.5,0,2.3,0s1.5,0,2.3,0c1.3,0,2.3,0.1,3.2,0.2c0.5,0.1,0.9,0.2,1.2,0.4c0.1,0.1,0.2,0.3,0.2,0.3s-0.2,0.1-0.7,0.1
		l-14.4,1.1c-0.6,0-1.3,0.1-1.6-0.1C76.701,125,76.801,124.5,77.001,124z M76.801,132.2c0-0.3,0.1-0.8,0.2-0.8c0.3,0,0.6,0,0.8-0.1
		c0.3,0,0.7-0.1,1-0.1c4.1,0.4,8.3,0.6,12.5,0.5c0,0,0,0,0,0.1c0,0.3-0.1,0.5-0.3,0.7c-0.4,0.4-1.2,0.5-1.7,0.5h-0.5
		C80.001,132.7,77.501,132.4,76.801,132.2z M73.401,230.9c-9.9-16.6-10.9-37.9-2.8-55.4c1-2.2,2.2-4.3,3.3-6.4
		c1.2-2.1,2.3-4.3,3.4-6.6c4.2-9.1,5.9-18.9,4.7-27.8c0.7,0,1.5,0.1,2.4,0.1c1.1,10.4-2.3,20.8-5.7,31c-0.3,0.9-0.6,1.9-0.9,2.8
		c-5,15.3-9.2,33.1-2.8,49c2.7,6.8,7.2,12.6,11.5,18.2c7.9,10.3,16.1,21,25.2,30.7c0.6,0.7,1.3,1.4,1.9,2.1
		c4.5,4.7,9.2,9.6,11.9,15.5c-4.3,0-8.3-3.3-11.7-6.6c-10.9-10.5-21.3-21.7-31-33.4C79.901,240.3,76.301,235.8,73.401,230.9z
		 M81.501,245.3c1.7,2,3.4,4,5.1,6v2.3c-2.6,0.7-5.2,1.3-7.9,1.8c0-3.3,0.1-7.8,0.2-13.3C79.801,243.3,80.701,244.3,81.501,245.3z
		 M72.801,287.1c-1.5,0.4-3,0.8-4.4,0.8c-0.9,0-1.6-0.1-2.3-0.5h-0.1c0,0,0,0-0.1,0c-0.4-0.1-0.6-0.8-0.7-1.9c0-0.9,0-1.7,0-2.6
		c0-0.5,0-1.1,0.1-1.6l0,0c0.2-3.1,0.6-6.2,1.3-9.3c0.1-0.5-0.2-1.1-0.7-1.2s-1.1,0.2-1.2,0.7c-0.9,3.6-1.4,7.3-1.5,11l0,0
		c0,1,0,1.9,0,2.9c0.1,2.2,0.8,3.1,1.6,3.6c0.1,0.5,0.1,1-0.1,1.6c-0.3,0.6-0.7,1.1-1.3,1.4c-0.2,0.1-0.4,0.1-0.7,0.1
		c-1.1,0-2.1-0.8-2.4-1.7c-0.1-0.4-0.4-0.7-0.9-0.7c-0.3-0.4-0.5-0.9-0.7-1.4c0-0.1-0.1-0.1-0.1-0.2c-0.2-0.5-0.3-1-0.5-1.5
		c0-0.1,0-0.2-0.1-0.3c-0.1-0.5-0.2-1-0.3-1.6c0-0.1,0-0.1,0-0.2c-0.1-0.5-0.1-1.1-0.1-1.6c0-0.1,0-0.1,0-0.2l0,0c0-0.4,0-0.8,0-1.2
		c0.1-3.5,1.1-6.9,2-9.5c0.2-0.5-0.1-1.1-0.6-1.3c-0.5-0.2-1.1,0.1-1.3,0.6c-0.9,2.7-2,6.3-2.1,10.1c0,0.3,0,0.7,0,1l0,0
		c0,0.3,0,0.6,0,1c0,0.1,0,0.3,0,0.4c0,0.2,0,0.5,0.1,0.7c0,0.2,0,0.3,0.1,0.5c0,0.2,0.1,0.5,0.1,0.7s0.1,0.3,0.1,0.5
		c0.1,0.2,0.1,0.5,0.2,0.7c0,0.2,0.1,0.3,0.1,0.5c0.1,0.2,0.2,0.5,0.2,0.7c0.1,0.2,0.1,0.3,0.2,0.5c0.1,0.3,0.2,0.5,0.3,0.8
		c0.1,0.1,0.1,0.3,0.2,0.4c0.2,0.4,0.4,0.8,0.7,1.2c-0.9,1.4-2.2,2.4-3.6,2.5c-1.7,0.2-3.5-1.1-3.7-2.6c0-0.2-0.1-0.4-0.3-0.6
		c-0.2-0.5-0.4-1.1-0.6-1.6c0-0.1-0.1-0.3-0.1-0.4c-0.1-0.4-0.2-0.9-0.3-1.3c0-0.1,0-0.2-0.1-0.4c-0.1-0.5-0.2-1-0.2-1.4
		c0-0.1,0-0.1,0-0.2c-0.1-0.6-0.1-1.1-0.2-1.7l0,0l0,0c-0.1-1.9-0.1-3.8-0.1-5.6c0-1.6,0-3.4,0.8-4.8c0.2-0.3,0.4-0.6,0.6-0.9
		c0.5-0.6,1-1.3,1.2-2.2c0.1-0.5-0.2-1.1-0.7-1.2s-1.1,0.2-1.2,0.7c-0.1,0.5-0.5,1-0.9,1.5c-0.3,0.3-0.5,0.7-0.7,1.1
		c-1.1,1.8-1.1,4-1.1,5.8c0,1.4,0,3,0,4.5l0,0l0,0c0,0.3,0,0.7,0.1,1c0,0.2,0,0.3,0,0.5c0,0.4,0.1,0.8,0.1,1.3
		c0,0.3,0.1,0.6,0.1,0.9c0,0.2,0.1,0.4,0.1,0.6c0.1,0.4,0.1,0.9,0.2,1.3c0,0.1,0,0.2,0.1,0.3c0.1,0.5,0.2,0.9,0.4,1.4
		c0,0.1,0.1,0.3,0.1,0.4c0.2,0.5,0.3,1,0.5,1.5c-0.3,0.4-0.8,0.7-1.4,0.7h-0.1c-0.7,0-1.5-0.3-2.4-0.9c-0.3-0.2-0.7-0.4-1-0.7
		c-0.1-0.1-0.2-0.2-0.3-0.2c-0.2-0.2-0.4-0.3-0.6-0.5c-0.1-0.1-0.2-0.2-0.3-0.3c-0.2-0.2-0.4-0.4-0.6-0.6c-0.1-0.1-0.2-0.2-0.3-0.3
		c-0.3-0.3-0.5-0.6-0.7-0.9c-0.1-0.1-0.2-0.3-0.3-0.4c-0.1-0.2-0.3-0.4-0.4-0.6s-0.2-0.3-0.3-0.5c-0.1-0.2-0.2-0.3-0.3-0.5
		c-0.1-0.2-0.2-0.4-0.3-0.6c-0.1-0.1-0.1-0.2-0.2-0.4c-0.4-0.8-0.7-1.7-1-2.6c0-0.1,0-0.1,0-0.2c-0.1-0.3-0.2-0.6-0.2-1v-0.1
		c-0.1-0.4-0.1-0.7-0.2-1.1c0-0.3-0.1-0.6-0.1-0.9c0-0.1,0-0.1,0-0.2c0-0.3-0.1-0.7-0.1-1l0,0c-0.1-2,0.2-3.9,0.8-5.8
		c0.6-1.8,1.7-4.2,3.8-5.6c2-1.3,4.5-1.4,7.1-1.4h1.8c1.1,0,2.4,0,3.6-0.2c3.2-0.4,6.1-1.6,8.9-2.9c0.8-0.3,1.6-0.7,2.4-1
		c3.3-1.3,6.8-2.3,10.4-3c0.2-0.1,0.4-0.1,0.6-0.1c0.1,0,0.3-0.1,0.4-0.1c0.8-0.2,1.7-0.3,2.5-0.2l0,0l-0.1-0.1
		c3.4-0.7,6.7-1.5,9.9-2.5c3.8,4.3,7.6,8.5,11.6,12.6c-1.4,0.4-2.8,0.7-4,0.5c-1.1-0.2-2-0.8-3-1.5c-0.5-0.3-1-0.7-1.5-1
		c-1.7-1-3.8-1.5-5.9-1.5c-0.1,0-0.1,0-0.2,0c-0.8,0.2-1.6,0.3-2.4,0.3c-0.1,0-0.2,0-0.3,0s-0.2,0-0.3,0c0,0,0,0,0.1,0.1
		c-2.1,0.5-4.2,1.5-5.8,2.9c-2.5,2.1-4.2,5.2-5,8.5c-0.2,0.9-0.3,1.8-0.4,2.8c0,0,0,0,0,0.1c0,0.4,0,0.8,0,1.2c0,0.1,0,0.2,0,0.3
		c0,0.4,0,0.9,0.1,1.3c0.2,1.8,0.6,3.6,1.3,5.4C73.501,286.9,73.201,287,72.801,287.1z M113.801,287.7l-0.4,0.1
		c-1,0.1-1.9,0.2-2.9,0.6c-0.7,0.3-1.4,0.7-2,1.1c-0.5,0.3-1,0.7-1.5,0.9c-0.3,0.1-0.7,0.2-1.1,0.2c-0.3,0-0.9-0.1-1.2-0.5l0,0
		c0-1.8,0-3.7-0.1-5.5c0-0.6-0.5-1-1.1-0.9c-0.6,0-1,0.5-0.9,1.1c0.1,1.3,0.1,2.6,0.1,3.9c0,0.8,0,1.7,0,2.5c0,0.1,0,0.1,0,0.2
		c-0.3,1.6-1,2.8-2,3.5c-0.4,0.3-1,0.4-1.6,0.4c-0.7,0-1.6-0.3-2-1c-0.1-0.2-0.3-0.4-0.5-0.5c-0.3-0.6-0.6-1.2-0.8-1.7
		s-0.4-1-0.6-1.5c0,0,0-0.1-0.1-0.1c-0.4-1.1-0.6-2.1-0.7-3.1l0,0l0,0c0-0.1,0-0.2,0-0.2c-0.3-2.9,0.2-5.8,0.7-8
		c0.1-0.5-0.2-1.1-0.8-1.2c-0.5-0.1-1.1,0.2-1.2,0.8c-0.3,1.4-0.6,3-0.8,4.8l0,0c0,0.3,0,0.6-0.1,0.9c0,0.1,0,0.2,0,0.2
		c0,0.2,0,0.5,0,0.7s0,0.3,0,0.5s0,0.4,0,0.5c0,0.4,0,0.7,0.1,1.1c0.3,2.5,1.2,5,2.7,7.9c-0.2,0.1-0.4,0.2-0.9,0.2
		c-1.7,0-3.3-0.8-4.4-2c-0.2-0.3-0.6-0.4-0.9-0.3c-0.2-0.2-0.4-0.5-0.6-0.7c-1.3-1.6-2.5-3.4-3.1-5.4c0-0.1-0.1-0.3-0.1-0.4
		c-0.2-1-0.2-2-0.2-2.9c0-1.1,0.1-2.3,0.5-3.3s1-1.9,1.8-2.2c0.5-0.2,0.7-0.8,0.4-1.3c-0.2-0.5-0.8-0.7-1.3-0.4
		c-1.3,0.6-2.2,1.8-2.8,3.4c-0.5,1.3-0.6,2.8-0.6,4c0,0.2,0,0.3,0,0.5s0,0.4,0,0.5s0,0.2,0,0.3c0,0.1,0,0.3,0,0.4c0,0.2,0,0.3,0,0.5
		c0,0.1,0,0.2,0,0.3c0,0.3,0.1,0.5,0.1,0.8c0.6,3.2,2.8,5.8,4.6,7.9c-0.5,0.9-1.7,1.4-2.8,1.3c-1.3-0.1-2.7-0.9-4.3-2.4
		c-0.4-0.4-0.8-0.8-1.1-1.2c-0.1-0.1-0.2-0.3-0.3-0.4c-0.2-0.3-0.5-0.6-0.7-0.9c-0.1-0.1-0.2-0.3-0.3-0.4c-0.3-0.4-0.5-0.7-0.7-1.1
		c-0.2-0.3-0.3-0.5-0.5-0.8c-0.1-0.1-0.1-0.2-0.2-0.4c-0.6-1-1-2-1.4-3.1l0,0l0,0l0,0l0,0c-0.5-1.3-0.8-2.7-0.9-4
		c-0.5-4.8,1.3-9.6,4.6-12.5c2.1-1.8,4.9-2.8,7.7-2.8c1.8,0,3.5,0.4,4.9,1.2c0.5,0.3,0.9,0.6,1.4,0.9c1.1,0.7,2.3,1.5,3.7,1.8
		c0.4,0.1,0.8,0.1,1.3,0.1c1.3,0,2.6-0.4,3.9-0.7c0.3-0.1,0.5-0.1,0.8-0.2l0,0c0.6,0.6,1.1,1.1,1.7,1.7c2.9,3.7,6.2,7,10,9.8
		c0.2,0.2,0.5,0.4,0.7,0.6s0.4,0.4,0.7,0.5c0.1,0.1,0.1,0.1,0.2,0.2c0.2,0.2,0.4,0.3,0.6,0.4c0.1,0.1,0.2,0.2,0.3,0.2
		c0.2,0.1,0.3,0.3,0.5,0.4c0.1,0.1,0.3,0.2,0.4,0.3c0.2,0.1,0.3,0.2,0.5,0.3c0.1,0.1,0.3,0.2,0.4,0.3c0.2,0.1,0.3,0.2,0.5,0.3
		c0.2,0.1,0.3,0.2,0.5,0.3c0.1,0.1,0.3,0.2,0.4,0.2c0.2,0.1,0.4,0.2,0.6,0.3c0.1,0.1,0.2,0.1,0.3,0.2c0.3,0.1,0.6,0.3,1,0.4
		C119.401,286.5,116.601,287.3,113.801,287.7z M169.701,288.6c-0.4,0.4-0.8,0.7-1.2,0.8c-0.3,0.1-0.7,0.1-1,0.2l-30.8,3.2
		c-0.6,0.1-1.3,0.1-2.1,0.1c-1.8,0-3-0.4-3.7-1.2c-0.2-0.2-0.3-0.4-0.4-0.6c0-0.1-0.1-0.2-0.1-0.3c-0.1-0.1-0.1-0.3-0.2-0.4
		c0-0.1-0.1-0.2-0.1-0.4c0-0.1-0.1-0.2-0.1-0.4c0-0.2-0.1-0.3-0.1-0.5l0,0c0-0.2-0.1-0.4-0.1-0.6l-0.1-0.4
		c-1.6-7.2-5.8-13.7-11.7-18.2c-0.9-1-1.9-2-2.8-3c-0.1-0.1-0.2-0.2-0.4-0.4c0.1-0.1,0.3-0.3,0.4-0.3c6.3-4.6,14.8-7.3,25.2-8
		c2.4-0.2,5.1-0.3,8.1-0.3c3.1,0,6.3,0.1,9.3,0.2c3.1,0.1,6.3,0.2,9.4,0.2h1.3c1.5,0,3.1,0,4.5,0.5c0.6,0.2,1.1,0.4,1.7,0.8
		c0,0,0.1,0,0.1,0.1c0.2,0.1,0.5,0.3,0.7,0.5c0.1,0.1,0.1,0.1,0.2,0.2c0.2,0.2,0.4,0.3,0.6,0.5c0.1,0.1,0.2,0.2,0.3,0.3
		c0.2,0.2,0.3,0.4,0.5,0.5c0.1,0.1,0.2,0.2,0.3,0.4c0.1,0.2,0.3,0.4,0.4,0.5c0.1,0.2,0.2,0.3,0.3,0.5c0.1,0.2,0.2,0.3,0.3,0.5
		c0.1,0.2,0.2,0.4,0.3,0.7c0.1,0.1,0.1,0.3,0.2,0.4c0.2,0.4,0.3,0.8,0.4,1.2c1,3.7,0.2,7.5-0.7,10
		C177.201,280.4,174.201,284.7,169.701,288.6z M220.501,263.9c-2.1,0.3-4.3,0.6-6.4,1c-0.3,0-0.5,0.2-0.7,0.4s-0.2,0.5-0.2,0.7
		c0.9,5.5-2.6,10.7-6.5,13.4c-3.8,2.6-8.7,4.1-15.4,4.7c-2.1,0.2-4.3,0.3-6.8,0.3c-2.7,0-5.3-0.1-8-0.3c0.4-0.5,0.8-1.1,1.1-1.6
		c0.2-0.3,0.3-0.5,0.5-0.8s0.3-0.5,0.5-0.8s0.4-0.7,0.6-1c0.1-0.2,0.2-0.3,0.2-0.5c0.2-0.4,0.4-0.8,0.6-1.2c0.2-0.5,0.4-1,0.6-1.5
		c1-2.8,2-7,0.8-11.2c-0.5-1.9-1.5-3.6-2.7-5c2.6-0.6,5.3-1.1,7.9-1.6c4.6-0.8,9.4-1.6,13.9-3.4c0.5-0.2,0.8-0.8,0.6-1.3
		c-0.2-0.5-0.8-0.8-1.3-0.6c-4.3,1.7-9,2.5-13.5,3.3c-3.1,0.5-6.2,1.1-9.3,1.9c-1-0.7-2.1-1.3-3.2-1.7c-1.7-0.5-3.5-0.6-5.1-0.6
		h-1.3c-3.1,0-6.3-0.1-9.3-0.2c-1.9-0.1-3.9-0.1-5.9-0.1c0-0.1-0.1-0.1-0.1-0.2c-3-2.7-5.1-6.4-5.9-10.3c0.1-0.1,0.1-0.2,0.1-0.3
		c4.8,0.4,9.7,0.8,14.6,1c0.2,0,0.5,0,0.7,0c0.8,0,1.7-0.1,2.6-0.5c1.1,0.5,2.2,0.9,3.4,1.3c4.9,1.5,10.1,2,14.9,2.2
		c1.8,0.1,3.3,0.1,4.7,0.1c4.6,0,8.2-0.5,11.5-1.5c5.9-1.8,10.5-5.6,12.5-10.4c2.7-6.5,0.5-13.9-2.1-20.3l-0.4-0.9
		c-2.3-5.8-4.7-11.9-3.6-17.8c6.7,3.2,14.5,4.9,23.1,4.9c7.1,0,15-1.1,23.4-3.3c-0.7,0.7-1.3,1.4-1.8,2.2l0,0
		c-0.4,0.6-0.8,1.2-1.1,1.8c-0.1,0.2-0.2,0.4-0.3,0.6c-0.1,0.2-0.2,0.5-0.3,0.7c-0.2,0.5-0.5,1.1-0.7,1.6c-1.5,4.1-1.8,8.5-1.8,11.9
		c-0.1,3.5,0.1,6.1,0.5,8.5c1.8,9.5,8.3,17.3,13.8,23c2,2.1,3.7,3.7,5.3,5.1c1.1,0.9,2.1,1.8,3.3,2.6c-0.6-0.3-1.2-0.6-1.9-0.9
		c-1.8-0.9-3.6-1.8-5.5-2.6c-3-1.3-6.1-2.5-9.2-3.5c-2.7-0.9-5.8-1.8-9.2-1.9c-4.9-0.2-9.9,1.2-14,4.1c-2,1.4-3.7,3.2-5.1,5.1
		c-0.6,0.8-1.2,1.7-1.6,2.7c0,0.1-0.1,0.2-0.1,0.2c-0.2,0.4-0.4,0.8-0.6,1.2C220.901,262.9,220.701,263.4,220.501,263.9z
		 M255.301,269.1c-0.1,0-0.1,0-0.2,0c-0.4-0.2-0.8-0.7-1.2-1.3c-1.1-1.8-1.3-4.2-0.6-6.2c0.2-0.5-0.1-1.1-0.6-1.3
		c-0.5-0.2-1.1,0.1-1.3,0.6c-0.8,2.5-0.5,5.5,0.8,7.8c0.7,1.2,1.5,1.9,2.4,2.3c0.5,1.8,0,3.8-1.2,4.9c-0.7,0.6-1.6,0.9-2.6,0.9
		s-1.9-0.4-2.6-1l0,0c-0.2-0.2-0.5-0.4-1-0.8c-0.3-0.2-0.8-0.6-0.9-0.7c-2-3.2-3.2-5.3-3-8.6c0.1-1.2,0.4-2.4,1-3.5
		c0.3-0.5,0.1-1.1-0.4-1.4s-1.1-0.1-1.4,0.4c-0.7,1.3-1.2,2.9-1.2,4.4c-0.2,4.2,1.4,6.8,3.3,9.8c0.2,0.4,0.7,0.7,1.4,1.2
		c0.1,0.1,0.3,0.2,0.4,0.3c-0.1,1.1-1.1,2.2-2.3,2.3c-1.3,0.2-2.8-0.6-3.7-1.8c0-0.1-0.1-0.1-0.2-0.2l0,0c-2.4-1.9-4-3.8-4.4-6.4
		c-0.2-1.3-0.1-2.7,0-4c0.1-1.6,0.3-3.3,1.1-4.5c0.3-0.4,0.2-1.1-0.2-1.4c-0.4-0.3-1.1-0.2-1.4,0.2c-1.2,1.6-1.4,3.6-1.5,5.6
		c-0.1,1.3-0.1,2.8,0.1,4.3c0.4,3.2,2.4,5.4,4.5,7.3c-0.9,1.8-3.4,2.5-5.3,2.4c-4.3-0.3-8.5-3.5-10.7-8.1c-0.6-1.3-0.9-2.4-1-3.4
		c-0.1-1.1,0.1-2.2,0.5-3.7c1.3-4.3,4-8.2,7.7-10.8c3.4-2.4,7.6-3.8,11.8-3.8c0.3,0,0.6,0,0.9,0c3.1,0.1,6.1,1,8.6,1.8
		c3,1,6,2.1,9,3.5c1.8,0.8,3.7,1.7,5.4,2.6c4.8,2.3,9.7,4.7,14.9,5.9c-1.2,0.5-2.6,0.9-3.9,1.2
		C269.501,267.8,262.401,268.8,255.301,269.1z M322.701,258.4c1.7,2.3,1.8,5.7,0.3,7.7c-1.4,1.8-3.7,2.6-6.4,3.5l-21.8,6.7
		c-0.3,0.1-0.5,0.3-0.7,0.6c-0.1,0.3-0.1,0.6,0.1,0.9c1.3,1.8,2.4,4.9,1.1,7.3c-0.6,1.2-2.2,2.1-3.7,2.1c-0.6,0-1.5-0.1-2.1-0.9l0,0
		c-0.1-0.1-0.1-0.1-0.2-0.1l-0.1-0.1h-0.1c-0.1,0-0.2-0.1-0.3-0.1l0,0c-2.2-0.1-3.4-0.8-4.4-2.5c-0.1-0.2-0.2-0.4-0.3-0.6
		c-0.1-0.2-0.2-0.4-0.2-0.6l0,0c-0.5-1.6-0.4-3.4,0.4-4.8c0.3-0.5,0.1-1.1-0.4-1.3c-0.5-0.3-1.1-0.1-1.3,0.4
		c-1.1,2.1-1.2,4.7-0.3,6.9c0.1,0.4,0.3,0.7,0.5,1.1c1.2,2.1,2.9,3.2,5.5,3.5c0.1,0.3,0.1,0.6,0,0.9c-0.2,0.8-1,1.6-1.8,1.8
		c-1.1,0.4-2.6,0.2-4.2,0c-0.4-0.1-0.8-0.1-1.2-0.2c-0.8-0.1-1.6-0.1-2.4-0.2c-1.7-1.7-2.7-3.4-3.3-5.2c-0.1-0.2-0.1-0.5-0.2-0.7
		l0,0c-0.4-1.9-0.2-3.9,0.8-5.3c0.3-0.5,0.2-1.1-0.3-1.4s-1.1-0.2-1.4,0.3c-1.4,2.1-1.7,5-0.9,7.7c0,0.1,0.1,0.3,0.2,0.4
		c0.1,0.3,0.3,0.7,0.4,1l0,0c0.2,0.3,0.3,0.7,0.5,1c0,0.1,0.1,0.1,0.1,0.2c0.2,0.3,0.3,0.5,0.5,0.8s0.5,0.7,0.8,1l0,0
		c-4.3,0-8.4-0.1-10.9-2.9c-0.2-0.2-0.4-0.4-0.5-0.7l0,0c-0.1-0.2-0.3-0.4-0.4-0.7l0,0l0,0c-0.7-1.4-0.8-2.8-0.7-3.8
		c0.2-3.1,2-6.4,4.6-8.6s5.6-3.6,8.9-5.1c0.6-0.3,1.2-0.6,1.8-0.8c1.8-0.5,3.6-1.2,5.1-2.4c1.7,0.3,3.4,0.5,5.1,0.5
		c3.1,0,6.1-0.6,8.8-1.8c0.5-0.2,0.7-0.8,0.5-1.3s-0.8-0.7-1.3-0.5c-9.6,4.3-20.1-0.9-24.1-3.4c-2.3-1.4-4.5-3-6.5-4.7
		c-1.6-1.3-3.2-2.9-5.2-4.9c-5.3-5.5-11.6-13-13.3-22c-0.4-2.3-0.6-4.8-0.5-8.1c0.1-3.2,0.3-7.4,1.7-11.2c1.4-3.8,3.8-6.8,6.7-8.5
		c0.2-0.1,0.3-0.3,0.4-0.5c2.8-0.8,5.7-1.5,8.5-1.5c0.7,0,1.4,0,2.1,0.1c1.4,0.2,2.8,0.6,4.3,1c0.3,0.1,0.6,0.2,1,0.3
		c0.1,0,0.1,0.1,0.2,0.1c2.5,1.3,4.7,3.1,6.4,5.3c0.2,0.3,0.5,0.4,0.8,0.4c0.2,0,0.4-0.1,0.6-0.2c0.4-0.3,0.5-1,0.2-1.4
		c-0.9-1.2-1.9-2.2-3-3.2c1.3,0.2,2.6,0.3,3.9,0.4c0.2,0,0.4,0,0.5,0.1l0,0c0.8,0.1,1.6,0.2,2.4,0.2c0.9,0.1,1.8,0.2,2.6,0.4
		c10.6,1.9,20.3,9.4,25.5,19.5c4.8,9.5,5.7,21.2,2.6,32.2c-0.1,0.1-0.1,0.1-0.2,0.2c-1.5,2.5-4.2,4.3-7.2,4.6
		c-0.1,0-0.2,0.1-0.3,0.1c-0.1,0-0.1,0.1-0.2,0.1c-0.3,0.2-0.4,0.5-0.4,0.9v0.1l0,0c0,0.1,0.1,0.2,0.1,0.3l0,0
		c0.1,0.1,0.2,0.2,0.3,0.3c0.2,0.1,0.3,0.2,0.6,0.2h0.1c3-0.4,5.9-2,7.7-4.4l0,0c0.2-0.2,0.4-0.4,0.5-0.7
		C318.701,254.9,321.301,256.4,322.701,258.4z M333.401,210.1c-1.7,9.4-7.3,17.3-14.7,21c-0.2-0.7-0.4-1.4-0.6-2.1
		c-0.1-0.2-0.1-0.4-0.2-0.5c-0.2-0.7-0.4-1.4-0.7-2.1l0,0l0,0c-2.4-6.8-6.4-12.9-11.7-17.8c6.2-7.5,9.4-17.8,8.8-28.4
		c-0.2-3.5-0.8-6.4-1.8-9c-1.8-4.3-4.9-7.9-8-11c-3.7-3.8-7.7-7.3-11.9-10.6c-1.6-1.2-3.3-2.6-4-4.3c1.1-0.4,2.4-0.5,3.8-0.2l0,0
		l0,0c1.1,0.2,2.3,0.6,3.6,1.2c0,0,0,0,0.1,0c0.4,0.2,0.9,0.4,1.4,0.7c12.2,6.6,22.7,16.7,29.5,28.6c1.4,2.4,2.4,5,3.1,7
		C333.701,192.9,334.801,202,333.401,210.1z"/>
	<path fill="#1D1D1C" d="M158.66,204.361c2,0.8,5.372,0.039,7.172-1.161s3-3.4,2.9-5.5c-0.1-2.2-1.5-4.4-3.5-5.3
		c-0.4-0.2-0.705-0.413-1.105-0.513l-0.576,0.127c-3.4,0.9-5.9,2.1-7.7,3.7c-0.6,0.5-1.591,1.546-2.091,2.146c0,0.7,0.1,1.3,0.3,1.9
		C154.96,201.861,156.66,203.561,158.66,204.361z M156.851,196.314c0.3-0.5,0.8-0.8,1.4-0.8c0.3,0,0.6,0,0.9,0.1
		c0.7,0.2,1.5,0.7,1.7,1.4c0.1,0.3,0,0.6,0,0.9c-0.1,0.5-0.2,0.9-0.5,1.3c-0.4,0.5-1.2,0.6-1.8,0.6c-0.7,0-1.5-0.3-1.9-0.9
		c-0.2-0.3-0.2-0.7-0.2-1C156.351,197.314,156.551,196.814,156.851,196.314z"/>
	<path fill="#020203" d="M158.601,204.9c0.9,0.3,1.9,0.5,2.8,0.5c1.6,0,3.1-0.4,4.4-1.3c2.1-1.4,3.5-3.9,3.4-6.4s-1.7-5-3.9-6.1
		c-0.6,0.1-1.2,0.3-1.8,0.4l0,0h0.1c0.4,0,0.7,0.2,1.2,0.4c2,1,3.4,3.1,3.5,5.3c0.1,2.1-1.1,4.3-2.9,5.5c-1.8,1.2-4.3,1.4-6.3,0.7
		c-2-0.8-3.7-2.5-4.5-4.6c-0.2-0.5-0.45-1.344-0.35-2.044c-0.3,0.4-0.614,0.792-0.914,1.192c0.1,0.3,0.264,0.851,0.364,1.151
		C154.401,202.2,156.301,204.1,158.601,204.9z"/>
	<path fill="#4C331B" d="M156.401,179.8c-3,0.7-5.8,2.7-7.4,5.5c-1.5,2.6-2.1,5.9-1.4,9.1c0.2,0.7,0.4,1.5,0.6,2.2
		c0.2,0.6,0.3,1.1,0.4,1.6c0.1,0.8,0.1,1.5,0,2.2c-0.1,0.2-0.2,0.4-0.2,0.6c-0.2,0.5,0,1,0.5,1.2c0,0,0,0,0.1,0
		c0.2,0.2,0.4,0.3,0.5,0.3s0.2,0,0.3,0c0.3,0,0.5-0.1,0.7-0.3c0.2-0.1,0.3-0.1,0.5-0.2c0.1,0,0.1,0.1,0.2,0.2
		c3.4,3.3,7.2,5.3,10.9,5.7c0.6,0.1,1.2,0.1,1.8,0.1c0.4,0,0.9,0,1.3-0.1c1.3-0.1,2.5-0.4,3.4-0.9c1-0.6,1.9-1.4,2.5-2
		c1.7-1.8,2.9-3.7,3.4-5.6c0.6-1.9,0.7-4.1,0.4-6.8c-0.2-1.7-0.6-3.2-1-4.6v-0.1c-0.1-0.1-0.1-0.3-0.2-0.4c0-0.1-0.1-0.3-0.1-0.4
		c-0.2-0.4-0.3-0.7-0.5-1c0-0.1-0.1-0.3-0.1-0.4c-0.7-1.9-2.4-3.6-4.6-4.6c-2-0.9-4.1-1.2-6.1-1.4c-0.8-0.1-1.8-0.2-2.8-0.2
		C158.201,179.5,157.301,179.6,156.401,179.8z M172.901,199c-0.5,1.7-1.6,3.3-3.1,5c-0.5,0.6-1.2,1.3-2.1,1.7
		c-0.8,0.4-1.7,0.6-2.8,0.7c-0.9,0.1-1.8,0.1-2.7,0c-4.3-0.5-7.8-3.2-10-5.3c-0.1-0.1-0.2-0.2-0.3-0.2c0.1-0.1,0.1-0.2,0.2-0.3
		c0.4-0.6,0.7-1.2,1.1-1.8c0.3-0.4,0.6-0.8,0.9-1.2c0.5-0.6,1-1.2,1.6-1.7c1.8-1.7,4.3-2.8,7.7-3.7l0,0c0.6-0.2,1.2-0.3,1.8-0.4
		c0.7-0.2,1.4-0.3,2.1-0.4c1.7-0.3,3.4-0.7,5-1.2c0.1,0,0.2-0.1,0.3-0.1c0.2,0.9,0.4,1.8,0.5,2.9
		C173.601,195.4,173.501,197.3,172.901,199z M167.301,182.9c1.7,0.8,3,2.1,3.6,3.5c0,0.1,0.1,0.4,0.1,0.5c-0.1,0.4-0.9,0.7-2.2,0.7
		c-6,0-10.6,1.6-13.7,4.5c-1,1-1.8,2.1-2.6,3.1c-0.6,0.8-1.2,1.6-1.9,2.4c-0.1-0.6-0.3-1.2-0.5-1.8c-0.2-0.7-0.4-1.4-0.5-2
		c-0.5-2.6-0.1-5.4,1.2-7.7s3.6-4,6.1-4.5c0.7-0.2,1.5-0.2,2.4-0.2s1.9,0.1,2.6,0.2C163.701,181.9,165.601,182.1,167.301,182.9z"/>
</g>
</svg>
