<?xml version="1.0" encoding="utf-8"?>
<!-- Generator: Adobe Illustrator 23.0.6, SVG Export Plug-In . SVG Version: 6.00 Build 0)  -->
<svg version="1.1" id="Vrstva_1" xmlns="http://www.w3.org/2000/svg" xmlns:xlink="http://www.w3.org/1999/xlink" x="0px" y="0px"
	 viewBox="0 0 473.6 388.6" style="enable-background:new 0 0 473.6 388.6;" xml:space="preserve">
<style type="text/css">
	.st0{fill:none;}
	.st1{fill:#62B594;}
	.st2{fill:#BAB5AF;}
	.st3{fill:#BA9060;}
	.st4{fill:#7B5632;}
	.st5{fill:#4C331B;}
	.st6{fill:#C29391;}
	.st7{fill:#FFE78D;}
	.st8{fill:#1C1C1B;}
	.st9{fill:#FFFFFF;}
	.st10{fill:#4A321A;}
	.st11{fill:#F0F5F7;}
	.st12{fill:#EC6E06;}
	.st13{fill:#D8EEF9;}
	.st14{fill:#5C3F22;}
	.st15{fill:#A87876;}
	.st16{fill:#A37B4F;}
</style>
<path class="st0" d="M198.3,194.9c0.1-0.7,0-40.9,0-40.9s-0.1-1.2,0.5-1.3c0.2,0,1.7,0,4,0c10.2,0,36.4,0.2,36.4,0.2s0.1,0,0.3,0
	c0.4,0,1-0.1,1-0.8c0-1,0-56,0-56s0-1.1-1.1-1.2c-1.3-0.1-40.3-0.7-40.3-0.7s-0.1,0-0.1,0c-0.3,0-1.2-0.1-1.2-0.8
	c0-0.9,0.5-40.1,0.5-40.1s0.1-1-0.9-1.1c-0.3,0-6.8-0.1-15.2-0.1c-16.9,0-41.9,0.1-41.9,0.1s0,0-0.1,0c-0.2,0-0.8,0.1-1.1,0.7
	c-0.3,0.8,0,40.3,0,40.3s0.3,1.9-0.7,1.9c0,0-0.1,0-0.1,0c-0.7-0.1-17.4-0.5-29.4-0.5c-5.4,0-9.9,0.1-11.5,0.3
	c-0.4,0.1-0.5,0.2-0.5,0.3c-0.2,0.9-0.1,56.6-0.1,56.6s-0.1,0.9,1.1,1c1.3,0.1,39,0.4,39.8,0.4s1.3,0,1.3,0.7c0,0.6,0,40.4,0,40.7
	c0,0.3,0.1,0.6,1.2,0.7c0.4,0,10.3,0.1,21.8,0.2c0.2-0.7,0.5-1.4,0.7-2c0.1-7.1,0.2-13.8,0.3-19.9c-2.7-0.2-3-0.5-3.2-0.7
	c-0.6-0.6-0.8-1.7-0.4-2.7c0.1-0.4,0.3-0.6,0.6-0.9c-0.6-0.5-1-1.2-1.1-1.9c-0.1-0.6,0.1-1.1,0.3-1.5c-0.1-0.1-0.1-0.3-0.1-0.4
	c0-1.3,0.1-2.2,0.5-3.1c0.5-1,1.3-1.7,2.3-2c0-0.2,0-0.3,0-0.4c0-0.1,0-0.2,0-0.3c-0.1-0.6-1.2-0.9-2.1-0.9l-0.1,0
	c-1.2,0-2.4,0.2-3.7,0.3c-1.4,0.2-2.8,0.3-4.3,0.4c-2,0-5.7-0.4-7.9-3.2c-1.1-1.4-1.6-3-2-4.6c-3.9-14.5-3.9-29.8-3.2-44.1
	c0.2-4.1,0.5-7.7,2.3-10.9c1.1-2,2.8-3.8,5.1-5.4c4.1-2.9,9.2-4.8,15.2-5.5c1.4-0.2,2.9-0.3,4.4-0.3c-0.1-1.7,0.2-3.5,0.9-5.1
	c0.7-1.6,1.8-2.5,3.1-2.5c1.3,0,2.5,1,3.2,2.8c0.6,1.6,0.9,3.3,0.9,5c1.1,0.1,2.3,0.2,3.6,0.3c4.9,0.5,10.5,1.4,14.6,4.9
	c4.7,4.1,6,10.8,6.7,16.7c1.7,14.8,1.1,29.7-1.6,44.3c-0.4,2-0.8,3.9-1.9,5.6c-1.7,2.6-4.9,4.2-8.1,3.7c-0.8-0.1-1.6-0.3-2.4-0.6
	c-0.9-0.3-1.8-0.5-2.6-0.5c0,0,0,0,0,0c-0.9,0-1.7,0.4-2.2,0.9c-0.2,0.3-0.3,0.5-0.3,0.8c0,0.1,0,0.1,0,0.2c0.7,0.7,0.9,1.9,0.2,2.8
	c-0.1,0.1-0.2,0.2-0.3,0.3c0.9,1.5,1,2.8,0.3,3.8c-0.5,0.7-1.1,1-1.8,1.2c0.1,0.2,0.1,0.5,0.1,0.7c0,0.8-0.3,1.6-0.9,2.2
	c-0.7,0.7-1.8,1.1-3.1,1.1l-0.6,0c-0.3,0-0.6,0-0.9,0c0,0.1,0,0.1,0,0.2l0.1,21.3c12.9,0.1,24.8,0.2,24.8,0.2
	S198.2,195.6,198.3,194.9z"/>
<path class="st0" d="M161.4,255.8c0.1,0.2,0.2,0.5,0.3,0.7c0.2-13.2,0.4-28,0.7-42.4C158.4,227.6,156,242.5,161.4,255.8z"/>
<path class="st1" d="M159.9,200.6c0.8-1.7,1.5-3.5,2.1-5.2c-11.4-0.1-21.3-0.2-21.8-0.2c-1-0.1-1.1-0.4-1.2-0.7c0-0.3,0-40,0-40.7
	c0-0.6-0.5-0.6-1.3-0.7s-38.5-0.3-39.8-0.4c-1.2-0.1-1.1-1-1.1-1S96.8,96,97,95.1c0-0.1,0.1-0.2,0.5-0.3c1.6-0.2,6-0.3,11.5-0.3
	c12,0,28.6,0.4,29.4,0.5c0,0,0.1,0,0.1,0c1,0,0.7-1.9,0.7-1.9s-0.4-39.5,0-40.3c0.2-0.6,0.8-0.7,1.1-0.7c0.1,0,0.1,0,0.1,0
	s25-0.1,41.9-0.1c8.5,0,14.9,0,15.2,0.1c0.9,0.1,0.9,1.1,0.9,1.1s-0.5,39.1-0.5,40.1c0,0.7,0.9,0.8,1.2,0.8c0.1,0,0.1,0,0.1,0
	s39,0.6,40.3,0.7c1.1,0.1,1.1,1.2,1.1,1.2s0,54.9,0,56c0,0.7-0.6,0.8-1,0.8c-0.2,0-0.3,0-0.3,0s-26.1-0.2-36.4-0.2c-2.4,0-3.9,0-4,0
	c-0.6,0.1-0.5,1.3-0.5,1.3s0.1,40.2,0,40.9c-0.1,0.7-1.1,0.7-1.1,0.7s-11.9-0.1-24.8-0.2l0.1,13c6.7,0.1,14.8,0.1,24.6,0.2
	c0,0,0.1,0,0.1,0c0.2,0,0.5,0,0.7,0c7.1-0.4,12.7-5.7,13.4-12.6c0.1-0.7,0.1-1.1,0.1-30.3c10.6,0,24.6,0.1,27.4,0.1
	c0.3,0,0.6,0,0.9,0c3.9,0,7.5-1.5,10.1-4.2c2.6-2.6,4-6.1,3.9-9.8c0-1.8,0-34.3,0-55.8c0-7.5-5.6-13.6-13.1-14.2
	c-0.5,0-1.5-0.1-29.5-0.6c0.1-8.2,0.2-19.2,0.4-27.7c0.2-7.2-5.1-13.5-12.2-14.3c-1-0.1-1.2-0.2-16.8-0.2c-15.7,0-38.7,0-41.6,0.1
	c-0.1,0-0.3,0-0.4,0c-5.8,0-11,3.5-13.1,8.8c-1.1,2.8-1.3,3.1-1,33.7c-6.5-0.1-13.5-0.2-17-0.2c-9,0-11.7,0.2-13.3,0.4
	c-5.6,0.8-10.1,4.8-11.3,10.2c-0.4,1.9-0.5,2.3-0.5,59.4c-0.1,7.4,5.6,13.5,13.2,14.1c0.9,0.1,3.5,0.1,28.9,0.3c0,0,0,0,0.1,0
	c0,28.9,0,29,0.1,29.8c0.6,5.4,4.7,11.3,12.6,12.2c0.6,0.1,1.1,0.1,17.1,0.3c0.2-0.4,0.5-0.8,0.7-1.3
	C157.7,204.9,158.9,202.8,159.9,200.6z"/>
<path class="st2" d="M171,292.5l0-2.3c-1.7-2-3.4-4-5.1-6c-0.8-1-1.7-2.1-2.6-3.2c-0.1,5.5-0.1,10-0.2,13.3
	C165.8,293.8,168.4,293.2,171,292.5z"/>
<path class="st2" d="M170.4,186.4c-1.1,6.4-3.2,12.7-5.2,19c-0.2,0.7-0.4,1.3-0.7,2c-0.3,18.2-0.6,37.2-0.9,53.1
	c2.1,3.8,4.6,7.3,7.2,10.7L170.4,186.4z"/>
<path class="st3" d="M122,317.7c0-0.3-0.1-0.7-0.1-1C122,317,122,317.3,122,317.7z"/>
<path class="st3" d="M122.1,318.7c0-0.3-0.1-0.6-0.1-0.9C122.1,318.1,122.1,318.4,122.1,318.7z"/>
<path class="st3" d="M150.5,321c1.1,0.7,2.6,0.5,3.5-0.4c0.5-0.5,0.8-1.1,1.1-1.8c0.7-1.4,1.3-2.8,2-4.2c0,0,0,0,0,0
	c0.8-3.3,2.5-6.4,5-8.5c1.6-1.4,3.7-2.4,5.8-2.9c0,0,0,0-0.1-0.1c0.1,0,0.2,0,0.3,0c0.1,0,0.2,0,0.3,0c0.8,0,1.6-0.1,2.4-0.3
	c0.1,0,0.1,0,0.2,0c2.1,0,4.2,0.5,5.9,1.5c0.5,0.3,1,0.6,1.5,1c1,0.7,2,1.3,3,1.5c1.2,0.2,2.6-0.1,4-0.5c-3.9-4.1-7.8-8.3-11.6-12.6
	c-3.3,1-6.6,1.8-9.9,2.5c0,0,0.1,0.1,0.1,0.1c0,0,0,0,0,0c-0.8-0.1-1.7,0-2.5,0.2c-0.1,0-0.3,0.1-0.4,0.1c-0.2,0-0.4,0.1-0.6,0.1
	c-3.5,0.7-7,1.7-10.4,3c-0.8,0.3-1.6,0.7-2.4,1c-2.8,1.2-5.8,2.5-8.9,2.9c-1.2,0.1-2.4,0.2-3.6,0.2l-1.8,0c-2.6,0-5,0.1-7.1,1.4
	c-2.1,1.3-3.3,3.8-3.8,5.6c-0.6,1.9-0.9,3.9-0.8,5.8c0-0.4,0-0.7,0-1.1c0.1,0.2,0.1,0.5,0.2,0.7c0.5,1.5,1.7,2.6,2.9,3.6
	c1,0.9,2.1,1.8,3.5,2c1,0.2,2.1-0.1,2.8-0.8c-0.1-1.5-0.1-3,0-4.5c0-1.8,0-3.9,1.1-5.8c0.2-0.4,0.5-0.7,0.7-1.1
	c0.4-0.5,0.8-1,0.9-1.5c0.1-0.5,0.7-0.8,1.2-0.7c0.5,0.1,0.8,0.7,0.7,1.2c-0.2,0.9-0.8,1.6-1.2,2.2c-0.2,0.3-0.4,0.6-0.6,0.9
	c-0.8,1.4-0.8,3.2-0.8,4.8c0,1.8,0,3.7,0.1,5.6c0.3,0.3,0.5,0.5,0.8,0.7c1,0.7,2.3,1.2,3.5,0.8c1.1-0.3,1.9-1.2,2.4-2.2v0l0,0
	c0-0.4,0-0.7,0-1c0.1-3.8,1.2-7.4,2.1-10.1c0.2-0.5,0.7-0.8,1.3-0.6c0.5,0.2,0.8,0.7,0.6,1.3c-0.9,2.6-1.9,6-2,9.5
	c0,0.4,0,0.8,0,1.2c0.1,0.1,0.1,0.3,0.2,0.4c0.3,0.5,0.6,1,1.1,1.3c0.5,0.2,1.1,0.2,1.6,0.1c1.1-0.3,1.9-1.1,2.6-2v0v0
	c0.1-3.7,0.6-7.4,1.5-11c0.1-0.5,0.7-0.9,1.2-0.7c0.5,0.1,0.9,0.7,0.7,1.2c-0.7,3.1-1.2,6.2-1.3,9.3
	C150,320.5,150.2,320.8,150.5,321z"/>
<path class="st3" d="M142.3,323.5c-0.1-0.5-0.1-1.1-0.1-1.6C142.1,322.4,142.2,323,142.3,323.5z"/>
<path class="st3" d="M374.6,321.5c1-1.4-0.2-3.3-0.4-5c-0.2-2.1,1.3-4,3.1-5.1c1.8-1,4-1.3,6-1.7c4-0.8,7.9-2.1,11.6-3.9
	c2.4-1.1,4.8-2.6,6.1-4.9c1.3-2.3,0.9-5.7-1.4-7.1c0,0-0.1,0-0.1,0.1c-1.9,2.4-4.7,4-7.7,4.4c0,0-0.1,0-0.1,0
	c-0.2,0-0.4-0.1-0.6-0.2c-0.2,0.1-0.5,0.2-0.7,0.2c0.1-0.3,0.2-0.6,0.3-0.8c0,0,0-0.1,0-0.1c0-0.4,0.1-0.7,0.4-0.9
	c3.7-10.8,3.3-23.1-1.3-33.6c-4.6-10.6-13.4-19.2-24-23.8c-0.2,0-0.4,0-0.5-0.1c-1.3-0.1-2.6-0.2-3.9-0.4c1.1,1,2.1,2,3,3.2
	c0.3,0.4,0.3,1.1-0.2,1.4c-0.2,0.1-0.4,0.2-0.6,0.2c-0.3,0-0.6-0.1-0.8-0.4c-1.7-2.2-3.9-4.1-6.4-5.3c-0.1,0-0.1-0.1-0.2-0.1
	c-0.3-0.1-0.7-0.2-1-0.3c-1.5-0.4-2.8-0.8-4.3-1c-0.7-0.1-1.4-0.1-2.1-0.1c-2.8,0-5.7,0.7-8.5,1.5c-0.1,0.2-0.2,0.4-0.4,0.5
	c-2.9,1.7-5.3,4.7-6.7,8.5c-1.4,3.8-1.6,8-1.7,11.2c-0.1,3.3,0.1,5.8,0.5,8.1c1.7,9,8,16.5,13.3,22c2,2.1,3.6,3.6,5.2,4.9
	c2,1.7,4.2,3.3,6.5,4.7c4.1,2.5,14.5,7.7,24.1,3.4c0.5-0.2,1.1,0,1.3,0.5c0.2,0.5,0,1.1-0.5,1.3c-2.7,1.2-5.7,1.8-8.8,1.8
	c-1.6,0-3.3-0.2-5.1-0.5c-1.5,1.2-3.3,1.9-5.1,2.4c-0.6,0.3-1.2,0.6-1.8,0.8c-3.2,1.5-6.3,2.9-8.9,5.1c-2.6,2.1-4.3,5.5-4.6,8.6
	c-0.1,1.1,0,2.5,0.7,3.8c1.2,0.8,2.5,1.4,3.8,1.6c2,0.4,4.3-0.2,5.7-1.5l0,0c0-0.1-0.1-0.3-0.2-0.4c-0.8-2.7-0.5-5.6,0.9-7.7
	c0.3-0.5,0.9-0.6,1.4-0.3c0.5,0.3,0.6,0.9,0.3,1.4c-0.9,1.4-1.2,3.4-0.8,5.3c1,1.4,2.8,2.1,4.4,1.6c1.3-0.3,2.3-1.4,2.7-2.6
	c-0.9-2.2-0.8-4.8,0.3-6.9c0.3-0.5,0.9-0.7,1.3-0.4c0.5,0.3,0.7,0.9,0.4,1.3c-0.8,1.5-0.9,3.2-0.4,4.8
	C370.5,321.7,372.6,321.8,374.6,321.5z"/>
<path class="st3" d="M197.9,304.3c0.2-0.2,0.5-0.4,0.6-0.5c6.6-4.8,15.4-7.6,26.2-8.4c2.5-0.2,5.2-0.3,8.3-0.3c0.2,0,0.4,0,0.7,0
	c-2.8-3-4.7-6.9-5.4-11c-0.7-0.1-1.4-0.1-2.1-0.2c-1.2-0.1-2.3-0.2-3.5-0.4c1.1,1.1,1.9,2.5,1.6,4.2c-0.3,2-2.3,3.6-4.6,3.6
	c-0.2,0-0.4,0-0.7,0c-1.6-0.2-3.2-1.3-4.3-2.8c-1.9,1.5-4.1,3.2-6.6,4c0.1,0.1,0.3,0.2,0.4,0.4c0.2,0.1,0.3,0.3,0.5,0.4
	c1.1,1,1.8,2.6,0.9,3.9c-0.2,0.3-0.6,0.6-1.1,0.9c-0.7,0.3-1.5,0.5-2.3,0.5c-1.2,0-2.3-0.4-3.2-1.1c-1-0.8-1.6-2-1.8-3.3
	c-1.3,0.4-2.7,0.4-3.9-0.2c-1.9-0.8-3.2-2.7-3.3-4.7c-0.1-2.1,1.3-4.1,3.2-4.8c0.6-0.2,1.3-0.3,1.9-0.3c0.5,0.1,1,0.2,1.6,0.5
	c0.5,0.3,1,0.7,1.5,1.1c0.2-0.1,0.3-0.2,0.4-0.3c1.7-1.1,3.5-2,5.4-2.6c-0.5-0.6-1-1.3-1.3-2c-0.5-1.4-0.3-3.1,0.8-4.1
	c-0.2-0.1-0.5-0.3-0.7-0.4c-1.5-1-2.4-2.5-3.1-3.8c-0.3,1-0.7,2-1.2,3c-3.5,7.1-11,11.2-16.4,13.6c-0.5,0.2-0.9,0.4-1.4,0.6
	c4,5,8.2,9.8,12.5,14.5C197.8,304.1,197.9,304.2,197.9,304.3z"/>
<path class="st3" d="M280,316.9c6.2-0.7,12.8-3.9,14.7-9.8c0.9-2.9,1.2-6.9,4.1-7.8c0.9-0.3,1.9-0.1,2.8-0.2c2.2,0,4.2-0.8,6.2-1.9
	l0,0c1.4-2,3.1-3.7,5.1-5.1c4-2.9,9-4.3,14-4.1c-0.4,0-0.8,0-1.2,0c3.7-0.7,7.6-0.6,11.3,0.2c-10-11-15.2-28-8.2-41.2
	c1.2-2.3,3-4.5,5.1-5.8c0.6-0.8,1.2-1.6,1.8-2.2c-8.4,2.2-16.3,3.3-23.4,3.3c-8.6,0-16.4-1.7-23.1-4.9c-1.1,5.9,1.3,12,3.6,17.8
	l0.4,0.9c2.5,6.4,4.8,13.8,2.1,20.3c-2,4.8-6.5,8.6-12.5,10.4c-3.3,1-6.9,1.5-11.5,1.5c-1.4,0-2.8,0-4.7-0.1
	c-4.8-0.2-10-0.7-14.9-2.2c-1.2-0.4-2.3-0.8-3.4-1.3c-0.9,0.4-1.8,0.5-2.6,0.5c-0.2,0-0.5,0-0.7,0c-4.9-0.2-9.8-0.5-14.6-1
	c0,0.1-0.1,0.2-0.1,0.3c0.9,3.9,3,7.6,5.9,10.3c0.1,0.1,0.1,0.1,0.1,0.2c2,0,4,0.1,5.9,0.1c3.1,0.1,6.2,0.2,9.3,0.2l1.3,0
	c1.6,0,3.4,0,5.1,0.6c1.2,0.4,2.2,0.9,3.2,1.7c3.1-0.8,6.2-1.4,9.3-1.9c4.5-0.8,9.2-1.6,13.5-3.3c0.5-0.2,1.1,0,1.3,0.6
	c0.2,0.5,0,1.1-0.6,1.3c-4.5,1.8-9.3,2.6-13.9,3.4c-2.6,0.5-5.3,0.9-7.9,1.6c1.2,1.4,2.2,3.1,2.7,5c1.2,4.3,0.2,8.4-0.8,11.2
	c-0.2,0.5-0.4,1-0.6,1.5l0,0C269.7,316.9,274.8,317.5,280,316.9z"/>
<path class="st3" d="M223.3,271.9L223.3,271.9c-0.7,0-1.4,0-2.1,0c0.5,0.3,1.1,0.5,1.6,0.6c2.3,0.7,4.8,1,7.8,1
	c1.9,0,3.8-0.1,5.6-0.2c-0.4-0.9-0.8-1.9-1.2-2.8c-0.9,0.4-1.9,0.7-3.2,0.9C229.1,271.7,226.3,271.9,223.3,271.9z"/>
<path class="st3" d="M226.2,222.5c1.2,13.8,4.9,27.2,10.8,39.7c0.6,1.3,1.5,3.1,1,5c-0.2,0.8-0.6,1.5-1.2,2c0.7,1.8,1.4,3.6,2.4,5.3
	c2.2,2.7,4.7,5.5,7.9,7.4c0.2,0.1,0.3,0.2,0.5,0.3c0.1,0.1,0.3,0.1,0.4,0.2c1.5,0.8,3,1.3,4.3,1.7c4.7,1.5,9.7,1.9,14.4,2.1
	c1.8,0.1,3.2,0.1,4.6,0.1c4.4,0,7.8-0.4,10.9-1.4c5.3-1.6,9.5-5.1,11.2-9.3c2.4-5.8,0.4-12.5-2.1-18.8L291,256
	c-2.5-6.2-5-12.5-3.7-19.1c0.1-0.3,0.1-0.6,0.2-0.9c-1.4,1.1-3.1,1.8-4.8,2c-0.5,0.1-1,0.1-1.7,0.1c-0.2,0-0.4,0-0.7,0
	c-2.2,0-4.8-0.2-6.9-1.4c-0.9-0.5-1.6-1.1-2.3-1.7c-0.7-0.6-1.4-1.3-1.9-2.1c-1.4-2.2-1.3-5.4,0.4-7.9c0.1-0.1,0.2-0.3,0.3-0.4
	c0.5-0.7,0.9-1.3,0.9-1.9c-0.4-0.5-0.7-1.2-0.4-1.9c0.3-0.9,1.3-1.2,1.6-1.3c0,0,0,0,0.1,0c0-0.1,0.1-0.2,0.2-0.4
	c2.4-3.6,6.7-5.7,10.7-5.2c0.8,0.1,1.5,0.3,2.1,0.5c0.7,0.3,1.3,0.7,2.1,1.3c1.7,1.4,3.2,3.3,4.5,5.6c-0.1-5.2-2.4-10.7-6.6-15.3
	c-2-2.2-3.9-3.8-6-4.8c-1.9-0.8-3.9-1.2-6-1.4c-1.3,0-2.6,0.3-3.7,0.9c-0.5,0.2-1,0.1-1.3-0.4c-0.3-0.4-0.2-1,0.2-1.3
	c0.9-0.7,1.9-1,2.9-1.4c0.6-0.2,1.2-0.4,1.8-0.7c0.3-0.2,0.6-0.4,0.8-0.7c0.2-0.3,0.3-0.8,0.2-1.2c0-0.2-0.2-0.4-0.3-0.5
	c-0.2-0.1-0.6-0.2-1-0.2l-2.3-0.2l-4.8,0.5c-0.7,0.1-1.4,0.2-2.2,0.2c-0.5,0-1-0.4-1.1-0.9c0-0.5,0.3-1,0.9-1.1l2.1-0.2
	c1-0.1,1.7-0.4,2.4-0.7c0.7-0.9,1.4-1.9,1.9-3c0-0.3-0.1-0.7-0.4-1c-0.5-0.5-1.3-0.7-2.5-0.7c-0.3,0-0.5,0-0.8,0
	c-3.4,0.2-6.8,0.9-10,2.1c-0.5,0.2-1,0-1.2-0.5c-0.2-0.4-0.1-1,0.3-1.3l5.7-4.3c0.7-0.5,2.3-1.9,1.9-2.9c-0.2-0.4-0.6-0.6-1.4-0.6
	c-0.7,0-1.5,0.2-2.2,0.5c-2.2,1.1-4.2,2.7-6.2,4.3c-1,0.8-2.1,1.7-3.1,2.5c-3.7,2.7-7.7,4.6-12.1,5.7c-0.6,0.2-1.2,0.3-1.8,0.4
	c-2.5,0.6-5.1,1.3-7,2.6c0.3,1-0.1,2.1-0.2,2.4C226.1,204.8,225.3,212.5,226.2,222.5z M275.4,210.4c0.8-2,2.8-3.5,4.9-3.5
	c1.4,0,2.8,0.7,3.9,1.6c1.1,0.9,1.9,2.1,2.7,3.3c0.3,0.5,0.7,1.1,0.5,1.6c-1.2-0.1-2-1.2-2.8-2c-0.6-0.7-1.3-1.3-2.1-1.7
	s-1.8-0.6-2.7-0.3c-1.1,0.3-1.9,1.2-2.5,2.1c-0.4,0.5-1,1.1-1.6,0.9C275.2,211.9,275.2,211,275.4,210.4z M264.4,266.5
	c0.5-4.9,4-8.5,10.3-10.7c2.3-0.8,4.4-1.2,6.5-1.1c2.4,0.1,4.6,0.9,6.2,2.2c2.2,1.8,2.5,2.4,3.6,5.6c0.8,2.1,0.8,4.6,0,6.9
	c-0.8,2.1-2.2,4-4.1,5.5l-0.2,0.2c-0.8,0.6-1.6,1.3-1.7,2.1c0,0.2,0,0.4,0,0.6c0,0.5,0.1,1-0.2,1.5c-0.3,0.4-0.7,0.7-1.3,0.7
	c-0.5,0-0.9-0.2-1.2-0.6c-0.1-0.2-0.2-0.4-0.3-0.6c-0.1-0.1-0.1-0.3-0.2-0.3c-0.1-0.1-0.2-0.2-0.7-0.2c-0.4,0-0.8,0.1-1,0.2
	c-1.9,0.5-3.5,0.8-5,0.8l-0.3,0c-2,0-3.8-0.6-5.2-1.6c-0.7-0.5-1.4-1.2-2.2-2.1C265.2,272.9,264.1,269.6,264.4,266.5z M252.5,220
	c2.2,1,3.9,2.7,4.6,4.6c0,0.1,0.1,0.2,0.1,0.4c0.2,0.3,0.4,0.7,0.5,1c0.1,0.1,0.1,0.3,0.1,0.4c0.1,0.1,0.1,0.3,0.2,0.4
	c0,0,0,0.1,0,0.1c0.5,1.3,0.8,2.9,1,4.6c0.3,2.8,0.2,4.9-0.4,6.8c-0.6,1.9-1.7,3.7-3.4,5.6c-0.6,0.6-1.4,1.5-2.5,2
	c-0.9,0.5-2,0.8-3.4,0.9c-0.4,0-0.9,0.1-1.3,0.1c-0.6,0-1.2,0-1.8-0.1c-3.7-0.5-7.5-2.4-10.9-5.7c-0.1-0.1-0.2-0.2-0.2-0.2
	c-0.1,0.1-0.3,0.2-0.5,0.2c-0.2,0.1-0.4,0.3-0.7,0.3c-0.1,0-0.2,0-0.3,0c-0.1,0-0.3-0.1-0.5-0.3c0,0,0,0-0.1,0
	c-0.4-0.2-0.6-0.7-0.5-1.2c0.1-0.2,0.1-0.4,0.2-0.6c0.1-0.7,0.1-1.5,0-2.2c-0.1-0.5-0.3-1.1-0.4-1.6c-0.2-0.7-0.4-1.4-0.6-2.2
	c-0.6-3.1-0.1-6.4,1.4-9.1c1.6-2.8,4.4-4.8,7.4-5.5c0.9-0.2,1.8-0.3,2.8-0.3c1,0,2.1,0.1,2.8,0.2C248.4,218.8,250.6,219.1,252.5,220
	z M231.2,219.2c0.2-1,0.6-2,1-2.9c0.3-0.8,0.7-1.7,1.4-2.3c1.3-1.4,3.4-1.6,5.3-1.6c1.6-0.1,3.2-0.1,4.6,0.5
	c0.4,0.1,0.8,0.4,0.7,0.8c-0.1,0.5-0.7,0.5-1.2,0.5c-1.6-0.1-3.3,0-4.8,0.5c-1.3,0.4-2.5,1-3.2,2.1c-0.8,1.3-0.9,3.1-2.1,4
	c-0.3,0.2-0.7,0.4-1,0.2C231.1,220.6,231.1,219.8,231.2,219.2z"/>
<path class="st4" d="M376.9,183.8c1.1,0.2,2.3,0.6,3.6,1.2C379.1,184.4,377.9,184,376.9,183.8z"/>
<path class="st4" d="M410.5,255.3c6.2-12.3,5-27.5-1.1-39.9s-16.7-22-28.5-29.2c-1.3-0.8-2.7-1.6-4-2.5l0,0h0
	c-1.4-0.3-2.7-0.2-3.8,0.2c0.7,1.7,2.4,3.1,4,4.3c4.2,3.3,8.2,6.8,11.9,10.6c3.1,3.2,6.3,6.7,8,11c1,2.5,1.6,5.5,1.8,9
	c0.6,10.6-2.6,20.9-8.8,28.4c5.3,4.9,9.3,11.1,11.7,17.8c0.3-0.2,0.6-0.4,0.9-0.5C406.1,262.5,408.6,259,410.5,255.3z"/>
<path class="st5" d="M416.3,220.6c-0.7-2.1-1.8-4.8-3.2-7.3c-7-12.2-17.7-22.6-30.3-29.3c-4.8-2.6-8.5-3-11.4-1.4
	c-0.4,0.2-0.6,0.6-0.5,1.1c0.5,2.8,3,4.7,4.9,6.3c4.1,3.2,8,6.7,11.7,10.4c3,3,6,6.4,7.6,10.4c0.9,2.3,1.5,5,1.7,8.3
	c0.6,10.2-2.4,20-8.4,27.1c-5-4.2-11-7.2-17.2-8.3c-1.9-0.3-3.8-0.5-5.7-0.7c-2.4-0.2-4.8-0.4-7.1-1c-0.8-0.2-1.7-0.4-2.5-0.7
	c-1.5-0.4-3-0.9-4.6-1.1c-0.8-0.1-1.6-0.2-2.4-0.2c-3.6,0-7.1,1-10.6,2l-1.1,0.3c-9,2.5-17.4,3.8-25,3.8c-8.5,0-16.1-1.6-22.6-4.8
	c0.4-1.2,0.8-2.4,1.3-3.6c0.1,0,0.1,0,0.2,0c0,0,0.1,0,0.1,0c0.8-0.1,1.4-0.8,1.3-1.7c0-0.5-0.3-0.9-0.5-1.2
	c0.4-0.8,0.6-1.6,0.7-2.5c0-0.1,0-0.1,0.1-0.2c1.6-7-0.8-15.1-6.6-21.5c-1.2-1.3-2.4-2.4-3.6-3.4c3.3-4.4,6.7-8.8,10.2-13
	c0.4-0.5,0.6-0.6,0.7-0.6c0,0.1,0,0.1,0.1,0.2c0,0.2,0.2,0.4,0.3,0.5c0,0.1,0.1,0.3,0.1,0.4c0.4,3.6,0.5,7.4,0.5,11
	c0,3.8,0,7.7,0.5,11.5c0.2,1.8,0.6,3.7,1.7,5.2c1.3,1.7,3.3,2.8,6.2,3.3c1.4,0.3,2.8,0.4,4.3,0.4c3.5,0,7.1-0.8,10.2-2.4
	c2.4-1.2,3.9-2.6,4.7-4.2c0.8-1.7,0.7-3.5,0.6-4.7c-0.3-3.1-1.3-6-2.2-8.8c-3.2-8.9-7.1-17.7-10.9-26.2c-0.9-1.9-1.7-3.9-2.6-5.8
	l-0.1-0.1c-1.5-3.3-3-6.7-5.4-9.4c-2.9-3.2-6.8-4.9-10.3-4.4c-4.5,0.6-7.7,4.5-9.7,7.3c-3.9,5.5-6.9,11.6-8.9,18.1
	c-0.2,0.8-0.5,1.6-0.7,2.4c-0.4,1.5-0.8,3-1.4,4.4c-0.9-0.9-2.1-1.3-3.9-1.3c-0.3,0-0.6,0-0.9,0c-1.8,0.1-3.5,0.4-5.2,0.7l1.3-1
	c3.2-2.4,2.9-4.4,2.5-5.3c-0.5-1.2-1.7-1.8-3.2-1.8c-1,0-2.1,0.3-3,0.8c-2.4,1.2-4.6,2.9-6.6,4.6c-1,0.8-2,1.6-3,2.4
	c-3.5,2.5-7.3,4.3-11.4,5.4c-0.6,0.2-1.2,0.3-1.8,0.4c-2.8,0.7-5.8,1.4-8.1,3.2c-0.2,0-0.5,0-0.7,0.1c-5.7,1.1-10,4.8-12.6,7.7
	c-3.2,3.5-5.6,7.5-8.2,12.1c-1.5,2.7-3,5.3-4.2,8c-5.5,12.4-5.7,26.6-5.8,39.1c0,1.1,0,2.5,0.6,3.8c1,1.9,3.1,2.7,5.2,3.3
	c0.5,0.1,1,0.2,1.5,0.4c-0.4,1.9-0.9,3.8-1.8,5.5c-3.2,6.5-10.3,10.4-15.4,12.7c-0.6,0.3-1.2,0.5-1.8,0.8c-3.8-4.7-7.4-9.4-11-14.1
	l-0.4-65.4l-0.1-13l-0.1-21.3c0-0.1,0-0.2,0-0.2c0.3,0,0.6,0,0.9,0l0.6,0c1.3,0,2.4-0.4,3.1-1.1c0.6-0.6,0.9-1.4,0.9-2.2
	c0-0.3-0.1-0.5-0.1-0.7c0.7-0.2,1.4-0.5,1.8-1.2c0.7-1,0.6-2.3-0.3-3.8c0.1-0.1,0.2-0.2,0.3-0.3c0.7-0.9,0.4-2.1-0.2-2.8
	c0-0.1,0-0.1,0-0.2c0-0.3,0.1-0.5,0.3-0.8c0.5-0.5,1.3-0.9,2.2-0.9c0,0,0,0,0,0c0.9,0,1.7,0.3,2.6,0.5c0.8,0.2,1.6,0.5,2.4,0.6
	c3.2,0.4,6.4-1.1,8.1-3.7c1.1-1.7,1.5-3.6,1.9-5.6c2.7-14.6,3.2-29.5,1.6-44.3c-0.7-5.9-2-12.6-6.7-16.7c-4.1-3.6-9.6-4.4-14.6-4.9
	c-1.3-0.1-2.5-0.2-3.6-0.3c0-1.7-0.3-3.4-0.9-5c-0.7-1.8-1.8-2.8-3.2-2.8c-1.2,0-2.4,0.9-3.1,2.5c-0.7,1.6-1,3.4-0.9,5.1
	c-1.5,0.1-3,0.2-4.4,0.3c-6,0.7-11.1,2.6-15.2,5.5c-2.3,1.6-4,3.5-5.1,5.4c-1.8,3.2-2.1,6.9-2.3,10.9c-0.6,14.4-0.7,29.7,3.2,44.1
	c0.4,1.6,0.9,3.2,2,4.6c2.2,2.7,5.9,3.2,7.9,3.2c1.4,0,2.9-0.2,4.3-0.4c1.3-0.2,2.5-0.3,3.7-0.3l0.1,0c0.9,0,2,0.3,2.1,0.9
	c0,0.1,0,0.2,0,0.3c0,0.1,0,0.3,0,0.4c-1,0.3-1.8,1-2.3,2c-0.4,0.8-0.6,1.8-0.5,3.1c0,0.1,0,0.3,0.1,0.4c-0.3,0.4-0.4,1-0.3,1.5
	c0.1,0.8,0.5,1.5,1.1,1.9c-0.2,0.3-0.4,0.5-0.6,0.9c-0.4,1.1-0.2,2.1,0.4,2.7c0.2,0.2,0.5,0.5,3.2,0.7c-0.1,6.1-0.2,12.8-0.3,19.9
	c-0.2,0.7-0.4,1.4-0.7,2c-0.6,1.8-1.3,3.5-2.1,5.2c-1,2.2-2.2,4.4-3.3,6.5c-0.2,0.4-0.4,0.8-0.7,1.3c-0.9,1.7-1.9,3.5-2.7,5.3
	c-8.4,18.1-7.4,40.1,2.9,57.3c1.6,2.7,3.4,5.3,5.3,7.7c-0.1,6.7-0.2,12.2-0.2,16.1c-4,0.7-7.9,1.8-11.6,3.3c-0.8,0.3-1.6,0.7-2.4,1
	c-2.8,1.2-5.5,2.4-8.4,2.7c-1.1,0.1-2.2,0.2-3.3,0.2l-1.8,0c-2.8,0-5.7,0.1-8.1,1.7c-2.1,1.3-3.7,3.6-4.7,6.6
	c-2.7,8.1,0.5,17.4,7.3,21.6c0.9,0.5,2.2,1.2,3.7,1.2c0.8,0,1.6-0.3,2.1-0.8c1,1.4,2.7,2.4,4.6,2.4c0.2,0,0.3,0,0.5,0
	c1.8-0.2,3.6-1.3,4.8-2.9c0.8,0.9,2.1,1.5,3.4,1.5c0.5,0,0.9-0.1,1.4-0.2c1.1-0.4,2-1.3,2.5-2.5c0.2-0.5,0.3-1.1,0.3-1.6
	c0.5,0.1,0.9,0.1,1.4,0.1c1.7,0,3.4-0.4,5-0.9c0.4-0.1,0.8-0.2,1.2-0.4c1.2,2.3,2.8,4.4,4.7,6.3c1.2,1.2,3.2,2.8,5.6,3
	c0.1,0,0.2,0,0.4,0c1.6,0,3.4-0.9,4.3-2.3c1.3,1,3,1.6,4.7,1.6l0.1,0c0.5,0,1.3-0.1,2-0.6c0.1-0.1,0.2-0.2,0.3-0.2
	c0.7,0.5,1.6,0.7,2.5,0.7c1,0,1.9-0.3,2.7-0.8c1.3-0.8,2.2-2.2,2.7-4c0.9,0.4,2.2,0.3,3.3-0.2c0.7-0.3,1.3-0.7,1.8-1.1
	c0.5-0.4,1.1-0.7,1.6-0.9c0.7-0.3,1.5-0.4,2.4-0.5l0.4-0.1c3.9-0.5,7.6-1.7,11.1-3.5c0,0,0,0,0,0c0.1,0,0.3,0,0.4,0c0.5,0,1,0,1.6,0
	c0.3,0.9,0.5,1.8,0.7,2.7l0.1,0.4c0.3,1.3,0.6,2.8,1.6,3.9c1.1,1.3,2.8,1.9,5.2,1.9c0,0,0,0,0,0c0.8,0,1.6-0.1,2.3-0.1l30.8-3.2
	c0.5,0,1-0.1,1.5-0.3c0.7-0.3,1.3-0.8,1.8-1.2c1.5-1.4,2.8-2.7,4-4.2c3.2,0.2,6.4,0.4,9.5,0.4c2.5,0,4.7-0.1,6.9-0.3
	c7.1-0.6,12.3-2.2,16.4-5c5-3.5,7.8-9.1,7.4-14.4c1.5-0.2,3-0.5,4.5-0.7c-0.3,1.3-0.4,2.4-0.3,3.5c0.1,1.3,0.5,2.6,1.2,4.1
	c2.5,5.3,7.4,9,12.4,9.3c0.2,0,0.4,0,0.6,0c0,0,0,0,0,0c2.3,0,5-0.9,6.4-3c1.3,1.1,2.9,1.7,4.5,1.4c1.7-0.2,3.2-1.5,3.7-3
	c2,1,4.8,0.6,6.4-0.9c1.7-1.5,2.5-4.1,2-6.5c4.6-0.2,9.1-0.8,13.6-1.6c-1.3,0.7-2.5,1.6-3.7,2.5c-3,2.5-5,6.3-5.3,10
	c-0.2,2.6,0.6,4.9,2.1,6.7c3.1,3.5,7.8,3.5,12.4,3.6c0.7,0,1.3,0,2,0c0.1,0,0.2,0.1,0.4,0.1c0.1,0,0.2,0,0.3-0.1
	c0.8,0,1.6,0.1,2.3,0.2c0.4,0,0.8,0.1,1.2,0.2c0.9,0.1,1.9,0.3,2.9,0.3c0.8,0,1.6-0.1,2.3-0.3c1.4-0.5,2.6-1.7,3.1-3.1
	c0-0.1,0.1-0.3,0.1-0.4c0.5,0.1,0.9,0.2,1.4,0.2c2.3,0,4.4-1.3,5.4-3.2c1.4-2.8,0.8-5.9-0.5-8.2l20.6-6.3c2.3-0.7,5.5-1.7,7.4-4.2
	c2.1-2.8,1.9-7-0.3-10.1c-1.7-2.3-4.4-4-7.7-4.7c1.7-6.3,2.1-12.8,1.3-19c0.1,0,0.2,0,0.3-0.1c8.6-3.6,15.1-12.4,17-22.9
	C421.3,240.9,420.1,231.5,416.3,220.6z M290.4,228.2c-2.8-2.3-5.9-4.4-9.1-6.2c-1.3-0.7-2.8-1.5-4.5-1.9c-0.6-0.1-1.3-0.2-1.9-0.3
	c-0.3,0-0.6-0.1-0.9-0.1c2-2.6,5.3-4.1,8.4-3.8c0.6,0.1,1.1,0.2,1.6,0.4c0.5,0.2,1,0.5,1.6,1c1.6,1.3,3,3.1,4.2,5.4
	c0.5,0.8,0.9,1.7,1,2.6C291.1,226.2,290.9,227.2,290.4,228.2z M272.6,221.4c0.2,0.1,0.3,0.1,0.4,0.1c0,0,0,0,0.1,0
	c-0.3,0-0.6,0-0.7-0.1c0,0,0.1,0,0.2-0.1C272.5,221.4,272.6,221.4,272.6,221.4z M271.1,225.4c0.4-0.6,0.9-1.2,1.1-2
	c0.3,0,0.5,0.1,0.7,0.1c0.2,0,0.3,0,0.5,0l0.1,0c0.1,0,0.3,0,0.4,0c0.7,0,1.4,0,2.2,0.1c1.8,0.2,3.5,0.8,5.4,1.7
	c0.7,0.3,1.3,0.7,2,1.1c0.6,0.4,1.2,0.8,1.9,1.2c1,0.7,2,1.5,3.1,2.4l0.3,0.3c0.3,0.2,0.6,0.5,0.9,0.7c-0.3,0.6-0.6,1.2-1,1.8
	c-1.4,2.1-3.7,3.5-6.1,3.8c-0.4,0.1-0.9,0.1-1.5,0.1c-0.2,0-0.4,0-0.6,0c-2,0-4.4-0.2-6.2-1.2c-0.8-0.4-1.4-1-2-1.5
	c-0.7-0.6-1.2-1.1-1.6-1.8c-1.1-1.7-0.9-4.3,0.4-6.2C270.9,225.7,271,225.6,271.1,225.4z M274,182.7c0.2-0.8,0.4-1.6,0.7-2.4
	c1.9-6.3,4.8-12.2,8.6-17.5c1.8-2.5,4.6-5.9,8.4-6.5c2.9-0.4,6.2,1,8.6,3.7c2.3,2.5,3.7,5.7,5.1,8.9l0.1,0.1
	c0.9,1.9,1.7,3.9,2.6,5.8c3.8,8.5,7.7,17.2,10.9,26.1c0.9,2.6,1.9,5.4,2.1,8.3c0.1,1.6,0,2.8-0.4,3.7c-0.4,0.9-1.1,1.6-2.1,2.3h0
	l0,0c-0.2,0.2-0.5,0.3-0.7,0.5c0,0,0,0-0.1,0c-0.3,0.2-0.5,0.3-0.8,0.4c-4,2-8.8,2.6-13.2,1.8c-2.4-0.5-4.1-1.3-5-2.6
	c-0.9-1.2-1.2-2.7-1.4-4.3c-0.5-3.7-0.5-7.6-0.5-11.3c0-3.7,0-7.5-0.5-11.2c-0.1-0.9-0.3-1.5-0.6-1.9c-1.1-4.4-2.7-9.3-5.9-13.3
	c-0.3-0.4-1-0.5-1.4-0.2c-0.4,0.3-0.5,1-0.2,1.4c2.6,3.3,4.1,7.3,5.1,11.1c-0.9,0.2-1.5,0.9-1.8,1.3c-3.5,4.2-6.9,8.6-10.2,13
	c-0.5-0.2-0.9-0.4-1.4-0.6c-0.2-0.1-0.4-0.1-0.6-0.2c-0.3-0.1-0.5-0.2-0.8-0.3c-0.2-0.1-0.5-0.2-0.7-0.2c-0.2-0.1-0.4-0.1-0.6-0.2
	c-0.3-0.1-0.6-0.2-0.9-0.2c-0.5-0.1-1-0.2-1.4-0.3c0.2-0.2,0.4-0.4,0.5-0.6c0.6-0.8,0.8-1.9,0.6-2.8c-0.2-0.8-0.6-1.4-1.3-1.8
	c-0.6-0.4-1.3-0.4-1.8-0.4l-2.7-0.2C272.1,189.3,273,186,274,182.7z M228.7,198.4c0.1-0.4,0.5-1.5,0.2-2.4c1.9-1.3,4.4-2,7-2.6
	c0.6-0.1,1.2-0.3,1.8-0.4c4.4-1.2,8.4-3.1,12.1-5.7c1.1-0.8,2.1-1.6,3.1-2.5c2-1.7,4-3.2,6.2-4.3c0.7-0.3,1.5-0.5,2.2-0.5
	c0.7,0,1.2,0.2,1.4,0.6c0.5,1-1.2,2.4-1.9,2.9l-5.7,4.3c-0.4,0.3-0.5,0.8-0.3,1.3c0.2,0.4,0.8,0.6,1.2,0.5c3.2-1.2,6.6-1.9,10-2.1
	c0.3,0,0.5,0,0.8,0c1.2,0,2,0.2,2.5,0.7c0.3,0.3,0.4,0.7,0.4,1c-0.5,1.1-1.1,2.1-1.9,3c-0.6,0.3-1.4,0.6-2.4,0.7l-2.1,0.2
	c-0.5,0.1-0.9,0.5-0.9,1.1c0,0.5,0.5,0.9,1.1,0.9c0.7-0.1,1.5-0.1,2.2-0.2l4.8-0.5l2.3,0.2c0.3,0,0.7,0.1,1,0.2
	c0.2,0.1,0.3,0.3,0.3,0.5c0.1,0.4,0,0.9-0.2,1.2c-0.2,0.3-0.5,0.5-0.8,0.7c-0.5,0.3-1.1,0.5-1.8,0.7c-1,0.3-2,0.7-2.9,1.4
	c-0.4,0.3-0.5,0.9-0.2,1.3c0.3,0.4,0.8,0.6,1.3,0.4c1.1-0.5,2.4-0.8,3.7-0.9c2.1,0.2,4.1,0.7,6,1.4c2,1,4,2.6,6,4.8
	c4.1,4.6,6.4,10.1,6.6,15.3c-1.3-2.4-2.8-4.2-4.5-5.6c-0.7-0.6-1.4-1-2.1-1.3c-0.6-0.3-1.3-0.4-2.1-0.5c-4-0.5-8.3,1.7-10.7,5.2
	c-0.1,0.1-0.1,0.2-0.2,0.4c0,0,0,0-0.1,0c-0.3,0.1-1.2,0.4-1.6,1.3c-0.2,0.7,0,1.4,0.4,1.9c0,0.6-0.4,1.2-0.9,1.9
	c-0.1,0.1-0.2,0.3-0.3,0.4c-1.6,2.5-1.8,5.6-0.4,7.9c0.5,0.8,1.2,1.5,1.9,2.1c0.7,0.6,1.4,1.2,2.3,1.7c2.2,1.2,4.7,1.3,6.9,1.4
	c0.2,0,0.4,0,0.7,0c0.7,0,1.2,0,1.7-0.1c1.8-0.2,3.4-0.9,4.8-2c-0.1,0.3-0.2,0.6-0.2,0.9c-1.3,6.5,1.2,12.9,3.7,19.1l0.4,0.9
	c2.5,6.3,4.5,12.9,2.1,18.8c-1.7,4.2-5.9,7.7-11.2,9.3c-3.1,0.9-6.5,1.4-10.9,1.4c-1.3,0-2.8,0-4.6-0.1c-4.7-0.2-9.7-0.6-14.4-2.1
	c-1.3-0.4-2.8-1-4.3-1.7c-0.1-0.1-0.3-0.1-0.4-0.2c-0.2-0.1-0.3-0.2-0.5-0.3c-3.2-1.9-5.7-4.7-7.9-7.4c-1-1.7-1.8-3.4-2.4-5.3
	c0.6-0.6,1-1.3,1.2-2c0.5-1.8-0.4-3.6-1-5c-5.9-12.5-9.6-25.9-10.8-39.7C225.3,212.5,226.1,204.8,228.7,198.4z M229.8,282.2
	c-0.3-0.2-0.7-0.3-1.1-0.1c0,0,0,0,0,0c-0.8-0.1-1.5-0.1-2.3-0.2c-1.6-0.2-3.3-0.3-4.8-0.7c-0.3-0.1-0.6-0.2-0.9-0.3
	c-0.3-0.1-0.6-0.2-0.9-0.2c1.1-1.8,1.4-4.2,0.5-6.2c-0.1-0.3-0.4-0.5-0.8-0.6c-2.1-0.3-3.6,1.7-3.9,3.7c0,0.1,0,0.2,0,0.3
	c-0.6-0.6-1.4-1.1-2.2-1.4c-0.7-0.3-1.4-0.5-2-0.7c-1.1-0.3-2.1-0.6-2.9-1.2c-1.4-0.9-2.2-2.5-2.8-3.7c-0.2-0.3-0.3-0.7-0.4-1
	c3.9,0.8,7.9,1.4,11.9,1.8c0.3,0,0.6,0.1,0.8,0.1c0.2,0.1,0.3,0.3,0.5,0.4c0.1,0.1,0.2,0.2,0.3,0.3c1.1,1,2.5,1.5,3.6,1.9
	c2.5,0.7,5.1,1.1,8.4,1.1c2.2,0,4.4-0.2,6.5-0.3c2.2,2.9,4.9,6,8.3,8.1c-0.1,0-0.2,0-0.3,0C240.1,283.1,234.9,282.7,229.8,282.2z
	 M205.5,292c0.3,1,1.1,1.7,1.7,2.3c0.1,0.1,0.3,0.2,0.4,0.4c0.5,0.5,0.7,1,0.6,1.2c0,0-0.1,0.1-0.3,0.2c-1,0.5-2.4,0.4-3.3-0.3
	c-0.9-0.7-1.3-2-1-3.1c0.1-0.4,0-0.8-0.4-1.1c-0.2-0.1-0.4-0.2-0.6-0.2c-0.2,0-0.4,0.1-0.6,0.2c-1,0.8-2.5,0.9-3.7,0.5
	c-1.2-0.5-2-1.7-2-2.9c0-1.2,0.8-2.5,1.9-2.9c0.3-0.1,0.6-0.2,0.9-0.1c0.3,0,0.5,0.1,0.9,0.3c0.7,0.4,1.3,0.9,1.7,1.5
	c0.2,0.3,0.7,0.5,1.1,0.4c0.4-0.1,0.7-0.4,0.8-0.8c0,0,0.1-0.1,0.5-0.4c2-1.3,4.2-2.3,6.6-2.8c0.4-0.1,0.6-0.4,0.7-0.7
	c0.1-0.4,0-0.7-0.3-1c-0.8-0.7-1.7-1.5-2.1-2.5c-0.3-0.7-0.1-1.7,0.5-2.1c0.2-0.1,0.4-0.1,0.8-0.2l0.1,0c2.2,0,4.3,1.8,4.5,4
	c0.1,0.5,0.5,0.9,1,0.9c0,0,0,0,0.1,0c0.1,0.1,0.1,0.1,0.2,0.2c0.2,0.1,0.3,0.2,0.5,0.2c0.1,0,0.3,0,0.4-0.1c0.1,0,0.1-0.1,0.2-0.1
	c1.1,0.2,2.1,0.6,3,1.2c1,0.7,2.2,1.9,2,3.2c-0.2,1.3-1.8,2.1-3,1.9c-1.3-0.2-2.6-1.2-3.4-2.8c-0.1-0.3-0.4-0.4-0.7-0.5
	c-0.3-0.1-0.6,0-0.8,0.2c-2.3,1.9-5,4.1-8,4.6c-0.3,0-0.5,0.2-0.7,0.4C205.5,291.5,205.5,291.8,205.5,292z M217.5,277.8
	c0.1-0.7,0.5-1.5,1.1-1.8c0.4,1.4-0.1,3-1,4.1c0,0,0,0,0-0.1C217.5,279.3,217.4,278.5,217.5,277.8z M236.2,273.2
	c-1.8,0.1-3.7,0.2-5.6,0.2c-3.1,0-5.6-0.3-7.8-1c-0.5-0.1-1.1-0.3-1.6-0.6c0.7,0,1.4,0,2.1,0h0c2.9,0,5.8-0.2,8.5-0.6
	c1.3-0.2,2.3-0.5,3.2-0.9C235.4,271.3,235.8,272.2,236.2,273.2z M202,266.7c-1.6-0.4-3.3-1-3.9-2.3c-0.4-0.8-0.4-1.9-0.4-2.8
	c0.1-12.3,0.3-26.3,5.7-38.3c1.2-2.6,2.6-5.2,4.1-7.8c2.5-4.4,4.9-8.4,8-11.7c2.4-2.7,6.4-6,11.6-7.1c0,0,0,0,0.1,0
	c0,0.2,0,0.6-0.2,1c-0.6,1.4-1,2.8-1.4,4.3c-0.2,0.7-0.4,1.4-0.5,2.1c0,0.1,0,0.1,0,0.2c-0.4,2.1-0.7,4.3-0.9,6.7c0,0.2,0,0.4,0,0.6
	c0,0.6,0,1.1-0.1,1.7c0,0.5,0,1,0,1.4c0,0.5,0,1,0,1.5c0,0.6,0,1.3,0.1,2c0,0.4,0,0.8,0.1,1.2c0.1,1.1,0.1,2.2,0.2,3.4
	c1.3,14,5,27.6,11,40.4c0.5,1.2,1.2,2.5,0.9,3.6c-0.4,1.6-2.7,2.3-4.5,2.6c-2.6,0.4-5.4,0.6-8.2,0.6
	C216.9,269.9,209.9,268.8,202,266.7z M186.6,289c5.3-2.4,12.9-6.5,16.4-13.6c0.5-1,0.9-2,1.2-3c0.7,1.3,1.6,2.8,3.1,3.8
	c0.2,0.2,0.5,0.3,0.7,0.4c-1.1,1-1.3,2.8-0.8,4.1c0.3,0.8,0.8,1.5,1.3,2c-1.9,0.6-3.7,1.5-5.4,2.6c-0.1,0.1-0.3,0.2-0.4,0.3
	c-0.4-0.4-0.9-0.8-1.5-1.1c-0.6-0.3-1.1-0.5-1.6-0.5c-0.6-0.1-1.3,0-1.9,0.3c-1.9,0.7-3.2,2.8-3.2,4.8c0.1,2,1.4,3.9,3.3,4.7
	c1.2,0.5,2.7,0.6,3.9,0.2c0.2,1.3,0.8,2.5,1.8,3.3c0.9,0.7,2,1.1,3.2,1.1c0.8,0,1.6-0.2,2.3-0.5c0.5-0.2,0.8-0.5,1.1-0.9
	c0.9-1.3,0.2-2.9-0.9-3.9c-0.2-0.1-0.3-0.3-0.5-0.4c-0.1-0.1-0.3-0.2-0.4-0.4c2.5-0.8,4.7-2.5,6.6-4c1.1,1.5,2.7,2.5,4.3,2.8
	c0.2,0,0.4,0,0.7,0c2.3,0,4.3-1.6,4.6-3.6c0.2-1.6-0.6-3.1-1.6-4.2c1.2,0.2,2.4,0.3,3.5,0.4c0.7,0.1,1.4,0.1,2.1,0.2
	c0.7,4.1,2.6,8,5.4,11c-0.2,0-0.4,0-0.7,0c-3.1,0-5.8,0.1-8.3,0.3c-10.8,0.8-19.6,3.6-26.2,8.4c-0.2,0.1-0.4,0.3-0.6,0.5
	c-0.1-0.1-0.1-0.2-0.2-0.2c-4.3-4.6-8.5-9.5-12.5-14.5C185.7,289.4,186.1,289.2,186.6,289z M161.7,256.5c-0.1-0.2-0.2-0.5-0.3-0.7
	c-5.4-13.3-2.9-28.2,1-41.7C162.1,228.5,161.9,243.3,161.7,256.5z M164.5,207.3c0.2-0.7,0.4-1.3,0.7-2c2.1-6.2,4.1-12.6,5.2-19
	l0.5,84.8c-2.6-3.4-5.2-7-7.2-10.7C163.9,244.5,164.2,225.6,164.5,207.3z M177.8,167.6c-0.3,0.5-1.4,0.5-2.2,0.5
	c-0.9,0-1.8-0.1-2.7-0.1c-3.1-0.1-6.3-0.3-9.5-0.2c-0.8,0-1.7,0-2.2-0.3c-0.2-0.1-0.4-0.4-0.4-0.6l3-0.4c0,0,0,0,0,0l13.3-1
	C177.6,166.2,178.1,167.1,177.8,167.6z M168.2,80.8c0.3-0.6,0.7-1.3,1.2-1.3c0.5,0,1,0.8,1.3,1.5c0.5,1.3,0.8,2.8,0.8,4.2
	c-1-0.2-2.1-0.3-3.1-0.3c-0.3,0-0.6,0-1,0C167.4,83.5,167.6,82,168.2,80.8z M159.7,156.4l-0.2,0c-1.3,0-2.6,0.2-3.9,0.3
	c-1.4,0.2-2.7,0.3-4.1,0.3c-1.6,0-4.6-0.3-6.3-2.4c-0.8-1-1.3-2.5-1.6-3.8c-3.8-14.2-3.8-29.3-3.2-43.5c0.2-3.8,0.4-7.2,2-10
	c1-1.7,2.5-3.3,4.5-4.8c3.8-2.7,8.6-4.5,14.3-5.2c3-0.4,6.1-0.5,10-0.2c0.3,0.1,0.6,0.1,0.9,0.2c0.1,0,0.2,0,0.3,0
	c0.2,0,0.3-0.1,0.5-0.1c1.2,0.1,2.5,0.2,3.9,0.4c4.6,0.5,9.8,1.3,13.4,4.5c4.2,3.7,5.4,9.9,6,15.4c1.6,14.6,1.1,29.3-1.5,43.7
	c-0.3,1.8-0.7,3.5-1.6,4.9c-1.3,2-3.8,3.2-6.2,2.9c-0.7-0.1-1.4-0.3-2.1-0.5c-1-0.3-2-0.6-3.1-0.6c0,0-0.1,0-0.1,0
	c-1.4,0-2.8,0.6-3.7,1.6c-0.4,0.4-0.6,0.9-0.7,1.3l-0.2,0c-0.1,0-0.2,0-0.3,0c-1-0.1-2.1-0.2-3.5-0.2c-0.2,0-0.5,0-0.7,0l-7.8-0.4
	c-0.7,0-0.9-0.2-0.9-0.2c0-0.1,0-0.3,0-0.4c0-0.2,0-0.4-0.1-0.7C163.5,157.3,161.9,156.4,159.7,156.4z M161.4,162.9
	c0.3-0.6,0.7-0.9,1.2-1c0.3,0,0.6,0.1,1,0.1l0.2,0c1.4,0.3,2.9,0.4,4.9,0.4c0.8,0,1.5,0,2.3,0c0.8,0,1.5,0,2.3,0
	c1.3,0,2.3,0.1,3.2,0.2c0.5,0.1,0.9,0.2,1.2,0.4c0.1,0.1,0.2,0.3,0.2,0.3c0,0-0.2,0.1-0.7,0.1l-14.4,1.1c-0.6,0-1.3,0.1-1.6-0.1
	C161.1,163.9,161.2,163.4,161.4,162.9z M161.2,171.1c0-0.3,0.1-0.8,0.2-0.8c0.3,0,0.6,0,0.8-0.1c0.3,0,0.7-0.1,1-0.1
	c4.1,0.4,8.3,0.6,12.5,0.5c0,0,0,0,0,0.1c0,0.3-0.1,0.5-0.3,0.7c-0.4,0.4-1.2,0.5-1.7,0.5l-0.5,0
	C164.4,171.6,161.9,171.3,161.2,171.1z M157.8,269.8c-9.9-16.6-10.9-37.9-2.8-55.4c1-2.2,2.2-4.3,3.3-6.4c1.2-2.1,2.3-4.3,3.4-6.6
	c4.2-9.1,5.9-18.9,4.7-27.8c0.7,0,1.5,0.1,2.4,0.1c1.1,10.4-2.3,20.8-5.7,31c-0.3,0.9-0.6,1.9-0.9,2.8c-5,15.3-9.2,33.1-2.8,49
	c2.7,6.8,7.2,12.6,11.5,18.2c7.9,10.3,16.1,21,25.2,30.7c0.6,0.7,1.3,1.4,1.9,2.1c4.5,4.7,9.2,9.6,11.9,15.5
	c-4.3,0-8.3-3.3-11.7-6.6c-10.9-10.5-21.3-21.7-31-33.4C164.3,279.2,160.7,274.7,157.8,269.8z M165.9,284.2c1.7,2,3.4,4,5.1,6l0,2.3
	c-2.6,0.7-5.2,1.3-7.9,1.8c0-3.3,0.1-7.8,0.2-13.3C164.2,282.2,165.1,283.2,165.9,284.2z M157.2,326c-1.5,0.4-3,0.8-4.4,0.8
	c-0.9,0-1.6-0.1-2.3-0.5c0,0-0.1,0-0.1,0c0,0,0,0-0.1,0c-0.4-0.1-0.6-0.8-0.7-1.9c0-0.9,0-1.7,0-2.6c0-0.5,0-1.1,0.1-1.6
	c0,0,0,0,0,0c0.2-3.1,0.6-6.2,1.3-9.3c0.1-0.5-0.2-1.1-0.7-1.2c-0.5-0.1-1.1,0.2-1.2,0.7c-0.9,3.6-1.4,7.3-1.5,11l0,0
	c0,1,0,1.9,0,2.9c0.1,2.2,0.8,3.1,1.6,3.6c0.1,0.5,0.1,1-0.1,1.6c-0.3,0.6-0.7,1.1-1.3,1.4c-0.2,0.1-0.4,0.1-0.7,0.1
	c-1.1,0-2.1-0.8-2.4-1.7c-0.1-0.4-0.4-0.7-0.9-0.7c-0.3-0.4-0.5-0.9-0.7-1.4c0-0.1-0.1-0.1-0.1-0.2c-0.2-0.5-0.3-1-0.5-1.5
	c0-0.1,0-0.2-0.1-0.3c-0.1-0.5-0.2-1-0.3-1.6c0-0.1,0-0.1,0-0.2c-0.1-0.5-0.1-1.1-0.1-1.6c0-0.1,0-0.1,0-0.2c0,0,0,0,0,0
	c0-0.4,0-0.8,0-1.2c0.1-3.5,1.1-6.9,2-9.5c0.2-0.5-0.1-1.1-0.6-1.3c-0.5-0.2-1.1,0.1-1.3,0.6c-0.9,2.7-2,6.3-2.1,10.1
	c0,0.3,0,0.7,0,1c0,0,0,0,0,0c0,0.3,0,0.6,0,1c0,0.1,0,0.3,0,0.4c0,0.2,0,0.5,0.1,0.7c0,0.2,0,0.3,0.1,0.5c0,0.2,0.1,0.5,0.1,0.7
	c0,0.2,0.1,0.3,0.1,0.5c0.1,0.2,0.1,0.5,0.2,0.7c0,0.2,0.1,0.3,0.1,0.5c0.1,0.2,0.2,0.5,0.2,0.7c0.1,0.2,0.1,0.3,0.2,0.5
	c0.1,0.3,0.2,0.5,0.3,0.8c0.1,0.1,0.1,0.3,0.2,0.4c0.2,0.4,0.4,0.8,0.7,1.2c-0.9,1.4-2.2,2.4-3.6,2.5c-1.7,0.2-3.5-1.1-3.7-2.6
	c0-0.2-0.1-0.4-0.3-0.6c-0.2-0.5-0.4-1.1-0.6-1.6c0-0.1-0.1-0.3-0.1-0.4c-0.1-0.4-0.2-0.9-0.3-1.3c0-0.1,0-0.2-0.1-0.4
	c-0.1-0.5-0.2-1-0.2-1.4c0-0.1,0-0.1,0-0.2c-0.1-0.6-0.1-1.1-0.2-1.7l0,0h0c-0.1-1.9-0.1-3.8-0.1-5.6c0-1.6,0-3.4,0.8-4.8
	c0.2-0.3,0.4-0.6,0.6-0.9c0.5-0.6,1-1.3,1.2-2.2c0.1-0.5-0.2-1.1-0.7-1.2c-0.5-0.1-1.1,0.2-1.2,0.7c-0.1,0.5-0.5,1-0.9,1.5
	c-0.3,0.3-0.5,0.7-0.7,1.1c-1.1,1.8-1.1,4-1.1,5.8c0,1.4,0,3,0,4.5l0,0v0c0,0.3,0,0.7,0.1,1c0,0.2,0,0.3,0,0.5
	c0,0.4,0.1,0.8,0.1,1.3c0,0.3,0.1,0.6,0.1,0.9c0,0.2,0.1,0.4,0.1,0.6c0.1,0.4,0.1,0.9,0.2,1.3c0,0.1,0,0.2,0.1,0.3
	c0.1,0.5,0.2,0.9,0.4,1.4c0,0.1,0.1,0.3,0.1,0.4c0.2,0.5,0.3,1,0.5,1.5c-0.3,0.4-0.8,0.7-1.4,0.7l-0.1,0c-0.7,0-1.5-0.3-2.4-0.9
	c-0.3-0.2-0.7-0.4-1-0.7c-0.1-0.1-0.2-0.2-0.3-0.2c-0.2-0.2-0.4-0.3-0.6-0.5c-0.1-0.1-0.2-0.2-0.3-0.3c-0.2-0.2-0.4-0.4-0.6-0.6
	c-0.1-0.1-0.2-0.2-0.3-0.3c-0.3-0.3-0.5-0.6-0.7-0.9c-0.1-0.1-0.2-0.3-0.3-0.4c-0.1-0.2-0.3-0.4-0.4-0.6c-0.1-0.2-0.2-0.3-0.3-0.5
	c-0.1-0.2-0.2-0.3-0.3-0.5c-0.1-0.2-0.2-0.4-0.3-0.6c-0.1-0.1-0.1-0.2-0.2-0.4c-0.4-0.8-0.7-1.7-1-2.6c0-0.1,0-0.1,0-0.2
	c-0.1-0.3-0.2-0.6-0.2-1c0,0,0-0.1,0-0.1c-0.1-0.4-0.1-0.7-0.2-1.1c0-0.3-0.1-0.6-0.1-0.9c0-0.1,0-0.1,0-0.2c0-0.3-0.1-0.7-0.1-1
	c0,0,0,0,0,0c-0.1-2,0.2-3.9,0.8-5.8c0.6-1.8,1.7-4.2,3.8-5.6c2-1.3,4.5-1.4,7.1-1.4l1.8,0c1.1,0,2.4,0,3.6-0.2
	c3.2-0.4,6.1-1.6,8.9-2.9c0.8-0.3,1.6-0.7,2.4-1c3.3-1.3,6.8-2.3,10.4-3c0.2-0.1,0.4-0.1,0.6-0.1c0.1,0,0.3-0.1,0.4-0.1
	c0.8-0.2,1.7-0.3,2.5-0.2c0,0,0,0,0,0c0,0-0.1-0.1-0.1-0.1c3.4-0.7,6.7-1.5,9.9-2.5c3.8,4.3,7.6,8.5,11.6,12.6
	c-1.4,0.4-2.8,0.7-4,0.5c-1.1-0.2-2-0.8-3-1.5c-0.5-0.3-1-0.7-1.5-1c-1.7-1-3.8-1.5-5.9-1.5c-0.1,0-0.1,0-0.2,0
	c-0.8,0.2-1.6,0.3-2.4,0.3c-0.1,0-0.2,0-0.3,0c-0.1,0-0.2,0-0.3,0c0,0,0,0,0.1,0.1c-2.1,0.5-4.2,1.5-5.8,2.9c-2.5,2.1-4.2,5.2-5,8.5
	c-0.2,0.9-0.3,1.8-0.4,2.8c0,0,0,0,0,0.1c0,0.4,0,0.8,0,1.2c0,0.1,0,0.2,0,0.3c0,0.4,0,0.9,0.1,1.3c0.2,1.8,0.6,3.6,1.3,5.4
	C157.9,325.8,157.6,325.9,157.2,326z M198.2,326.6l-0.4,0.1c-1,0.1-1.9,0.2-2.9,0.6c-0.7,0.3-1.4,0.7-2,1.1c-0.5,0.3-1,0.7-1.5,0.9
	c-0.3,0.1-0.7,0.2-1.1,0.2c-0.3,0-0.9-0.1-1.2-0.5c0,0,0,0,0,0c0-1.8,0-3.7-0.1-5.5c0-0.6-0.5-1-1.1-0.9c-0.6,0-1,0.5-0.9,1.1
	c0.1,1.3,0.1,2.6,0.1,3.9c0,0.8,0,1.7,0,2.5c0,0.1,0,0.1,0,0.2c-0.3,1.6-1,2.8-2,3.5c-0.4,0.3-1,0.4-1.6,0.4c-0.7,0-1.6-0.3-2-1
	c-0.1-0.2-0.3-0.4-0.5-0.5c-0.3-0.6-0.6-1.2-0.8-1.7c-0.2-0.5-0.4-1-0.6-1.5c0,0,0-0.1-0.1-0.1c-0.4-1.1-0.6-2.1-0.7-3.1l0,0v0
	c0-0.1,0-0.2,0-0.2c-0.3-2.9,0.2-5.8,0.7-8c0.1-0.5-0.2-1.1-0.8-1.2c-0.5-0.1-1.1,0.2-1.2,0.8c-0.3,1.4-0.6,3-0.8,4.8l0,0
	c0,0.3,0,0.6-0.1,0.9c0,0.1,0,0.2,0,0.2c0,0.2,0,0.5,0,0.7c0,0.2,0,0.3,0,0.5c0,0.2,0,0.4,0,0.5c0,0.4,0,0.7,0.1,1.1
	c0.3,2.5,1.2,5,2.7,7.9c-0.2,0.1-0.4,0.2-0.9,0.2c-1.7,0-3.3-0.8-4.4-2c-0.2-0.3-0.6-0.4-0.9-0.3c-0.2-0.2-0.4-0.5-0.6-0.7
	c-1.3-1.6-2.5-3.4-3.1-5.4c0-0.1-0.1-0.3-0.1-0.4c-0.2-1-0.2-2-0.2-2.9c0-1.1,0.1-2.3,0.5-3.3c0.4-1,1-1.9,1.8-2.2
	c0.5-0.2,0.7-0.8,0.4-1.3c-0.2-0.5-0.8-0.7-1.3-0.4c-1.3,0.6-2.2,1.8-2.8,3.4c-0.5,1.3-0.6,2.8-0.6,4c0,0.2,0,0.3,0,0.5
	c0,0.2,0,0.4,0,0.5c0,0.1,0,0.2,0,0.3c0,0.1,0,0.3,0,0.4c0,0.2,0,0.3,0,0.5c0,0.1,0,0.2,0,0.3c0,0.3,0.1,0.5,0.1,0.8
	c0.6,3.2,2.8,5.8,4.6,7.9c-0.5,0.9-1.7,1.4-2.8,1.3c-1.3-0.1-2.7-0.9-4.3-2.4c-0.4-0.4-0.8-0.8-1.1-1.2c-0.1-0.1-0.2-0.3-0.3-0.4
	c-0.2-0.3-0.5-0.6-0.7-0.9c-0.1-0.1-0.2-0.3-0.3-0.4c-0.3-0.4-0.5-0.7-0.7-1.1c-0.2-0.3-0.3-0.5-0.5-0.8c-0.1-0.1-0.1-0.2-0.2-0.4
	c-0.6-1-1-2-1.4-3.1c0,0,0,0,0,0l0,0l0,0v0c-0.5-1.3-0.8-2.7-0.9-4c-0.5-4.8,1.3-9.6,4.6-12.5c2.1-1.8,4.9-2.8,7.7-2.8
	c1.8,0,3.5,0.4,4.9,1.2c0.5,0.3,0.9,0.6,1.4,0.9c1.1,0.7,2.3,1.5,3.7,1.8c0.4,0.1,0.8,0.1,1.3,0.1c1.3,0,2.6-0.4,3.9-0.7
	c0.3-0.1,0.5-0.1,0.8-0.2c0,0,0,0,0,0c0.6,0.6,1.1,1.1,1.7,1.7c2.9,3.7,6.2,7,10,9.8c0.2,0.2,0.5,0.4,0.7,0.6
	c0.2,0.2,0.4,0.4,0.7,0.5c0.1,0.1,0.1,0.1,0.2,0.2c0.2,0.2,0.4,0.3,0.6,0.4c0.1,0.1,0.2,0.2,0.3,0.2c0.2,0.1,0.3,0.3,0.5,0.4
	c0.1,0.1,0.3,0.2,0.4,0.3c0.2,0.1,0.3,0.2,0.5,0.3c0.1,0.1,0.3,0.2,0.4,0.3c0.2,0.1,0.3,0.2,0.5,0.3c0.2,0.1,0.3,0.2,0.5,0.3
	c0.1,0.1,0.3,0.2,0.4,0.2c0.2,0.1,0.4,0.2,0.6,0.3c0.1,0.1,0.2,0.1,0.3,0.2c0.3,0.1,0.6,0.3,1,0.4
	C203.8,325.4,201,326.2,198.2,326.6z M254.1,327.5c-0.4,0.4-0.8,0.7-1.2,0.8c-0.3,0.1-0.7,0.1-1,0.2l-30.8,3.2
	c-0.6,0.1-1.3,0.1-2.1,0.1c-1.8,0-3-0.4-3.7-1.2c-0.2-0.2-0.3-0.4-0.4-0.6c0-0.1-0.1-0.2-0.1-0.3c-0.1-0.1-0.1-0.3-0.2-0.4
	c0-0.1-0.1-0.2-0.1-0.4c0-0.1-0.1-0.2-0.1-0.4c0-0.2-0.1-0.3-0.1-0.5c0,0,0,0,0,0c0-0.2-0.1-0.4-0.1-0.6l-0.1-0.4
	c-1.6-7.2-5.8-13.7-11.7-18.2c-0.9-1-1.9-2-2.8-3c-0.1-0.1-0.2-0.2-0.4-0.4c0.1-0.1,0.3-0.3,0.4-0.3c6.3-4.6,14.8-7.3,25.2-8
	c2.4-0.2,5.1-0.3,8.1-0.3c3.1,0,6.3,0.1,9.3,0.2c3.1,0.1,6.3,0.2,9.4,0.2l1.3,0c1.5,0,3.1,0,4.5,0.5c0.6,0.2,1.1,0.4,1.7,0.8
	c0,0,0.1,0,0.1,0.1c0.2,0.1,0.5,0.3,0.7,0.5c0.1,0.1,0.1,0.1,0.2,0.2c0.2,0.2,0.4,0.3,0.6,0.5c0.1,0.1,0.2,0.2,0.3,0.3
	c0.2,0.2,0.3,0.4,0.5,0.5c0.1,0.1,0.2,0.2,0.3,0.4c0.1,0.2,0.3,0.4,0.4,0.5c0.1,0.2,0.2,0.3,0.3,0.5c0.1,0.2,0.2,0.3,0.3,0.5
	c0.1,0.2,0.2,0.4,0.3,0.7c0.1,0.1,0.1,0.3,0.2,0.4c0.2,0.4,0.3,0.8,0.4,1.2c1,3.7,0.2,7.5-0.7,10
	C261.6,319.3,258.6,323.6,254.1,327.5z M304.9,302.8c-2.1,0.3-4.3,0.6-6.4,1c-0.3,0-0.5,0.2-0.7,0.4s-0.2,0.5-0.2,0.7
	c0.9,5.5-2.6,10.7-6.5,13.4c-3.8,2.6-8.7,4.1-15.4,4.7c-2.1,0.2-4.3,0.3-6.8,0.3c-2.7,0-5.3-0.1-8-0.3c0.4-0.5,0.8-1.1,1.1-1.6
	c0.2-0.3,0.3-0.5,0.5-0.8c0.2-0.3,0.3-0.5,0.5-0.8c0.2-0.3,0.4-0.7,0.6-1c0.1-0.2,0.2-0.3,0.2-0.5c0.2-0.4,0.4-0.8,0.6-1.2
	c0.2-0.5,0.4-1,0.6-1.5c1-2.8,2-7,0.8-11.2c-0.5-1.9-1.5-3.6-2.7-5c2.6-0.6,5.3-1.1,7.9-1.6c4.6-0.8,9.4-1.6,13.9-3.4
	c0.5-0.2,0.8-0.8,0.6-1.3c-0.2-0.5-0.8-0.8-1.3-0.6c-4.3,1.7-9,2.5-13.5,3.3c-3.1,0.5-6.2,1.1-9.3,1.9c-1-0.7-2.1-1.3-3.2-1.7
	c-1.7-0.5-3.5-0.6-5.1-0.6l-1.3,0c-3.1,0-6.3-0.1-9.3-0.2c-1.9-0.1-3.9-0.1-5.9-0.1c0-0.1-0.1-0.1-0.1-0.2c-3-2.7-5.1-6.4-5.9-10.3
	c0.1-0.1,0.1-0.2,0.1-0.3c4.8,0.4,9.7,0.8,14.6,1c0.2,0,0.5,0,0.7,0c0.8,0,1.7-0.1,2.6-0.5c1.1,0.5,2.2,0.9,3.4,1.3
	c4.9,1.5,10.1,2,14.9,2.2c1.8,0.1,3.3,0.1,4.7,0.1c4.6,0,8.2-0.5,11.5-1.5c5.9-1.8,10.5-5.6,12.5-10.4c2.7-6.5,0.5-13.9-2.1-20.3
	l-0.4-0.9c-2.3-5.8-4.7-11.9-3.6-17.8c6.7,3.2,14.5,4.9,23.1,4.9c7.1,0,15-1.1,23.4-3.3c-0.7,0.7-1.3,1.4-1.8,2.2h0
	c-0.4,0.6-0.8,1.2-1.1,1.8c-0.1,0.2-0.2,0.4-0.3,0.6c-0.1,0.2-0.2,0.5-0.3,0.7c-0.2,0.5-0.5,1.1-0.7,1.6c-1.5,4.1-1.8,8.5-1.8,11.9
	c-0.1,3.5,0.1,6.1,0.5,8.5c1.8,9.5,8.3,17.3,13.8,23c2,2.1,3.7,3.7,5.3,5.1c1.1,0.9,2.1,1.8,3.3,2.6c-0.6-0.3-1.2-0.6-1.9-0.9
	c-1.8-0.9-3.6-1.8-5.5-2.6c-3-1.3-6.1-2.5-9.2-3.5c-2.7-0.9-5.8-1.8-9.2-1.9c-4.9-0.2-9.9,1.2-14,4.1c-2,1.4-3.7,3.2-5.1,5.1
	c-0.6,0.8-1.2,1.7-1.6,2.7c0,0.1-0.1,0.2-0.1,0.2c-0.2,0.4-0.4,0.8-0.6,1.2C305.3,301.8,305.1,302.3,304.9,302.8z M339.7,308
	c-0.1,0-0.1,0-0.2,0c-0.4-0.2-0.8-0.7-1.2-1.3c-1.1-1.8-1.3-4.2-0.6-6.2c0.2-0.5-0.1-1.1-0.6-1.3c-0.5-0.2-1.1,0.1-1.3,0.6
	c-0.8,2.5-0.5,5.5,0.8,7.8c0.7,1.2,1.5,1.9,2.4,2.3c0.5,1.8,0,3.8-1.2,4.9c-0.7,0.6-1.6,0.9-2.6,0.9c-1,0-1.9-0.4-2.6-1c0,0,0,0,0,0
	c-0.2-0.2-0.5-0.4-1-0.8c-0.3-0.2-0.8-0.6-0.9-0.7c-2-3.2-3.2-5.3-3-8.6c0.1-1.2,0.4-2.4,1-3.5c0.3-0.5,0.1-1.1-0.4-1.4
	c-0.5-0.3-1.1-0.1-1.4,0.4c-0.7,1.3-1.2,2.9-1.2,4.4c-0.2,4.2,1.4,6.8,3.3,9.8c0.2,0.4,0.7,0.7,1.4,1.2c0.1,0.1,0.3,0.2,0.4,0.3
	c-0.1,1.1-1.1,2.2-2.3,2.3c-1.3,0.2-2.8-0.6-3.7-1.8c0-0.1-0.1-0.1-0.2-0.2c0,0,0,0,0,0c-2.4-1.9-4-3.8-4.4-6.4
	c-0.2-1.3-0.1-2.7,0-4c0.1-1.6,0.3-3.3,1.1-4.5c0.3-0.4,0.2-1.1-0.2-1.4c-0.4-0.3-1.1-0.2-1.4,0.2c-1.2,1.6-1.4,3.6-1.5,5.6
	c-0.1,1.3-0.1,2.8,0.1,4.3c0.4,3.2,2.4,5.4,4.5,7.3c-0.9,1.8-3.4,2.5-5.3,2.4c-4.3-0.3-8.5-3.5-10.7-8.1c-0.6-1.3-0.9-2.4-1-3.4
	c-0.1-1.1,0.1-2.2,0.5-3.7c1.3-4.3,4-8.2,7.7-10.8c3.4-2.4,7.6-3.8,11.8-3.8c0.3,0,0.6,0,0.9,0c3.1,0.1,6.1,1,8.6,1.8
	c3,1,6,2.1,9,3.5c1.8,0.8,3.7,1.7,5.4,2.6c4.8,2.3,9.7,4.7,14.9,5.9c-1.2,0.5-2.6,0.9-3.9,1.2C353.9,306.7,346.8,307.7,339.7,308z
	 M407.1,297.3c1.7,2.3,1.8,5.7,0.3,7.7c-1.4,1.8-3.7,2.6-6.4,3.5l-21.8,6.7c-0.3,0.1-0.5,0.3-0.7,0.6c-0.1,0.3-0.1,0.6,0.1,0.9
	c1.3,1.8,2.4,4.9,1.1,7.3c-0.6,1.2-2.2,2.1-3.7,2.1c-0.6,0-1.5-0.1-2.1-0.9c0,0,0,0,0,0c-0.1-0.1-0.1-0.1-0.2-0.1
	c0,0-0.1-0.1-0.1-0.1c0,0-0.1,0-0.1,0c-0.1,0-0.2-0.1-0.3-0.1c0,0,0,0,0,0c-2.2-0.1-3.4-0.8-4.4-2.5c-0.1-0.2-0.2-0.4-0.3-0.6
	c-0.1-0.2-0.2-0.4-0.2-0.6l0,0c-0.5-1.6-0.4-3.4,0.4-4.8c0.3-0.5,0.1-1.1-0.4-1.3c-0.5-0.3-1.1-0.1-1.3,0.4
	c-1.1,2.1-1.2,4.7-0.3,6.9c0.1,0.4,0.3,0.7,0.5,1.1c1.2,2.1,2.9,3.2,5.5,3.5c0.1,0.3,0.1,0.6,0,0.9c-0.2,0.8-1,1.6-1.8,1.8
	c-1.1,0.4-2.6,0.2-4.2,0c-0.4-0.1-0.8-0.1-1.2-0.2c-0.8-0.1-1.6-0.1-2.4-0.2c-1.7-1.7-2.7-3.4-3.3-5.2c-0.1-0.2-0.1-0.5-0.2-0.7l0,0
	c-0.4-1.9-0.2-3.9,0.8-5.3c0.3-0.5,0.2-1.1-0.3-1.4c-0.5-0.3-1.1-0.2-1.4,0.3c-1.4,2.1-1.7,5-0.9,7.7c0,0.1,0.1,0.3,0.2,0.4
	c0.1,0.3,0.3,0.7,0.4,1c0,0,0,0,0,0c0.2,0.3,0.3,0.7,0.5,1c0,0.1,0.1,0.1,0.1,0.2c0.2,0.3,0.3,0.5,0.5,0.8c0.2,0.3,0.5,0.7,0.8,1
	c0,0,0,0,0,0c-4.3,0-8.4-0.1-10.9-2.9c-0.2-0.2-0.4-0.4-0.5-0.7c0,0,0,0,0,0c-0.1-0.2-0.3-0.4-0.4-0.7l0,0l0,0
	c-0.7-1.4-0.8-2.8-0.7-3.8c0.2-3.1,2-6.4,4.6-8.6c2.6-2.2,5.6-3.6,8.9-5.1c0.6-0.3,1.2-0.6,1.8-0.8c1.8-0.5,3.6-1.2,5.1-2.4
	c1.7,0.3,3.4,0.5,5.1,0.5c3.1,0,6.1-0.6,8.8-1.8c0.5-0.2,0.7-0.8,0.5-1.3c-0.2-0.5-0.8-0.7-1.3-0.5c-9.6,4.3-20.1-0.9-24.1-3.4
	c-2.3-1.4-4.5-3-6.5-4.7c-1.6-1.3-3.2-2.9-5.2-4.9c-5.3-5.5-11.6-13-13.3-22c-0.4-2.3-0.6-4.8-0.5-8.1c0.1-3.2,0.3-7.4,1.7-11.2
	c1.4-3.8,3.8-6.8,6.7-8.5c0.2-0.1,0.3-0.3,0.4-0.5c2.8-0.8,5.7-1.5,8.5-1.5c0.7,0,1.4,0,2.1,0.1c1.4,0.2,2.8,0.6,4.3,1
	c0.3,0.1,0.6,0.2,1,0.3c0.1,0,0.1,0.1,0.2,0.1c2.5,1.3,4.7,3.1,6.4,5.3c0.2,0.3,0.5,0.4,0.8,0.4c0.2,0,0.4-0.1,0.6-0.2
	c0.4-0.3,0.5-1,0.2-1.4c-0.9-1.2-1.9-2.2-3-3.2c1.3,0.2,2.6,0.3,3.9,0.4c0.2,0,0.4,0,0.5,0.1l0,0c0.8,0.1,1.6,0.2,2.4,0.2
	c0.9,0.1,1.8,0.2,2.6,0.4c10.6,1.9,20.3,9.4,25.5,19.5c4.8,9.5,5.7,21.2,2.6,32.2c-0.1,0.1-0.1,0.1-0.2,0.2
	c-1.5,2.5-4.2,4.3-7.2,4.6c-0.1,0-0.2,0.1-0.3,0.1c-0.1,0-0.1,0.1-0.2,0.1c-0.3,0.2-0.4,0.5-0.4,0.9c0,0,0,0.1,0,0.1v0
	c0,0.1,0.1,0.2,0.1,0.3c0,0,0,0,0,0c0.1,0.1,0.2,0.2,0.3,0.3c0.2,0.1,0.3,0.2,0.6,0.2c0,0,0.1,0,0.1,0c3-0.4,5.9-2,7.7-4.4l0,0
	c0.2-0.2,0.4-0.4,0.5-0.7C403.1,293.8,405.7,295.3,407.1,297.3z M417.8,249c-1.7,9.4-7.3,17.3-14.7,21c-0.2-0.7-0.4-1.4-0.6-2.1
	c-0.1-0.2-0.1-0.4-0.2-0.5c-0.2-0.7-0.4-1.4-0.7-2.1l0,0l0,0c-2.4-6.8-6.4-12.9-11.7-17.8c6.2-7.5,9.4-17.8,8.8-28.4
	c-0.2-3.5-0.8-6.4-1.8-9c-1.8-4.3-4.9-7.9-8-11c-3.7-3.8-7.7-7.3-11.9-10.6c-1.6-1.2-3.3-2.6-4-4.3c1.1-0.4,2.4-0.5,3.8-0.2l0,0h0
	c1.1,0.2,2.3,0.6,3.6,1.2c0,0,0,0,0.1,0c0.4,0.2,0.9,0.4,1.4,0.7c12.2,6.6,22.7,16.7,29.5,28.6c1.4,2.4,2.4,5,3.1,7
	C418.1,231.8,419.2,240.9,417.8,249z"/>
<path class="st3" d="M364.7,303.8c-5.2-1.2-10.1-3.6-14.9-5.9c-1.8-0.9-3.6-1.8-5.4-2.6c-2.9-1.3-5.9-2.5-9-3.5
	c-2.5-0.8-5.5-1.7-8.6-1.8c-0.3,0-0.6,0-0.9,0c-4.2,0-8.4,1.3-11.8,3.8c-3.7,2.6-6.4,6.5-7.7,10.8c-0.4,1.4-0.6,2.6-0.5,3.7
	c0.1,1,0.4,2.1,1,3.4c2.2,4.7,6.4,7.9,10.7,8.1c2,0.1,4.5-0.6,5.3-2.4c-2.2-1.8-4.1-4-4.5-7.3c-0.2-1.5-0.1-3-0.1-4.3
	c0.1-1.9,0.3-3.9,1.5-5.6c0.3-0.4,1-0.5,1.4-0.2c0.4,0.3,0.5,1,0.2,1.4c-0.9,1.2-1,2.9-1.1,4.5c-0.1,1.2-0.1,2.6,0,4
	c0.4,2.7,2,4.5,4.4,6.4c0,0,0,0,0,0c0.1,0,0.1,0.1,0.2,0.2c0.9,1.3,2.4,2,3.7,1.8c1.2-0.2,2.2-1.2,2.3-2.3c-0.1-0.1-0.3-0.2-0.4-0.3
	c-0.7-0.5-1.2-0.9-1.4-1.2c-1.9-3-3.5-5.6-3.3-9.8c0.1-1.5,0.5-3,1.2-4.4c0.3-0.5,0.9-0.7,1.4-0.4c0.5,0.3,0.7,0.9,0.4,1.4
	c-0.6,1.1-0.9,2.3-1,3.5c-0.2,3.4,1,5.4,3,8.6c0.1,0.1,0.6,0.4,0.9,0.7c0.5,0.3,0.8,0.6,1,0.8c0,0,0,0,0,0c0.6,0.6,1.5,1,2.6,1
	c1,0,1.9-0.3,2.6-0.9c1.3-1.1,1.7-3.1,1.2-4.9c-0.9-0.4-1.8-1.1-2.4-2.3c-1.3-2.3-1.6-5.2-0.8-7.8c0.2-0.5,0.7-0.8,1.3-0.6
	c0.5,0.2,0.8,0.7,0.6,1.3c-0.7,2-0.4,4.3,0.6,6.2c0.4,0.6,0.8,1.1,1.2,1.3c0.1,0,0.1,0,0.2,0c7.1-0.3,14.2-1.3,21.1-3
	C362.1,304.7,363.5,304.3,364.7,303.8z"/>
<path class="st6" d="M245.6,322.6c3.7-0.6,7.6-1.3,10.1-4c1.1-1.2,1.9-2.7,2.4-4.3c1.9-5.1,1.9-10.9,0.4-16.1
	c0.3,0.1,0.6,0.3,0.8,0.4c-0.5-0.3-1.1-0.6-1.7-0.8c-1.4-0.4-3-0.5-4.5-0.5l-1.3,0c-3.1,0-6.3-0.1-9.4-0.2c-3.1-0.1-6.2-0.2-9.3-0.2
	c-3,0-5.7,0.1-8.1,0.3c-10.4,0.7-18.9,3.5-25.2,8c-0.1,0.1-0.3,0.2-0.4,0.3c0.1,0.1,0.2,0.2,0.4,0.4c0.9,1,1.9,2,2.8,3
	c5.9,4.4,10.1,10.9,11.7,18.2l0.1,0.4c0,0.2,0.1,0.4,0.1,0.6c3-1.3,6.3-1.8,9.5-2.3C231.1,324.8,238.3,323.7,245.6,322.6z"/>
<path class="st7" d="M206.3,290.8c3.1-0.6,5.7-2.7,8-4.6c0.2-0.2,0.5-0.3,0.8-0.2c0.3,0.1,0.5,0.2,0.7,0.5c0.8,1.5,2.1,2.6,3.4,2.8
	c1.2,0.2,2.8-0.6,3-1.9c0.2-1.3-0.9-2.5-2-3.2c-0.9-0.6-1.9-1-3-1.2c-0.1,0-0.1,0.1-0.2,0.1c-0.1,0.1-0.3,0.1-0.4,0.1
	c-0.2,0-0.4-0.1-0.5-0.2c-0.1-0.1-0.2-0.1-0.2-0.2c0,0,0,0-0.1,0c-0.5,0-0.9-0.4-1-0.9c-0.3-2.2-2.3-4-4.5-4l-0.1,0
	c-0.3,0-0.6,0.1-0.8,0.2c-0.6,0.3-0.8,1.3-0.5,2.1c0.4,1,1.3,1.8,2.1,2.5c0.3,0.2,0.4,0.6,0.3,1c-0.1,0.4-0.4,0.6-0.7,0.7
	c-2.3,0.6-4.5,1.5-6.6,2.8c-0.4,0.3-0.5,0.4-0.5,0.4c-0.1,0.4-0.4,0.7-0.8,0.8c-0.4,0.1-0.8-0.1-1.1-0.4c-0.4-0.6-1-1.2-1.7-1.5
	c-0.3-0.2-0.6-0.3-0.9-0.3c-0.3,0-0.6,0-0.9,0.1c-1.1,0.4-1.9,1.7-1.9,2.9c0,1.2,0.9,2.4,2,2.9c1.1,0.5,2.6,0.3,3.7-0.5
	c0.2-0.1,0.4-0.2,0.6-0.2c0.2,0,0.4,0.1,0.6,0.2c0.4,0.2,0.5,0.7,0.4,1.1c-0.3,1.1,0.1,2.4,1,3.1c0.9,0.7,2.3,0.9,3.3,0.3
	c0.2-0.1,0.3-0.2,0.3-0.2c0.1-0.2-0.1-0.8-0.6-1.2c-0.1-0.1-0.3-0.2-0.4-0.4c-0.7-0.6-1.5-1.2-1.7-2.3c-0.1-0.3,0-0.6,0.1-0.8
	C205.8,291,206.1,290.8,206.3,290.8z"/>
<path class="st3" d="M161.1,327.3c-0.6-1-1-2-1.4-3.1C160.1,325.2,160.6,326.3,161.1,327.3z"/>
<path class="st3" d="M172.8,331.1c-1.3-1.6-2.5-3.4-3.1-5.4C170.2,327.7,171.4,329.5,172.8,331.1z"/>
<path class="st3" d="M187.9,321.4c0.8-0.4,1.2,0.9,2,1.2c0.3,0.1,0.7,0.1,1.1,0c2.9-0.6,5.7-1.5,8.5-2.6l0,0
	c-0.2-0.2-0.5-0.4-0.7-0.6c-3.8-2.8-7.1-6.1-10-9.8c-0.6-0.6-1.1-1.1-1.7-1.7c0,0,0,0,0,0c-0.3,0.1-0.5,0.1-0.8,0.2
	c-1.2,0.4-2.5,0.7-3.9,0.7c-0.4,0-0.9,0-1.3-0.1c-1.4-0.3-2.6-1.1-3.7-1.8c-0.5-0.3-0.9-0.6-1.4-0.9c-1.4-0.8-3.2-1.2-4.9-1.2
	c-2.8,0-5.6,1-7.7,2.8c-3.3,2.9-5.1,7.7-4.6,12.5c0.1,1.4,0.5,2.7,0.9,4l0,0c0.2,0.4,0.4,0.9,0.7,1.3c0.9,1.5,2.8,2.7,4.4,1.8
	c1.6-0.8,1.7-3.1,2.6-4.5v0c0-0.2,0-0.3,0-0.5c0-1.2,0.1-2.6,0.6-4c0.5-1.5,1.5-2.7,2.8-3.4c0.5-0.2,1.1,0,1.3,0.4
	c0.2,0.5,0,1.1-0.4,1.3c-0.8,0.4-1.4,1.2-1.8,2.2c-0.4,1.1-0.4,2.2-0.5,3.3c0,0.9,0,1.9,0.2,2.9c0,0.1,0.1,0.3,0.1,0.4
	c0.8,1,2,1.8,3.2,2.1c0.8,0.2,1.7,0.3,2.4-0.1c1.7-1,1-3.7,1.4-5.6c0.1-1.7,0.5-3.4,0.8-4.8c0.1-0.5,0.7-0.9,1.2-0.8
	c0.5,0.1,0.9,0.7,0.8,1.2c-0.5,2.2-1.1,5.2-0.7,8c0,0.1,0,0.2,0,0.2v0v0c0.8,1.5,1.7,3,3.2,3.7c1.5,0.8,3.7,0.5,4.5-1
	c0.3-0.4,0.4-0.9,0.5-1.4c0-1.3,0-2.6-0.1-3.9c0-0.6,0.4-1,0.9-1.1c-0.1,0-0.1,0-0.2,0C187.8,322.2,187.9,321.8,187.9,321.4z"/>
<path class="st3" d="M179.6,329.2c-0.4-1.1-0.6-2.1-0.7-3.1C179,327.1,179.2,328.1,179.6,329.2z"/>
<path class="st1" d="M245.4,283.3c-3.4-2.2-6.1-5.3-8.3-8.1c-2,0.2-4.2,0.3-6.5,0.3c-3.3,0-5.9-0.3-8.4-1.1
	c-1.1-0.3-2.5-0.8-3.6-1.9c-0.1-0.1-0.2-0.2-0.3-0.3c-0.2-0.2-0.4-0.4-0.5-0.4c-0.2-0.1-0.5-0.1-0.8-0.1c-4-0.3-8-0.9-11.9-1.8
	c0.1,0.3,0.2,0.6,0.4,1c0.6,1.3,1.4,2.8,2.8,3.7c0.8,0.6,1.8,0.9,2.9,1.2c0.7,0.2,1.4,0.4,2,0.7c0.8,0.3,1.5,0.8,2.2,1.4
	c0-0.1,0-0.2,0-0.3c0.2-1.9,1.8-3.9,3.9-3.7c0.3,0,0.6,0.3,0.8,0.6c0.9,2,0.7,4.3-0.5,6.2c0.3,0.1,0.6,0.2,0.9,0.2
	c0.3,0.1,0.6,0.2,0.9,0.3c1.6,0.4,3.2,0.6,4.8,0.7c0.8,0.1,1.5,0.1,2.3,0.2c0,0,0,0,0,0c0.4-0.2,0.8-0.1,1.1,0.1
	c5.1,0.5,10.3,0.9,15.4,1.1C245.3,283.3,245.4,283.3,245.4,283.3z"/>
<path class="st8" d="M270.2,276.8c1.2,0.9,2.9,1.3,4.7,1.4l0.3,0c1.4,0,2.9-0.2,4.7-0.7c0.3-0.1,0.8-0.2,1.3-0.2
	c0.7,0,1.1,0.2,1.5,0.7c0.1,0.2,0.2,0.4,0.3,0.6c0.1,0.1,0.1,0.3,0.2,0.3c0.1,0.1,0.2,0.2,0.4,0.2c0.2,0,0.3-0.1,0.4-0.2
	c0.1-0.2,0.1-0.5,0.1-0.9c0-0.2,0-0.5,0-0.7c0.1-1.3,1.2-2.1,2.1-2.8l0.2-0.2c1.8-1.4,3.1-3.2,3.8-5.1c0.8-2.1,0.8-4.3,0-6.2
	c-1.1-3.2-1.3-3.6-3.3-5.2c-1.5-1.2-3.5-1.9-5.7-2c-1.9-0.1-3.9,0.3-6.1,1.1c-5.9,2.1-9.2,5.4-9.6,9.9c-0.3,2.8,0.7,5.9,2.7,8.3
	C268.9,275.7,269.5,276.3,270.2,276.8z M272.3,260.2c0.7-0.9,1.8-1.4,2.9-1.8c1.2-0.4,2.4-0.7,3.6-0.5c0.3,0,0.6,0.1,0.8,0.3
	c0.2,0.2,0.4,0.5,0.2,0.8c-0.2,0.4-0.8,0.4-1.2,0.4c-1.4,0.1-2.5,1.1-3.2,2.3c-0.3,0.5-0.6,1.2-1.1,1.4c-0.7,0.3-1.4-0.1-1.9-0.6
	c-0.2-0.2-0.4-0.4-0.5-0.7C271.7,261.2,271.9,260.6,272.3,260.2z"/>
<path d="M269.6,277.6c1.4,1,3.2,1.5,5.2,1.6l0.3,0c1.5,0,3.1-0.2,5-0.8c0.3-0.1,0.7-0.2,1-0.2c0.4,0,0.6,0.1,0.7,0.2
	c0.1,0.1,0.1,0.2,0.2,0.3c0.1,0.2,0.2,0.4,0.3,0.6c0.3,0.4,0.7,0.6,1.2,0.6c0.5,0,1-0.2,1.3-0.7c0.3-0.5,0.3-1,0.2-1.5
	c0-0.2,0-0.4,0-0.6c0.1-0.9,0.9-1.5,1.7-2.1l0.2-0.2c1.9-1.5,3.4-3.4,4.1-5.5c0.8-2.3,0.9-4.8,0-6.9c-1.1-3.2-1.4-3.8-3.6-5.6
	c-1.6-1.3-3.9-2.1-6.2-2.2c-2-0.1-4.1,0.3-6.5,1.1c-6.3,2.2-9.8,5.8-10.3,10.7c-0.3,3.1,0.8,6.4,3,9
	C268.2,276.4,268.9,277.1,269.6,277.6z M265.4,266.6c0.5-4.4,3.7-7.8,9.6-9.9c2.2-0.8,4.2-1.1,6.1-1.1c2.2,0.1,4.2,0.8,5.7,2
	c2,1.6,2.2,2,3.3,5.2c0.7,1.9,0.7,4.1,0,6.2c-0.7,1.9-2,3.7-3.8,5.1l-0.2,0.2c-0.9,0.7-2,1.5-2.1,2.8c0,0.2,0,0.5,0,0.7
	c0,0.4,0,0.7-0.1,0.9c-0.1,0.1-0.2,0.2-0.4,0.2c-0.2,0-0.3-0.1-0.4-0.2c-0.1-0.1-0.1-0.2-0.2-0.3c-0.1-0.2-0.2-0.4-0.3-0.6
	c-0.3-0.4-0.8-0.7-1.5-0.7c-0.5,0-1,0.1-1.3,0.2c-1.8,0.5-3.3,0.7-4.7,0.7l-0.3,0c-1.8,0-3.4-0.5-4.7-1.4c-0.6-0.4-1.3-1.1-2-1.9
	C266.1,272.4,265.1,269.4,265.4,266.6z"/>
<path class="st9" d="M272.3,262.3c0.5,0.5,1.2,0.9,1.9,0.6c0.6-0.2,0.8-0.8,1.1-1.4c0.7-1.2,1.9-2.2,3.2-2.3c0.5,0,1,0,1.2-0.4
	c0.1-0.3,0-0.6-0.2-0.8c-0.2-0.2-0.5-0.3-0.8-0.3c-1.2-0.1-2.5,0.1-3.6,0.5c-1.1,0.4-2.2,0.9-2.9,1.8c-0.3,0.4-0.6,1-0.4,1.5
	C272,261.9,272.1,262.1,272.3,262.3z"/>
<path class="st8" d="M256,281.2c1.3,0.4,2.8,0.5,4.2,0.2c0.3-0.1,0.7-0.2,0.7-0.5c0.1-0.4-0.4-0.7-0.8-0.8c-0.5-0.1-1,0-1.5,0
	c-1.4,0-2.6-1-3.1-2.2c-0.2-0.5-0.3-1.1-0.7-1.4c-0.3-0.2-0.7-0.3-1.1-0.3c-0.2,0-0.5,0-0.7,0.1c-0.2,0.1-0.2,0.3-0.2,0.5
	c-0.2,1.3,0.4,2.8,1.5,3.6C254.7,280.8,255.3,281,256,281.2z"/>
<path class="st9" d="M257.1,228.8c-0.1,0-0.2,0.1-0.3,0.1c-1.7,0.5-3.4,0.8-5,1.2c-0.7,0.1-1.4,0.3-2.1,0.4c2.3,1.1,3.8,3.6,3.9,6.1
	c0.1,2.5-1.2,5-3.4,6.4c-1.3,0.8-2.8,1.3-4.4,1.3c-1,0-1.9-0.2-2.8-0.5c-2.3-0.9-4.2-2.8-5.1-5.1c-0.1-0.3-0.2-0.7-0.3-1
	c-0.4,0.6-0.8,1.2-1.1,1.8c0,0.1-0.1,0.2-0.2,0.3c0.1,0.1,0.2,0.2,0.3,0.2c2.2,2.1,5.7,4.8,10,5.3c0.9,0.1,1.8,0.1,2.7,0
	c1.1-0.1,2.1-0.3,2.8-0.7c0.8-0.5,1.6-1.2,2.1-1.7c1.5-1.6,2.6-3.3,3.1-5c0.5-1.7,0.6-3.7,0.3-6.2
	C257.5,230.7,257.3,229.7,257.1,228.8z"/>
<path class="st9" d="M270.4,232.1c0.4,0.6,0.9,1.2,1.6,1.8c0.6,0.5,1.3,1.1,2,1.5c1.9,1,4.2,1.2,6.2,1.2c0.2,0,0.4,0,0.6,0
	c0.6,0,1.1,0,1.5-0.1c2.5-0.3,4.8-1.7,6.1-3.8c0.4-0.6,0.7-1.2,1-1.8c-0.3-0.2-0.6-0.5-0.9-0.7l-0.3-0.3c-1.1-0.9-2.1-1.7-3.1-2.4
	c0.2,0.7,0.1,1.4,0.1,1.9c-0.2,1.6-0.7,2.9-1.4,4c-1.2,1.7-3.4,2.8-5.7,2.8c-0.6,0-1.1-0.1-1.7-0.2c-2.4-0.6-4.4-2.3-5.2-4.6
	c-0.8-2.3-0.4-5,1.2-6.8c0.4-0.4,0.8-0.8,1.3-1.1c-0.1,0-0.3,0-0.4,0l-0.1,0c-0.2,0-0.3,0-0.5,0c-0.2,0-0.4,0-0.7-0.1
	c-0.2,0.8-0.7,1.4-1.1,2c-0.1,0.1-0.2,0.3-0.3,0.4C269.5,227.8,269.3,230.4,270.4,232.1z"/>
<path class="st10" d="M231.8,220.8c0.3,0.1,0.7,0,1-0.2c1.2-0.9,1.3-2.7,2.1-4c0.7-1.1,2-1.7,3.2-2.1c1.5-0.5,3.2-0.6,4.8-0.5
	c0.5,0,1.1,0,1.2-0.5c0.1-0.4-0.3-0.7-0.7-0.8c-1.5-0.6-3.1-0.5-4.6-0.5c-1.9,0.1-4,0.3-5.3,1.6c-0.6,0.6-1,1.5-1.4,2.3
	c-0.4,0.9-0.8,1.9-1,2.9C231.1,219.8,231.1,220.6,231.8,220.8z"/>
<path class="st10" d="M275.8,212.2c0.6,0.2,1.2-0.3,1.6-0.9c0.7-0.9,1.5-1.8,2.5-2.1c0.9-0.3,1.8-0.1,2.7,0.3s1.5,1,2.1,1.7
	c0.8,0.9,1.7,1.9,2.8,2c0.1-0.6-0.2-1.2-0.5-1.6c-0.8-1.2-1.7-2.3-2.7-3.3c-1.1-0.9-2.4-1.6-3.9-1.6c-2.1,0-4.1,1.6-4.9,3.5
	C275.2,211,275.2,211.9,275.8,212.2z"/>
<path class="st8" d="M243.3,242.9c2,0.8,4.5,0.5,6.3-0.7c1.8-1.2,3-3.4,2.9-5.5c-0.1-2.2-1.5-4.4-3.5-5.3c-0.4-0.2-0.8-0.3-1.2-0.4
	c0,0-0.1,0-0.1,0c-3.4,0.9-5.9,2.1-7.7,3.7c-0.6,0.5-1.1,1.1-1.6,1.7c0,0.7,0.1,1.3,0.3,1.9C239.6,240.4,241.3,242.1,243.3,242.9z
	 M241,235.3c0.3-0.5,0.8-0.8,1.4-0.8c0.3,0,0.6,0,0.9,0.1c0.7,0.2,1.5,0.7,1.7,1.4c0.1,0.3,0,0.6,0,0.9c-0.1,0.5-0.2,0.9-0.5,1.3
	c-0.4,0.5-1.2,0.6-1.8,0.6c-0.7,0-1.5-0.3-1.9-0.9c-0.2-0.3-0.2-0.7-0.2-1C240.5,236.3,240.7,235.8,241,235.3z"/>
<path d="M243,243.8c0.9,0.3,1.9,0.5,2.8,0.5c1.6,0,3.1-0.4,4.4-1.3c2.1-1.4,3.5-3.9,3.4-6.4c-0.1-2.5-1.7-5-3.9-6.1
	c-0.6,0.1-1.2,0.3-1.8,0.4c0,0,0,0,0,0c0,0,0.1,0,0.1,0c0.4,0,0.7,0.2,1.2,0.4c2,1,3.4,3.1,3.5,5.3c0.1,2.1-1.1,4.3-2.9,5.5
	c-1.8,1.2-4.3,1.4-6.3,0.7c-2-0.8-3.7-2.5-4.5-4.6c-0.2-0.5-0.4-1.2-0.3-1.9c-0.3,0.4-0.6,0.8-0.9,1.2c0.1,0.3,0.2,0.7,0.3,1
	C238.8,241.1,240.7,243,243,243.8z"/>
<path class="st8" d="M272.2,231.1c0.7,1.9,2.5,3.5,4.5,4c0.5,0.1,1,0.2,1.4,0.2c2,0,3.8-0.9,4.9-2.3c0.7-0.9,1.1-2.1,1.2-3.5
	c0.1-0.6,0.1-1.5-0.3-2.2c-0.2-0.3-0.4-0.6-0.7-0.8c-0.7-0.4-1.3-0.8-2-1.1c-1.8-0.9-3.6-1.4-5.4-1.7c-1.1,0.3-2,0.8-2.8,1.7
	C271.9,226.8,271.5,229.1,272.2,231.1z M273.6,228.8c0.1-0.2,0.3-0.4,0.5-0.5c0.7-0.6,1.8-0.9,2.7-0.4c0.3,0.2,0.5,0.4,0.7,0.7
	c0.4,0.6,0.5,1.5,0.2,2.2c-0.3,0.7-1.1,1.2-1.8,1.1c-0.3,0-0.6-0.1-0.9-0.3c-0.5-0.2-1.1-0.5-1.3-1c-0.1-0.3-0.2-0.6-0.2-0.9
	C273.4,229.4,273.4,229,273.6,228.8z"/>
<path d="M271.3,231.5c0.8,2.3,2.8,4,5.2,4.6c0.5,0.1,1.1,0.2,1.7,0.2c2.3,0,4.4-1.1,5.7-2.8c0.8-1,1.2-2.4,1.4-4
	c0.1-0.5,0.1-1.2-0.1-1.9c-0.6-0.4-1.3-0.8-1.9-1.2c0.3,0.2,0.5,0.5,0.7,0.8c0.4,0.7,0.3,1.6,0.3,2.2c-0.2,1.4-0.6,2.6-1.2,3.5
	c-1,1.4-2.9,2.3-4.9,2.3c-0.5,0-1-0.1-1.4-0.2c-2-0.5-3.8-2.1-4.5-4c-0.7-2-0.3-4.3,1-5.8c0.7-0.8,1.7-1.4,2.8-1.7
	c-0.7-0.1-1.5-0.1-2.2-0.1c-0.5,0.3-1,0.7-1.3,1.1C270.9,226.4,270.4,229.2,271.3,231.5z"/>
<path class="st9" d="M242.6,238.8c0.7,0,1.4-0.1,1.8-0.6c0.3-0.3,0.4-0.8,0.5-1.3c0.1-0.3,0.1-0.6,0-0.9c-0.2-0.8-1-1.2-1.7-1.4
	c-0.3-0.1-0.6-0.2-0.9-0.1c-0.6,0-1.1,0.4-1.4,0.8c-0.3,0.5-0.5,1-0.5,1.6c0,0.3,0,0.7,0.2,1C241.1,238.5,241.9,238.8,242.6,238.8z"
	/>
<path class="st9" d="M274.8,231.5c0.3,0.1,0.6,0.2,0.9,0.3c0.7,0.1,1.5-0.4,1.8-1.1c0.3-0.7,0.2-1.5-0.2-2.2
	c-0.2-0.3-0.4-0.5-0.7-0.7c-0.8-0.5-1.9-0.2-2.7,0.4c-0.2,0.1-0.4,0.3-0.5,0.5c-0.2,0.3-0.2,0.6-0.2,0.9c0,0.3,0,0.6,0.2,0.9
	C273.8,231.1,274.3,231.3,274.8,231.5z"/>
<path class="st4" d="M272.9,192.4c0.5,0,1.2,0.1,1.8,0.4c0.6,0.4,1.1,1,1.3,1.8c0.2,0.9,0,2-0.6,2.8c-0.2,0.2-0.3,0.4-0.5,0.6
	c0.5,0.1,1,0.2,1.4,0.3l0,0c0.1-0.1,0.2-0.3,0.4-0.4c3.2-3.5,6.4-7.2,8.4-11.5c2-4.3,2.7-9.5,0.6-13.8c1.4-1.3,3.8-1.1,5.3,0.1
	s2.5,2.9,3.2,4.7c2.9,6.5,4.8,13.6,5.5,20.7c0.5,5.1,0.7,10.9,4.3,14.5c3.4,3.4,8.8,3.9,13.4,2.9c0.3-0.1,0.6-0.1,0.9-0.2
	c1-0.7,1.7-1.5,2.1-2.3c0.4-0.9,0.6-2.1,0.4-3.7c-0.3-2.9-1.2-5.7-2.1-8.3c-3.1-8.9-7.1-17.6-10.9-26.1c-0.9-1.9-1.8-3.9-2.6-5.8
	l-0.1-0.1c-1.4-3.1-2.8-6.4-5.1-8.9c-2.4-2.7-5.7-4.1-8.6-3.7c-3.7,0.5-6.6,3.9-8.4,6.5c-3.8,5.3-6.7,11.2-8.6,17.5
	c-0.2,0.8-0.5,1.6-0.7,2.4c-0.9,3.3-1.9,6.7-3.8,9.5L272.9,192.4z"/>
<path class="st1" d="M218.6,276c-0.6,0.3-1,1.1-1.1,1.8c-0.1,0.7,0,1.5,0.1,2.3c0,0,0,0,0,0.1C218.5,279,219,277.4,218.6,276z"/>
<path class="st4" d="M224,219.3c0.1,1.1,0.1,2.2,0.2,3.4C224.1,221.5,224.1,220.4,224,219.3z"/>
<path class="st4" d="M223.1,265.6c1.3-0.3,2.7-0.7,3.5-1.8c1-1.3,0.7-3.2,0.3-4.8c-2.5-11.4-6.7-22.5-6.9-34.2
	c-0.1-7.9,1.8-15.8,5.4-22.9l0,0c0.4-1.5,0.9-2.9,1.4-4.3c0.2-0.4,0.2-0.8,0.2-1c0,0,0,0-0.1,0c-5.1,1-9.1,4.4-11.6,7.1
	c-3.1,3.4-5.4,7.3-8,11.7c-1.5,2.6-2.9,5.2-4.1,7.8c-5.4,12-5.5,26-5.7,38.3c0,0.9,0,2,0.4,2.8c0.7,1.3,2.4,1.8,3.9,2.3
	c-0.4-0.1-0.7-0.2-1.1-0.3C208,265.2,215.8,267.1,223.1,265.6z"/>
<path class="st11" d="M163.8,158.9c0,0.2,0.1,0.4,0.1,0.7c0,0.1,0,0.3,0,0.4c0,0,0.2,0.1,0.9,0.2l7.8,0.4c0.2,0,0.5,0,0.7,0
	c1.4,0,2.5,0.1,3.5,0.2c0.1,0,0.2,0,0.3,0l0.2,0c0.1-0.5,0.4-0.9,0.7-1.3c0.8-1,2.3-1.6,3.7-1.6c0,0,0.1,0,0.1,0
	c1.1,0,2.1,0.3,3.1,0.6c0.7,0.2,1.4,0.4,2.1,0.5c2.4,0.3,4.9-0.9,6.2-2.9c0.9-1.4,1.3-3.1,1.6-4.9c2.7-14.4,3.2-29.1,1.5-43.7
	c-0.6-5.6-1.8-11.8-6-15.4c-3.6-3.2-8.8-4-13.4-4.5c-1.4-0.1-2.7-0.3-3.9-0.4c-0.1,0.1-0.3,0.1-0.5,0.1c-0.1,0-0.2,0-0.3,0
	c-0.3-0.1-0.6-0.1-0.9-0.2c-3.9-0.2-7-0.1-10,0.2c-5.6,0.7-10.4,2.4-14.3,5.2c-2,1.5-3.6,3.1-4.5,4.8c-1.6,2.8-1.9,6.2-2,10
	c-0.6,14.2-0.7,29.3,3.2,43.5c0.4,1.4,0.8,2.8,1.6,3.8c1.7,2.1,4.7,2.4,6.3,2.4c1.4,0,2.7-0.2,4.1-0.3c1.3-0.2,2.6-0.3,3.9-0.3
	l0.2,0C161.9,156.4,163.5,157.3,163.8,158.9z M174.5,98.9c0.3-0.8,1.1-1.4,2-1.4c0.4,0,0.7,0.1,1,0.3c0.5,0.3,0.9,0.8,1,1.5
	c0.1,0.6-0.1,1.2-0.5,1.7c-0.4,0.4-1,0.7-1.6,0.7h0c-0.4,0-0.7-0.1-1-0.3C174.6,100.9,174.2,99.8,174.5,98.9z M170.7,97.5
	c0.2-0.2,0.3-0.3,0.6-0.3c0.8-0.1,1.5-0.1,2.3,0.2c0.4,0.1,0.7,0.5,0.7,1l0,2.1c0,0.4-0.2,0.7-0.5,0.9c-0.4,0.2-0.8,0.3-1.2,0.3
	c-0.8,0-1.5-0.3-1.9-0.9C169.9,99.7,169.9,98.3,170.7,97.5z M166.5,104.1c0.6-0.6,1.4-0.9,2.2-1c1.7-0.1,3.4,1.3,3.6,2.9
	c0.1,0.9-0.2,1.9-0.8,2.7c-0.7,0.8-1.6,1.2-2.5,1.2c0,0-0.1,0-0.1,0c-0.9,0-1.9-0.4-2.5-1.2c-0.7-0.7-1-1.7-0.9-2.6
	C165.5,105.4,165.9,104.6,166.5,104.1z M164.2,99.1c0.3,0.2,0.4,0.5,0.4,0.8c0,0.1,0,0.3,0,0.4c0.1,0.5,0.1,1-0.1,1.6
	c-0.3,0.7-1.1,1.2-1.9,1.2c-0.5,0-1-0.2-1.3-0.5c-0.5-0.4-0.7-0.9-0.8-1.5c0-0.6,0.2-1.3,0.6-1.7C161.8,98.6,163.2,98.5,164.2,99.1z
	 M158.5,95c0.6-0.9,1.9-1.2,2.8-0.7c0.5,0.3,0.8,0.8,1,1.4c0.1,0.6,0,1.2-0.4,1.7c-0.4,0.6-1.1,0.9-1.8,0.9c-0.4,0-0.8-0.1-1.1-0.3
	c-0.1-0.1-0.2-0.1-0.3-0.2C158,96.9,157.9,95.8,158.5,95z M156.6,103.7c0.6-0.9,1.6-1.4,2.7-1.4c0.5,0,1,0.1,1.4,0.3
	c1.4,0.7,2.1,2.5,1.5,3.9c-0.5,1.2-1.7,2-3,2c-0.3,0-0.5,0-0.8-0.1c-0.5-0.1-1-0.4-1.4-0.8c-0.2-0.2-0.4-0.5-0.6-0.7
	C155.9,105.9,156,104.7,156.6,103.7z M155.8,153.1c-1.4,0-3.4-0.1-4.8-1.4c-1.4-1.3-1.6-3.1-1.7-4.9l-1.2-19.1
	c-0.3-4.3-0.6-8.7-0.1-13.1c0.1-0.7,0.3-2.9,2.1-3.6c0.3-0.1,0.6-0.2,0.9-0.2c0.9,0,1.6,0.4,2.4,0.8c1.5,0.8,3.2,1.6,4.7,1.6h0
	c0.3,0,0.6,0,0.9-0.1c0.7-0.2,1.5-0.5,2.2-0.9c0.6-0.3,1.2-0.6,1.9-0.9c1-0.3,2-0.5,3.2-0.5c1.7,0,3.5,0.4,5.2,0.8
	c1.7,0.4,3.3,0.7,4.8,0.7c0.8,0,1.6-0.1,2.3-0.3c0.7-0.2,1.4-0.6,2.1-0.9c0.7-0.4,1.5-0.7,2.3-1c0.6-0.2,1.3-0.3,2-0.3
	c1.5,0,2.8,0.6,3.6,1.6c0.9,1.3,0.8,2.9,0.8,4l-1.7,29c-0.2,3.4-0.8,7-3.8,8.6c-1.2,0.6-2.6,0.7-3.7,0.7c-0.3,0-0.6,0-0.9,0
	L155.8,153.1z"/>
<polygon class="st11" points="168.9,109 168.9,109 168.9,109 "/>
<path class="st12" d="M180,151.7c0.9,0,2-0.1,2.8-0.5c2.1-1.1,2.6-4.1,2.7-6.9l1.7-29c0.1-1.1,0.1-2.1-0.4-2.7
	c-0.5-0.7-1.4-0.8-1.9-0.8c-0.5,0-0.9,0.1-1.4,0.2c-0.7,0.2-1.3,0.5-2,0.9c-0.8,0.4-1.6,0.8-2.4,1c-0.9,0.3-1.8,0.4-2.8,0.4
	c-1.8,0-3.5-0.4-5.2-0.8c-1.7-0.4-3.2-0.7-4.8-0.7c-0.9,0-1.7,0.1-2.5,0.4c-0.5,0.2-1.1,0.5-1.6,0.8c-0.8,0.4-1.7,0.9-2.7,1.1
	c-0.4,0.1-0.9,0.1-1.4,0.1h0c-2,0-3.9-0.9-5.7-1.8c-0.4-0.2-1-0.5-1.4-0.5c-0.1,0-0.2,0-0.2,0c-0.4,0.1-0.7,0.8-0.8,1.9
	c-0.4,4.2-0.1,8.6,0.1,12.8l1.2,19.1c0.1,1.4,0.2,2.8,1.1,3.6c0.8,0.7,2.1,0.8,3.5,0.9l23.2,0.6C179.4,151.7,179.7,151.7,180,151.7z
	 M176.9,128.6c-1.6,0-3.1,0.1-4.7,0.1c-6,0-11.9-0.3-17.9-0.9c-0.3,0-0.5-0.3-0.4-0.5c0-0.3,0.3-0.5,0.5-0.4c7.4,0.8,15,1,22.4,0.8
	c0.3,0,0.5,0.2,0.5,0.5C177.4,128.3,177.1,128.5,176.9,128.6z M161.7,123.3c-2.7,0-5.4-0.2-8-0.7c-0.3-0.1-0.4-0.3-0.4-0.6
	s0.3-0.4,0.6-0.4c8.3,1.7,17.1,0.1,24.9-1.2c0.3,0,0.5,0.1,0.6,0.4c0,0.3-0.1,0.5-0.4,0.6C173.5,122.3,167.6,123.3,161.7,123.3z"/>
<path class="st5" d="M180,153.7c1.2,0,2.5-0.1,3.7-0.7c3-1.6,3.6-5.2,3.8-8.6l1.7-29c0.1-1.1,0.2-2.7-0.8-4c-0.8-1-2-1.6-3.6-1.6
	c-0.7,0-1.4,0.1-2,0.3c-0.8,0.3-1.6,0.6-2.3,1c-0.7,0.4-1.4,0.7-2.1,0.9c-0.7,0.2-1.4,0.3-2.3,0.3c-1.5,0-3.1-0.3-4.8-0.7
	c-1.7-0.4-3.4-0.8-5.2-0.8c-1.2,0-2.2,0.2-3.2,0.5c-0.7,0.2-1.3,0.6-1.9,0.9c-0.8,0.4-1.5,0.8-2.2,0.9c-0.3,0.1-0.6,0.1-0.9,0.1h0
	c-1.6,0-3.2-0.7-4.7-1.6c-0.7-0.4-1.5-0.8-2.4-0.8c-0.3,0-0.6,0.1-0.9,0.2c-1.8,0.7-2,2.8-2.1,3.6c-0.4,4.4-0.1,8.8,0.1,13.1
	l1.2,19.1c0.1,1.8,0.3,3.6,1.7,4.9c1.4,1.3,3.5,1.4,4.8,1.4l23.2,0.6C179.3,153.7,179.7,153.7,180,153.7z M152.4,150.3
	c-0.8-0.8-1-2.1-1.1-3.6l-1.2-19.1c-0.3-4.2-0.6-8.6-0.1-12.8c0.1-1.1,0.4-1.7,0.8-1.9c0.1,0,0.1,0,0.2,0c0.4,0,1,0.3,1.4,0.5
	c1.8,0.9,3.7,1.8,5.7,1.8h0c0.5,0,0.9,0,1.4-0.1c1-0.2,1.9-0.7,2.7-1.1c0.6-0.3,1.1-0.6,1.6-0.8c0.8-0.3,1.6-0.4,2.5-0.4
	c1.5,0,3.1,0.3,4.8,0.7c1.7,0.4,3.5,0.8,5.2,0.8c1,0,2-0.1,2.8-0.4c0.9-0.3,1.7-0.7,2.4-1c0.7-0.3,1.3-0.7,2-0.9
	c0.5-0.1,0.9-0.2,1.4-0.2c0.5,0,1.4,0.1,1.9,0.8c0.5,0.6,0.4,1.6,0.4,2.7l-1.7,29c-0.2,2.8-0.6,5.8-2.7,6.9
	c-0.9,0.4-1.9,0.5-2.8,0.5c-0.3,0-0.6,0-0.9,0l-23.2-0.6C154.5,151.1,153.2,151,152.4,150.3z"/>
<path class="st5" d="M172.5,101.6c0.4,0,0.8-0.1,1.2-0.3c0.3-0.2,0.5-0.5,0.5-0.9l0-2.1c0-0.4-0.3-0.8-0.7-1
	c-0.7-0.2-1.5-0.3-2.3-0.2c-0.2,0-0.4,0.1-0.6,0.3c-0.8,0.9-0.9,2.3-0.1,3.2C171,101.2,171.8,101.6,172.5,101.6z"/>
<path class="st5" d="M175.4,101.4c0.3,0.2,0.7,0.3,1,0.3h0c0.6,0,1.2-0.2,1.6-0.7c0.4-0.4,0.6-1.1,0.5-1.7c-0.1-0.6-0.5-1.2-1-1.5
	c-0.3-0.2-0.6-0.3-1-0.3c-0.9,0-1.7,0.6-2,1.4C174.2,99.8,174.6,100.9,175.4,101.4z"/>
<path class="st13" d="M168.9,108l0,1h0L168.9,108c0.4,0,0.8-0.2,1-0.5c0.3-0.3,0.4-0.7,0.4-1.1c-0.1-0.7-0.8-1.2-1.4-1.2
	c-0.4,0-0.7,0.2-1,0.4c-0.2,0.2-0.4,0.6-0.4,0.9c0,0.4,0.1,0.8,0.4,1.1C168.1,107.8,168.5,108,168.9,108z"/>
<path class="st5" d="M168.9,110C168.9,110,168.9,110,168.9,110c1,0,1.9-0.5,2.6-1.2c0.7-0.8,1-1.7,0.8-2.7c-0.2-1.7-1.9-3.1-3.6-2.9
	c-0.8,0.1-1.6,0.4-2.2,1c-0.6,0.6-0.9,1.3-1,2.1c-0.1,0.9,0.2,1.9,0.9,2.6C167,109.6,167.9,110,168.9,110z M167.9,105.5
	c0.2-0.2,0.6-0.4,1-0.4c0.7,0,1.3,0.6,1.4,1.2c0.1,0.4-0.1,0.8-0.4,1.1c-0.3,0.3-0.7,0.5-1,0.5l0,1l0,0v0l0-1c-0.4,0-0.8-0.2-1-0.5
	c-0.3-0.3-0.4-0.7-0.4-1.1C167.5,106.1,167.6,105.7,167.9,105.5z"/>
<path class="st13" d="M158.4,106.2c0.1,0.1,0.3,0.2,0.5,0.3c0.5,0.1,1.2-0.2,1.3-0.7c0.2-0.5-0.1-1.2-0.5-1.4
	c-0.1-0.1-0.3-0.1-0.5-0.1c-0.4,0-0.8,0.2-1,0.5c-0.2,0.3-0.2,0.8,0,1.1C158.3,106.1,158.4,106.1,158.4,106.2z"/>
<path class="st5" d="M157,107.7c0.4,0.4,0.8,0.6,1.4,0.8c0.3,0.1,0.5,0.1,0.8,0.1c1.3,0,2.5-0.8,3-2c0.6-1.4-0.1-3.2-1.5-3.9
	c-0.4-0.2-0.9-0.3-1.4-0.3c-1.1,0-2.1,0.5-2.7,1.4c-0.6,0.9-0.6,2.2-0.1,3.2C156.6,107.2,156.8,107.4,157,107.7z M158.3,104.8
	c0.2-0.3,0.6-0.5,1-0.5c0.2,0,0.3,0,0.5,0.1c0.5,0.2,0.7,0.9,0.5,1.4c-0.2,0.5-0.8,0.8-1.3,0.7c-0.2,0-0.4-0.1-0.5-0.3
	c-0.1-0.1-0.1-0.2-0.2-0.3C158.1,105.6,158.1,105.2,158.3,104.8z"/>
<path class="st13" d="M162.5,101.2c0.1,0,0.1,0,0.1,0c0-0.1,0-0.3,0-0.4c-0.1,0-0.1,0.1-0.2,0.1c0,0-0.1,0.1-0.1,0.2
	C162.4,101.1,162.5,101.2,162.5,101.2L162.5,101.2z"/>
<path class="st5" d="M160.4,101.2c0,0.6,0.3,1.2,0.8,1.5c0.4,0.3,0.8,0.5,1.3,0.5c0.9,0,1.6-0.5,1.9-1.2c0.3-0.6,0.2-1.2,0.1-1.6
	c0-0.1,0-0.3,0-0.4c0-0.3-0.2-0.6-0.4-0.8c-1-0.6-2.4-0.5-3.2,0.4C160.6,99.9,160.4,100.6,160.4,101.2z M162.5,100.8
	c0,0,0.1-0.1,0.2-0.1c0,0.2,0,0.4,0,0.4c0,0-0.1,0-0.1,0l-0.1,0c0,0,0-0.1-0.1-0.1C162.4,100.9,162.4,100.9,162.5,100.8z"/>
<path class="st5" d="M158.9,97.9c0.3,0.2,0.7,0.3,1.1,0.3c0.7,0,1.4-0.3,1.8-0.9c0.4-0.5,0.5-1.1,0.4-1.7c-0.1-0.6-0.5-1.1-1-1.4
	c-0.9-0.5-2.2-0.2-2.8,0.7c-0.5,0.8-0.5,2,0.2,2.8C158.7,97.8,158.8,97.9,158.9,97.9z"/>
<path class="st2" d="M171.5,85.1c0-1.4-0.3-2.8-0.8-4.2c-0.3-0.7-0.8-1.5-1.3-1.5c-0.5,0-1,0.7-1.2,1.3c-0.6,1.3-0.8,2.7-0.8,4.1
	c0.3,0,0.6,0,1,0C169.4,84.8,170.5,84.9,171.5,85.1z"/>
<path class="st13" d="M163.9,166.5C163.9,166.5,163.8,166.5,163.9,166.5l-3,0.4c0,0.2,0.2,0.5,0.4,0.6c0.6,0.3,1.4,0.3,2.2,0.3
	c3.2-0.1,6.4,0.1,9.5,0.2c0.9,0,1.8,0.1,2.7,0.1c0.8,0,1.8,0,2.2-0.5c0.3-0.5-0.1-1.4-0.6-2.1L163.9,166.5z"/>
<path d="M179.3,120.8c0-0.3-0.3-0.5-0.6-0.4c-7.8,1.4-16.6,2.9-24.9,1.2c-0.3-0.1-0.5,0.1-0.6,0.4s0.1,0.5,0.4,0.6
	c2.6,0.5,5.3,0.7,8,0.7c5.9,0,11.8-1,17.2-2C179.1,121.3,179.3,121,179.3,120.8z"/>
<path d="M176.8,127.6c-7.5,0.2-15-0.1-22.4-0.8c-0.3,0-0.5,0.2-0.5,0.4c0,0.3,0.2,0.5,0.4,0.5c5.9,0.6,11.9,0.9,17.9,0.9
	c1.6,0,3.1,0,4.7-0.1c0.3,0,0.5-0.2,0.5-0.5C177.3,127.8,177.1,127.5,176.8,127.6z"/>
<path class="st10" d="M273.1,221.5C273,221.5,273,221.5,273.1,221.5c-0.1,0-0.3-0.1-0.5-0.1c0,0-0.1,0-0.1,0c-0.1,0-0.1,0-0.2,0.1
	C272.5,221.5,272.8,221.5,273.1,221.5z"/>
<path class="st13" d="M198.4,316.4c3.4,3.3,7.4,6.6,11.7,6.6c-2.7-5.9-7.4-10.8-11.9-15.5c-0.7-0.7-1.3-1.4-1.9-2.1
	c-9.1-9.7-17.3-20.4-25.2-30.7c-4.3-5.6-8.8-11.4-11.5-18.2c-6.4-15.9-2.2-33.7,2.8-49c0.3-0.9,0.6-1.9,0.9-2.8
	c3.3-10.1,6.8-20.6,5.7-31c-0.9,0-1.7-0.1-2.4-0.1c1.2,8.9-0.5,18.7-4.7,27.8c-1,2.2-2.2,4.4-3.4,6.6c-1.1,2.1-2.3,4.3-3.3,6.4
	c-8.2,17.5-7.1,38.8,2.8,55.4c2.9,4.9,6.5,9.3,9.6,13.1C177.1,294.6,187.5,305.9,198.4,316.4z"/>
<path class="st13" d="M162.7,164.6l14.4-1.1c0.5,0,0.7-0.1,0.7-0.1c0,0-0.1-0.2-0.2-0.3c-0.3-0.2-0.7-0.3-1.2-0.4
	c-0.9-0.1-2-0.2-3.2-0.2c-0.8,0-1.5,0-2.3,0c-0.8,0-1.5,0-2.3,0c-2,0-3.5-0.1-4.9-0.4l-0.2,0c-0.4-0.1-0.7-0.2-1-0.1
	c-0.5,0-1,0.4-1.2,1c-0.2,0.4-0.3,0.9-0.3,1.6C161.5,164.6,162.1,164.6,162.7,164.6z"/>
<path class="st13" d="M173.7,171.9c0.5,0,1.3-0.1,1.7-0.5c0.2-0.2,0.3-0.4,0.3-0.7c0,0,0,0,0-0.1c-4.1,0.1-8.3-0.1-12.5-0.5
	c-0.3,0-0.7,0-1,0.1c-0.3,0-0.6,0.1-0.8,0.1c-0.1,0.1-0.3,0.6-0.2,0.8c0.7,0.2,3.1,0.5,12,0.8L173.7,171.9z"/>
<path class="st4" d="M241.2,220.6c-2.5,0.5-4.8,2.2-6.1,4.5c-1.3,2.2-1.7,5-1.2,7.7c0.1,0.7,0.3,1.3,0.5,2c0.2,0.6,0.3,1.2,0.5,1.8
	c0.7-0.7,1.3-1.5,1.9-2.4c0.8-1.1,1.6-2.2,2.6-3.1c3.1-3,7.7-4.5,13.7-4.5c1.3,0,2.1-0.3,2.2-0.7c0-0.2-0.1-0.5-0.1-0.5
	c-0.5-1.4-1.8-2.7-3.6-3.5c-1.7-0.8-3.6-1.1-5.4-1.2c-0.7-0.1-1.7-0.2-2.6-0.2C242.7,220.4,241.9,220.5,241.2,220.6z"/>
<path class="st5" d="M240.8,218.7c-3,0.7-5.8,2.7-7.4,5.5c-1.5,2.6-2.1,5.9-1.4,9.1c0.2,0.7,0.4,1.5,0.6,2.2
	c0.2,0.6,0.3,1.1,0.4,1.6c0.1,0.8,0.1,1.5,0,2.2c-0.1,0.2-0.2,0.4-0.2,0.6c-0.2,0.5,0,1,0.5,1.2c0,0,0,0,0.1,0
	c0.2,0.2,0.4,0.3,0.5,0.3c0.1,0,0.2,0,0.3,0c0.3,0,0.5-0.1,0.7-0.3c0.2-0.1,0.3-0.1,0.5-0.2c0.1,0,0.1,0.1,0.2,0.2
	c3.4,3.3,7.2,5.3,10.9,5.7c0.6,0.1,1.2,0.1,1.8,0.1c0.4,0,0.9,0,1.3-0.1c1.3-0.1,2.5-0.4,3.4-0.9c1-0.6,1.9-1.4,2.5-2
	c1.7-1.8,2.9-3.7,3.4-5.6c0.6-1.9,0.7-4.1,0.4-6.8c-0.2-1.7-0.6-3.2-1-4.6c0,0,0-0.1,0-0.1c-0.1-0.1-0.1-0.3-0.2-0.4
	c0-0.1-0.1-0.3-0.1-0.4c-0.2-0.4-0.3-0.7-0.5-1c0-0.1-0.1-0.3-0.1-0.4c-0.7-1.9-2.4-3.6-4.6-4.6c-2-0.9-4.1-1.2-6.1-1.4
	c-0.8-0.1-1.8-0.2-2.8-0.2C242.6,218.4,241.7,218.5,240.8,218.7z M257.3,237.9c-0.5,1.7-1.6,3.3-3.1,5c-0.5,0.6-1.2,1.3-2.1,1.7
	c-0.8,0.4-1.7,0.6-2.8,0.7c-0.9,0.1-1.8,0.1-2.7,0c-4.3-0.5-7.8-3.2-10-5.3c-0.1-0.1-0.2-0.2-0.3-0.2c0.1-0.1,0.1-0.2,0.2-0.3
	c0.4-0.6,0.7-1.2,1.1-1.8c0.3-0.4,0.6-0.8,0.9-1.2c0.5-0.6,1-1.2,1.6-1.7c1.8-1.7,4.3-2.8,7.7-3.7c0,0,0,0,0,0
	c0.6-0.2,1.2-0.3,1.8-0.4c0.7-0.2,1.4-0.3,2.1-0.4c1.7-0.3,3.4-0.7,5-1.2c0.1,0,0.2-0.1,0.3-0.1c0.2,0.9,0.4,1.8,0.5,2.9
	C258,234.3,257.9,236.2,257.3,237.9z M251.7,221.8c1.7,0.8,3,2.1,3.6,3.5c0,0.1,0.1,0.4,0.1,0.5c-0.1,0.4-0.9,0.7-2.2,0.7
	c-6,0-10.6,1.6-13.7,4.5c-1,1-1.8,2.1-2.6,3.1c-0.6,0.8-1.2,1.6-1.9,2.4c-0.1-0.6-0.3-1.2-0.5-1.8c-0.2-0.7-0.4-1.4-0.5-2
	c-0.5-2.6-0.1-5.4,1.2-7.7c1.3-2.3,3.6-4,6.1-4.5c0.7-0.2,1.5-0.2,2.4-0.2c0.9,0,1.9,0.1,2.6,0.2C248.1,220.8,250,221,251.7,221.8z"
	/>
<path class="st4" d="M289.9,222.7c-1.3-2.3-2.7-4.1-4.2-5.4c-0.6-0.5-1.1-0.8-1.6-1c-0.4-0.2-1-0.3-1.6-0.4
	c-3.1-0.4-6.4,1.2-8.4,3.8c0.3,0,0.6,0.1,0.9,0.1c0.6,0.1,1.2,0.1,1.9,0.3c1.7,0.4,3.2,1.2,4.5,1.9c3.2,1.8,6.2,3.9,9.1,6.2
	c0.5-1,0.6-2,0.5-2.9C290.8,224.4,290.4,223.5,289.9,222.7z"/>
<path class="st14" d="M304.1,212.6c-3.6-3.7-3.8-9.4-4.3-14.5c-0.7-7.1-2.6-14.1-5.5-20.7c-0.8-1.7-1.7-3.5-3.2-4.7
	s-3.9-1.4-5.3-0.1c2,4.3,1.4,9.5-0.6,13.8c-2,4.3-5.2,8-8.4,11.5c-0.1,0.1-0.2,0.3-0.4,0.4l0,0c0.3,0.1,0.6,0.1,0.9,0.2
	c0.2,0.1,0.4,0.1,0.6,0.2c0.3,0.1,0.5,0.2,0.7,0.2c0.3,0.1,0.5,0.2,0.8,0.3c0.2,0.1,0.4,0.1,0.6,0.2c0.5,0.2,0.9,0.4,1.4,0.6
	c3.3-4.4,6.7-8.7,10.2-13c0.3-0.3,0.9-1.1,1.8-1.3c-1-3.8-2.5-7.8-5.1-11.1c-0.3-0.4-0.3-1.1,0.2-1.4c0.4-0.3,1.1-0.3,1.4,0.2
	c3.2,4,4.8,8.9,5.9,13.3c0.3,0.4,0.5,1,0.6,1.9c0.4,3.7,0.5,7.5,0.5,11.2c0,3.7,0,7.6,0.5,11.3c0.2,1.5,0.5,3.1,1.4,4.3
	c0.9,1.2,2.6,2.1,5,2.6c4.4,0.8,9.2,0.2,13.2-1.8c0.3-0.1,0.6-0.3,0.8-0.4c0,0,0,0,0.1,0c0.2-0.1,0.5-0.3,0.7-0.5l0,0h0
	c-0.3,0.1-0.6,0.1-0.9,0.2C312.8,216.5,307.5,216,304.1,212.6z"/>
<path class="st14" d="M231.6,269.3c1.8-0.3,4.1-1,4.5-2.6c0.3-1.1-0.3-2.4-0.9-3.6c-6-12.7-9.7-26.3-11-40.4
	c-0.1-1.2-0.2-2.3-0.2-3.4c0-0.4,0-0.8-0.1-1.2c0-0.7,0-1.3-0.1-2c0-0.5,0-1,0-1.5c0-0.5,0-1,0-1.4c0-0.6,0-1.1,0.1-1.7
	c0-0.2,0-0.4,0-0.6c0.2-2.4,0.4-4.6,0.9-6.7c0-0.1,0-0.1,0-0.2c0.2-0.7,0.3-1.4,0.5-2.1l0,0c-3.6,7.1-5.5,15-5.4,22.9
	c0.1,11.6,4.4,22.8,6.9,34.2c0.3,1.6,0.6,3.5-0.3,4.8c-0.8,1.1-2.2,1.5-3.5,1.8c-7.2,1.5-15-0.5-22.2,0.8c0.4,0.1,0.8,0.2,1.1,0.3
	c7.9,2.1,14.9,3.2,21.3,3.2C226.2,269.9,228.9,269.7,231.6,269.3z"/>
<path class="st14" d="M411.3,214.3c-6.8-11.8-17.3-22-29.5-28.6c-0.5-0.3-0.9-0.5-1.4-0.7c0,0,0,0-0.1,0c-1.3-0.6-2.5-1-3.6-1.2h0
	c1.3,0.9,2.7,1.7,4,2.5c11.8,7.2,22.4,16.9,28.5,29.2s7.3,27.5,1.1,39.9c-1.9,3.7-4.4,7.1-7.9,9.3c-0.3,0.2-0.6,0.4-0.9,0.5l0,0l0,0
	c0.2,0.7,0.5,1.4,0.7,2.1c0.1,0.2,0.1,0.4,0.2,0.5c0.2,0.7,0.4,1.4,0.6,2.1c7.4-3.6,13-11.5,14.7-21c1.5-8.1,0.4-17.2-3.4-27.7
	C413.7,219.3,412.7,216.7,411.3,214.3z"/>
<polygon class="st14" points="376.9,183.8 376.9,183.8 376.9,183.8 "/>
<path class="st15" d="M264,304.8c-0.1-0.4-0.2-0.8-0.4-1.2c-0.1-0.1-0.1-0.3-0.2-0.4c-0.1-0.2-0.2-0.5-0.3-0.7
	c-0.1-0.2-0.2-0.3-0.3-0.5c-0.1-0.2-0.2-0.3-0.3-0.5c-0.1-0.2-0.3-0.4-0.4-0.5c-0.1-0.1-0.2-0.2-0.3-0.4c-0.2-0.2-0.3-0.4-0.5-0.5
	c-0.1-0.1-0.2-0.2-0.3-0.3c-0.2-0.2-0.4-0.4-0.6-0.5c-0.1-0.1-0.1-0.1-0.2-0.2c-0.2-0.2-0.5-0.3-0.7-0.5c0,0-0.1,0-0.1-0.1
	c-0.3-0.2-0.5-0.3-0.8-0.4c1.6,5.2,1.5,11-0.4,16.1c-0.6,1.6-1.3,3.1-2.4,4.3c-2.5,2.7-6.5,3.4-10.1,4c-7.2,1.1-14.5,2.2-21.7,3.3
	c-3.2,0.5-6.5,1-9.5,2.3c0,0,0,0,0,0c0,0.2,0.1,0.3,0.1,0.5c0,0.1,0.1,0.2,0.1,0.4c0,0.1,0.1,0.2,0.1,0.4c0.1,0.1,0.1,0.3,0.2,0.4
	c0,0.1,0.1,0.2,0.1,0.3c0.1,0.2,0.2,0.4,0.4,0.6c0.7,0.8,1.9,1.2,3.7,1.2c0.7,0,1.5-0.1,2.1-0.1l30.8-3.2c0.4,0,0.7-0.1,1-0.2
	c0.4-0.1,0.8-0.5,1.2-0.8c4.4-4,7.5-8.3,9.1-12.7C264.1,312.4,265,308.6,264,304.8z"/>
<path class="st16" d="M389.8,263c4.6,10.5,5.1,22.7,1.3,33.6c0.1,0,0.1-0.1,0.2-0.1c0.1,0,0.2-0.1,0.3-0.1c2.9-0.3,5.7-2.1,7.2-4.6
	c0-0.1,0.1-0.1,0.2-0.2c3.1-11,2.1-22.7-2.6-32.2c-5.2-10.2-14.9-17.7-25.5-19.5c-0.9-0.2-1.7-0.3-2.6-0.4c-0.8-0.1-1.6-0.2-2.4-0.2
	l0,0C376.4,243.7,385.2,252.4,389.8,263z"/>
<path class="st16" d="M399.6,294L399.6,294C399.7,293.9,399.7,293.9,399.6,294c2.4,1.3,2.7,4.7,1.5,7c-1.3,2.3-3.7,3.8-6.1,4.9
	c-3.7,1.8-7.6,3.1-11.6,3.9c-2.1,0.4-4.2,0.7-6,1.7c-1.8,1-3.4,3-3.1,5.1c0.2,1.7,1.4,3.6,0.4,5c-2.1,0.3-4.2,0.2-6.2-0.4l0,0
	c0.1,0.2,0.1,0.4,0.2,0.6c0.1,0.2,0.2,0.4,0.3,0.6c1,1.7,2.2,2.4,4.4,2.5c0,0,0,0,0,0c0.1,0,0.2,0,0.3,0.1c0,0,0.1,0,0.1,0
	c0,0,0.1,0.1,0.1,0.1c0.1,0,0.1,0.1,0.2,0.1c0,0,0,0,0,0c0.6,0.7,1.5,0.9,2.1,0.9c1.5,0,3-0.9,3.7-2.1c1.3-2.4,0.2-5.4-1.1-7.3
	c-0.2-0.3-0.2-0.6-0.1-0.9c0.1-0.3,0.3-0.5,0.7-0.6l21.8-6.7c2.7-0.8,5-1.6,6.4-3.5c1.5-2,1.4-5.4-0.3-7.7c-1.5-2-4-3.5-7-4
	C400,293.5,399.8,293.7,399.6,294z"/>
<path class="st16" d="M391.2,298.2c-0.1-0.1-0.2-0.2-0.3-0.3c0,0,0,0,0,0c-0.1-0.1-0.1-0.2-0.1-0.3v0c-0.1,0.3-0.2,0.6-0.3,0.8
	C390.7,298.3,391,298.2,391.2,298.2z"/>
<path class="st16" d="M364,324.9c-1.6,0.4-3.5-0.3-4.4-1.6l0,0c0.1,0.2,0.1,0.5,0.2,0.7c0.5,1.7,1.6,3.4,3.3,5.2
	c0.8,0,1.6,0.1,2.4,0.2c0.4,0,0.8,0.1,1.2,0.2c1.6,0.2,3.1,0.4,4.2,0c0.8-0.3,1.5-1,1.8-1.8c0.1-0.3,0.1-0.6,0-0.9
	c-2.5-0.3-4.2-1.3-5.5-3.5c-0.2-0.3-0.4-0.7-0.5-1.1C366.3,323.5,365.3,324.5,364,324.9z"/>
<path class="st16" d="M352.3,326.4c-1.4-0.3-2.7-0.9-3.8-1.6l0,0l0,0c0.1,0.2,0.2,0.4,0.4,0.7c0,0,0,0,0,0c0.2,0.2,0.3,0.5,0.5,0.7
	c2.5,2.8,6.6,2.8,10.9,2.9c0,0,0,0,0,0c-0.3-0.3-0.5-0.7-0.8-1c-0.2-0.3-0.3-0.5-0.5-0.8c0-0.1-0.1-0.1-0.1-0.2
	c-0.2-0.3-0.4-0.7-0.5-1c0,0,0,0,0,0c-0.2-0.3-0.3-0.7-0.4-1l0,0C356.6,326.3,354.3,326.8,352.3,326.4z"/>
<path class="st16" d="M306.2,299.9c0.5-0.9,1-1.8,1.6-2.7l0,0c-1.9,1.1-3.9,1.9-6.2,1.9c-1,0-1.9-0.1-2.8,0.2
	c-2.9,0.9-3.2,4.8-4.1,7.8c-1.9,5.9-8.5,9.1-14.7,9.8c-5.1,0.6-10.3,0-15.5,0.1l0,0c-0.2,0.4-0.4,0.8-0.6,1.2
	c-0.1,0.2-0.2,0.3-0.2,0.5c-0.2,0.4-0.4,0.7-0.6,1c-0.2,0.3-0.3,0.5-0.5,0.8c-0.2,0.3-0.3,0.5-0.5,0.8c-0.4,0.5-0.7,1.1-1.1,1.6
	c2.7,0.2,5.4,0.3,8,0.3c2.4,0,4.6-0.1,6.8-0.3c6.7-0.6,11.6-2,15.4-4.7c3.9-2.7,7.4-7.9,6.5-13.4c0-0.3,0-0.5,0.2-0.7
	s0.4-0.4,0.7-0.4c2.1-0.4,4.3-0.7,6.4-1c0.2-0.5,0.4-1,0.6-1.5c0.2-0.4,0.4-0.8,0.6-1.2C306.1,300.1,306.1,300,306.2,299.9z"/>
<path class="st16" d="M328.8,247.1c-7,13.2-1.8,30.1,8.2,41.2c-3.7-0.8-7.6-0.9-11.3-0.2c0.4,0,0.8,0,1.2,0c3.3,0.2,6.5,1.1,9.2,1.9
	c3.1,1,6.2,2.2,9.2,3.5c1.8,0.8,3.7,1.7,5.5,2.6c0.6,0.3,1.2,0.6,1.9,0.9c-1.1-0.8-2.2-1.7-3.3-2.6c-1.6-1.4-3.3-3-5.3-5.1
	c-5.5-5.7-12.1-13.5-13.8-23c-0.4-2.4-0.6-5-0.5-8.5c0.1-3.4,0.3-7.8,1.8-11.9c0.2-0.6,0.4-1.1,0.7-1.6c0.1-0.2,0.2-0.5,0.3-0.7
	c0.1-0.2,0.2-0.4,0.3-0.6c0.4-0.6,0.7-1.2,1.1-1.8h0C331.8,242.6,330,244.8,328.8,247.1z"/>
<path class="st16" d="M205.1,323.8c-0.2-0.1-0.4-0.2-0.6-0.3c-0.1-0.1-0.3-0.1-0.4-0.2c-0.2-0.1-0.3-0.2-0.5-0.3
	c-0.2-0.1-0.3-0.2-0.5-0.3c-0.1-0.1-0.3-0.2-0.4-0.3c-0.2-0.1-0.3-0.2-0.5-0.3c-0.1-0.1-0.3-0.2-0.4-0.3c-0.2-0.1-0.4-0.3-0.5-0.4
	c-0.1-0.1-0.2-0.2-0.3-0.2c-0.2-0.1-0.4-0.3-0.6-0.4c-0.1-0.1-0.1-0.1-0.2-0.2c-0.2-0.2-0.4-0.4-0.7-0.5l0,0c-2.8,1.1-5.6,2-8.5,2.6
	c-0.4,0.1-0.8,0.2-1.1,0c-0.8-0.3-1.2-1.6-2-1.2c0,0.4-0.1,0.7-0.1,1.1c0.1,0,0.1,0,0.2,0c0.6,0,1,0.4,1.1,0.9
	c0.1,1.8,0.1,3.7,0.1,5.5c0,0,0,0,0,0c0.2,0.5,0.9,0.5,1.2,0.5c0.4,0,0.7-0.1,1.1-0.2c0.5-0.2,1-0.5,1.5-0.9c0.6-0.4,1.2-0.8,2-1.1
	c1-0.4,1.9-0.5,2.9-0.6l0.4-0.1c2.9-0.4,5.6-1.1,8.2-2.3c-0.3-0.1-0.7-0.2-1-0.4C205.3,323.9,205.2,323.8,205.1,323.8z"/>
<path class="st16" d="M175.3,327.7c-0.7,0.4-1.6,0.4-2.4,0.1c-1.3-0.4-2.4-1.1-3.2-2.1c0.5,2,1.7,3.8,3.1,5.4
	c0.2,0.2,0.4,0.5,0.6,0.7c0.3-0.1,0.7,0.1,0.9,0.3c1.1,1.3,2.7,2,4.4,2c0.5,0,0.7-0.1,0.9-0.2c-1.5-2.8-2.4-5.4-2.7-7.9
	c0-0.4-0.1-0.7-0.1-1.1c0-0.2,0-0.4,0-0.5c0-0.2,0-0.3,0-0.5c0-0.2,0-0.5,0-0.7c0-0.1,0-0.2,0-0.2c0-0.3,0-0.6,0.1-0.9l0,0
	C176.3,324,177,326.7,175.3,327.7z"/>
<path class="st16" d="M182.1,329.8c-1.5-0.7-2.5-2.2-3.2-3.7l0,0c0.1,1,0.4,2,0.7,3.1c0,0,0,0.1,0.1,0.1c0.2,0.5,0.4,1,0.6,1.5
	c0.2,0.6,0.5,1.1,0.8,1.7c0.2,0.1,0.4,0.2,0.5,0.5c0.4,0.8,1.3,1,2,1c0.6,0,1.1-0.2,1.6-0.4c1-0.7,1.7-1.9,2-3.5c0-0.1,0-0.1,0-0.2
	c0-0.8,0-1.7,0-2.5c-0.1,0.5-0.2,1-0.5,1.4C185.8,330.3,183.6,330.6,182.1,329.8z"/>
<polygon class="st16" points="178.9,326.1 178.9,326.1 178.9,326.1 "/>
<path class="st16" d="M164.8,327.3c-1.5,0.8-3.5-0.3-4.4-1.8c-0.3-0.4-0.5-0.9-0.7-1.3c0,0,0,0,0,0c0.4,1.1,0.8,2.1,1.4,3.1
	c0.1,0.1,0.1,0.2,0.2,0.4c0.2,0.3,0.3,0.5,0.5,0.8c0.2,0.4,0.5,0.7,0.7,1.1c0.1,0.2,0.2,0.3,0.3,0.4c0.2,0.3,0.5,0.6,0.7,0.9
	c0.1,0.1,0.2,0.3,0.3,0.4c0.4,0.4,0.7,0.8,1.1,1.2c1.6,1.5,3,2.3,4.3,2.4c1,0.1,2.2-0.4,2.8-1.3c-1.8-2.1-3.9-4.7-4.6-7.9
	c-0.1-0.3-0.1-0.5-0.1-0.8c0-0.1,0-0.2,0-0.3c0-0.2,0-0.3,0-0.5c0-0.1,0-0.3,0-0.4c0-0.1,0-0.2,0-0.3c0-0.2,0-0.4,0-0.5v0
	C166.4,324.3,166.3,326.5,164.8,327.3z"/>
<polygon class="st16" points="159.7,324.2 159.7,324.2 159.7,324.2 159.7,324.2 "/>
<path class="st16" d="M156.7,319.1c0-0.1,0-0.2,0-0.3c0-0.4,0-0.8,0-1.2c0,0,0,0,0-0.1c0.1-0.9,0.2-1.9,0.4-2.8c0,0,0,0,0,0
	c-0.7,1.4-1.3,2.8-2,4.2c-0.3,0.6-0.6,1.3-1.1,1.8c-0.9,0.9-2.4,1-3.5,0.4c-0.3-0.2-0.6-0.5-0.8-0.8c0,0,0,0,0,0c0,0.5,0,1-0.1,1.6
	c0,0.9,0,1.7,0,2.6c0,1.1,0.3,1.8,0.7,1.9c0,0,0,0,0.1,0c0,0,0.1,0,0.1,0c0.7,0.3,1.4,0.5,2.3,0.5c1.4,0,3-0.4,4.4-0.8
	c0.3-0.1,0.6-0.2,0.9-0.3c-0.7-1.7-1.2-3.5-1.3-5.4C156.8,319.9,156.7,319.5,156.7,319.1z"/>
<path class="st16" d="M140.1,321.5c-0.5,1.1-1.3,1.9-2.4,2.2c-1.2,0.3-2.5-0.1-3.5-0.8c-0.3-0.2-0.6-0.5-0.8-0.7h0l0,0
	c0,0.6,0.1,1.1,0.2,1.7c0,0.1,0,0.1,0,0.2c0.1,0.5,0.1,1,0.2,1.4c0,0.1,0,0.2,0.1,0.4c0.1,0.4,0.2,0.9,0.3,1.3
	c0,0.1,0.1,0.3,0.1,0.4c0.2,0.6,0.3,1.1,0.6,1.6c0.2,0.2,0.3,0.4,0.3,0.6c0.2,1.5,1.9,2.8,3.7,2.6c1.4-0.1,2.8-1.1,3.6-2.5
	c-0.2-0.4-0.5-0.8-0.7-1.2c-0.1-0.1-0.1-0.3-0.2-0.4c-0.1-0.3-0.2-0.5-0.3-0.8c-0.1-0.2-0.1-0.3-0.2-0.5c-0.1-0.2-0.2-0.5-0.2-0.7
	c0-0.2-0.1-0.3-0.1-0.5c-0.1-0.2-0.1-0.5-0.2-0.7c0-0.2-0.1-0.3-0.1-0.5c0-0.2-0.1-0.5-0.1-0.7c0-0.2-0.1-0.3-0.1-0.5
	c0-0.2-0.1-0.5-0.1-0.7c0-0.1,0-0.3,0-0.4C140.1,322.2,140.1,321.9,140.1,321.5C140.1,321.5,140.1,321.5,140.1,321.5L140.1,321.5
	L140.1,321.5z"/>
<path class="st16" d="M128.6,321.8c-1.3-0.2-2.4-1.1-3.5-2c-1.2-1-2.4-2.1-2.9-3.6c-0.1-0.2-0.1-0.5-0.2-0.7c0,0.4,0,0.7,0,1.1
	c0,0,0,0,0,0c0,0.3,0,0.7,0.1,1c0,0.1,0,0.1,0,0.2c0,0.3,0.1,0.6,0.1,0.9c0.1,0.4,0.1,0.7,0.2,1.1c0,0,0,0.1,0,0.1
	c0.1,0.3,0.1,0.6,0.2,1c0,0.1,0,0.1,0,0.2c0.3,0.9,0.6,1.8,1,2.6c0.1,0.1,0.1,0.2,0.2,0.4c0.1,0.2,0.2,0.4,0.3,0.6
	c0.1,0.2,0.2,0.3,0.3,0.5c0.1,0.2,0.2,0.4,0.3,0.5c0.1,0.2,0.3,0.4,0.4,0.6c0.1,0.1,0.2,0.3,0.3,0.4c0.2,0.3,0.5,0.6,0.7,0.9
	c0.1,0.1,0.2,0.2,0.3,0.3c0.2,0.2,0.4,0.4,0.6,0.6c0.1,0.1,0.2,0.2,0.3,0.3c0.2,0.2,0.4,0.4,0.6,0.5c0.1,0.1,0.2,0.2,0.3,0.2
	c0.3,0.2,0.6,0.5,1,0.7c1,0.6,1.7,0.9,2.4,0.9l0.1,0c0.5,0,1.1-0.3,1.4-0.7c-0.2-0.5-0.4-1-0.5-1.5c0-0.1-0.1-0.3-0.1-0.4
	c-0.1-0.5-0.3-0.9-0.4-1.4c0-0.1,0-0.2-0.1-0.3c-0.1-0.4-0.2-0.9-0.2-1.3c0-0.2-0.1-0.4-0.1-0.6c0-0.3-0.1-0.6-0.1-0.9
	c0-0.4-0.1-0.8-0.1-1.3c0-0.2,0-0.3,0-0.5c0-0.3,0-0.7-0.1-1v0l0,0C130.7,321.7,129.5,322,128.6,321.8z"/>
<path class="st16" d="M145.1,323.5c-0.5,0.2-1.1,0.2-1.6-0.1c-0.5-0.3-0.9-0.8-1.1-1.3c-0.1-0.1-0.1-0.3-0.2-0.4c0,0,0,0,0,0
	c0,0.1,0,0.1,0,0.2c0,0.5,0.1,1.1,0.1,1.6c0,0.1,0,0.1,0,0.2c0.1,0.5,0.2,1.1,0.3,1.6c0,0.1,0,0.2,0.1,0.3c0.1,0.5,0.3,1,0.5,1.5
	c0,0.1,0.1,0.1,0.1,0.2c0.2,0.5,0.4,1,0.7,1.4c0.4,0,0.7,0.3,0.9,0.7c0.2,1,1.3,1.7,2.4,1.7c0.2,0,0.5,0,0.7-0.1
	c0.6-0.2,1-0.7,1.3-1.4c0.2-0.5,0.2-1.1,0.1-1.6c-0.8-0.4-1.5-1.4-1.6-3.6c0-1,0-1.9,0-2.9C147,322.5,146.2,323.2,145.1,323.5z"/>
<polygon class="st16" points="147.7,321.5 147.7,321.5 147.7,321.5 "/>
</svg>
