<?xml version="1.0" encoding="utf-8"?>
<!-- Generator: Adobe Illustrator 23.1.0, SVG Export Plug-In . SVG Version: 6.00 Build 0)  -->
<svg version="1.1" id="Vrstva_1" xmlns="http://www.w3.org/2000/svg" xmlns:xlink="http://www.w3.org/1999/xlink" x="0px" y="0px"
	 viewBox="0 0 101.4 101.4" style="enable-background:new 0 0 101.4 101.4;" xml:space="preserve">
<g>
	<rect shape-rendering="optimizeSpeed" width="4.8" height="4.8"/>
	<rect x="4.8" shape-rendering="optimizeSpeed" width="4.8" height="4.8"/>
	<rect x="9.7" shape-rendering="optimizeSpeed" width="4.8" height="4.8"/>
	<rect x="14.5" shape-rendering="optimizeSpeed" width="4.8" height="4.8"/>
	<rect x="19.3" shape-rendering="optimizeSpeed" width="4.8" height="4.8"/>
	<rect x="24.1" shape-rendering="optimizeSpeed" width="4.8" height="4.8"/>
	<rect x="29" shape-rendering="optimizeSpeed" width="4.8" height="4.8"/>
	<rect x="48.3" shape-rendering="optimizeSpeed" width="4.8" height="4.8"/>
	<rect x="57.9" shape-rendering="optimizeSpeed" width="4.8" height="4.8"/>
	<rect x="67.6" shape-rendering="optimizeSpeed" width="4.8" height="4.8"/>
	<rect x="72.4" shape-rendering="optimizeSpeed" width="4.8" height="4.8"/>
	<rect x="77.2" shape-rendering="optimizeSpeed" width="4.8" height="4.8"/>
	<rect x="82.1" shape-rendering="optimizeSpeed" width="4.8" height="4.8"/>
	<rect x="86.9" shape-rendering="optimizeSpeed" width="4.8" height="4.8"/>
	<rect x="91.7" shape-rendering="optimizeSpeed" width="4.8" height="4.8"/>
	<rect x="96.5" shape-rendering="optimizeSpeed" width="4.8" height="4.8"/>
	<rect y="4.8" shape-rendering="optimizeSpeed" width="4.8" height="4.8"/>
	<rect x="29" y="4.8" shape-rendering="optimizeSpeed" width="4.8" height="4.8"/>
	<rect x="38.6" y="4.8" shape-rendering="optimizeSpeed" width="4.8" height="4.8"/>
	<rect x="43.4" y="4.8" shape-rendering="optimizeSpeed" width="4.8" height="4.8"/>
	<rect x="48.3" y="4.8" shape-rendering="optimizeSpeed" width="4.8" height="4.8"/>
	<rect x="57.9" y="4.8" shape-rendering="optimizeSpeed" width="4.8" height="4.8"/>
	<rect x="67.6" y="4.8" shape-rendering="optimizeSpeed" width="4.8" height="4.8"/>
	<rect x="96.5" y="4.8" shape-rendering="optimizeSpeed" width="4.8" height="4.8"/>
	<rect y="9.7" shape-rendering="optimizeSpeed" width="4.8" height="4.8"/>
	<rect x="9.7" y="9.7" shape-rendering="optimizeSpeed" width="4.8" height="4.8"/>
	<rect x="14.5" y="9.7" shape-rendering="optimizeSpeed" width="4.8" height="4.8"/>
	<rect x="19.3" y="9.7" shape-rendering="optimizeSpeed" width="4.8" height="4.8"/>
	<rect x="29" y="9.7" shape-rendering="optimizeSpeed" width="4.8" height="4.8"/>
	<rect x="48.3" y="9.7" shape-rendering="optimizeSpeed" width="4.8" height="4.8"/>
	<rect x="67.6" y="9.7" shape-rendering="optimizeSpeed" width="4.8" height="4.8"/>
	<rect x="77.2" y="9.7" shape-rendering="optimizeSpeed" width="4.8" height="4.8"/>
	<rect x="82.1" y="9.7" shape-rendering="optimizeSpeed" width="4.8" height="4.8"/>
	<rect x="86.9" y="9.7" shape-rendering="optimizeSpeed" width="4.8" height="4.8"/>
	<rect x="96.5" y="9.7" shape-rendering="optimizeSpeed" width="4.8" height="4.8"/>
	<rect y="14.5" shape-rendering="optimizeSpeed" width="4.8" height="4.8"/>
	<rect x="9.7" y="14.5" shape-rendering="optimizeSpeed" width="4.8" height="4.8"/>
	<rect x="14.5" y="14.5" shape-rendering="optimizeSpeed" width="4.8" height="4.8"/>
	<rect x="19.3" y="14.5" shape-rendering="optimizeSpeed" width="4.8" height="4.8"/>
	<rect x="29" y="14.5" shape-rendering="optimizeSpeed" width="4.8" height="4.8"/>
	<rect x="38.6" y="14.5" shape-rendering="optimizeSpeed" width="4.8" height="4.8"/>
	<rect x="43.4" y="14.5" shape-rendering="optimizeSpeed" width="4.8" height="4.8"/>
	<rect x="67.6" y="14.5" shape-rendering="optimizeSpeed" width="4.8" height="4.8"/>
	<rect x="77.2" y="14.5" shape-rendering="optimizeSpeed" width="4.8" height="4.8"/>
	<rect x="82.1" y="14.5" shape-rendering="optimizeSpeed" width="4.8" height="4.8"/>
	<rect x="86.9" y="14.5" shape-rendering="optimizeSpeed" width="4.8" height="4.8"/>
	<rect x="96.5" y="14.5" shape-rendering="optimizeSpeed" width="4.8" height="4.8"/>
	<rect y="19.3" shape-rendering="optimizeSpeed" width="4.8" height="4.8"/>
	<rect x="9.7" y="19.3" shape-rendering="optimizeSpeed" width="4.8" height="4.8"/>
	<rect x="14.5" y="19.3" shape-rendering="optimizeSpeed" width="4.8" height="4.8"/>
	<rect x="19.3" y="19.3" shape-rendering="optimizeSpeed" width="4.8" height="4.8"/>
	<rect x="29" y="19.3" shape-rendering="optimizeSpeed" width="4.8" height="4.8"/>
	<rect x="43.4" y="19.3" shape-rendering="optimizeSpeed" width="4.8" height="4.8"/>
	<rect x="53.1" y="19.3" shape-rendering="optimizeSpeed" width="4.8" height="4.8"/>
	<rect x="67.6" y="19.3" shape-rendering="optimizeSpeed" width="4.8" height="4.8"/>
	<rect x="77.2" y="19.3" shape-rendering="optimizeSpeed" width="4.8" height="4.8"/>
	<rect x="82.1" y="19.3" shape-rendering="optimizeSpeed" width="4.8" height="4.8"/>
	<rect x="86.9" y="19.3" shape-rendering="optimizeSpeed" width="4.8" height="4.8"/>
	<rect x="96.5" y="19.3" shape-rendering="optimizeSpeed" width="4.8" height="4.8"/>
	<rect y="24.1" shape-rendering="optimizeSpeed" width="4.8" height="4.8"/>
	<rect x="29" y="24.1" shape-rendering="optimizeSpeed" width="4.8" height="4.8"/>
	<rect x="38.6" y="24.1" shape-rendering="optimizeSpeed" width="4.8" height="4.8"/>
	<rect x="53.1" y="24.1" shape-rendering="optimizeSpeed" width="4.8" height="4.8"/>
	<rect x="57.9" y="24.1" shape-rendering="optimizeSpeed" width="4.8" height="4.8"/>
	<rect x="67.6" y="24.1" shape-rendering="optimizeSpeed" width="4.8" height="4.8"/>
	<rect x="96.5" y="24.1" shape-rendering="optimizeSpeed" width="4.8" height="4.8"/>
	<rect y="29" shape-rendering="optimizeSpeed" width="4.8" height="4.8"/>
	<rect x="4.8" y="29" shape-rendering="optimizeSpeed" width="4.8" height="4.8"/>
	<rect x="9.7" y="29" shape-rendering="optimizeSpeed" width="4.8" height="4.8"/>
	<rect x="14.5" y="29" shape-rendering="optimizeSpeed" width="4.8" height="4.8"/>
	<rect x="19.3" y="29" shape-rendering="optimizeSpeed" width="4.8" height="4.8"/>
	<rect x="24.1" y="29" shape-rendering="optimizeSpeed" width="4.8" height="4.8"/>
	<rect x="29" y="29" shape-rendering="optimizeSpeed" width="4.8" height="4.8"/>
	<rect x="38.6" y="29" shape-rendering="optimizeSpeed" width="4.8" height="4.8"/>
	<rect x="48.3" y="29" shape-rendering="optimizeSpeed" width="4.8" height="4.8"/>
	<rect x="57.9" y="29" shape-rendering="optimizeSpeed" width="4.8" height="4.8"/>
	<rect x="67.6" y="29" shape-rendering="optimizeSpeed" width="4.8" height="4.8"/>
	<rect x="72.4" y="29" shape-rendering="optimizeSpeed" width="4.8" height="4.8"/>
	<rect x="77.2" y="29" shape-rendering="optimizeSpeed" width="4.8" height="4.8"/>
	<rect x="82.1" y="29" shape-rendering="optimizeSpeed" width="4.8" height="4.8"/>
	<rect x="86.9" y="29" shape-rendering="optimizeSpeed" width="4.8" height="4.8"/>
	<rect x="91.7" y="29" shape-rendering="optimizeSpeed" width="4.8" height="4.8"/>
	<rect x="96.5" y="29" shape-rendering="optimizeSpeed" width="4.8" height="4.8"/>
	<rect x="43.4" y="33.8" shape-rendering="optimizeSpeed" width="4.8" height="4.8"/>
	<rect x="53.1" y="33.8" shape-rendering="optimizeSpeed" width="4.8" height="4.8"/>
	<rect y="38.6" shape-rendering="optimizeSpeed" width="4.8" height="4.8"/>
	<rect x="4.8" y="38.6" shape-rendering="optimizeSpeed" width="4.8" height="4.8"/>
	<rect x="9.7" y="38.6" shape-rendering="optimizeSpeed" width="4.8" height="4.8"/>
	<rect x="14.5" y="38.6" shape-rendering="optimizeSpeed" width="4.8" height="4.8"/>
	<rect x="19.3" y="38.6" shape-rendering="optimizeSpeed" width="4.8" height="4.8"/>
	<rect x="29" y="38.6" shape-rendering="optimizeSpeed" width="4.8" height="4.8"/>
	<rect x="33.8" y="38.6" shape-rendering="optimizeSpeed" width="4.8" height="4.8"/>
	<rect x="38.6" y="38.6" shape-rendering="optimizeSpeed" width="4.8" height="4.8"/>
	<rect x="57.9" y="38.6" shape-rendering="optimizeSpeed" width="4.8" height="4.8"/>
	<rect x="62.8" y="38.6" shape-rendering="optimizeSpeed" width="4.8" height="4.8"/>
	<rect x="72.4" y="38.6" shape-rendering="optimizeSpeed" width="4.8" height="4.8"/>
	<rect x="82.1" y="38.6" shape-rendering="optimizeSpeed" width="4.8" height="4.8"/>
	<rect x="91.7" y="38.6" shape-rendering="optimizeSpeed" width="4.8" height="4.8"/>
	<rect y="43.4" shape-rendering="optimizeSpeed" width="4.8" height="4.8"/>
	<rect x="4.8" y="43.4" shape-rendering="optimizeSpeed" width="4.8" height="4.8"/>
	<rect x="33.8" y="43.4" shape-rendering="optimizeSpeed" width="4.8" height="4.8"/>
	<rect x="38.6" y="43.4" shape-rendering="optimizeSpeed" width="4.8" height="4.8"/>
	<rect x="43.4" y="43.4" shape-rendering="optimizeSpeed" width="4.8" height="4.8"/>
	<rect x="62.8" y="43.4" shape-rendering="optimizeSpeed" width="4.8" height="4.8"/>
	<rect x="77.2" y="43.4" shape-rendering="optimizeSpeed" width="4.8" height="4.8"/>
	<rect x="82.1" y="43.4" shape-rendering="optimizeSpeed" width="4.8" height="4.8"/>
	<rect x="86.9" y="43.4" shape-rendering="optimizeSpeed" width="4.8" height="4.8"/>
	<rect x="91.7" y="43.4" shape-rendering="optimizeSpeed" width="4.8" height="4.8"/>
	<rect x="96.5" y="43.4" shape-rendering="optimizeSpeed" width="4.8" height="4.8"/>
	<rect y="48.3" shape-rendering="optimizeSpeed" width="4.8" height="4.8"/>
	<rect x="4.8" y="48.3" shape-rendering="optimizeSpeed" width="4.8" height="4.8"/>
	<rect x="14.5" y="48.3" shape-rendering="optimizeSpeed" width="4.8" height="4.8"/>
	<rect x="24.1" y="48.3" shape-rendering="optimizeSpeed" width="4.8" height="4.8"/>
	<rect x="29" y="48.3" shape-rendering="optimizeSpeed" width="4.8" height="4.8"/>
	<rect x="38.6" y="48.3" shape-rendering="optimizeSpeed" width="4.8" height="4.8"/>
	<rect x="53.1" y="48.3" shape-rendering="optimizeSpeed" width="4.8" height="4.8"/>
	<rect x="57.9" y="48.3" shape-rendering="optimizeSpeed" width="4.8" height="4.8"/>
	<rect x="67.6" y="48.3" shape-rendering="optimizeSpeed" width="4.8" height="4.8"/>
	<rect x="86.9" y="48.3" shape-rendering="optimizeSpeed" width="4.8" height="4.8"/>
	<rect x="91.7" y="48.3" shape-rendering="optimizeSpeed" width="4.8" height="4.8"/>
	<rect x="19.3" y="53.1" shape-rendering="optimizeSpeed" width="4.8" height="4.8"/>
	<rect x="24.1" y="53.1" shape-rendering="optimizeSpeed" width="4.8" height="4.8"/>
	<rect x="38.6" y="53.1" shape-rendering="optimizeSpeed" width="4.8" height="4.8"/>
	<rect x="48.3" y="53.1" shape-rendering="optimizeSpeed" width="4.8" height="4.8"/>
	<rect x="62.8" y="53.1" shape-rendering="optimizeSpeed" width="4.8" height="4.8"/>
	<rect x="77.2" y="53.1" shape-rendering="optimizeSpeed" width="4.8" height="4.8"/>
	<rect x="82.1" y="53.1" shape-rendering="optimizeSpeed" width="4.8" height="4.8"/>
	<rect x="86.9" y="53.1" shape-rendering="optimizeSpeed" width="4.8" height="4.8"/>
	<rect y="57.9" shape-rendering="optimizeSpeed" width="4.8" height="4.8"/>
	<rect x="4.8" y="57.9" shape-rendering="optimizeSpeed" width="4.8" height="4.8"/>
	<rect x="9.7" y="57.9" shape-rendering="optimizeSpeed" width="4.8" height="4.8"/>
	<rect x="14.5" y="57.9" shape-rendering="optimizeSpeed" width="4.8" height="4.8"/>
	<rect x="19.3" y="57.9" shape-rendering="optimizeSpeed" width="4.8" height="4.8"/>
	<rect x="29" y="57.9" shape-rendering="optimizeSpeed" width="4.8" height="4.8"/>
	<rect x="38.6" y="57.9" shape-rendering="optimizeSpeed" width="4.8" height="4.8"/>
	<rect x="43.4" y="57.9" shape-rendering="optimizeSpeed" width="4.8" height="4.8"/>
	<rect x="48.3" y="57.9" shape-rendering="optimizeSpeed" width="4.8" height="4.8"/>
	<rect x="53.1" y="57.9" shape-rendering="optimizeSpeed" width="4.8" height="4.8"/>
	<rect x="67.6" y="57.9" shape-rendering="optimizeSpeed" width="4.8" height="4.8"/>
	<rect x="77.2" y="57.9" shape-rendering="optimizeSpeed" width="4.8" height="4.8"/>
	<rect x="82.1" y="57.9" shape-rendering="optimizeSpeed" width="4.8" height="4.8"/>
	<rect x="96.5" y="57.9" shape-rendering="optimizeSpeed" width="4.8" height="4.8"/>
	<rect x="38.6" y="62.8" shape-rendering="optimizeSpeed" width="4.8" height="4.8"/>
	<rect x="48.3" y="62.8" shape-rendering="optimizeSpeed" width="4.8" height="4.8"/>
	<rect x="62.8" y="62.8" shape-rendering="optimizeSpeed" width="4.8" height="4.8"/>
	<rect x="72.4" y="62.8" shape-rendering="optimizeSpeed" width="4.8" height="4.8"/>
	<rect x="77.2" y="62.8" shape-rendering="optimizeSpeed" width="4.8" height="4.8"/>
	<rect x="82.1" y="62.8" shape-rendering="optimizeSpeed" width="4.8" height="4.8"/>
	<rect x="86.9" y="62.8" shape-rendering="optimizeSpeed" width="4.8" height="4.8"/>
	<rect x="96.5" y="62.8" shape-rendering="optimizeSpeed" width="4.8" height="4.8"/>
	<rect y="67.6" shape-rendering="optimizeSpeed" width="4.8" height="4.8"/>
	<rect x="4.8" y="67.6" shape-rendering="optimizeSpeed" width="4.8" height="4.8"/>
	<rect x="9.7" y="67.6" shape-rendering="optimizeSpeed" width="4.8" height="4.8"/>
	<rect x="14.5" y="67.6" shape-rendering="optimizeSpeed" width="4.8" height="4.8"/>
	<rect x="19.3" y="67.6" shape-rendering="optimizeSpeed" width="4.8" height="4.8"/>
	<rect x="24.1" y="67.6" shape-rendering="optimizeSpeed" width="4.8" height="4.8"/>
	<rect x="29" y="67.6" shape-rendering="optimizeSpeed" width="4.8" height="4.8"/>
	<rect x="38.6" y="67.6" shape-rendering="optimizeSpeed" width="4.8" height="4.8"/>
	<rect x="43.4" y="67.6" shape-rendering="optimizeSpeed" width="4.8" height="4.8"/>
	<rect x="48.3" y="67.6" shape-rendering="optimizeSpeed" width="4.8" height="4.8"/>
	<rect x="57.9" y="67.6" shape-rendering="optimizeSpeed" width="4.8" height="4.8"/>
	<rect x="62.8" y="67.6" shape-rendering="optimizeSpeed" width="4.8" height="4.8"/>
	<rect x="72.4" y="67.6" shape-rendering="optimizeSpeed" width="4.8" height="4.8"/>
	<rect x="86.9" y="67.6" shape-rendering="optimizeSpeed" width="4.8" height="4.8"/>
	<rect x="91.7" y="67.6" shape-rendering="optimizeSpeed" width="4.8" height="4.8"/>
	<rect y="72.4" shape-rendering="optimizeSpeed" width="4.8" height="4.8"/>
	<rect x="29" y="72.4" shape-rendering="optimizeSpeed" width="4.8" height="4.8"/>
	<rect x="53.1" y="72.4" shape-rendering="optimizeSpeed" width="4.8" height="4.8"/>
	<rect x="62.8" y="72.4" shape-rendering="optimizeSpeed" width="4.8" height="4.8"/>
	<rect x="77.2" y="72.4" shape-rendering="optimizeSpeed" width="4.8" height="4.8"/>
	<rect x="82.1" y="72.4" shape-rendering="optimizeSpeed" width="4.8" height="4.8"/>
	<rect x="86.9" y="72.4" shape-rendering="optimizeSpeed" width="4.8" height="4.8"/>
	<rect x="91.7" y="72.4" shape-rendering="optimizeSpeed" width="4.8" height="4.8"/>
	<rect x="96.5" y="72.4" shape-rendering="optimizeSpeed" width="4.8" height="4.8"/>
	<rect y="77.2" shape-rendering="optimizeSpeed" width="4.8" height="4.8"/>
	<rect x="9.7" y="77.2" shape-rendering="optimizeSpeed" width="4.8" height="4.8"/>
	<rect x="14.5" y="77.2" shape-rendering="optimizeSpeed" width="4.8" height="4.8"/>
	<rect x="19.3" y="77.2" shape-rendering="optimizeSpeed" width="4.8" height="4.8"/>
	<rect x="29" y="77.2" shape-rendering="optimizeSpeed" width="4.8" height="4.8"/>
	<rect x="38.6" y="77.2" shape-rendering="optimizeSpeed" width="4.8" height="4.8"/>
	<rect x="62.8" y="77.2" shape-rendering="optimizeSpeed" width="4.8" height="4.8"/>
	<rect x="67.6" y="77.2" shape-rendering="optimizeSpeed" width="4.8" height="4.8"/>
	<rect x="77.2" y="77.2" shape-rendering="optimizeSpeed" width="4.8" height="4.8"/>
	<rect x="82.1" y="77.2" shape-rendering="optimizeSpeed" width="4.8" height="4.8"/>
	<rect x="91.7" y="77.2" shape-rendering="optimizeSpeed" width="4.8" height="4.8"/>
	<rect x="96.5" y="77.2" shape-rendering="optimizeSpeed" width="4.8" height="4.8"/>
	<rect y="82.1" shape-rendering="optimizeSpeed" width="4.8" height="4.8"/>
	<rect x="9.7" y="82.1" shape-rendering="optimizeSpeed" width="4.8" height="4.8"/>
	<rect x="14.5" y="82.1" shape-rendering="optimizeSpeed" width="4.8" height="4.8"/>
	<rect x="19.3" y="82.1" shape-rendering="optimizeSpeed" width="4.8" height="4.8"/>
	<rect x="29" y="82.1" shape-rendering="optimizeSpeed" width="4.8" height="4.8"/>
	<rect x="38.6" y="82.1" shape-rendering="optimizeSpeed" width="4.8" height="4.8"/>
	<rect x="48.3" y="82.1" shape-rendering="optimizeSpeed" width="4.8" height="4.8"/>
	<rect x="62.8" y="82.1" shape-rendering="optimizeSpeed" width="4.8" height="4.8"/>
	<rect x="72.4" y="82.1" shape-rendering="optimizeSpeed" width="4.8" height="4.8"/>
	<rect x="77.2" y="82.1" shape-rendering="optimizeSpeed" width="4.8" height="4.8"/>
	<rect x="86.9" y="82.1" shape-rendering="optimizeSpeed" width="4.8" height="4.8"/>
	<rect y="86.9" shape-rendering="optimizeSpeed" width="4.8" height="4.8"/>
	<rect x="9.7" y="86.9" shape-rendering="optimizeSpeed" width="4.8" height="4.8"/>
	<rect x="14.5" y="86.9" shape-rendering="optimizeSpeed" width="4.8" height="4.8"/>
	<rect x="19.3" y="86.9" shape-rendering="optimizeSpeed" width="4.8" height="4.8"/>
	<rect x="29" y="86.9" shape-rendering="optimizeSpeed" width="4.8" height="4.8"/>
	<rect x="38.6" y="86.9" shape-rendering="optimizeSpeed" width="4.8" height="4.8"/>
	<rect x="48.3" y="86.9" shape-rendering="optimizeSpeed" width="4.8" height="4.8"/>
	<rect x="53.1" y="86.9" shape-rendering="optimizeSpeed" width="4.8" height="4.8"/>
	<rect x="57.9" y="86.9" shape-rendering="optimizeSpeed" width="4.8" height="4.8"/>
	<rect x="72.4" y="86.9" shape-rendering="optimizeSpeed" width="4.8" height="4.8"/>
	<rect x="86.9" y="86.9" shape-rendering="optimizeSpeed" width="4.8" height="4.8"/>
	<rect y="91.7" shape-rendering="optimizeSpeed" width="4.8" height="4.8"/>
	<rect x="29" y="91.7" shape-rendering="optimizeSpeed" width="4.8" height="4.8"/>
	<rect x="38.6" y="91.7" shape-rendering="optimizeSpeed" width="4.8" height="4.8"/>
	<rect x="43.4" y="91.7" shape-rendering="optimizeSpeed" width="4.8" height="4.8"/>
	<rect x="53.1" y="91.7" shape-rendering="optimizeSpeed" width="4.8" height="4.8"/>
	<rect x="57.9" y="91.7" shape-rendering="optimizeSpeed" width="4.8" height="4.8"/>
	<rect x="62.8" y="91.7" shape-rendering="optimizeSpeed" width="4.8" height="4.8"/>
	<rect x="72.4" y="91.7" shape-rendering="optimizeSpeed" width="4.8" height="4.8"/>
	<rect x="77.2" y="91.7" shape-rendering="optimizeSpeed" width="4.8" height="4.8"/>
	<rect x="86.9" y="91.7" shape-rendering="optimizeSpeed" width="4.8" height="4.8"/>
	<rect y="96.5" shape-rendering="optimizeSpeed" width="4.8" height="4.8"/>
	<rect x="4.8" y="96.5" shape-rendering="optimizeSpeed" width="4.8" height="4.8"/>
	<rect x="9.7" y="96.5" shape-rendering="optimizeSpeed" width="4.8" height="4.8"/>
	<rect x="14.5" y="96.5" shape-rendering="optimizeSpeed" width="4.8" height="4.8"/>
	<rect x="19.3" y="96.5" shape-rendering="optimizeSpeed" width="4.8" height="4.8"/>
	<rect x="24.1" y="96.5" shape-rendering="optimizeSpeed" width="4.8" height="4.8"/>
	<rect x="29" y="96.5" shape-rendering="optimizeSpeed" width="4.8" height="4.8"/>
	<rect x="38.6" y="96.5" shape-rendering="optimizeSpeed" width="4.8" height="4.8"/>
	<rect x="48.3" y="96.5" shape-rendering="optimizeSpeed" width="4.8" height="4.8"/>
	<rect x="67.6" y="96.5" shape-rendering="optimizeSpeed" width="4.8" height="4.8"/>
	<rect x="72.4" y="96.5" shape-rendering="optimizeSpeed" width="4.8" height="4.8"/>
	<rect x="77.2" y="96.5" shape-rendering="optimizeSpeed" width="4.8" height="4.8"/>
	<rect x="82.1" y="96.5" shape-rendering="optimizeSpeed" width="4.8" height="4.8"/>
	<rect x="91.7" y="96.5" shape-rendering="optimizeSpeed" width="4.8" height="4.8"/>
</g>
</svg>
