<?xml version="1.0" encoding="utf-8"?>
<!-- Generator: Adobe Illustrator 23.1.0, SVG Export Plug-In . SVG Version: 6.00 Build 0)  -->
<svg version="1.1" id="Vrstva_1" xmlns="http://www.w3.org/2000/svg" xmlns:xlink="http://www.w3.org/1999/xlink" x="0px" y="0px"
	 viewBox="0 0 100.7 171.8" style="enable-background:new 0 0 100.7 171.8;" xml:space="preserve">
<style type="text/css">
	.st0{fill:#62B493;}
</style>
<path class="st0" d="M12.8,65.8c-0.3-1.3-0.3-2.7-0.1-4c0.3-1.4,1-2.4,2-3.1c0.8-0.6,1.7-0.8,2.7-0.7c1,0.1,1.8,0.4,2.6,1
	c0.8,0.5,1.4,1.2,2,2c0.7,1,1.2,2.2,1.5,3.5c0.3,1.3,0.3,2.7,0,4.1c-0.3,1.4-1,2.4-2,3.1c-0.8,0.6-1.7,0.8-2.7,0.7
	c-1-0.1-1.8-0.4-2.6-1c-0.8-0.5-1.4-1.2-2-2C13.6,68.3,13.1,67.2,12.8,65.8z M26.6,70.7c-0.3-1.4-0.2-2.8,0.1-4.2
	c0.4-1.4,1.1-2.4,2.1-3.1c1-0.7,2.1-0.9,3.3-0.5c1.1,0.4,2.1,1.2,2.8,2.2c0.7,1,1.2,2.2,1.4,3.6c0.3,1.4,0.2,2.8-0.2,4.1
	c-0.4,1.4-1.1,2.4-2.1,3.1c-1,0.7-2.1,0.9-3.3,0.5c-1.1-0.4-2.1-1.1-2.8-2.2C27.4,73.3,26.9,72.1,26.6,70.7z M24.5,77.8
	c2-0.2,3.9-0.1,5.9,0.3c2,0.4,3.8,1,5.6,1.9c1.8,0.9,3,1.9,3.9,3.1c1.4,2,0.8,3.8-1.7,5.6c-1,0.7-2.6,1.3-4.7,1.9
	c-2.1,0.6-3.7,1.2-4.5,1.8C28,93.1,27,94.3,25.8,96c-1.2,1.7-2.3,2.9-3.2,3.6c-0.6,0.4-1.1,0.7-1.6,1c-0.5,0.2-1,0.4-1.6,0.5
	c-0.6,0.1-1.1,0-1.6-0.2c-0.5-0.3-1-0.7-1.4-1.3c-1.1-1.6-1.7-3.7-1.7-6.5s0.4-5.5,1.3-8.1c0.9-2.6,2.2-4.5,3.8-5.6
	C20.9,78.5,22.5,78,24.5,77.8z M8.2,79.2c-1.4-0.2-2.6-0.7-3.8-1.5c-1.1-0.8-2.1-1.7-2.8-2.6c-0.6-0.8-1-1.7-1.2-2.6s-0.3-1.8,0-2.8
	s0.8-1.7,1.6-2.3c1-0.7,2.3-1,3.6-0.8s2.6,0.7,3.8,1.4c1.1,0.8,2.1,1.7,2.8,2.7c0.6,0.8,1,1.7,1.2,2.6c0.2,0.9,0.3,1.8,0,2.8
	c-0.2,0.9-0.8,1.7-1.6,2.3C10.8,79.2,9.6,79.4,8.2,79.2z M5.2,81.6c1.4,0.1,2.7,0.6,3.9,1.3c1.2,0.7,2.2,1.6,2.9,2.6
	c0.8,1.1,1.1,2.2,1.1,3.4c0,1.2-0.5,2.2-1.6,2.9c-1,0.7-2.3,1-3.7,0.9S5.2,92.1,4,91.4c-1.2-0.7-2.2-1.6-2.9-2.6
	C0.4,87.7,0,86.6,0,85.4c0-1.2,0.5-2.2,1.6-2.9C2.6,81.7,3.8,81.4,5.2,81.6z"/>
<g>
	<path class="st0" d="M100.7,67.2c-0.2,0.1-0.3,0.2-0.5,0.3c-1.6,1.1-2.9,3-3.8,5.6s-1.4,5.3-1.3,8.1c0.1,2.8,0.6,4.9,1.7,6.5
		c0.4,0.6,0.9,1.1,1.4,1.3c0.5,0.3,1.1,0.3,1.6,0.2c0.3,0,0.5-0.1,0.8-0.2V67.2z"/>
	<path class="st0" d="M92.7,58.9c-0.7-1-1.6-1.9-2.8-2.7c-1.1-0.8-2.4-1.3-3.8-1.4s-2.6,0.1-3.6,0.8c-0.8,0.6-1.4,1.3-1.6,2.3
		s-0.2,1.9,0,2.8c0.2,0.9,0.7,1.8,1.2,2.6c0.7,1,1.6,1.9,2.8,2.6c1.1,0.8,2.4,1.3,3.8,1.5s2.6-0.1,3.6-0.8c0.8-0.6,1.4-1.3,1.6-2.3
		s0.2-1.9,0-2.8C93.6,60.6,93.2,59.7,92.7,58.9z"/>
	<path class="st0" d="M89.7,71c-1.2-0.7-2.5-1.2-3.9-1.3c-1.4-0.1-2.6,0.2-3.7,0.9c-1,0.7-1.6,1.7-1.6,2.9c0,1.2,0.4,2.3,1.1,3.4
		c0.7,1,1.7,1.9,2.9,2.6c1.2,0.7,2.5,1.2,3.9,1.3c1.4,0.1,2.6-0.2,3.7-0.9c1-0.7,1.6-1.7,1.6-2.9s-0.4-2.3-1.1-3.4
		C91.9,72.6,90.9,71.7,89.7,71z"/>
	<path class="st0" d="M96.8,59.5c0.8,0.5,1.6,0.9,2.6,1c0.5,0.1,0.9,0,1.3-0.1V47.2c-0.1-0.1-0.1-0.1-0.2-0.2
		c-0.8-0.5-1.6-0.9-2.6-1c-1-0.1-1.9,0.1-2.7,0.7c-1,0.7-1.7,1.8-2,3.1c-0.3,1.4-0.3,2.7,0.1,4c0.3,1.3,0.8,2.5,1.5,3.5
		C95.4,58.3,96,58.9,96.8,59.5z"/>
</g>
<g>
	<path class="st0" d="M3.5,1.4c0.1,0.9,0.3,1.9,0.7,2.8c0.5,1.1,1.2,2.2,2.2,3.1c1,1,2.1,1.7,3.4,2.2s2.6,0.5,3.7,0
		c0.9-0.4,1.6-1,2-1.9S16,5.8,16,4.9c-0.1-0.9-0.3-1.9-0.7-2.8C15,1.4,14.5,0.7,14,0H3.6C3.5,0.5,3.4,1,3.5,1.4z"/>
	<path class="st0" d="M30.5,0.9c-0.6,1.3-1,2.6-1,4s0.2,2.7,0.7,3.8c0.5,1.2,1.3,2.1,2.3,2.8s2.1,0.7,3.3,0.2c1.2-0.5,2-1.4,2.7-2.6
		c0.6-1.3,1-2.6,1-4c0-1.4-0.2-2.7-0.7-3.8c-0.2-0.4-0.4-0.8-0.7-1.2H31C30.8,0.3,30.6,0.6,30.5,0.9z"/>
	<path class="st0" d="M19.2,3.5c0.6,0.7,1.4,1.2,2.3,1.5c0.9,0.3,1.8,0.3,2.8-0.1c1.2-0.5,2-1.4,2.6-2.7c0.3-0.7,0.5-1.4,0.6-2.2
		H17.3c0.1,0.4,0.2,0.7,0.4,1.1C18,2,18.6,2.8,19.2,3.5z"/>
	<path class="st0" d="M36.7,15.9c-1.5-1.2-3.2-2.2-5.1-3c-1.8-0.8-3.7-1.3-5.7-1.5c-2-0.2-3.6,0-5,0.5c-1.8,0.8-3.4,2.3-4.9,4.7
		c-1.4,2.4-2.4,4.9-2.9,7.6s-0.4,5,0.4,6.7c0.3,0.7,0.7,1.2,1.1,1.6c0.5,0.4,1,0.5,1.5,0.6c0.6,0,1.1,0,1.7-0.2s1.1-0.3,1.8-0.6
		c1-0.4,2.3-1.4,3.8-2.9c1.5-1.5,2.8-2.4,3.7-2.8c1-0.4,2.6-0.7,4.8-0.9s3.9-0.5,5-0.9c2.8-1.2,3.7-2.9,2.7-5.1
		C39.3,18.4,38.2,17.2,36.7,15.9z"/>
	<path class="st0" d="M9.9,13.3c-1-1-2.2-1.7-3.6-2.1c-1.4-0.4-2.6-0.4-3.8,0.1c-1.2,0.5-1.9,1.3-2.1,2.5c-0.2,1.2-0.1,2.4,0.4,3.6
		c0.5,1.1,1.2,2.2,2.3,3.1s2.2,1.6,3.6,2.1s2.6,0.4,3.8-0.1c1.2-0.5,1.9-1.3,2.1-2.5c0.3-1.2,0.1-2.4-0.4-3.6
		C11.7,15.3,11,14.3,9.9,13.3z"/>
</g>
<g>
	<path class="st0" d="M88.1,139.9c0.5,0.8,1.2,1.6,1.9,2.1c0.7,0.6,1.6,1,2.5,1.1c1,0.2,1.9,0,2.7-0.6c1.1-0.7,1.8-1.7,2.1-3
		c0.4-1.3,0.4-2.7,0.2-4.1s-0.7-2.5-1.4-3.6c-0.5-0.8-1.2-1.6-1.9-2.1c-0.7-0.6-1.6-1-2.5-1.1s-1.9,0-2.7,0.6
		c-1.1,0.7-1.8,1.7-2.2,3c-0.4,1.3-0.4,2.7-0.2,4C87,137.7,87.4,138.9,88.1,139.9z"/>
	<path class="st0" d="M100.7,143.5v-5.7c-0.4,1.3-0.5,2.7-0.3,4.1C100.4,142.5,100.5,143,100.7,143.5z"/>
	<path class="st0" d="M82.3,153.2c-1.2-0.8-2.5-1.3-3.9-1.5c-1.4-0.2-2.6,0-3.7,0.7c-1.1,0.7-1.7,1.6-1.7,2.8
		c-0.1,1.2,0.2,2.4,0.9,3.5c0.6,1,1.6,1.9,2.7,2.7c1.2,0.8,2.5,1.3,3.9,1.5c1.4,0.2,2.6,0,3.7-0.7c1.1-0.7,1.7-1.6,1.7-2.8
		s-0.2-2.4-0.9-3.5C84.4,154.9,83.5,154,82.3,153.2z"/>
	<path class="st0" d="M85.9,141.3c-0.6-1-1.5-2-2.6-2.8c-1.1-0.8-2.3-1.4-3.7-1.6c-1.4-0.3-2.6-0.1-3.7,0.6
		c-0.9,0.5-1.4,1.3-1.7,2.2c-0.3,0.9-0.3,1.9-0.1,2.8c0.2,0.9,0.6,1.8,1.1,2.6c0.6,1,1.5,2,2.6,2.8c1.1,0.8,2.3,1.4,3.7,1.6
		c1.4,0.3,2.6,0.1,3.7-0.6c0.9-0.5,1.4-1.3,1.7-2.2c0.3-0.9,0.3-1.9,0.1-2.8C86.8,143,86.4,142.1,85.9,141.3z"/>
	<path class="st0" d="M100.7,149c-1-0.1-1.9-0.1-2.9-0.1c-2,0.1-3.6,0.5-4.8,1.3c-1.7,1-3,2.8-4.1,5.4s-1.6,5.2-1.7,8
		s0.4,4.9,1.4,6.6c0.4,0.6,0.9,1.1,1.4,1.4c0.5,0.3,1,0.4,1.6,0.3s1.1-0.2,1.6-0.4c0.5-0.2,1.1-0.5,1.7-0.9c1-0.6,2.1-1.7,3.4-3.4
		c0.9-1.2,1.8-2.1,2.5-2.8V149z"/>
</g>
</svg>
