<?xml version="1.0" encoding="utf-8"?>
<!-- Generator: Adobe Illustrator 23.1.0, SVG Export Plug-In . SVG Version: 6.00 Build 0)  -->
<svg version="1.1" id="Vrstva_1" xmlns="http://www.w3.org/2000/svg" xmlns:xlink="http://www.w3.org/1999/xlink" x="0px" y="0px"
	 viewBox="0 0 108.4 192.5" style="enable-background:new 0 0 108.4 192.5;" xml:space="preserve">
<style type="text/css">
	.st0{fill:#62B493;}
</style>
<path class="st0" d="M92.8,69.9c-0.5,0.9-1.1,1.6-1.8,2.2c-0.7,0.6-1.5,1-2.5,1.2s-1.9,0-2.7-0.5c-1.1-0.6-1.8-1.6-2.3-2.9
	s-0.5-2.7-0.3-4c0.2-1.4,0.6-2.6,1.2-3.6c0.5-0.9,1.1-1.6,1.8-2.2s1.5-1,2.5-1.2c1-0.2,1.9,0,2.7,0.5c1.1,0.6,1.9,1.6,2.3,2.9
	c0.4,1.3,0.5,2.7,0.3,4C93.8,67.6,93.4,68.8,92.8,69.9z M79.4,76c-0.7,1.1-1.5,2-2.6,2.5s-2.2,0.4-3.3-0.2c-1.1-0.6-1.9-1.6-2.4-2.9
	c-0.5-1.3-0.7-2.7-0.5-4.1s0.5-2.6,1.1-3.7c0.7-1.1,1.5-2,2.6-2.5c1.1-0.5,2.2-0.4,3.3,0.2c1.1,0.6,1.9,1.6,2.4,2.9
	c0.5,1.3,0.7,2.7,0.5,4.1C80.4,73.7,80.1,75,79.4,76z M88.2,80.3c1.7,1,3.1,2.7,4.3,5.2c1.2,2.5,1.8,5.2,2,7.9s-0.2,5-1.2,6.6
	c-0.4,0.7-0.8,1.1-1.3,1.4c-0.5,0.3-1,0.4-1.6,0.4s-1.1-0.2-1.6-0.4c-0.5-0.2-1.1-0.5-1.7-0.8c-1-0.6-2.1-1.7-3.5-3.3
	c-1.3-1.6-2.5-2.7-3.4-3.2c-0.9-0.5-2.5-1-4.7-1.4c-2.2-0.4-3.8-0.9-4.9-1.5c-2.6-1.5-3.3-3.3-2.1-5.4c0.7-1.2,1.9-2.4,3.6-3.4
	c1.7-1.1,3.5-1.9,5.4-2.4c1.9-0.6,3.9-0.8,5.8-0.8S87,79.6,88.2,80.3z M96,78.7c-0.9-0.5-1.5-1.2-1.8-2.1c-0.3-0.9-0.4-1.8-0.2-2.8
	s0.5-1.8,1-2.7c0.6-1.1,1.4-2,2.5-2.9c1.1-0.9,2.3-1.5,3.6-1.8s2.6-0.2,3.7,0.5c0.9,0.5,1.5,1.2,1.8,2.1c0.3,0.9,0.4,1.8,0.2,2.8
	s-0.5,1.8-1,2.7c-0.6,1-1.4,2-2.5,2.9c-1.1,0.9-2.3,1.5-3.7,1.8C98.3,79.5,97.1,79.3,96,78.7z M106.6,81.8c1.1,0.6,1.7,1.6,1.8,2.7
	s-0.2,2.4-0.8,3.5c-0.6,1.1-1.5,2-2.6,2.8s-2.4,1.4-3.8,1.6s-2.6,0.1-3.7-0.6c-1.1-0.6-1.7-1.5-1.8-2.7c-0.1-1.2,0.2-2.4,0.8-3.5
	c0.6-1.1,1.5-2,2.6-2.8c1.1-0.8,2.4-1.4,3.8-1.6C104.2,81,105.5,81.2,106.6,81.8z"/>
<g>
	<path class="st0" d="M14.4,170.8c-1.1-1-2.6-1.7-4.5-2.2s-3.9-0.6-5.9-0.5c-1.4,0.1-2.7,0.3-4.1,0.6v11.7c1.7,0.8,2.9,1.5,3.6,2.1
		c0.8,0.7,1.6,2,2.6,3.9s1.8,3.2,2.7,4c0.5,0.5,1,0.9,1.5,1.2s1,0.5,1.5,0.7c0.5,0.2,1.1,0.2,1.6,0s1.1-0.5,1.6-1.1
		c1.3-1.4,2.2-3.5,2.6-6.2c0.4-2.7,0.4-5.4-0.2-8.2S15.9,172.1,14.4,170.8z"/>
	<path class="st0" d="M0,164.9c0.2,0.2,0.3,0.4,0.5,0.6c0.9,0.9,2,1.2,3.2,0.9c1.2-0.2,2.2-0.9,3.1-1.8c0.8-0.9,1.5-2,1.9-3.4
		c0.5-1.3,0.6-2.7,0.4-4.1s-0.7-2.5-1.6-3.4c-0.9-0.9-2-1.2-3.2-0.9s-2.2,0.9-3.1,1.8c-0.5,0.5-0.9,1.1-1.2,1.8V164.9z"/>
	<path class="st0" d="M23.2,158.4c0.5-1.3,0.7-2.6,0.6-4c-0.1-1.4-0.6-2.5-1.6-3.4c-0.7-0.7-1.6-1-2.6-1.1s-1.9,0.2-2.7,0.6
		s-1.6,1-2.3,1.7c-0.8,0.9-1.5,2-2,3.3c-0.5,1.3-0.7,2.6-0.6,4s0.6,2.5,1.5,3.4c0.7,0.7,1.6,1,2.6,1.1s1.9-0.2,2.7-0.6
		s1.6-1,2.3-1.7C22,160.7,22.7,159.6,23.2,158.4z"/>
	<path class="st0" d="M28.4,175c-1.4-0.1-2.8,0.2-4.1,0.7s-2.4,1.3-3.2,2.2c-0.9,1-1.4,2.1-1.6,3.2c-0.2,1.2,0.2,2.2,1.2,3.1
		c0.9,0.9,2.1,1.3,3.5,1.4c1.4,0.1,2.8-0.2,4.1-0.7s2.4-1.3,3.2-2.2c0.9-1,1.4-2.1,1.6-3.2c0.2-1.2-0.2-2.2-1.2-3.1
		C31,175.5,29.9,175,28.4,175z"/>
	<path class="st0" d="M34.8,164c-0.1-1-0.5-1.8-1.3-2.5c-0.9-0.9-2.1-1.3-3.5-1.3c-1.4,0-2.7,0.3-3.9,0.9c-1.2,0.6-2.3,1.4-3.1,2.3
		c-0.7,0.7-1.2,1.5-1.6,2.4c-0.4,0.9-0.5,1.8-0.4,2.7c0.1,1,0.5,1.8,1.3,2.5c0.9,0.9,2.1,1.3,3.5,1.3c1.4,0,2.7-0.3,4-0.9
		s2.3-1.4,3.1-2.2c0.7-0.7,1.2-1.5,1.6-2.4C34.8,165.8,34.9,164.9,34.8,164z"/>
</g>
<g>
	<path class="st0" d="M82.9,8.7c1.2,0.5,2.4,0.5,3.7,0s2.5-1.2,3.4-2.2c1-1,1.7-2,2.2-3.1c0.4-0.9,0.6-1.8,0.7-2.8
		c0-0.2,0-0.4,0-0.7H81.7c-0.3,0.4-0.5,0.9-0.7,1.3c-0.4,0.9-0.6,1.8-0.7,2.8c-0.1,0.9,0.1,1.8,0.5,2.7S82,8.3,82.9,8.7z"/>
	<path class="st0" d="M57.6,0.4c-0.5,1.1-0.7,2.4-0.7,3.8c0,1.4,0.4,2.8,1,4c0.6,1.3,1.5,2.2,2.7,2.6c1.2,0.5,2.3,0.4,3.3-0.2
		c1-0.6,1.8-1.5,2.3-2.8c0.5-1.1,0.7-2.4,0.7-3.8c0-1.4-0.3-2.8-1-4c0,0,0-0.1-0.1-0.1h-8C57.7,0.1,57.6,0.3,57.6,0.4z"/>
	<path class="st0" d="M72,4c0.9,0.4,1.9,0.4,2.8,0.1c0.9-0.3,1.7-0.8,2.3-1.5c0.6-0.7,1.2-1.5,1.5-2.4c0-0.1,0.1-0.2,0.1-0.3H69
		c0.1,0.5,0.3,0.9,0.5,1.4C70,2.7,70.9,3.5,72,4z"/>
	<path class="st0" d="M93.8,10.6c-1.2-0.5-2.4-0.5-3.8-0.1c-1.4,0.4-2.6,1.1-3.6,2.1c-1,1-1.8,2-2.3,3.1c-0.5,1.2-0.7,2.4-0.4,3.6
		c0.3,1.2,1,2,2.1,2.5c1.2,0.5,2.4,0.5,3.8,0.1s2.6-1.1,3.6-2.1c1-1,1.8-2,2.3-3.1c0.5-1.2,0.7-2.4,0.4-3.6
		C95.6,11.9,94.9,11.1,93.8,10.6z"/>
	<path class="st0" d="M80.2,15.9c-1.4-2.4-3.1-3.9-4.9-4.7c-1.4-0.6-3-0.8-5-0.5c-2,0.2-3.9,0.7-5.7,1.5c-1.8,0.8-3.5,1.8-5.1,3
		c-1.5,1.2-2.6,2.5-3.2,3.8c-1,2.2,0,3.9,2.7,5.1c1.1,0.5,2.8,0.8,5,0.9s3.8,0.4,4.8,0.9c1,0.4,2.2,1.3,3.7,2.8s2.8,2.4,3.8,2.9
		c0.7,0.3,1.2,0.5,1.8,0.6s1.1,0.2,1.7,0.2c0.6,0,1.1-0.2,1.5-0.6c0.5-0.4,0.8-0.9,1.1-1.6c0.8-1.7,0.9-4,0.4-6.7
		S81.7,18.3,80.2,15.9z"/>
</g>
<g>
	<path class="st0" d="M7.8,79.1c-1.2-0.8-2.8-1.4-4.8-1.5c-1-0.1-2-0.1-3.1,0v16c0.5,0.6,1.1,1.3,1.7,2.3c1.2,1.7,2.3,2.9,3.2,3.6
		c0.6,0.4,1.1,0.7,1.6,1c0.5,0.2,1,0.4,1.6,0.5c0.6,0.1,1.1,0,1.6-0.2c0.5-0.3,1-0.7,1.4-1.3c1.1-1.6,1.7-3.7,1.7-6.5
		c0.1-2.8-0.4-5.5-1.3-8.1S9.4,80.2,7.8,79.1z"/>
	<path class="st0" d="M0,73.1c0.4-0.8,0.7-1.7,0.9-2.6c0.3-1.4,0.2-2.8-0.1-4.2c-0.2-0.6-0.4-1.2-0.7-1.7V73.1z"/>
	<path class="st0" d="M25.9,82.2c-1-0.7-2.3-1-3.7-0.9c-1.4,0.1-2.7,0.6-3.9,1.3c-1.2,0.7-2.2,1.6-2.9,2.6c-0.8,1.1-1.1,2.2-1.1,3.4
		c0,1.2,0.5,2.2,1.6,2.9c1,0.7,2.3,1,3.7,0.9c1.4-0.1,2.7-0.6,3.9-1.3c1.2-0.7,2.2-1.6,2.9-2.6c0.8-1.1,1.1-2.2,1.1-3.4
		C27.5,83.9,27,82.9,25.9,82.2z"/>
	<path class="st0" d="M14.8,61.5c-0.3-1.4-1-2.4-2-3.1c-0.8-0.6-1.7-0.8-2.7-0.7c-1,0.1-1.8,0.4-2.6,1c-0.8,0.5-1.4,1.2-2,2
		c-0.7,1-1.2,2.2-1.5,3.5s-0.3,2.7,0,4.1c0.3,1.4,1,2.4,2,3.1c0.8,0.6,1.7,0.8,2.7,0.7s1.8-0.4,2.6-1c0.8-0.5,1.4-1.2,2-2
		c0.7-1,1.2-2.2,1.5-3.5C15.1,64.3,15.1,62.9,14.8,61.5z"/>
	<path class="st0" d="M15.7,78.2c1,0.7,2.2,1,3.6,0.8c1.4-0.2,2.6-0.7,3.8-1.5c1.1-0.8,2.1-1.7,2.8-2.6c0.6-0.8,1-1.7,1.2-2.6
		c0.2-0.9,0.3-1.8,0-2.8c-0.2-0.9-0.8-1.7-1.6-2.3c-1-0.7-2.3-1-3.6-0.8c-1.4,0.2-2.6,0.7-3.8,1.4c-1.1,0.8-2.1,1.7-2.8,2.7
		c-0.6,0.8-1,1.7-1.2,2.6s-0.3,1.8,0,2.8S14.9,77.6,15.7,78.2z"/>
</g>
</svg>
