<?xml version="1.0" encoding="UTF-8" standalone="no"?>
<!-- Created with Inkscape (http://www.inkscape.org/) -->

<svg
   xmlns:dc="http://purl.org/dc/elements/1.1/"
   xmlns:cc="http://creativecommons.org/ns#"
   xmlns:rdf="http://www.w3.org/1999/02/22-rdf-syntax-ns#"
   xmlns:svg="http://www.w3.org/2000/svg"
   xmlns="http://www.w3.org/2000/svg"
   xmlns:sodipodi="http://sodipodi.sourceforge.net/DTD/sodipodi-0.dtd"
   xmlns:inkscape="http://www.inkscape.org/namespaces/inkscape"
   version="1.1"
   id="svg815"
   width="126.45695"
   height="59.030392"
   viewBox="0 0 126.45695 59.030392"
   sodipodi:docname="logo-funkydog-gray.svg"
   inkscape:version="0.92.4 (5da689c313, 2019-01-14)">
  <metadata
     id="metadata821">
    <rdf:RDF>
      <cc:Work
         rdf:about="">
        <dc:format>image/svg+xml</dc:format>
        <dc:type
           rdf:resource="http://purl.org/dc/dcmitype/StillImage" />
        <dc:title></dc:title>
      </cc:Work>
    </rdf:RDF>
  </metadata>
  <defs
     id="defs819" />
  <sodipodi:namedview
     pagecolor="#ffffff"
     bordercolor="#666666"
     borderopacity="1"
     objecttolerance="10"
     gridtolerance="10"
     guidetolerance="10"
     inkscape:pageopacity="0"
     inkscape:pageshadow="2"
     inkscape:window-width="1440"
     inkscape:window-height="837"
     id="namedview817"
     showgrid="false"
     fit-margin-top="0"
     fit-margin-left="0"
     fit-margin-right="0"
     fit-margin-bottom="0"
     inkscape:zoom="6"
     inkscape:cx="66.532311"
     inkscape:cy="28.337059"
     inkscape:window-x="-8"
     inkscape:window-y="-8"
     inkscape:window-maximized="1"
     inkscape:current-layer="svg815" />
  <path
     style="fill:#8d8d8d;stroke-width:0.31999999;fill-opacity:1"
     d="M 7.8839035,58.682224 C 7.0349545,58.325267 6.6066215,57.700474 5.2739005,54.875104 0.95604152,45.721248 -0.77622648,36.210128 0.32083452,27.68 1.3735355,19.494778 2.6467005,14.815782 5.2321125,9.630597 7.2063395,5.67118 7.7201625,5.335506 11.385644,5.610569 c 5.830445,0.437524 13.147216,1.979092 17.76,3.741847 7.352192,2.809606 16.268573,7.891699 17.28113,9.84977 0.400812,0.775084 0.47887,2.932566 0.47887,13.23575 0,6.770346 -0.08604,12.533949 -0.19121,12.808006 -0.293276,0.764263 -6.281062,4.914026 -9.540643,6.612023 -7.679805,4.000608 -17.2016,6.608547 -25.991205,7.118768 -1.4667965,0.08514 -2.6461745,-0.02016 -3.2986825,-0.294509 z m 7.6617405,-4.319827 c 7.845661,-0.891853 17.248886,-4.272602 23.6,-8.484928 l 3.6,-2.387674 V 32.308006 21.126218 l -1.52,-1.138717 C 39.240252,18.500131 30.248847,14.087904 26.61814,12.819363 23.359577,11.680845 17.413113,10.425746 13.013368,9.947852 9.4677435,9.562731 9.7413725,9.371896 8.0061175,13.44 c -2.292702,5.37497 -3.720117,12.891786 -3.706775,19.52 0.01362,6.766013 1.40733,12.934768 4.411836,19.527376 l 1.097133,2.407376 1.3486665,-0.0934 c 0.741766,-0.05136 2.716666,-0.248894 4.388666,-0.438955 z m 100.639996,4.628899 c -3.58955,-0.298003 -7.66044,-0.867667 -10.24,-1.432944 C 96.981511,55.593974 85.126424,50.067056 81.289542,46.063514 l -0.943898,-0.9849 -0.08114,-12.379305 c -0.06222,-9.492698 0.01338,-12.563367 0.324131,-13.16864 1.073616,-2.091047 9.310326,-7.129607 15.648066,-9.57224 6.263479,-2.414008 14.400549,-4.168741 19.899519,-4.291267 3.58277,-0.07983 3.87794,0.09771 5.49453,3.304907 2.36634,4.694625 4.66122,11.747093 3.89711,11.976328 -1.04789,0.314374 -3.50835,0.828857 -3.5677,0.746013 -0.0372,-0.05193 -0.53714,-1.60641 -1.11099,-3.45441 -0.57384,-1.848 -1.6002,-4.555795 -2.2808,-6.017322 l -1.23745,-2.657319 -2.01264,0.202105 c -6.15588,0.618159 -12.13143,1.988091 -17.505639,4.013282 -3.55612,1.34007 -9.38358,4.403664 -11.946998,6.280736 l -1.52,1.113027 v 11.164409 11.164413 l 2.305178,1.618864 c 6.69921,4.704672 18.342449,8.730839 27.512989,9.513831 l 3.09816,0.264524 1.44436,-3.050275 c 2.9622,-6.255741 4.16573,-10.126803 3.42568,-11.018502 -0.51413,-0.619488 -3.13181,-1.182269 -12.02637,-2.585571 -4.048,-0.638656 -7.5174,-1.212128 -7.70979,-1.274384 -0.54673,-0.176928 0.15364,-4.011818 0.73269,-4.011818 1.25384,0 18.07039,2.937005 19.3889,3.386266 3.17191,1.080777 4.43629,3.486902 3.76459,7.164022 -0.58546,3.20504 -5.23702,13.95639 -6.46815,14.950144 -0.55683,0.449462 -2.02363,0.664077 -3.62824,0.530864 z M 59.225644,49.147098 c -1.232,-0.241111 -3.248,-0.825562 -4.48,-1.298778 -1.232,-0.473219 -2.565578,-0.93777 -2.963507,-1.032336 -0.39793,-0.09456 -1.08193,-0.597894 -1.52,-1.118512 L 49.465644,44.750896 V 32.36665 c 0,-14.242301 -0.191718,-13.324573 3.094906,-14.8148 6.327539,-2.869044 14.877222,-2.949517 21.495708,-0.202327 3.759802,1.560611 3.566775,0.740112 3.568189,15.167322 0.0013,11.619097 -0.02842,12.234512 -0.62431,12.992051 -0.625613,0.795338 -4.480186,2.43703 -7.817171,3.329395 -2.489194,0.665651 -7.361812,0.816768 -9.957322,0.308807 z m 11.203334,-5.037639 3.036666,-1.027251 V 32.29585 21.509491 l -1.317795,-0.527277 c -4.906317,-1.96312 -12.298093,-1.96312 -17.20441,0 l -1.317795,0.527277 v 10.806237 10.80624 l 1.84,0.685334 c 5.21608,1.942807 9.837526,2.036128 14.963334,0.302157 z M 49.533666,8.81314 C 48.028332,8.137274 47.545644,6.738065 47.545644,3.050278 47.545644,0.009981 47.548244,0 48.345644,0 h 0.8 v 3.310404 c 0,3.718558 0.322173,4.369596 2.162339,4.369596 1.72096,0 1.997661,-0.601538 1.997661,-4.342857 V 0 h 0.8 c 0.799651,0 0.8,0.0014 0.8,3.179168 0,1.748543 -0.137571,3.541012 -0.305718,3.983264 -0.632989,1.664893 -3.183655,2.49596 -5.06626,1.650708 z m 13.73848,-2.716457 -2.926502,-3.21831 v 3.040814 c 0,3.030201 -0.0028,3.040813 -0.8,3.040813 h -0.8 V 4.48 c 0,-3.372863 0.09885,-4.478982 0.4,-4.475882 0.22,0.0023 1.624,1.390413 3.12,3.084772 l 2.72,3.080652 0.09184,-3.105476 c 0.0887,-2.999251 0.116061,-3.102031 0.8,-3.004771 0.685478,0.09748 0.711037,0.238266 0.79783,4.395038 0.04931,2.361884 -0.03776,4.421758 -0.193497,4.577497 C 66.317599,9.196048 64.969346,7.96311 63.272149,6.096683 Z M 37.625644,4.48 V 0 H 40.2079 c 2.494861,0 2.578797,0.02437 2.48,0.72 -0.09122,0.642288 -0.283645,0.72 -1.782822,0.72 h -1.680567 l 6.4e-4,1.04 6.4e-4,1.04 h 1.76 c 1.546666,0 1.76,0.07758 1.76,0.64 0,0.562424 -0.213334,0.64 -1.76,0.64 h -1.76 v 2.08 c 0,2.005333 -0.0287,2.08 -0.8,2.08 h -0.8 V 4.48 Z m 33.28,0 V 0 h 0.8 c 0.751082,0 0.8,0.102062 0.8,1.669069 V 3.338138 L 74.195708,1.669069 C 75.211004,0.666382 76.169215,0 76.595708,0 c 0.390464,0 0.709936,0.103824 0.709936,0.230721 0,0.126896 -0.81264,1.051929 -1.805866,2.055628 l -1.805865,1.824907 1.965865,2.21195 c 1.081226,1.216573 1.965866,2.30754 1.965866,2.424372 0,0.116832 -0.3644,0.212422 -0.809776,0.212422 -0.794938,0 -1.874134,-0.99567 -3.590224,-3.312355 l -0.72,-0.971984 V 6.81783 c 0,2.071648 -0.02634,2.14217 -0.8,2.14217 h -0.8 z m 13.76,2.584462 c 0,-1.743181 -0.14612,-2.174859 -1.44,-4.253979 -0.792,-1.272662 -1.44,-2.425654 -1.44,-2.562206 C 81.785644,0.111724 82.135074,0 82.562159,0 c 0.607683,0 0.999824,0.390305 1.803585,1.795132 l 1.02707,1.795132 0.96325,-1.795132 C 87.106671,0.39626 87.485561,0 88.072471,0 c 0.41425,0 0.75317,0.09534 0.75317,0.211875 0,0.116532 -0.65892,1.335825 -1.46428,2.70954 -1.309527,2.233712 -1.454667,2.67631 -1.373307,4.188124 0.0825,1.532513 0.0249,1.700015 -0.61572,1.792717 -0.66245,0.09586 -0.70669,-0.01918 -0.70669,-1.837794 z"
     id="path825"
     inkscape:connector-curvature="0"
     sodipodi:nodetypes="cssssssscscccscccsssssscccssccscssccccscssscccsscscscssccssccccsssccssscccsscccssssscssscsscsccsscscscscccccccscscccssscsscccccssccssscsssscssccscsssccsscccs" />
</svg>
