<?xml version="1.0" encoding="iso-8859-1"?>
<!-- Generator: Adobe Illustrator 16.0.0, SVG Export Plug-In . SVG Version: 6.00 Build 0)  -->
<!DOCTYPE svg PUBLIC "-//W3C//DTD SVG 1.1//EN" "http://www.w3.org/Graphics/SVG/1.1/DTD/svg11.dtd">
<svg version="1.1" id="Vrstva_1" xmlns="http://www.w3.org/2000/svg" xmlns:xlink="http://www.w3.org/1999/xlink" x="0px" y="0px"
	 width="1025px" height="434px" viewBox="0 0 1025 434" style="enable-background:new 0 0 1025 434;" xml:space="preserve">
<g>
	<image style="display:none;overflow:visible;" width="1025" height="434" xlink:href="D2FEA7F8.jpg" >
	</image>
	<path style="fill:#4A0503;" d="M254.074,151.584v-18.426c0-5.267-2.341-7.019-7.314-7.019H134.439c-5.266,0-7.02,2.339-7.02,7.604
		v166.14c0,5.265,1.754,7.605,7.02,7.605h25.449c5.263,0,7.02-2.34,7.02-7.605v-58.207h68.747c5.265,0,7.312-2.048,7.312-7.312
		v-18.718c0-5.269-2.047-7.021-7.312-7.021h-68.747v-49.727h79.852C251.733,158.898,254.074,156.85,254.074,151.584 M314.33,151.876
		V133.75c0-5.263-1.751-7.604-6.727-7.604h-24.277c-5.265,0-7.314,2.341-7.314,7.604v18.127c0,4.973,2.049,7.021,7.314,7.021h24.277
		C312.578,158.898,314.33,156.85,314.33,151.876 M314.33,299.882V188.145c0-5.265-1.751-7.312-6.727-7.312h-24.277
		c-5.265,0-7.314,2.047-7.314,7.312v111.738c0,5.265,2.049,7.605,7.314,7.605h24.277C312.578,307.487,314.33,305.147,314.33,299.882
		 M433.379,300.175V283.21c0-5.266-2.047-7.313-7.31-7.313h-6.436c-16.381,0-23.404-4.973-23.404-15.796v-48.263h29.837
		c4.972,0,7.313-2.047,7.313-7.312V187.56c0-4.971-2.341-6.727-7.313-6.727h-29.837v-14.623c0-5.265-1.75-7.312-7.017-7.312h-24.279
		c-5.265,0-7.313,2.046-7.313,7.312v14.623h-0.877l-13.456,1.462c-4.971,0.584-7.02,2.046-7.02,7.02v15.211
		c0,5.265,2.049,7.312,7.02,7.312h14.333v52.357c0,28.666,13.164,43.292,56.161,43.292h12.287
		C431.332,307.487,433.379,305.439,433.379,300.175 M666.503,299.882v-82.194c0-22.816-15.503-39.197-42.414-39.197
		c-27.494,0-41.828,13.165-48.847,19.599c-6.143-11.993-19.308-19.599-37.442-19.599c-23.692,0-37.44,9.653-45.337,16.381
		l-0.293-7.02c-0.292-4.974-1.755-7.021-7.019-7.021h-22.523c-5.265,0-7.316,2.047-7.316,7.021v112.029
		c0,5.265,2.051,7.605,7.316,7.605h24.275c4.975,0,6.729-2.34,6.729-7.605V225c5.557-4.973,17.552-13.163,32.175-13.163
		c12.578,0,15.797,4.972,15.797,15.504v72.54c0,5.265,2.339,7.605,7.604,7.605h23.693c5.263,0,7.313-2.34,7.313-7.605v-75.173
		c4.094-3.511,16.672-12.871,32.174-12.871c12.285,0,15.796,4.972,15.796,15.504v72.54c0,5.265,2.045,7.605,7.314,7.605h23.982
		C664.455,307.487,666.503,305.147,666.503,299.882 M737.865,151.876V133.75c0-5.263-1.753-7.604-6.729-7.604h-24.276
		c-5.265,0-7.311,2.341-7.311,7.604v18.127c0,4.973,2.046,7.021,7.311,7.021h24.276C736.112,158.898,737.865,156.85,737.865,151.876
		 M737.865,299.882V188.145c0-5.265-1.753-7.312-6.729-7.312h-24.276c-5.265,0-7.311,2.047-7.311,7.312v111.738
		c0,5.265,2.046,7.605,7.311,7.605h24.276C736.112,307.487,737.865,305.147,737.865,299.882 M897.566,299.882v-82.194
		c0-22.816-15.502-39.197-42.415-39.197c-23.689,0-38.609,9.653-46.799,16.381l-0.584-7.02c-0.291-4.974-1.758-7.021-7.021-7.021
		h-22.522c-5.265,0-7.314,2.047-7.314,7.021v112.029c0,5.265,2.05,7.605,7.314,7.605H802.5c4.978,0,6.73-2.34,6.73-7.605V225
		c6.141-4.68,19.303-13.163,33.932-13.163c12.575,0,15.793,4.972,15.793,15.504v72.54c0,5.265,2.34,7.605,7.605,7.605h23.69
		C895.521,307.487,897.566,305.147,897.566,299.882"/>
</g>
</svg>
