<?xml version="1.0" encoding="utf-8"?>
<!-- Generator: Adobe Illustrator 23.0.3, SVG Export Plug-In . SVG Version: 6.00 Build 0)  -->
<svg version="1.1" id="Vrstva_1" xmlns="http://www.w3.org/2000/svg" xmlns:xlink="http://www.w3.org/1999/xlink" x="0px" y="0px"
	 viewBox="0 0 262 88" style="enable-background:new 0 0 262 88;" xml:space="preserve">
<style type="text/css">
	.st0{fill:#312B25;}
</style>
<path class="st0" d="M247,15c-3.62-1.45-8.83-3.53-10.62-6.64c-0.13-0.22-0.26-0.62-0.3-0.87C235.49,4.06,236,0,236,0h-1h-5h-2h-1
	H35h-1h-3h-4h-1c0,0,0.51,4.06-0.08,7.49c-0.04,0.25-0.17,0.65-0.3,0.87c-1.8,3.11-7.01,5.2-10.62,6.64c-7.38,2.95-15,2-15,2v1v8v1
	c0,0,4.44-0.22,9.7,0.77c3.84,1.05,8.09,2.69,11.3,5.23c0.37,0.29,4.82,4.67,5,11c-0.17,6.33-4.63,10.71-5,11
	c-3.21,2.54-7.46,4.18-11.3,5.23C4.44,61.22,0,61,0,61v1v8v1c0,0,7.62-0.95,15,2c3.59,1.44,8.75,3.5,10.58,6.57
	c0.15,0.26,0.31,0.72,0.36,1.02C26.5,84,26,88,26,88h1h4h3h1h192h1h2h5h1c0,0-0.5-4,0.06-7.41c0.05-0.3,0.2-0.76,0.36-1.02
	c1.83-3.07,6.99-5.14,10.58-6.57c7.38-2.95,15-2,15-2v-1v-8v-1c0,0-4.44,0.22-9.7-0.77c-3.84-1.05-8.09-2.69-11.3-5.23
	c-0.37-0.29-4.82-4.67-5-11c0.17-6.33,4.63-10.71,5-11c3.21-2.54,7.46-4.18,11.3-5.23C257.56,26.78,262,27,262,27v-1v-8v-1
	C262,17,254.38,17.95,247,15z"/>
</svg>
