<?xml version="1.0" encoding="utf-8"?>
<!-- Generator: Adobe Illustrator 23.0.3, SVG Export Plug-In . SVG Version: 6.00 Build 0)  -->
<svg version="1.1" id="Capa_1" xmlns="http://www.w3.org/2000/svg" xmlns:xlink="http://www.w3.org/1999/xlink" x="0px" y="0px"
	 viewBox="0 0 334.6 334.6" style="enable-background:new 0 0 334.6 334.6;" xml:space="preserve">
<style type="text/css">
	.st0{fill:#797571;}
</style>
<path class="st0" d="M175.3,287C175.3,287,175.3,287,175.3,287c-38.1,0-79.5-1.2-123.1-3.6C26.4,282,6.4,262.2,3.6,235.1
	c-4.8-45.2-4.8-90.8,0-135.6c2.8-26.8,22.8-46.7,48.6-48.3c75.3-4.7,152.7-4.7,230.3,0c26.1,1.6,45.6,21,48.6,48.3
	c4.7,43.2,4.8,88.9,0,135.6c-2.7,27-22.3,46.5-48.5,48.4C249.4,285.8,213.4,287,175.3,287z M166.4,60.5c-37.9,0-76.1,1.2-113.5,3.5
	c-19.7,1.2-34.4,16-36.6,36.9c-4.7,43.9-4.7,88.6,0,132.9c2.2,21,16.9,35.8,36.5,36.9c43.4,2.3,84.6,3.5,122.4,3.5
	c37.8,0,73.5-1.2,106.3-3.5c19.8-1.4,34.6-16.2,36.7-36.8c4.7-45.9,4.7-90.6,0-132.9C316,80,301.3,65.2,281.7,64
	C243.1,61.6,204.4,60.5,166.4,60.5z M134.6,121.8V210l84.7-43.8L134.6,121.8z"/>
</svg>
